<svg width="400" height="400" viewBox="0 0 105.833 105.833" xmlns="http://www.w3.org/2000/svg"><path style="fill:#000;stroke-width:.404863" d="M351.336 168.164c-8.57.743-6.851 28.274-16.295 57.87-12.266 58.99-34.988 112.516-68.1 146.69-13.29 13.717-27.37 25.821-43.334 36.944-10.45 7.282 9.944 13.297 16.17 18.633 26.304 22.54 44.397 39.44 53.963 66.785 5.759 16.462 11.86 32.193 17.393 48.34 12.122 26.435 36.849 69.302 28.142 96.91-11.276 26.053 16.8 18.28 20.344 16.615 30.686-14.416 72.27-23.745 102.178-28.142 39.785-5.85 81.454-18.168 111.447-1.682 4.887 2.686 20.066 7.698 17.332-2.856-6.195-19.268-4.26-48.42 1.985-67.222 9.318-28.06 8.175-49.381 9.632-78.195.678-13.392-1.762-28.558-2.996-40.295-.767-7.3 9.128-10.196 7.362 9.845-2.7 30.642-1.286 60.741 8.556 88.95 9.75 27.941 1.495 56.957-8.984 82.73-4.68 14.837 11.022 4.53 18.879 5.078 33.773-8.754 65.544-3.093 98.672-.074 39.038 3.557 100.657 15.383 128.314 40.182 8.982 4.103 12.617-2.095 10.94-10.795-7.737-42.746 22.558-80.191 30.62-108.489 7.013-19.802 14.486-37.752 19.817-58.373 4.66-18.023 28.488-42.927 41.754-49.115 6.868-5.428 32.658-14.452 17.393-24.885-17.786-15.31-25.557-37.969-45.97-50.62-11.152-7.775-16.3-20.375-19.185-33.2-8.942-27.326-32.374-48.49-41.414-75.709-6.077-18.298-3.019-37.892-7.185-56.004-1.623-7.053 5.507-21.132-5.274-20.71-12.447 7.642-25.311 16.672-40.771 19.83-13.422 2.74-23.858 13.904-39.229 10.468-20.862-4.664-42.202-2.023-63.562 2.123-12.159 2.36-23.996 13.012-36.239 6.078-15.972-7.116-33.222-6.483-50.517-6.287-8.703.099.989 17.75 2.789 25.877 3.788 17.103 5.188 34.629 4.27 51.602-1.59 29.365-14.898 56.986-18.169 86.283-.866 7.76 8.35 13.355 8.983 21.922 5.004 21.43-.34 42.25-6.028 63.076-5.279 19.33-2.615 54.506 4.2 73.168 6.801 18.618 8.585 46.153 1.558 63.892-3.633 12.622-1.483-3.871-.377-8.166 6.025-33.25-7.934-55.53-11.086-90.02-1.758-19.242-2.278-38.521 4.377-57.402 6.718-19.057.776-39.46-3.953-58.937-6.63-27.308 8.275-54.748 11.285-82.371 4.227-30.911 3.18-62.872-5.718-93.176-3.039-10.347-7.554 2.69-10.309-8.28-1.406-5.6-11.554 4.779-8.25 9.977 4.32 16.472-4.96 32.333-7.691 48.676-6.75 40.373 7.062 79.708 8.43 118.744.603 17.24-6.982 34.169-4.75 51.434 2.504 13.228 7.467 26.21 6.294 40.148 1.149 21.743-1.339 42.81-3.605 64.143-1.31 12.33-8.628 22.821-11.795 34.846-3.497 13.274-.367 29.163-.873 41.795-2.562-12.972-5.672-27.349-2.53-39.77 3.949-15.608 8.708-29.999 11.46-45.39 2.377-22.258 6.463-46.803-.773-68.312-7.436-22.101-9.349-45.346-.774-66.937 5.346-10.753 7.045-22.357 2.693-33.94-8.885-32.136-11.48-66.173-7.879-99.19 1.552-14.228 9.906-33.311 6.954-42.73-2.835-9.045-61.871-1.68-83.727 6.089-27.255-11.482-55.532-13.858-82.035-5.112-4.777-1.346-8.406-7.763-14.608-10.992-15.097-7.86-33.848-7.53-44.129-19.45-7.79-9.395-12.719-13.206-16.072-12.915zm249.676 33.05c1.337-1.012 5.03 17.943 10.623 8.942 10.504 21.618 10.124 47.181 7.666 70.649-2.203 21.024-4.23 41.997-10.852 62.027-3.679 11.13-3.434 23.498-2.615 35.51.323 4.73 6.43 13.565-3.602 10.697-5.874-1.68.914-21.71-.916-29.303-8.616-35.735-14.998-86.304-2.418-121.97 3.198-9.065 1.344-34.036 1.877-36.069.068-.259.148-.415.237-.482zM384.29 216.95c10.566.192 24.405 9.441 14.854 14.96-6.835 3.948-11.82 6.76-19.43 6.529-10.722-.327-7.802-20.298 2.514-21.403a16.575 16.575 0 0 1 2.062-.086zm437.285 5.696c12.285-.16 24.645 24.072 11.242 24.058-8.864-.51-26.144-8.203-20.976-17.121 2.86-4.937 6.294-6.893 9.734-6.937zm-59.17 9.353c21.407.131 41.372 6.978 60.073 16.92 15.49 11.415 30.54 23.59 42.605 38.77 9.647 14.983 21.563 29.42 25.62 47.31 7.48 22.645 16.885 47.251 12.95 71.826-2.582 19.945.282 41.44-5.261 61.342-5.965 29.69-16.949 57.884-32.887 83.678-12.829 18.516-32.094 30.244-49.91 43.281-24.35 12.791-53.902 11.321-80.739 8.695-14.24-1.717-27.624-5.953-39.935-13.047-12.5-5.705-23.666-15.117-32.225-25.214-18.995-29.386-24.55-67.51-16.562-101.53 1.662-25.7 43.005-25.97 40.021-52.974-1.639-7.739-10.066-11.797-15.043-17.7-18.318-12.293-27.482-33.465-26.914-55.06-1.922-19.128 4.695-38.14 13.266-54.963 7.171-10.094 13.134-20.548 23.031-28.28 12.438-13.097 31.98-14.622 48.46-20.11 9.652-1.894 19.29-3.167 29.15-2.88 1.44-.052 2.873-.073 4.3-.064zm-311.926.606c13.671-.137 30.382.934 38.182 3.462 16.365 5.306 33.746 10.853 46.057 22.86 16.188 17.83 31.148 40.152 31.144 65.566 2.638 21.898-2.372 45.67-18.427 61.281-17.163 13.873-26.236 14.815-29.643 34.235-.653 11.905 15.39 15.53 22.064 23.625 15.463 12.603 23.394 31.99 21.53 51.926-4.299 45.977-17.661 77.957-57.881 98.95-40.29 13.086-88.022 13.522-120.4-9.564-31.368-17.876-45.33-42.345-58.405-71.164-9.969-21.973-17.633-47.256-21.435-69.133-3.941-23.111-1.443-47.405 2.775-70.449 6.507-23.33 11.81-47.482 23.52-68.85 10.963-17.973 22.168-36.795 40.236-48.847 9.256-5.613 18.77-11.368 28.928-15.272 13.088-2.928 25.771-6.878 39.54-8.097 3.44-.305 7.658-.484 12.215-.53zm213.696 4.388a10.32 10.32 0 0 1 3.5.733c15.279 5.991-1.868 34.756-12.51 25.67-9.492-8.105-1.96-26.703 9.01-26.403zm97.883.21a69.895 69.895 0 0 0-3.543.013c-20.877.545-42.01 2.445-60.286 14.443-14.062 9.233-27.217 19.37-34.931 34.412-10.808 22.382-16.8 48.674-9.045 73.55 13.386 42.942 36.076 28.26 50.281 23.927 38.827-18.704-4.7 29.721 8.363 51.012 19.648 32.021-62.943-20.522-64.88 54.718-1.67 33.83 8.626 72.257 38.533 91.461 17.343 11.137 37.427 17.254 58.373 20.475 16.513 2.54 32.448-1.566 48.414-4.848 20.204-4.153 38.14-14.844 52.635-30.408 15.789-16.955 27.762-36.641 36.863-57.611 4.738-13.14 8.81-27.579 11.639-41.707 5.1-25.661 6.545-52.458 2.187-78.725-3.547-22.992-6.77-46.86-18.517-67.228-7.564-17.788-19.495-32.877-34.102-45.569-17.2-14.945-36.898-25.822-57.67-34.039-7.978-2.119-16.07-3.7-24.314-3.877zm-219.536.88c14.162-.682 27.418 20.471 10.165 22.584-7.571.927-27.376-14.565-16.204-20.836a13.56 13.56 0 0 1 6.04-1.748zm-84.027 1.453c-9.291.08-18.608 1.113-27.7 2.758-17.322 2.766-35.92 5.303-50.34 15.861-22.026 15.04-41.522 36.15-51.306 61.385-23.313 59.597-24.772 130.848-4.777 186.35 15.14 42.024 46.649 62.988 80.537 84.732 10.996 7.056 24.724 9.185 38.01 9.791 18.872.371 36.394-.541 54.535-7.666 26.906-10.567 47.593-37.145 53.936-61.639 6.27-24.217 13.169-56.71-6.319-74.595-29.188-26.789-41.92-9.377-61.633-3.408-5.389 1.631 7.834-15.618 10.381-21.575 6.212-14.524 2.25-30.49-6.248-42.685-8.517-11.453 6.063-13.185 11.002-3.905 1.829 3.436 12.285 19.593 41.5 1.698 17.73-10.86 20.33-34.498 19.145-54.467 1.016-20.203-6.573-41.26-18.194-56.283-10.278-10.577-23.085-21.612-37.44-27.235-14.187-6.736-29.603-9.25-45.089-9.117zm298.797 2.922c25.236.235 48.335 10.58 69.592 23.16 9.962 5.896 16.893 16.117 26.492 23.174 13.852 12.714 21.171 30.174 28.225 47.277 7.375 19.859 9.082 39.846 11.584 60.932 1.25 10.547 2.534 21.464 1.406 31.11-.427 10.041-.333 21.4-4.057 31.423-1.843 8.61-2.763 18.183-6.558 25.863-3.417 11.419-6.575 23.632-12.909 33.96-5.588 9.112-10.017 17.688-14.966 26.816-3.865 7.126-9.83 12.088-15.319 18.785-22.07 25.116-43.16 22.598-68.304 29.75-31.307 8.904-66.224-2.071-90.178-23.027-11.919-10.427-21.183-23.603-24.887-39.73-5.52-26.962-13.905-55.736 9.586-75.616 18.315-13.094 78.039 17.803 59.102-11.793-19.743-30.854 17.93-67.543-5.979-72.121-23.017-4.407-52.674 23.296-60.549-12.668-6.513-29.748-3.883-62.656 15.533-85.084 15.937-18.407 39.486-29.63 61.92-30.701 6.693-1.473 13.429-1.238 20.266-1.51zm-295.967 1.072c22.728-.03 45.71 7.948 62.957 22.678 13.171 7.923 22.006 21.399 25.922 36.213 7.302 20.442 5.45 43.858-1.16 64.014-6.568 13.553-19.841 27.365-36.432 21.798-10.447-3.505-17.122-20.263-28.11-14.564-12.63 6.55 3.13 21.055 5.013 31.227 2.91 8.694 1.667 18.688-1.248 27.103-3.153 8.938-20.353 21.872-10.903 27.928 9.69 6.21 19.964-10.076 32.323-9.7 43.032-.918 46.162 37.782 37.72 72.022-3.185 12.92-7.774 25.762-15.806 36.494-23.732 31.709-67.186 40.706-101.174 34.447-28.753-7.254-48.271-23.112-68.924-40.59-14.375-12.164-21.886-29.543-28.438-43.747-24.463-53.04-23.075-123.786-5.398-173.998 5.497-20.059 17.528-37.34 32.184-52.545 13.544-14.657 29.87-26.986 49.78-31.827 13.981-3.398 28.687-5.064 41.987-6.447 3.22-.335 6.46-.501 9.707-.506zm-179.074 146.6c19.796-.661 20.212 42.612.283 40.822-17.4-1.562-12.585-40.411-.283-40.822zm638.146 10.504c18.628-1.217 14.896 50.055-4.187 40.367-11.27-5.721-12.581-32.333-2.318-38.18 2.413-1.375 4.578-2.061 6.505-2.187zM546.436 567.936c8.462-.627 7.797 20.715 3.623 27.027-3.69 5.58-16.675 2.37-21.61-2.85-5.6-5.923 9.974-23.585 17.987-24.177zm114.796 10.402c9.636-.126 20.161 13.238 17.465 17.799-9.175 13.675-34.543.291-26.281-12.35 2.492-3.865 5.605-5.407 8.816-5.45zm-287.683 8.598c7.8-.282 19.103 6.192 20.383 13.347 1.706 9.54-17.341 12.949-22.944 8.205-4.949-4.19-7.142-20.041 1.051-21.404.485-.08.99-.13 1.51-.148zm467.017 2.796c10.445-.043 2.694 22.698-7.816 25.448-11.183 2.925-20.758-7.04-9.559-14.532 3.677-2.459 9.254-8.57 13.534-10.123 1.487-.54 2.761-.788 3.841-.793z" transform="matrix(.13654 0 0 .1361 -28.85 -2.838)"/></svg>