<svg width="400" height="400" viewBox="0 0 105.833 105.833" xmlns="http://www.w3.org/2000/svg"><path style="fill:#000;stroke-width:.494272" d="M533.61 158.074c-.165-.068-.373-.063-.637.02-.705.22-1.813.994-3.588 2.433-8.82 13.268-5.73 18.79-8.07 34.323-1.697 13.012-1.644 20.49.01 33.533-1.358 3.686-6.314 14.598-9.723 16.94-2.961-1.104-3.874-4.853-5.137-7.493-2.461-6.287-3.522-12.996-4.889-19.55-.764-1.721-1.492-6.682-2.322-2.458-3.147 7.554-1.817 15.967-1.433 23.9.71 11.06 2.613 22.482.959 33.29-.619 3.215-1.878 7.176-5.418 8.142-6.465-8.793-6.165-20.503-3.614-30.623-.67-18.464 5.871-38.816-.75-53.818-1.183-2.377-4.592-1.056-4.65 1.373-1.507 9.766-1.166 19.717-1.809 29.564-.305 4.72-.418 9.795-1.44 14.557-2.452 1.785-4.254-1.307-4.644-3.426-2.366-9.986-8.545-21.486-4.64-33.017.417-11.979 5.68-21.65 3.52-33.545-.476-2.462-3.904-2.589-4.593-.2-2.583 8.538-3.356 17.469-5.484 26.063-.906 3.785-1.658 7.725-3.623 11.129-2.18-5.566-3.993-12.023-9.11-15.635-4.05-2.308-8.021 1.457-9.81 4.871-2.767 4.799-4.645 10.04-6.49 15.244-1.236-2.306-7.7-18.945-10.662-19.638-1.075.15-2.782 1.433-2.516 3.218-.375 8.262 8.682 21.915 4.192 37.772-6.493 8.598-9.98 18.954-14.292 28.713-2.667 5.626-4.682 12.013-9.431 16.27-1.923 1.292-.717-1.792-1.08-2.839-.343-11.27-8.22-20.06-13.004-29.685-4.014-10.23-6.725-21.95-2.887-32.211 9.84-15.799 11.546-28.059 3.942-21.299-2.035 1.363-10.627 19.525-11.862 21.47-1.023 1.37-2.085-1.346-2.709-1.956-3.603-5.912-4.97-12.851-7.773-19.082-.576-2.2-3.645-.63-3.684 1.02.75 14.857 6.992 28.705 13.194 41.995 5.915 12.51 12.829 24.62 17.591 37.63.949 5.245 1.226 11.085 4.53 15.49 2.285 2.68 6.119.658 7.437-1.967 6.313-10.17 8.755-22.325 15.45-32.285 7.363-8.058 10.082-18.99 13.722-29.002 2.706-7.32 4.516-14.882 9.203-21.114 1.353-2.164 4.336-2.103 5.84-.125 5.439 5.725 7.997 13.46 11.836 20.233 11.357 22.71 20.894 46.224 26.527 71.021 4.959-1.244 8.369-5.323 10.59-9.705 8.063-15.491 11.318-33.343 21.631-47.681 1.35-2.597 2.392 2.086 3.49 2.976 13.72 23.318 18.47 50.98 34.072 73.317 16.608 25.532 22.758 55.8 32.454 84.24 1.075 10.041 1.632 20.207 2.412 30.302 1.177 18.658 1.5 37.678-2.875 56.045-1.696 7.676-5.038 15.725-8.336 23.245-7.515 18.518-14.503 38.231-12.842 58.53.677 8.247 3.215 16.33 7.484 23.425 7.718 2.028 15.897-1.01 21.457-6.477 9.563-8.907 14.849-21.184 22.786-31.365 16.25-30.717 35.366-59.831 61.085-83.461 9.265-8.376 19.158-16.227 30.045-22.371 68.213-29.726 110.597-81.088 181.801-101.362 9.013-2.511 20.928-1.928 29.979-5.414-5.876 10.859-10.159 22.564-13.727 34.352-3.686 30.006-14.57 58.376-24.68 86.615-7.031 19.64-17.53 38.308-31.363 53.824-12.16 15.251-34.75 20.449-41.523 36.414-3.714 8.585-3.98 18.062-5.035 27.204-4.061 23.327-17.152 44.381-34.434 60.283-11.377 11.897-26.982 17.942-41.676 24.465-4.45 1.918-8.866 3.901-13.232 6.006-8.884 30.206-44.943 72.873-74.041 56.72 7.937-5.24 13.514-16.336 19.924-23.709 24.117-27.741 84.76-126.473 85.937-128.261 16.573-25.186 22.603-43.299 39.46-63.387 21.654-25.808 26.45-37.94 43.476-63.633 13.933-21.027 26.793-33.3 39.685-45.416 2.55-3.669 5.911-7.014 7.348-11.307.04-2.418-2.887-2.95-4.35-1.322-7.708 6.737-14.341 14.663-20.457 22.85-32.199 31.41-57.263 72.77-81.988 102.584-26.575 32.044-52.953 64.222-78.697 90.423-20.28 10.329-68.392 82.33-90.268 74.893-7.049-2.611-28.405-15.865-34.242-20.457-26.97-21.214-3.88-100.658 1.174-148.353 3.667-34.607 17.704-76.792.242-107.64-1.874-2.208-4.815.342-4.18 2.757 2.119 10.026 3.037 20.57 3.13 30.072-5.228 73.954-15.364 176.873-39.263 206.027-14.079 17.153-40.002 45.032-59.046 47.465-9.359.21-18.256-4.05-25.446-9.404-11.928-8.882 13.335-78.479 16.801-115.285 6.952-73.833 1.968-141.804-1.89-210.092-2.1-37.162-8.387-71.998-11.206-107.494-1.027-1.621-2.145-6.352-3.004-2.242-1.877 3.737-.793 8.108-1.052 12.15-1.077 118.995 22.428 252.755-4.87 363.566-7.514 30.506-4.135 31.599-14.755 56.307-8.689-1.035-29.085-2.025-37.797-1.9-5.075-8.024-8.744-23.502-10.38-32.17-19.58-103.8-18.726-120.094-23.067-197.957-4.45-79.82 5.015-87.89-.96-195.373-1.108-4.165-1.423-1.058-1.798 1.492-2.328 16.421-3.508 32.993-4.668 49.537-3.766 57.871-2.776 115.919-1.852 173.863 10.945 131.95 28.763 178.23 28.516 199.238l-25.424 6.577c-19.852 5.135-24.473-107.35-26.13-147.248-5.221-37.804-5.2-76.458.903-114.02 3.46-21.287-1.76-21.994-3.712-4.607-10.162 47.282-3.829 106.59-4.504 135.904-.974 42.234 16.272 124.795 14.302 131.133 0 0-16.235 12.193-21.236 4.203-7.777-12.425-6.783-76.22-13.496-144.412-9.404-68.195-6.938-118.642-4.117-170.13 2.051-31.677-2.016-22.363-4.194-5.901-5.776 41.29-8.257 47.153-8.199 89.435-.328-1.5 15.743 237.922 15.658 236.791-3.383 10.557-22.477 16.152-22.662 12.371-2.642-53.991-15.254-280.43-15.918-318.986.581-27.075.241-57.335 3.899-88.62 1.147-8.535 2.993-17.075 2.383-25.734-3.494-7.337-5.55 3.045-6.41 6.371-1.173 3.728-2.198 7.542-3.13 11.41-2.058-3.574-4.719-6.584-8.248-8.792 3.15-7.67 6.91-20.42 10.579-27.596 1.493-5.254 2.833-11.404 7.521-14.756 3.456-1.524 6.003 2.542 7.473 5.102 1.871 3.399 3.041 7.12 4.062 10.847 7.486 4.59 11.385 12.898 15.936 20.069 4.255 6.667 12.768 15.172 19.066 20.22 21.225-5.77 36.721-65.674 49.565-86.388 1.193-4.046 2.393-8.09 3.558-12.143-.957-1.118-1.884-5.955-2.83-2.951-2.671 4.887-4.149 10.787-8.598 14.451-1.867.94-2.644-2.249-2.851-3.533-1.36-5.198-2.58-38.722-4.998-43.557-.32-.465-.713-.728-1.123-.832-1.232-.311-2.627.816-2.73 2.272-.287 3.503.948 34.999 1.22 38.482-.79-2.405-8.625-26.731-10.855-28.334-1.707.621-2.87 1.83-2.385 3.742.573 3.44 7.792 28.733 10.201 31.54 4.7 7.772 2.88 17.66-1.674 25.052-3.228 5.845-8.084 10.515-12.314 15.574-4.04 5.324-3.97 12.255-6.424 18.25-3.195 5.883-2.538 16.76-7.707 19.6-3.89-.247-6.092-4.297-8.035-7.223-2.235-4.14-4.495-8.768-4.287-13.543 2.07-5.967 9.385-28.321 9.306-34.715-.122-2.34-3.416-2.871-4.363-.746-2.29 4.307-8.191 25.377-9.467 30.051-1.55 1.229-4.627 2.016-4.984-.781-1.608-6.72-3.358-14.57-2.824-21.24.794-9.467 3.197-18.194 1.88-27.698-.959-11.606.63-15.936-5.011-22.949-3.007 4.39-1.973 9.962-2.659 14.955-.553 10.416-.82 20.85-.576 31.272-.25 2.182-.138 4.78-1.564 6.531-3.88-3.058-5.126-8.353-6.121-12.988-7.223-22.236.05-41.969-.399-62.77-.042-1.974-1.64-2.583-2.394-2.707-2.265-.372-4.08 5.278-4.905 8.098-2.883 25.725-2.92 52.022-11.251 77.183-.463 1.137-1.613 4.037-2.368 1.352-2.883-5.613-5.719-10.527-6.226-16.617-1.958-12.539-2.919-54.053-8.678-23.582-7.848 21.66 5.638 62.647-9.412 78.261-3.081-9.307-2.28-25.422-5.647-32.3-2.704-8.044 1.573-16.73-2.636-24.157-1.071-2.375-4.757-2.696-5.588.008-.501 11.5 1.91 20.393 1.91 30.977-.995 20.257-.317 43.595-5.947 63.355-11.514 22.252-15.935 30.128-20.485 51.006-19.435 69.64-14.876 144.763 7.723 213.077 22.41 38.334 27.005 98.22 59.26 122.515 26.872 12.422 43.245-10.864 73.176-16.318 36.83-5.998 79.592-14.652 111.836-7.244 30.913 14.76 36.73 16.444 65.468-4.942 26.174-19.477 65.436-22.458 88.672-.166 12.13 16.736 19.788 38.626 36.127 47.908 8.262 4.681 17.675 6.737 27.027 7.725 10.46 2.467 21.035-1.844 29.579-7.672 9.12-5.792 18.172-13.781 29.613-13.656 4.146.447 8.33.909 12.48.084 3.97-.79 9.151-1.741 10.826-5.947.781-3.864-3.934-5.262-6.953-5.336-4.203-.263-8.411.267-12.543 1.004-1.745-1.288-4.969-2.901-4.17-5.493 3.52-4.005 9.29-4.794 14.233-5.945 8.238-1.332 17-2.25 25.32-.16 4.403-.422 8.888-1.716 13.162-3.06 2.12-.455 4.852-2.604 3.166-4.891-3.437-2.543-8.152-1.895-12.195-2.531-11.305-.934-22.777-.876-33.896-3.323 7.855-8.796 20.33-10.794 31.505-11.695 20.67-1.514 41.947 1.693 62.621-1.889 15.987-.851-3.921-7.98-8.408-8.67-15.155-2.536-30.534-.238-45.732.662 1.108-4.927 6.818-6.389 11-7.773 20.133-4.958 41.187-3.567 61.447-7.758 28.243-3.592 22.432-10.252-1.683-11.338-9.414-.11-19.051-.054-28.067 2.96-4.626.855-9.777 2.401-14.307.472-1.715-1.842.612-4.448 1.758-6.04 6.162-7.003 15.082-12.023 24.483-12.618 37.63-6.296 16.273-9.463-11.453-9.252-1.13-2.342 1.076-5.327 1.814-7.268 11.982-14.46 4.887-37.636 12.61-51.619 13.124-11.745 32.605-18.08 42.269-30.99 3.263-4.216 10.498-17.243 13.435-21.688 20.289-6.236 28.485-13.563 42.155-29.302 8.344-9.37 19.627-18.171 27.92-27.551 3.726.837 14.853-17.05 5.293-11.17-9.34 4.546-18.04 10.424-26.094 16.969-5.044 4.704-9.596 9.907-14.066 15.172-2.025 2.494-4.749 4.296-7.116 6.341-12.722 15.356-14.06 8.41-10.088-8.066 1.958-9.505 6.423-22.468 14.022-28.564 13.5-11.214 31.29-15.946 41.672-30.682 11.673-19.722-.87-9.342-12.246-.55-8.135 6.578-16.318 13.717-26.344 17.2-1.53.2-2.197-2.193-2.9-3.36-2.361-6.39 1.983-12.73 5.7-17.634 9.424-12.072 22.24-21.088 31.206-33.535 3.13-5.5 6.353-11.09 8.33-17.127 1.114-2.4-1.811-4.902-3.92-3.145-6.448 5.157-11.372 11.943-17.137 17.819-3.239 3.001-5.837 7.63-10.709 7.855-2.08.28-.788-2.798-.709-3.83 4.097-12.875 12.518-23.796 17.614-36.228 2.959-10.12-30.427 12.93-38.424 12-23.83 6.73 2.238-27.503 8.638-40.38 7.896-24.712-13.35 2.876-16.222 9.362-10.862 24.53-8.808 33.113-16.487 37.098-33.328 14.036-10.828-30.575-7.074-36.584 9.857-15.778 9.657-17.656 1.338-15.406-5.768 1.56-9.839 15.66-11.518 21.41-13 44.53-21.452 71.155-29.902 15.244-1.937-12.82-10.116-1.29-8.846 7.437 5.282 36.281 8.758 28.73-19.467 48.184-11.323-16.583-22.257-29.866-21.485-24.723 4.872 32.448 32.16 19.735-17.526 49.49-.157-.808-10.6-36.494-13.262-29.043 10.975 43.812-15.415 62.887-20.324 25.003-1.427-12.914-10.207-9.443-8.279 8.434 4.587 42.534-23.105-9.206-25.356 3.218 9.79 23.198-5.931 36.197-15.263 44.726-.73-2.106-.785-4.88-2.293-6.476-2.117-1.47-3.266-.208-3.303 2.062-.318 3.29.426 7.152-1.557 9.987-1.01-.819-.046-3.448-.28-5.016-.15-3.636.665-7.565-.62-11.01-.6-2.525-3.804-.569-3.89 1.268-1.407 7.443-1.04 15.161-1.29 22.635-1.383 2.506-2.516 5.732-5.156 7.109-3.142-3.572-3.165-8.81-4.242-13.268-.557-1.024-2.532-5.886-3.034-3.476-1.22 2.604-1.313 5.432-1.22 8.254-.482-3.446-3.136-22.216-6.022-24.737-1.1.465-2.45 3.263-2.355 5.118.011 4.031 1.835 23.15 3.097 26.986 2.585 7.848-.27 16.221-5.335 22.281-3.601 4.78-8.342 9.047-11.192 14.186-1.528-2.136-5.198-2.222-5.963.605-1.738 7.054-.745 15.193-5.515 21.252-1.155 1.76-4.339 4.1-5.854 1.5-2.456-6.13-1.203-12.976-.871-19.385.77-10.577 3.085-21.106 2.48-31.742-.764-16.59-10.322 13.464-10.826 17.926-1.866 16.26-.21 32.986-2.129 49.078-.604 4.336-1.19 8.911-3.173 13.059-3.425-.907-3.884-5.297-4.647-8.221-1.779-9.25-.996-19.956-1.297-29.98.162-1.877-1.683-3.817-3.398-2.588-3.133 5.7-5.654 15.344-5.1 21.023 1.033 10.582.334 21.438-2.025 31.846-7.932-14.514-6.36-40.102.89-55.242 12.454-29.24 10.192-63.156 24.604-91.387 7.594-14.875-1.777-10.53-7.758-3.024-1.919 2.585-1.023-1.574-.867-2.9 2.072-10.458.56-27.958 9.203-33.125 5.03-6.918 7.28-23.932-1.516-12.203-3.29 4.66-6.023 9.68-8.79 14.66-2.982-6.464-5.611-17.974-4.717-24.723 1.843-10.705 3.93-18.834 6.373-29.46.913-3.974 2.393-21.753-3.12-10.49-4.82 8.687-7.872 18.357-9.5 28.14-11.224-16.117-1.126-38.06 2.489-50.344 1.712-6.232-6.67-21.63-6.783-10.586-.126 12.214-10 20.543-11.149 23.969-3.315-9.57-2.93-19.632-3.205-29.424-.421-14.999 5.681-30.295 3.498-45.117-.354-2.59-4.014-3.804-5.281-1.184-2.819 6.026-4.863 12.757-4.488 19.334.45 7.896-6.746 32.206-8.727 26.229-4.72-15.973-6.055-37.154-7.89-52.668-1.685-14.238 11.754-50.204 6.163-45.83-4.075 2.49-5.154 7.704-7.832 11.392-3.848 7.903-3.906 16.958-4.867 25.534-.756 6.183-.498 12.677-2.715 18.564-4.727-5.085-5.49-12.398-6.804-18.932-3.231-21.73 1.603-43.883 3.38-65.695-1.614-5.564-.643-9.58-1.792-10.055zM231.968 293.74c29.512 44.329-41.86 182.072-30.592 244.035 13.725 57.566 26.791 125.281 59.256 167.993-4.11-3.013-6.996-6.398-10.026-10.684-7.171-10.662-11.907-22.695-18.127-33.895-20.22-41.626-36.629-85.466-44.619-131.177-2.922-16.473-4.523-33.324-5.117-50.086-2.61-50.024 6.507-100.358 27.406-145.899 6.23-13.973 14.309-26.991 21.819-40.287zm286.996 24.844c-.57-.122-.984.476-1.21 2.025l-.126.356-.108.303c-.538 5.801.667 11.708 1.131 17.521 2.326 18.44 6.368 35.447 8.44 52.592 3.68 27.036 6.046 54.424 6.113 81.818-1.97 51.78-7.077 104.327-26.777 152.74-7.168 17.657-16.605 34.33-27.719 49.795-2.51 2.897 2.477-.265 3.9-.547 9.258-2.934 14.494-11.876 18.19-20.232 28.584-59.847 39.14-134.057 38.869-192.473.001-10.652-1.253-21.252-1.656-31.894-1.632-36.075-11.717-61.288-14.096-93.781-.904-5.294-1.096-10.845-2.799-15.924-.854-1.335-1.582-2.177-2.152-2.299zm26.248 56.05c-.781-.15-1.038 2.633-.504 9.454 6.605 24.898 6.974 49.26 9.1 71.258 4.327 44.795-2.1 90.437-14.674 133.804-6.382 22.095-14.755 43.313-25.09 63.89 8.259 3.085 7.839-2.063 11.656-8.554 30.398-59.638 40.77-146.37 37.569-192.713-1.435-20.764-14.672-76.486-18.057-77.138zM247.11 378.43c.635 28.071 2.423 55.516 2.047 78.53-1.396 78.741 12.782 234.21 10.9 234.632-3.36-.732-43.106-126.294-43.953-128.654-13.683-46.783 14.059-122.57 31.006-184.508zm258.053 77.328c-2.175-.04-2.176 3.26-2.275 3.89.576 14.11 1.703 28.135 1.443 42.286-.288 36.08-5.406 72.24-16.418 106.607-7.548 23.682-14.628 44.8 3.688 9.145 9.97-21.755 12.588-45.83 16.689-69.157 2.554-20.799 3.303-41.84 2.363-62.775-1.542-9.278-3.364-29.848-5.488-29.996z" transform="translate(-21.675 -6.043) scale(.13204)"/></svg>