<svg width="400" height="400" viewBox="0 0 105.833 105.833" xmlns="http://www.w3.org/2000/svg"><path style="fill:#000;stroke-width:.725412" d="M415.637 197.066c-25.58-.487-51.231 8.195-76.297 13.42 6.914 33.525 7.733 71.82 23.012 104.815 13.467 39.447-9.709-14.279-12.856-28.434-6.48-5.132 11.546 42.028 16.522 58.09-10.574-18.708-19.191-39.032-23.57-60.135-4.607-27.552 1.385 16.262-6.225-3.732-9.455-34.066 7.754 33.022-3.125 3.064-4.928-8.372-11.79-59.372-4.893-43.713-.683 28.217 10.004 9.211 3.451-8.164-6.88-31.077 3.434-9.905 5.582 8.68 8.803 41.058 2.752-18.753 2.102-30.47-33.982 6.336-56.672 6.515-98.973 19.82-45.846 14.42-66.648 36.795-93.42 68.517-39.193 46.412-76.037 138.44-84.605 193.035-11.785 75.09.443 118.148 11.469 164.563.47 10.394 12.65 53.246 34.777 86.125 22.126 32.879 66.431 79.735 104.039 100.857 59.676 33.516 121.9 66.564 190.559 56.532 75.65-11.055 165.66-29.364 212.021-87.538 25.479-31.97 43.558-49.281 69.106-79.877 24.545-29.396 37.312-65.241 44.693-105.517 8.854-48.317 9.39-108.647-6.686-161.115-10.98-35.838-22.521-63.497-47.3-91.258-26.275-29.436-23.786-61.293-62.872-79.637-36.665-17.208-42.08-37.052-73.976-56.396-31.717-19.236-63.686-27.049-97.002-37.52-8.487-2.667-17.006-3.85-25.533-4.012zm-24.557 10.555c6.18 5.62 4 48.899 6.123 68.873-8.198 1.193-2.569 37.615-3.3 56.211l-.725 7.066c-1.199-18.458-3.037-22.519-7.553-33.238-1.265-23.028-4.029-13.311-1.412 4.197-5.204 1.622-9.84-57.708-13.145-80.146-1.3-29.158 5.987-7.06 5.707 9.17 4.416 40.049 5.283-12.165 5.065-25.379 4.532 25.698 9.136 10.771 9.24-6.754zm36.772 2.815c1.536.346 2.164 24.84-.368 36.414-4.18 40.74 9.742-34.116 8.899-8.434-2.746 32.57 1.68 3.305 8.48-9.549 12.702-31.853-3.804 44.386 8.43 13.819 4.078-29.928 6.746-13.737 3.578 6.478 7.528-24.891 8.506-.085 3.873 9.973-8.828 45.995 18.486-55.204 12.912-19.278-6.94 38.032 14.474-31.343 7.567 1.672-9.12 39.63 6.423-4.25 11.394-18.54.549 8.234-14.223 56.122 1.725 18.282 10.643-34.575 6.633-4.056.037 13.776-11.827 39.497 8.87-2.408 11.215-18.895 13.292-36.57-9.785 50.31 6.138 6.114 15.63-39.36-3.216 25.8 4.99 10.763 15.043-41.548 8.159 5.061-1.945 20.422-10.909 20.839-.902 17.697 5.205-1.062 6.703-24.441 13.463-17.465 2.098 2.898-12.559 32.11 6.726 1.675 11.943-11.37 16.184-34.992-9.21 31.787 4.46 6.716 10.705-23.602 13.328-12.797 2.564 5.64-18.62 35.405 3.065 6.124 11.586-10.181 5.709-3.391-13.249 41.126-22.367 54.361-13.619 21.557-17.47 13.338-5.948-5.82-11.904 7.068-19.364 48.078-31.738 67.302-4.604-3.24 16.68-48.775 25.13-66.86-6.883 1.747-23.966 41.14-34.083 58.312-11.884 27.725-4.419 1.983 2.723-10.907 14.544-36.61-7.803 4.82-11.198 17.245-10.451 23.057 1.124-11.104 4.274-16.165 13.96-34.996-5.458 1.802-10.615 15.606-5.892-.985 17.73-44.644 28.23-60.486 15.046-31.456.657-4.578-7.176 9.302-.395-18.24-16.94 28.992-21.857 38.907-16.132 38.487-4.642.996 3.582-15.702 17.978-37.256-3.199-5.003-8.994 12.856-6.407 5.352 16.075-38.544 20.873-53.674 9.489-25.117-.622-12.305-6.19 4.656-10.054 29.046-4.865 2.071.746-11.847 8.372-22.859-1.023-10.35-5.216 4.693-7.213 28.168-9.533 11.772-2.018-7.275 10.477-43.093-3.327 14.116-11.693 26.783-14.361 39.957-4.879-12.883-.32-27.584 6.748-23.916-.604-17.154-2.553 3.226-14.36 44.008 5.735-40.814-3.979-13.554 2.252-17.64-5.191 4.277-6.357 7.943-2.57-1.09-6.341-4.639-2.967 14.62 2.557 23.907-8.71-3.536-8.842 19.898-10.194 34.607.492-9.997.647-22.28-2.456 2.234-8.594 27.38-5.536-.502-.865-5.208-13.842-53.583-3.785-80.736.862-13.302 1.747-18.134 2.446-17.976zm-27.791 1.273c1.14.002 2.319 13.78 1.71 23.543-.821 41.426 9.261 2.645 8.022-16.678.912 1.22 5.538 29.138 7.518.5 2.93 6.745 8.044 52.021-5.176 68.846-2.498 24.994-3.586-27.13-4.7.508-11.33 2.25-8.767-44.543-8.869-62.826.312-10.116.898-13.894 1.495-13.893zm-41.936 1.12c.937-.222 1.977 16.317 3.209 24.946 2.52 36.988 18.67 68.555 22.494 104.965-7.534-18.505-13.723-46.286-22.283-69.174.841-.506-.714-10.697-2.418-17.134-12.963-11.157 5.694 42.694 2.9 41.07-9.937-.933-14.881-54.321-12.761-79.875 4.094 13.854 7.042 38.56 7.638 8.207.392-9.342.795-12.905 1.221-13.006zm-99.584 16.948c2.282-.01 26.708 58.166 16.742 23.584-9.698-35.305 8.535 11.862 13.834 17.457-7.266-26.706.155-13.186 5.863 4.735 11.038 31.336 28.32 60.017 43.096 89.722l-3.545-2.045c-11.053-11.317-43.451-94.769-29.46-51 18.048 34.824-4.544 1.276-9.819-16.634-16.34-34.787-3.567 7.96 6.936 21.832 17.785 37.127-7.725-2.595-11.946-16.149-12.138-27.938-8.788-8.288.15 9.608-7.227-1.39-32.41-49.682-36.468-72.953 2.59 9.362 17.979 30.459 7.27 3.002-2.528-8.056-3.18-11.156-2.653-11.159zm46.147 4.233c4.398 6.314 23.277 77.227 41.023 105.547 14.693 30.03-5.03.73-10.025-11.87-17.413-37.68-1.016 7.585 9.267 27.266-10.884-17.114-28.565-38.73-35.363-59.906-10.88-28.926 3.016-9.715 6.844 7.619 10.286 26.676 8.395 8.602.554-7.424-8.471-9.95-23.808-79.012-10.039-41.847 11.27 33.814 1.479-5.798-2.262-19.385zm-62.852 17.217c1.268.534 11.779 18.202 10.61 7.693 2.816-9.814 24.868 41.062 32.575 57.64 12.98 23.051 4.604 16.57-4.275-2.738-23.085-44.603-.424 10.849 10.559 25.617-17.679-20.973-32.61-51.868-45.46-78.257-3.587-7.752-4.505-10.165-4.01-9.955zm-1.848 10.642c17.384 25.254 31.077 52.753 46.084 79.422-6.472-1.951-8.636-12.465-12.666-17.64-17.041-34.636-9.529-1.14 2.873 11.59-14.787-5.04-26.44-50.23-36.29-73.372zm-7.552 9.367c8.84 1.158 21.633 43.625 32.753 61.211-15.374-15.582-22.588-41.029-32.753-61.21zm338.314.235c4.9-2.058-29.585 59.377-2.033 22.158 7.185-5.92-16.465 38.789-27.326 49.351-5.71 1.426 3.866-10.23 2.691-10.017 16.59-23.904.99-7.686-6.863 4.674-.21-12.647 19.19-40.11 26.113-57.461 4.253-5.766 6.51-8.324 7.418-8.705zm-400.613 3.562c35.781 29.631 48.36 78.928 86.91 106.172 5.649 12.717-36.896-29.65-41.12-39.232-14.934-21.84-32.392-47.53-45.79-66.94zm40.894 9.215c3.709-.7 28.322 33.81 37.817 46.166 25.14 34.15-5.04 1.968-14.774-12.402-22.005-27.364 6.418 36.885.15 10.982 3.606-3.292 39.586 44.223 55.676 61.217-12.717-10.571-24.114-22.744-34.595-35.512-32.08-30.47 42.926 52.294 13.072 24.522-10.7-5.277-31.78-46.127-27.97-29.617.675 4.58-27.857-43.963-33.788-56.774 17.1 20.6 17.707 9.177 3.961-7.955.05-.377.204-.58.451-.627zm-40.7 6.53c6.032 1.092 37.63 39.717 46.257 60.146-17.187-18.63-31.173-39.855-46.258-60.147zm68.755 10.644c13.924 21.486 35.492 48.608 52.943 71.94-19.874-22.72-47.148-39.967-52.943-71.94zm357.559 5.478c-1.46 12.136-17.823 29.306 2.066 11.051 32.456-28.816-24.14 34.343 9.223 7.424 24.906-26.661 11.688-.873-3.522 11.434-30.622 37.88 11.155-6.685 24.178-16.41-7.945 12.392-49.359 53.3-13.883 23.974 20.939-21.202 8.915-1.116-2.736 9.805 8.492-6.273 36.557-23.782 12.203-2.324-20.023 8.228-20.428 26.939-.992 6.697 32.16-22.087-7.35 10.595-15.342 22.26-27.673 26.439 15.277-8.648 24.047-16.561 28.76-17.433-1.933 9.294-12.373 15.637-26.885 21.707 5.72.222 15.906-6.768 23.673-15.102 8.42 1.289-3.91 8.908-25.815 17.437 2.245 3.322 14.898-3.972 37.625-21.133-39.803 27.36 2.692 7.41 30.404-20.358-5.186 9.971 4.91 5.562 28.22-15.873 2.758 3.684-7.694 10.758 15.722-7.203 34.626-9.442 5.557 6.002-30.925 19.785 9.838.266 20.107-6.77 39.637-18.2-33.288 24.055 4.34 7.577 33.732-14.466-31.444 22.314-.002 8.394 38.429-13.687-24.01 16.815-7.332 13.528 36.707-14.244 4.945 3.387-7.066 11.984 18.071-9.101 31.546-5.407 6.223 5.295-39.345 17.792 48.652-16.11 17.671 2.412-36.327 16.529 3.684 4.896 19.045-.615 9.083 2.297-55.435 25.53-60.533 29.867 12.847-3.537 85.136-33.565 50.352-13.002-49.5 16.99 29.835-3.665 2.658 7.49-25.872 5.874-12.387 12.084 6.383 4.586 33.927-8.576-7.648 7.994-19.371 9.61-31.518 8.903 5.818 3.66 18.312-.006 34.162-9.1 11.275 6.469-9.27 7.908-32.35 6.756-4.324 6.38 10.61 3.154 47.14-6.495-7.421 6.682-24.002 9.465-.466 4.464 75.497-5.879 26.275 4.592-27.631 1.348-18.044 8.582 4.354 4.69 34.119-4.595.427 5.995-14.465 5.86-34.07 2.994 5.549 4.679 18.205 2.762 23.96-5.137 17.298 7.014-3.008 5.69-47.398 5.342 53.678 2.597 5.957 9.224-43.533 4.7 45.605 5.77-2.06 9.38-37.863 2.092 38.433 7.186 1.898 10.407-21.17-3.716-28.239 2.826-2.576 5.635 1.301 5.02-49.301-4.11-68.568-2.158 2.437 2.786 45.01 3.265 62.2 9.764 30.171 2.593 3.288 7.555-11.39 2.263-36.932-5.995 4.762 7.115 16.971 9.612-39.195-2.667-78.745-7.296-118.387-8.024-5.21-1.308-8.785-2.578-11.043-3.793 114.003 13.07-63.69-27.448 45.35-11.795 30.17-2.246-61.991-4.092-.172-8.248 29.247-4.919 3.486-7.526-10.914-1.334-27.011 4.232-11.393-6 6.434-5.564 28.892-3.735 1.979-4.607-11.635-1.51-33.853 5.518-12.553-3.741 7.332-5.488 33.502-6.756 2.83-4.452-13.278.828-12.995.79-17.231-.245-16.527-2.186 9.434 2.26 17.999-4.072 27.244-4.593 37.192-9.855-16.546-2.767-27.209 4.535 2.784-6.813 65.293-24.543 29.293-14.914-22.321 8.476-18.655-.836 1.45-5.336 36.204-12.801 1.602-5.436-14.776 2.658-33.231 10.545 5.334-5.613 17.492-10.129 29-11.567-2.47-2.658-14.845 2.656-45.564 15.676 4.221-6.453 21.431-12.355 35.802-19.2-19.532 5.143-31.363 9.824-29.248 11.282-3.57-3.926 10.475-8.576 35.217-14.914-2.883-4.433-17.206 3.432 3.62-4.872 40.823-19.02 55.295-35.862-19.78 6.609-22.531 5.471-2.59-5.615-3.376-6.705-37.291 26.325-56.255 30.197-48.803 22.813 43.333-26.66 5.66-10.263-42.207 22.235 11.848-14.318 27.021-20.504 25.439-11.73 11.948-10.217-5.265.529-9.145 4.593-54.16 33.326-37.13 18.74 11.497-11.171 85.549-47.946 43.5-28.428-15.324 8.9-67.045 36.918-40.427 11.684 39.557-21.753-7.235-.669-20.291 10.3-34.482 18.819 31.776-24.094-1.66-5.718-41.294 23.297 37.205-27.463-.074-7.658 17.438-14.078 4.13-10.126-5.938-1.395-40.925 19.384 40.276-30.602 2.385-9.154-45.785 24.424 40.07-31.712-2.123-8.174-35.31 21.409 10.704-8.912 19.299-17.76-34.987 19.018 7.65-8.45 2.904-10.822-22.888 18.692-12.706 3.582 1.734-6.273 49.198-37.302-55.968 40-17.46 5.535 29.736-25.339-25.911 16.639-16.174 6.996 10.295-4.817 55.405-53.705 28.267-32.828 14.546-21.112-27.484 21.716-5.078-3.967-17.761 13.372-3.517-15.275 12.123-30.738-17.727 10.83-26.127 36.5-43.166 50.498 2.838-5.741 25.018-37.814 35.09-54.416 23.39-30.933-1.443-5.58-11.264 10.197-3.4-11.997 22.751-40.909 35.325-54.674zm-436.308-1.448c9.993-14.675 71.504 74.404 97.556 87.785l-37.379-22.969 23.801 26.504c6.562 7.306-27.55-10.439-27.55-10.439l24.583 21.798c-27.704-12.965-88.656-67.97-100.271-88.706 3.21-3.612 64.995 50.288 76.285 58.725 6.8 5.08-57.025-72.698-57.025-72.698zm-24.648 30.583c6.287.007 28.164 16.222 41.522 29.92-21.122-5.942-23.781-18.023-41.522-29.92zm-6.394 5.66c2.608.134 50.038 32.773 47.16 31.95-8.029 4.831 35.029 19.197 46.262 29.609l-6.684-2.744-7.37-2.903c-32.032-9.594-52.861-36.751-79.263-55.486-.252-.3-.279-.435-.105-.426zm257.555 9.498c18.848-1.436 33.115 16.73 53.056 32.293 29.846 21.603 96.604-4.916 96.319 49.528-13.445 43.547 27.616 62.178 46.326 93.095 19.914 41.276-40.479 56.847-41.733 95.19 13.115 33.97 4.83 84.023-42.859 76.957-48.544-25.61-68.218 35.493-105.645 49.494-7.12 1.978-14.888 2.122-21.88-.46-30.97-16.396-44.384-61.732-87.143-54.253-51.63 5.263-45.51-48.331-52.289-82.344-20.634-27.344-67.038-74.68-22.549-97.824 48.028-24.984 18.251-68.986 38.95-99.619 25.512-37.759 85.078 2.267 109.94-45.863 11.425-10.838 20.94-15.54 29.507-16.194zm-263.694 5.162c.244.019 1.23.546 3.157 1.711 29.053 6.387 53.275 31.847 84.109 45.387-9.038-1.574-17.053-6.438-24.961-10.799-10.163-5.764-54.387-34.68-27.065-14.12 37.615 23.17-13.396 15.026-26.96-3.981-28.815-22.29-4.565-8.396 12.082 4.234 44.214 24.666-22.72-22.607-20.362-22.432zm372.834 1.108c1.036.003-.144 4.35-6.006 15.404-3.82 8.282-13.302 26.371-5.037 5.026 3.284-11.162 9.53-20.435 11.043-20.43zm-105.385 12.683c-55.462 2.273-16.38 112.933.133 145.905 27.816-51.314 47.462-142.44 5.533-145.78a47.105 47.105 0 0 0-5.666-.125zm-1.76 4.993c5.925-.885 12.454 2.005 18.817 9.998 22.987 28.87-14.207 106.01-17.658 123.64-2.309-10.583-12.872-48.031-17.44-59.529-13.832-34.82-1.492-71.455 16.282-74.11zm-265.26 2.966c13.808 4.829 59.43 33.615 20.32 15.84-2.041 5.752 40.493 17.152 55.747 25.897 33.573 15.492 4.956 6.994-12.191-.928-41.381-16.79 15.235 11.01 26.588 15.668-17.734-4.023-43.503-17.9-63.6-27.289 25.489 21.465-21.862-7.903-31.406-13.576-22.447-11.163-7.311-9.515 7.152-.92 24.176 14.216 19.322 4.363-2.263-3.514-34.32-20.078 31.901 11.593-.346-11.178zm264.968 4.598c-29.91.404-7.31 88.302 1.418 108.822 6.012-22.557 43.07-109.422-1.418-108.822zm3.222 4.738c32.077 5.015 4.384 68.18-1.605 98.526-3.335-23.705-28.183-103.183 1.605-98.526zm-262.822 18.786c7.163.563 39.408 16.961 55.404 21.619 29.03 7.986 6.382 10.699-9.632.69-10.665.912 42.798 15.746 53.062 26.896-35.75-10.924-69.73-26.939-99.92-49.098.243-.111.609-.145 1.086-.107zm154.545.486c-4.478.36-8.768 2.122-12.77 5.533-48.61 41.437 63.049 94.981 99.168 106.994-14.538-48.959-55.053-115.05-86.398-112.527zm210.961 1.14c-35.824 2.6-73.001 81.817-82.762 111.165 55.954-16.616 134.278-67.16 106.992-99.17-7.769-9.115-15.963-12.595-24.23-11.994zm-212.129 6.66c2.108-.154 4.427-.098 6.965.19 36.669 4.16 64.913 85.008 74.94 99.914-9.117-5.851-43.065-24.86-54.424-29.762-43.004-18.551-59.095-68.026-27.48-70.341zm218.95.454c10.03.848 16.68 8.22 14.952 23.447-4.16 36.669-85.007 64.916-99.914 74.941 5.851-9.116 24.861-43.066 29.762-54.425 12.368-28.67 38.48-45.377 55.2-43.963zm-384.53 2.879c37.202 16.773 77.353 26.836 113.94 45.156-20.574-3.898-39.652-12.97-59.085-20.432-38.972-16.067 1.88 7.354 17.78 10.616 35.096 11.557-11.595 3.785-22.276-4.643-12.921.099-85.366-34.017-42.687-20.91 36.499 12.145-.085-1.364-7.672-9.787zm172.057 1.744c-4.948-.14-9.898 1.923-14.746 6.904-20.864 21.435 57.27 67.607 77.95 75.945-9.87-17.045-36.487-82.09-63.204-82.85zm206.558.101c-23.311 1.262-59.573 63.345-66.869 81.442 20.202-11.699 107.828-46.92 75.945-77.953-2.679-2.608-5.746-3.669-9.076-3.489zm.451 4.288c2.785.276 5.334 1.787 7.555 4.832 19.136 26.227-45.112 51.308-70.805 68.53 12.604-16.729 43.755-75.298 63.25-73.362zm-206.357.08c22.607-.171 43.694 51.829 58.764 74.31-19.12-14.403-92.89-53.034-68.534-70.805 3.279-2.391 6.54-3.481 9.77-3.505zm-198.16 1.181c44.343 17.399 90.14 31.872 134.693 49.121l.586 1.002c-45.556-13.848-95.19-25.614-135.28-50.123zm17.84 16.328c.496.015 1.25.111 2.3.305 31.186 10.556 55.788 30.977 88.915 38.295-24.034-1.351-45.41-14.414-67.883-21.76 32.36 19.386-22.401-4.269-35.149-9.605-34.533-12.736 8.301 1.476 22.676 4.138 31.983 6.943-18.304-11.588-10.86-11.373zM90.97 453.877c34.315 7.32 66.084 24.127 100.988 28.736 4.495 9.028-50.966-10.543-67.709-14.119 4.857 11.079 60.036 14.588 81.775 26.108-35.678-7.357-72.129-9.808-104.675-28.051 4.622.059 13.778-4.199-10.38-12.674zm-13.772 16.559c8.31-.688 51.13 8.81 66.942 16.503-24.386-.858-45.5-5.516-68.21-15.55-.4-.55.081-.855 1.268-.953zm26.787 14.476c-3.024 9.274 19.726 14.422 36.752 17.986-19.258-1.987-39.041-4.113-56.941-11.992-26.528-5.212-.092-1.104 1.912-4.578 6.628-.554 16.954-2.128 18.277-1.416zm-22.65 13.192c9.13-.295 29.349 2.573 37.082 6.109 30.812 2.884 2.856 8.82-11.861 2.685 8.718 10.97 38.27 5.605 54.402 12.118-24.07-1.363-49.815-1.04-73.531-7.702-24.858-5.928-14.915-3.438 3.822-5.607-17.407-5.23-17.015-7.374-9.914-7.603zm178.451 11.61c-24.381-.755-42.646 5.804-44.107 24.147-5.073 63.674 111.744 22.58 145.779 5.534-28.864-15.647-70.324-28.709-101.672-29.68zm273.25 2.155c-35.976-2.008-89.585 18.04-110.857 28.694 51.314 27.815 142.439 47.46 145.779 5.533 1.902-23.878-13.336-33.022-34.922-34.227zm-273.47 3.178c34.701.925 81.398 22.494 94.62 25.082-10.583 2.309-48.031 12.872-59.529 17.44-46.427 18.442-96.08-9.644-64.111-35.098 7.218-5.747 17.452-7.732 29.02-7.424zm-181.764 1.17a90.41 90.41 0 0 1 13.742.916c5.681 5.34 47.726 3.394 31.601 10.133-13.86 2.866-24.063-8.93-40.306-7.106-22.553-1.034-17.251-3.813-5.037-3.943zm445.277.295c32.053 1.312 53.989 21.884 30.012 40.974-28.87 22.987-106.011-14.207-123.64-17.658 10.583-2.309 48.03-12.872 59.528-17.44 11.607-4.61 23.416-6.314 34.1-5.876zm-266.748 3.484c-16.37-.314-28.446 4.901-28.22 21.584.403 29.91 88.301 7.31 108.822-1.418-14.099-3.758-53.317-19.642-80.602-20.166zm1.895 3.193c22.396.81 54.182 13.03 73.148 16.774-23.704 3.335-103.183 28.182-98.525-1.606 1.88-12.028 11.939-15.653 25.377-15.168zm268.101.19c-27.653.086-66.798 10.96-79.623 16.416 22.557 6.012 109.423 43.07 108.822-1.418-.151-11.216-12.607-15.05-29.199-14.998zm1.584 3.744c14.539-.18 24.623 3.306 22.877 14.477-5.015 32.076-68.18 4.383-98.525-1.606 14.815-2.084 51.417-12.571 75.648-12.87zm-394.303 5.283c47.304 5.756-28.08-3.152-28.658 11.408-14.562 2.394-69.04-1.516-26.844-2.439 29.011 2.107 1.195-7.553-12.21-6.3-3.538-.661 48.701-1.513 67.712-2.669zM102.7 547.25c23.173.096 56.795 2.783 30.463 7.576-5.046.103-10.04.9-15.084 1.053 24.308-6.234-12.1-2.814-35.303-3.744-25.115.012-14.816-5.732 2.842-4.1 2.794-.56 9.358-.817 17.082-.785zm-3.053 7.64c7.373.036 10.713 1.022 1.598 3.842-6.288 1.61-12.79.768-19.148.336-34.406.268 1.332-4.256 17.55-4.177zm269.727 1.538c-55.953 16.616-134.278 67.158-106.992 99.168 41.437 48.611 94.98-63.049 106.992-99.168zm42.273 5.043c16.616 55.953 67.159 134.28 99.168 106.994 48.612-41.437-63.048-94.981-99.168-106.994zm-46.894.619c-5.851 9.116-24.861 43.064-29.762 54.424-19.788 45.87-74.76 61.12-70.152 20.515 4.16-36.669 85.008-64.913 99.914-74.94zm-246.479 1.502c12.8.107 21.079 1.054 7.272 4.115-12.9-.22-25.797.4-38.695.53-20.113 1.848-30.23-2.65-2.97-3.721 4.275-.298 21.594-1.032 34.393-.924zm269.471.185c-23.418 69.95-47.461 142.44-5.533 145.78 63.674 5.072 20.338-103.005 5.533-145.78zm29.565 2.317c9.116 5.85 43.064 24.86 54.423 29.761 45.87 19.789 61.12 74.76 20.516 70.153-36.669-4.16-64.914-85.008-74.94-99.914zm-28.83 4.955c2.308 10.584 12.872 48.031 17.439 59.53 18.443 46.427-9.643 96.08-35.098 64.11-22.987-28.87 14.207-106.01 17.658-123.64zm-205.563 1.855c-11.818 11.504-37.396 16.105-55.557 21.065 19.852-3.682 15.585 2.333-1.838 4.035-4.23 7.437 37.353-9.405 51.28-16.649 11.74 3.441-36.816 19.523-49.078 21.98-29.203 5.585 26.612-.27-3.582 7.835-26.659 1.499-2.838 6.503 9.3-1.332 22.198-6.139 12.403 3.624-3.933 5.773-26.115 7.658-3.859 4.7 9.32.467 6.06 3.027-41.868 11.417-57.17 16.272-17.161 4.16 6.01-4.811 8.914-5.15 39.374-12.405-31.208 3.328-13.777-4.163 30.48-8.212 6-6.491-9.764-4.023 5.472-6.192 59.166-13.1 16.826-11.153-40.962 3.956 34.99-8.682 14.823-10.244-35.73 4.113-6.498-2.94 10.093-4.906 54.482-11.536-67.885 6.561-26.459-5.127 32.51-5.564-7.91-4.037-17.816-.426 5.83-8.65 44.001-3.797 63.365-8.928 45.34-7.905-14.044 6.434-18.326 8.454 11.504 2.84 76.09-21.557 48.512-8.235-45.562 12.434 9.994 4.335 24.867-5.545zm169.658 1.408c-20.202 11.7-107.827 46.919-75.945 77.952 21.434 20.863 67.607-57.27 75.945-77.952zm-4.07 3.79c-14.404 19.12-53.035 92.89-70.805 68.533-19.135-26.228 45.112-51.31 70.805-68.533zm81.027.17c11.699 20.201 46.918 107.827 77.951 75.945 20.864-21.435-57.27-67.607-77.95-75.946zm161.352 2.714c14.153-.173 40.651 1.85 53.633 2.36 14.627-.322 70.06 6.685 57.447 10.476-30.939-4.492-15.553 3.918 4.515 6.381 42.032 7.054-34.85 1.366-6.662 7.594 42.228 10.92-24.717 1.53-6.925 6.463 21.95 2.153 25.269 12.314.359 6.474-40.492-6.394 20.515 7.638 15.797 12.34-40.936-10.507 33.51 18.947-3.828 9.182-23.505-8.878-13.148 5.089 4.279 6.775 39.11 13.614-31.706-6.941-17.639 1.713 36.204 13.776 4.974 10.817-13.045 2.043-42.005-13.198.988 5.77 16.819 13.092 34.012 16.692-2.3 3.992-17.694-2.92-38.776-16.275 36.386 21.548 10.375 14.453-38.817-16.393 2.083 5.947 14.76 15.71-13.188 2.755-48.712-24.504-17.818-1.034 39.366 28.16-38.548-13.494-7.932 6.582 27.731 16.733-.224 5.088-7.426 5.834 25.922 15.445 5.102 10.052-10.171 1.387-34.123-16.414-6.137.452 10.248 9.906 39.952 31.746-66.49-30.295-18.012 2.584 28.847 17.256-.991 6.433-13.485-3.445-29.271-15.945-7.442 4.51 6.114 11.101 28.16 15.643 8.7 15.937-8.356.64-22.86-15.879-8.513-1.013 4.522 8.13 26.953 17.867 6.776 14.423-9.551.457-34.015-22.515 5.98 11.33 15.543 20.752-26.145-15.135-49.057-37.182-75.947-52.141-25.272-13.363-1.564-6.755 9.834 2.031 25.873 13.97-60.61-50.55 4.38-13.75 40.818 16.799-16.932-12.663-30.097-21.105-5.914-10.711 31.269 19.281 45.973 19.013 3.59-5.792-76.04-34.545-33.28-23.132 10.996 5.161 67.705 34.193 42.694 12.517 18.316 4.127 4.183-5.419-6.41-7.705-11.161-2.408-71.549-31.083-32.686-16.805 40.177 17.518-5.026-8.614-19.783-11.34 43.378 4.788 40.038-5.277 23.91-10.054-20.717-8.536-50.733-20.12-11.258-15.63 36.998 8.58-15.792-5.01 10.117-2.769 38.662 5.49-35.758-11.334-3.793-6.992 27.742 5.491 14.802-2.134-3.851-4.826-38.575-10.343 33.167 7.372 22.591-1.797-3.818-1.864 21.3-2.084-6.968-7.095-36.897-9.238 5.05-.582 20.302.203 39.665 1.785-7.07-12.928-20.677-12.61 1.017-.683 4.364-.985 9.082-1.043zm-157.563 1.356c19.12 14.403 92.89 53.034 68.533 70.804-26.227 19.136-51.31-45.112-68.533-70.804zm-44.808 5.96c-6.013 22.558-43.07 109.423 1.418 108.823 29.909-.404 7.31-88.302-1.418-108.822zm-.2 5.56c3.335 23.704 28.183 103.182-1.605 98.525-32.077-5.015-4.384-68.18 1.605-98.526zm-195.037 27.821L130.59 680.81c67.37-40.657 59.73-31.017-3.506 21.68 19.272-12.358 40.852-24.04 21.133-5.13 24.31-6.87 42.055-29.072 64.763-40.207-37.355 58.381-38.216 27.48-58.066 62.13 13.227-.195 46.419-41.656 70.467-54.428-15.424 15.035-87.89 85.974-71.97 73.45 37.308-29.351 50.832-43.967 61.414-47.67 26.654-9.325-5.477 8.09-27.332 31.55-12.77 13.708 75.83-58.222-28.19 52.999-17.015 18.194 14.572-27.072-9.23-16.566l-15.5 6.842c7.052-19.697 3.82-14.421 7.052-19.697.786-1.285-26.885 11.776-6.087-7.616 17.554-16.368 9.782-24.816-7.347-9.228-27.777 18.927-9.145.037 4.387-9.902 29.205-22.69-28.16 10.508-6.012-5.48 20.887-14.143 7.306-13.98-11.578-1.403-11.955 5.36-12.055 3.163.002-7.155 27.539-21.398-35.764 10.464-7.935-12.699 20.519-12.45 13.941-17.422-3.188-1.834-27.777 18.927-9.145.038 4.387-9.902 29.205-22.69-28.16 10.508-6.012-5.48 20.887-14.143 16.318-17.908-2.566-5.33-49.71 27.09 62.814-47.86 24.217-10.846 24.31-6.871 44.366-30.46 69.385-37.204zm-55.074.633c5.789.258-25.834 11.613-14.564 12.14 31.509-4.77-18.64 8.903 3.847 7.189 45.802-11.74-16.329 12.993-34.465 11.052 4.605-2.208 33.503-17.512 4.374-8.138-39.22 10.169 7.055-4.285 16.066-11.467-39.795 6.89-5.844-4.822 13.77-8.91 6.307-1.393 9.636-1.925 10.972-1.866zm334.635 79.409c.753-.21 7.592 9.938 14.404 19.591 15.701 25.069 10.616 4.122-1.055-6.94-14.258-16.367 82.093 66.266 80.756 90.1-14.597-26.45-11.205-2.949-.873 11.16 20.585 36.532-21.656-22.327-4.232 8.962 16.433 33.075-15.245-19.13-9.87-2.477 12.585 24.51-5.014 10.055-8.945-5.504-22.425-39.713 20.112 57.239-2.89 16.028-12.443-32.268-6.73 4.662.844 16.34-.6 9.789-17.77-39.888-17.694-26.032 8.843 34.677-5.872 2.151-11.678-10.3-19.388-42.654-27.27-46.7-53.394-80.419-9.876-19.24-13.506-30.134 1.234-4.435 20.462 21.892 39.468 53.583 54.053 74.662-17.053-29.84-26.042-58.332-47.65-84.219-22.19-39.447 17.085 24.074 10.87 5.358-22.704-39.67 6.95 1.258 14.673 15.517 26.342 28.396-4.539-12.845-12.016-23.486-5.25-9.926-6.989-13.78-6.537-13.906zm-197.818.406c.863-.276-10.35 20.196-13.924 29.767-4.26 12.733-45.638 74.416-19.244 40.1-9.455 18.54 3.195 1.174 5.388 1.926-19.04 38.477 11.866-13.765 2.682 9.687-13.904 28.991 3.923 6.54 8.152-9.045 19.775-33.955-11.296 27.799.385 16.428-5.904 22.078 10.528-12.06 22.56-32.047 28.515-44.022-33.321 67.716-4.7 22.477-.414 17.107 22.301-32.978 31.642-50.793 19.107-31.94-.883 14.854-8.05 24.781-2.707 14.31 19.078-33.787 28.288-43.725-10.337 27.142-28.352 50.417-39.974 76.942-13.985 33.359 2.378 2.905 9.418-12.467 13.94-28.682 7.29-8.381-.27 9.53 15.594-8.982 16.188-44.983 29.93-63.42-2.475 14.594-17.937 50.922-24.73 73.658-12.626 27.461 1.002 6.124 5.978-8.994 3.987-16.156 28.721-77.583 14.232-31.67-12.811 31.052 9.525 3.749-3.605 58.894 8.648-3.258 14.615-53.815 23.506-73.367-4.355 23.135-7.957 55.916-12.323 82.691 2.992 6.09 11.312-47.306 12.979-65.845 7.136-3.366-6.4 45.209-3.172 60.449-1.097 39.53 5.767-13.288 8.791-26.992 9.123-36.871 5.095 10.473.506 22.377-4.898 48.657 5.035-12.356 6.787-28.889 4.57-38.935 1.4 37.53 13.1.57 7.078-7.793.118 21.901 5.115 31.168 3.44 45.456 5.788-13.917 6.785-26.687 3.864-49.52 5.787 7.747 6.264 27.963-.687 27.447 4.89 14.754 2.966-5.336-1.08-32.248 3.417-9.023 3.323 9.27 11.57 36.67 2.568-26.355 7.082-35.458-1.703-39.827 6.177 14.741 7.175 27.045 5.611 31.112 6.226 10.883.715-8.517 10.865-11.396 15.593 49.25 11.793 65.105-1.813 22.047-.724.564-4.261-.719-10.915 45.435-2.847-49.129-9.928-1.838-1.58 38.288-4.582 6.534-4.36-13.091-7.662 8.903-2.705 51.61-9.38 13.808-2.39 11.72-9.185 34.852-8.073 6.227 2.71-31.703-3.069-11.514-3.941 7.002-2.097 27.446.22-11.635-6.826 13.832.683-24.507-3.722-24.29-6.742.217-2.64-12.534-4.919-22.097-6.575-35.196-6.426 16.843-7.27 30.563-6.224 3.953 4.563-41.828-5.428 23.589-7.233 7.702 3.738-32.956-11.918 33.312-6.416.25 6.22-19.356 1.146-27.82-3.507-2.66-15.17 40.18 11.569-56.983-6.727-8.397-3.667 22.342-10.7 22.496-3.287-.59 9.42-26.643-2.35-15.004-6.108 4.473-19.395 42.01 19.558-60.798-2.566-14.47-6.11 24.502-12.204 19.022-4.104-3.165 7.488-28.332-2.877-9.11-5.222 3.855-18.887 42.366 11.744-43.833-7.117-4.857-7.824 25.278-10.817 18.127-3.022-2.994 13.746-36.92-12.56 20.776-7.281.21 12.302-31.948-5.662-1.371-12.547 9.48 1.421-11.794 14.177-38.617-2.41-10.966-24.668 41.892 13.35-35.379-6.227-5.937-9.194 20.046-3.126-4.055-15.185 5.63 11.327-22.976 1.02-15.807-6.79.757-20.98 36.016 12.31-30.08 2.239-22.196-12.701 22.623.699-6.96-8.781 4.452-11.611 22.472-13.02 15.043-3.297-4.174 19.979-37.108-26.089 37.811-6.25-1.381 24.683-42.358-33.106 40.515-8.7 1.312 24.78-47.905-25.098 35.766-5.058-3.703 14.208-23.185 5.088-14.644-3.93 1.248-22.63 33.16 17.897-31.618-2.52-8.513-20.862 31.348-10.642 4.978 2.155-12.237 17.012-22.065-2.254-5.877-8.14 6.705-13.213 21.051-13.472 7.897-1.543-6.824 28.853-43.537-31.503 37.657-12.545 5.873 15.723-15.861 11.76-25.647-4.254-5.215-16.655 23.502-14.162 9.293.933-5.886 26.25-32.106-11.344 2.829-18.3 14.068 13.375-24.977 35.34-45.36 52.251-68.2 3.878-1.552-32.39 45.708-3.017 13.116 6.446-7.466 35.79-56.139 26.1-33.76-4.845 11.899-41.096 52.087-26.13 45.483-22.503 24.82 5.285 6.14 11.47-9.016 16.872-29.513 2.677 8.318-3.401 19.01 3.65 7.869 30.07-42.031 39.482-58.504 5.219-8.359 7.407-11.642 7.745-11.75zm281.652 8.082c1.674-.595 23.76 14.632 29.576 15.812-12.197-17.65 23.766 3.705 44.86 25.637 34.387 33.269-42.714-26.272-11.41 1.592 18.956 18.172 2.4 8.058-9.44-.822 5.364 9.046 16.193 25.986-5.145 5.588-17.008-20.494-10.779.31 1.45 9.318 19.934 16.468 8.366 19.38-5.13.918 17.949 24.936 1.65 15.635-9.92.861-36.793-36.011 12.059 15.72 13.319 23.39-18.075-18.065-25.4-19.709-7.41 3.55 16.076 19.012 1.941 12.646-7.21-1.926-28.39-36.228 23.721 41.06-1.148 10.236-26.405-30.95-2.848 11.21 4.534 22.518-27.432-26.537-34.996-60.336-64.358-85.324-18.283-20.395 44.009 40.533 13.783 6.85-21.251-27.513 11.675 1.478 16.764 13.128 9.417 6.434-20.833-26.145-17.277-31.36-21.47-22.785-6.01-6.249 8.902 1.704-10.86-14.774-12.758-12.103.94-6.203-34.229-35.204 29.24 21.562 13.927-5.713-7.793-6.868-10.262-9.521-9.607-9.754zm-98 6.48c2.23-.015 19.75 21.897 21.965 34.66-5.56-5.012-8.744-11.909-12.655-18.13-8.179-11.986-10.324-16.523-9.31-16.53zm-238.545 6.196c2.208.499-42.612 42.38-17.54 23.584-17.442 28.26 10.416-4.521 16.663-13.819 5.55.77-32.707 48.37-50.314 62.926-19.959 20.018 8.883-14.914 13.07-19.734 26.53-31.494-24.87 22.602-9.377 2.416 28.044-33.988-7.862-.309-19.858 12.111 12.241-16.506 37.19-42.666 56.877-59.965 6.956-5.547 9.97-7.634 10.479-7.52zm230.508 16.472c22.961 30.67 36.188 73.603 45.453 113.014 6.166 28.035 2.96 16.688-6.822-2.066 6.598 29.688-6.576 8.364-7.815-8.75-12.546-38.727 5.252 32.908-2.324 24.677-2.497-25.063-9.87-10.262-4.195 6.602.157 1.624.308 3.256.463 4.883-13.52-28.475-7.495-59.5-21.348-89.201-15.14-48.999 12.535 28.861 11.85 16.55-11.86-31.243 4.525-5.63 9.605 8.139 3.55 2.215-24.133-71.423-24.867-73.848zm-23.393 14.686c.089-.09.315.111.701.652 22.09 28.357 37.701 67.653 35.403 99.46.17 29.211-3.023 9.255-4.864-6.68-6.39-32.733-2.911 27.127-9.841-.42-4.015-36.446-2.242 28.52-5.393 11.732-3.686-53.427-2.085 54.063-8.64 6.066.328-27.836-7.504-5.847-5.106 9.39l-.39 5.99-.06 3.091c-3.256-16.912-4.211-59.095-12.269-84.777-9.792-37.118 19.287 45.476 7.399 2.87-6.46-41.6 9.312 34.679 11.214 23.731 7.068-16.36-35.68-120.918 1.16-41.105 18.87 38.094-10.645-28.643-9.314-30zm44.904 4.295c.457-.073 1.706 1.122 4.028 4.045 10.578 7.016 30.508 67.81 19.9 30.078 6.18-1.558 27.8 52.541 31.272 75.476-8.144-8.452-9.187-23.652-14.492-34.51-15.07-39.777 3.722 26.384-2.608 21.786-7.37-25.98-8.503-15.786-4.785 5.375-4.514-6.224-13.356-51.092-24.59-70.426-13.786-21.264-4.065-21.64 3.11-.846 20.66 32.198-15.03-30.47-11.835-30.978zm-5.232 12.629c-1.392 5.74 13.717 44.283 22.027 61.767-4.425-21.526-14.302-41.335-22.027-61.767z" transform="translate(-3.29 -25.094) scale(.14256)"/></svg>