<svg width="400" height="400" viewBox="0 0 105.833 105.833" xmlns="http://www.w3.org/2000/svg"><path style="fill:#000;stroke-width:.649232" d="M394.904 275.7c-38.864-.21-77.75 3.379-115.822 10.609-58.505 13.497-120.51 31.09-164.14 74.738-34.484 29.18-45.2 77.106-38.52 120.324C90.284 542.85 72.93 607.14 90.459 668.033c17.725 43.405 51.773 78.835 91.178 103.58 52.75 37.7 118.48 50.658 182.293 50.043 75.795 4.263 152.808-8.284 220.87-42.818 56.757-31.072 107.782-80.848 124.702-144.774 12.218-39.723.422-80.622-2.258-120.64 3.654-34.761 1.325-69.89-8.601-103.461-21.52-58.26-80.951-88.943-136.069-108.537-54.111-17.007-110.868-25.422-167.67-25.727zm-17.588 7.986c71.285.323 143.117 8.585 209.088 37.017 63.858 25.55 120.507 83.835 111.856 161.363-7.51 67.308 29.022 147.409-30.184 214.043-47.86 58.86-107.06 90.54-186.978 110.012-34.345 9.723-76.87 9.803-115.08 10.967-65.247-4.958-145.132-22.182-208.942-72.238-31.967-30.284-54.605-60.148-63.242-104.522-1.715-57.774 5.509-109.717-6-169.166-12.396-45.906 20.656-91.407 55.922-120.107 68.282-47.234 144.495-61.934 233.56-67.37zm4.659 37.855c-20.055.137-40.079 1.436-59.977 4.252-57.618 11.081-119.962 23.031-163.441 65.725-35.187 27.915-41.383 82.869-16.825 119.587 31.45 23.267 11.983-26.83 9.762-41.925-4.434-30.13 16.872-58.738 46.602-58.473 31.681.93 44.539 36.185 43.506 62.871 32.614-.29 63.236 35.08 53.877 63.246-9.74 29.308 13.411 23.114 25.154 43.64 15.732 27.502.972 60.218-32.352 65.438-21.396 3.352-46.669-30.446-50.51-2.273-4.914 36.049-54.05 35.604-70.58 1.902-12.179-24.831 15.642-81.152-19.287-68.076-30.693 11.49-15.998 61.235-2.797 87.352 18.346 39.182 55.711 63.31 91.68 84.537 41.934 19.78 89.345 25.69 135.27 27.177 38.279-.839 77.444-1.64 114.601-11.832 37.609-7.947 72.7-23.753 106.076-42.337 24.073-15.85 45.362-37.346 60.77-61.77 21.442-29.748 22.505-69.76 8.465-103.764-12.128-29.37-15.123 4.625-31.342 7.325-38.553 6.416-2.063 25.813 5.469 44.25 12.04 29.473-3.727 71.423-38.905 50.568-35.1-18.613-43.754-68.77-22.562-104.486 15.56-26.225-20.715-4.55-28.348 8.941-20.058 24.885-59.356 45.48-88.351 22.863-21.286-15.464-33.256-50.75-10.284-70.297 8.416-10.484 38.185 52.325 105.512 13.676 21.637-15.904-.635-1.96-11.908.428-28.522 7.778-64.17 1.474-77.88-27.352-15.533-22.224-10.315-61.316 17.392-71.627 35.837 4.102 9.48-43.016 40.93-53.84 33.236-14.856 68.74 12.282 82.59 43.692 10.905 24.734-30.136 49.976-15.63 60.525 24.302-26.193 57.503 31.906 70.414-.83 14.84-35.349-10.224-70.533-33.742-95.006-30.786-28.197-71.918-41.504-111.615-51.921-43.355-7.167-87.615-12.488-131.734-12.186zm196.024 43.393c37.68 14.306 60.23 41.417 67.735 79.326 10.822 54.655-23.439 16.997-31.886-21.742-19.646-90.092-126.634-65.15-135.306-17.62-9.665 52.976-7.324-21.273-53.792 97.04-22.427 85.14 73.504 140.711 124.596 77.123.334 42.726 16.234 107.057 64.067 95.1 51.748-12.184 30.517-72.205 25.463-91.038-7.344-27.37 27.291-13.72 23.528 35.072-19.76 81.954-104.59 121.632-181.908 134.076-44.12 7.102-144.22 7.97-180.457-.726-36.236-8.697-133.352-56.528-144.223-85.518-9.216-28.909 30.32 21.982 56.682 18.108 17.08-4.311 26.425-30.467 43.895-33.546 56.504 14.776 96.746-14.844 89.686-68.688-3.132-23.887-25.748-25.308-29.372-34.73-3.624-9.42 2.9-43.484-15.943-65.226-18.843-21.742-33.338-9.42-44.934-21.015-11.596-11.596-13.096-50.999-36.288-56.072-41.968-3.645-55.266 14.284-67.678 13.897-14.337-.447 22.147-35.31 57.426-48.249 51.46-18.871 86.075-35.408 142.204-36.404 87.462-1.552 148.808 1.332 226.505 30.832zm-68.235 51.785c14.227 4.502 40.48 23.174 39.861 42.697-.891 28.082 15.518 10.55 16.08 60.729 6.732.836 5.555-26.303 2.943-30.823-17.732-30.689-.054-57.45-58.884-72.603zm-270.948 60.824c-53.66 52.44-66.733-4.81-62.511 27.68 30.54-5.246 45.423 30.172 37.89 58.777-5.512 20.934-49.177 15.176-31.92 26.021 39.367-14.533 59.057 52.633 48.596 21.461-4.733-14.104-27.467-37.16-9.23-35.996 16.768 1.07 14.632 10.048 49.955-6.322 30.49-22.401-21.233 5.726-39.116 1.59-21.082-4.876 9.062-33.75-14.134-53.545-21.536-18.378 20.03-21.732 20.47-39.666z" transform="translate(-9.024 -34.013) scale(.15851)"/></svg>