<svg width="400" height="400" viewBox="0 0 105.833 105.833" xmlns="http://www.w3.org/2000/svg"><path style="fill:#000;stroke-width:.681883" d="M418.04 149.174c-3.68 0-7.21.32-10.177.98-5.936 1.321-13.859 5.748-16.91 9.45-2.46 2.985-4.558 3.666-13.02 4.224-11.531.761-20.614 3.64-25.695 8.145-.881.781-2.542 3.263-3.691 5.513-1.95 3.818-2.123 4.775-2.611 14.319-.895 16.778-8.39 38.687 2.144 50.402 11.832 11.716 23.255 5.958 29.545 19.703 2.53 5.403 4.06 11.696 5.252 21.608 2.476 20.585 1.35 114.837-1.434 120.039-1.058 1.977-6.94 4.574-13.047 5.76-12.688 2.463-26.723 8.353-37.988 15.94a6467.92 6467.92 0 0 1-8.246 5.548c-10.53 7.062-19.072 14.473-34.924 30.293-5.232 5.222-9.988 10.41-10.566 11.529-.579 1.119-2.359 3.442-3.957 5.164-1.598 1.723-3.445 4.19-4.104 5.48-.658 1.291-2.688 3.92-4.507 5.844-1.82 1.924-3.768 4.6-4.33 5.947-.563 1.347-2.296 3.917-3.85 5.713-1.555 1.797-3.407 4.619-4.115 6.272-.709 1.653-2.467 4.347-3.909 5.984-1.441 1.638-3.164 4.442-3.828 6.233-.663 1.79-2.532 4.97-4.152 7.068s-3.726 5.583-4.682 7.744c-.955 2.161-2.78 5.66-4.054 7.778-1.274 2.117-3.124 6.523-4.112 9.79-.987 3.268-2.838 7.717-4.113 9.887-1.275 2.17-2.97 6.173-3.766 8.893-.796 2.72-2.325 6.902-3.398 9.295-2.344 5.225-3.845 11.912-4.84 21.556-.406 3.938-1.787 12.71-3.066 19.493-3.201 16.964-3.868 23.683-3.924 39.49-.053 14.722.552 20.358 3.633 33.754 1.078 4.688 2.747 13.28 3.709 19.093 1.398 8.456 2.238 11.591 4.197 15.682 1.347 2.813 3.148 7.137 4.002 9.608.854 2.47 2.62 6 3.924 7.841 1.304 1.843 3.024 5.323 3.824 7.735.846 2.55 2.56 5.693 4.096 7.515 1.452 1.723 3.428 4.683 4.388 6.578.96 1.896 2.845 4.285 4.188 5.31 1.342 1.023 3.048 3.052 3.79 4.509.744 1.457 2.459 3.493 3.81 4.523 1.35 1.03 3.135 2.873 3.966 4.096 1.6 2.355 9.718 9.905 16.76 15.588 9.925 8.01 12.757 10.486 17.154 15.002 4.775 4.903 6.315 8.227 4.87 10.51-.738 1.164-.588 1.16-23.034.65-13.156-.3-14.423.1-18.308 5.766-2.274 3.316-2.804 4.856-3.963 11.521-.736 4.231-1.394 10.621-1.465 14.2-.147 7.434.754 9.641 4.598 11.247 2.258.944 18.02 3.955 24.935 4.764 5.398.632 15.934 3.54 21.479 5.928 9.985 4.3 15.403 8.242 25.449 18.521 3.254 3.33 7.681 7.817 9.838 9.97 2.156 2.154 3.922 4.26 3.922 4.679 0 .419 1.569 2.496 3.488 4.615s4.19 5.42 5.045 7.336c.855 1.916 2.672 5.326 4.037 7.576 1.364 2.25 3.093 6.08 3.844 8.508.75 2.428 2.702 7.338 4.338 10.91 1.758 3.842 3.563 9.278 4.42 13.312.796 3.75 2.5 10.35 3.787 14.663 2.578 8.64 3.896 15.665 5.41 28.855 1.205 10.503 2.326 13.12 6.582 15.348l3.029 1.586 31.025-.43c31.34-.433 41.143-.064 53.188 2.002 8.6 1.475 17.534.63 21.62-2.047 2.982-1.955 3.562-4.6 3.134-14.332-.418-9.498.35-17.39 2.494-25.635.716-2.754 2.118-10.07 3.117-16.258 1.544-9.562 2.256-12.225 4.74-17.73 1.608-3.563 3.486-8.273 4.172-10.469.739-2.362 2.284-5.17 3.787-6.877 1.397-1.586 3.33-4.674 4.297-6.861.967-2.187 3.102-5.41 4.742-7.164 1.641-1.754 3.474-4.082 4.075-5.172.6-1.09 3.6-4.285 6.668-7.098 3.067-2.812 6.848-6.364 8.402-7.892 1.554-1.528 4.263-3.768 6.02-4.977 1.756-1.209 3.195-2.483 3.195-2.832 0-.593 6.72-5.4 11.92-8.527 1.268-.763 2.865-1.89 3.547-2.502 3.935-3.537 14.267-8.278 23.4-10.738 7.442-2.005 14.815-5.413 16.79-7.758 1.774-2.11 1.799-2.286 1.403-9.317-.571-10.159-2.287-15.74-6.006-19.529-4.11-4.188-6.127-4.6-20.029-4.101-13.673.49-14.664.22-15.539-4.202-.96-4.851.813-8.863 5.86-13.256 2.322-2.021 5.605-4.662 7.292-5.867 9.794-6.992 15.893-12.084 22.995-19.195 10.855-10.87 12.967-13.2 14.207-15.682.655-1.312 2.368-3.782 3.804-5.486 1.437-1.704 3.222-4.87 3.967-7.037.745-2.166 2.141-4.874 3.104-6.018 2.52-2.995 3.535-5.21 4.82-10.515.626-2.584 2.157-6.595 3.402-8.912 2.885-5.368 3.404-7.371 5.02-19.36.73-5.41 2.288-14.115 3.463-19.342 4.464-19.856 4.22-44.782-.68-69.253-1.089-5.439-2.47-14.49-3.07-20.116-1.242-11.646-1.745-13.922-4.465-20.156-1.115-2.554-2.562-7.966-3.373-12.615-1.178-6.75-1.812-8.724-3.705-11.551-3.111-4.644-3.439-5.402-4.819-11.133-.764-3.177-2.141-6.401-3.785-8.863-1.596-2.391-3.232-6.176-4.281-9.904-1.154-4.099-2.378-6.833-3.82-8.524-2.015-2.363-2.688-3.584-5.496-9.99-.658-1.5-2.268-4.01-3.579-5.578-1.31-1.567-2.909-4.481-3.552-6.477-.75-2.324-2.229-4.731-4.116-6.697-1.62-1.688-3.58-4.343-4.359-5.9-.778-1.558-2.443-3.706-3.7-4.774-1.256-1.067-2.997-3.168-3.868-4.668-.872-1.5-2.998-4.166-4.725-5.924-1.727-1.757-5.086-5.334-7.467-7.947-7.941-8.717-19.14-19.284-29.216-27.572a770.244 770.244 0 0 1-6.957-5.795c-3.05-2.583-7.72-5.98-11.21-8.154a627.868 627.868 0 0 1-6.427-4.116c-5.758-3.727-19.192-10.293-23.653-11.558-1.894-.538-6.153-1.676-9.462-2.53-3.31-.853-6.592-2.134-7.293-2.845-1.812-1.837-4.551-11.916-5.385-19.809-3.015-28.539-2.683-85.507.564-97.064 1.506-5.36 2.851-13.11 4.108-23.678 1.144-17.119 17.79-12.365 28.133-22.225 12.966-18.083-1.872-35.924-3.258-48.97-1.032-9.865-1.771-12.045-5.88-17.367-4.61-5.974-13.935-9.779-28.294-11.545-3.65-.45-8.992-3.208-14.094-7.276-1.49-1.187-5.352-2.996-8.863-4.152-5.038-1.659-11.585-2.542-17.717-2.541zm2.177 6.635c12.49.12 18.527 6.56 33.88 16.01 15.354 9.448 19.807 1.415 26.528 7.71 6.543 6.13 9.425 16.47 9.18 25.282-.332 11.902 11.087 29.694-6.979 34.203-33.811 8.438-23.79 59.161-29.195 50.343-8.513-13.887-46.659-20.154-55.176-3.955-10.116 19.24-10.329-27.925-16.234-36.783-5.906-8.858-25.829-7.488-30.82-18.353-3.977-8.655 3.248-16.924 4.9-28.15 1.824-12.404-3.55-21.59 3.183-28.266 6.37-6.317 18.105-.452 26.768-2.784 11.985-3.225 21.554-15.377 33.965-15.257zm2.494 134.92c8.672-.011 10.003.156 14.521 1.814 21.795 12.98 19.142 18.835 18.668 35.639-.477 16.667-.275 23.842 1.31 46.709.43 6.188.76 11.71.73 12.273-.15 2.951 1.633 12.226 2.724 14.17.69 1.23 1.256 2.803 1.256 3.496 0 2.164 1.792 2.922 10.746 4.535 4.778.861 10.055 2.057 11.729 2.658 6.179 2.221 19.757 9.518 25.656 13.788 3.343 2.42 7.19 5.127 8.55 6.015 1.36.889 3.059 2.362 3.776 3.274.717.911 1.915 1.85 2.66 2.087.745.237 3.072 2.044 5.172 4.014a303.23 303.23 0 0 0 7.77 6.992c7.729 6.669 9.858 8.708 9.884 9.463.014.421 1.232 1.599 2.705 2.617 1.474 1.02 3.458 3.087 4.41 4.596.953 1.509 2.948 3.548 4.434 4.531 1.486.984 2.864 2.292 3.063 2.907.198.614 1.911 2.804 3.808 4.867 1.897 2.063 4.234 5.061 5.192 6.664.957 1.602 2.334 3.231 3.062 3.621 1.33.712 11.846 16.36 13.387 19.92.454 1.049.826 2.452.826 3.119 0 .667.805 1.958 1.787 2.867 2.1 1.944 4.392 5.47 5.729 8.813.524 1.312 2.095 4.38 3.49 6.818 1.394 2.438 2.757 5.332 3.03 6.432.271 1.1.905 2.79 1.407 3.752.503.962.913 2.209.92 2.771.004.563.642 2.064 1.416 3.334 1.797 2.948 4.035 8.505 4.836 12.01.343 1.5 1.722 5.029 3.065 7.842 3.555 7.449 3.493 7.272 5.064 14.318 1.808 8.109 2.699 11.884 5.235 22.162 3.026 12.268 4.098 19.505 5.656 38.186.375 4.5.852 8.735 1.06 9.412.65 2.115.405 21.527-.394 31.16-.918 11.064-3.118 28.335-4.059 31.877-.373 1.406-1.33 5.32-2.125 8.695-.795 3.376-1.691 6.75-1.994 7.5-.303.75-1.527 4.74-2.719 8.866-2.518 8.622-8.085 17.49-12.088 26.033-1.623 2.317-2.95 4.388-2.95 4.603 0 1.896-13.39 17.648-19.776 23.266-5.74 5.048-8.976 7.714-11.64 9.584-20.492 14.374-21.978 15.769-22.788 21.406-1.334 9.286 4.47 15.707 12.475 13.795 2.852-.681 6.976-1.344 15.398-2.473 4.045-.542 8.413.865 9.201 2.963.791 2.291 1.511 10.768 2.893 15.719.408 2.438.99 5.084 1.297 5.88.646 1.68-.675 4.744-2.828 6.556-.774.65-4.523 2.14-8.332 3.31-10.714 3.292-19.45 7.17-26.881 11.93-7.916 5.07-13.463 8.831-14.494 9.828-.582.562-3.656 3.21-6.83 5.885-3.174 2.674-7.153 6.183-8.84 7.8a183.584 183.584 0 0 1-5.883 5.368c-3.362 2.898-11.146 12.63-14.832 18.543-9.12 14.628-12.917 23.515-17.727 41.502-3.324 12.429-3.786 15.793-5.133 37.332-1.052 16.835-1.285 18.672-2.488 19.582-1.444 1.092-6.06 1.205-12.92.316-17.917-2.32-44.829-3.34-54.37-2.059-.824.087-14.878-1.207-32.206.403l-.875-1.824c-.482-1.003-1.177-5.145-1.543-9.205-.366-4.06-.96-8.61-1.322-10.11-2.005-8.319-3.503-15.682-4.168-20.488-1.042-7.538-8.062-27.697-14.234-40.881-6.911-14.762-8.806-17.952-16.409-27.617-4.516-5.742-21.991-23.52-24.345-24.768-.673-.356-1.838-1.188-2.588-1.847-3.129-2.751-13.691-8.107-20.574-10.434-8.574-2.898-18.75-4.938-31.249-6.266-11.775-1.25-11.534-.97-11.068-12.941.19-4.876.658-9.783 1.04-10.908.38-1.125 1.531-4.723 2.556-7.992 1.024-3.27 2.468-6.493 3.209-7.16 1.967-1.776 12.576-1.46 25.566.76 6.377 1.086 14.044 5.071 15.86-5.145 0-3.178-2.467-7.753-6.24-11.577-3.65-3.698-11.777-10.452-16.262-13.515-5.9-4.03-23.241-20.54-27.412-26.1-.863-1.15-2.685-3.349-4.05-4.888-1.364-1.54-4.088-5.563-6.052-8.938-5.023-8.633-5.252-9.068-7.18-13.637-.949-2.25-2.074-4.705-2.5-5.455-3.962-6.986-6.37-12.455-8.258-18.752a739.453 739.453 0 0 0-2.523-8.183c-1.728-5.48-3.165-12.574-3.727-18.41-.234-2.438-1.002-7.502-1.707-11.252-.704-3.75-1.663-10.861-2.132-15.803-.748-7.865-.702-10.46.36-20.799.67-6.497 1.465-14.266 1.772-17.266.307-3 .886-6.837 1.284-8.525.397-1.688.728-4.58.738-6.428.009-1.848.303-4.303.652-5.455.35-1.152.975-5.164 1.389-8.914 1.066-9.666 6.226-28.247 10.226-36.822 1.225-2.625 3.247-7.38 4.49-10.569 3.917-10.036 9.838-22.627 11.839-25.17 1.058-1.345 2.621-3.827 3.474-5.515.853-1.688 2.736-4.815 4.184-6.951 1.447-2.136 2.63-4.05 2.63-4.252 0-.694 4.356-7.547 6.53-10.276 1.196-1.5 2.952-4.261 3.902-6.136.95-1.875 3.135-4.778 4.854-6.45 1.72-1.671 3.125-3.368 3.125-3.769 0-.401 1.87-3.022 4.156-5.824 2.286-2.803 4.473-5.71 4.86-6.46.874-1.695 7.132-8.27 15.19-15.962 3.376-3.222 7.673-7.417 9.548-9.322 1.875-1.906 6.017-5.576 9.205-8.157 3.188-2.58 6.17-5.01 6.629-5.4.773-.658 4.503-3.203 16.013-10.934 2.515-1.689 4.79-3.07 5.055-3.07.265 0 1.902-.913 3.639-2.027 3.784-2.428 6.2-3.331 19.187-7.17 5.473-1.618 12.318-3.163 15.211-3.434 4.32-.405 5.42-.752 6.156-1.943 1.59-2.57 2.852-13.952 4.17-37.59.23-4.125.711-9.435 1.067-11.799.85-5.655.814-27.787-.051-30.77-.373-1.284-.728-5.288-.79-8.898.108-12.058 9.39-21.242 18.493-26.236 3.641-1.954 4.037-2.016 13.299-2.027zm.986 50.933c-.85.054-1.768 1.344-2.636 3.908-.445 1.313-1.414 12.82-2.155 25.57-2.587 44.565-4.57 54.88-12.906 67.167-1.4 2.062-3.813 5.054-5.361 6.648-4.862 6.856-11.656 11.934-14.805 18.28-4.206 10.197-3.877 19.066 1.045 28.872.714 1.4 3.313 4.43 5.775 6.733 7.19 6.725 16.124 10.331 28.985 11.697v.002c10.442 1.11 19.276-.653 27.857-5.558 9.525-4.913 15.179-21.542 14.815-29.063-.28-2.123-.618-4.78-.75-5.904-4.767-17.289-7.938-19.63-13.311-24.719-7.66-8.359-15.41-21.993-17.342-30.514a617.385 617.385 0 0 0-1.664-7.16c-.95-3.906-2.643-23.813-3.42-40.23-.4-8.438-1.048-17.398-1.441-19.909-.613-3.918-1.592-5.89-2.686-5.82zm10.916 103.606c7.606-.153 17.105 8.791 18.116 14.373.663 4.424-.98 6.09-6.387 6.482-3.52.255-4.775.017-7.848-1.486-6.622-3.24-9.305-6.726-9.305-12.09.44-3.694 2.257-6.168 4.694-7.236.24-.025.485-.038.73-.043zm-22.283 1.062c5.599-.076 9.783 1.843 10.428 5.277.715 3.814-.426 5.879-4.932 8.926-4.279 2.894-6.984 3.665-12.914 3.676-13.506-2.108-8.258-14.049-.27-16.68 2.28-.656 4.495-1.036 6.55-1.158a24.93 24.93 0 0 1 1.138-.04zm92.992 28.81a26.9 26.9 0 0 0-1.422.01c-2.248.079-4.344.458-5.927 1.159-4.598 2.034-12.597 9.293-14.348 13.021-2.328 4.956-2.177 12.216.361 17.385 5.042 5.55 7.569 11.357 11.817 16.957 13.867 18.271 22.803 35.2 30.092 54.42 8.745 30.381 17.134 55.715 16.47 83.129-.431 20.752-4.1 40.942-12.68 57.5-.995 1.964-2.533 4.719-3.42 6.123-5.566 8.334-15.98 21.383-12.333 31.3 2.017 4.828 7.074 9.136 12.765 10.874h.002c5.226 1.594 14.668-.165 22.723-4.235 13.285-6.993 19.85-14.529 27.564-24.673 2.742-3.037 4.17-7.162 5.578-10.159 5.5-11.747 9.14-24.55 10.958-37.347 3.341-21.799 2.285-45.85-.043-64.948-.71-5.701-1.59-9.692-2.82-12.789-.373-.937-1.235-4.773-1.917-8.523-1.165-6.414-5.356-22.226-6.685-25.229-6.14-17.72-14.259-35.408-23.309-51.142-6.94-12.057-9.778-16.251-15.002-22.178-13.906-15.778-24.77-26.493-29.006-28.607-2.557-1.277-6.069-1.979-9.418-2.047zm-100.379.26c.458-.004.893.007 1.297.034 3.263.219 6.302 1.281 8.182 2.95 1.811 1.61 3.83 6.196 3.818 8.677-.02 4.236-5.506 8.08-12.695 8.894-6.498.735-10.895-1.798-14.238-8.2-5.31-8.87 6.775-12.301 13.636-12.355zm35.141 2.702c3.118-.014 6.977 1.424 14.209 4.927 4.2 3.186.995 9.065-1.748 11.543-2.686 2.364-8.799 2.359-13.559-.013-4.258-2.123-6.01-3.962-7.27-7.637-.891-2.603-.87-3.05.233-4.865.758-1.246 2.41-2.456 4.383-3.21 1.053-.401 2.06-.651 3.137-.724.202-.014.407-.02.615-.021zm69.7 3.953c1.8-.124 3.443.296 5.286 1.236 5.177 2.641 6.7 6.718 4.487 12.014-1.542 3.69-8.942 10.93-14.657 14.336-10.015 11.108-17.6 2.036-15.984-8.432 1.132-6.24 7.304-13.464 14.63-17.125 2.477-1.237 4.436-1.905 6.237-2.03zm-165.589 1.53c-1.259-.003-2.421.253-4.404.767-8.092 2.096-11.61 4.458-21.307 14.3-15.259 15.49-34.987 42.465-43.047 58.856-2.444 4.971-4.445 9.219-4.445 9.441 0 .222-.952 2.278-2.115 4.567-4.188 8.241-10.208 25.094-11.162 31.248-.251 1.619-.737 3.865-1.082 4.99-3.64 11.867-5.449 36.178-4.172 56.06 1.27 19.789 1.911 24.582 4.834 36.155 4.168 16.504 6.155 21.556 13.478 34.275.756 1.313 2.364 4.136 3.573 6.276 1.208 2.139 4.86 6.607 8.115 9.927 7.196 7.34 14.44 12.037 20.63 13.375h.003c2.41.521 5.455.84 6.767.707 6.735-.678 8.826-1.119 9.575-2.021.451-.544 1.326-.99 1.943-.99 19.029-6.305-1.976-36.635-8.088-48.036-7.764-18.369-14.377-45.41-13.855-60.289-.214-2.865-.126-7.511.197-10.324.295-10.674 2.143-23.012 5.156-33.412 5.99-15.358 11.347-32.311 19.625-45.205 7.786-20.353 32.995-34.95 39.674-50.762 1.82-6.26.533-16.734-2.633-21.431-2.614-3.88-6.71-6.442-12.277-7.68-2.367-.526-3.723-.79-4.983-.793zm-8.552 6.571c5.397-.339 11.723 2.679 17.722 8.836 4.324 4.438 6.547 6.43 6.03 10.51-1.412 11.14-8.794 18.588-16.983 14.377-2.203-1.127-5.833-3.582-8.066-5.455-5.107-4.284-8.922-11.342-9.334-17.272-.253-3.63-.12-4.038 2.187-6.713 2.3-2.667 5.205-4.08 8.444-4.283zm194.884 15.565c8.473.45 14.16 9.006 10.082 15.51-4.205 6.292-9.19 9.731-18.236 12.581-12.14 5.137-21.472-4.783-16.322-14.1 3.284-5.875 12.82-12.168 20.695-13.657a13.747 13.747 0 0 1 3.781-.334zM316.68 515.879c1.958.209 4.028.734 6.181 1.58 6.876 2.702 15.11 11.109 15.645 15.973-3.419 12.796-7.098 16.54-17.063 13.025-9.964-3.297-15.815-7.993-18.353-14.734-1.72-4.57-1.78-6.97-.236-9.4 3.086-4.86 7.952-7.071 13.826-6.444zm228.324 16.162c3.753-.23 7.008.588 9.934 2.443 5.737 3.638 7.149 8.088 4.173 13.164-3.447 5.883-11.39 10.472-22.64 13.08-10.77 3.887-19.03-7.458-16.924-13.587 1.426-4.113 5.834-8.069 12.537-11.254 4.916-2.337 9.167-3.616 12.92-3.846zm-249.156 12.002c4.468-.27 9.56.656 13.748 2.615 5.425 2.538 7.386 4.182 9.195 7.71 1.48 12.036-3.608 21.927-12.76 20.304-4.458-.783-9.715-2.158-11.685-3.057-4.343-1.98-10.816-7.94-12.186-11.219-2.348-5.619 2.565-13.74 9.485-15.677 1.294-.363 2.713-.586 4.203-.676zm264.398 17.002c6.607-.587 11.121 3.819 11.834 9.252.652 5.215-1.17 8.087-7.848 12.383-10.878 5.596-18.887 12.583-27.277 8.24-7.22-3.738-7.548-12.765-3.754-18.965 2.041-3.241 3.376-4.335 8.158-6.685 5.714-2.809 12.045-4.225 18.887-4.225zm-275.39 16.754c4.952-.044 6.111.205 10.449 2.238 13.832 10.661 11.627 26.625-6.86 26.686-10.218-.016-18.886-4.691-21.785-11.752-.946-2.3-.946-2.912 0-6.137 1.33-4.534 2.875-6.184 8.285-8.848 3.746-1.844 5.104-2.144 9.91-2.187zm280.802 13.129c8.139 0 12.936 2.589 15.95 8.607 2.101 4.199 2.15 7.457.158 10.365-1.66 2.424-2.522 2.947-7.676 4.655-9.2 3.048-13.387 3.854-22.715 4.377-12.583 1.524-11.035-15.621-4.275-21.373 5.53-4.594 11.232-6.631 18.558-6.631zM277.664 612.37c1.628-.083 3.046-.078 4.02.045 7.594.957 10.536 1.105 11.837 3.543 9.29 17.405-8.395 24.534-19.76 22.63-8.666-1.46-12.427-3.958-14.294-9.486-2.216-6.56-.527-12.215 4.306-14.416 2.248-1.023 9.009-2.066 13.891-2.316zm289.832 16.395c2.57.095 5.245.453 7.916 1.091 7.921 1.895 11.334 4.311 14.043 9.946 3.125 6.5.972 12.269-5.822 15.595-5.195 2.544-15.908 3.19-25.397 1.532-8.296.837-12.297-17.132-8.338-22.448 3.092-3.93 9.886-6.003 17.598-5.716zM283.53 648.453c5.71.495 8.105 2.76 8.576 7.461.518 8.804 5.928 11.928-1.474 15.63-8.833 4.44-13.688 5.692-20.32 5.24-8.22-.562-11.736-3.436-13.663-11.165-1.602-7.245 4.775-11.598 9.077-13.764 4.827-2.42 6.787-3.018 10.937-3.332 2.692-.203 4.964-.235 6.867-.07zm279.002 17.342c1.619-.106 3.475-.063 5.787.039 9.556.436 16.207 3.893 19.381 10.072 2.803 7.567-2.767 15.265-8.045 17.643-14.946 12.14-43.597-9.861-31.156-20.334 6.462-5.44 9.178-7.102 14.033-7.42zm-274.998 16.623c4.301 0 4.877.174 6.719 2.016 5.39 10.634 7.875 17.15 4.686 20.105-9.37 8.36-16.635 11.27-24.823 9.938-7.203-1.173-9.94-4.277-9.94-11.278 0-7.168 2.796-12.322 8.913-16.43 4.42-2.967 9.01-4.351 14.445-4.351zm267.434 16.393c7.464.177 16.127 3.394 21.623 8.888 3.596 3.595 4.743 6.68 3.998 10.754-1.165 6.368-5.297 8.966-14.498 9.117-4.979.082-6.582-.236-13.715-2.718-12.284-3.323-19.73-11.723-8.607-22.91 2.672-2.25 6.72-3.238 11.199-3.131zM294.1 718.969c12.642 6.714 38.595 29.718 23.449 39.177-5.306 2.507-10.395 2.707-14.5.567-3.657-1.906-4.78-3.664-4.78-7.484v-3.167l-4.601.317c-4.305.297-4.789.183-7.477-1.781-4.082-2.983-5.284-5.572-5.27-11.36.01-3.763.343-5.334 1.536-7.265 2.058-3.33 6.514-7.255 9.934-8.752.496-.217 1.07-.296 1.709-.252zm244.32 7.375c1.368.19 2.932.572 4.687 1.148 12.673 4.16 19.05 9.772 19.05 16.766 0 2.876-.355 3.792-2.397 6.178-3.127 3.652-5.978 4.563-12.55 4.007-7.942-.67-11.68 4.97-18.815-2.263-4.725-6.04 3.471-26.655 10.025-25.836z" transform="translate(4.478 -15.662) scale(.11508)"/></svg>