<svg width="400" height="400" viewBox="0 0 105.833 105.833" xmlns="http://www.w3.org/2000/svg"><path style="fill:#000;stroke-width:.149154" d="M148.37 20.645c-6.77.198-13.037 3.062-19.225 5.52-2.836 1.094-5.666 2.293-8.65 2.917-17.563 2.746-32.559 1.992-47.583 6.884-8.699 2.013-16.37 6.92-23.334 12.362-12.85 10.041-21.904 27.204-25.205 41.168-2.245 10-2.913 20.502-1.619 30.782.29 2.598 1.024 5.115 1.423 7.694 1.974 9.88 6.957 18.86 12.733 27.005 1.72 2.359 3.386 4.771 5.309 6.97 8.904 9.83 20.769 16.627 33.317 20.668 23.776 8.582 51.61 9.071 73.012 12.356 4.155.532 8.098-1.265 11.86-2.764 2.58-.965 5.083-2.154 7.77-2.813 11.43-3.045 23.33-1.367 34.99-2.281 2.316-.133 4.645-.067 6.957-.31 12.858-1.135 25.064-6.03 36.292-12.191 3.62-1.96 7.196-4.069 10.262-6.841 7.313-6.435 12.35-14.97 16.56-23.645 4.752-9.448 6.859-20.04 7.257-30.553.298-8.305-.404-16.632-1.82-24.814-2.7-13.143-9.57-25.2-18.666-34.973-5.02-5.381-10.687-10.178-16.873-14.163-10.518-5.858-22.444-8.674-34.342-9.895-8.565-.899-17.188-1.034-25.793-1.007-8.483-.253-16.706-3.072-24.6-6.062-3.041-1.271-6.3-2.098-9.614-2.016l-.419.002zm.194 2.623c7.185-.379 11.652 3.15 17.315 5.114 9.723 2.817 18.734 2.667 27.825 3.063 18.594-.331 39.44 4.343 53.496 14.545 5.333 4.497 10.203 9.582 14.88 14.775 8.391 10.893 13.635 24.204 14.643 37.872 1.618 20.784-3.352 36.689-10.934 52.915-4.342 8.57-11.636 15.325-19.807 20.21-5.235 3.16-10.874 5.6-16.636 7.616-7.023 3.567-14.907 4.776-22.718 5.18-6.778.346-13.575.22-20.352.532-12.9-1.437-22.893 2.924-33.758 6.864-24.443-6.862-55.774-2.23-77.856-12.628-12.648-6.151-25.713-14.383-33.351-24.995-6.032-11.36-16.618-28.125-15.217-40.277 1.346-11.68 2.517-24.32 6.436-34.277.873-2.232 2.224-4.239 3.092-6.477 1.653-3.786 2.962-7.811 5.505-11.124 3.404-6.677 10.083-9.641 14.65-14.537 20.4-13.418 41.793-12.024 61.696-15.235 6.404-.933 12.418-3.469 18.4-5.815 3.85-2.19 8.269-3.308 12.691-3.321zm1.457 10.24c-1.604.075-3.584.702-4.088 2.41-.393 1.69.91 3.167 2.083 4.203 1.273.98 2.89.112 4.312.303 1.11-1.253 2.375-2.837 1.99-4.625-.487-1.817-2.652-2.358-4.297-2.291zm41.774 3.105c-1.007-.03-1.843.935-1.606 1.93.336 4.425 6.32 2.702 6.206.756-.286-1.312-1.683-1.972-2.829-2.406-.569-.192-1.168-.313-1.771-.28zM99.5 40.66c-.586 1.537-.126 3.532 1.412 4.317.952.513 2.049.688 3.103.846 2.192.118 3.83-2.02 3.93-4.063-1.108-5.527-6.767-5.86-8.445-1.1zm137.493 5c-1.935.077-3.878 1.674-4.012 3.66-.036 1.552 1.533 2.475 2.883 2.726 3.62-.13 5.2-6.358 1.13-6.386zm-177.1 7.602c-1.227-.04-2.283.688-3.004 1.628-.912.989-1.041 2.639-.073 3.637 2.287 3.133 7 .574 7.597-1.552.28-1.745-1.389-3.055-2.896-3.493a5.177 5.177 0 0 0-1.623-.22zm53.637 7.101c-13.473.484-26.655 7.098-34.904 17.797-6.915 8.81-10.367 19.98-10.88 31.084-.402 8.25.809 16.557 3.396 24.394 2.136 6.057 5.426 11.792 9.977 16.36 2.245 2.232 4.544 4.432 7.165 6.226 7.254 5.135 16.05 7.957 24.912 8.288 8.025.946 16.554-.354 23.39-4.85 3.42-2.286 6.507-5.267 8.275-9.033 2.732-5.569 3.724-12.143 2.09-18.182-1.015-3.714-3.28-7.188-6.567-9.252-2.153-.762-4.72-.543-6.493.984-2.565 2.17-3.765 5.423-5.194 8.364-1.09 2.212-2.067 4.555-4.071 6.059-1.684 1.263-3.976.8-5.693-.138-.754-.43-1.622-.813-2.185-1.464-2.247-4.248-6.31-7.047-9.942-10.017-3.018-2.456-6.225-5.172-7.425-9.018-.744-2.43-1.113-5.417.335-7.467 5.48-7.756 11.602-15.038 18.094-21.936 1.903-1.03 4.4-1.763 6.364-.47 2.192 1.501 3.195 4.113 4.311 6.389 1.189 2.455 2.232 5.226 4.54 6.863 1.837 1.312 4.304.945 6.204-.024 3.916-2.668 6.316-7.206 6.915-11.855.885-6.734-1.257-13.768-5.555-19-2.838-3.493-6.893-5.716-10.99-7.406-5.088-2.025-10.605-2.886-16.069-2.696zm77.006.94c-6.783.195-13.663 2.424-18.746 7.031-1.896 1.745-3.595 3.724-4.981 5.897-3.564 6.023-3.985 13.777-1.2 20.185 1.314 2.912 3.365 5.597 6.13 7.25 1.534.684 3.365 1.513 5.028.773 1.531-.822 1.669-2.783 1.72-4.327.107-2.732-.442-5.574.476-8.213.65-1.367 1.769-2.473 2.91-3.444 1.635-1.392 4.002-1.902 6.013-1.06 3.106 1.264 5.352 3.917 7.405 6.465 2.28 2.89 4.251 6.08 6.448 9.064 3.428 2.016 5.446 5.957 5.455 9.889.12 4.335-2.13 8.851-5.904 10.972-4.907 2.51-6.804 7.397-11.646 9.848-2.073.987-4.769 1.48-6.743.002-3.391-4.27-4.274-11.207-10.673-10.287-3.394.57-5.968 3.285-7.603 6.156-2.763 5.903-2.622 10.92-1.084 16.37 2.465 10.421 11.437 18.772 21.838 21.002 2.968.681 6.052.52 9.067.308 11.152-1.003 21.661-6.071 30.202-13.18 5.075-4.127 8.698-9.817 11.08-15.86 3.057-7.91 4.112-16.52 3.567-24.957-1.307-10.31-4.311-20.575-9.947-29.38-4.258-6.705-10.32-12.37-17.634-15.578-6.502-3.35-13.854-5.142-21.178-4.926zm-1.267 6.037c12.474.449-2.795 4.501-6.666 7.709-1.322 1.186-3.075 2.383-3.368 4.135-.504 3.025-1.401 5.9-3.082 8.389-1.727 1.83-2.645 8.425-3.982 7.764-2.068-1.678-2.714-4.468-2.853-7.01-.159-3.56.843-7.041 2.53-10.184 1.563-2.861 4.055-5.054 6.796-6.903 3.206-2.162 6.765-3.933 10.625-3.9zm-72.102 2.912c3.21-.088 8.173 2.669 9.894 2.113 2.006-.758 5.265 3.032 5.921 5.039 3.435 6.715-14.512 10.645-17.133 5.04-1.06-2.402.554-6.222-1.641-7.651-9.111-5.931-3.518-4.447 2.959-4.541zm78.602 2.521c6.707.277 15.286 6.597 18.292 11.373 1.605 2.631 3.868 6.827 1.55 8.899-2.066 1.845-5.062-1.71-7.405-2.916-2.22-1.223-4.917-2.122-7.414-1.265-1.193.626-2.724 1.452-4.036.689-1.365-1.038-1.963-2.817-2.085-4.424-.402-5.3-4.352-5.355-6.711-8.172-.706-.924.217-1.947 1.015-2.414 2.024-1.232 4.456-1.675 6.794-1.77zm-89.198.643c1.855-.074 3.725 1.024 4.355 2.81.917 3.012-1.195 6.926-2.61 9.924-1.492 3.158 1.264 6.862.206 10.256-.556 1.659-1.868 3.053-3.404 3.821-1.71.16-3.54-.593-4.353-2.165-1.67-2.97-1.451-6.766-3.702-9.448-2.423-2.773-6.89-.477-6.233-2.89 1.032-2.42 2.749-4.367 4.517-6.29 2.065-2.085 4.29-4.2 7.082-5.252 1.375-.279 2.716-.794 4.142-.766zm30.3 6.734c1.471.335 2.452 1.653 3.365 2.76 1.577 2.13 2.868 4.707 3.15 7.291.172 1.378-.289 2.933-1.59 3.613-1.348.816-2.84-.236-3.954-.884-1.534-.97-3.457-2.008-5.292-1.216-1.633.861-2.557-1.867-2.03-2.704 1.436-2.172 4.177-3.308 5.131-5.836.396-.952-.032-2.305.918-2.98.099-.041.208-.037.301-.044zm131 4.217c-1.739.194-2.586 2.149-2.55 3.715.272 3.58 4.142 3.917 6.108 2.07.441-.741.37-1.711.278-2.522-.794-1.403-1.839-3.124-3.618-3.267-.073.005-.147-.006-.219.004zm-40.54 18.074c.248 13.408-.877 8.775-3.779 1.26-.81-2.098-3.086-3.793-5.492-3.836-5.215.397-3.882 4.941-5.788 6.418-1.319.628-2.708-.353-3.745-1.114-1.543-1.224-3.82-2.451-3.891-4.415-.076-2.112.778-4.102 1.208-6.137.882-3.468 1.693-2.55 3.78-.518 1.402 1.37 3.16 2.739 5.217 2.72 1.947-.055 3.763-1.803 3.738-3.582-.225-16.059 7.944 4.48 8.752 9.204zM37.708 87.756c-1.392 1.267-2.404 3.384-1.669 5.244.582 1.34 2.187 1.676 3.504 1.582 2.795.132 4.584-1.782 3.987-4.274.14-2.597-2.174-5.98-5.822-2.552zm57.153 16.502c1.043 3.122 2.486 6.306 2.032 9.683-.28 1.628-1.937 2.641-3.498 2.762-3.18.416-6.55-.619-9.598.69-1.19.499-3.776 4.475-3.625 1.988-.257-9.087 2.826-18.334 5.47-24.968.453-2.258 2.503-3.942 4.752-4.208 9.136-.353 3.161 9.879 4.467 14.053zm123.387-.908c2.029.34 3.337 2.274 3.978 4.09.444 1.664.81 3.36 1.003 5.075.376 3.544-.009 7.105-1.014 10.479-1.708 5.717-5.458 11.033-10.895 13.717-6.093 1.202-5.988-5.73-7.025-10.224-.261-4.395-.59-5.05 3.004-5.857 3.191-.275 5.889-2.63 7.098-5.52 1.092-2.435 1.288-5.194.89-7.805.22-1.62.891-4.097 2.961-3.955zM87.057 120.148c1.868.229 2.714 2.158 4.168 3.1 2.191 1.686 5.027 1.915 7.673 2.21 3.251.914 5.465 1.212 5.504 4.117-.39 2.56.87 4.989 1.928 7.235 1.211 2.553 2.777 4.935 3.297 7.75.29 1.336-.336 2.814-1.625 3.368-9.22 3.22-20.24-7.824-23.065-14.193-2.014-4.045-2.564-8.705-.197-12.3.546-.722 1.352-1.383 2.317-1.287zm83.507 7.944c1.686 2.24 4.6 2.761 7.127 3.506 1.235.352 2.933.94 2.971 2.476.016 1.419-1.79 2.658-1.297 3.948 2.088 4.801 6.875 16.967-2.725 10.495-3.143-2.063-5.6-4.923-7.392-8.224-1.439-2.772-2.425-6.177-1.173-9.198.508-1.224 1.673-4.108 2.456-3.048zm-26.355 3.95c.638 1.66 1.06 3.488.662 5.304-.684 3.084-3.373 5.117-5.875 6.753-5.354 4.43-11.087 4.709-16.877 1.919-4.94-3.051-3.053-4.242 1.28-4.95 2.66-.31 5.611-.984 7.281-3.273 3.63-4.69 8.867-6.497 11.245-8.042 1.462-.8 1.963 1.271 2.284 2.29zm-100.033-2.136c-2.395.233-4.528 2.185-5.057 4.52-.387 1.634.656 3.285 2.135 3.95 4.06 1.676 6.56.094 7.13-4.097-.29-1.8-1.232-3.86-3.185-4.292a3.5 3.5 0 0 0-1.023-.08zm158.4 5.914c1.979 1.354 3.455 3.66 5.976 4.063 1.147.244 2.29-.138 3.376-.416.588-.048 1.424.228 1.25.972-.413 1.908-1.836 3.395-3.092 4.813-3.668 3.092-6.182 5.906-10.664 5.919-3.594.513-7.37.06-10.69-1.433-5.442-3.445-4.543-5.696-2.279-10.484 1.343-2.406 2.633-6.075 5.484-6.2 3.37-.146 8.333 1.14 10.64 2.766zm63.805-1.43c-1.898.13-3.762 1.793-3.754 3.758.102 1.524 1.722 2.26 3.057 2.405 1.08.082 2.305.564 3.277-.17.949-.696.52-1.956.414-2.926-.245-1.525-1.25-3.158-2.994-3.066zm-154.932.987c3.448 3.685 2.011 9.007 6.405 12.431 2.279 1.8 5.298 2.288 8.093 2.342 12.189 1.25 1.337 7.958-8.453 5.497-6.043-.85-12.274-.717-18.023-3.001-6.791-3.379-5.309-4.048 2.448-1.442 2.516.631 5.392 1.188 7.788-.128 2.216-1.419 4.453-4.17 3.715-6.617-.771-2.806-2.982-4.888-4.106-7.52-.312-.566.01-1.256.66-1.35.475-.135.981-.229 1.473-.212zm-29.73 31.18c-2.04 0-3.592 2.08-3.31 4.04.617 5.113 5.804 3.746 7.373.745.65-1.492-.234-3.26-1.594-4.008-.724-.49-1.588-.803-2.47-.777zm143.531 3.224c-1.513.057-3.404.714-3.783 2.36.159 2.89 1.671 3.245 3.529 3.74.836.075 1.458-.508 1.932-1.123.856-1.003 1.836-2.44 1.148-3.781-.56-.967-1.793-1.218-2.826-1.196zm-72.166 6.002c-2.313.273-3.84 2.74-3.734 4.947.069 1.5 1.018 2.941 2.357 3.594 2.039.345 4.265-.906 5.063-2.808.488-1.126.07-2.353-.515-3.348-.532-1.279-1.667-2.508-3.171-2.385z" transform="translate(-7.236 11.227) scale(.39893)"/></svg>