<svg width="400" height="400" viewBox="0 0 105.833 105.833" xmlns="http://www.w3.org/2000/svg"><path style="fill:#000;stroke-width:.446442" d="M408.256 248.984c-7.81.154-15.58 1.378-23.108 3.375-21.763.345-44.27 6.801-60.695 21.575-4.161 3.145-8.908 5.592-12.879 9.062-16.882 13.66-27.985 32.878-37.277 52.178 1.634 10.101 2.53 20.946-1.236 30.691-1.444 4.31-5.939 7.703-10.573 6.254-3.621-.644-6.626-3.056-9.777-4.6-26.018-.95-51.763 5.71-75.568 15.815-20.713 18.581-39.445 39.545-54.172 63.21-14.937 20.638-20.698 46.194-23.471 71.095-.53 5.711-1.434 11.505-1.46 17.193 5.993 15.133-1.28 31.974 4.562 47.12.898 2.89 3.527 5.009 3.384 8.152 1.302 11.474 8.96 20.718 16.61 28.79 4.543 4.85 8.983 9.888 12.183 15.735 6.003 7.316 15.54 10.057 23.957 13.56 6.094 2.626 13.103 4.406 17.596 9.582 2.384 3.73-1.34 7.58-3.916 10.042-2.036 1.611-3.997 3.243-4.748 5.847-9.58 19.56-12.634 41.38-17.395 62.344 3.818 2.059 3.064 7.127 3.397 10.629.322 4.998-.202 11.507 4.664 14.543 2.037.302.366 2.709.701 4.1-.485 4.427 1.359 8.674 4.356 11.857 2.409 2.852 4.062 6.343 3.879 10.123 1.136 13.354 9.688 24.326 17.537 34.584 3.288 4.392 6.32 8.985 10.464 12.644 15.7 15.69 33.314 30.32 54.274 38.32 2.16 6.124 7.999 10.639 14.543 10.823 6.517.741 13.796-1.669 19.68 2.102 3.71 2.637 4.93 7.269 6.097 11.421 22.183-5.888 46.611-2.846 68.215-12.046 4.26-1.666 8.265-4.167 12.166-6.334 7.667 1.234 14.186-4.427 18.48-10.137 4.929-5.928 8.274-13.339 14.518-18.067 2.203-1.756 6.046-1.708 7.8.479 5.47 20.686 21.538 37.197 40.37 46.578 9.461 4.7 19.665 8.235 30.162 9.547 25.125.312 51.177-.872 74.361-11.555 9.941-4.726 18.823-11.37 27.864-17.588 11.918-8.643 23.501-17.804 34.588-27.463 11.562-18.555 28.754-33.575 36.779-54.296 3.188-8.068 4.125-16.925 3.133-25.489 4.25-19.32 4.23-40.384-4.12-58.644-3.437-7.307-8.295-14.153-14.997-18.781-2.587-2.352-6.557-5.9-4.526-9.725 3.866-5.176 10.47-7.057 16.065-9.762 6.886-2.848 13.76-6.06 19.218-11.265 20.912-17.843 35.364-42.194 44.633-67.842 1.269-32.881.92-66.277-7.213-98.358-.106-16.547-8.188-31.603-17.039-45.09-5.837-8.94-11.566-17.71-16.342-27.238-14.971-14.813-31.835-29.118-52.503-34.937-11.309-3.196-23.543-3.02-34.69.748-7.135 1.626-15.503 3.51-22.05-.86-6.116-4.929-6.424-13.575-6.534-20.808-.03-11.606-2.723-23.152-6.933-33.938-6.705-16.993-18.691-31.592-33.35-42.377-14.078-11.589-27.55-24.959-44.928-31.527-4.64-1.825-9.635-2.461-14.53-2.953-16.194-5.226-33.116-8.79-50.206-8.438zm-12.904 19.834c5.63 1.9 11.67 4.028 17.627 2.229 4.224-.488 8.5-2.676 12.757-1.565 1.933.944 3.442 3.173 5.405.965 2.322-1.748 5.097-.904 7.46.188 1.582.938 3.546-1.18 4.588.595 4.72 3.973 10.616 7.787 17.034 7.325 1.466-.234 2.706-1.368 2.949.761.905 1.863 3.493 1.994 4.922.672 3.884 1.645 6.208 5.556 9.933 7.53 2.575 1.527 5.245 3.444 8.037 4.238 1.612-.363 4.479-1.683 4.918.834.567 2.477 3.19 3.854 5.479 3.512 1.815 5.21 7.79 6.175 12.225 8.1 1.878.96.343 3.192.132 4.65 3.098.84 7.233 1.728 7.686 5.587.697 3.594 3.478 6.47 6.902 7.625-.439 4.144 2.396 7.879 5.668 10.098-1.368 4.804 1.863 9.385 3.387 13.762 1.598 2.023-.776 3.14-2.17 4.398-3.701 2.442.307 1.289 2.523.971 2.758-.573 3.706-1.115 2.788 1.926.67.78-.215 3.133 1.718 3.615 1.555.68 3.348.537 4.977.648-3.09 1.036-5.607 3.018-8.076 5.079 2.79.29 5.562.414 8.334.148-.616 3.617-4.014 7.569-1.543 11.146 1.529.888-.667 2.224-.54 3.567 2.949 5.547-1.24 10.444-.634 12.275.374 1.949 2.783 5.06-.129 6.07-2.392 1.129-4.77 2.286-7.156 3.424 2.746.199 5.49.424 8.238.604-2.613 2.022-3.29 5.921-1.5 8.703-.646 3.402-2.262 7.836-6.045 8.572-1.3.421-6.963-.372-4.947.971 1.331 1.124 3.987 2.31 4.562 3.398-2.516 1.575-4.696 3.617-7.064 5.397 1.832.127 4.165-.29 1.771 1.453-.911 3.055-3.516 5.59-4.207 8.668-3.836.582-6.2 4.087-9.006 6.244-2.526.612-3.514 3.297-4.96 5.16.362.375-2.107 1.099-2.598 1.957-1.675 1.547-2.625 3.667-3.912 5.514 1.485-.23-.438 3.115 2.002 3.424 1.256.483 3.515 1.312 3.918 1.994-2.915-1.613-6.646-3.024-9.893-1.66-2.345 1.827.114 4.609 2.31 5.113.311.656-1.342 2-1.349 3.102-.259 2.327-3.753.526-5.42 1.062-2.057.046-5.385-.446-5.41 2.447-.603 1.578 3.687 1.93 1.861 2.944-1.496 2.46-.612-.227-1.957-1.307-2.593-1.347-4.413 1.586-5.832 3.278 1.617 1.321 2.878 2.057.49 3.126-1.623 1.391-2.355 3.469-2.94 5.458-3.897-.975-6.47 2.762-8.013 5.728.91.657 4.616-.18 2.145 2.023-1.338 1.128.547 3.854-1.742 3.694-2.023.46-4.692.931-4.715 3.506-.535 1.338 4.175 1.59 1.797 1.931-2.516.437-5.804 2.949-3.809 5.647 2.217.963 1.283 1.752-.398 2.916-2.931 2.696-5.849 5.41-8.961 7.898 1.186 1.09 3.755 1.445 4.023 3.211-.548 2.763-2.29-.665-3.92 1.434-1.713 1.146-.898 3.042-.799 4.377-2.489 2.522-2.653 6.344-5.402 8.674-4.68 5.456-12.588 5.808-19.13 4.3-9.27-1.718-19.187-5.63-28.43-1.68-2.884 1.154-5.12 3.386-7.375 5.374-6.193 2.756-12.51-1.849-16.825-5.979-5.19-5.095-9.384-11.017-12.785-17.207 1.807-2.727-1.057-5.665-2.418-7.982a39.78 39.78 0 0 0-3.39-4.229c2.318-2.01-.536-7.794-3.557-5.55-1.436 2.55-1.132 1.125-.607-.983 1.044-6.975-4.374-12.55-8.18-17.727-1.182-1.949-3.464-3.455-4.281-5.421.46-2.127-.464-4.646-1.696-6.239-2.774-.776-2.733-4.336-4.129-6.478-2.672-7.24-9.011-11.945-13.892-17.578-1.702-2.135-2.81-4.643-3.697-7.205-4.909-.016-6.432-5.41-8.235-8.993-1.86-4.564-5.71-9.326-11.16-8.888-2.79-.2-4.905-.011-2.426 2.8 5.416 9.975 10.896 19.931 15.434 30.346 1.53-.183 4.948-1.845 4.69 1.04.204 4.796-1.549 11.004 2.952 14.411 1.62.765 3.052 1.545 1.885 3.498-.803 1.86 1.787 2.772 1.68 4.696.841 2.722 3.454 4.548 6.289 4.494-.684 3.334-2.33 7.844.767 10.424 2.5 1.426 5.423-.517 7.514-1.381-1.04.807-.462 3.213-2.205 2.37-3.03.6-2.408 4.509-2.525 6.835 1.203 1.507 4.221.195 4.248 2.059.745 3.433 1.69 6.822 2.506 10.24.922-2.296 1.846-4.59 2.767-6.887 1.463 4.765 2.647 10.296 3.944 15.377.954-2.702 1.911-5.403 2.863-8.105.778 1.526.476 6.503 2.65 3.542.988-2.307 2.873 3.761.664 2.34-2.085-.393-3.581 2.934-2.133 4.48.765 1.955 3.914 1.686 4.104-.501 1.791 8.047 3.69 16.956 10.217 22.611-3.835 14.278-2.417 30.186-10.416 43.168-2.886 4.609-7.114 8.224-11.826 10.867-1.262-2.727-4.857-1.2-5.602 1.166-.536 2.482-1.817-1.734-3.596-1.07-1.576-.932-3.83 1.883-4.193.959-1.481-2.28-4.164-.418-4.945 1.506-.67.496-2.471-2.33-4.06-.967-1.069 2.088-1.938.786-3.772 1.137-2.735 2.57.01-3.537-1.516-2.246-1.688 1.884-4.01 3.301-5.04 5.693-.989-3.124-6.144-3.337-7.071-.043-1.532-1.436-3.548.04-4.555.848-2.753-1.872-5.442 1.38-6.143 3.861-1.188-1.462-3.402-.614-4.295.656-.53-2.662-4.12-2.23-4.921.057-.487 2.103-2.893.349-3.79 2.328-1.338 2.033-1.943 4.544-1.837 6.969-.536-1.94-3.104-.111-3.094-1.793-.415-2.203-2.763-2.494-4.51-2.799-2.94.473-4.83 3.225-6.4 5.521-2.159-1.57-5.156-.294-6.555 1.7-4.433-.977-8.746 1.682-12.602 3.572-4.12 2.382-8.257 5.56-9.656 10.334-.334-1.377 1.877-2.823.703-4.598-1.045-2.348-4.129-1.033-4.69 1.065.129.77-2.38 2.632-2.825 1.222-3.05-2.406-6.748.777-8.649 3.23-2.247 2.882-3.514 6.357-5.236 9.55 4.975-2.489 11.36-4.21 14.342-9.155.33 2.622 2.857 1.787 4.658 1.233 1.775-.958-1.521 3.54 1.838.531a272.542 272.542 0 0 0 9.22-5.875c2.382.06 5 .894 7.247.434 1.309-.795 3.756-4.044 2.818-.612-.507 2.692 3.11-1.096 4.508-1.394 2.53-2.37-1.475 5.088.728 2.498 2.203-2.28 4.409-4.558 6.61-6.84-.106 1.48 2.787 1.876 4.154 2.178 5.07.245 10.492.011 15.127-2.207 1.145-2.246 3.06-.355 4.728.38 1.677.658 1.425-3.39 2.358-4.537 4.784 2.287 10.2.287 14.506-2.08.614-.603 2.725-.876 3.41-2.142.542-2.458 2.654-.485 4.318-.45 1.865.552 4.264-1.052 3.448-3.099 1.875.263 3.969.818 5.025-1.205-2.188-5.631 5.322.2 5.45-4.266 2.291.416 5.66-1.22 4.4-3.92.99.451 2.8 1.77 4.044.25 1.023-2.001 1.352-2.54 3.678-2.056 1.836-.237 2.044-2.788 4.16-2.076 6.265-1.248 12.182 2.54 15.727 7.459 5.181 6.369 9.27 15.052 17.84 17.373 5.873-.14 12.479 1.589 15.62 7.033 5.244 8.507 4.95 18.973 8.513 28.119-1.74-1.201-4.585.148-3.788 2.355.877 2.174 2.885 3.67 4.34 5.463-2.47-1.128-5.988.446-5.484 3.485.229 2.375 1.538 4.663 2.488 6.658-2.458-1.402-4.484 1.645-3.263 3.8-.02 1.201 2.715 3.807.22 3.206-2.855-.11-3.828 3.503-1.898 5.29 1.867 1.57 1.073 1.52-.426 2.882-.832 1.776 1.466 3.49-.121 5.01-2.617 3.91-3.406 9.614.152 13.23.787.893 1.698 1.627 2.653 2.304-1.921-1.076-4.147-1.46-6.309-1.98 1.462 2.894 3.39 5.37 5.861 7.455-1.76-1.686-5.722-1.45-5.463 1.617-.057 2 2.108 3.63 2.194 5.28 2.83 1.862-1.17 9.433-.205 11.2 5.419 6.381 4.891-.201 3.15 9.18-.059 2.13-3.172 2.051-2.008 4.577 2.977.567 8.025 7.025 3.928 4.341-3.09-.607-3.665 3.316-2.87 5.532.896 4.019 2.536 7.816 4.05 11.63-2.575 1.58-3.414 5.823-.274 7.286-1.483 1.733-2.523 4.78-2.457 7.39-.026 2.845.562 5.703 1.801 8.268-3.77 1.693-3.324 6.682-4.48 9.98-.847 4.048-3.037 7.691-5.854 10.608-3.497 8.51-7.217 17.21-13.23 24.275-1.115 1.781-3.356 1.427-4.54 3.053-6.018 5.425-14.503 7.316-20.066 13.271-.955.608-1.054 2.77-1.98 2.772-8.468-2.753-18.747-1.316-25.41 4.848-5.515.342-11.542-2.475-16.692.486-1.456 2.119-1.58-.093-2.887-1.07-1.898.246-2.753-.622-4.517-1.27-2.276-.465-4.494.799-6.037 2.385-4.514-6.267-13.289-9.178-20.686-7.11-.108-2.074-2.835-1.669-3.367-2.492-2.444-3.897-7.178-7.575-11.957-5.502-1.707.753-3.156 2.343-2.463-.57.12-1.839-1.899-3.593-3.48-2.139-.555-.172-2.908-1.389-3.536-1.314-.021-1.843-2.166-2.928-3.556-1.588-.244-1.76-3.32-2.508-4.543-.512-.746.403 1.225-3.552 1.47-4.75-2.018 1.55-4.032 3.104-6.052 4.65-.475-2.505-2.556-5.042-5.344-4.511.463-2.51 1.593-5.886-.377-7.904-1.397-1.868-3.083 1.254-3.832.826-.834-1.18-3.341-1.11-3.627-1.856.679-1.655 2.803-4.747 2.62-5.549l-7.098 3.588c.148-2.546-.728-4.997-1.122-7.486-1.884 2.84-2.044.647-3.626-1.064-.77-1.112-1.58-2.661-2.737-2.985-.114-2.3-3.91-.75-3.494-2.205.978-5.03-3.822-8.44-7.773-10.33-1.153-.916-5.19-1.788-2.62-3.387.004-2.445-2.79-3.892-5.078-4.218-.4-1.38 2.91-5.63-.838-3.17-1.216.534.477-3.253-1.66-3.6-2.065.085-1.646-2.515-2.232-3.916-1.846-8.952-4.184-17.864-8.346-26.053-2.654-5.602-4.82-11.986-4.597-17.812.06-2.648.423-5.347-1.252-7.62-1.559-3.398-2.51-7.491-1.477-11.08 2.246-2.92.467-6.45.03-9.597.755-2.837 4.158-3.9 6.056-5.926.241-.873-4.193-.058-5.807-.258-2.184.484-2.357-.851-.9-2.283 2.351-3.01 5.139-5.74 6.676-9.26 2.642-3.857 2.628-9.344-.659-12.832-.064-1.136 3.53-.741 4.76-1.205 2.31-.325 6.116-.206 2.414-2.314-1.137-1.086-3.995-2.465-1.506-3.791 3.786-2.964 6.92-6.656 9.467-10.692 4.44-4.457 7.799-9.947 12.205-14.37 4.494-5.569 8.842-4.982 11.28-9.253 1.237-1.85 2.628-3.59 3.943-5.384-6.64-3.918-14.507-1.296-21.518-.393-3.595.453-8.152 1.668-10.785-1.668-1.426 2.131-2.25 2.35-4.363 1.5-1.802.9-2.035.818-2.244-1.152-1.19-3.464-5.638-2.563-8.016-1.381-1.393-5.361-7.57-7.442-12.513-8.004-1.443-.27-3.217.518-3.428-1.307-2.841-1.065 1.393-2.279 2.295-3.552 1.46-1.291-3.89-.052-5.268-.288-1.487.004-4.372 1.307-4.369-1.25-.814-5.464-3.498-10.545-7.596-14.255-1.676-.124-5.064.828-2.578-1.395.495-1.247 4.949-5.19 1.791-3.95-2.115.58-5.379 2.015-2.68-1.04 1.231-1.996 3.467-4.822-.283-2.703-2.542 1.374-3.012 1.144-4.203-1.035-1.439-.972-3.885-.027-4.951-.227.94-1.396-.798-2.643-.48-3.764 2.35-5.702.133-14.045-6.295-15.863-1.386-2.092-.52-2.748 1.736-4.229 3.723-2.08.32-1.773-2.068-1.806-1.618-.785-4.995 1.826-4.954-.535 2.323-1.043 3.375-4.515.946-6.04.565-.42 2.893 1.154 4.295.585 2.524-.984 1.368-4.124-.688-4.97-1.563-.686-2.903-.588-2.006-2.796-.002-2.997.485-5.944 1.143-8.86-2.065.351 1.614-3.06-1.129-3.956 1.14-1.585-.775-3.284-2.295-3.64 1.812-.444 6.94-.482 2.742-1.665-1.238-.753-6.682-2.184-2.607-2.055 2.02.023 4.41-.704 4.308-3.123-.635-1.45-3.004-1.905-3.668-2.428 3.528-2.193 5.387-6.986 3.12-10.724-.556-1.448-4.77-.587-2.094-2.4 1.606-1.412.695-4.018-.192-5.087 2.355-.568 2.912-3.9.553-4.85-1.368-.29-3.973-1.891-3.638-2.73 2.264-.215 5.93.48 6.392-2.578-1.541-1.93-.526-2.374 1.106-3.69 4.867-5.467 4.948-13.532 5.464-20.255 2.789-.073 2.916-3.543 1.504-5.295-1.282-1.675-1.344-2.958.977-2.043 2.091.835 2.623-2.348 3.963-3.434 3.066-4.136 4.566-9.2 4.394-14.328.504-3.487 4.172-5.015 6.59-7.056-.77-1.038-3.474-1.953-1.601-3.448 4.467-5.003 10.528-8.948 12.957-15.484 2.822-3.63 4.189-8.363 7.677-11.434 2.185-1.906 5.767-1.745 6.967-4.69 3.384-5.14 10.31-7.197 12.387-13.259 1.114-.24 3.22.733 4.717.045 2.5-.599 3.253-3.322 4.547-5.13 1.745-.234 4.121 2.072 5.222 1.423-.538-2.28 1.232-3.322 3.16-3.764 2.958-1 6.374-1.746 8.647-3.914 8.327-.226 16.309-2.873 24.435-4.304 5.082-.418 10.95 2.138 15.442-1.186 1.524.616 3.44 2.264 5.215 3.104a101.963 101.963 0 0 1 10.103 6.463c5.95-.852 9.805 4.776 12.998 8.877 2.775 3.231 4.7 8.094 9.184 9.209 1.784.133 3.325-1.09 4.113-2.614 2.134 1.49-.22 1.804-.6 3.418-.297 1.736-.652 4.072 1.618 4.436 1.592.316 2.774.353 3.529 2.133 1.44 2.139 3.584 3.895 6.305 3.55 2.839-.338 2.414-4.017.505-5.359-1.65-1.716-3.517-3.3-5.66-4.356 2.842-2.242.877-6.238.434-9.167-1.827-7.204-3.858-14.372-5.059-21.708-.573-2.02-1.444-4.007-2.843-5.597 3.118-.917 1.788-4.9.066-6.563 1.258-7.473 4.314-15.756.514-22.976-1.139-1.259-1.405-2.156.203-3.135 6.05-6.974 9.719-15.729 12.054-24.566 2.565-4.146 7.622-6.103 9.987-10.489 1.282-2.065 2.147-4.373 2.613-6.756 4.253-.308 7.539-3.253 9.947-6.523 2.227-2.426 5.858-2.102 8.418-4.05 18.199-9.305 37.37-18.002 58.016-19.596.703-1.02.786-3.957 2.516-3.573zm14.99 39.688c-1.503-.013-3.006.004-4.508.049-20.972.674-42.768 7.493-57.53 23.002-13.29 13.934-19.664 34.064-16.831 53.119 2.864 21.783 16.275 42.912 36.82 51.814 6.824 3.245 18.096.532 19.412-5.224.174-5.085-4.525-8.466-7.6-11.887-5.326-5.538-12.137-11.106-13.04-19.236 2.122-15.9 4.537-35.787 12.447-48.36 4.048-6.366 11.233-11.897 19.191-10.408 16.882 3.091 18.563 17.891 19.96 31.154 4.194 31.29-12.298 64.138-11.85 90.801.281 9.474 2.92 18.854 7.695 27.049 3.055 1.73 5.944-1.176 6.75-3.992 16.041-33.933 1.31-74.38 4.13-105.293 1.38-10.882 4.482-22.257 12.071-30.508 4.561-5.18 12.458-6.886 18.648-3.715 42.569 27.647 4.736 68.435-4.595 95.375-3.964 11.83 10.137 7.03 15.234 3.412 11.4-8.411 19.935-20.157 26.799-32.416 4.064-7.437 7.149-15.5 8.035-23.97 3.152-15.862-2.293-32.457-12.346-44.825-12.183-15.044-29.303-25.841-47.77-31.394-10.097-2.957-20.604-4.46-31.122-4.547zm-2.774 5.682c33.408 1.99 82.357 21.442 87.614 58.187 1.982 15.222-1.948 31.34-11.225 43.639-6.87 9.19-14.093 18.761-22.965 26.338-1.095.742-4.32 3.658-3.771.566 6.586-12.615 18.528-15.553 21.99-32.006 3.363-16.292.933-33.042-1.398-49.297-1.589-9.73-8.56-18.838-18.399-21.205-15.185-4.176-32.294 5.6-37.066 20.477-17.061-41.596-44.823-24.7-54.58-2.778-3.067 12.08-10.3 40.034-4.993 48.883 4.23 7.804 11.734 13.125 16.395 20.59 1.737 2.487-.886 4.683-3.115 5.365-2.46 1.135-4.865-1.323-7.182-2.088-24.372-12.94-36.68-43.625-30.191-70.095 2.74-12.202 10.6-23.316 20.675-30.938 13.655-10.592 31.094-15.416 48.211-15.638zm192.682 86.796-.008.2c-.204 1.984-1.793 4.96 1.537 3.97 2.268.1 4.58-.393 6.525-1.586l-.982 7.065c2.362-3.093 4.738-6.175 7.065-9.295-.816 3.325 2.531.934 4.312 1.14 2.633.193 1.919 3.792 2.959 5.518.888 2.83 4.483 2.762 6.473 1.809 1.182 3.908 5.431 5.208 9.088 5.441 2.291-.008.527 4.759 2.822 3.293 1.892-.34 4.043-2.74 5.726-1.182.331 1.22-.563 3.388.088 4.971 9.885.092 10.197 5.118 15.194 18.254 3.361.29.281 2.148-.922 3.611-2.29 2.037 3.298.126 4.666.33 1.659 3.566 1.211 9.306 5.674 11.036 1.111.436-.059 2.498.496 3.601 1.057 7.124 6.427 12.449 9.256 18.81-1.575 6.556 3.615 11.998 7.593 16.5 1.403 1.734-3.527 1.575-4.761 2.512-1.443.663 3.853 1.052 5.091 1.606 1.973.42 4.31.396 2.29 2.633-.579 1.655-1.153 3.997-.465 5.478 1.415 1.157 4.088 1.5 3.457 3.766.574 2.313-1.765 4.195-1.528 6.629 2.893 9.11 5.274 10.29 3.83 17.635-1.086 8.633-.495 17.552 1.87 25.898-.381 3.769-2.666 8.16.382 11.463-.694.835-2.646 2.365-1.83 4.111 1.886 2.028-5.734.03-2.957 1.791 1.525 1.415 3.8 2.25 4.854 4.055-1.047 2.317-4.316 4.056-3.323 7.014-2.722 1.321-2.283 4.88-1.01 7.093-2.249-1.322.415 2.874.362 4.024-1.798 2.5-5.471 4.456-4.879 8.111-.054 1.172-2.955 1.017-3.078 2.865-.918 2.687.678 5.397 1.535 7.87-2.292-1.543-5.061-1.83-7.67-2.54 1.336 1.784 2.297 3.88 3.95 5.395-2.045.288-4.564 1.875-3.573 4.105-2.045.063-1.536 2.692-3.326 2.737-.851 1.505-1.795 2.149-3.082 3.279-.015 3.037-3.171.056-4.963-.059-.342.63 2.183 3.683 3.014 5.145-2.092-.376-5.656.212-4.85 3.072-.31.807-3.135.673-3.215 2.524.199 2.191.831 3.058-1.797 1.765-1.605-.055-6.227-1.786-5.773-.697.905 1.481 4.117 3.42 3.734 4.615-1.38.894-1.372 2.718-3.394 1.942-3.823-.32-7.57 2.072-8.52 5.865-.406 2.85-3.629 1.807-5.449 1.148-2.233-1.156-3.746 1.943-5.894 2.393-8.819 3.928-19.134 2.28-28.127 1.93-5.201-.195-10.312-2.162-15.516-1.584-1.429 1.385-2.557-1.044-4.223-.317-1.143-2.799-3.808-5.43-6.931-5.707-.713 1.728-1.758-1.888-2.946-2.228-1.37-1.511-4.47-2.57-5.455-.141-1.626-2.845-4.404-6.27-7.935-6.031-1.622-2.623-4.887-5.208-8.13-4.31-1.883.477-.706 3.098-1.866 3.41a7.988 7.988 0 0 0-3.514 2.074c.925-1.164.188-3.854 1.979-3.766 3.373-1.034.782-6.111-2.186-5.174-1.572.889-1.184 2.712-3.115 3.129-1.172 1.268-1.825 2.163-1.963-.295-2.352-6.136-6.604-11.698-12.04-15.406-1.402-.937-3.673-.866-4.421.85-3.077-4.034-8.591-5.292-11.555-9.526-1.117-.757-4.229-5.612-3.824-3.24.64 3.473.99 7.003 1.84 10.433-1.2-.022-1.676-2.775-2.795-3.712-1.792-2.274-3.445-5.394-6.469-6.055-1.472-.078-1.932 2.312-3.04.363-1.436-1.479-4.345-2.684-5.458-.223.651 4.06 4.208 3.044-4.488.018-9.625-5.901-20.643-11.126-26.686-21.137-3.526-5.633-2.551-12.855.725-18.359-6.85-8.988-11.83-21.055-8.106-32.326 1.554-4.663 4.76-8.604 8.55-11.662.797-2.494 1.328-5.406 2.642-7.53 2.734 1.819 4.87-1.602 5.181-4 .49-.926.694-5.256 1.456-2.873.944 2.508 4.315 1.507 4.945-.73.742-1.496 1.347-3.053 2.045-4.568 3.047 1.879-.129-4.983 2.084-3.08 2.76-1.592 1.981 2.199 3.154-.815 1.714-3.692 4.155-7.234 4.35-11.432 2.688.432 5.41-2.11 4.164-4.812-.304-1.364 2.789-.992 3.468-2.34 1.337-.874.593-3.082 2.172-3.477 1.535-2.01 1.15-4.713 1.926-7.013 1.787 1.574 2.795-1.83 4.004-2.944 1.55-2.087 2.44-4.72 2.53-7.236 2.17-2.05 2.672-5.224 3.298-8.016 2.58 1.874 5.283-1.207 4.785-3.84-.793-2.285 2.202-2.91 3.133-4.689 1.531-1.323.996-4.02 3.236-4.404 6.566-8.478 10.323-14.806 18.239-23.102 3.615-4.045 7.807-7.753 12.914-9.77.094-2.89 1.548-1.53 3.336-2.591 1.422-1.394 1.907-3.445 2.672-5.234 5.544 1.993 12.488 1.984 16.802-2.582 1.166-1.973 2.012-1.488 3.66-.297 2.28.735 4.622-.385 6.335-1.86 2.233 2.936 5.993.63 8.57-.502zm-179.926 19.48.125.358.053.153c3.553 12.653 3.403 26.09 1.887 39.052-.94 6.442-2.307 13.184-5.291 18.881-4.461-3.858-4.173-10.465-4.2-15.87.66-14.279 4.47-28.492 7.426-42.573zM228.1 428.247c-17.92 2.546-33.725 13.726-44.13 28.262-14.447 19.952-21.468 44.262-25.017 68.367-2.401 19.177-.063 39.655 9.975 56.475 7.05 11.908 19.408 21.032 33.287 22.714 11.059-.111 21.631-4.393 31.324-9.402 8.643-4.88 17.756-11.072 21.268-20.808 1.824-5.126.164-10.697-2.842-15.008-5.365 5.208-12.819 8.532-20.39 7.47-12.962-1.774-23.542-11.05-30.98-21.306-3.628-5.22-6.895-10.974-8.359-17.16.576-7.002 3.72-14.98 11.012-17.246 9.237-2.698 18.884.878 27.258 4.724a93.976 93.976 0 0 1 27.58 20.115c9.575 7.537 20.736 12.815 31.926 17.496 6.187 2.18 12.664 5.14 19.369 4.194 3.365-.55 4.523-4.593 2.998-7.342-7.94-13.284-21.865-21.715-36.152-26.795-19.84-7.283-41.626-10.26-59.442-22.314-5.856-3.905-10.3-11.157-8.21-18.334 8.976-21.337 41.325-21.773 56.37-10.909 5.853 4.392 7.692 11.992 10.717 18.313 1.805 4.204 4.685 9.825 10.06 9.424 1.635-.358 4.354-.38 3.883-2.678 2.686-22.604-9.577-45.229-27.943-57.969-9.776-6.777-21.598-10.779-33.562-10.283zm2.326 6.23c18.743.095 35.527 12.458 44.83 28.157 3.836 6.394 6.551 13.477 7.832 20.83-4.49-7.237-11.288-12.802-18.568-17.035-13.46-7.153-29.49-10.275-44.436-6.4-9.385 1.699-15.716 10.144-18.51 18.753-3.17 10.714-.852 12.857 2.565 19.416-1.808 4.004-5.979 6.362-8.825 9.612-5.297 5.263-10.193 12.115-10.119 19.841 3.116 13.615 11.352 25.713 21.586 35.036 7.919 7.012 18.812 12.744 29.631 9.902 4.226-.701 7.413-4.554 11.856-4.102-1.02 5.194-5.106 9.162-8.452 13.05-5.91 5.951-12.47 12.12-20.779 14.321-4.349.169-8.445 2.224-12.873 1.75-12.075.182-23.448-6.73-29.977-16.7-10.387-15.501-13.326-35.118-10.777-53.378 3.054-24.654 10.487-49.592 26.082-69.328 8.017-9.976 18.391-18.45 30.469-22.887 2.454-.525 5.694-.842 8.465-.837zM595.03 447.49c-35.82 2.333-66.107 28.205-60.79 63.188.725 4.776 5.31 9.824 10.808 10.04 5.38-.436 8.18-5.93 10.783-9.972 10.76-17.486 8.568-17.01 24.445-22.797 11.097-2.075 22.26-1.196 33.037 1.955 7.195 2.3 15.32 5.916 18.247 13.442 2.439 7.488-2.45 14.834-7.215 20.215-8.397 9.604-21.542 13.67-33.707 14.498-18.893 1.579-39.244-1.604-57.069 6.716-6.704 3.13-14.832 5.222-18.957 11.952-2.53 4.221.553 9.256 4.662 10.976 9.561 4.6 20.64 2.951 30.543.451 20.627-4.997 38.27-18.61 59.42-21.847 9.55-1.532 17.683 2.142 26.039 6.885 16.228 12.73 2.713 33.644-9.623 40.693-8.224 4.516-17.916 7.005-27.279 5.422-11.38-3.972-29.644-26.591-34.496-7.014 2.29 23.592 33.373 27.594 47.387 27.602 28.331.014 44.777-24.805 48.484-45.649 3.23-28.708 1.075-58.813-11.129-85.33-5.86-12.423-13.952-24.11-24.78-32.693-8.28-6.08-18.57-9.042-28.81-8.733zm-10.38 8.393c23.32-.235 50.21 16.714 56.267 33.396-.034.045-.128.058-.115.112 13.677 55.72 35.374 118.708-36.41 123.1-10.045.614-19.927-4.276-28.811-9.231-2.586-1.463-3.145-4.584-4.611-6.977-4.781-14.291 11.465 2.401 16.31 6.115 12.081 9.26 30.43 2.936 43.471-4.187 33.66-26.324 12.942-59.435-17.9-58.639 5.324-2.026 9.846-5.56 14.326-8.937 23.89-25.912 16.389-40.955-11.25-47.041-13.8-1.84-41.194-7.792-50.194 1.453-7.673 7.31-7.994 20.856-16.984 26.15-15.5 9.128-6.65-20.997-3.3-24.814 12.568-15.447 19.277-30.19 39.2-30.5zM254.386 523.93c.253.011.508.018.761.029 10.193 1.1 19.961 5.22 29.165 9.943 6.953 3.787 13.778 8.241 18.824 14.44-10.046-.434-19.154-5.467-27.815-10.137-7.321-4.226-14.352-8.969-20.935-14.275zm336.836 20.476-.354.133-.082.03c-7.325 2.77-13.659 7.466-20.404 11.376-9.907 5.744-21.812 7.102-33.156 7.858-4.636.038-9.78.501-13.881-2.02-1.262-2.005 1.32-4.011 2.56-5.437 7.242-6.608 17.22-9.226 26.729-10.463 12.749-1.534 25.714-.443 38.588-1.477zm-123.868 65.877h.002c4.602.222 9.407 1.704 12.999 4.508 1.352 3.13 4.323 7.4 8.289 5.723 11.067-4.968.091-.944 3.86 4.51 2.222.041 4.341-.602 3.856 2.074.857 1.561 2.862 1.388 4.338 1.256-.925 2.326 3.995 2.819.385 3.689-2.854 1.132 2.896 1.548 4.092 2.342 2.96.332 2.466 1.531 3.496 1.914 2.824-.48 2.119 1.202 3.824 3.191 1.377 1.445 3.82.294 4.524-1.4 2.392.196 4.432.385 1.351 1.758-1.396 1.26-4.645 3.215-4.908 4.05 4.444-.177 8.882-.57 13.22-1.593-1.252 1.987-3.563 4.62.368 3.404 1.84-.113 6.853-.884 2.596.252-1.291.654-6.93 1.521-2.852 1.912 3.646.836 7.67 1.618 11.123 2.361.911 2.723 3.876 3.293 6.414 2.909 1.363-1.652 2.389-1.536 4.393-1.706 2.306-1.411.111 2.59.377 3.721.13 1.528 3.615-1.665 4.62.996 1.34 1.233 3.45.199 4.07-.82-.375 1.368-3.549 3.914.642 3.25 1.592.142 3.2.335 4.797.13 1.056 1.022 3.396 2.437 5.33 2.46 6.125-4.09 3.728-3.6 1.992-.067 2.343 1.045 5.99 2.529 7.582-.443 1.167-.463 3.297-.184 3.957-1.861.296 1.339 3.383 2.668 1.158 2.96-1.684.895-6.562 1.772-2.418 2.698 1.256.625 3.566 1.397 4.367 1.703 1.149 1.818 3.393 4.34 5.588 2.39.623-.236 1.32 2.733 2.404 3.538 4.48 5.7 10.933 9.733 17.704 11.969 6.31 6.353 12.525 13.262 15.576 21.84 1.489.533 4.651.805 5.146 1.734-1.532.939-1.385 4.574.217 5.076 1.666.469 3.727.649 4.87-.928.84 2.81-1.234 6.52 1.77 8.512 1.122 1.033 3.293 1.91 3.27 3.521-3.594 2.057-2.273 6.954-1.306 10.172 1.046 2.672 2.16 6.126 5.197 7.02-2.41 1.194-4.651 4.527-2.186 6.806.975.958 2.485 1.517 3.559 2-4.517 1.72-6.223 6.716-6.205 11.186-.273 3.083.365 6.187-.49 9.152-.327 1.828 1.666 4.072.287 5.551-1.242.994-6.539 2.055-2.752 2.973 3.838.943-.03 1.013.015 3.138-.543 1.759 2.852 2.33 1.05 3.686.566 2.874-3.747-1.042-4.073.133.847 2.74 1.499 5.406 2.271 8.103-4.812-.942-7.853 3.978-9.01 7.944-.378 1.78-2.208 4.206.333 4.972-.11.18-3.382 1.122-2.36 2.897-5.938 3.408-8.824 10.077-12.719 15.406-2.565 3.943-5.827 7.324-8.783 10.947-7.305 7.283-17.348 11.86-22.797 20.944-9.292 4.153-16.637 11.941-26.367 15.242-2.973.306-4.908 3.033-7.703 4-9.592 4.545-19.913 7.204-30.043 10.238-1.96.286-3.59 2.305-5.586 1.272-6.803-1.467-13.799-.337-20.629-.243-5.28-.788-10.45-4.532-15.896-2.873-1.309 1.316-2.167-2.175-3.824-.619-1.025-.505-1.148-5.845-2.12-4.56-.995 1.936-1.375 4.42-2.793 1.535-1.505-1.41-3.844-.378-4.876 1.127-.903-1.79-2.983-2.68-3.204-4.828-3.335 1.265-5.7-2.56-6.734-5.229-.586-4.592-2.767 1.82-3.156.158-.023-3.68-3.329-6.988-7.104-6.203-1.951.65-1.395-3.098-3.705-2.746-1.071-.936-1.356-3.336-2.346-4.709-2.33-4.833-5.205-9.109-7.56-14.01-1.764-3.38-3.76-6.85-5.977-9.816-.237-4.02-1.29-8.682-5.287-10.572-1.363-4.11-.034-8.639.295-12.865-.849-4.4-2.49-9.066-5.898-12.196-.053-5.04 1.359-10.019 1.92-15.03-1.557 1.797-2.401 3.997-2.69.48-.524-1.76-4.515-.252-2.05-1.682 2.051-1.834 5.245-3.645 5.011-6.793-.608-1.573-2.38-2.052-3.912-1.705 2.132-2.129 3.68-6.605 1.057-8.836.813-1.402 1.49-3.443 1.113-5.076 1.362-2.426 2.245-6.994-1.432-7.739-1.354-.39 1.996-2.797 2.239-3.982 1.45-1.656 2.692-5.264-.327-5.916-1.916-.097-3.59 1.58-5.011 2.244 3.644-3.373 8.16-6.928 9.013-12.107.661-2.13-2.99-2.61-1.127-4.25 1.118-2.14 3.008-6.035.063-7.487-.49-1.708.594-4.24.533-6.293.53-2.6-.092-6.926-3.625-6.47-2.323.904.712-2.212.664-3.368.852-2.126 1.434-5.395-1.033-6.658 3.027-1.26 2.99-5.324 2.998-8.142-.094-3.755-4.242-5.291-6.047-8.164 3.016-2.857 4.652-7.465 3.137-11.455-.206-1.773-1.097-3.642.666-4.733 1.002-1.626-.32-3.52-1.315-4.068.272-10.269 3.585-21.777 12.782-27.514 3.175-1.973 6.897-2.844 10.595-3.092 7.727-8.673 16.362-18.132 28.266-20.506a24.023 24.023 0 0 1 4.605-.324zm-3.986 51.584c-4.266.184-4.961 5.336-4.453 8.68 3.045 23.278 18.48 43.818 33.707 58.234 10.852 10.41 22.515 21.293 27.121 36.08 3.187 9.605 5.253 19.65 3.817 29.858-.745 5.72-4.227 11.896-10.416 12.822-4.596.762-9.577.211-13.329-2.742-12.82-11.876-30.948-26.67-31.771-50.014.52-13.125-4.416-23.26-11.666-17.01-6.606 5.383-11.075 13.938-10.188 22.582-2.512 26.427 8.582 54.225 29.647 70.647 12.625 9.857 29.262 14.605 45.15 11.99 20.187-2.867 38.827-13.495 53.04-27.894 13.655-15.875 24.105-35.407 26.07-56.508.23-25.18-9.83-45.038-28.48-59.229-9.399-7.15-20.495-13.17-32.544-13.834-6.345-.437-13.05 3.043-15.123 9.3-1.004 7.187 8.52 7.836 14.82 11.245 13.496 7.302 22.304 20.933 26.827 34.645 2.628 8.647 5.629 18.252 2.283 27.123-2.27 5.91-9.243 8.004-15.037 7.06-12.444-1.824-23.812-9.784-30.266-20.517-11.973-23.617-19.852-54.406-34.072-71.83-5.624-5.606-19.556-19.985-25.137-20.688zm-235.601 26.02c-9.838 15.23-13.912 33.996-12.032 51.97 4.472 27.814 22.86 51.974 46.196 67.065 12.032 7.741 25.5 13.623 39.66 15.957 17.448 4.058 35.938 3.293 52.994-16.178 9.118-11.583 13.394-26.659 12.943-41.303-.394-10.129-4.28-21.238-13.605-26.412-23.139-12.528-6.54 19.066-11.33 29.7-7.846 17.416-32.141 34.75-48.262 29.617-6.522-2.228-10.272-9.287-9.59-15.973 1.105-13.537 9.19-25.293 17.944-35.193 12.764-14.473 30.02-26.704 35.939-45.59 2.976-9.497 9.097-19.34 9.305-28.053-.1-3.426-4.24-4.457-6.858-3.004-8.43 3.909-15.193 10.564-21.968 16.772-7.187 6.913-14.13 14.49-17.715 23.967-6.313 14.72-7.813 31.465-16.983 44.92-11.295 15.222-29.038 14.714-34.138-2.475-13.22-36.734 21.83-45.7 31.642-62.06 3.976-9.139-2.565-20.268-11.666-23.184-14.21-4.584-35.727 9.746-42.476 19.457zm277.05 38.21c.904 2.863 1.824 5.719 2.59 8.622-75.358-69.666-31.639-93.403-2.59-8.621zm-230.644-44.544c-2.462 4.675-7.753 6.824-11.725 10.011-15.527 12.39-22.381 38.264-19.467 55.717 5.933 35.525 21.933 30.847 38.024 21.211-8.988 21.587 9.193 44.335 31.73 36.437 14.756-5.17 34.972-19.526 36.828-34.886 1.501-9.058-1.326-18.035-1.564-26.992.417-1.828 3.088 1.172 4.209 1.662 2.7 2.032 5.495 4.164 6.254 7.658 6.144 17.165 1.815 37.497-10.205 51.088-6.028 6.886-14.688 11.144-23.762 12.074-13.112.307-25.458 2.192-46.582-7.562-6.384-8.49-34.412-20.658-46.978-44.82-15.191-23.74-8.106-64.735 12.171-81.958 5.557-7.527 31.146-9.85 31.067.36zm54.01 25.543c-7.86 13.3-18.784 24.587-30.2 34.814 1.795-10.231 5.997-19.872 10.034-29.389 1.64-3.376 3.34-6.662 4.982-10.017 23.124-28.933 27.667-20.191 15.184 4.592zm240.045-4.428c29.27 21.017 25.028 71.57 11.953 93.658-20.402 34.466-77.981 47.285-95.914 28.97-24.316-24.83-43.652-57.911-27.213-77.964-1.209 16.124 16.332 40.385 26.277 52.818 12.344 15.434 40.848 19.256 45.222 1.368 2.464-10.077.487-22.336 1.144-27.527 42.822 24.42 48.133-12.295 45.058-26.944-5.718-27.243-19.808-43.882-38.108-46.129-2.972-.365-5.42-3.43-6.503-6.23 8.088-7.149 34.286 5.183 38.084 7.98zm-168.014 17.209c1.932 1.218 4.029 2.209 6.04 3.252-1.936.3-3.61-2.055-5.444-2.78-.192-.173-.395-.32-.596-.472z" transform="translate(-10.359 -37.699) scale(.15623)"/></svg>