<svg width="400" height="400" viewBox="0 0 105.833 105.833" xmlns="http://www.w3.org/2000/svg"><path style="fill:#000;stroke-width:.193133" d="M122.395 15.477c-12.86.843-25.787 3.674-37.198 9.83-3.363 1.8-6.51 3.97-9.526 6.297-12.655 8.813-23.048 20.704-30.563 34.139-6.18 10.823-11.057 22.359-14.852 34.222-5.645 16.151-7.533 33.326-8.136 50.341-.204 6.274-.331 12.553-.259 18.83.34 11.822 3.281 23.335 5.228 34.947 1.952 10.361 5.715 20.255 9.493 30.06 5.34 9.552 10.704 19.305 18.426 27.18 1.744 1.639 3.677 3.07 5.542 4.569 7.613 5.953 15.906 11.413 25.312 14.015 3.287.933 6.699 1.473 10.122 1.312 8.717-.249 16.994-3.348 25.082-6.327 1.705-.473 3.084-1.618 4.53-2.587 7.53-5.351 13.823-12.396 22.031-16.659 7.74-5.955 15.546-12.16 21.134-20.279 1.42-2.021 2.558-4.216 3.85-6.315 3.464-6.205 4.415-13.374 5.186-20.328.388-3.567.83-7.138 1.437-10.67-.331-11.163.187-22.322 2.19-33.31-.508-7.149-2.63-14.098-2.016-21.293 2.685-7.754 2.679-16.084 2.351-24.185-.129-3.996-.424-8.002-.328-11.995 3.303-15.656 2.532-31.956-.732-47.55-1.21-5.6-4.696-10.314-8.212-14.695-10.75-17.816-31.474-29.342-50.092-29.55zm23.38 10.55c14.985 7.44 27.335 19.81 32.058 34.297 1.825 6.117 2.509 12.478 2.835 18.877.022 1.751.198 3.572.354 5.346.61 10.23-3.063 20.23-2.345 30.505.09 2.211.67 4.432.877 6.5.947 9.472-3.026 18.544-2.94 27.975.046 1.695.09 3.433.521 5.073 2.133 4.686 2.007 10.01 1.198 14.99-.752 5.025-2.133 10.055-2.202 15.19 1.69 5.414.905 11.173-.119 16.633-.937 5.156-2.054 10.386-1.541 15.655-3.56 12.213-11.2 23.074-21 31.067-6.503 6.62-15.726 9.657-22.225 16.277-1.592 1.707-3.047 3.566-4.935 4.971-4.968 3.91-11.1 5.878-17.127 7.425-2.972.734-5.946 1.485-8.94 2.115-7.118 1.022-14.547-.346-20.972-3.658-5.258-2.827-10.424-5.81-15.231-9.41-1.929-1.437-3.674-2.993-5.555-4.49-3.902-3.356-6.579-7.81-9.601-11.905-3.488-3.686-4.715-8.858-8.051-12.655-.51-.525-.97-1.071-1.118-1.811-1.8-4.988-3.628-10.008-6.306-14.605-1.35-8.217-4.215-16.127-5.166-24.419-1.814-8.109-2.367-14.717-2.787-22.123-1.512-5.548-.375-11.372-1.387-16.988 1.53-6.59.97-13.405 1.374-20.106 1.202-8.432 1.94-16.948 4.111-25.213C32.848 96.792 39.911 81.95 45.5 69.896c5.08-8.221 11.342-18.07 17.433-23.918 13.918-15.427 31.336-23.587 50.37-27.28 10.812-1.864 23.558 3.078 32.472 7.33zm-24.773 10.559c-4.68.13-9.365.825-13.84 2.21-10.56 4.12-20.398 10.605-27.446 19.579-9.158 9.458-16.24 20.764-21.627 32.738-13.625 29.74-16.51 63.853-10.073 95.785 1.448 7.28 3.471 14.43 5.73 21.496 4.523 13.63 11.357 26.583 20.63 37.59 4.845 5.694 10.767 10.81 17.959 13.208 1.886.616 3.88 1.115 5.803 1.267 14.798 2.167 19.04-13.424 27.196-18.022 3.29-1.454 6.99-.977 10.458-1.598 2.592-.367 5.235-1.587 6.591-3.929.688-1.195 1.426-2.605.925-4.008-2.224-5.204-10.95-10.728-13.831-4.134-8.524 18.258-25.49 34.083-38.37 26.677-7.195-4.137-9.765-11.374-8.838-18.84 4.765-22.173 33.515-17.704 45.231-20.936 13.376-12.518-36.66-2.743-44.7-4.288-7.936-1.525-14.969-14.143-14.917-19.315 2.245-11.263 31.146-16.211 37.459-11.834 4.855 4.93 27.831 11.956 23.219 2.828-9.57-18.939-88.831 2.966-64.278-38.365 14.708-15.684 44.533 14.933 55.07 16.88 8.388-.424 1.726-8.945-6.266-12.24-19.526-8.053-71.128-29.218-31.502-40.895 22.174-6.535 24.88 13.621 36.359 22.21 2.638 2.083 6.538 5.248 9.345 2.459 4.51-4.142-2.968-11.124-4.016-12.054-8.197-6.573-18.08-15.104-27.023-18.994-9.59-3.08-14.628-19.274-11.29-27.628 2.27-5.683 13.027-2.12 14.798-1.42 9.212 3.65 14.889 11.276 16.777 13.378 8.35 9.295 19.299 6.674 15.92 4.236-18.706-13.5-31.274-30.948-19.852-38.912 14.893-10.385 22.958 5.052 28.33 10.728 4.184 4.419 7.609 16.625 5.642 20.284-3.042 5.66-3.692 14.583 3.834 14.844 3.125.03 5.785-2.059 7.739-4.313 3.004-3.59 5.068-8.047 5.592-12.716.18-1.364-.024-2.728-.144-4.081-.136-8.525-3.791-16.675-9.045-23.268-1.973-2.542-4.282-4.792-6.615-6.997-5.525-5.483-13.112-8.536-20.784-9.34-2.04-.235-4.097-.305-6.15-.27zm.559 2.045c5.873-.016 11.782 1.215 17.025 3.904 10.031 5.057 17.848 14.302 21.215 25.016.78 2.462 1.28 5.125 1.574 7.758.552 4.036-.394 8.148-1.924 11.875-.911 2.133-2.083 4.168-3.663 5.775-1.524 1.632-3.986 2.868-6.308 2.185-1.122-.283-2.14-.882-3.042-1.595-.302-3.07 1.21-5.8 2.278-8.592 1.24-2.944 2.02-6.32.922-9.433-.356-1.127-1.032-2.119-1.242-3.295-2.67-8.687-7.931-16.74-15.4-22.024-4.799-3.369-10.66-5.395-16.555-5.143-3.495.57-6.766 2.654-8.49 5.787-2.34 4.173-2.485 9.183-1.884 13.822a36.967 36.967 0 0 0 1.238 5.716c-2.76-.147-5.431-.96-8.155-1.375-3.962-.653-8.205-1.13-12.037.374-2.398.924-4.273 2.908-5.273 5.252-2.384 4.19-2.423 9.32-1.16 13.872 1.439 5.31 4.215 10.146 7.33 14.638-5.611-.533-11.47.456-16.38 3.294-3.64 2.08-6.568 5.595-7.392 9.765-.565 3.264-.676 6.682.156 9.913 1.105 4.322 4.322 7.677 7.698 10.405-2.002 1.957-4.524 3.262-6.76 4.92-3.251 2.32-6.546 5.125-7.771 9.07-.386 1.158-.33 2.395-.729 3.546-.959 3.87.03 8.037 2.256 11.296 4.574 5.867 9.707 9.119 15.607 11.97-.159 1.55-1.36 2.72-2.279 3.89-2.894 3.413-6.329 6.627-7.82 10.963-.958 2.69-.263 5.604.707 8.183 2.223 5.666 7.11 9.866 12.457 12.521 4.822 3.575 10.792 2.25 14.947 3.465.42.163-.17.64-.274.838-2.149 2.25-4.782 3.977-6.929 6.235-5.875 7.093-7.027 19.784-2.887 26.63.858 1.32 1.902 2.522 3.125 3.516-4.113-2.562-7.38-6.235-10.491-9.846-6.04-7.14-11.045-15.257-14.98-23.742-4.581-9.88-7.83-20.427-9.904-31.11-1.03-5.295-1.986-10.567-2.566-15.937-2.24-19.935-.747-40.36 4.621-59.737 3.053-11.712 7.902-22.882 13.592-33.537C72.998 69.019 80.81 58.81 90.51 50.513c8.675-7.231 19.667-11.835 31.05-11.882z" transform="translate(13.538 -4.256) scale(.38783)"/></svg>