<svg width="400" height="400" viewBox="0 0 105.833 105.833" xmlns="http://www.w3.org/2000/svg"><path style="fill:#000;stroke-width:.627281" d="M396.34 75.232a16.964 16.964 0 0 0-4.922.133c-6.043 1.059-12.037 5.518-18.02 14.38-23.445 43.936-54.415 88.06-70.888 130.048-5.476 14.095-10.873 28.94-21.672 39.936-7.26 7.52-17.97 11.105-28.31 10.189-28.943-67.443-65.98-134.678-133.303-165.738-10.116-4.265-29.272-10.33-32.03.613-5.652 22.43 27.725 62.492 34.239 86.932 2.337 8.572 2.752 17.633 5.488 26.062 6.098 18.79 8.283 38.285 7.558 57.772-.849 22.849-2.826 45.75-2.12 68.74 2.824 92.1-24.063 182.097-24.747 274.2 1.454 38.513-2.575 77.548 5.315 115.58 3.6 17.017 9.617 33.735 19.111 48.374 13.687 20.623 35.559 34.332 58.418 42.805 20.836 7.763 42.767 12.177 64.729 15.265 25.425 1.737 51.696 14.628 63.601 37.42 12.568 24.06 14.94 57.228 12.863 82.297-2.69 32.485-8.347 69.923 32.942 66.965 23.49-1.682 111.674 30.57 103.976-25.581-7.817-57.024-13.064-102.175 18.082-135.698 11.104-11.951 26.968-17.844 42.461-21.832 27.568-7.063 56.975-7.415 84.26-16.465 12.667-4.096 24.566-10.52 34.83-18.998 19.92-14.32 33.737-35.884 41.176-59.053 10.315-31.64 11.065-65.39 9.781-98.357-.432-51.05-16.106-100.431-21.172-150.86-5.956-53.698-9.035-108.062-4.953-162 .555-9.745 2.237-19.265 2.174-29.03.862-26.51 6.291-52.837 13.672-78.233 9.214-44.1 28.464-77.538 48.84-114.87 5.879-16.167-7.166-19.939-18.701-15.576-59.798 22.618-94.71 67.563-125.965 116.325-10.332 17.4-17.92 36.856-29.977 52.949-7.354 9.865-17.382 18.412-29.601 21.267-12.023-42.782-30.825-83.854-57.674-119.675-29.15-38.891-54.793-93.403-79.461-96.286zm-.535 8.358c18.298 1.19 77.638 99.21 94.924 126.7 30.33 56.627 23.511 128.434 82.584 63.462 34.804-38.28 46.57-87.712 84.042-123.254 16.527-15.549 35.028-29.207 55.416-39.244 33.32-13.726.24 25.85-8.798 38.383-38.832 53.845-52 121.44-65.973 181.295-8.496 36.39-10.746 80-6.24 116.433 40.153 324.647-148.843 372.233-83.04 356.336 83.166-20.09 100.547-77.587 105.667-323.34 2.283-109.574 1.754-206.031 34.799-291.265-16.063 50.275-24.81 150.94-29.547 211.636-4.399 81.708 24.798 157.687 29.609 231.053.272 11.68 1.79 23.21 1.928 34.844.58 22.33-.716 44.351-5.875 65.998-4.172 17.168-10.718 33.51-21.112 47.93-7.785 10.972-17.874 20.142-29.056 27.556-8.956 6.825-19.012 11.529-29.567 14.805-32.099 9.962-66.963 7.626-98.3 20.484-35.61 16.1-47.569 45.206-55.551 80.442-8.97 39.59 25.493 89.642-26.207 95.635-19.348 2.242-39.077-1.195-58.326.736-24.669 2.475-24.127-13.306-24.553-34.756-.612-30.798.9-62.282-7.904-92.191-3.909-13.277-8.961-27.37-19.496-36.409-18.64-15.99-44.203-20.397-67.932-24.89-25.365-4.937-51.753-9.032-74.213-22.656-17.02-10.111-30.614-25.423-39.375-42.981-12.345-24.566-16.702-52.335-17.871-79.357-.595-11.71-.116-23.439.008-35.145-4.868-92.624 21.138-183.067 24.422-275.377.713-63.537 5.124-122.57-4.717-187.726 46.872 88.773 12.964 238.412 8.404 322.242-.944 21.097-1.837 42.23-1.338 63.35 5.168 60.706-6.099 154.61 51.018 190.144 43.368 26.98 112.977 59.641 26.598-4.121-.425-.314-.752-.74-1.125-1.112-145.428-144.54-10.443-373.113-54.29-534.293-12.893-47.394-52.17-77.367-64.582-108.982-1.07-3.065-2.218-8.122 1.96-9.398 36.525 13.838 66.64 40.502 90.55 70.953 17.029 20.116 29.632 44.252 37.87 66.937 5.069 13.76 9.853 28.334 20.177 39.18-2.74 4.322-2.422 9.818-2.229 14.752-.52.234-2.267-2.676-3.226-3.568-4.741-8.44-12.63-12.361-4.592.689 3.762 4.695 7.027 10.208 7.84 16.252-.077 2.194-3.002-.783-4.024-1.357-4.183-3.191-7.267-7.422-10.261-11.68-8.43-7.892-10.245-4.114-7.09 2.146 5.682 11.276 11.63 10.24 16.738 15.172 3.706 3.194 7.792 6.217 10.38 10.446-7.201-1.117-13.486-5.548-18.917-10.19-8.384-9.865-10.195-17.784-22.082-23.162-2.307-.88-4.055 2.05-2.504 3.87 3.79 2.113 14.55 25.49 5.322 22.284-8.095-2.304-14.527-9.078-17.746-16.705-4.53-14.69-5.614-1.734-4.14 4.385 2.187 10.707 11.316 18.299 20.95 22.4 7.692 3.318 15.842 5.627 24.028 7.266 1.88-.029 6.701 1.233 3.143-1.186-4.812-4.86-11.746-7.345-15.832-13 6.824.08 13.177 3.498 18.824 7.061 1.674 1.32 4.124 2.677 5.012 4.396-3.733 4.48-5.94 2.855-8.182 3.963-4.98 1.028-9.959 1.12-15.289.48-7.135.83-16.668-9.56-17.477-9.61-5.885-1.21-12.201-2.024-18.064-.348-2.742.76-2.677 4.536-.162 5.566 3.125 1.768 6.695 2.516 10.135 3.434-3.02 1.418-7.588 4-6.127 8.008 12.1 12.808 12.934 5.977 19.273 8.73 3.895 1.21 7.808 2.459 11.451 4.315-4.975 4.022-12.062 3.355-17.299.224-2.203-1.043-5.405-3.58-7.498-1.008-1.29 3.24.801 6.576 1.485 9.723 3.123.487 6.268.848 9.375 1.432-6.978 10.856-6.147 14.24 2.937 14.506 4.253.124 8.536.442 12.092 2.505 7.99 5.04 12.718 14.846 22.426 17.19 4.654 1.208 9.532.493 14.092-.77.889-.813 2.424-4.728 3.617-2.994-2.697 18.468 11.097 14.415 39.912 14.563 6.708-1.39 13.422-.258 19.771 1.525 13.869 3.89 25.42 14.29 31.883 26.803 11.53 21.81 11.788 49.53-.181 71.074-20.756 37.358-44.843 62.696-61.047 99.908-16.97 38.97-22.727 89.133-11.149 123.514 6.992 20.76 20.707 39.546 38.383 52.922 25.588 15.681 71.038 20.198 98.817 16.904 63.718-14.114 110.576-72.85 103.96-125.68-10.607-84.705-58.691-134.282-64.742-149.576-7.369-18.627-21.71-37.363-20.875-55.8 2.584-21.624 18.237-41.198 39.065-47.86 9.022-3.064 18.784-3.382 28.123-1.9 20.94-2.44 43.762-12.214 63.017-12.776 3.85-1.157 7.773-2.778 11.164-5.037 2.121-1.53.563-4.699-1.888-4.441-2.015-.132-4.031.133-6.04.277 1.331-.96 5.927-1.944 4.985-2.885-1.662-.944-4.288-1.416-5.383-2.718 15.963-8.41 23.816-9.631 17.543-16.463-3.034-3.607-8.423 2.229-12.465 3.996-3.875 1.039-7.752 2.222-11.76 2.613 7.67-9.014 17.985-16.694 21.57-28.465-.022-1.454 1.94-4.925-.273-4.492-2.341.368-6.026.691-6.369-2.55-.438-6.418 8.202-25.621.594-23.304-2.286.385-3.716 2.397-4.795 4.272-2.813.749-1.748-.137-.59-2.207 3.594-5.5 6.696-11.305 8.832-17.535.795-2.85 2.705-6.881-.02-9.188-3.264-1.586-5.896 2.218-7.653 4.48-3.342 4.558-5.49 9.882-7.266 15.175-2.22 2.95-4.403 6.067-7.424 8.257.795-6.991 4.383-13.011 8.238-18.714 6.207-12.293-1.933-13.316-8.726-5.137-4.51 6.493-5.208 14.69-8.069 21.92-2.114 6.21-5.612 12.621-10.341 17.498-1.001 1.225-3.469 2.607-3.715.027-1.265-7.813 2.167-15.618 6.353-22.047 3.385-4.691 7.528-9.052 9.735-14.459.955-2.488-2.108-4.213-4.12-2.845-2.195.799-4.875 3.004-6.466 3.125 3.361-10.753-3.68-2.73-5.408 1.062-5.18 9.084-7.043 19.473-8.682 29.664-1.456 8.616-5.067 16.4-10.484 23.125-.242-6.07.912-11.75 1.115-17.785-.528-1.641-2.32-2.624-3.62-.957-2.039 12.104-3.253 26.346-10.24 33.867-3.775 3.913-9.029 5.909-12.67 9.94-1.711 1.534-3.43 3.128-5.488 4.189 2.208-3.616-.233-14.519-2.9-9.516-2.642 3.53-5.762 6.934-8.4 10.313.894-7.323 6.202-20.506 2.501-26.082-2.331-1.954-4.22 1.328-4.597 3.428-3.29 10.679-5.384 21.79-9.975 32.058-1.386 3.272-.777.468-.26-1.728.836-5.725 2.481-11.78.836-17.487-2.735-3.276-4.787-1.918-7.035 1.922-3.763 7.5-4.391 16.3-7.588 23.834.4-7.632 1.925-15.277 1.291-22.922.008-2.693-3.713-3.704-4.959-1.254-2.293 2.14-1.038 5.211-1.693 7.932-2.352 15.435-4.766 31.026-10.25 45.623-3.609 9.606-3.607 14.082-6.254 8.137-4.157-9.336 6.317-19.54 7.81-29.676.64-2.481-2.455-4.58-4.26-2.533-1.879 1.737-2.945 4.023-3.089 6.566-1.367 6.557-3.298 13.438-5.4 19.994.874-11.148.97-23.156 7.591-32.724 3.01-3.715 3.39-8.72 4.832-13.155.607-2.206 1.409-6.06-1.814-6.45-3.556 1.378-4.888 5.48-7.168 8.27-2.265 3.531-.493.446.56-1.472 4.336-8.073 7.533-16.675 10.836-25.201 5.627-1.237 12.044-3.345 14.55-9.07 1.704-3.078 1.435-8.746-2.87-9.237-2.114-.096-3.884 1.425-5.094 3.012 1.248-3.274 1.516-7.068 1.07-10.564-.244-2.844-3.817-3.859-5.69-1.83-1.809 1.605-3.183 3.635-4.475 5.662 4.035-10.493 9.36-21.663 6.644-33.174-2.964-8.564-3.638-14.69-5.418-4.069-.386-4.657.201-9.512-1.115-14.033-.894-1.681-3.3-1.172-3.824.496-.836 2.207-.905 4.622-1.328 6.93-.139-4.44.736-9.119-.614-13.398-1.286-4.288-3.053-7.994-5.984-8.366-2.232.262-2.256-1.032-2.322-3.12-.793-4.325-.308-8.995-2.033-13.079-1.203-1.556-3.275-.935-3.84.861-1.886 6.374-1.657 13.215-3.162 19.631-1.069 2.622-2.263 5.935-3.836 7.897-.614-6.337.511-12.74 2.125-18.854 7.15-11.606.256-15.266-3.137-3.402-2.774-2.875-4.204-8.041-8.762-8.46-4.07.826-4.88 5.64-5.84 9.028-2.39-1.108-5.021.432-5.41 3.028-.774 2.433-1.13 5.423-1.67 7.609-.563-3.026-3.98-19.732-4.968-12.338-1.587 3.92-.261 8.24-.512 12.358l.137 8.375c-3.815.32-4.96 4.605-4.342 7.818.854 7.535 3.61 14.721 4.14 22.318.617 3.384-.797-.058-1.37-1.49-3.818-8.93-5.595-18.524-6.622-28.13-.608-3.3-.587-6.883-2.23-9.878-1.788-1.916-4.158.247-4.342 2.352-1.084 4.137-1.849 8.377-3.424 12.369-1.462-2.695-2.762-6.895-6.334-7.088-3.525.615-3.131 5.239-3.062 7.973.627 7.47 2.64 14.831 5.84 21.607-1.904 1.54-3.734 4-2.106 6.43 4.073 7.216 8.732 14.166 11.346 22.097 1.237 3.392 2.552 6.801 3.093 10.39-6.104-5.758-10.538-13.074-14.62-20.335-2.6-5.143-5.534-10.168-7.188-15.744-.204-1.203-2.094-4.647.271-2.941 2.144 1.392 6.107 1.071 5.97-2.194-.668-4.752-3.865-8.77-4.91-13.39.493-15.476-8.304-12.033-4.476-.54.976 2.678-2.358 4.37-3.103 6.731-1.7 3.392-1.386 7.347-.778 10.973-.778 1.003-1.065-2.38-1.87-2.854-5.086-5.192-3.14-5.037-4.43-9.396-3.944-14.157-6.335-1.235-3.383 3.716 3.46 11.406 7.833 12.571 7.61 21.834.268 4.052 3.824 6.67 4.618 10.53.828 2.608 2.412 5.832 2.475 8.162-16.97-8.634-5.054.41-2.191 4.6 4.51 5.732 8.929 11.97 10.691 19.146-.175 1.63-3.183-1.116-4.283-1.684-2.45-1.747-5.038-3.509-5.84-6.59-1.577-2.998-2.879-6.193-4.975-8.88-2.445-.462-3.97.227-2.873 2.857 3.592 7.834 7.926 15 10.18 22.781.054 1.268.382 3.535-1.303 1.768-8.656-16.958-14.452-41.812-24.45-60.057-3.848-8.987-12.86-7.595-17.167-17.248-7.023-15.739-16.897-26.858-18.807-29.058-1.979-1.079-4.358-.109-5.648 1.58-.935-3.816-.59-7.79 1.26-11.276 21.77-59.44 55.634-103.495 81.463-154.927 6.344-12.553 12.874-25.861 24.367-34.532.83-.83 1.868-1.183 3.088-1.103zm8.715 191.185.14.352.088.225c2.288 8.73.731 18.561-3.402 26.316-.868-4.431-.967-9.188.398-13.447.576-4.534 1.024-9.183 2.776-13.446zm-131.59 2.09c4.853 1.288 5.679 7.341 5.521 11.627-.352 1.302-2.558-1.767-3.54-2.478-1.974-2.283-4.953-5.33-3.716-8.565.41-.513 1.111-.665 1.735-.584zm-12.616 4.576c5.48 2.2 8.574 7.835 11.26 12.78 2.285 4.33 3.398 9.169 4.244 13.91 9.597 20.989 18.937 42.339 32.332 61.244 4.202 3.62 7.913 7.993 12.786 10.727 2.363.942 4.107-1.819 3.035-3.87-2.746-7.66-7.131-15.301-6.328-23.716 7.352 17.34 13.071 36.317 26.789 49.925 2.085 2.362 5.058 4.131 7.039 6.352.181 2.565.936 5-.026 7.412-.223 1.771 1.053 3.447.856 5.102-4.566-3.53-9.1-7.447-13.797-10.6 2.798-3.758 2.562-11.13-.889-15.822-1.378-2.015-4.073-5.382-6.67-3.43-2.055 2.396.627 5.487 1.817 7.705 2.358 2.893-1.372-.428-2.637-.89-4.09-2.061-8.613-4.627-13.338-3.87-2.478 1.894-2.498-1.167-3.404-2.857-3.875-7.447-12.936-9.568-20.647-10.15-8.217-.854-16.6.401-24.728-1.202-3.435-.904-.704-1.26 1.342-1.277 3.317-.584 7.992-.42 9.664-3.922-.41-2.742.347-1.938 2.33-.693 3.95 2.109 7.898 4.685 11.97 6.283 2.445.242 4.581-2.552 2.782-4.6-2.947-3.28-7.254-4.956-11.03-6.998.952-2.218-2.057-3.834-3.302-5.382-5.12-5.078-10.872-9.585-16.043-14.526-1.23-2.746-2.432-5.506-3.479-8.328 10.17 10.281 18.993 22.204 31.156 30.293 3.047 2.14 6.713 2.943 10.352 3.324-9.135-24.02-20.329-47.189-31.607-70.258-1.865-3.714-3.773-7.408-5.641-11.12-2.315-.442-4.221 1.557-3.67 3.855.95 6.91 3.63 13.45 5.973 19.982-6.181-8.302-13.006-16.865-15.157-27.21-.53-2.55 4.214-8.78 6.666-8.173zm25.942 6.555c3.424 9.123 15.632 22.135 12.676 28.111-5.996-3.203-11.602-24.569-12.676-28.11zm107.21 13.46.055.065c3.76 6.2 3.421 14.093 1.801 20.928-.313 2.709-2.006-.095-1.832-1.32-.25-6.509-1.898-13.27-.023-19.674zm-110.445.241.24.293.108.13c8.796 11.367 12.42 25.554 16.748 38.997-7.154-12.571-14.058-25.304-17.096-39.42zm123.551 4.498c.126-.08.223.123.266.803 1.528 7.036 1.178 14.35 2.539 21.385 1.686 2.131.633.573-1.246 1.248-3.296 2.135-3.824 6.603-4.975 10.082a83.687 83.687 0 0 0-1.625 7.693c-1.547-6.315-.118-12.932.518-19.3 1.027-6.251 1.036-12.674 3.287-18.66.22-.203.859-3.008 1.236-3.25zm10.948 3.748.136.352.07.18c1.488 5.465 1 11.81-.132 16.933-.933 1.791-.83 4.054-2.055 5.846-.696 1.338-3.012 5.632-2.715 1.877-.3-1.751-.492-3.731-1.83-5.043 3.174-.41 2.75-4.149 3.164-6.543.58-4.624 1.37-9.356 3.362-13.602zm-46.743.909c4.984 6.35 7.675 14.355 8.756 22.293.159 2.215.353 4.774-.517 6.748-2.915-1.855-3.26-5.95-4.422-8.989-1.013-4.1-3.113-7.804-3.39-12.08-.322-2.59-.951-5.518-.427-7.972zm-67.433 3.646.172.338.101.201c3.75 8.649 6.51 18.204 6.613 27.438-.299 1.534.461 5.45-.59 1.879-3.377-9.628-5.479-19.851-6.296-29.856zm-43.936 1.537c1.248-.075 2.965 3.003 4.322 3.682l.278.258.086.082c10.254 13.242 14.766 23.672 25.793 38.355a123.607 123.607 0 0 1-26.68-29.152c-2.17-3.915-5.292-8.29-4.303-12.983a.768.768 0 0 1 .504-.242zm58.405 10.643.31.857c1.26 4.709 1.21 9.257 1.203 14.121-3.347-4.112-3.515-10.227-1.513-14.978zm110.949.724.066.2c.869 7.482-2.523 14.894-6.953 20.75-.707-4.444 1.585-8.594 2.74-12.791 1.088-2.842 2.12-5.833 4.147-8.159zm8.084 7.22.025.376.02.258c-.16 6.128-1.312 12.73-5.205 17.65-1.402 1.665-2.278 3.528-2.655.145.526-5.961 4.31-12.844 7.815-18.43zm-44.145.036.43 1.934c1.986 11.745 2.84 23.758 2.05 35.654-.876-5.115-.968-10.523-2.886-15.37-.942-1.993-4.008-1.048-4.082 1.095-1.025 8.298-.452 17.04-.797 25.164-3.2-6.692-3.847-14.18-4.422-21.645-.026-5.027-.641-10.53 1.729-15.125 2.331 1.552 3.64 4.26 5.535 6.29.72-6.01 1.09-12.085 2.443-17.997zm-41.502.26c1.693.346 6.127 7.375 7.41 10.072.526 1.567 1.779 4.56-.68 2.346-2.802-1.994-6.34-3.944-6.784-7.713-.917-3.638-.715-4.862.054-4.705zm231.946.426c.363.083.157.746-1.223 2.318-3.507 4.936-5.178 11.184-9.815 15.324-1.96 2.084-3.938 4.194-6.263 5.877.91-4.158 2.76-8.033 4.474-11.906 3.673-2.047 6.341-5.547 9.051-8.71.978-1.566 3.169-3.041 3.776-2.903zM249.05 337.13c.733-.166 2.734.953 6.512 4.008 3.028 2.147 8.275 14.431 10.818 17.14-6.412-3.59-19.95-20.556-17.33-21.148zm166.762 4.004c.58.035.957.276.94.847.131 4.407-1.653 26.055-2.491 30.383-1.456-.103-4.436-15.947-5.116-16.902-.92-2.78.75-9.506 1.2-12.281.169-.387 3.726-2.152 5.467-2.047zm147.779.638c.131 5.882-3.303 11.21-6.502 15.909-1.82 2.468-3.891 4.763-6.246 6.732 2.111-4.116 5.365-9.155 3.035-13.826 1.945-2.957 4.975-5.934 8.016-8.135.494-.215 1.202-.84 1.697-.68zm-347.354.858c2.328-.25 4.846.608 1.77 2.344-3.103 2.467-7.346.715-10.928.554-1.76-.179-4.662-.747-1.502-1.351 3.456-.99 7.063-1.541 10.66-1.547zm107.86 4.056c7.198 11.42 21.413 32.473 19.593 43.196-6.593-5.079-20.68-38.278-19.593-43.196zm-86.387.1c5.727.2 12.301 1.432 15.916 6.326-5.158-.416-10.28-1.439-15.461-1.377-4.003-.582-8.191-.965-11.838-2.845 3.41-1.879 7.573-2.054 11.383-2.104zm306.408 8.74.037.287c-.705 6.726-5.003 12.761-10.15 16.944-2.322 1.734-5.079 3.033-8.01 3.172 2.682-3.179 5.344-6.416 7.438-9.973 3.176-3.798 6.22-8.082 10.685-10.43zm-140.588 1.432.473.789c2.582 11.662 9.6 42.528.28 35.33-2.764-5.289-3.818-11.483-3.61-17.414.967-6.175.499-12.768 2.857-18.705zm-159.353 2.75c.189-.022.526-.004 1.07.055 8.128.657 15.883 3.741 24.006 4.297 1.828.048 2.866-2.066 4.26-.055.472 8.045-16.762-.525-24.287-.33-1.779.483-2.891-1.85-4.245-2.733-.593-.743-1.371-1.168-.804-1.234zm119.705.644c7.396 6.704 12.703 15.393 17.555 24.03 2.455 4.71 4.726 9.603 5.816 14.83-7.117-8.491-12.859-18.7-19.518-27.815-1.46-3.533-3.324-7.52-3.853-11.045zm59.705 3.086-.125.997c-1.8 9.361-4.99 18.6-10.166 26.65.652-6.675 2.072-12.235 5.191-17.527 1.556-3.441 3.13-6.891 5.1-10.12zm-191.5 3.471a15.737 15.737 0 0 1 2.478.035v.002c2.204.005 3.655 2.49 2.026 4.203-4.332 5.325-11.786 6.373-18.23 6.967-1.642-.486-3.658 1.815-4.76.197-.972-2.049.4-4.694 2.777-4.65 4.693-3.065 9.985-6.394 15.709-6.754zm334.48.203c.298-.047.591.013.885.047.327 1.392-2.108 2.98-3.285 4.024-4.615 3.158-9.718 5.89-15.178 7.16 4.765-5.043 10.452-10.245 17.578-11.23zm-136.234 5.797.107.363.041.14c1.007 6.307-7.896 38.716-11.873 43.608-1.36-6.682 8.653-38.963 11.725-44.11zm-172.762 2.027a16.412 16.412 0 0 1 2.862.07c-4.212 3.521-9.31 5.769-14.182 8.216-3.47-.436-7.583-.492-10.52-2.088 5.655-3.625 12.66-4.904 18.985-5.922.945-.115 1.9-.224 2.855-.276zm49.912.291c-3.123-.338-4.45 3.565-2.562 5.72 3.655 5.138 9.327 8.435 14.683 11.525l7.803 2.148c-4.31-7.557-9.341-15.882-17.916-19.06-.652-.19-1.328-.328-2.008-.332zm60.614 7.19.162.031c2.984 1.495 4.16 5.065 5.478 7.875-4.016-.647-8.475 2.057-8.558 6.385-.399 5.966 2.291 11.583 4.564 16.943-2.65-2.892-16.813-26.001-11.2-24.242 2.425.483 4.618 1.678 6.911 2.553.305-3.156-.502-7.506 2.48-9.537zm170.144 1.64c-5.107 4.235-11.436 7.392-18.084 8.12-2.805-.038-5.64.022-8.408-.51 6.554-3.63 14.122-4.626 21.213-6.78 1.737-.394 3.496-.755 5.28-.83zm-276.525 4.296c1.976.604 3.79 1.313 5.926.777 2.835-.204 5.679-.303 8.521-.319-8.082 3.04-16.401 5.542-24.7 7.854-1.812.095-4.38.593-5.706-.457 3.06-4.442 8.483-6.934 13.69-7.826.75-.11 1.514-.079 2.269-.03zm133.205 1.884c.035.024.074.082.119.184 3.891 7.616 5.347 16.13 6.482 24.36.59 5.753 1.043 12.394-.613 17.99-2.485-8.974-3.231-18.422-6.514-27.159-.638-4.501-.384-9.292.14-13.863.096-.149.138-1.676.386-1.512zm-95.207.063c4.426.234 8.657 2.128 11.885 5.18 1.515 1.133-2.988 1.473-4.084 1.923-5.303.397-10.687-1.115-15.928-.422-4.248 1.113-8.663 2.63-13.092 1.957 3.599-4.816 9.76-7.002 15.46-8.238a30.388 30.388 0 0 1 3.85-.398 17.63 17.63 0 0 1 1.909-.002zm255.55 3.545c-6.732 5.312-15.547 6.577-23.816 7.511-3.084.503-6.198.904-9.328.897 6.065-3.476 13.044-4.926 19.883-5.82 4.427-1.236 8.61-2.558 13.262-2.588zm-46.218 2.746c2.677-.194-1.793 1.97-2.74 2.543-9.898 4.832-21.161 5.685-31.252 10.013 1.514-1.436 2.597-3.836 3.527-5.277 2.988 1.948 6.504-.61 9.482-1.445 6.767-2.606 13.652-5.462 20.983-5.834zm-97.328 2.193c.63.278 1.702 12.813 1.379 16.307-.557 5.404-1.4 10.797-2.813 16.049.238-5.187-.556-27.201 1.315-32.243.037-.096.077-.131.119-.113zm-38.645 1.506c5.02 1.447 7.744 6.541 10.389 10.676 4.624 8.14 8.288 17.09 10.877 26.277-7.427-5.883-11.931-14.552-16.46-22.687-2.448-4.528-4.708-9.153-7.036-13.743.658-.41 1.455-.624 2.23-.523zm198.035 1.451c-5.107 4.234-11.438 7.392-18.086 8.12-2.805-.038-5.64.022-8.408-.51 6.554-3.63 14.124-4.627 21.215-6.78 1.737-.395 3.496-.756 5.28-.83zm-277.89 4.955c.396-.005.137.167-1.49.682l-.018.006c-14.277 10.74-21.463-1.28-8.188-.266 2.113 1.8 4.813.049 7.254-.047.994-.187 2.045-.37 2.442-.375zm241.677.293c2.137.003 4.011.101 5.364.363-1.775.643-13.095 1.413-14.322 2.868-3.208-1.333-21.145.381-24.487-.725-1.136-.303 11.75-2.022 14.14-1.834 4.127.165 12.896-.68 19.305-.672zm-63.501 5.246c-5.554 6.381-12.293 20.877-22.833 21.797 10.827-12.55 7.117-19.315 22.833-21.797zm29.652 1.639c.744.018 1.333.1 1.713.264-5.038.344-29.672 10.239-34.655 9.57 1.74-.517 10.159-6.937 11.97-6.975 2.88.01 15.76-2.986 20.972-2.859zm-144.664 4.588c.048-.036.14.02.303.23 1.788 1.46 13.005 13.198 13.148 14.196 3.498 19.348-10.918-7.249-13.473-13.243.117-.135-.124-1.076.022-1.183zm15.767 4.926c.742-.49 6.129 5.46 9.59 9.67 27.241 37.496-1.461 6.336-8.54-6.729-1.03-1.898-1.297-2.778-1.05-2.941zm9.805 42.297c3.135 6.304-4.098 16.922 1.734 21.113 29.322 9.31 51.954 22.08 62.112 49.642 28.104 93.717 68.656 176.798 2.146 227.604-40.257 30.752-126.14 25.575-145.703-30.553-12.472-35.783-6.735-71.673-4.756-87.285 9.184-72.453 65.98-98.366 76.82-156.512 4.62-24.77-15.806-71.175 7.647-24.01z" transform="translate(9.178 -6.607) scale(.10722)"/></svg>