<svg width="400" height="400" viewBox="0 0 105.833 105.833" xmlns="http://www.w3.org/2000/svg"><path style="fill:#000;stroke:#000;stroke-width:.999999px;stroke-linecap:butt;stroke-linejoin:miter;stroke-opacity:1" d="m426.53 247.326-85.9 140.697s-105.15 5.925-156.985 105.153c-51.836 99.227-8.887 186.605-8.887 186.605l-94.783 131.81 175.463-15.421s34.363 51.405 163.685 65.775c92.217 10.248 179.172-70.29 179.172-70.29l152.574 15.491-87.275-156.208s55.243-83.69 12.123-171.86c-45.083-92.183-159.645-82.305-159.645-82.305-35.404-38.881-56.65-95.493-89.543-149.447zm-1.876 30.053 84.81 132.86c52.179 3.813 102.058-5.136 139.279 46.69 70.847 98.646-1.544 197.675-1.544 197.675l77.012 139.214-124.404-20.734s-14.957 7.953-62.202 42.95c-95.818 70.977-191.702 29.155-276.949-34.063l-154.023 14.81 85.898-115.52c-34.672-98.76-26.885-184.115 42.201-234.66 61.693-45.134 125.153-48.21 125.153-48.21zm5.002 80.023-.35.145-.13.055c-7.475 4.715-12.724 12.134-18.07 19.015-10.535 14.15-19.193 30.267-25.635 46.666-10.368 26.245-17.239 54.237-19.166 82.274-1.527 20.814 1.403 41.395 5.01 61.812.778 6.484 2.882 13.206 1.124 19.69-22.19 10.037-48.239 17.594-68.626 29.554-21.852 12.884-41.376 29.588-57.64 49.047-22.01 25.94-40.652 54.635-57.275 84.2-1.436 2.032 3.173 1.183 4.514 1.853 26.54 4.07 58.637-.245 85.376-1.777 60.184-6.86 89.83-32.551 135.956-66.086 43.114 23.66 92.965 53.596 140.18 58.984 37.992 4.155 60.038 3.183 92.973-1.252-16.024-32.288-31.493-59.515-55.932-86.184-16.479-17.777-34.71-34.072-55.217-46.91-18.558-11.875-35.906-12.538-53.957-22.683 15.61-31.993 16.326-81.132 5.665-113.265-14.568-43.912-33.274-76.788-58.8-115.138zm-1.433 38.967c26.81 22.803 43.5 65.005 50.273 96.633 3.934 41.648-.202 72.326-9.41 109.219 27.237 7.431 65.782 21.09 88.039 39.045 32.685 26.367 51.227 60.461 71.563 89.588-17.544 3.283-73.83-.47-91.518-3.094-35.09-5.205-89.948-45.545-121.197-61.518 0 0-56.343 53.413-96.026 64.787-27.406 7.855-79.182 18.985-102.39 7.092 5.356-20.024 16.487-38.084 29.67-53.883 40.139-37.389 86.445-72.801 136.802-87.408-.35-37.666-8.173-73.769-.484-110.693 3.487-16.749 26.37-88.877 44.678-89.768z" transform="translate(-10.18 -31.107) scale(.15128)"/></svg>