<svg width="400" height="400" viewBox="0 0 105.833 105.833" xmlns="http://www.w3.org/2000/svg"><g style="display:inline"><path style="display:inline;fill:#799160;fill-opacity:1;stroke:none;stroke-width:.162626" d="M47.673 49.081c-2.472-1.374-3.541-2.23-6.334-4.592-4.083-3.453-6.044-9.227-1.371-9.004 2.058.098 3.728.96 6.293 4.758 1.352 2.001 1.768 3.872 2.431 5.765.641 1.831 1.13 4.066.887 4.066-.067 0-.925-.447-1.906-.993zm4.963.849c0-.08.3-1.013.665-2.074 2.361-6.852 4.483-11.134 7.057-12.3 3.62-1.64 5.64 1.005 4.498 3.387-1.538 3.207-4.462 6.045-9.898 9.689-1.183.793-2.189 1.442-2.236 1.442-.047 0-.086-.065-.086-.145zm-21.222 9.088c-.305-.588-.313-1.472-.02-2.172.407-.975 1.198-1.68 2.75-2.45 2.978-1.477 6.922-1.314 11.508-1.301 3.05.008 3.491.104 2.904.723-1.795 1.892-8.02 5.296-11.369 6.25-2.062.588-4.512 1.238-5.773-1.05zm34.999 1.788c-3.329-.84-7.484-3.128-11.417-6.288l-1.788-1.436 1.056-.119c2.278-.256 6.022.12 10.65.799 8.937 1.312 6.311 8.076 1.5 7.044z" transform="rotate(180 68.095 69.647) scale(1.64008)"/><path style="display:inline;fill:#799160;fill-opacity:1;stroke:#799160;stroke-width:.162626;stroke-opacity:1" d="M49.95 73.197c-1.62-.76-2.52-2.398-2.52-4.582 0-4.261 1.842-11.183 3.718-13.971.35-.52 1.901 5.344 2.374 8.977.29 2.22.33 6.07.075 7.255-.437 2.04-2.053 3.069-3.646 2.32z" transform="rotate(180 68.095 69.647) scale(1.64008)"/><path style="display:inline;fill:#f3aa1e;fill-opacity:1;stroke:none;stroke-width:.162626" d="M38.892 47c-2.773-.781-5.909-1.694-6.969-2.028l-1.927-.607.108-1.495c.291-4.008.968-9.11 1.798-12.949.222-1.026.404-1.907.404-1.958 0-.129 7.496.466 9.595.658.939.086 2.345.265 3.126.397 1.343.228 4.09.807 4.55 1.105.268.174.072 5.175.07 10.515v3.74l-.54-1.42c-1.007-2.644-3.113-5.132-5.144-7.237-4.943-5.123-11.29.966-7.17 5.738.87 1.009 3.474 4.011 5.595 5.594 1.983 1.48 1.886 1.401 1.694 1.383-.082-.007-2.417-.653-5.19-1.435zm18.948 1.578c.045-.046.96-.816 2.035-1.712 4.515-3.764 7.44-7.278 7.069-9.605-.748-4.698-5.542-4.427-7.68-2.596-1.976 1.699-3.76 4.262-5.66 8.13-.81 1.647-1.294 2.47-1.357 2.305-.054-.141.017-3.46.048-7.374l.055-7.116 1.059-.343s6.255-1.477 8.753-1.887c2.81-.461 6.353-.548 6.694-.417.159.06.266.316.496 1.4 1.083 5.094 1.88 10.03 2.15 14.766-.336.334-3.549 1.108-8.466 2.744a482.21 482.21 0 0 0-4.952 1.664c-.178.069-.288.087-.244.041zM34.097 68.304c-5.875-2.185-9.132-3.874-11.262-5.843-.575-.532-.563-.796.106-2.379.304-.72.973-2.332 1.488-3.584 1.956-4.76 4.46-10.052 4.877-9.891.114.044 3.294.727 6.912 2.001l6.704 2.36-1.851.103c-2.513.14-5.364.526-6.46.988-3.171 1.334-5.942 4.987-4.484 8.016 1.062 2.034 4.372 2.83 7.468 1.796 1.566-.523 3.05-1.305 5.563-2.933 1.038-.672 1.919-1.191 1.957-1.153.081.081-.406.812-3.917 5.868-3.28 4.725-3.963 5.613-4.305 5.6-.151-.007-1.41-.434-2.796-.95z" transform="rotate(180 68.095 69.647) scale(1.64008)"/><path style="display:inline;fill:#f3aa1e;fill-opacity:1;stroke:none;stroke-width:.162626;stroke-opacity:1" d="M48.732 81.509c-2.702-2.315-5.968-5.517-7.265-7.123-1.089-1.348-2.329-3.283-2.329-3.635 0-.111.792-1.315 1.76-2.674.967-1.36 2.77-3.955 4.009-5.767 1.238-1.813 2.277-3.27 2.309-3.238.031.032-.058.38-.199.775-.524 1.468-1.215 4.443-1.453 6.258-.45 3.435-.264 5.355.688 7.105.619 1.136 1.982 2.332 3.008 2.636 1.045.31 1.32.31 2.391-.008 1.777-.528 3.217-2.626 3.701-5.391.48-2.745-.04-7.813-1.167-11.347-.13-.413-.193-.498 3.145 4.304 3.907 5.618 4.739 6.912 4.739 7.37 0 1.012-3.768 5.982-6.69 8.826-1.74 1.692-4.134 3.65-4.466 3.65-.082 0-1.064-.784-2.18-1.741z" transform="rotate(180 68.095 69.647) scale(1.64008)"/><path style="display:inline;fill:#f3aa1e;fill-opacity:1;stroke:none;stroke-width:.162626" d="M63.784 68.426a39.835 39.835 0 0 1-1.711-2.09c-1.239-1.63-5.577-8.142-5.485-8.234.04-.04.722.339 1.516.841 6.13 3.882 12.169 5.082 14.39 2.862 1.195-1.196 1.193-3.201-.004-5.633-1.142-2.32-2.62-3.444-5.299-4.031-1.817-.399-2.71-.479-6.505-.585l-3.577-.1 2.032-.748c1.119-.41 4.507-1.576 7.53-2.59l5.498-1.52.467.477c.692.704 3.293 4.97 4.56 7.72 1.062 2.307 2.599 6.146 2.599 6.493 0 .481-5.29 3.861-8.782 5.613-2.033 1.02-4.925 2.149-5.918 2.31-.475.077-.605 0-1.311-.785z" transform="rotate(180 68.095 69.647) scale(1.64008)"/></g></svg>