<svg width="400" height="400" viewBox="0 0 105.833 105.833" xmlns="http://www.w3.org/2000/svg"><path style="fill:#000;stroke-width:.58447" d="M447.27 178.486c-40.634-.309-82.783 8.716-113.375 28.307-45.767 30.536-62.648 92.364-66.45 140.064-.543 64.306 7.098 124.01 13.588 191.78 6.038 63.048 10.693 118.043 30.035 171.992 4.878 16.555 13.932 34.124-2.03 45.435-20.11 20.035-42.621 7.365-54.91-12.501-9.265-17.896-10.438-27.228-31.548-26.877-10.863 1.659-22.035 4.055-31.404 10.068-4.32 2.774-8.209 7.874-6.485 13.266 3.851 22.487 17.73 41.212 27.924 61.095 4.878 9.554 9.255 19.644 10.207 30.442 4.592 31.222 8.41 63.3 22.227 92.095 7.04 14.674 16.69 32.511 31.937 35.145 21.055 3.1 137.237 15.35 173.817-1.135 16.64-10.22 25.571-29.039 29.758-47.637 7.168-31.847 8.059-72.098 21.084-97.433 16.347-30.208 12.095-27.607 32.81-48.639 23.04-23.391-32.353-47.998-44.033-38.992-18.927 14.593-28.204 38.01-54.64 35.234-31.209-3.718-32.405-12.599-26.23-40.25 7.98-35.72 8.857-63.833 10.23-106.578 2.142-28.525.29-59.962-6.452-83.951-3.366-21.595-14.365-36.87-29.91-49.863-9.663-7.883-20.696-14.008-32.457-18.127-19.24-8.06-32.655-25.88-39.986-44.91-3.924-9.993-6.122-20.637-7.059-31.266-2.186-24.789-3.644-49.973 2.338-74.402 2.76-11.275 7.654-21.857 13.486-31.873 7.635-13.112 15.92-26.132 27.621-36.082 20.762-17.655 46.968-27.856 73.862-30.516 9.097-.9 18.262-.05 27.38.234 11.927.371 23.951 1.494 35.575 3.659 13.717 2.554 27.52 6.727 38.97 14.613 12.076 8.317 27.618 22.876 32.743 35.715 6.349 15.904 15.26 31.241 14.025 51.48-1.01 16.557-2.79 33.345-9.229 48.926-6.958 16.838-20.102 30.457-35.437 39.547-12.602 7.47-27.994 7.952-42.363 7.92-10.917-.061-22.29-.61-32.211-5.664-22.76-11.595-42.473-37.768-41.053-60.643.772-12.43 11.248-21.452 16.977-32.08 4.043-8.477 5.373-27.886-3.768-29.977-20.881-4.775-33.748-3.422-47.945 9.795-6.776 6.22-11.578 14.77-10.5 23.948 1.11 9.45 8.721 16.928 10.242 26.183 6.529 39.743 31.79 76.476 69.33 90.432 37.502 12.763 90.28 7.942 115.764-15.79 42.978-40.022 46.138-110.314 37.056-151.167-16.772-52.48-61.366-79.919-109.867-87.647-12.724-2.131-26.1-3.272-39.644-3.375zm1.82 7.8c16.8.09 33.176 2.151 48.334 6.19 40.8 15.16 73.789 36.47 87.828 74.631 13.414 37.183 10.328 86.95-11.398 125.608-16.998 30.244-54.537 45.873-89.182 44.027-13.085.654-26.564-1.713-38.57-6.467-18.406-7.147-33.517-20.611-46.204-35.712-13.3-15.833-12.673-34.957-18.46-48.684-6.434-16.078-16.822-36.568.945-46.848 14.66-9.703 47.599-16.712 39.463 9.502-4.873 14.677-17.394 25.908-20.043 41.479-.36 30.566 32.404 60.842 55.037 67.933 37.12 10.544 83.367-5.83 102.963-32.588 20.846-33.642 20.823-84.23 7.486-114.984-22.225-43.96-60.345-59.706-104.61-63.697-43.348-5.178-94.273 8.425-122.876 33.795-30.446 29.792-45.99 78.394-44.627 115.992-.071 34.71 10.161 74.988 31.943 96.976 1.334 1.352 3.247 2.374.252 1.92-10.444 5.384 2.15 10.76 4.777 4.916.064-2.353-.549-3.131 1.676-1.017.608.997 4.84 2.312 2.65 3.012-2.282 1.487-2.02 4.556-2.007 6.931 2.808.803 7.145 2.37 8.873-1.012.372-1.977-.551-3.331 1.68-1.761.945.794 4.198 1.513 3.494 2.197-2.457 1.363-2.05 4.573-1.926 6.94 2.646.812 7.178 1.948 8.201-1.676.961-1.381-2.331-4.368.1-3.137 3.27 1.041 6.565 2.056 9.615 3.668-1.641.533-3.422-.682-4.807.469-3.28 4.167 3.42 7.864 3.899 7.507 2.538-1.07 4.849-4.246 2.709-6.765-.842-1.023 2.669 1.299 3.693 1.877 1.683 1.044 3.81 2.423 5.084 3.437-2.57-1.692-6.115.79-5.006 3.772.197 6.214 9.57 3.3 8.408-.54-1.842-2.643.754.058 1.897.821 5.33 4.45 10.353 9.457 14.389 14.844-2.401-2.008-5.391.692-4.981 3.383.008 1.945-.165 4.29 2.256 4.68 2.231 1.484 6.305.852 6.053-2.46-.276-1.902 1.72 2.61 2.222 3.643.62 1.615 2.016 4.21-.539 2.27-2.786-1.303-5.193 1.828-4.445 4.45-.011 1.85.725 3.208 2.703 3.419 1.035.5 2.694.553 3.484.834-4.315 7.525-1.568 8.325 4.23 9.945-5.064 5.887-2.113 9.614 5.62 7.002-4.563 5.152.729 5.54.729 6.463-16.356 6.35-2.191 9.82 2.527 9.463-7.12-.005-13.275 6.685-3.106 10.218-5.61.333-5.25 14.598 3.133 11.336.041 2.292.191 4.851.067 6.983-1.345-2.26-5.431-3.138-6.164.074-.298 1.66-.119 3.85.728 5.1 1.693.648 3.583 1.652 5.412.886-.081 2.572-.123 5.146-.287 7.715-.441-2.501-3.718-5.398-5.832-2.82-.833 1.516-.954 3.937-.187 5.28 1.723 1.166 4.734 2.149 5.908-.231-.127 2.83-.369 5.686-.56 8.6-.798-2.305-3.778-5.075-6.048-2.886-3.252 5.149 2.506 9.925 5.686 7.1-.21 1.906-.35 5.237-.664 6.334-.623-2.766-4.603-3.256-5.736-.582-4.453 4.85 3.761 6.922 5.484 4.082-.352 3.008-.6 6.324-1.026 9.139-1.07-2.454-5.515-3.609-6.18-.319.51 9.104 6.908 1.785 5.665 5.313-.735 6.43-1.42 12.865-2.121 19.299-.73-2.475-2.617-6.596-5.801-5.137-4.263 4.735 2.01 11.916 5.38 9.352-.2 2.078-.408 4.156-.568 6.238-2.135-1.504-6.748-2.17-7.197 1.285.803 7.123 7.608 3.617 6.52 7.533-.187 2.339-.292 4.68-.4 7.024-.72-2.172-3.431-4.855-5.567-2.71-3.22 4.969 3.322 9.254 5.545 6.895 2.195 23.845-5.744 47.49-17.16 68.281-20.79 37.942-14.807 96.089-4.188 131.059 4.144 13.646 17.963 18.104 13.969 5.014-3.607-11.824-9.153-23.063-11.371-35.272-.728-18.949-3.878-37.987-.365-56.863 1.81-9.602 1.677-28.532 9.101-35.086 20.935 7.288 48.99 16.613 64.996 1.842 22.482-20.746 25.658-23.39 34.938-29.785 4.731-3.261-35.503 45.955-35.889 51.35-.227 3.17.442 12.167 9.02 3.107 11.473-12.118 26.87-54.457 36.656-53.995 2.73.13 7.114 1.791 6.85 4.512-8.43 15.588-48.62 65.362-30.504 57.026 5.74-2.642 13.212-14.732 18.576-22.805 10.895-16.399 16.784-36.65 26.123-25.2 4.2 5.151.072 10.14-3.735 14.702-19.33 23.163-32.213 50.433-36.478 78.152-5.313 22.927-7.841 39.45-11.27 49.98-6.536 20.11-12.768 41.372-27.148 57.522-31.848 17.784-92.797 7.418-125.314 6.983-24.629-.33-44.522-1.428-58.885-19.637-5.985-7.587-11.73-15.174-15.203-23.836-7.435-18.543-9.798-40.146-12.13-59.652-5.916-37.423-26.678-76.782-40.995-100.41-3.06-5.05-.72-12.548 4.267-17.08 1.827-2.244 1.676 2.287 2.594 3.327 7.352 20.101 18.634 38.618 32.277 55.057 1.805-1.98 3.219-4.676 1.793-7.293-4.084-8.448-10.65-15.337-15.636-23.234-4.028-8.543-14.11-23.273-10.553-29.614 1.36-2.789 5.508-3.636 7.244-.728 4.237 17.324 9.814 26.29 26.727 46.09 1.276 1.734 4.535 3.61 5.773.916 1.192-3.55-2.495-6.164-4.031-8.99-7.411-10.784-15.755-21.285-20.28-33.7-1.134-3.346-2.294-8.66 1.8-10.464 1.598-.437 4.537-1.99 5.019.459 8.026 16.197 16.209 33.117 30.115 45.166 8.269 7.201 19.723 11.135 30.613 8.699 3.587-.61 7-1.851 9.916-4.051 6.672-4.083 15.796-6.4 22.748-1.645 8.74 6.235 11.765 17.52 12.608 27.711.445 6.355-.292 49.87-10.211 78.01-3.52 9.984 7.813 16.416 10.504 2.117 7.886-34.931 16.931-81.432.761-115.111-10.805-33.46-21.675-63.37-27.396-95.477-8.008-50.121-11.617-68.891-25.5-176.53-4.007-31.065-6.846-70.104-11.002-100.88-5.558-68.074 10.398-141.426 64.045-179.627 32.612-18.739 71.627-28.067 108.588-27.867zM319.408 447.202a3.365 3.365 0 0 0-.96.043c-3.035.897-2.04 4.623-1.382 6.852 2.327.658 6.376 1.167 6.72-2.17-.044-2.193-2.143-4.51-4.378-4.725zm4.524 32.266c-10.233.32-17.03 5.24-17.657 14.963.596 3.613 5.013 2.897 7.45 1.722 8.674-3.126 18.061-10.3 27.052-6.683 12.447 5.006 12.121 9.648-1.064 9.834-10.312-.308-20.936-2.436-31.055.465-8.231 1.046-8.817 18.162-5.638 17.796 11.72-1.349 22.12-11.796 34.257-9.455 4.468.862 21.13 4.994 11.63 9.489-9.781 1.993-19.946 2.635-29.942 1.431-13.13-1.58-18.023-1.257-15.274 15.727.736 4.546 7.887 1.868 11.27.215 7.698-3.34 15.873-10.092 24.355-7.182 14.37 4.145 21.748 9.578 4.924 13.13-6.335.8-13.54 2.345-19.213-.8-5.373-2.978-12.399-4.28-16.834.38-4.759 4.703-8.441 14.664-2.673 18.866 7.647 5.572 10.926-4.418 15.796-6.314 8.077-3.032 16.998-1.54 25.211-.436 21.975.44 14.47 12.19-2.306 11.842-10.019-.114-20.041-2.866-30.041-1.28-4.596.626-8.179 4.82-7.801 9.551.434 5.437-.052 11.5 5.107 12.952 10.285 2.892 18.048-8.786 28.9-9.202 5.493-.414 10.558 2.082 15.86 3.026 13.595 4.263 5.164 7.553-3.096 10.242-7.274 1.786-15.726 3.708-22.496.02-4.924-2.684-11.648-4.645-15.838-.086-5.874 6.207-4.623 18.66 3.875 21.902 7.633 1.767 7.94-6.079 18.225-8.822 8.178-1.7 17.321-2.206 24.924 1.79 3.269 1.533 6.018 6.864 3.017 8.803-7.607 4.917-17.713 1.35-26.488.924-6.429-.302-18.111-4.32-19.353 2.383-7.631 41.172 22.769 9.786 30.584 10.436 22.334 1.855 31.01 18.232 6.209 13.302-9.582-.704-19.641-2.165-28.909 1.143-4.541 1.556-7.498 6.525-6.257 11.246 4.138 19.93 17.745 2.672 30.136.107 5.76-1.127 12.518.15 17.782 3.239 3.025 3.702 6.58 8.688-.987 8.467-13.356.845-25.52-1.398-38.693 1.398-6.9 1.464-.962 16.447 1.422 18.37 4.602 2.627 9.677-.861 13.826-2.83 5.777-2.989 11.64-6.362 18.5-6.089 5.697.338 11.278 4.158 13.191 9.574-.28 2.588-3.827 2.767-5.836 3.34-11.698 1.94-23.694-.067-35.37 1.9-6.095 1.028-1.045 16.95.974 18.633 4.45 2.531 9.362-.832 13.41-2.671 6.326-3.17 13.868-7.198 20.967-3.997 14.968 7.331 2.159 8.007-6.172 9.456-9.047 1.146-17.04-2.615-24.805 2.205-4.494 2.79-2.313 11.033 2.026 14.853 4.387 3.024 9.494-.489 13.488-2.533 4.164-2.418 8.843-4.593 13.978-4.188 3.973.082 9.574 1.423 10.204 6.069-.527 4.486-6.097 5.279-9.782 5.19-6.358.173-12.243-4.428-18.654-2.54-4.085 1.057-4.735 6.243-2.564 9.332 4.804 7.854 15.24 11.745 24.01 8.824 9.616-2.564 15.315-11.9 17.872-20.933 2.964-10.258 3.941-20.976 4.83-31.57 1.026-43.989 11.832-87.808 7.577-132.041-1.757-16.881-5.57-33.783-13.125-49.061-9.962-17.722-28.311-29.919-47.924-34.416-6.159-1.185-11.21-1.748-16.992-1.408zm59.203 10.164c-8.826 3.408 3.605 11.49 5.72 5.33.206-2.875-3.014-5.362-5.72-5.33zm-19.979 6.558c8.533 3.7 16.9 9.583 20.93 25.582 6.763 26.854 12.101 37.9 9.978 72.565-1.794 29.3-8.158 48.757-8.712 65.637-.771 6.084-1.42 12.985-2.18 18.576-4.347-4.135-10.565-5.406-16.211-6.746-3.156-.144-3.462-.394-.383-.977 22.607-4.706 12.273-20.75-6.01-24.176 3.623-.58 8.007.58 10.844-1.713 5.177-4.077 7.562-10.824.522-15.986-16.494-12.092-12.235-6.43-19.006-7.553 6.083.063 13.463.242 17.828-4.746 3.546-4.67.252-10.895-3.555-14.28-3.055-2.944-6.813-5.116-10.81-6.507 5.225-.485 12.046-2.167 13.515-8.002 1.054-6.454-4.526-11.633-9.648-14.521-2.409-1.347-5.016-2.358-7.72-2.914 25.377-3.921 13.51-25.931-.768-23.801 4.69-2.13 10.865-3.352 13.308-8.416 1.433-4.47-3.126-7.782-6.48-9.7-3.753-2.057-2.823-4.574-.407-6.644 9.502-11.011-3.524-12.693-6.636-16.373 2.768-1.183 8.9-10.476 11.601-9.305zM343.73 619.496c3.061.027 6.13.592 8.924 1.867-8.067-1.11-14.64 3.341-21.937 1.586 3.727-2.616 8.544-3.379 13.013-3.453zm62.856 17.08c-.471-.03-.958.06-1.217.252-2.064.882-2.307 3.128-.605 4.496 3.185.334 5.913-3.523 1.822-4.748zm-4.775 53.026c-3.129-.034-3.286 3.84-2.166 5.957.49 1.708 3.33 1.18 4.853 1.054 3.094-.815 2.203-4.92-.168-6.08-.727-.533-1.616-.906-2.52-.931zm-.997 14.742a1.88 1.88 0 0 0-1.091.383c-1.64 1.05-2.26 3.158-.672 4.554 1.815 2.403 5.006-.312 4.103-2.783-.122-1.216-1.22-2.18-2.34-2.154zm-3.398 16.5a2.517 2.517 0 0 0-1.643.314c-6.86 7.06 5.381 9.661 4.88 3.272-.223-1.618-1.627-3.346-3.237-3.586z" transform="translate(4.426 -19.949) scale(.12761)"/></svg>