<svg width="400" height="400" viewBox="0 0 105.833 105.833" xmlns="http://www.w3.org/2000/svg"><path style="fill:#000;stroke-width:.777483" d="M414.404 63.033c-35.832.54-71.745 3.788-106.875 11.117-50.474 16.445-105.026 30.565-132.705 72.764-13.051 19.67-16.962 43.625-18.824 66.711-.852 11.53-1.609 23.091-2.006 34.639 4.234 78.868 8.085 157.84 6.606 236.847 1.265 56.96-1.475 113.904-1.621 170.856 5.075 75.42 32.86 127.185 68.478 180.062 18.358 24.656 45.174 41.415 72.953 53.63 9.352 4.055 18.824 8.032 28.512 11.124 13.016.683 24.59 8.053 33.482 17.16 11.26 10.992 20.393 24.856 34.68 32.391 4.506 2.293 9.451 4.257 14.603 3.605 21.568-.116 43.834 2.741 64.725-4.11 2.661-.087 2.916-2.754 3.844-4.702 6.748-15.485 20.569-26.413 35.06-34.305 17.114-9.422 35.53-16.529 51.582-27.808 49.442-28.615 85.951-77.22 102.977-131.45 5.559-17.249 8.694-35.16 10.6-53.154 7.178-60.807 2.594-122.173 6.394-183.17-2.958-109.481-1.69-219.024-3.896-328.515-.688-17.528-9.25-33.998-21.524-46.258-17.618-17.855-40.405-29.203-62.69-40.067-57.99-24.984-121.195-38.318-184.355-37.367zm-25.129 11.022c4.476-.156 8.674-.146 12.541.043 68.943 3.356 139.536 8.815 199.903 39.877 58.627 30.166 70.96 103.12 71.06 162.513-3.627 143.443 15.389 266.217-4.806 423.112-.022.133-.03-.27-.045-.405-28.635 117.768-85.076 165.873-155.467 199.147-11.382 1.21-21.085 8.493-27.88 17.363-7.01 8.485-12.079 18.962-21.395 25.268-5.98 3.998-13.207 3.804-19.83 4.19-12.191.264-24.176-1.323-36.415-1.573-13.953-14.731-26.285-31.931-44.576-41.672-5.865-3.404-12.483-5.018-18.898-6.97-72.367-19.945-131.516-86.254-146.961-132.33-34.57-104.26-22.978-226.886-25.57-318.784-2.474-85.442-.904-128.206 0-200.377 1.685-33.84-3.396-63.35 6.158-87.78 15.466-39.545 145.053-79.29 212.181-81.622zm26.178 38.29c-58.404.587-115.532 9.829-154.426 26.944-22.572 14.253-58.841 26.154-57.228 58.504 8.465 185.844-28.75 449.335 44.496 531.652 135.545 152.333 311.91 30.17 358.245-56.117 51.716-96.308 25.704-150.415 24.235-241.072 2.224-72.335-1.108-141.608-1.984-209.83 1.409-7.946.15-17.436-1.908-24.594-10.549-53.148-48.408-61.067-80.82-70.775-38.987-10.386-85.185-15.167-130.61-14.711zm7.182 4.259c37.632-.054 83.147 4.6 109.478 12.511 35.291 10.604 91.417 20.105 90.073 79.826-4.52-29.762-22.537-40.822-40.592-50.654-18.056-9.831-36.887-17.943-53.842-21.922-39.381-9.002-93.839-17.99-134.139-15.765-16.736 1.011-33.472 2.682-49.972 5.666-28.226 6.998-57.745 11.125-83.698 25.007-15.417 8.223-29.931 20.463-36.287 36.891-1.404 3.63-.828 7.807-2.17 11.486-1.568-6.107-.698-12.955 1.682-19.005 2.508-5.922 7.455-10.32 11.8-14.895 13.685-13.346 31.18-21.945 49.018-27.93 21.591-7.178 44.31-11.242 66.614-16.021 23.9-3.224 47.885-5.126 72.035-5.195zm-19.045 10.542c44.692 1.203 92.018 4.694 130.943 16.456 22.36 8.29 53.094 19.372 68.69 32.543 6.356 6.646 15.465 23.829 10.3 31.093-65.219-17.238-244.434 5.424-374.576-3.431-4.237-.779-8.82-3.93-8.3-8.766.526-5.98 3.39-11.652 6.998-16.355 14.394-17.054 35.426-26.592 56.226-33.344 38.552-4.904 72.963-17.99 109.719-18.196zm-157.64 82.958c12.493-.11 25.084 3.025 37.714 2.388 108.485 11.095 217.434-6.632 317.537 3.678 4.812.79 9.518 3.059 12.58 6.94 2.842 51.203.18 112.595 1.815 165.65-.38 5.69.01 11.884-2.877 17.082-1.962 2.793-5.493.192-7.465-1.252-11.857-9.576-20.047-23.08-32.62-31.85-23.43-13.72-54.05-20.355-77.482-16-69.716 12.958-145.898 67.135-180.084 127.563C218.783 654.498 325.3 692.365 443.436 658.69c41.694-11.884 70.79-43.34 92.798-58.543 26.27-17.72 77.237-119.078 80.565-88.054-34.941 280.249-280.078 306.823-350.486 164.545-39.498-79.815-34.77-138.48-34.184-159.264 1.549-54.984-12.65-271.12 1.45-304.754 3.646-2.291 8.197-2.402 12.37-2.517zm-25.571 5.152c2.471 6.479 1.77 13.649 1.951 20.465-.114 14.109-1.331 28.257-.043 42.336.814 77.537 1.937 141.764 1.205 212.187.018 8.567-1.418 128.69 27.03 175.54 144.065 237.26 373.162 28.068 374.007-166 .754-1.933 1.384-3.917 1.803-5.95.283 28.868 10.798 106.966-26.513 163.838-65.415 99.707-332.449 294.871-383.458-106.506.74-81.836-2.876-170.326 3.407-247.57 2.576-29.41-2.737-58.957.61-88.34zm402.217 4.982.14.352.008.017c4.82 85.178 2.783 180.127 3.432 255.635-1.881-10.173-7.372-19.684-7.006-30.22 8.6-71.283 3.682-151.151 3.272-214.15-.15-3.875-.275-7.773.154-11.634zM516.473 370.023c22.42-.703 42.96 7.346 57.613 30.707 33.607 53.58 18.83 90.92-13.188 140.508-34.792 48.013-80.281 97.182-138.89 107.703-81.038 14.548-137.919-4.464-121.813-83.785 13.145-62.1 60.204-117.434 107.045-149.049 29.274-19.425 71.866-44.91 109.233-46.084zm52.392 49.71c-1.925-.34-12.753 2.75-21.08 3.435-50.394 4.144-163.578 145.088-181.201 169.98 35.347-18.62 134.875-139.045 185.248-163.66 14.642-7.154 18.53-9.492 17.033-9.756z" transform="translate(5.42 -6.508) scale(.1155)"/></svg>