<svg width="400" height="400" viewBox="0 0 105.833 105.833" xmlns="http://www.w3.org/2000/svg"><path style="fill:#000;stroke-width:.52038" d="M189.752 319.29C96.384 417.24 71.438 535.875 93.184 656.31 113.67 769.779 278.06 874.388 364.433 877.287 501.87 881.897 621.336 851.245 693 750.063c65.52-114.906 63.71-237.93 20.323-335.686-47.58-107.209-135.79-152.312-237.215-175.6-100.736-23.129-212.648 11.359-286.356 80.511zm480.652 36.401c81.505 111.67 75.171 293.612 14.621 394.13-65.343 101.115-227.269 129.441-323.48 115.753-180.483-25.677-285.396-160.618-267.02-325.013 8.865-79.297 39.03-153.277 94.387-211.567 39.516-36.939 85.463-71 138.848-81.53 129.029-25.448 268.555 6.718 342.644 108.227zm-254.65-50.841c-4.705 11.088-3.804 23.502-3.193 35.252.64 10.033 1.768 19.874 1.459 29.89 2.814 20.34-2.238 41.354.562 61.914 1.424 11.876 6.934 23.785 17.12 30.573 7.095 3.618 15.864 4.644 23.466 1.894 11.3-4.29 17.697-15.798 20.875-26.848.465-10.325 7.678-20.884 17.008-14.21 3.413 4.15 1.752 10.084.582 14.798-17.944 26.761-32.309 61.11-55.051 80.33-8.747 5.424-28.553 4.705-36.97-1.888-28.132-21.478-49.34-45.741-69.641-74.508-1.488-7.629 5.519-13.978 12.35-15.664 5.557-1.806 12.872.059 14.991 6.015 1.44 3.794 1.88 8.166.174 11.922-2.132 6.692 1.77 13.887 7.686 17.145 9.582 5.61 22.256 6.345 32.146 1.094 6.027-3.163 9.563-9.826 9.51-16.541 5.369-41.807-1.12-83.905-2.781-125.653-.324-8.005-3.716-16.86-11.51-20.279-9.231-4.068-19.702-1.886-29.117.37-14.12 3.611-27.582 9.475-41.836 12.589-44.143 12.7-83.678 40.983-109.732 78.824-11.414 19.946-29.39 35.74-38.22 57.233-18.457 44.784 69.794 57.639 102.403 69.257 5.963 1.515 11.688 4.126 17.795 5.35 10.338 1.866 20.835-3.726 26.479-12.299 6.426-9.387 8.944-22.741 2.709-32.85-7.974-8.428-32.738-12.582-20.25-25.751 37.879 13.021 84.352 59.292 81.6 100.522-14.22 36.886-68.23 41.688-101.183 43.283-8.794-.049-15.303 3.46-21.246-3.382-3.28-3.563-2.405-9.221 1.026-12.355 1.964-2.113 4.288-3.709 6.578-5.06 6.864 5.428 16.805 8.253 24.943 3.978 11.14-5.817 15.8-19.963 13.295-31.814-2.075-10.247-10.112-19.243-20.355-21.758-33.795-4.669-124.38-51.655-133.137-13.192-11.87 52.138 4.507 140.571 32.522 192.041 19.175 28.454 59.387 83.364 80.287 58.883 26.802-28.595 46.207-63.068 71.912-92.555 6.615-8.335 6.865-20.358 2.033-29.601-5.67-11.227-16.788-20.42-29.607-21.492-8.618-.775-16.873 4.475-20.81 12.002-1.055 1.295-1.312 3.753-2.532 4.521-4.96-.424-10.493-1.208-14.233-5.05-3.924-4.562-.853-11.084 2.508-15.018 25.137-16.574 65.507-25.827 92.049-26.686 11.605-.078 24.193 3.645 31.494 13.188 14.327 28.11 18.853 91.529 9.734 112.324-4.118 4.456-10.583 8.817-16.855 6.498-16.823-12.623 6.397-19.874 5.293-34.424-1.133-15.806-16.75-29.294-32.658-26.974-14.543 2.367-26.396 12.452-35.059 23.867-12.415 15.983-20.983 34.883-35.564 49.176-9.92 11.335-18.844 24.473-21.522 39.564-1.757 9.323 1.042 19.68 8.508 25.846 30.121 17.988 68.177 32.265 99.625 34.98 61.326 2.492 131.29-19.01 177.129-46.54 6.096-6.302 9.457-15.64 6.922-24.265-3.436-12.444-12.95-21.829-21.399-31.1-6.453-6.737-12.773-13.655-17.834-21.523-11.367-15.754-21.934-32.833-37.914-44.416-8.649-6.421-20.286-9.818-30.752-6.107-8.64 3.063-17.352 9.077-20.076 18.26-2.269 8.5 2.882 16.495 7.004 23.496 2.792 4.815 6.597 11.114 3.129 16.545-6.78 10.457-19.498 1.01-22.006-5.72-3.633-37.214-13.772-99.739 17.992-120.839 27.793-9.864 56.648 3.794 83.203 7.791 10.32 1.61 22.479 4.102 28.979 13.375 1.702 2.64 3.358 5.732 3.531 8.822-1.715 3.888-4.483 9.289-9.523 8.602-6.88-1.764-11.451-7.78-17.106-11.684-2.642-1.777-5.672-4.584-9.029-3.087-10.75 2.46-20.746 9.74-24.588 20.335-5.3 14.315-1.37 30.44 6.08 43.243 22.75 22.234 41.706 53.676 62.94 71.629 51.677 52.177 116.18-139.337 115.988-177.248-.151-30.004-1.351-69.423-13.547-95.94-8.66-18.827-131.335 40.879-142.92 50.522-7.097 5.907-9.45 33.676.74 42.55 13.9 16.473 21.228-2.59 32.383-1.271 7.517 1 14.538 9.129 11.969 16.806-1.715 3.993-6.116 6.577-10.268 7.038-32.017-2.516-63.147-10.615-93.705-20.332-10.542-5.596-17.86-16.556-18.963-28.442.844-31.34 25.145-65.226 41.846-88.28 4.531-5.88 9.41-12.601 16.875-14.773 29.034 1.226-7.815 27.072-10.77 33.965-2.97 7.78.47 16.009 4.278 22.819 4.152 8.486 12.311 15.293 21.937 16.125 13.314 1.218 25.992-4.341 37.952-9.47 23.793-10.943 49.017-19.836 70.984-29.786 9.539-4.208 21.859-10.206 22.637-21.205 2.266-32.035-38.35-69.656-56.192-90.266-22.397-24.412-51.354-43.786-83.304-51.373-17.307-4.11-87.745-40.656-102.262-7.527zm26.767-4.356c11.309.242 22.075 3.159 32.57 7.348 35.498 7.007 70.514 19.6 99.737 41.469 11.578 8.821 22.393 18.897 31.043 30.628 11.764 19.904 30.736 34.868 40.307 56.168 11.186 31.869-71.46 57.849-97.54 66.784-6.831 1.986-13.378 5.181-20.464 6.156-7.126 1.01-14.112-3.245-17.365-9.496-.707-1.352-2.471-4.219-2.082-4.88 2.57.731 3.456 3.77 6.044 4.61 2.349 1.312 5.119.652 7.528.266 7.678 1.832 16.593.084 21.746-6.256 1.877-2.616 3.298-9.939 3.277-12.486 4.495-9.269 15.87-13.555 18.766-23.793 1.302-5.342-1.156-10.72-4.342-14.903 1.55-11.016-4.86-21.64-13.676-27.798-6.24-4.66-13.795-7.48-21.283-9.024-6.57-10.256-18.24-15.233-28.422-21.066-8.18-5.853-14.706 2.819-25.96 4.086-6.635.616-14.334 2.447-17.606 8.935-.985 1.863-1.648 3.89-2.008 5.963-7.09 2.425-12.768 8.713-13.674 16.26.015 13.376-6.994 28.224 1.895 34.367 1.71 1.089 3.608 2.121 4.765 3.838-5.75 1.33-11.948-1.006-16.513-4.51-4.842-3.763-4.74-10.363-6.082-15.812-6.11-35.17 1.42-71.214-4.377-106.325-1.294-7.836-3.645-17.093 2-23.568 5.272-6.048 14.15-6.99 21.716-6.96zm-60.73 4.512h.002c6.512-.404 13.215 2.958 15.943 9.049 8.589 25.51 3.193 55.309 5.27 79.177.312 15.958 3.443 31.889.156 47.717-1.53 7.464-6.373 14.682-13.941 16.973-1.024.165 1.22-2.433 1.295-3.508 1.28-3.636 2.11-7.494 2.324-11.316 2.826-24.203-8.851-46.203-27.147-57.801-5.264-3.185-12.14-2.918-17.289.377-13.188-.334-27.411 1.02-38.392 9.021-4.298 3.224-7.67 7.69-9.471 12.756-8.05.696-12.688 8.222-18.418 12.926-12.784 5.42-12.709 13.258-14.287 25.477-10.31 16.441-3.74 23.26 2.312 40.296 2.16 7.535 7.182 14.936 15.12 17.069 1.964.69 4.236.429 5.343 2.492 6.135 5.21 14.71 4.679 22.198 5.877-4.879 3.874-11.137 5.827-17.354 5.049-34.066-10.798-73.382-16.151-101.646-30.905-36.76-22.83 13.216-74.068 29.263-94.562 8.667-11.177 17.242-22.588 28.127-31.75 21.707-19.067 48.823-31.622 76.272-40.594 16.225-5.262 32.531-9.614 49.095-13.334 1.817-.228 3.661-.456 5.225-.486zm110.53 83.119c4.19.86 4.919 6.177 4.958 9.746.088 6.793-3.681 14.98-11.129 15.95-8.95 1.639-6.198-6.644-5.748-12.55.427-2.538.138-5.418 2.418-7.144 2.435-2.516 5.436-5.966 9.5-6.002zm-134.528.824c.314-.03.639-.023.975.026 5.73 1.639 8.508 7.923 9.794 13.271 2.38 7.064-8.652 23.454-13.167 17.858-.797-10.068-5.227-19.385-2.518-27.108 1.058-1.833 2.719-3.836 4.916-4.047zm-28.691 2.422c.337-.037.68-.027 1.015.002 7.002 1.411 12.773 6.707 16.492 12.611 2.442 3.65 3.17 9.328-.834 12.229-2.105 2.007-6.142 3.36-7.988.295-3.404-6.157-13.6-20.994-9.662-24.861.318-.174.686-.204.977-.276zm135.234 4.924c.26-.005.522.013.781.053 8.748 2.25 13.096 14.583 7.04 21.58-1.076 1.366-2.657 3.617-4.526 1.91-3.386-2.375-6.177-5.906-7.67-9.73-.292-4.333-.973-9.576 2.219-13.044.61-.525 1.375-.754 2.156-.77zm44.844 2.967a8.87 8.87 0 0 1 1.256.158c14.15 8.602-3.62 35.896-10.786 16.01-5.202-5.527 4.993-16.219 9.53-16.168zm-196.578 2.912c.436 0 .87.023 1.29.05 7.47 1.144 15.022 5.99 17.555 13.354 1.625 5.14-1.592 10.188-5.115 13.62-3.33.675-5.857-2.659-8.123-4.647-3.087-3.448-7.058-6.875-8.627-11.055-1.241-3.118-3.35-7.409-.68-10.326 1.054-.815 2.389-1 3.7-.996zm65.003 8.385c5.874.338 10.026 7.136 7.413 12.482-2.587 5.646-8.077 9.531-13.664 11.855-3.61 1.174-5.616-3.17-6.15-5.964.167-6.287 6.238-18.796 12.401-18.373zm151.374 1.697c.346.021.699.065 1.056.133 5.806.884 9.072 8.087 5.979 13.058-2.011 3.708-5.61 6.231-8.844 7.989-3.968 2.061-10.59.108-11.436-4.666.107-2.67 1.686-5.033 2.4-7.588 1.771-4.46 5.654-9.242 10.845-8.926zm-80.165 3.775a18.103 18.103 0 0 1 1.836.012c6.635.698 14.051 4.373 16.135 11.139.536 2.469.041 5.684-1.816 7.369-6.397 1.713-14.08.483-18.729-4.455-1.852-3.526-4.394-7.958-2.383-11.912 1.125-1.57 3.07-2.058 4.957-2.153zm-156.033 1.465c.398.015.788.063 1.13.12 7.542 1.91 14.278 7.345 17.737 14.314 2.44 4.318-.314 10.783-5.476 11.088-5.443-.14-8.314-5.728-10.977-9.71-2.643-4.31-6.003-8.954-5.19-14.296.31-1.296 1.583-1.56 2.776-1.516zm253.301 5.877.379.008h.072c4.92.958 6.86 6.82 6.961 11.266.141 4.682-2.443 9.443-6.83 11.308-6.018 3.32-18.606 4.762-17.33-4.525 1.601-4.262 15.183-17.726 16.748-18.057zm-266.98 8.002c7.57.937 14.646 6.304 17.517 13.385 1.448 3.762.352 8.709-2.86 11.09-6.276.36-11.439-4.248-15.491-8.508-1.52-4.878-7.727-16.214.834-15.967zm99.267 7.227a21.03 21.03 0 0 1 2.078.066c3.008.365 6.86 1.109 8.262 4.15.486 3.109-2.135 5.98-4.564 7.95-2.902 2.655-6.66 5.003-10.754 3.845-2.713-.695-5.864-1.988-7.256-4.488-1.214-4.484 1.728-9.16 6.123-10.41 1.954-.724 4.03-1.077 6.111-1.113zm76.031 2.74c4.392.284 9.47.524 12.807 3.726.552 2.292-2.394 3.649-3.973 4.81-3.316 2.22-7.432 3.353-11.373 2.925-2.238-.255-4.519-.545-5.879-2.553-1.642-1.668-4.494-4.921-1.718-6.85 3.01-1.838 6.697-2.037 10.136-2.058zm99.567 6.494v.002c5.416 1.21 6.006 8.585 3.46 12.629-2.89 4.97-8.96 7.698-14.587 6.365-5.418-.987-11.237-3.507-14.053-8.49-1.079-3.018 3.245-3.544 5.322-3.762 9.035 3.254 14.097-6.807 19.858-6.744zm-280.158 8.844c6.84.385 14.36 2.217 19.058 7.537 2.583 2.886.582 7.778-2.582 9.117-6.733 1.58-15.415 2.081-20.166-3.955-4.318-4.996-7.678-12.121 1.807-12.654.627-.015 1.255-.03 1.883-.043zm250.46 9.73h.003c7.1.485 14.279 4.262 18.09 10.371 2.88 5.567-2.63 9.934-6.708 12.328-11.334 3.028-17.931-14.49-16.13-20.654.906-1.676 3.006-2.052 4.746-2.045zm-5.074 22.447c-3.46 16.107-9.808-5.786-9.492-12.548.862-18.179 8.24 7.86 9.492 12.548zM297.27 477.201v.002c4.323-.094 8.585 4.018 7.12 8.463-1.783 5.719-7.44 9.037-12.544 11.402-5.979 1.158-11.19-3.666-14.242-8.312-3.78-9.534 12.555-11.796 19.666-11.555zm371.406 13.8c5.321 13.285 5.59 27.945 7.256 42.132 6.174 39.242-3.676 84.354-15.696 117.662-12.844 34.63-29.846 66.885-56.685 92.594-4.831 4.56-14.742 15.313-20.205 8.447-27.101-31.003-69.753-58.88-78.856-94.303-.284-6.38.31-12.915 2.498-18.947-.446 10.58 6.887 6.893 11.489 15.176 3.456 5.526 6.169 13.007 13.197 14.75 3.754.796 7.581-.426 10.91-2.12 3.608 4.835 9.401 9.908 15.893 7.993 8.373-2.445 12.688-13.275 21.666-13.264 17.435.023 14.24-17.569 18.056-25.26 5.765-11.615-.354-12.553-4.474-19.437 4.577-3.52 10.777-4.086 15.556-7.36 3.607-1.903 5.659-6.573 3.52-10.296-1.103-2.287-2.875-4.167-4.711-5.883 5.048-5.5 9.203-13.058 7.963-20.748-1.048-6.266-7.636-9.403-13.418-9.711 1.607-5.095 2.562-12.012-2.28-15.703-7.51-5.332-18.207-2.092-25.433-8.067-7.647-15.187-28.413-2.407-37.647 4.932-5.351 4.285-7.448 11.68-5.763 18.24-3.718-4.53-6.181-11.301-4.08-16.54 11.69-29.158 83.731-47.987 115.27-61.823 11.362-5.485 20.728-5.446 25.974 7.537zm-351.883-8.911c4.691 1.321 6.154 7.215 5.82 11.543-.484 7.682-8.436 12.895-15.732 11.96-2.917-.014-7.185-2.158-5.768-5.657 5.382-4.401 11.284-16.35 14.64-17.788a2.89 2.89 0 0 1 1.04-.058zm-89.248 32.539c19.475 7.905 41.506 7.716 60.26 17.65 7.992 4.175 14.288 11.939 15.28 21.073.237 2.901 1.116 6.473-.7 8.808 3.08-19.385-11.529-18.536-25.447-24.115-5.42-2.544-12.712-3.534-17.305 1.162-1.7 1.568-2.993 3.535-4.057 5.576-6.526-2.008-14.528-1.04-18.972 4.615-5.696 6.677-7.182 15.766-11.842 23.032-6.589 10.81-2.692 29.402 1.144 39.285 1.79 4.11 6.22 6.178 10.418 6.88-4.637 4.429-5.348 11.58-2.875 17.294 3.683 20.517 14.008 21.106 27.303 32.611 5.147 4.478 11.642 9.67 18.941 7.695 2.832-.768 5.37-2.377 7.536-4.326 13.946 2.175 27.456-5.218 37.013-14.851 3.997-4.05 7.562-8.538 10.49-13.42 4.984 4.11 3.465 11.437 1.584 16.748-5.192 13.584-14.205 25.071-23.334 36.306-5.534 6.465-11.436 12.651-15.957 19.909-77.468 123.469-137.96-105.475-137.28-173.092 1.28-11.466 1.89-35.363 10.362-39.774 19.24-5.302 40.287 7.134 57.438 10.934zm153.324-2.488c10.971 9.827 24.228 18.61 39.309 19.69 10.696.832 21.228-4.279 28.029-12.411-2.972 6.98-6.608 14.423-5.082 22.223 1.267 12.984 8.646 25.046 19.47 32.289 4.28 3.016 8.954 5.452 13.788 7.45-19.69-3.614-42.009 4.539-52.498 22.083-3.233 5.352-5.143 11.472-5.649 17.7-2.367-8.164-4.103-16.923-9.29-23.856-6.14-7.627-39.231-15.957-39.231-15.957 55.978-17.406 5.672-74.37 11.154-69.211zm182.258 25.498c5.787 1.47 9.122 7.728 9.826 13.3.84 5.53-3.317 10.524-8.474 11.975-1.842.666-4.666 1.975-5.692-.568-1.807-4.42-1.76-9.382-2.133-14.053.62-3.797 1.175-8.913 5.211-10.582a3.546 3.546 0 0 1 1.262-.072zm-296.707 4.916.348.029c5.788 1.789 11.008 6.793 12.191 12.484 3.408 16.398-5.615 20.24-12.502-.681-1.451-4.408-4.345-10.31-.377-11.826zm322.98 6.28c5.304-.105 7.17 6.442 5.9 10.704-1.293 6.476-8.364 9.74-14.478 8.934-2.735-.07-7.077-1.062-6.482-4.674 1.605-6.535 6.628-12.466 13.078-14.621.648-.185 1.305-.336 1.982-.342zm-46.9 1.24c.49-.029.98-.016 1.457.03 5.499.41 9.461 6.19 7.973 11.473-.783 3.508-2.497 6.955-4.77 9.662-3.556-.535-5.292-4.498-7.107-7.226-1.931-3.609-4.37-8.572-1.522-12.32 1.04-1.075 2.5-1.535 3.969-1.62zm-249.785 1.427c4.283.35 4.548 5.623 3.627 8.832-1.831 7.339-7.046 18.161-10.092 8.47-1.414-2.403-2.302-5.084-1.773-7.86-1.226-4.795 3.47-9.673 8.238-9.442zm-47.889.373c.449-.008.896.002 1.338.018 7.03.799 14.51 4.4 17.73 10.992 1.584 3.622-.307 9.147-4.421 9.957-7.711-.866-30.271-12.771-18.551-20.137 1.204-.625 2.558-.806 3.904-.83zm-7.25 19.871a16.83 16.83 0 0 1 2.254.1c6.584.79 13.674 5.69 14.158 12.748-.281 4.547-5.766 5.614-9.453 5.564-8.431.64-18.92-1.345-18.406-11.402.463-2.535 2.336-4.856 4.879-5.58a17.93 17.93 0 0 1 6.568-1.43zm359.53.004c4.095.214 9.252.316 11.9 3.92.813 3.735-2.966 6.45-5.387 8.697-2.578 2.94-6.727 2.787-10.162 1.705-2.516-.813-5.346-1.03-7.795-1.51-2.342-2.107-5.394-6.284-2.226-9.011 3.727-3.077 9.007-3.668 13.67-3.8zm-8.74 21.791c5.176.19 11.416.452 15.009 4.71 4.696 13.29-17.496 9.138-22.205 6.284-2.599-1.617-6.203-3.121-6.918-6.373 1.536-3.095 5.69-3.505 8.746-4.18 1.774-.295 3.572-.392 5.367-.44zm-342.659.738c5.532.008 11.902 2.464 14.238 7.817 1.015 4.175-3.997 6.067-7.181 6.992-3.907 1.024-7.646 3.217-11.856 2.576-4.42-.4-10.25-2.778-10.512-7.869 1.017-5.168 6.856-6.748 11.006-8.71 1.37-.52 2.844-.755 4.305-.806zm327.088 20.278c.482-.003.958.012 1.406.015 7.281.897 14.897 4.163 19.15 10.368 2.54 3.591.214 8.738-3.345 10.486-7.729.446-14.466-4.81-18.44-11.043-1.522-2.497-4.067-5.59-2.753-8.615 1.03-1.045 2.536-1.203 3.982-1.211zm-316.754 2.9v.002c4.295-.194 10.304 1.646 10.695 6.672-.655 5.474-6.218 8.213-10.353 10.94-5.22 2.474-12.253 2.701-16.848-1.18-2.945-3.213.59-7.264 3.086-9.487 3.544-3.425 7.699-6.743 12.875-6.908.183.015.362-.044.545-.039zm271.86 5.065c4.136.784 3.898 6.177 2.775 9.287-1.908 5.76-7.355 9.404-12.965 10.966-1.192.885-3.451 1.262-3.576-.808-.66-4.69.363-10.014 3.44-13.688 2.868-2.629 6.191-5.758 10.325-5.757zm-218.247 6.16c1.129-.083 2.323.056 3.301.1 5.94.985 12.681 3.573 15.428 9.337-.232 21.544-19.527 4.107-21.637-8.207.717-.844 1.78-1.148 2.908-1.23zm256.016 3.775c.397.002.79.02 1.17.037 7.235 1.152 14.543 5.526 17.6 12.387 1.688 3.906-.207 10.097-5.094 10.193-7.158.231-12.975-5.686-15.774-11.8-1.284-2.984-3.465-6.898-1.25-9.9.936-.773 2.156-.921 3.348-.917zm-27.803 2.815c3.754 1.491 4.161 6.391 4.541 9.906.259 5.752-.988 11.867-4.71 16.402-4.068 1.802-8.826-.776-9.989-4.96-1.954-5.15-.356-10.844 2.861-15.106 1.824-2.498 3.903-5.974 7.297-6.242zm-270.842 2.53c4.312-.052 7.155 4.962 4.993 8.663-14.174 21.264-42.64-.08-4.993-8.662zM551.5 640.38h.002c5.29 1.79 8.27 7.228 10.555 11.982 1.895 4.583 3.604 10.597.28 14.924-5.247 2.306-11.484-.77-13.6-5.922-2.537-5.157-1.603-11.15-.83-16.615.484-1.762 1.246-4.641 3.593-4.37zm-251.7.576c6.522-.304 12.37 6.301 10.608 12.748-8.694 22.434-22.947 3.719-16.314-9.566 1.209-1.959 3.425-3.13 5.707-3.182zm-16.43 3.92c4.326 1.227 5.018 6.765 4.79 10.621-.483 6.607-4.903 12.935-11.088 15.34-5.564.381-12.191-6.903-8.652-11.516 3.953-5.152 10.51-14.008 14.95-14.445zm203.19 27.375c19.145 13.831 31.042 34.752 45.137 53.184 9.503 13.103 31.71 29.277 28.48 43.906-7.824 19.979-29.018 28.8-46.991 33.28-50.798 25.757-192.307 23.914-229.649-18.893-3.881-9.52.247-19.964 5.656-27.979 9.542-14.567 23.205-26.255 30.873-42.06 10.258-14.148 19.142-29.61 33.088-40.415 6.692-5.318 16.086-8.409 24.305-4.812-2.443.011-5.968.744-8.348 2.402-22.73 17.425-30.814 40.752-20.293 67.024 2.367 5.969 8.996 9.298 15.235 8.445 2.52-1.142 1.688 1.695 2.295 3.152 1.235 6.821 7.342 11.688 13.96 12.844 18.103 2.888 28.125 4.958 37.264-6.377 3.11 4.34 6.393 9.57 12.13 10.444 8.391 1.278 9.792-6.965 19.493-7.307 6.683-.472 14.836.285 19.614-5.424 2.07-2.553 2.998-5.826 3.314-9.05 7.012-1.11 13.224-6.204 15.148-13.118 2.708-17.212 13.798-27.848 1.852-39.566-6.847-9.505-12.84-20.871-24.086-25.836-3.315-.783-.12-1.353 1.45-1.662 7.324-1.15 14.588 4.156 20.074 7.818zm-23.171.648a12.27 12.27 0 0 1 1.529.065c4.517.279 5.939 5.66 4.424 9.264-2.544 8.21-21.765 15.108-22.672 9.183-.526-5.725 2.056-11.874 6.6-15.422 3.162-1.506 6.567-3.024 10.119-3.09zm-86.248 5.557c5.415.074 11.984.472 15.625 5.045 2.197 3.743-.573 8.17-3.047 10.988-2.686 1.028-20.2-4.86-20.89-5.463-10.54-8.231.452-9.968 8.312-10.57zm99.293 14.652c4.24.151 9.65.283 11.966 4.489 6.383 25.938-71.734 8.047-11.966-4.489zm-114.11 2.93a10.264 10.264 0 0 1 1.75.024c5.301 2.017 14.248 1.877 17.002 6.044-.034 3.552-3.921 5.495-6.646 7.069-5.384 2.357-22.73 5.917-24.559 2.021-.903-5.481 3.055-10.769 7.508-13.558a11.032 11.032 0 0 1 4.945-1.6zm102.758 18.47c6.358.2 13.425 2.081 17.56 7.227 2.892 3.94-.69 8.464-3.867 10.875-2.542 2.643-7.342 3.963-9.877.567-1.83-2.075-2.529-4.87-4.824-6.557-2.327-2.697-5.42-5.657-5.283-9.482.899-2.416 4.141-2.464 6.291-2.63zm-89.89.815c.544.001 1.09.028 1.638.086 3.64.122 4.853 4.228 3.766 7.184-2.158 7.182-7.825 13.278-14.617 16.316-4.234 1.559-10.495 1.173-12.157-3.812-2.423-7.292 3.082-15.347 10.293-17.096 3.523-1.363 7.262-2.683 11.076-2.678zm74.853 12.23c.287.017.572.052.848.096 6.877 1.885 12.741 7.928 14.123 14.97 1.04 6.101-5.504 12.158-11.489 9.962-5.392-1.9-6.941-8.334-6.767-13.46-.605-3.538-1.798-7.987.847-10.956.701-.539 1.578-.66 2.438-.611zm-62.09.708.281.008c3.54 1.232 3.956 5.805 4.428 9.027.43 7.063-.951 14.987-6.266 20.065-3.958 1.722-9.325.404-10.808-3.987-2.222-5.372-.252-11.404 3.08-15.847 2.365-3.585 4.82-8.163 9.285-9.266zm18.684 1.174c4.31 1.643 5.59 6.87 6.472 10.959.91 5.792.454 12.535-3.457 17.13-2.828 2.039-7.253 1.764-8.95-1.572-4.513-7.851-2.744-18.27 2.921-25.06.771-.817 1.816-1.636 3.014-1.457zm21.662 1.806a4.44 4.44 0 0 1 1.265.024c9.228 2.245 13.951 14.268 9.45 22.486-1.182 2.035-2.463 4.465-4.526 5.61-13.023.384-12.65-19.743-9.289-26.178.682-1.104 1.848-1.787 3.1-1.942z" transform="translate(-11.104 -32.345) scale(.15402)"/></svg>