<svg width="400" height="400" viewBox="0 0 105.833 105.833" xmlns="http://www.w3.org/2000/svg"><path style="fill:#000;stroke-width:.685565" d="M556.75 122.158c-11.848-.277-31.76 12.03-39.99 18.883-23.603 19.65-52.78 30.935-81.649 40.184-19.823 6.35-42.402 7.661-58.927 21.07-22.286 18.083-51.213 41.62-61.733 64.336-25.815 55.745-19.967 99.775-29.864 158.614-12.622 75.04-5.503 128.937.464 193.41 2.503 27.041-9.82 46.83-9.813 69.769.012 41.218.704 70.86 19.055 107.285 22.74 45.136-24.36 204.122 19.844 218.82 38.418 12.775 75.645-22.184 114.42-26.562 23.918-2.7 45.084 9.191 64.47 13.98 44.588 11.016 44.624-29.777 30.375-106.814-11.037-59.678-27.098-85.973-21.894-127.078 11.197-88.441-22.948-92.9-10.385-159.918 10.37-55.322 3.525-112.018 1.143-164.364-3.416-75.028 76.742-207.424 73.787-311.742-.2-7.02-3.918-9.747-9.303-9.873zm-15.018 12.139c22.678-1.77-4.264 66.933-8.693 85.978-15.568 66.939-53.586 163.057-50.719 222.149 3.07 63.249 10.708 87.832-.937 165.457-5.427 36.171 12.006 88.426 8.943 159.295-2.536 58.68.76 52.345 8.377 84.338 5.794 24.332 8.18 27.924 8.747 46.619.78 25.712 41.871 90.663-12.821 82.615-107.799-15.863-201.314 66.763-189.99-68.564 3.67-41.83 3.893-94.48-6.873-124.74-13.172-37.023-16.947-68.878-17.362-97.065-.286-19.434 14.472-55.864 13.565-72.5-.848-15.54-1.546-24.742-3.418-42.55-5.053-48.082-6.574-82.187 1.87-128.046 10.323-56.072-2.172-133.955 29.49-179.912 24.362-35.362 66.363-64.579 111.777-76.271 28.878-7.436 60.795-26.43 89.882-47.807 8.061-5.924 13.963-8.668 18.162-8.996zM407.783 794.166c-13.352 0-26.792.519-39.969 2.637-10.693 1.719-22.651.507-31.867 7.183-5.469 3.963-8.558 10.303-11.76 16.09-10.442 20.768-11.229 44.755-9.507 67.492 1.182 11.95 2.145 23.9 4.54 35.737 6.86 33.883 28.223 47.942 59.696 48.379 24.885.345 49.943-1.06 74.348-6.004 10.935-2.216 22.553-4.73 30.43-13.341 14.886-16.273 9.521-51.447.072-64.866-4.522-6.421-14.283-8.103-22.235-6.983-26.145 14.747 11.123 61.85-21.492 63.264-40.132 1.74-99.843 14.023-97.016-35.617 2.109-37.012 14.53-117.744 72.444-92.528 28.35 12.345 25.391 23.18 21.15 17.858-13.407-13.191-37.556-19.162-52.117-7.543-59.59 47.547-20.028 109.135 13.33 111.584 21.814 4.557 40.607-23.567 42.922-39.723 2.084-14.544-5.217-22.929-10.07-37.056-1.903-5.538 14.118-3.829 15.603-9.409 4.506 18.93 34.196 29.3 34.547 4.711.254-17.788-9.887-41.915-20.633-52.492-5.31-5.227-12.782-7.36-20.058-7.809-10.732-1.28-21.553-1.564-32.358-1.564zm-15.433 3.928c9.17-.06 17.948-.01 25.31.33 16.512.762 41.618 2.27 47.799 18.537 4.689 12.34 9.41 27.015 9.924 40.27.482 12.458-18.975 7.344-19.463 3.634-2.146-16.295-9.035-31.79-22.094-42.57-18.022-14.877-51.307-14.217-71.756 2.992-25.965 21.853-29.917 79.872-21.775 106.629 7.051 23.173 28.718 26.844 51.941 24.826 21.964-1.908 78.898 13.579 69.516-44.633.666-7.141-1.413-14.974 2.65-20.414 4.539-6.075 13.961 5.168 16.924 11.836 3.244 7.3 2.982 15.356 3.94 23.143 4.196 34.117-27.336 33.56-50.575 38.994-15.57 3.642-31.893 2.471-47.86 3.217-11.506.537-23.221-.46-34.302-3.725-7.643-2.252-14.714-7.182-18.174-14.746-8.011-17.516-11.112-36.339-13.013-55.312-2.127-21.22-2.098-44.695 4.586-65.282 7.78-23.964 38.908-27.55 66.422-27.726zm12.355 29.69c12.783-.104 28.627 5.02 32.658 17.456 4.438 13.69-11.833 8.159-17.07 6.623-6.745-1.977-8.614 3.664-7.379 5.094 2.23 2.584 6.106 2.322 8.738 4.69 12.28 11.042 15.522 29.452 10.555 44.67-3.957 12.124-14.325 22.367-27.23 24.152-7.495 1.036-15.344-.265-21.938-3.211-11.028-4.927-19.19-15.507-20.82-27.643-2.268-16.888-2.284-35.397 7.066-50.187 7.905-12.506 21.705-21.534 35.42-21.645zm-13.862-215.568c-13.35.248-26.791.52-39.968 2.637-10.694 1.719-22.652.508-31.868 7.184-5.469 3.962-8.737 10.207-11.76 16.09-10.623 20.675-11.41 44.769-9.507 67.492 1.002 11.965 1.463 24.058 4.54 35.736 3.08 12.536 5.843 26.318 14.587 35.797 10.959 11.88 29.44 12.446 45.11 12.582 24.886.216 50.047-.569 74.347-6.004 16.228-3.63 35.621-12.523 36.165-26.203 1.013-28.852-4.03-68.725-27.898-58.986-18.934 7.725 11.124 61.849-21.492 63.263-40.132 1.74-99.843 14.024-97.015-35.617 2.108-37.011 14.53-117.744 72.443-92.527 28.35 12.344 25.392 23.18 21.15 17.857-13.407-13.19-37.555-19.161-52.117-7.543-59.59 47.547-37.72 109.024-4.633 113.927 43.332 6.422 64.038-6.384 66.352-22.54 2.084-14.544-10.684-42.454-15.537-56.582-1.903-5.538 14.118-3.829 15.603-9.408 4.506 18.93 34.196 29.3 34.547 4.71.254-17.788-9.887-41.915-20.633-52.492-5.31-5.227-12.802-7.112-20.058-7.808-10.759-1.032-21.554-1.68-32.358-1.565zm-15.433 3.928c9.171-.059 17.94.26 25.31.33 16.498 1.032 41.618 2.27 47.8 18.537 4.688 12.34 9.41 27.015 9.923 40.27.482 12.459-18.64 7.285-19.463 3.635-1.81-16.337-9.034-31.79-22.094-42.57-18.022-14.878-51.307-14.218-71.755 2.992-25.966 21.852-29.125 79.643-21.776 106.628 7.836 22.92 28.718 26.844 51.942 24.827 21.963-1.909 78.898 13.578 69.515-44.633.666-7.142-1.413-14.975 2.65-20.414 4.539-6.076 14.16 5.083 16.924 11.836 3.441 7.21 2.982 15.355 3.94 23.142 4.197 34.118-27.336 33.56-50.574 38.994-15.571 3.642-31.894 2.472-47.862 3.217-11.505.537-23.22-.46-34.3-3.724-7.644-2.253-14.714-7.182-18.174-14.747-8.012-17.516-11.398-36.312-13.014-55.312-2.412-21.19-2.098-44.694 4.586-65.281 7.78-23.964 38.908-27.55 66.422-27.727zm12.355 29.69c12.784-.103 28.627 5.021 32.658 17.457 4.439 13.688-11.833 8.158-17.07 6.623-6.745-1.978-8.505 3.576-7.379 5.093 2.334 2.491 6.106 2.323 8.739 4.69 12.278 11.042 23.482 45.168 15.63 59.119-12.593 22.378-51.189 16.416-69.083 8.445-11.033-4.915-15.676-20.089-15.353-32.329.466-17.67 7.089-32.663 16.438-47.454 7.906-12.505 21.705-21.534 35.42-21.644zm.534-219.944c-13.35.248-26.792.519-39.969 2.637-10.694 1.719-22.652.507-31.867 7.183-5.47 3.963-8.737 10.208-11.76 16.09-10.624 20.676-11.41 44.77-9.508 67.492 1.002 11.966 2.145 23.9 4.541 35.737 6.86 33.883 28.222 47.942 59.696 48.379 24.885.345 49.842-1.583 74.347-6.004 64.019-20.244 11.993-98.092 7.297-82.018-26.359 90.23-118.936 67.482-117.537 24.475 1.205-37.052 14.53-117.744 72.443-92.528 28.35 12.345 25.392 23.18 21.15 17.858-13.406-13.191-37.555-19.162-52.116-7.543-59.59 47.547-19.852 107.37 13.33 111.584 22.107 2.807 40.607-23.567 42.922-39.723 2.083-14.544-5.218-22.929-10.07-37.056-1.903-5.538 14.118-3.829 15.603-9.409 4.505 18.93 34.196 29.3 34.547 4.711.254-17.788-9.887-41.915-20.633-52.492-5.31-5.227-12.802-7.112-20.059-7.809-10.758-1.032-21.553-1.68-32.357-1.564zm-15.434 3.928c9.172-.06 17.941.26 25.31.33 16.498 1.031 41.618 2.27 47.8 18.537 4.689 12.34 9.41 27.015 9.923 40.27.483 12.458-18.64 7.284-19.462 3.634-1.81-16.336-9.035-31.79-22.094-42.57-18.023-14.877-51.308-14.217-71.756 2.992-25.966 21.853-29.917 79.872-21.775 106.629 7.05 23.173 28.696 26.571 51.94 24.826 69.574-5.222 59.841-42.233 68.463-59.142 3.444-6.755 9.663 1.912 12.427 8.665 3.441 7.21 4.293 12.728 5.892 20.409 5.93 28.49-21.088 33.56-44.326 38.994-15.571 3.642-31.893 2.471-47.861 3.217-11.505.537-23.22-.46-34.301-3.725-7.643-2.252-14.714-7.182-18.174-14.746-8.012-17.516-11.398-36.313-13.014-55.312-2.411-21.19-2.098-44.695 4.586-65.282 7.78-23.964 38.908-27.55 66.422-27.726zm12.356 29.69c12.783-.023 28.626 5.02 32.658 17.456 4.438 13.69-11.833 8.159-17.07 6.623-6.745-1.977-8.614 3.664-7.38 5.094 2.23 2.584 6.107 2.322 8.739 4.69 12.279 11.042 15.522 29.452 10.555 44.67-3.958 12.124-14.325 22.367-27.23 24.152-7.495 1.036-15.344-.265-21.938-3.211-11.028-4.927-19.191-15.507-20.82-27.643-2.268-16.888-2.284-35.397 7.066-50.187 7.905-12.506 21.705-21.454 35.42-21.645zm22.859-242.694c-21.73-2.73-36.156 14.406-50.507 29.933-15.779 17.07-35.496 41.462-39.54 63.903-2.128 11.817-4.113 23.64-4.862 35.694-2.144 34.504 14.852 53.613 45.14 62.18 23.948 6.775 48.515 11.903 73.368 13.444 11.136.69 23.111 3.052 33.647-1.966 4.847-2.308 8.422-6.727 9.926-11.869 6.899-23.576 18.016-61.792-13.538-66.312-29.072 7.477-5.264 62.62-37.134 55.545-39.216-8.706-100.07-12.295-84.492-59.513 11.616-35.204 42.557-108.8 91.97-69.453 24.19 19.261 19.07 28.697 15.808 22.723-9.011-16.509-31.316-28.229-48.389-20.775-69.866 30.504-45.012 97.403-14.051 110.06 20.627 8.434 45.323-12.253 51.74-27.26 5.777-13.509.895-23.497-.136-38.4-.404-5.842 14.628-.044 17.507-5.049-.548 19.452 25.447 37.152 32.15 13.492 4.85-17.117 6.967-60.198-1.582-72.619-21.415-31.115-45.407-29.785-77.025-33.758zm14.774 7.206c35.068 7.185 59.18 23.165 63.001 58.624 1.414 13.126-1.807 27.36-4.742 40.295-2.759 12.159-19.89 2.212-19.74-1.527 2.48-16.248-2.452-31.873-12.276-45.666-13.557-19.035-44.78-30.31-70.085-15.682-29.381 16.985-47.618 68.236-46.678 96.189.813 24.208 20.884 32.868 43.746 37.423 88.51 17.635 60.878 3.34 86.542-44.152 3.605-6.672 12.148 8.605 13.284 15.812 1.244 7.892.284 15.927-2.185 23.374-14.23 42.933-75.167 21.956-106.006 15.296-11.258-2.431-22.31-6.454-32.168-12.476-6.8-4.153-12.354-10.745-13.738-18.947-3.205-18.993-1.611-38.025 1.746-56.796 3.154-21.092 20.865-40.98 32.65-59.136 13.718-21.134 40.026-39.58 66.649-32.63zm-4.341 53.354c12.374 3.209 28.304 11.088 28.98 24.143.743 14.371-13.542 4.818-18.203 1.98-6.003-3.657-9.269 1.309-8.446 3.01 1.485 3.073 5.297 3.823 7.227 6.79 9.002 13.845 7.37 32.467-1.367 45.88-6.96 10.687-19.626 17.899-32.554 16.282-7.507-.939-14.752-4.227-20.358-8.78-9.377-7.612-15.001-20.016-12.957-32.089 1.7-16.954 5.003-33.61 17.863-45.477 10.872-10.033 26.538-15.182 39.815-11.74z" transform="translate(6.228 -12.714) scale(.1143)"/></svg>