<svg width="400" height="400" viewBox="0 0 105.833 105.833" xmlns="http://www.w3.org/2000/svg"><g transform="translate(-7.183 -39.212) scale(.56617)"><path style="fill:#000;stroke-width:.132867" d="M23.896 124.978c-6.247 22.426-11.647 27.236-4.753 59.555 8.601 40.322 14.284 52.43 59.128 62.337 50.15 11.08 78.032 7.974 98.492-26.65 17.086-28.916 18.328-40.252 17.32-67.086-2.233-59.464-53.719-82.004-85.502-81.087-45.377 3.047-73.37 13.55-84.685 52.931zM125.11 79.941c-8.327 1.342-14 11.255-22.594 3.177-4.018-3.777-8.513-6.642-.647-6.865 7.048-.199 18.397.497 23.241 3.688zm-45.29-1.073c3.763-.825 8.077-1.303 3.816 4.952-4.682 6.873-3.725 12.224-13.611 10.445-6.577-1.183-17.58.858-9.726-5.626 5.799-4.788 12.425-8.215 19.52-9.77zm12.602 3.093c7.387-1.564 17.425 6.484 10.281 15.311-4.284 5.294-3.4 9.82-11.958 5.807-16.583-7.778-6.831-19.176 1.677-21.118zm41.459.095c8.256 2.826 17.518 6.089 22.954 13.127-8.073-.575-19.303 3.292-21.002-8.403-.245-1.686-1.174-3.205-1.952-4.724zm-6.263 20.182c-5.135 1.56-4.46 6.14-8.565.004-5.148-7.693-10.48-14.655 1.214-17.151 15.89-4.911 18.294 13.372 7.351 17.147zm-19.523-8.058c4.664 4.495 10.241 11 8.31 17.458-1.212 4.053-6.909 15.831-11.29 6.47-4.676-9.995-5.588-18.863 2.98-23.928zm-48.672 2.266c5.557.495 12.958-.768 11.722 9.292-.69 5.608 1.81 12.649-7.518 11.311-7.15-1.025-13.721.398-11.69-8.537 1.073-4.712.387-12.698 7.486-12.066zm-9.734.51c.396 7.382-2.236 14.537-1.446 21.988-5.354 3.991-12.28 5.726-18.435 8.914-5.927 3.068-.405-10.972 1.116-13.832 4.16-7.83 10.468-15.154 18.765-17.07zm96.205 1.356c9.003-1.483 15.813 3.254 16.404 13.583.636 11.097-10.112 5.681-15.579 5.294 1.51-5.629-6.875-16.126-.825-18.877zm-6.795 1.375c2.207 8.127 8.307 17.58-5.301 21.92-9.68 3.09-15.458-12.73-5.708-15.589 3.539-2.332 7.388-4.14 11.009-6.33zm-60.872.75c7.725 3.505 16.383 6.81 12.898 18.213-3.048 9.975-6.58 2.645-11.978 1.385-8.845-2.064-5.826-15.46-.92-19.598zm86.925 2.12c7.321 4.916 13.716 11.029 16.877 19.358 1.545 4.07 2.849 10.189-3.069 5.855-8.382-5.91-18.49-18.314-13.808-25.213zm-67.422 11.14c5.835 4.61 12.067 11.628 5.676 17.776-7.51 3.802-12.104-10.89-7.335-16.395l.728-.813zm22.249.72c5.403 4.875 3.907 19.602-4.572 15.98-6.244-6.986.374-9.761 4.572-15.98zm-53.183 6.24c7.073 1.862 2.737 12.871 3.243 17.957-6.85 3.936-14.19 1.982-14.75-6.544-2.866-12.612 3.014-11.247 11.507-11.412zm90.966.591c8.26-.024 5.16 17.669-3.583 17.379-11.145-.37-4.1-9.088-5.048-14.878.138-3.945 5.963-2.493 8.63-2.5zm-83.692.719c6.536 2.073 14.905 4.987 14.018 13.69-.854 8.388-14.471.444-14.068-4.452.253-3.07.164-6.159.05-9.238zm69.692.57c7.78 13.953-11.584 21.215-12.773 12.812-1.441-10.192 6.546-11.872 12.773-12.812zm-94.498 1.006c.192 7.38 10.154 15.645 5.156 20.993-4.635 4.96-12.042 12.498-17.55 9.699-3.714-5.794-9.88-13.641-5.951-20.564 3.688-6.5 11.878-7.99 18.345-10.128zm117.158.152c9.479 4.866 17.536 12.44 12.167 25.003-3.876 9.07-10.05-6.07-13.87-9.722-2.966-2.837 2.35-10.94 1.703-15.28zm-56.637 3.786c5.174 3.567 5.503 17.98-2.425 9.096-1.987-3.036.709-6.643 2.425-9.096zm15.856 1.972c5.014 5.273-.964 18.807-7.505 12.36-.796-5.31 3.681-9.482 7.505-12.36zm-32.728 1.698c7.702.794 7.665 17.896-.19 10.726-2.629-2.399-.948-7.256.19-10.726zm-67.43 4.683c.345 7.897 4.95 14.865 9.056 21.951-1.74 6.15-8.403 10.71-9.82 17.822-.814 4.083-3.914 5.327-3.454-.305.539-5.549-1.484-37.678 4.217-39.468zm159.753 1.093c4.374 7.8 3.665 18.406 2.457 27.519-.563 4.24-.597 9.904-3.277 2.567-1.924-8.417-4.18-24.322.82-30.086zm-76.582 6.541c-5.795 3.957-10.13-2.106-4.346-6.21 2.204 1.103 4.089 3.763 4.346 6.21zm36.97-3.005c5.88.777 12.96 1.282 8.16 8.838-2.785 5.904-15.345-4.142-8.16-8.838zm-4.516.397c1.2 4.303-6.946 13.025-9.754 11.684-6.398-6.218 3.81-12.54 9.754-11.684zm-73.51 1.794c6.76-.687 16.359 9.92 6.465 12.719-7.396 7.773-9.378-6.858-15.666-9.32 2.857-1.614 5.95-2.872 9.2-3.399zm106.433 17.95c-2.417 6.787-9.734 9.242-13.168 1.071-2.318-5.516-8.752-13.151-.789-17.208 5.853-1.42 15.069 12.46 13.957 16.137zM82.12 143.049c4.471-.173 13.316 3.928 6.832 7.11-4.18 2.143-7.296 2.985-9.535-2.22-1.864-4.334-.82-5.068 2.703-4.89zm-25.912 4.277c2.053 7.074 15.126 11.486 4.796 18.155-3.73 2.408-4.562 10.909-10.212 4.333-4.668-5.432-12.393-10.742-3.342-15.742 3.229-1.784 5.685-4.702 8.758-6.746zm89.164 9.834c-5.998 3.812-13.478-.89-6.449-4.403 2.479-1.184 17.85-2.84 6.449 4.403zm-54.551-4.019c6.259 1.504-4.085 14.425-6.303 4.283-1.035-4.736 3.554-4.944 6.303-4.283zm19.789-1.548c12.732-1.74 12.276 19.05-.369 16.895-11.35-.396-11.911-17.753.369-16.895zm43.233 4.94c2.38 5.143 14.175 14.479 3.472 17.055-5.74 3.87-13.026 3.19-13.352-4.87-7.479-7.604 5.551-8.787 9.88-12.186zm-73.378.004c9.694 2.579-1.33 17.106-6.58 7.692-6.186-4.382 3.616-8.48 6.58-7.692zm-42.004 5.207c3.1 5.75 9.738 9.088 13.665 14.757-.636 5.484-5.15 13.238-9.702 15.864-8.069-2.07-17.405-10.876-12.577-19.69 1.769-4.4 4.722-8.185 8.614-10.931zm138.53.633c6.777 6.07 7.712 17.162-.135 22.777-6.704 6.89-4.966-9.953-8.873-13.085 2.1-4.393 5.47-6.912 9.007-9.692zm-90.553 2.278c5.252 3.707 1.337 13.863-3.897 6.245-1.63-2.552 2.703-4.492 3.897-6.245zm-19.454.926c5.389-.058 13.629 3.62 5.797 10.201-6.213 5.222-19.662.88-10.493-6.165 1.46-1.367 2.666-3.454 4.696-4.036zm71.066 1.356c8.622 4.586 1.636 12.953-6.563 8.963-8.748-4.256 2.237-13.948 6.563-8.963zm-44.455 3.066c7.422 3.04 5.348 9.978-2.634 11.468-10.239 1.91.716-10.274 2.634-11.468zm95.599 3.588c-2.87 10.834-3.07 22.314-8.638 32.48-2.64 4.82-5.9 9.546-5.141.467.725-8.663-1.35-16.194 6.94-22.278 3.463-2.542 5.92-6.178 6.839-10.669zm-107.797.079c11.869 2.387-6.955 14.636-5.896 5.05.275-2.488 3.37-5.558 5.896-5.05zm81.853 1.074c4.89 3.248 11.47 16.355.442 20.011-7.451 2.47-13.995 3.685-14.16-6.3-.08-4.812-3.966-9.865 3.77-9.445 3.84.208 5.943-4.034 9.948-4.266zm-57.635 3.276c9.829-.188 7.46 13.113.004 17.325.9-7.15-10.606-17.124-.004-17.325zm-49.306.708c6.566 1.998 13.676 1.724 11.25 12.303-2.207 9.617-14.27 6.738-18.981 3.959-.352-6.32 5.568-10.839 7.73-16.262zm73.048.047c6.31 3.804 14.456-.368 16.666 8.582 1.858 7.525.533 11.21-7.57 6.88-7.003-3.741-12.81-7.872-9.096-15.462zm-33.487 4.502c5.016 1.245 7.154 11.018 7.553 14.256-4.84 4.637-14.321 10.632-15.764-1.08-1.033-8.386-.013-12.872 8.21-13.176zm-19.011 1.117c9.737-1.09 9.906 12.798-1.012 12.504-8.918-.24-5.056-9.956-1.888-11.963.917-.58 1.923-.431 2.9-.54zm-51.287.038c4.29 6.22 10.91 10.041 17.135 14.017.76 5.76-3.17 15.432-4.77 18.254-6.11-11.707-15.985-20.825-12.365-32.272zm90.956 2.002c4.99 2.61 9.57 4.552 7.283 11.886-1.522 4.88-.988 15.551-7.726 8.22-5.046-6.716-7.296-17.853.443-20.106zm11.314 6.384c7.37 5.957 23.456 5.38 19.332 19.295-1.711 5.773-2.615 13.562-9.842 7.97-5.242-4.055-19.353-3.405-12.461-13.109 2.272-4.476 3.4-9.12 2.97-14.156zm43.691 2.352c1.266 7.061 3.592 18.583-4.002 22.966-4.319 2.492-21.083 8.86-16.618-1.999 2.931-7.13-3.314-17.06 8.768-15.903 4.582.438 7.45-4.512 11.852-5.064zm-124.525 3.763c5.94 4.178 21.603-2.366 19.977 6.539-1.105 6.051 5.261 16.883-6.134 15.782-6.022-1.772-22.329 3.165-17.943-8.34.947-4.776 2.72-9.325 4.1-13.98zm34.399.191c8.421 3.468 4.917 11.84-1.944 14.714-4.436 4.14-10.019 8.572-9.801-1.274.208-9.413 2.097-14.776 11.745-13.44zm23.605 1.151c4.95 2.916 9.82 10.718 13.488 12.791-3.529 5.3-14.692 16.09-20.403 8.49-1.63-4.054-8.57-10.653-6.966-13.32 4.472-2.784 9.776-4.281 13.88-7.961zm-16.023 28.911c-7.833 3.411-15.586 6.747-16.286-3.819-.324-5.739 8-10.236 14.124-10.883 7.849-.83 13.097 11.516 2.162 14.702zm32.3-12.313c4.49 5.264 17.36 4.662 18.517 10.716-5.872 8.374-14.735 19.025-25.525 8.905-3.911-3.669-13.335-7.782-3.64-11.71 5.856-2.374 6.625-5.937 10.648-7.911zm-82.097 4.644c9.351 3.528 19.932 3.423 29.654 2.82-.933 6.252 8.166 13.408 5.735 17.298-9.325-.619-18.457-4.162-25.122-10.847-3.502-3.001-6.802-6.228-10.267-9.27zm128.706.955c-4.891 7.534-10.819 14.743-18.575 19.394-8.716 2.86-18.092 5.629-27.369 3.546-4.53-.518-9.425-2.583-2.537-2.906 10.681 1.537 17.506-9.784 25.478-14.88 7.246-2.779 15.51-2.773 23.003-5.154zm-70.697 5.783c2.293 5.396 16.703 11.947 14.066 15.952-8.85 1.668-23.023 2.01-30.716-3.875-5.121-3.653-4.24-4.268 4.246-5.797 7.133-1.286 7.657-5.156 12.404-6.28zm2.344-72.784c-7.2-5.7-2.099-13.13 4.918-5.8-.13 2.506-2.314 5.506-4.918 5.8zm-.501 8.294c-7.97 2.097-9.886-4.802-1.004-6.897 1.844 1.636 3.384 6.27 1.004 6.897zm28.88-.81c-6.166 3.35-10.304-6.166-3.212-6.209 5.152-.031 7.718 3.762 3.212 6.21zm-5.123 9.66c-6.997.53-7.17-7.749-.205-6.416 3.966.758 6.995 5.503.205 6.416zm-16.997-.986c-3.206 5.145-9.011 3.041-6.506-3.704 2.089-5.622 7.525 2.07 6.506 3.704zm17.974-23.42c2.322 6.622-4.657 9.24-7.123 2.591 1.213-6.72 4.537-4.302 7.123-2.59zm-8.974 1.11c-5.796 3.956-10.13-2.107-4.347-6.21 5.234-.034 5.82 3.112 4.347 6.21zm-2.33 27.556c-4.514-2.31-6.747-6.443 1.03-6.06 5.232.257.801 4.92-1.03 6.06zm13.088 10.293c-8.047 3.655-18.667-11.21-5.957-12.692 7.311-1.357 9.233 7.854 5.957 12.692z"/><ellipse style="fill:none;stroke-width:1.3" cx="110.539" cy="158.564" rx="7.363" ry="13.681"/><ellipse style="fill:none;stroke-width:1.3" cx="110.797" cy="159.335" rx="2.835" ry="3.516"/><ellipse style="fill:none;stroke-width:1.3" cx="110.457" cy="159.675" rx="2.722" ry="3.289"/></g></svg>