<svg width="400" height="400" viewBox="0 0 105.833 105.833" xmlns="http://www.w3.org/2000/svg"><path style="fill:#000;stroke-width:.434003" d="M380.705 334.71c-38.054-3.583-31.568 13.99-41.578 18.935-35.372 2.418-73.648-7.603-106.034 11.908-23.98 14.448-32.02 35.088-44.59 58.072-28.173 58.497-8.98 89.553-84.85 73.383-15.77-3.36-19.284.172-35.275 1.313-32.737 2.338-21.28 44.012-17.286 63.218 5.616 27.004 10.022 53.849 15.287 81.844 5.395 28.688 8.463 57.414 24.723 81.855C114.745 760.78 134.3 798 166.96 825.525c20.59 17.353 14.265 54.722 46.87 56.633 51.721 3.033 104.124 5.423 155.839 8.738 43.63 2.798 88.742-3.936 132.38-2.263 31.363 1.202 49.937-22.91 60.475-51.936 10.942-30.138 39.995-47.832 59.579-73.304 35.218-45.81 51.939-103.19 64.119-163.559 5.407-26.8 7.908-42.13 14.445-68.807 8.177-33.373-18.891-32.128-35.443-31.513-64.44 2.39-98.532 7.635-114.79-67.496-6.052-27.968-29.565-54.469-54.724-68.975-23.527-13.565-53.161-21.551-80.572-15.611-7.05-9.85-20.427-11.402-34.434-12.721zm-10.417 9.405c10.002-2.473 28.03-.94 32.09 6.17 11.201 19.615 4.828 18.862 4.976 43.256 1.112 32.765 3.787.07 1.695-13.117 4.754 27.975 4.797-14.133 4.228-21.158 3.542-25.442 6.765 46.86 7.65 10.109.515-29.79 4.454-.292 6.495 16.531 1.053 31.706 3.627.124.262-12.861-4.108-34.886 1.877-1.295 3.732 13.496.548 25.203 4.523 4.164 1.227-10.775-2.14-27.718 3.205-9.117 2.66 6.47 2.191 27.462 6.718 8.36 2.636-8.105-5.304-26.432-1.774-10.568 2.875 5.017-.059-28.344 1.984-5.304 4.637 8.264 10.37 25.8-5.804-27.096 1.012-31.22 3.402-.258-.772 19.189 4.058 29.874 7.976 37.396-6.076-42.595 3.338-3.039 7.258 33.8 2.167-1.105.24-15.732-4.044-40.345 6.375 42.484 6.122 14.674-3.93-25.798 1.356-33.913 5.933-5.084-7.16-19.91-3.081 36.26 1.938 21.94-2.015-7.587-.628-51.19 1.447-25.108 2.235 21.793 7.03 13.188 6.256 1.146 2.605 17.68 5.384 48.758 6.682 19.362-1.336-19.419.489-17.41 2.17 1.021.004 22.75 4.475 17.947 1.974-.82-3.526-25.502 1.782-5.824 2.578 7.697 5.226 34.752 2.272-13.045 1.336-24.97-.437-41.536 2.726 57.877 6.656 16.94.086 14.046 1.367 46.748 3.928 14.716-.446-32.282 3.571-3.125 1.04 12.41-1.394 23.727 5.196 10.609 2.714-5.631 2.721-26.288 3.104-4.52 1.725 8.656-1.268 24.238 3.702 11.924 3.851-4.902.496-32.588 3.385 3.454.414 15.387-1.64 30.432 2.902-2.327 2.858-13.944 6.477-27.168 2.22 2.7.398 12.988-1.896 30.619 4.812-6.917 4.863-16.644 7.353-37.779-.173 15.868-1.847 28.828-2.783 37.036 2.457-15.288 8.289-26.262 9.78-35.069-4.418 19.053-4.549 31.588-5.382 31.517 4.327 7.301 5.557-8.64 6.637-34.601 1.098 7.957-2.31 19.998-5.77 34.677 4.191-8.97 6.802-19.69 10.801-38.97-1.819 10.34-3.772 24.922-6.644 34.393 5.685-12.456 10.827-24.38 12.29-40.157-13.106 42.472.28 11.577 9.587-23.701 3.89-4.534-.892 7.282-11.234 35.02 8.217-2.268 10.45-16.286 4.863-.457-11.272 33.128-15.713 45.655-5.843 26.068 2.248 12.434 6.167-2.627 17.358-45.505-16.034 50.742-2.066 18.556 6.57-22.965 7.686-12.629.846 4.168-10.902 34.504 5.032-3.614 8.082-16.168 14.786-34.809-2.31 11.585-5.987 23.38-9.414 36.96 3.375-10.184 11.747-19.583 16.492-30.079-1.411 6.876-6.815 16.819-8.15 27.8 1.531 2.528 10.186-6.825 26.269-34.212-20.524 26.525-2.672 13.702-18.757 26.803 1.783 4.894 8.096-8.561 7.13-4.577-23.073 35.453-23.542 49.188.984 11.158 16.967-32.926 27.221-39.694-.795 4.236-21.843 37.319-28.588 51.84 2.395 1.62 23.273-33.37 30.801-46.004 4.895 1.814-20.656 31.585-25.309 45.242-17.143 30.243 6.93-4.17 11.745-16.275 21.444-27.778-6.796 12.524-10.563 23.553-17.258 33.179 1.702-.94 10.693-13.301 25.274-27.956-7.457 10.878-11.402 23.084-18.43 32.152 3.087-4.81 13.428-13.283 14.334-17.051 8.356-5.425-1.617 3.632-18.544 23.609.511 2.08 11.271-6.44-7.021 9.867-29.98 30.217-35.734 48.647 1.966 5.148 20.558-28.14 29.467-34.025.959 4.137-29.681 34.622-34.286 51.252 7.022-10.897 31.573-42.446 34.498-39.207-9.069 5.673-39.704 47.087-21.539 30.014 18.87-24.751 1.114 4.943-8.316 13.029-19.005 24.457 4.453-.215 12.887-9.537 18.13-18.04-4.029 4.188 3.732 1.615 2.676-1.574-42.254 45.91-22.262 28.863 15.002-18.687 6.805-4.08-1.533 4.996-14.967 15.882-12.212 16.341 2.953-.06 29.874-28.52-25.125 25.91-13.261 17.719 18.128-14.241 12.978-6.379-1.086 3.691-31.776 24.74 31.772-19.175 3.797 1.408-25.57 20.417 6.49 2.472 14.173-7.298 45.735-43.279 53.374-108.356 66.059-168.143 3.82-18.009 104.655-19.61 95.117 1.059-22.876 49.57-6.199 124.868-43.44 181.779-21.202 32.403-39.145 57.193-70.093 88.297-8.358 8.4-13.829 26.351-34.54 67.863-11.324 22.7-75.134 26.369-131.212 25.143-49.728-9.486-195.377-1.07-209.992-18.73-6.021-12.713-8.965-24.65-16.426-35.952-12.417-18.81-34.966-34.69-50.746-54.559-68.133-85.784-50.86-144.733-71.102-246.361-4.013-20.15 37.153-20.629 57.666-21.764 45.276-2.505 29.674 36.793 34.524 64.063 8.74 49.136 24.782 106.77 74.039 129.219 31.658 12.2-22.674-14.727-2.33-7.47 24.041 12.302 9.597-.731-4.729-6.146-25.6-13.285-1.234-1.734 10.6 1.803-5.995-7.405-44.586-23.05-11.729-10.281 37.922 18.537-41.502-25.63-7.556-8.23 38.086 17.007-32.655-19.081-3.828-9.676-18.894-16.08-7.475-9.585 5.166.087 4.948.885-37.637-33.127-6.678-12.2 25.793 15.467-.327-4.078-8.793-11.626-20.875-15.338-3.216-6.475 6.926 2.899 22.25 18.774 6.904-2.752-7.108-8.81-17.997-11.506-5.482-5.77 6.258 1.69 21.043 15.654 7.271 2.414-4.34-5.306-24.008-22.762-1.624-.502 8.252 1.935 23.064 8.102-27.002-31.719-8.687-19.748 29.222 19.376-12.91-12.352-11.678-13.171 19.583 12.342 10.984 5.47.123-6.018 8.578 7.796 34.03 24.825 12.158 5.066-20.352-14.97 3.024-1.29 9.305 3.784-5.79-7.117-43.616-40.372-16.898-18.204 29.344 24.705-30.894-31.898 1.027-7.298 26.251 19.053 4.51-.253-5.963-11.473-18.85-16.603-1.128-5.175 7.418 4.967 25.349 23.38 3.54-4.676-8.236-11.774-26.99-21.804 25.402 19.704 1.11-6.287 21.075 19.163-20.327-29.81 3.546-4.865 36.686 27.378-26.071-30.434-5.799-17.412 12.198 8.567 14.841 9.46 2.356-3.662-16.512-19.606-1.901-6.284 5.912 3.83 31.156 28.992-21.244-28.06-.547-11.668 14.503 15.42 14.188 7.004.52-5.21-15.444-17.565-2.763-7.73 6.152 3.69 13.49 16.67 11.551 5.188.326-3.681 10.5 6.508-5.284-10.848-9.643-16.934-18.35-23.252 3.746-1.365 10.504 9.766 29.22 34.882-28.987-41.671.772-8.305 20.242 16.518 7.003.934-3.536-9.28-20.511-30.616 4.406 4.362 15.938 13.512-7.596-12.349-27.678-41.415-9.441-20.666 20.02 26.702 3.367-2.147-5.643-13.337-13.594-21.466-1.608-6.492 4.69 4.074 15.623 24.015 4.703.588-1.057-11.489-14.324-24.818 1.553-5.299 5.67 6.68 17.455 34.164-1.791-10.284-8.399-21.097.659-.237 8.669 5.94 9.615 11.775 10.083 20.56 8.062 9.714 1.918-4.941-7.564-21.808-1.687-11.168 2.48 3.38 14.37 29.98 1-7.982-3.167-18.646-6.621-21.207-1.868-9.894 3.053 4.951 7.928 25.28 6.08 3.572 2.79-10.549-9.902-33.067 3.814-4.04 6.723 12.092 13.693 36.257-.365-11.548-1.798-23.865-9.28-41.418 5.52 15.076 8.869 28.033 3.59-11.375-11.72-52.215-7.022-45.447 9.25 32.472 2.027-32.039 9.436 1.785 7.296 25.994 6.003 10.243 2.295-6.92-4.538-34.876 3.638 13.042 6.652 22.11 4.477 39.501.015-8.877.027-22.464-1.258-29.489 2.796 2.098 2.451 12.91 4.239 41.235 4.886-16.184 2.336-29.501 6.368 10.2 1.991 30.815 3.551 44.67 4.814 8.89 2.947-35.88-.625-45.11-2.702-41.709 8.055 50.259 7.154 7.53-4.986-34.816 5.077 2.66 1.522 16.244.262 40.283 5.09-11.802 1.002-25.442-7.668-33.6 6.199 12.962 3.834 23.377-1.276 35.524 4.541-4.482 1.215-17.267-8.921-37.131 4.41-.443 2.877 16.49-1.99 33.314 4.84-7.16 2.674-19.158-7.07-32.418 5.433 2.045 2.566 14.83-3.433 37.05 5.545-4.91 1.643-18.686-4.484-35.363 3.765 2.663 2.513 17.317 1.11 34.631 6.32-11.289 1.526-22.614-8.632-37.334 5.374 7.432 4.177 20.17.842 31.194 4.028-1.028 1.192-12.79-4.915-30.545 9.761-3.879 7.855 10.814-1.739 21.688 8.833 9.039 1.754-5.664-3.477-20.754 1.392-15.896 2.582 2.072 5.206 31.592 6.14-1.604 4.608-14.494-6.29-30.701 3.347-.333 3.494 13.826 7.358 19.602 7.752 4.118 1.463-8.992-5.689-36.272 4.877 16.127 10.687 24.136-5.187-11.944-5.063-43.58-1.101-12.962 7.33 25.083 4.82 1.98.38-10.499-4.609-25.391.621-6.468 4.233 7.391 5.39 27.705 5.942.888 1.556-11.959-2.73-41.698 3.582 29.075 6.225 4.1-.889-24.695 2.848 2.155 1.475 12.222 2.864 22.482 7.318 4.636 3.53-8.134-1.828-28.166 3.44 2.152 3.157 11.379 4.682 28.738.792-1.668 2.08-13.122 1.135-22.222 2.842-17.762 1.969 1.52-.862 25.949 5.323 15.732 3.06-3.3 2.514-28.298 1.097 1.729 1.854 12.081-.271 41.04 4.791-5.49 5.129-21.469.424-20.073 9.272-17.666 21.538-20.699zm-39.114 117.393c-35.465 1.128-65.02 47.02-70.499 78.155-9.844 55.95 25.389 163.289 80.507 155.192 26.805-8.366-1.897-.127-1.61-15.017-11.005-4.364-3.075-19.89-4.472-25.594 22.625 10.536-12.611-10.738 9.021-14.803.44-4.526 16.27-10.886 18.56-19.941 7.51-23.01-9.766 14.694-13.91 5.486-3.478-9.734-.998-19.848-5.48-25.66 6.452-8.579-12.058-30.182-9.846-13.453 9.51 12.868-10.36 27.624-5.49 5.52-6.751-4.693-7.379-10.179-1.758-23.047-10.2 4.242-7.14-36.065-3.308-12.612 3.393-5.699 9.387-19.368 15.89-9.302 11-21.398 23.428 11.023 12.24 16.379-7.11 18.418 7.981 22.102 1.143 39.986 10.772 3.22 4.32-21.44 2.867-30.41 20.472-5.765-1.63-10.216 5.02-20.934-9-10.53 3.461-38.138 11.49-20.646-.924 4.503-10.056-4.489.229 9.18-13.99 12.468 12.385 16.223-6.38 29.714 10.25 2.459 1.181 29.93 12.32 6.774 13.243 2.834-10.066-33.198 4.524-23.36 1.689-2.152-14.205-15.19-1.19-19.29 2.27.399 17.69-12.176 8.698-.321 8.412 5.545-7.597 23.963-.814 21.38 7.903 12.157-10.086 31.014 5.662 41.307 2.534 16.216 9.065 18.224-3.422 23.565-13.163-10.08-10.161 21.7-4.385 3.05 25.705-10.445 4.568 19.67 15.67 25.96-3.819 19.177.81 15.291 7.102.03-5.61-.267-10.623-23.75 5.851-21.745-.346 13.39.418 37.412-11.963 43.303-23.65 11.251-48.942 30.127 4.55 4.959 36.931-17.377-4.963-47.17 13.888-71.698-1.871-11.058-9.008 10.34-9.61 17.108-20.978 3.132 2.05-3.408-6.646-5.795-15.982-21.476 17.143-7.025 10.72-29.326-11.548-7.052 10.914-24.69.212-25.795 6.433-5.807 16.023-23.39 2.43-6.797-16.774-10.196 11.023-25.362 3.728-42.428-.632 5.725-5.038 11.98-8.55-2.06 8.993-20.02-.616-15.18-3.378 1.263 12.394 4.53 2.512 34.049-6.467 15.362.84-15.856-4.509-29.831 4.748-45.579 11.477-15.132-7.948 29.235 6.97 9.327 7.87-8.711 17.618-21.134 19.179 2.587-1.846 7.68 11.687 5.393 2.76 8.995 7.844 6.778 1.042 8.868 8.171 15.138 10.39 6.574.522 21.449 9.827 19.55-.526 7.977-11.1 26.375-2.614 24.501 1.126 13.015.438 15.22 4.082 26.58 2.977 9.28-3.954 4.288 1.994 16.82 4.297 9.053 4.374 11.111-4.773 15.036 14.117-.538 2.606 9.595-5.14 10.761-3.543-1.664 1.37 25.279 6.591 17.912.711 8.21-7.434 10.858-4.385 20.123 1.083 9.422-5.25-8.254-7.302 9.663 13.721 8.052 28.702-41.073 31.95-59.606 8.094-46.17 2.106-96.781-23.247-138.014-10.32-16.783-55.267-19.651-50.332-9.242 9.633-6.383-4.328 13.535-1.945 25.168-1.294 9.1-.275 42.586-15.461 25.93.318.265.597.536.939.797 6.696-3.391-5.542-23.13.645-34.12-8.614 10.021-13.448 22.064-3.104 32.007-2.935 29.555-24.745-.454-16.463-16.452 10.967-15.772-1.065-8.248 2.666-18.968 5.536-19.448-9.462 7.83-3.662 2.892-1.659 18.71-3.048 34.253-15.478 47.975-13.952-8.802 10.076-21.944-9.993-15.188-7.402 13.312-20.886 6.842-6.58-2.677 2.81-14.203 5.12 5.639 6.428-11.413 9.663 3.153 21.336-15.466 10.098-22.357-17.694 26.008-12.702 27.074-24.631 29.328 1.791-5.423 15.505-40.697 12.24-14.965 9.534-8.531-4.273-12.204 4.9-24.365 18.84-7.122 8.336-11.305-8.74-11.775a52.225 52.225 0 0 0-3.482-.008zm-19.795 14.564c-1.021 2.55-4.658 13.48 1.654 18.84-7.135.108-9.29-6.433-5.553 8.629-11.331 5.049-3.591 16.833-6.777 26.385-2.43 9.827 3.174 16.065-6.006 20.873 6.741 6.37 4.523 22.87 1.55 30.117 7.916-.187-4.868 26.948.368 32.97 6.9-6.569-7.209 18.504 6.46 18.438-8.855 6.593 6.278 13.74.68 17.604 3.996 2.749 8.108 6.344 8.417 16.85.66 17.4 6.795-.473 4.703 13.077 8.2.97 10.472 15.056 3.445 10.975-38.243-22.212-69.203-145.046-32.314-196.039 1.661-11.969 14.114-.176 9.094-12.594 8.176-13.778 1.37 15.496 9.796 2.848 2.855-5.352 4.053-7.96 4.483-8.973zm89.996 47.084c.645.197 1.002 2.47.771 7.864 20.898.802-2.472 25.322 5.823 24.13 4.883 12.033 1.81 27.593.914 40.723-7.846 6.492-12.29-9.751-11.43-15.855 13.476-5.355-5.522-18.587-.385-27.334-3.976-4.465 2.004-30.229 4.307-29.528zm-61.938 2.428c2.79-.223 5.06 3.664 1.387 15.465-10.648-6.03-5.463-15.139-1.386-15.465zm-3.683 34.762c-.996.036-2.121 1.436-3.348 4.884 6.554.655-5.33 10.998 6.965 15.957 2.61 4.466.7-21-3.617-20.841zm-17.07 31.855c3.72 5.988 2.172 17.65 5.619 31.46-8.364 1.778-9.142-25.611-5.62-31.46zm60.56 6.723c-2.441.159-5.938 3.773-8.36 13.898v.002l1.913-.039c11.653-4.79 10.516-14.126 6.447-13.861zm-42.98 8.474c4.167.153 6.353 4.77-1.483 15.176-6.479.723-1.744-3.738-8.611-.435-1.897-9.356 5.37-14.914 10.094-14.74zm29.474 15.23c-.141 15.115-7.764 25.524-15.035 22.118-3.102 7.778 19.722-4.467 17.156 10.324v.002l2.702.92c-3.319-10.78 3.548-20.823-4.823-33.363zm-33.127 1.663c17.757 5.223-2.246 20.788-4.246 29.553-5.258-.513-3.393-12.932-4.314-18.383 14.75 10.932-4.158-7.85 8.56-11.17zm46.873 9.287c-3.593.414.722 16.925 3.54 26.383 2.311 2.349 14.488-18.35 4.874-18.088-4.391-6.154-7.007-8.457-8.414-8.295z" transform="translate(-3.527 -39.114) scale(.15243)"/></svg>