<svg width="400" height="400" viewBox="0 0 105.833 105.833" xmlns="http://www.w3.org/2000/svg"><path style="fill:#000;stroke-width:.636215" d="M418.256 168.734a97.296 97.296 0 0 0-4.885.075c-12.4.409-24.529 3.686-35.889 8.558-29.383 10.945-53.636 32.687-71.572 58.03-10.526 14.59-18.906 30.581-26.502 46.851-16.696 33.368-22.948 70.613-27.96 107.23-.78 2.793 12.204 123.768 9.657 118.791-4.692-9.168-15.945-118.616-18.033-128.49-7.156-41.597-24.574-80.562-43.87-117.802-14.212-20.01-26.184-42.202-45.054-58.381-57.85-44.447-80.093 63.188-86.59 107.088-4.781 34.204-4.772 68.865-3.206 103.304 1.883 81.505 25.334 161.681 62.984 233.705 13.7 26.248 29.227 51.574 46.5 75.606 9.408 8.91 8.482 7.908-2.295 10.713-18.934 4.927-16.35 8.825-8.988 23.258 14.384 28.199 39.05 49.457 64.238 67.978 15.236 11.391 31.39 21.442 47.018 32.27 22.431 15.88 44.18 34.403 57.212 59.064 4.562 8.792 9.805 18.123 9.725 28.025-.094 11.688.126 24.654 8.893 33.108 9.808 9.457 24.038 11.949 37.162 12.367 6.81.217 13.569-.507 20.385-.184 10.17.484 20.455-1.672 30.537-.433 10.125 1.244 21.638 3.429 30.115-3.264 8.875-7.007 11.236-18.875 13.057-29.46 1.236-7.187 1.203-14.613 3.126-21.641 6.081-22.218 21.183-40.826 38.666-55.358 19.052-15.904 40.698-28.257 61.823-41.113 14.977-5.438 28.025-15.2 38.644-26.963 8.965-9.903 17.463-20.098 26.608-29.826 7.42-9.785 16.7-18.528 21.498-30.033 2.305-5.144 1.792-11.924-2.873-15.596-4.198-3.543-9.712-4.954-14.994-5.965 1.068-10.739 7.35-19.987 12.923-28.91 25.33-37.394 44.533-70.053 58.038-111.404 28.108-64.583 56.592-155.93 51.73-225.004-4.213-59.87-1.565-131.863-53.98-171.685C665.398 171.41 619.107 283.19 604.71 327.29c-12.963 36.367-16.495 77.82-21.963 112.19-2.094-9.734-.757-19.788-.816-29.655-2.681-63.17-21.885-133.85-53.543-178.418-19.5-25.578-45.913-46.564-76.58-56.916-10.814-3.576-22.158-5.649-33.553-5.758zm-1.977 6.297c27.659-.014 54.128 12.185 75.217 29.506 16.318 13.786 29.752 30.408 40.998 48.488C555.333 289.99 567.5 333.3 572.08 376.3c2.38 21.722 2.724 43.607 1.752 65.492-1.87 40.686-5.964 67.683-10.225 54.234.732-40.102-1.273-91.55-5.908-124.285-1.04-7.342 4.368-29.63-5.008-21.674-63.216 53.649-40.655 72.135-64.246 5.762-2.253-3.11-6.546-1.245-8.62 1.096-6.948 6.886-11.383 15.802-17.794 23.13-22.196 16.043-30.922-1.526-40.42-12.488-2.096-2.703-28.961-26.515-21.46-13.021 13.318 19.48-26.856 41.983-34.837 28.873-3.958-9.49-10.312-18.615-19.23-23.658-16.581-9.376-11.66 4.114-13.242 13.11-3.5 14.195-17.855 48.762-21.719 34.173-.368-11.444-7.84-21.133-16.385-28.096-8.107-7.122-18.054-12.48-24.265-21.531-3.677-5.172-3.628-12.013-1.473-17.781 7.868-28.416 17.866-56.107 32.525-81.82 11.171-19.53 24.913-37.354 42.334-51.735 9.882-8.247 21.024-14.857 32.659-20.291 11.986-7.087 25.86-10.682 39.761-10.758zm338.008 123.824c6.872 51.42 4.041 103.604-2.09 154.96-2.72 29.435-13.87 57.13-19.877 85.994-2.246 10.223-5.874 20.115-9.13 29.994-6.6 19.04-13.912 37.73-23.233 55.62-17.36 39.784-41.2 76.282-66.03 111.731 7.054-.987 14.995-3.468 21.598.407 4.694 3.709 3.256 10.46 1.721 15.418-3.216 9.765-9.002 18.452-15.834 26.056-12.39 14.72-26.347 28.093-41.428 40.067-16.098 12.78-36.513 22.886-52.388 32.66-24.54 15.51-48.233 34.132-63.383 59.351-7.708 12.905-14.364 27.448-14.172 42.5.096 7.541 3.064 16.587-2.73 22.434-5.981 6.035-15.582 6.001-23.211 6.406-8.072.429-16.141.599-24.198 1.39-12.322 1.212-24.508-4.116-36.761-2.724-8.077.918-17.73 1.885-23.465-4.826-5.568-6.514-7.134-15.298-8.696-23.322-2.735-14.057-3.723-29.192-11.783-41.492-4.698-5.999-8.367-12.758-13.377-18.551-19.823-24.462-47.14-40.927-72.98-58.201-15.792-10.438-31.258-21.55-44.81-34.815-11.235-8.216-27.742-23.028-32.968-35.851-8.064-19.792.795-26.638 24.987-20.323-23.718-29.721-46.33-60.495-62.707-94.957-11.61-21.79-22.043-44.234-30.528-67.433C97.452 556.137 93.011 534.1 84.56 503.7c-19.61-70.534-4.501-408.773 99.302-250.187 7.92 12.556 14.483 25.89 21.248 39.084 15.5 31.875 24.871 66.4 31.317 100.974 9.913 53.017 13.694 107.257 24.287 160.328 7.005 40.033 4.085 76.527 5.61 117.094 1.283 32.13 4.78 64.883 17.517 94.727 8.88 20.923 23.434 39.794 42.97 51.746 2.201 2.453 2.515.015 2.858-2.102.063-5.364-4.337-9.352-7.309-13.369-20.997-22.727-40.016-57.609-27.793-85.517 3.113-6.342 9.512-12.309 17.098-11.096 7.222 1.173 12.816 6.363 17.414 11.508 4.77 4.603 9.334 9.539 14.69 13.472 1.984 1.27 4.25-1.134 3.054-3.107-6.077-10.84-14.364-20.694-18.002-32.762-1.655-7.084-3.813-14.097-4.511-21.385-1.088-9.341-.854-19.88.812-29.623 4.116-24.069 17.402-46.176 36.266-61.705 17.184-14.146 28.65-34.959 32.205-56.693 4.597-28.114 19.173-79.139 1.709-100.711-8.631-10.161-25.103-11.762-31.385-23.406-9.107-16.882 31.487-6.983 42.414-5.772 5.644.626 9.69 3.057 16.824 1.885 9.852-1.618 50.774-7.867 41.764 5.2-15.556 18.022-33.479 11.958-38.088 33.773-1.223 3.578-2.845 13.122-2.57 20.882-2 36.021 7.675 76.449 21.562 100.497 6.276 10.652 14.506 19.987 23.545 28.37 18.002 18.501 29.328 43.397 31.375 69.135.951 12.425-.541 26.049-5.246 38.147-4.022 10.36-10.31 20.52-18.842 28.014-3.01 2.745-6.801 5.207-8.347 9.113-.852 3.163 3.273 4.06 5.441 2.717 5.825-2.513 11.21-6.393 15.264-11.254 6.202-10.075 17.14-17.181 29.16-16.795 9.306.034 18.781 6.107 20.965 15.469 2.349 22.42-12.673 48.914-24.813 64.2-7.782 9.68-17.267 17.982-28.035 24.192 3.813 1.933 8.23 3.224 12.41 1.621 10.756-3.495 18.626-12.169 25.696-20.578 21.302-25.535 32.722-57.814 38.453-90.213 5.677-32.25 5.05-65.144 6.257-97.797 1.164-31.443-3.459-59.165 3.122-81.424 6.853-23.181 34.5-222.622 95.912-297.537 52.322-38.777 79.489 25.437 86.148 76.04zm-204.525 62.48c6.65 37.56.14 85.429 6.09 124.78 1.266 8.612 1.997 17.493 3.115 26.463 4.45 35.692 4.512 86.072.57 129.291-.39 14.133.364 27.513-1.902 41.453-.873 8.84-1.803 17.403-2.092 26.12-4.939 9.974-22.641-12.882-32.742-13.323-5.634-.246-23.72 4.5-20.557-3.834 4.682-17.775 4.87-38.077 2.264-52.817-4.042-22.845-6.228-28.705-25.831-51.188-27.951-28.277-38.238-43.406-45.66-82.897-2.522-14.557-.536-25.873.16-35.385 12.494 4.263 20.228-6.5 24.9-15.867 3.05-6.117 7.815-14.197 4.665-18.924-2.791-4.19-7.154-7.037-11.89-8.549 4.042-3.298 8.486-6.241 13.064-10.254 17.498-8.978 5.366-63.813 20.38-50.898 4.72 4.061 12.258 44.096 13.44 50.256.49 2.547 1.84 3.81 3.292 2.072 12.431-4.67 47.19-65.214 48.734-56.498zM282.87 383.4c19.946 13.199-16.028 46.904 4.655 36.456 10.33-4.631 17.812-2.124 25.11-2.037 7.507.747 11.754-16.52 20.646-16.937 44.729-2.095-1.677 59.61 37.918 67.308 14.074 2.264 17.074-16.865 17.074-16.865s2.247 28.045 2.579 28.656c-.316 57.155-27.435 77.656-52.41 115.565-21.613 28.01-18.175 54.573-19.135 85.717-.32 9.55.812 14.188-6.698 13.671-17.176-1.539-17.784 16.718-25.515 23.416-3.86 2.586-10.317 5.854-11.803-9.423-5.124-46.94 9.127-102.741-1.16-141.545-5.232-31.699.57-55.337-3.772-85.069-5.279-36.15-9.625-48.866-9.183-81.04 3.183-28.122 2.309-31.047 21.694-17.873zm204.632 34.853c-9.26.226-18.09 5.527-18.977 14.932-.532 5.64 2.175 28.278 8.713 30.365 17.992 5.742 23.775-8.795 26.162-20.526 1.364-6.697 3.875-15.735-.39-19.486-4.241-3.73-9.952-5.42-15.508-5.285zm-185.459 1.129c-11.156.699-21.842 9.13-19.95 20.306.946 5.586 9.42 26.751 16.276 27.075 18.865.89 20.689-14.649 19.96-26.598-.417-6.822-.332-16.202-5.423-18.72-3.374-1.67-7.145-2.296-10.863-2.063zm227.394.555c-7.25-.106-14.114 3.125-16.748 10.209-1.973 5.31-5.216 27.876.56 31.584 15.892 10.203 25.24-2.342 30.583-13.055 3.05-6.117 7.813-14.197 4.664-18.924-4.175-6.266-11.809-9.708-19.059-9.814zm-46.93 1.212s4.333 34.366 2.364 40.4c-1.276 3.914-10.95-6.24-11.168-16.023-.19-8.503.32-23.766 8.805-24.377zm3.79.157c8.479-.61 7.42 2.896 9.92 10.271 5.303 15.644-6.826 33.451-7.598 29.205-1.64-9.022-2.322-39.476-2.322-39.476zm-112.654.107s-4.71 34.317-8.174 39.637c-2.246 3.45-8.962-8.864-6.64-18.37 2.017-8.262 6.46-22.873 14.814-21.267zm155.67.725s-4.711 34.317-8.174 39.636c-2.246 3.45-8.962-8.863-6.64-18.369 2.017-8.262 6.46-22.874 14.814-21.267zm-152.051.408c8.348 1.605 6.418 4.717 6.924 12.488 1.073 16.484-15.25 30.546-14.897 26.244.75-9.14 7.973-38.732 7.973-38.732zm-76.383.133c3.559.158 4.304 3.431 7.547 8.289 9.171 13.738 2.065 34.077.22 30.176-3.919-8.29-12.46-37.53-12.46-37.53 2.008-.696 3.507-.988 4.693-.935zm232.053.592c8.347 1.605 6.417 4.716 6.923 12.488 1.074 16.484-15.25 30.545-14.896 26.244.75-9.14 7.973-38.732 7.973-38.732zm-240.448 1.173s13.08 32.074 12.74 38.412c-.22 4.11-12.192-3.195-14.935-12.587-2.384-8.165-5.843-23.039 2.195-25.825zm155.782 4.65c6.73 1.69 5.358 4.815 5.834 12.12 1.073 16.484-15.25 30.545-14.897 26.244.709-8.625 6.83-33.947 7.557-36.94.49-.491 1-.958 1.506-1.423zm-6.057 7.124c-1.463 9.777-4.199 26.979-6.824 31.012-.502.77-1.24.659-2.037.064 1.371-15.294 4.529-24.655 8.861-31.076zm-50.014 179.976c-10.031 6.718-38.247 29.834-36.125 58.635 4.225 19.888 18.04 63 40.776 60.797 6.475-.628 10.716-14.537 9.937-20.436-3.67-27.77-12.51-52.884.35-73.974 3.298-4.782 4.283-15.104 5.803-20.14 2.77 6.884 3.551 14.445 5.869 21.417 5.598 9.117 3.997 20.619 2.47 30.461-2.171 13.578-6.85 27.11-6.498 41.082 1.69 11.992 5.68 21.982 21.301 19.37 7.353-1.23 12.033-9.329 16.377-15.442 14.612-20.566 17.91-48.827 8.307-72.195-5.308-12.917-17.13-20.39-28.49-29.555-25.083-20.238-14.297-17.285-40.077-.02zm28.416 5.238c-.563-17.521 27.428 16.193 28.627 18.803 8.926 19.428 13.352 43.19 2.491 68.497-8.826 20.566-32.405 18.49-31.215 7.218.366-2.843 10.853-1.904 13.622-1.167 6.498 1.728 6.216-2.139 5.058-4.421-1.158-2.283-22.643-11.084-15.788-8.846 1.526-.82 17.351 3.214 19.218 3.489 7.976 1.174 8.015-6.952 3.436-8.518-.92-.314-19.606-3.973-20.06-4.87-.953-1.762 13.433.232 14.549.564 5.076 1.513 8.325-1.853 4.48-4.915-2.107-2.65-17.994.838-19.498-2.014 5.898-1.722 14.045-2.091 15.351-1.832 3.226.64 10.484-3.683 3.28-6.8-3.113-1.346-12.346.536-13.33-1.272 6.373-2.725 5.434-1.707 11.107-2.832 13.267-2.63 12.037-6.686-1.151-7.933-15.42-1.46-15.956-7.706-5.795-8.096 3.38 1 8.795 1.864 12.388 1.343 7.207-.837 2.729-7.388-.8-8.242-3.821-3.064-17.248-3.771-20.491-7.304 3.45-.152 15.218 3.092 18.905 1.41 5.292-5.735-6.132-10.04-9.36-10.071-8.91-.09-14.553 2.47-15.024-12.19zm-18.04 9.083c-.917 3.164-7.762.821-10.868 3.358-5.716 4.667 2.384 6.149 7.923 9.053-2.11.766-12.526-.571-15.064.708-12.662 6.383.956 9.11.956 9.11 4.317 1.2 6.534-.014 10.091 1.013-4.697 2.272-14.594 2.474-19.151 5.042-11.536 6.438-4.25 8.556 18.59 3.13-2.934 2.728-6.478 5.11-10.347 5.746-11.532 1.896-16.007 9.323-.476 4.53 4.427-2.535 6.511.191-.074 2.462-19.87 6.852-2.79 7.038 6.429 4.37 5.297 2.459-6.927 4.985-10.57 8.306-11.564 10.535 10.36 2.526 15.77-.065-16.143 14.955-17.65 27.186 1.396 12.054-1.356 1.487-5.985 9.324-7.155 10.968-2.367 3.328 1.312 6.23 4.461 4.056 1.814-1.251 2.834-4.665 2.775-3.536-1.544 29.513-23.058 1.401-29.214-19.703-12.02-34.059 1.56-38.971 18.899-58.604 17.466-19.778 20.652-19.312 15.63-1.998zm6.724 32.956c.59 7.392-1.785 22.291-1.276 29.565.966 2.907 4.457 1.296 5.148-1.012 1.591-6.93 1.37-24.293 3.022-29.996 4.64-14.522-9.062-25.675-6.894 1.443zm232.937 77.68c-16.426 1.171-28.681 15.556-38.07 28.008-7.127 9.621-16.694 16.71-26.072 24.711-23.695 20.218-52.395 33.854-72.807 57.735-3.541 4.139-6.432 8.769-9.531 13.236 37.933-14.525 69.568-31.582 98.092-49.56 19.601-12.355 36.816-28.378 52.002-45.901 5.488-6.706 19.288-26.215 3.685-27.877a31.08 31.08 0 0 0-7.299-.352zm-445.431 5.846c-6.393.176-12.015 1.909-11.756 6.81 1.301 24.632 67.466 71.588 88.268 80.938 20.893 9.392 48.257 18.623 48.257 18.623s-68.433-85.025-108.39-103.836c-2.824-1.33-9.987-2.71-16.38-2.535zm432.748 9.803c9.881-.567 3.429 11.781 1.04 15.17-24.624 27.849-56.036 49.165-90.323 63.375-1.964.596 1.821-2.607 2.496-3.53 14.217-13.973 32.178-23.518 46.097-37.824 8.23-5.863 14.575-13.906 21.668-21.02 5.898-5.824 11.44-12.49 19.022-16.171zm-427.97 2.922c4.314.294 14.446 5.36 25.911 11.924 27.097 15.512 45.065 38.083 57.854 56.318-35.008-15.664-41.968-19.427-62.033-38.754-23.212-22.357-27.28-29.867-21.733-29.488z" transform="translate(.989 -17.94) scale(.12365)"/></svg>