<svg width="400" height="400" viewBox="0 0 105.833 105.833" xmlns="http://www.w3.org/2000/svg"><path style="fill:#000;stroke-width:.27849" d="M106.5 40.266c-2.506.044-5.006.224-7.51.308-9.098.71-17.552 5.807-22.986 13.051-2.375 3.074-4.136 6.63-5.394 10.26-3.858 9.958-7.199 20.13-12.49 29.46-2.087 3.503-4.177 7.17-6.514 10.557-6.883 10.215-15.066 19.626-21.172 30.389-1.566 3.708-1.27 8.07.634 11.597 2.62 4.949 7.328 8.545 12.455 10.618 2.74 1.072 5.66 1.58 8.486 2.37 17.693 4.474 35.731 8.443 52.2 16.54 3.34 1.63 6.567 3.483 9.737 5.415 10.076 4.824 18.072 13.221 28.355 17.575 2.938 1.244 6.573.957 9.454-.421 16.331-7.812 32.46-16.493 50.168-20.69 2.577-.56 5.126-1.154 7.676-1.78 15.456-3.564 31.508-4.981 46.531-10.4 1.991-.674 3.898-1.579 5.87-2.29 3.51-1.019 6.619-3.479 8.172-6.817 2.147-4.413 2.247-9.45 2.226-14.26-.003-4.433-.37-8.863-.117-13.295.386-8.592 1.871-17.189 2.633-25.804.887-5.85-.617-12.3-4.918-16.534-2.963-2.946-7.243-3.694-11.374-4.034-20.398-1.677-40.013-8.226-59.121-15.364-7.637-2.856-15.208-5.952-22.76-9.053-16.763-6.078-33.46-12.787-51.111-15.83-6.314-1.08-12.72-1.676-19.13-1.568zm1.332 2.69c14.051-.077 27.813 3.66 41.1 8.045 6.182 2.06 12.338 4.205 18.491 6.348 22.37 9.054 44.8 18.36 68.412 23.681 5.261 1.174 10.562 2.21 15.912 2.882 4.575.38 9.244.818 13.36 2.965 2.502 1.292 4.527 3.65 4.976 6.482.37 1.777.018 3.586.174 5.38.256 12.955-2.964 25.766-2.196 38.76.232 2.905.12 5.827.03 8.736-.164 3.051-.5 6.1-1.91 8.886-.98 1.967-2.719 3.506-4.77 4.28-8.72 4.878-18.546 7.156-28.276 8.937-7.805 1.417-15.696 2.622-23.407 4.568-18.79 3.188-36.562 10.628-53.344 19.466-2.325 1.21-4.614 2.499-6.93 3.718-1.649.504-3.591.97-5.135-.087-9.071-4.742-16.672-11.94-25.796-16.658-13.02-8.301-27.711-13.542-42.557-17.508a385.874 385.874 0 0 0-18.73-4.51c-5.536-1.132-11.167-2.743-15.944-5.962-3.552-2.37-6.399-5.987-7.243-10.234-.426-1.442.155-2.908.464-4.319 1.596-5.717 5.197-10.566 8.816-15.136 2.894-3.636 5.855-7.24 8.32-11.187 9.904-13.067 17.081-28.037 22.098-43.606 2.64-7.033 6.687-13.794 12.746-18.391 3.633-2.784 8.04-4.536 12.602-4.96a71.95 71.95 0 0 1 8.737-.577zm-3.934 12.856c-1.14.157-1.312 1.522-1.41 2.448.93.252 2.291.71 2.942-.291.454-.961-.503-2.225-1.532-2.157zm4.457.426c-.816.029-.924 1.023-1.01 1.65.486.475 1.326 1.274 1.964.589.47-.699-.073-2.156-.954-2.239zm4.649.756c-.906.043-1.148 1.078-1.219 1.813.8.322 1.873 1.015 2.662.336.67-.884-.498-2.179-1.443-2.149zm6.252.826c-.811.297-.835 1.32-.967 2.041.587.443 1.609 1.028 2.168.237.49-.789-.129-2.499-1.201-2.278zm-21.522.375c-.974.037-1.098 1.231-.844 1.96-.058.677.665.506 1.131.556.755.1 1.701-.522 1.348-1.36-.261-.629-.939-1.16-1.635-1.156zm26.46.655c-.881-.027-.957 1.068-.558 1.634.195.459.438.893 1 .894.664.168 1.73.437 2.038-.401.013-1.03-1.09-1.614-1.9-2.01a1.512 1.512 0 0 0-.58-.117zm5.279 1.209c-.838-.052-1.282.943-.816 1.594.3.476.577 1.214 1.262 1.009.783-.031 1.945.006 2.222-.912-.052-1.092-1.35-1.48-2.245-1.672a2.224 2.224 0 0 0-.423-.02zm-35.63 1.146c-1.01.41-1.417 1.562-2.023 2.389.647.488 1.642.746 2.252.058.542-.592 1.048-1.744.32-2.365-.153-.122-.366-.128-.548-.082zm41.007.83c-.706-.075-.998.84-.473 1.258.429.39.938.861 1.466 1.02.64-.046 1.49-.627 1.057-1.33-.44-.63-1.318-.896-2.05-.948zm4.83 1.42c-.87.343-.538 1.468-.34 2.153.107.402.737.325 1.094.402.843.102 1.277-.935.788-1.56-.303-.527-.869-1.156-1.542-.995zm4.424 1.379c-.774.347-.194 1.287.14 1.77.401.371 1.093.644 1.662.482.735-.545-.034-1.392-.546-1.776-.338-.269-.8-.656-1.256-.476zm-54.553.603c-.96.304-.856 1.516-.877 2.323.769.257 2.05.467 2.338-.553.192-.819-.559-1.94-1.461-1.77zm63.37 2.493c-.851.201-.74 1.241-.636 1.902.683.136 1.832.364 2.035-.57.087-.712-.692-1.454-1.398-1.332zm4.59 1.754c-.27.334-.201.937-.028 1.273.37.452 1.26.445 1.273-.254.02-.599-.372-1.31-1.049-1.256l-.195.237zm-70.183.693c-1.143.087-1.37 1.467-1.498 2.381-.205.565.733.372 1.094.502.932.167 1.936-.638 1.681-1.623-.123-.615-.602-1.249-1.277-1.26zm74.635.88c-.658.161-.682.958-.783 1.5.48.365 1.364.863 1.779.153.34-.634-.194-1.795-.996-1.652zm4.342 1.393c-.708.15-.82.974-1.006 1.547.617.303 1.652.788 2.082-.04.3-.668-.306-1.65-1.076-1.507zm4.52 1.409c-.76.186-.818 1.108-.997 1.73.655.234 1.689.479 1.992-.385.181-.62-.275-1.472-.996-1.345zm-85.78.695c-.932.17-.782 1.342-.777 2.049.612.35 1.72.694 2.025-.215.173-.745-.408-1.854-1.248-1.834zm89.437 1.281c-.487.287-.358.94-.36 1.418.52.267 1.475.484 1.63-.299.135-.633-.63-1.52-1.27-1.119zm5.08 2.192c-.335.22-.954.753-.54 1.13.23.646 1.235.88 1.468.12.242-.606-.154-1.595-.927-1.25zm4.524 1.294c-.538.067-.827.579-1.174.93.477.52 1.262 1.441 2.002.809.55-.62.064-1.869-.828-1.739zm-100.68.541c-.48.041-.83.646-.858 1.037.164.556.865 1.23 1.376.645.408-.482.297-1.725-.518-1.682zm104.768.79c-.908-.05-1.227.96-1.39 1.668.767.114 1.963.539 2.402-.375.232-.63-.396-1.281-1.012-1.293zm4.14 1.123c-.696.247-.923 1.045-1.207 1.652.397.616 1.164 1.56 1.952.953.621-.663.561-1.937-.133-2.527-.184-.09-.413-.161-.612-.078zm3.582 1.119c-.76.418-.3 1.427-.1 2.066.23.526.934.778 1.487.881.831.058.911-1.005.493-1.514-.405-.619-1.007-1.676-1.88-1.433zM81.564 84.787c-.541.191-.599 1.006-.44 1.428.404.401 1.237.99 1.661.31.332-.646-.422-1.998-1.22-1.738zm118.983.393c-.881.044-.714 1.135-.463 1.7.27.278.972.338 1.338.08.725-.584-.139-1.752-.875-1.78zm4.494 1.156c-.705.075-.604.984-.084 1.268.542.6 1.497.834 2.223.457.54-.648-.333-1.207-.888-1.411-.393-.161-.817-.36-1.251-.314zm-64.984 1.016c-8.208.319-16.583 2.58-23.123 7.713-3.119 2.43-5.696 5.523-7.596 8.986 3.722 1.58 7.856 1.185 11.8 1.238 3.654.014 7.228.025 10.674 1.371 1.374.626 2.738 1.532 4.288 1.56.88-.071.948-1.156.543-1.753-1.412-2.607-3.64-4.7-4.92-7.387-.243-1.775-.495-3.854.692-5.359 1.211-1.294 3.204-.85 4.665-.287 3.522 1.49 6.537 4.186 8.443 7.498.65 1.125 1 2.396 1.173 3.67.558 1.294.881 2.735 1.702 3.892.498.514 1.19-.11 1.105-.71.155-2.573-.046-5.432 1.542-7.63.705-.979 1.958-1.125 2.968-1.63 1.96-.815 4.489-.744 6.018.888 2.36 2.516 2.362 6.761.31 9.465-.875 1.206-2.277 1.81-3.42 2.71 2.79-.03 5.553-.486 8.314-.839 1.747-.285 3.532-.507 5.219-1.036 2.57-1.075 5.386-1.346 8.092-1.928 2.665-.585 5.502-.974 7.825-2.506 1.031-.651 1.569-2.045.964-3.162-7.198-5.99-20.984-10.131-29.112-12.398-4.06-1.081-8.182-2.012-12.388-2.26-1.922-.148-3.852-.165-5.778-.106zm-60.282.972c-.912.113-1.115 1.187-1.33 1.916.621.484 1.584 1.25 2.332.58.685-.764.086-2.505-1.002-2.496zm141.1 1.1c-.66.09-.797.857-.99 1.375.48.404 1.388.957 1.83.213.343-.587-.077-1.666-.84-1.588zm3.916.793c-.872.055-.756 1.132-.462 1.694.237.3.901.225 1.286.107.986-.549 0-1.823-.824-1.801zm14.522 1.201c-.574.179-.939.7-1.354 1.102.051.646.6 1.465 1.328 1.064.591-.42 1.145-1.376.635-2.037-.185-.127-.388-.198-.61-.129zm-4.875.043c-.505.01-.752.534-1.038.871.316.48 1.007 1.063 1.522.502.395-.451.22-1.418-.485-1.373zm8.912.836c-.506.008-.75.535-1.037.871.315.48 1.006 1.063 1.521.502.397-.453.218-1.416-.484-1.373zm4.136.414c-.814.011-.968 1.042-.495 1.559.19.605.91.23 1.366.181.792-.125.86-1.242.116-1.508a1.79 1.79 0 0 0-.987-.232zm4.346.492c-.505.095-.684.635-.92 1.022.503.45 1.363 1.29 1.984.556.36-.671-.27-1.74-1.064-1.578zm-174.129.305c-1.056.341-1.056 1.692-1.215 2.603.792.383 2.098.645 2.516-.384.324-.867-.214-2.35-1.3-2.22zm177.76 1.906c-.348.434-.204 1.192.202 1.49.507.265.812-.095.825-.595.036-.485-.058-1.024-.588-1.179-.217-.241-.285.177-.44.284zm-180.16 3.857c-1.11.046-1.362 1.372-1.455 2.259-.198.563.732.359 1.09.491.914.18 1.956-.613 1.636-1.591-.148-.584-.637-1.14-1.271-1.159zm181.406 3.563c-.94.188-.771 1.408-.826 2.128.518.457 1.6.843 1.93-.034.212-.75-.192-2.073-1.104-2.094zm-184.525 1.213c-1.116.187-1.127 1.58-1.02 2.464-.093.706.258.952.928.872.893.119 2.05-.412 1.94-1.457-.084-.9-.878-1.926-1.848-1.88zm-2.739 4.318c-.9.015-.892 1.148-.752 1.801.056.503.119 1.02.69 1.16.564.395 1.673.554 1.85-.318.07-1.018-.615-2.029-1.446-2.567-.114-.021-.221-.103-.342-.076zm185.91 4.313c.296.617 1.317.662 1.444-.09-.166-2.24-2.043-.342-1.444.09zm-123.675-.582c-2.582.255-5.252.62-7.574 1.849-4.127 2.695-8.643 4.748-12.794 7.413-4.252 2.668-8.336 6.089-10.34 10.816-.396.61.89.412 1.261.655 8.864 2.127 18.065 2.646 26.804 5.331 1.384.366 2.75 1.127 4.242 1.106 4.188.28 8.34-1.849 10.77-5.231.784-1.268 1.483-2.621 1.986-4.03.32-.651-.386-1.407-1.023-.948-1.832 1.29-3.314 3.023-5.142 4.327-1.33.31-3.237.048-3.731-1.464-.642-2.224.155-4.523.579-6.713.134-.942.621-2.123-.109-2.93-.94-.577-1.923.34-2.664.856-1.015.714-1.791 1.782-3.037 2.116-1.797.746-4.19.87-5.604-.692-2.032-2.287-1.49-6.074.624-8.127 1.137-1.15 2.725-1.736 4.238-1.923 1.263-.346 2.641-.507 3.76-1.22.57-.417.066-1.232-.56-1.182-.558-.084-1.125-.028-1.686-.01zm-64.727.086c-.965.417-1.02 1.66-1.228 2.558-.306.58.52.617.886.801.98.308 1.784-.698 1.658-1.618-.002-.734-.361-1.94-1.316-1.741zm108.844 3.33c-.712-.107-1.403.618-1 1.299.9 1.477 2.343 2.527 3.475 3.818.672.798 1.537 1.536 1.936 2.5.216 1.344.3 3.183-1.09 3.932-1.76.736-3.717.115-5.465-.357-2.124-.596-4.104-1.632-6.24-2.17-.692-.2-1.216.63-.758 1.174 1.238 1.728 2.58 3.798 2.14 6.024-.455 1.89-2.595 2.67-4.356 2.6-2.788-.024-5.674-1.732-6.752-4.421-.544-1.281-.656-2.698-.55-4.073-.447-.558-1.411-1.175-1.957-.39-.532 1.126-.074 2.425.17 3.574.976 3.389 2.547 6.743 5.145 9.193 1.335 1.241 3.219 2.08 5.06 1.66 2.016.26 4.056.003 6.063-.186 9.639-2.494 18.89-6.634 28.843-7.601 5.474-1.146 11.2-1.302 16.45-3.385 1.891-.79 3.979-2.1 4.314-4.302.203-1.24.37-3.202-.801-3.561-13.017-3.992-27.09-1.18-40.315-4.41-1.424-.346-2.834-.87-4.312-.918zm79.205 1.324c-.411.125-1.054.569-1.106.862.475.453 1.321 1.15 1.907.48.512-.568-.036-1.56-.801-1.342zm-193.479 2.93c-.98.318-.961 1.573-1.134 2.414.673.365 1.762.686 2.226-.15.438-.79-.015-2.39-1.092-2.264zm-2.972 4.199c-1.018.042-.983 1.3-.792 2.027-.076.677.522.722 1.044.772.79.18 1.616-.572 1.281-1.373-.236-.659-.788-1.368-1.533-1.426zm195.402 1.1c-.464.133-.676.954-.396 1.285.32.457 1.155.64 1.324-.026.156-.52-.282-1.515-.928-1.26zm-199.422 2.449c-1.274.095-1.633 1.577-1.963 2.582.94.426 2.314 1.048 3.135.082.687-.918.022-2.617-1.172-2.664zm-2.668 4.37c-1.053.127-1.116 1.436-1.122 2.27-.161.764.134 1.022.87.795 1.004-.045 1.784-1.103 1.405-2.062-.17-.5-.575-1.018-1.153-1.002zm202.192 2.198c-.568.02-.864.579-1.196.959.355.557 1.1 1.35 1.758.736.47-.536.28-1.711-.562-1.695zm-201.91 1.857c-1.017.044-.981 1.3-.792 2.028-.077.677.523.72 1.045.771.79.185 1.616-.574 1.282-1.373-.237-.659-.79-1.366-1.535-1.426zm2.636 3.58c-.806.311-.353 1.326-.063 1.865.434.343 1.13.619 1.721.489.805-.401.222-1.372-.289-1.768-.366-.314-.853-.744-1.369-.586zm4.364 1.436c-.865.181-.628 1.26-.336 1.838.175.476.886.42 1.336.467.817-.013.959-1.055.422-1.527-.348-.408-.85-.849-1.422-.778zm5.218 1.879c-.859.181-.65 1.23-.427 1.828.644.143 1.771.345 1.906-.57-.01-.7-.797-1.34-1.479-1.258zm5.076.846c-1.001.077-.965 1.306-.739 2.025.05.513.82.31 1.224.35.84.032 1.343-1.002.777-1.632-.284-.403-.748-.758-1.262-.743zm182.59.414c-.765.208-.805 1.146-.902 1.795.543.442 1.544 1.021 2.041.21.36-.736-.194-2.135-1.139-2.005zm-178.228.793c-.95.016-1.026 1.188-.763 1.875.1.52.255 1.014.886.91.73.16 1.854-.124 1.76-1.057-.138-.854-1.01-1.686-1.883-1.728zm4.615 1.435c-.971.13-.84 1.323-.522 1.98.04.63.755.43 1.203.443.813.045 1.364-.935.817-1.57-.337-.47-.893-.89-1.498-.853zm4.846.65c-.932.088-.82 1.264-.548 1.904.137.507.307 1.007.91 1.054.645.287 1.83.391 1.935-.543-.045-1.027-.94-1.844-1.786-2.315-.16-.066-.337-.119-.511-.1zm166.504 1.24c-.783.16-.765 1.148-.873 1.768.443.48 1.272 1.165 1.859.504.407-.752.061-1.983-.775-2.27-.071-.033-.14-.02-.211-.001zm-161.067 1.526c-.653.172-.637.962-.668 1.504.6.273 1.676.6 1.905-.295.045-.643-.565-1.359-1.237-1.209zm156.701.965c-.666.075-1.034.716-1.45 1.162.382.624 1.157 1.507 1.935.924.692-.534.616-2.154-.485-2.086zm-152.502.217c-.933.004-1.009 1.146-.724 1.807.017.71.564.711 1.123.584.796-.02 1.365-.97.842-1.627-.275-.41-.734-.749-1.24-.764zm145.973 1.73c-.624.105-.801.791-1.033 1.28.557.408 1.476 1.165 2.076.42.43-.68-.208-1.832-1.043-1.7zm-141.162-.008c-.873.035-.966 1.076-.951 1.748.643.377 1.58 1.118 2.262.448.558-.799-.436-2.165-1.311-2.196zm137.129.657c-.586.003-.876.62-1.201 1.013.37.528 1.14 1.204 1.724.57.418-.511.258-1.596-.523-1.583zm-13.649 1.103c-.807.253-1.013 1.212-1.33 1.895.456.56 1.36 1.219 1.998.533.6-.66.542-2.561-.668-2.428zm8.915.156c-.494.071-.825.767-.792 1.152.32.504 1.163.918 1.518.233.263-.528-.015-1.512-.726-1.385zm-4.573.18c-.368.203-1.096.739-.531 1.106.315.671 1.415.623 1.463-.186.11-.539-.358-1.16-.932-.92zm-122.36.047c-.364.142-1.19.654-.8 1.045.273.553 1.086 1.139 1.576.506.465-.574.063-1.751-.775-1.551zm113.194.75c-.596.093-1.048.537-1.566.81.697.417 1.66 1.265 2.44.534.531-.638-.11-1.518-.874-1.344zm-5.004.621c-.72.04-1.047.8-1.43 1.3.504.459 1.338 1.126 1.97.48.545-.521.344-1.797-.54-1.78zm-103.87.086c-.823-.024-.957.993-.538 1.525.183.657.945.47 1.483.46.763-.02 1.01-1.043.366-1.438-.36-.31-.831-.54-1.312-.547zm98.587.709c-.331.149-1.135.528-.912.872.302.574 1.147 1.1 1.637.423.44-.547.037-1.521-.725-1.295zm-9.57 1.725c-1.065.046-1.395 1.29-1.223 2.17-.098.666.818.177 1.233.203.766-.08 1.76-.734 1.355-1.612-.234-.506-.825-.784-1.365-.761zm-5.205.912c-.746.203-1.146.952-1.64 1.484.267.654 1.091 1.274 1.741.707.57-.465 1.08-1.604.346-2.123-.125-.067-.305-.117-.447-.068zm-74.94.482c-.795.016-1.045.906-1.17 1.541.67.335 1.686 1.05 2.313.274.438-.735-.338-1.813-1.143-1.815zm69.27 1.273c-.607.082-1.018.599-1.479.952.174.64.871 1.308 1.529.816.667-.362 1.077-1.783-.05-1.768zm-5.455 1.118c-.868-.006-1.03 1.004-1.158 1.664.709.124 1.84.447 2.167-.455.133-.603-.408-1.213-1.01-1.21zm-59.324.16c-.85.004-.876 1.076-.418 1.576.26.647 1.076.522 1.66.611.692.121 1.235-.726.69-1.24-.501-.509-1.208-.92-1.932-.947zm55.16 2.113c-.495.088-.716.617-.996.977.126.566.775 1.21 1.316.695.497-.435.615-1.593-.178-1.704l-.097.022zm-50.233.227c-1.035.145-.918 1.43-.851 2.207.701.31 1.91.735 2.299-.223.228-.836-.564-1.984-1.448-1.984zm45.92 1.779c-.585-.007-.885.601-1.215.99.354.535 1.113 1.22 1.701.598.428-.5.302-1.585-.486-1.588zm-41.11.547c-.93.108-1.205 1.17-1.446 1.92.72.481 1.838 1.243 2.601.43.581-.832-.09-2.382-1.154-2.35zm31.84 2.555c-.696.252-1.027.991-1.413 1.568.3.66 1.038 1.558 1.82.994.655-.582.914-1.863.203-2.492a.763.763 0 0 0-.61-.07zm-28.478.345c-.818.39-.304 1.44-.05 2.054.454.372 1.179.711 1.802.532.786-.466.17-1.438-.305-1.902-.372-.363-.88-.884-1.447-.684zm19.377 4.836c-.6.09-1.117.433-1.668.662.522.574 1.307 1.372 2.129.825.663-.309.636-1.45-.178-1.489-.094.004-.19-.026-.283.002zm-12.568.483c-.705.018-1.173.63-1.649 1.066.616.503 1.476 1.363 2.309.762.68-.582.28-1.875-.66-1.828zm7.968 1.402c-.786.075-1.295.77-1.87 1.23.621.514 1.609 1.139 2.343.454.63-.51.48-1.73-.473-1.684zm-4.804.736c-.845.087-.7 1.27-.3 1.7.57.251 1.6.775 1.944-.034.128-.808-.743-1.473-1.455-1.66l-.093-.02zM211.5 88.322c-.487.286-.358.94-.36 1.418.52.266 1.475.483 1.63-.3 0 0-.63-1.52-1.27-1.118zm-45.708 80.617c-.487.286-.359.94-.362 1.418.521.266 1.476.483 1.631-.3.136-.632-.629-1.52-1.27-1.118zm-8.679 4.628c-1.363 1.514 1.03 2.09 1.27 1.12.78-2.691-.63-1.52-1.27-1.12zm-44.991-15.154c-.365.143-1.192.654-.802 1.046.274.552 1.087 1.138 1.577.505.465-.574.063-1.751-.775-1.55zm89.204-.675c-.365.143-1.191.654-.8 1.046.273.552 1.086 1.138 1.576.505.465-.574.063-1.751-.776-1.55zm51.504-26.247c.518.457 1.6.843 1.93-.034-.608-3.356-1.615-2.894-1.93.034zm-23.319-40.153c-.368.203-1.096.739-.53 1.105.295.618 1.316.662 1.442-.09.176-.55-.912-.348-.912-1.015zm-13.597-2.122c-.368.203-1.096.739-.532 1.106.296.617 1.317.662 1.444-.09.175-.552-.912-.35-.912-1.016zm39.78 11.135c.295.617 1.316.662 1.443-.09-.198-1.669-2.168-.475-1.444.09zm.821 7.248c-.666.075-1.034.716-1.451 1.163.382.623 1.158 1.506 1.936.923.692-.534.615-2.154-.485-2.086z" transform="translate(-10.853 2.777) scale(.4212)"/><path d="M252.921 139.03c-.365.142-1.191.653-.8 1.045.273.552 1.665 1.042 2.154.409.465-.574-.515-1.655-1.354-1.455zm1.35-18.71c-.365.143-1.19.654-.8 1.046.273.552 1.086 1.139 1.576.505.465-.574.063-1.75-.775-1.55zm-105.67-53.092c-.368.203-1.096.74-.53 1.106.295.617 1.316.662 1.442-.09.176-.551-.297-1.274-.912-1.016zm-84.575 50.34c-.368.204-1.096.74-.532 1.106.296.618 1.317.662 1.444-.09.175-.55-.298-1.274-.912-1.015z" style="fill:#000;stroke-width:.0736838" transform="translate(-10.853 2.777) scale(.4212)"/></svg>