<svg width="400" height="400" viewBox="0 0 105.833 105.833" xmlns="http://www.w3.org/2000/svg"><path style="fill:#000;stroke-width:.195429" d="M125.658 32.057c-11.432.32-22.932-.828-34.304.375-3.302.349-4.626 4.614-5.543 7.678-3.21 9.245-4.696 18.358-12.554 23.857-3.035 2.181-6.545 3.81-9.056 6.647-.916 1.105-1.731 2.512-1.631 3.985.462 3.048 2.167 6.145 5.133 7.358 3.426 1.444 7.363.434 10.443-1.385 2.55-.337-2.114 9.624-2.962 11.504-7.137 17.37-18.138 34.977-23.397 50.873-4.861 14.452-6.456 30.14-3.657 45.184 2.359 12.008 6.45 23.835 13.24 34.086 5.058 7.683 11.824 14.328 19.928 18.75 3.126 1.913 6.736 2.783 10.1 4.172 3.847 1.775 8.981 4.044 6.008 8.806-2.844 3.568-7.312 5.01-8.07 9.271-1.633 9.167 3.74 14.252 11.813 14.271 2.83-.004 7.42-3.134 10.34-3.457 6.425-.71 10.12 6.682 17.3.002 1.99-1.628 3.475-3.875 4.041-6.371.577-2.537.144-4.666-1.62-6.467-2.415-2.701-8.615-4.26-8.297-8.774.549-7.776 23.396-10.11 32.133-23.341 6.744-7.677 12.16-16.717 14.703-26.673 5.258-24.668 1.944-50.973-8.785-73.758-1.477-3.052-2.718-6.214-4.283-9.224-5.853-11.756-13.257-22.782-17.95-35.074 2.73.27 5.303 1.77 8.134 1.619 1.553-.039 2.919-1.171 3.333-2.651.363-.958.33-2.04.485-3.001 1.717-1.865 3.286-4.355 2.756-7-.605-2.763-2.932-4.662-5.04-6.335-7.498-5.491-13.617-12.534-16.44-20.812-2.315-10.695-3.806-14.185-6.3-14.115zm-.156 2.103s3.542 12.984 6.831 18.906c3.129 4.31 5.73 8.907 9.847 11.867 2.596 1.842 5.472 3.305 7.715 5.536 1.07 1.022 1.779 2.678.996 4.08-.386.801-.997 1.464-1.625 2.082-.11 2.224-.324 4.757-2.026 6.39-1.53 1.39-3.853.885-5.494-.032-2.04-1.095-7.71-8.55-6.785-3.304.501 3.093 1.872 5.957 3.075 8.825 1.206 2.692 2.423 5.384 3.63 8.074 8.935 16.018 17.891 32.23 23.337 49.83 1.437 4.682 2.664 9.408 3.475 14.251 1.608 12.005 2.162 24.295-.162 36.257-1.66 8.684-5.068 17.112-10.476 24.15-4.888 7.64-11.649 14.13-19.451 18.688-4.867 3.606-15.052 4.501-17.355 8.665-1.51 2.77-.689 6.388 1.561 8.51 3.968 2.638 9.024 5.194 7.745 10.213-3.647 14.315-13.186 4.538-18.96 5.04-7.975 5.275-23.582 2.914-20.37-8.048 1.36-4.64 7.415-6.59 9.58-10.334 1.023-1.757 1.276-4.11.045-5.835-.949-1.348-2.352-2.381-3.864-2.998-13.274-3.34-24.913-12.148-32.54-23.476a60.64 60.64 0 0 1-7.088-14.192c-5.349-11.847-7.586-24.871-7.59-37.819.506-7.95 2.068-15.794 4.3-23.45 3.434-11.729 8.54-22.876 14.494-33.514 6.389-12.117 14.536-30.8 15.42-38.008.324-2.633-6.28 4.043-9.795 5.391-1.88.7-3.891 1.343-5.827.585-1.968-.882-2.51-3.23-2.684-5.18-.572-4.373 3.937-6.253 6.88-8.175 3.129-1.989 6.517-4.055 8.313-7.43 5.825-7.103 5.111-16.983 9.865-23.448.69-.83 1.518-2.196 2.577-1.965 11.517.419 20.958-.222 32.406-.132zm-27.475 78.715c-4.343.156-8.17 2.804-10.896 6.03-3.548 4.217-5.893 9.424-6.835 14.846-1.391 8.623 1.644 17.599 7.255 24.174 4.912 5.835 12.03 9.934 19.685 10.613 7.123 1.003 14.468-1.295 20.126-5.643 7.814-5.927 12.934-15.571 12.67-25.463-.196-5.702-2.521-11.229-6.052-15.666-3.525-4.41-8.644-7.82-14.356-8.362-.336.073-1.88-.29-1.105.184 1.458 1.157 3.15 1.997 4.479 3.324 6.993 8.253 9.008 16.756 5.19 25.69-4.018 6.379-9.367 9.806-16.164 10.453-5.48.554-11.274-.746-15.694-4.114-3.75-2.909-5.98-7.536-6.634-12.069-.454-7.549.906-14.538 6.115-19.5 1.849-1.842 4.206-3.022 6.587-4.017-1.448-.233-2.893-.56-4.37-.48z" transform="translate(7.329 -11.087) scale(.4182)"/></svg>