<svg width="400" height="400" viewBox="0 0 105.833 105.833" xmlns="http://www.w3.org/2000/svg"><path style="fill:#000;stroke-width:.527675" d="M408.977 275.713c-6.964-.388-13.393 1.756-20.9 5.139-18.727 8.32-43.858-7.492-58.964-2.696-15.378 5.337-15.099 18.767-35.853 11.155-11.757-4.313-23.897 6.461-33.207 14.197-14.283 11.867-26.085 5.978-43.772 15.486-13.508 7.262-16.582 34.066-22.58 35.227-15.21 2.124-31.58 9.162-34.015 25.318-1.118 9.94-12.779 14.883-20.413 19.127-21.034 11.636-11.73 13.314-15.408 31.518-3.06 15.149-24.674 18.688-27.058 34.443.399 24.365-10.425 37.828-18.16 52.488-6.02 11.472-1.746 26.162 6.326 33.649-7.592 2.602-14.65 8.667-15.823 16.875-2.91 20.37 6.633 43.207-.765 61.888-9.749 24.616 11.173 29.788 24.549 34.356 1.355 1.1 5.392 3.015 3.474 4.605-11.244 9.32-19.887 16.25-15.008 31.84 4.626 13.18 13.511 21.858 22.832 32.885 10.07 11.912 8.629 30.901 19.473 42.726 6.287 6.857 15.546 10.565 24.797 10.49-5.634 19.122-2.324 26.853 10.473 38.126 9.55 8.413 22.54 13.576 31.246 21.416 7.634 6.876 9.55 13.142 17.52 18.771 8.024 5.668 18.998 7.09 28.06 2.76 7.96-3.804 13.953-10.678 18.373-18.09 4.875-8.176 4.891-18.297 8.969-26.906 5.301-11.194 12.792-4.994 11.552 4.82-1.836 14.538-13.817 20.053-17.351 24.822-24.745 33.399-5.104 54.41 26.092 56.344 21.736 1.784 42.396 16.205 61.189 15.488 19.097-1.008 23.81-20.634 24.115-35.687 1.544-15.844-11.385-34.555.354-44.705 2.903-2.51 7.34-1.72 9.605 1.336 5.979 8.063 4.625 18.672 2.465 27.785-2.93 12.362-8.418 24.505-7.69 37.47.353 8.25 5.918 15.57 13.311 18.966 19.836 9.521 39.176-6.528 52.533-6.032 41.548 2.16 51.12-12.27 50.541-32.896-1.919-14.809-13.216-24.139-17.441-38.002-1.418-4.765-3.255-10.65-.37-15.094 2.27-3.494 8.292-3.292 10.786-.775 6.942 7.003 5.29 18.46 6.133 27.869.716 9.455 1.127 20.133 8.012 27.43 12.168 9.923 21.556 15.98 41.353-3.92 15.035-15.899 60.355-22.62 68.684-38.909 9.75-19.07-2.523-45.698-23.846-49.718-7.982-1.505-21.097-3.384-21.6-12.399-1.088-19.517 22.017-30.422 27.022-11.254 2.423 9.283 10.075 28.7 16.281 33.989 23.686 19.596 41.132-4.857 50.764-26.7 8.801-20.046 27.057-34.218 39.802-51.906 3.84-5.86 2.09-13.539-1.87-18.844-10.46-11.614-9.727-11.574 4.997-19.869 22.547-16.646 13.779-36.107 16.745-55.623-1.678-7.183 8.026-24.43 8.785-27.795 4.995-26.037-19.57-35.777-41-35.738-9.07.083-17.65 3.408-26.535 5.088-20.367 3.85-18.437-28.232-.686-20.49 25.734 11.223 59.985 10.361 55.082-22.555-2.595-17.418-12.733-30.898-17.717-45.893-1.81-5.445-1.972-25.547-3.6-28.49-2.59-8.189-9.375-15.828-18.28-16.459-18.961-1.344-35.933 13.35-45.524 26.766-11.945 16.71-34.886-6.484-20.211-13.483 21.495-10.25 51.834-10.882 57.873-32.556 2.647-10.447 3.004-15.925-9.787-28.58-12.682-12.548-24.427-16.863-34.383-30.52-6.453-8.961-14.027-18.654-25.318-21.353-38.711-14.063-34.68 36.148-48.127 50.726-18.537 18.463-24.75-9.777-12.906-21.127 9.351-8.961 24.96-15.64 28.707-26.982 3.538-10.714-.737-23.098-9.153-30.36-12.03-10.38-28.726-13.81-44.418-13.91-18.25-.116-30.492-16.908-46.57-18.826-7.433-.693-15.103 5.68-19.33 11.889-3.958-8.587-12.299-12.756-19.774-16.416-4.913-2.338-9.284-3.482-13.462-3.715zm-2.051 7.256c12.85.022 24.366 5.19 26.863 20.426.66 10.527-5.124 19.096-11.78 25.945-16.187 16.66-3.56 42.027 14.016 47.033 14.164 1.503 19.292-11.196 17.76-22.11-1.404-10.003-7.772-20.12-8.586-29.245-.865-17.327 2.632-43.274 23.524-33.47 24.23 11.373 31.416 19.108 55.25 19.589 12.379.25 24.637 8.167 31.326 19.234 3.101 5.131 3.923 11.85.336 16.895-7.65 10.759-20.122 16.635-28.397 26.865-5.286 6.535-12.387 14.893-4.328 23.514 18.04 19.296 27.483 2.289 33.692-13.672 3.912-10.057 6.587-21.158 14.054-29.31 4.66-4.725 11.88-5.442 18.176-5.063 11.195 1.111 19.33 9.995 25.908 18.3 9.507 11.947 21.104 21.614 32.045 32.971 38.4 39.86-47.26 43.89-49.56 59.604-4.989 34.06 28.462 23.24 48.63-2.377 14.149-17.97 40.4-6.138 39.856 14.964-.021 16.35 9.531 25.857 13.096 37.598 8.341 27.477 4.301 60.84-25.594 47.92-12.599-4.893-24.122-9.967-34.287.074-11.481 12.101-6.249 21.941 7.89 23.866 18.232 2.48 40.697-6.659 55.608-.024 23.165 10.308 14.743 23.295 9.515 42.065-1.74 6.247-1.678 26.66-2.718 33.066-2.468 15.199-3.763 32.927-21.932 34.174-8.567.465-16.08-4.54-23.305-8.47-9.92-5.515-20.283-12.44-32.13-11.823-17.437.545-15.361 20.347-7.124 25.771 16.46 10.837 40.37.879 55.79 6.504 3.308 2.102 5.502 5.736 7.521 9.053 3.751 6.273 3.026 14.325-.863 20.348-9.391 15.18-27.616 24.206-33.444 41.384-6.901 20.345-21.306 44.248-41.148 33.437-17.194-9.368-11.574-24.269-18.75-38.235-11.299-21.992-45.141-.173-37.91 17.355 3.83 9.286 13.3 14.61 22.435 16.12 22.758 3.758 39.27 34.129 18.842 47.702-12.584 8.362-27.885 11.425-40.668 19.26-2.215 1.007-4.061 2.914-6.31 4.03-10.373 6.447-20.058 14.531-31.758 18.14-6.563 2.024-15.355.035-19.34-6.44-4.497-7.904-3.427-17.417-3.756-26.158-.156-9.532.021-20.38-6.63-27.95-1.737-1.976-4.012-4.566-6.637-4.497-6.59.173-14.63 2.153-17.754 8.668-3.265 6.808.39 14.459 3.351 20.748 5.134 10.902 12.636 20.83 15.647 32.639 2.1 16.564-9.181 30.334-24.233 28.728-21.514-2.295-37.12 7.154-53.267 8.627-8.275 1.957-17.875-.693-22.7-8.023-7.958-11.736-5.69-25.379 2.867-36.124 11.936-14.988 1.06-48.646-13.538-47.511-29.499 2.293-8.886 52.756-12.69 69.7-1.75 7.06-7.932 17.27-14.78 14.306-44.657-19.337-46.405-9.65-84.9-24.127-7.148-2.688-8.306-13.843-5.521-21.34 4.146-11.16 11.48-20.161 18.738-29.258 7.323-9.177 14.816-27.657 4.022-32.748-15.184-7.16-27.827 22.63-28.866 32.51-2.496 23.75-23.214 22.818-38.742 12.625-7.143-4.227-16.889-16.913-22.074-20.51-4.708-3.266-22.09-12.638-26.533-15.914-6.517-4.805-9.297-13.23-9.854-21.047 3.488-27.756 34-22.209 47.477-35.254 3.025-2.928 4.387-7.425 4.705-11.539.652-8.433-1.993-13.411-9.89-12.992-10.002.531-20.174 6.153-25.055 14.66-6.786 11.826-11.18 28.054-28.604 25.785-8.392-1.403-14.435-8.371-17.744-15.802-6.544-13.758-2.74-24.766-13.603-36.155-7.893-6.862-22.12-18.566-22.051-29.525.07-11.208 5.826-23.51 16.82-27.475 7.005-2.526 14.368.628 20.393 4.467 9.823 6.26 23.112 2.67 32.02-4.004 4.738-3.55 11.476-8.827 7.491-15.84-9.319-16.401-31.32-4.068-44.797 2.305-20.859 5.67-46.29-3.347-45.322-18.877.763-12.246 6.216-23.256 4.15-34.943-1.58-11.442-7.417-38.74 3.225-44.182 23-10.76 32.049 6.535 54.53 12.334 11.78 2.822 28.529-3.252 26.619-14.144-2.109-12.022-19.449-12.772-28.914-12.512-15.824 2.656-35.318 6.734-43.729-1.572-7.308-9.545-12.627-13.85-6.146-25.784 12.569-15.758 14.364-23.368 18.293-41.382 1.323-10.204 3.25-24.109 13.554-26.659 16.273-4.027 26.939-3.454 35.916 9.268 3.907 5.536 18.75 17.208 25.98 17.992 17.792 1.93 18.931-18.898 6.897-25.879-8.089-4.692-15.857-4.989-21.6-5.338-19.887-1.207-27.892-.738-33.078-19.558-2.132-7.74-1.563-10.055 4.163-16.235 7.581-8.182 24.618-9.122 30.605-23.71 8.296-20.216 11.969-30.184 31.943-26.622 14.52 2.59 14.182 30.414 32.399 45.444 22.962 18.945 40.33-6.095 18.95-23.496-15.402-12.535-44.7-33.274-37.706-45.543 5.872-10.303 30.803-17.715 41.83-19.373 15.302-2.302 24.342-22.402 40.277-22.797 21.328 1.435 21.31 19.567 17.168 36.38-2.626 10.665-3.518 23.069 2.364 32.526 10.003 16.084 28.784 12.99 26.584-6.734-2.551-22.863-27.858-56.644-13.252-69.59 5.946-4.19 13.786-3.471 20.406-2.678 13.055 1.564 26.826 7.919 39.467 3.178 7.012-2.63 15.203-4.47 22.914-4.457zm-63.227 9.414c-8.077.703-16.084 7.744-16.681 16.172-.505 7.129 6.378 12.043 12.486 14.242 7.257 2.613 15.062-2.362 18.226-8.94 1.399-2.906 2.496-6.012 1.487-9.287-2.912-9.448-9.236-12.734-15.518-12.187zm60.248 2.76c-7.357.073-15.436 3.828-16.478 11.287-.623 6.196 3.942 11.894 8.924 14.935 5.872 3.585 13.959.143 17.863-5.023 2.944-5.125 4.976-12.506.48-17.362-2.22-2.6-6.374-3.882-10.789-3.837zm-63.35 6.722c5.829-.432 11.616 5.337 10.346 9.805-.747 2.63-2.32 6.476-5.798 5.588-3.097-.79-6.528-2.194-8.305-4.783-1.945-2.834-2.757-8.355 1.277-10.024a8.013 8.013 0 0 1 2.48-.586zm65.909 3.776c8.426.693-.747 9.976-3.145 9.765-2.933-.41-7.367-2.853-6.857-6.068.578-3.642 6.71-3.714 10.002-3.697zm63.588.14c-7.921.239-16.444 6.097-18.131 12.283-1.755 6.437 4.13 11.656 9.13 14.93 6.28 4.11 14.816 2.063 19.214-3.713 3.598-4.726 4.517-11.642 1.789-16.717-2.713-5.045-7.25-6.926-12.002-6.783zm-28.752 1.242c2.406 6.526-.515 18.883.775 25.76.931 4.964 4.781 13.524 5.737 18.44 4.331 22.291-16.637 23.612-24.618 7.04-5.33-11.068.474-22.461 6.84-31.296 5.07-7.035 7.31-11.843 11.266-19.944zm-153.049 2.547c-7.664.268-15.52 4.996-16.543 10.907-1.13 6.527 4.116 12.567 9.463 15.289 5.287 2.69 12.694.393 16.46-4.053 3.755-4.432 6.698-11.986 2.692-17.1-2.944-3.758-7.474-5.203-12.072-5.043zm28.77 2.506c6.728 14.004 18.608 33.146 15.925 48.826-1.95 8.607-14.41 12.817-20.129-4.351-5.416-16.26 2.515-34.523 4.203-44.475zm155.136 1.707c5.595.665 5.798 7.784-.976 13.213-3.08 2.469-8.484-1.386-10.86-4.932-1.824-2.721 2.238-5.35 4.502-6.492 3.005-1.514 5.47-2.01 7.334-1.789zm-186.926 4.389c4.423-.508 10.5 2.113 9.28 4.601-3.822 7.788-12.09 10.239-13.518.399-.473-3.264 1.585-4.695 4.238-5zm238.184 8.115c-6.921.484-15.044 3.347-17.768 10.326-2.075 6.213 2.724 12.02 7.393 15.526 4.573 4.159 11.8 4.038 17.137 1.44 5.469-2.807 7.891-9.192 8.636-14.958.7-5.495-3.453-10.604-8.757-11.687-2.161-.582-4.41-.742-6.641-.647zm-280.937 2.92c-7.845.116-15.976 5.754-17.756 12.262-1.761 6.435 4.13 11.655 9.13 14.93 6.28 4.11 14.816 2.062 19.213-3.713 3.599-4.726 4.84-11.83 1.79-16.717-3.068-4.913-7.67-6.831-12.377-6.762zm279.578 4.242c6.462.218 10.59 9.809 1.822 15.02-8.453 1.467-10.528-9.444-8.672-11.604 2.282-2.52 4.695-3.488 6.85-3.416zm-277.467 2.584c.73.017 1.398.247 1.955.791 8.006 7.823-8.28 15.167-13.422 8.645-2.028-2.573 2.284-5.262 4.502-6.492 2.012-1.116 4.772-2.993 6.965-2.944zm-36.254 24.643c8.822.373 32.809 21.378 37.61 29.789 8.739 15.312-3.578 19.052-13.702 9.723-5.1-4.7-24.453-35.446-23.908-39.512zm379.102 2.053c-6.962.356-13.901 3.486-14.805 9.242-1.1 7.005 3.764 13.694 9.08 17.515 10.84 7.791 22.564-2.964 23.709-13.37.721-6.554-5.342-11.402-11.238-12.813-2.103-.503-4.426-.693-6.746-.574zm3.685 7.123c13.244-1.079-2.285 21.156-7.408 11.09-1.425-2.8-3.857-7.56-.143-9.04 3.18-1.267 5.66-1.896 7.551-2.05zm-401.799 4.261c-6.636.13-14.6 2.618-15.662 9.256-1.12 7.003 3.764 13.695 9.08 17.516 10.84 7.79 22.564-2.965 23.71-13.371.72-6.554-5.368-11.303-11.24-12.813-1.611-.414-3.676-.631-5.888-.588zm-.87 8.082c4.75-.561 11.14.69 9.655 5.362-1.19 3.745-4.575 7.528-8.662 7.386-6.19-.214-8.201-9.587-4.845-11.642.867-.531 2.268-.919 3.851-1.106zm439.507 20.45c-8.473-.054-17.253 4.628-18.156 11.074-2.514 17.933 17.615 25.776 28.79 14.676 4.749-4.753 7.007-13.975 2.518-19.897-3.095-4.083-8.068-5.821-13.152-5.853zm-468.018 6.142c-9.008-1.484-20.074 7.584-21.218 14.756-1.128 7.067 5.055 13.337 11.279 15.576 7.619 2.741 15.561-3.42 18.469-10.246 1.93-4.53 2.026-10.42-.65-14.623-2.103-3.3-4.877-4.968-7.88-5.463zm464.239 2.219c5.442-.242 11.637 3.446 11.609 7.244-.036 4.952-5.375 8.423-9.67 9.516-7.947 2.022-10.287-12.372-6.873-15.067 1.389-1.096 3.12-1.612 4.934-1.693zm-469.516 7.639c4.691-.13 9.585 2.455 7.953 6.064-1.376 3.044-3.968 6.147-7.146 6.967-7.98 2.058-9.054-9.77-5.182-11.934 1.27-.71 2.811-1.054 4.375-1.097zm-8.533 28.992c9.821 1.788 37.319 3.936 40.11 13.543 2.025 6.973-8.426 14.76-14.805 10.713-7.237-4.593-17.236-13.34-25.305-24.256zm-20.276 10.144c-7.648.6-15.772 6.062-17.318 13.973-1.261 6.456 4.553 11.315 9.744 14.17 7.908 4.35 19.626-1.087 20.041-10.195.503-11.039-1.14-18.835-12.467-17.948zm538.768 7.33c-8.211.31-16.697 5.757-19.326 13.797-1.974 6.035 2.423 11.925 7.547 14.758 20.651 11.256 29.353-28.302 11.779-28.555zm-543.793 1.452c4.734-.529 11.874 3.104 10.857 6.816-.838 3.06-3.128 6.5-6.209 7.205-4.354.998-7.252-3.992-8.289-7.693-1.174-4.196.8-6.011 3.641-6.329zm543.006 7.978c8.65.81 5.233 9.657.174 13.193-5.932 4.146-13.272-4.68-11.242-8.45 1.96-3.641 6.994-5.125 11.068-4.743zm-557.145 38.086c-8.717-.523-19.048 8.14-20.02 14.535-.953 6.276 3.663 12.944 9.278 14.805 14.5 4.804 25.653-16.53 18.516-25.33-2.141-2.64-4.868-3.836-7.774-4.01zm570.223 4.305c-8.446.48-17.165 6.717-18.61 15.375-1.179 7.068 4.49 13.365 10.567 15.765 10.932 4.317 22.367-5.17 21.371-15.156-.964-9.665-3.987-16.515-13.328-15.984zM99.254 519.63c.547.051 1.142.222 1.789.527 22.244 10.499-6.634 22.218-6.908 10.297-.132-5.719 1.292-11.184 5.119-10.824zm573.312 5.52c11.22.576 16.342 11.957 1.024 17.204-3.218 1.103-6.986-2.009-8.03-4.882-1.334-3.676-2.48-10.88 1.866-11.86a18.964 18.964 0 0 1 5.14-.463zm-535.418 26.017c33.783-1.178 18.668 26.564-9.33 13.473-3.534-1.868-26.747-10.468-30.625-13.442 10.16 1.553 30.469.012 39.955-.031zm-38.007 15.986c-8.555-1.31-18.333 4.438-19.852 13.159-1.176 6.754 5.294 11.642 10.697 14.607 4.168 2.287 9.145.995 13.133-.852 5.881-2.722 10.178-9.546 8.053-16.05-2.205-6.751-6.898-10.078-12.031-10.864zm-3.63 5.89c5.116.1 9.139 5.841 9.141 8.626.004 3.812-4.443 6.408-7.838 7.295-7.426.28-9.61-11.19-6.673-13.82 1.839-1.54 3.666-2.133 5.37-2.1zm592.253 21.294c-8.24.505-17.097 5.598-19.385 13.885-1.883 6.819 3.86 12.457 8.904 16.45 3.865 3.061 8.878 3.095 12.865.802 11.284-6.49 13.106-23.244 4.776-29.248-2.059-1.484-4.672-1.939-7.16-1.89zm-5.653 6.404c7.69-1.498 15.712 8.54 10.68 13.069-3.024 2.72-7.633 7.059-11.54 3.964-4.385-3.474-7.02-12.372-2.376-15.634a8.391 8.391 0 0 1 3.236-1.399zM100.94 623.4c-7.655.337-15.567 6.396-16.357 14.307-.658 6.589 5.406 11.482 11.031 13.43 7.482 2.59 16.123-6.299 15.807-11.834-.505-8.846-1.494-16.298-10.48-15.903zm-2.449 8.215c3.976-.139 7.779 1.23 7.008 4.643-.821 3.638-3.695 8.592-7.475 8.248-3.685-.336-7.456-4.386-7.58-8.49-.079-2.615 4.071-4.262 8.047-4.4zm578.944 14.77c-7.095-.632-14.406 2.721-16.08 9.295-1.947 7.64 1.27 15.917 6.287 21.763 4.06 4.734 11.491 3.352 15.959.008 7.507-5.618 11.404-17.895 5.109-25.46-2.84-3.413-7.018-5.227-11.275-5.606zm-528.493 6.408c5.782.63 8.794 3.293 9.797 6.205 2.066 5.995-10.029 14.577-21.98 14.6-8.461.016-14.493-5.304-28.643-8.688 13.683-4.008 24.779-10.888 34.092-12.004 2.57-.308 4.807-.323 6.734-.113zm528.448 2.223c4.9.143 9.385 2.395 8.455 6.455-.791 3.454-3.15 6.25-5.625 8.45-3.662 1.59-8.56 1.045-10.89-2.72-1.887-3.045-3.663-7.655-.132-10.101 2.162-1.498 5.251-2.17 8.192-2.084zm-42.946 22.656c7.212.136 35.886 14.12 35.22 18.527-10.497 4.216-39.132 1.95-43.243-6.597-3.814-7.93-.534-12.091 8.023-11.93zm-518.297 3.77c-5.1.107-9.525 3.212-11.654 10.835-1.804 7.676 1.236 15.948 6.287 21.764 4.026 4.763 11.491 3.35 15.96.008 7.506-5.62 11.536-18.008 5.109-25.46-4.25-4.928-10.601-7.255-15.702-7.147zm6.659 10.31c3.873.462 7.031 2.3 6.177 6.316-.892 3.43-3.148 6.25-5.625 8.452-3.661 1.59-8.945 1.257-10.89-2.721-2.247-2.79-3.695-7.702-.131-10.102 2.007-1.492 6.595-2.407 10.469-1.945zm534.168 23.486c-6.96.366-15.271 4.348-16.328 11.885-.911 6.493 3.989 12.506 9.24 15.531 5.827 3.358 14.03-.007 17.195-5.623 2.995-5.314 5.082-12.965.545-18.086-2.63-2.968-6.83-3.856-10.652-3.707zm-2.287 8.127c3.64-.15 9.309 1.387 9.218 5.81-.075 3.678-2.971 7.148-5.529 8.645-7.292 4.27-17.02-13.908-3.69-14.455zm-514.932 2.197c-7.655.337-16.16 6.36-16.358 14.307-.442 17.841 26.734 13.808 26.838 1.596.076-8.86-1.493-16.298-10.48-15.903zm-1.904 8.217c4.157-.14 7.959 1.229 6.463 4.643-1.498 3.416-3.696 8.59-7.475 8.246-3.685-.335-7.456-4.384-7.58-8.488-.08-2.614 4.434-4.261 8.592-4.4zm51.836 11.098c7.043.447 10.373 12.235 4.73 15.635-8.76 5.278-23.66 10.765-36.39 18.347 10.73-12.118 21.922-34.6 31.66-33.982zm439.736 16.096c-8.585.143-18.216 7.705-20.4 13.646-2.147 5.837 2.378 11.266 7.09 14.584 11.36 8.002 20.403-3.403 22.6-5.451 6.226-5.8.875-20.608-5.7-22.36a13.07 13.07 0 0 0-3.59-.42zm-2.84 5.068a4.567 4.567 0 0 1 1.647.627c9.072 5.604 4.07 22.041-5.198 18.144-4.2-1.765-9.142-6.075-6.879-11.021 1.984-3.827 6.487-8.42 10.43-7.75zm-438.379 18.191c-.957-.043-1.896.104-2.771.489-14.37 6.317-22.21 17.782-7.088 27.414 5.672 3.613 14.028-.005 17.193-5.621 2.995-5.315 5.084-12.968.547-18.088-1.972-2.226-5.009-4.064-7.88-4.194zm-5.06 8.616c3.64-.145 9.362 1.388 9.22 5.81-.184 5.733-9.042 11.922-11.369 8.252-4.088-6.448-8.821-13.627 2.149-14.062zm43.074 20.672c-8.804-.962-19.065 6.035-20.912 12.568-1.85 6.541 3.222 12.847 8.422 16.264 7.177 2.844 16.772.77 20.341-6.53 2.71-5.541 4.706-13.45.1-18.377-2.245-2.4-5.017-3.605-7.951-3.925zm339.373 4.058c-6.961.333-15.273 4.348-16.33 11.885-.91 6.493 3.989 12.505 9.24 15.531 5.827 3.358 14.03-.005 17.195-5.621 2.996-5.314 5.082-12.967.545-18.088-2.63-2.968-6.829-3.89-10.65-3.707zm-347.125 2.545c6.036-1.086 12.223 6.448 10.215 10.94-2.867 6.413-11.905 9.564-14.705 3.03-1.699-3.962-2.184-10.263 1.937-12.943a6.897 6.897 0 0 1 2.553-1.027zm344.836 5.584c3.643-.082 9.31 1.385 9.22 5.809-.075 3.677-2.943 7.195-5.529 8.644-1.67.936-4.35 1.904-5.84-.39-2.11-3.251-6.075-6.896-4.539-10.971.94-2.491 4.267-3.037 6.688-3.092zm-58.416 32.652c-1.847 6.543 3.222 12.846 8.422 16.262 7.177 2.844 16.772.77 20.341-6.53 2.71-5.54 4.7-13.443.1-18.376-8.957-9.607-26.465.148-28.863 8.644zm23.373 4.975c-1.33 2.946-3.662 5.78-6.602 6.873-2.86 1.063-7.002-1.094-8.101-3.844-1.601-4.003-2.196-10.283 1.937-12.943 6.66-4.287 15.075 4.797 12.766 9.914zm-245.68 1.883c-6.573.276-14.472 2.835-17.014 9.521-1.394 8.085 8.719 21.002 16.07 18.317 9.479-3.407 18.124-17.433 12.223-24.125-2.865-3.015-7.297-3.769-11.279-3.713zm2.17 4.974c4.646.535 5.74 6.444 5.365 10.272-.436 4.457-7.988 4.602-10.164 4.094-2.918-.682-7.911-1.867-7.054-5.692 1.107-4.942 6.798-9.255 11.853-8.674zm53.578 2.836c-8.478.756-16.264 7.421-18.336 15.678-1.237 11.964 13.663 19.816 21.301 14.611 12.816-8.733 12.727-30.902-2.965-30.289zm118.332 4.688c-6.711.515-11.143 7.559-12.892 13.676-4.732 16.549 13.756 20.53 24.254 14.744 8.14-4.488 9.783-30.044-11.362-28.42zm-116.367 4.355c3.332.277 2.497 4.56 1.95 6.803-1.807 7.933-4.164 8.675-11.495 6.623-2.524-.654-4.322-3.524-2.54-5.838 2.513-4.063 7.24-7.342 12.085-7.588zm116.426 3.24c8.425-.698 11.196 5.9 8.314 10.924-1.605 2.8-4.64 7.633-7.945 5.28-5.723-4.075-10.566-15.358-.37-16.203zm-49.68 2.436c-8.17.503-16.636 6.526-18.203 14.889-1.238 6.605 4.358 12.058 9.922 14.58 6.256 3.12 13.618-.724 17.635-5.783 7.644-9.628 2.332-24.405-9.354-23.686zm-2.178 9.258c3.038.176 8.942 1.517 7.825 5.19-2.15 7.062-9.355 11.632-14.084 4.519-5.115-7.693-1.397-10.152 6.26-9.71z" transform="translate(-8.698 -40.393) scale(.1549)"/></svg>