<svg width="400" height="400" viewBox="0 0 105.833 105.833" xmlns="http://www.w3.org/2000/svg"><path style="fill:#000;stroke-width:.639436" d="M359.158 61.63C174.835 120.147 120.634 194.74 82.611 320.907c-25.271 83.856-22.877 159.636 4.292 243.069 35.21 108.123 83.276 263.059 222.577 318.36 17.792 5.932 32.432 9.328 33.778 31.993 2.589 43.595-23.202 71.906 9.735 96.084 19.52 14.328 47.244 11.216 52.775-11.923 8.656-36.212 1.118-37.519 1.543-74.387.334-29.091 14.585-40.452 38.71-45.768 103.09-41.77 190.23-174.355 215.916-267.262 24.947-116.109 23.056-269.511-40.263-364.025C568.009 166.945 449.649 67.55 359.158 61.63zm302.457 419.493c.322 129.95-52.238 214.64-88.492 261.193-40.464 43.76-106.047 112.983-161.355 127.935-77.102-30.881 13.1-111.02 37.04-146.245 37.782-54.014 78.4-122.85 79.569-181.432.331-52.862.22-106.38-11.92-158.129-9.954-36.951-18.53-80.506-51.875-96.922-36.81-18.12-64.324-52.072-99.225-61.359-9.59-2.552-19.066 2.466-26.412 8.582-29.345 24.436-69.189 41.88-90.31 68.414-34.846 43.776-44.313 113.665-42.11 162.356 11.312 92.245 36.877 199.122 90.736 271.685 49.868 67.187 62.654 81.51 42.529 127.847C201.367 831.18 109.222 616.915 86.637 485.291c-19.589-136.159 81.815-384.569 243.26-377.06 252.292 47.484 331.398 243.757 331.718 372.892zM361.986 235.018l1.254 1.41c19.872 21.832 46.836 34.923 72.207 49.191 60.796 34.19 67.943 100.482 77.115 158.129.79 43.621 5.427 87.745-.841 130.99-1.477 10.63-3.307 20.992-6.631 31.19-8.314 25.503-20.011 46.439-33.867 67.484-17.385 26.405-88.683 132.804-85.411 74.442 26.005-109.065 86.53-118.67 88.083-213.096.757-46.045-8.028-92.359-23.067-136.166-9.956-27.393-26.939-52.964-51.01-69.861-32.607-24.697-60.775-9.185-83.283 17.203-14.663 18.169-32.078 45.432-37.545 64.66-12.255 43.107-20.971 79.68-14.658 120.088 3.18 20.35 10.188 58.487 17.98 73.9 22.227 43.961 46.66 101.803 87.712 70.04 33.295-25.76 38.552-32.251 45.972-50.222 10.32-24.332 12.266-51.056 13.795-77.136-3.338-68.452-16.61-163.512-45.692-215.808 74.073 42.085 72.73 95.777 78.694 149.719 3.377 30.544-8.762 67.136-11.526 97.74-1.908 21.135-19.943 40.27-31.12 58.128 6.742-17.502 17.273-36.65 19.618-55.39 3.42-27.345 6.89-54.421 4.025-82.233-1.98-19.218-10.199-40.612-7.584-9.656 3.336 39.49 1.83 79.713-10.446 117.881-4.642 13.897-9.335 28.776-18.103 40.6-21.787 32.119-44.645 66.782-58.471 103.046-63.438-52.093-66.086-51.037-94.204-110.93-21.577-45.96-24.472-98.087-33.99-147.716-7.15-81.752 14.422-174.754 82.961-217.788 19.876-12.48 39.183-25.857 58.033-39.84zm28.822 128.126c16.216 41.697 24.738 98.154 25.973 142.829.924 33.418 9.958 83.634-6.114 111.686-42.478 65.428-82.162 66.564-110.71-3.065-9.14-22.76-18.51-45.817-22.01-70.051-11.667-80.803 15.495-146.423 53.373-202.078 30.375-25.106 43.964-10.874 59.488 20.679z" transform="translate(13.1 -5.496) scale(.10754)"/></svg>