<svg width="400" height="400" viewBox="0 0 105.833 105.833" xmlns="http://www.w3.org/2000/svg"><path style="fill:#000;stroke-width:.717555" d="M441.672 137.693c-34.126-.513-112.04 9.223-130.647 51.979-9.726 58.898-60.598 78.726-79.138 153.861-52.942 214.55-59.2 476.247 104.625 638.9 22.858 22.696 49.345 42.126 78.8 55.956 14.183 6.659 29.896 10.856 45.475 9.582 70.699-5.783 124.486-76.965 164.197-127.867 40.562-51.993 68.478-114.682 80.434-179.924 13.565-74.025 10.638-159.855 6.555-226.867-2.687-44.089-12.685-86.894-23.756-129.272-16.866-79.121-58.759-129.606-103.143-186.51-51.173-68.843-62.776-39.524-98.87-49.437-21.543-6.805-10.702-9.892-44.532-10.4zm25.827 18.602c-.586 18.534-5.216 57.119-18.35 50.182l-17.72-9.357c-12.088-6.384-15.647-45.615-2.621-49.345 8.968-3.236 39.177-6.88 38.69 8.52zm-53.677-5.154c6.439 6.884 5.48 17.2.282 23.557-7.518 9.194-22.04 8.786-33.458 12.247-19.903 6.034-43.824 12.891-63.183 16.118 3.853-35.21 85.032-64.03 96.359-51.922zm121.862 8.495c14.088 3.84 38.905 36.557 38.905 36.557-30.995-10.381-50.435-20.921-82.558-16.188-24.865 3.664-24.558-13.93-14.444-21.77 7.605-5.896 41.148-3.218 58.097 1.401zm-120.383 25.567c.21-.002.42-.002.63.002 8.846 6.367-.11 25.173-5.986 28.274-19.666 5.794-39.212 13.727-55.222 26.812-39.63 40.482-59.568 106.222-66.504 158.13-5.637 42.187-12.386 84.185-12.719 126.686-.336 42.84-1.506 85.893 3.4 128.45 9.994 86.682 21.85 160.363 56.76 232.574 16.132 33.37 35.38 50.257 71.131 70.623 23.739 13.523 53.605 14.138 79.514 6.01 26.199-8.22 48.038-26.738 64.443-48.412 19.34-25.552 32.16-55.217 43.371-85.024 8.543-22.71 13.395-46.51 18.53-70.398 24.144-112.337 25.67-241.887 1.8-344.961-9.438-40.754-22.223-81.622-44.45-117.205-15.486-24.79-36.046-47.17-61.388-62.477-11.412-6.81-24.084-11.649-37.285-13.443-5.67-6.279-3.901-27.94-1.39-28.862 43.22-9.145 98.212.112 126.171 37.784 20.768 22.057 37.256 47.635 52.582 73.558 26.642 45.061 37.568 97.55 48.223 148.668 12.571 60.309 12.462 121.86 12.111 183.096-.263 45.97-6.76 91.867-19.236 136.268-11.32 40.287-31.137 77.649-51.734 114.25-21.448 38.113-50.549 64.652-79.56 91.312-49.31 49.115-94.686 86.218-154.138 46.34-32.022-21.742-64.824-44.765-87.908-76.084-28.84-39.13-49.206-86.2-59.69-128.998-16.36-66.79-30.108-134.703-32.484-203.49-2.62-75.906-1.79-152.884 17.768-226.61 3.628-13.675 6.594-27.504 10.502-41.111 10.62-36.973 25.84-72.943 48.094-104.46 11.558-21.246 32.254-38.78 56.601-41.933 30.704-3.975 44.813-15.234 58.063-15.369zm-9.19 47.03a60.85 60.85 0 0 1 2.23.023c5.046.068 9.4 1.707 14.466 1.385 18.154.082 36.926-3.752 54.56 2.232 5.5 1.948 10.58 4.863 15.828 7.377 9.473 4.771 16.883 12.101 24.62 19.326 41.305 38.576 66.643 92.19 73.107 144.887 8.53 69.538 32.704 126.174 27.098 193.467-7.01 84.14-23.716 194.329-54.239 258.44-16.89 35.475-46.057 70.233-62.04 77.857-27.834 13.274-64.561 25.591-96.675 1.58-91.741-30.96-108.404-249.128-108.89-337.065-.274-49.577-3.669-99.313 2.386-146.42 5.565-43.287 8.36-91.214 24.147-128.289 17.14-40.251 36.988-94.43 83.402-94.8zm52.698 10.822c-21.085.287-22.03 17.253-33.157 18.138-11.718.932-4.49-17.198-29.222-16.107-38.89 6.719-52.739 52.191-58.028 83.795-3.128 18.69-6.225 37.406-7.69 56.32-1.063 13.74.992 397.923 18.27 465.393 18.77 73.298 129.054 118.345 176.248 23.41 40.1-80.665 47.482-187.34 40.666-267.295-7.454-87.448-3.07-180.993-32.214-256.764-12.188-31.685-43.533-107.318-74.873-106.89zm-59.897 10.988c2.984.04 4.447 3.102 1.563 4.594-40.034 27.172-36.058 73.784-38.038 113.513-4.223 84.747-2.132 169.642-1.45 254.467.574 71.53-5.825 139.45 13.208 208.36 18.959 68.64 126.328 57.86 138.246 9.863 36-144.971 5.889-316.216-7.904-447.31-5.005-30.38-3.83-62.394-15.892-91.067-7.215-17.15-19.386-35.483-37.098-43.393-5.292-2.363 6.68-8.765 11.394-6.076 8.587 4.897 15.38 12.339 21.852 23.27 29.173 49.277 43.66 95.92 51.193 147.355 7.255 24.872 5.015 50.785 8.075 76.371 11.558 96.673 12.562 190.07-3.573 279.934-35.386 197.086-165.854 129.351-183.873 51.978-9.305-39.956-18.944-436.616-17.111-449.923 4.711-34.204 21.471-129.983 59.115-131.93.1-.005.197-.007.293-.006zm20.445 25.367c32.927.056 43.98 14.289 51.047 36.461 9.306 29.75 10.421 70.536 14.578 105.938 8.58 73.061 21.383 219.652 21.383 219.652 19.748 202.855-61.796 260.087-109.869 190.549-16.956-60.296-42.88-548.65 14.135-552.313 2.486-.16 4.865-.252 7.142-.279.534-.006 1.062-.009 1.584-.008z" transform="translate(4.156 -12.429) scale(.1108)"/></svg>