<svg width="400" height="400" viewBox="0 0 105.833 105.833" xmlns="http://www.w3.org/2000/svg"><path style="fill:#000;stroke-width:.754484" transform="translate(-13.575 -29.986) scale(.15853)" d="M451.469 272.613c-15.606-.367-30.634 1.682-43.864 7.889-30.212 15.778-59.96-7.619-91.359 2.785-30.97 10.262-64.699 15.11-92.973 31.922-37.744 22.444-67.421 61.64-77.453 104.773-7.005 30.121-26.84 51.809-41.01 78.463-31.972 71.008 5.605 140.315 70.21 181.069 11.2 15.046 20.156 66.204 73.416 91.771 41.754 20.044 75.651 34.027 166.046 12.822 92.205 43.425 179.651 6.679 218.12-27.886 65.12-38.131 54.534-79.514 68.655-111.412 44.83-80.231 56.45-182.548-3.753-254.655-27.066-25.051-68.712-14.863-90.133-40.03-15.715-31.552-45.511-55.177-78.687-63.59-23.586-5.982-51.205-13.308-77.215-13.92zm-4.844 9.295c8.835.74 17.736 28.146-.77 30.64-15.83 5.23-7.998-31.03.77-30.64zm29.414.166c11.584.417 6.636 16.34 1.463 28.49-20.922 7.459-19.414-28.916-1.463-28.49zm-55.086 1.809c9.176.93 17.716 26.964.844 31.299-15.314 5.593-11.34-31.99-.844-31.3zm81.522 2.84c8.84-.11 1.774 21.93-5.713 31.252-19.007.073-8.463-30.702 5.713-31.252zm-155.733.754c12.058.658 16.82 24.898 15.36 37.074-16.792 4.68-33.474-37.744-15.36-37.074zm-30.078 2.697c9.487-.793 25.877 20.52 19.51 32.281-16.281 9.116-33.067-30.725-19.51-32.281zm205.574 2.66c7.242.764 6.057 25.273-4.867 32.793-18.548 3.005-4.468-33.438 4.867-32.793zm-154.84 1.559c6.218-.445 26.114 22.44 15.795 33.892-8.83 9.8-20.465-33.558-15.795-33.892zm31.05.183c6.806.382 11.016 21.951 1.341 27.139-14.014 8.673-10.022-27.212-1.342-27.139zm-102.364 6.406c6.915.063 22.916 17.212 14.365 25.09-12.535 11.548-24.961-25.186-14.365-25.09zm244.527.457c6.584.08 7.162 25.205-6.867 31.303-17.006 4.558.954-31.084 6.867-31.303zm-273.591 5.737c9.75-.503 36.31 20.935 13.775 25.424-7.52 3.389-22.16-24.684-13.775-25.424zm294.996 7.295c7.586.447 4.022 21.16-9.096 26.008-18.673 10.08-4.849-15.513.064-20.825 3.908-3.846 6.907-5.309 9.032-5.183zm-319.81 1.931c10.637.148 35.153 20.035 17.618 26.104-11.496 6.207-27.877-25.952-17.619-26.104zm225.778 7.604c12.613 14.476-11.212 49.675-8.875 71.63 16.392-.992 8.275-57.452 28.832-69.91 15.552 11.77-10.934 43.753-11.466 62.5 9.906 8.088 16.36-44.172 26.347-55.976 23.135 5.335-11.927 42.625-11.912 61.014 13.258-6.015 17.846-35.36 28.205-49.467 21.571 1.026-19.029 40.102-16.472 55.033 13.98 1.107 41.898-66.353 38.681-37.764-1.598 14.202-35.469 54.597-14.924 39.844 5.667-12.242 37.673-56.19 24.098-23.394-2.506 11.722-28.525 23.705-26.006 40.562 10.002 3.21 42.615-56.977 39.02-30.709-7.763 6.728-50.872 51.56-25.305 29.729 24.352-24.6 8.001-2.418-3.34 10.297.862 12.202 26.821-31.142 41.094-32.266.507 18.957-49.308 33.501-39.438 51.594 24.271-12.487 39.905-46.178 67.174-46.606-15.408 17.386-40.01 28.607-57.074 46.496-26.178 18.293-.549 7.407 13.03-2.093 21.395-14.972 44.817-49.366 71.714-38.934-14.388 16.105-40.605 29.241-61.135 41.174-9.135 5.675-43.128 23.952-29.982 25.691 34.243-16.025 65.086-38.556 97.39-57.984 26.972-4.862 6.698 15.478-8.615 20.594-22.955 7.668-58.067 27.335-67.593 40.457 27.34-10.951 56.298-19.587 79.234-38.032 17.649-14.192 41.473 3.267 13.951 9.477-21.834 10.634-58.634 21.265-70.478 34.582 30.16-6.545 60.158-30.239 89.617-28.49 2.132 20.55-41.456 20.09-56.526 30.162-29.932 13.16 7.985 4.645 20.282.342 11.2-3.514 65.818-15.43 41.95.685-20.889 14.106-35.546 8.666-52.349 17.008-3.353 4.828 38.827-12.056 51.657-8.922 29.662 7.246-27.02 20.067-39.793 20.416-41.745 10.458 19.777.777 33.644-.44 32.23 4.34-15.697 18.892-29.213 15.499-41.155 3.233 12.054 1.877 24.92 5.023 35.655 8.718-25.188 11.785-40.844 10.514-6.587 8.718 39.278-1.842 48.075 7.185 22.23 22.816-39.967.12-52.504 10.504-9.502 7.87 38.045 1.874 48.607 11.371 17.957 16.146-30.81 7.345-42.064 5.504-29.12 6.475 33.4 7.263 35.507 19.899-14.886 15.637-48.142-4.241-67-6.508-10.1 8.71 50.235 9.132 43.715 24.514-16.968 13.53-46.234-18.957-67.537-13.405 11.47 12.39 53.895 12.278 60.041 28.342 5.724 14.961-5.59 7.9-8.017 7.148-19.76-6.121-46.103-21.811-69.434-31.017-9.22 12.568 39.794 30.548 57.137 34.785 25.508 6.232 27.569 41.406.242 19.91-19.426-15.28-40.763-28.252-63.082-38.16-18.225-18.522-10.15.986 1.441 8.049 24.869 10.734 46.636 25.004 68.858 40.3 17.762 32.874-25.514 4.762-36.81-6.788-10.897-3.727-51.843-43.598-45.891-24.145 25.875 17.558 52.203 34.195 77.283 53.139.162 28.817-26.336 5.832-36.75-5.324-12.345-6.553-52.28-50.193-46.192-33.391 21.358 16.79 41.415 35.813 60.444 55.35 6.392 30.467-28.62.668-36.541-13.565-4.199-7.543-40.318-46.173-30-29.111 7.325 24.924 49.714 42.563 45.119 65.443-28.38 6.527-37.643-39.884-56.244-56.016-5.294 8.689 26.22 41.507 34.603 59.038-19.084 22.42-35.283-33.497-49.437-49.248-10.754 4.19 23.21 39.218 25.595 56.521-23.83 12.116-29.656-40.388-43.898-56.818-6.402 5.23 19.422 43.072 21.633 60.984-26.633 10.784-21.198-45.352-35.746-59.283-9.689-3.19 11.76 42.817 13.396 56.049-26.553 11.046-21.874-47.372-33.685-66.698-6.366 16.025 17.884 53.76 6.873 66.916-22.58-14.391-11.225-53.718-21.987-76.879-9.152 10.788 6.756 47.603 3.22 68.395-23.657-9.488-8.6-55.993-17.804-80.307-8.367 10.915 1.987 48.318-2.714 68.739-18.195-12.663-2.8-48.84-7.957-70.776-9.173 13.135-1.895 50.624-11.954 70.403-11.63-3.727.308-40.472-.125-56.18-7.974-5.612-7.374 56.262-21.406 67.842-12.588-7.505 8.61-44.944 8.434-63.176-10.843-.473-14.898 45.47-23.455 62.482-23.682 5.55 9.533-42.936 6.972-58.24-10.34 3.653-17.349 43.262-27.556 58.945-24.397 6.309 7.527-40.723 10.238-54.296-14.21-5.781-18.24 50.864-39.568 53.677-17.611-10.959 21.412-44.4 22.312-62.799-18.854 14.711-27.581 42.406-44.428 60.612-21.472-17.802 25.027-41.315 28.674-64.305-17.08 2.304-28.417 34.444-43.58 47.361-24.195 11.737-11.304-18.107 2.574-26.66 7.954-4.901 43.723-44.998 18.672-30.92-14.955 7.309-50.729 60.893-50.02 36.102.593-20.691 56.343-37.639 43.311-53.899-19.558 6.765-34.613 38.988-54.396 42.075 11.11-23.545 42.137-33.014 57.9-53.256-14.052 6.607-7.392-6.63-18.838 4.77-7.763 8.627-31.754 19.909-46.054 31.722-4.792-21.468 37.054-33.588 54.199-46.352 21.298-15.855-2.614-9.276-12.408-.433-12.766 11.526-47.47 36.095-50.84 17.566 18.234-15.594 44.492-12.47 59.017-30.5-27.61-1.382-52.9 22.24-80.818 28.983-17.091-11.278 30.311-14.608 37.012-25.889-7.003-9.956-39.253 11.075-55.547 13.025-10.155-9.705 30.276-16.007 39.74-21.03 7.82-19.755-40.336 7.536-55.842 5.41 5.56-13.47 40.5-12.327 55.723-21.096-11.142-4.688-25.01-6.537-41.647-1.801-20.01 14.936-34.776-8.542-5.925-6.625 19.74-.785 38.548-2.84 35.33-21.772-3.438-20.223-38.944-1.297-55.82-6.195 3.217-13.407 44.927-5.197 61.617-11.908-7.152-12.865-40.513.513-56.663-5.797 5.123-21.622 45.597 2.722 64.852-7.176-1.255-12.5-42.495-3.852-57.871-11.701 12.488-17.617 47.228 5.328 69.613-.38.3-12.678-51.694-7.727-62.926-17.378 26.418-11.995 59.253 14.185 86.37 5.742-23.967-9.542-1.376-7.287 11.119-3.082 20.964 12.285 39.133-6.993 14.172-16.27-26.793-6.954 11.172-5.72-4.842-17.308-24.605-12.33 13.897-3.323.77-19.556-8.343-19.524-50.36-18.732-52.866-39.196 17.701-6.457 50.945 41.687 57.678 25.555-2.394-18.78-34.615-23.261-45.664-41.166 9.979-20.587 36.41 21.738 52.275 28.53 14.3-7.316-30.261-29.09-36.217-43.53 8.204-27.12 36.422 23.166 50.819 30.547 6.253-11.39-26.915-31.625-33.823-47.04 21.214-18.494 31.294 34.492 51.288 41.96 3.278-12.532-25.074-35.759-29.65-53.336 22.987-10.657 26.12 39.792 44.95 50.555 9.438-5.34-19.773-40-24.177-56.07 26.458-.924 27.22 46.416 45.271 62.767 7.132-16.952-26.024-48.357-21.316-69.98 26.405 6.273 25.12 52.305 38.744 75.062 18.319 15.244-20.958-69.24-8.252-72.61 14.691 25.81 15.06 63.232 26.127 92.99 11.283 7.276 11.222 1.364 17.443 17.776 2.804-33.176-10.143-66.001-9.894-99.447 7.276-32.207 10.294 13.449 11.152 25.275 1.916 26.4-3.381 60.112 8.457 81.518 3.593-42.252-5.587-84.362-1.432-126.565 17.197-4.13 8.87 41.019 9.125 56.364.333 20.035-6.641 54.823 1.102 45.457 9.157-30.36 4.89-63.16 9.684-94.4 10.968-28.75 15.124 5.338 11.554 21.126-3.032 13.412-14.843 74.628-.98 44.719 9.967-22.36 1.544-69.384 22.515-77.58zm107.256 4.496c5.906-.015 6.235 20.063-7.96 26.19-15.41 7.584 1.368-25.835 7.96-26.19zm-352.666 3.992c10.265-.101 26.432 9.149 15.737 23.645-8.938 11.148-31.972-23.085-15.737-23.645zm362.895 13.477c.746-.237 1.8.083 3.45 1.232 22.302 15.53-34.036 27.827-9.46 8.584 4.324-3.386 3.772-9.107 6.01-9.816zm-203.649.441c11.1 1.81 11.247 66.967 12.27 76.965-6.486-25.815-20.845-76.266-12.27-76.965zm-180.474 6.381c11.907.19 30.69 11.305 19.529 24.621-13.106 8.725-38.765-24.516-19.53-24.621zm398.285 12.064c6.07-.536 6.967 8.495-5.022 16.866-16.76 11.702-7.172-15.344 5.022-16.866zm34.094 6.106c12.6.283-1.822 10.938-11.995 17.853-25.861 10.594-9.64-12.727 2.016-16.853 4.385-.749 7.645-1.052 9.979-1zm-448.463 2.814c11.438.45 29.265 14.216 20.347 27.442-15.441 8.485-39.77-27.68-20.347-27.442zm469.865 4.366c26.412 2.044 1.492 15.402-6.168 19.816-35.483 7.704-7.756-19.246 6.168-19.816zm28.664 12.27c13.37.837 3.64 22.926-13.307 23.733-31.375 1.496-12.431-17.09 6.116-22.667 2.899-.872 5.281-1.187 7.191-1.067zm-502.135 17.835c8.85.262 20.869 5.615 17.55 16.988-1.368 7.663-12.051-3.232-16.087-3.433-15.994-8.99-10.313-13.817-1.463-13.555zm518.383.6c3.204.241 6.286 1.647 8.902 4.656 4.2 17.112-37.03 31.25-31.773 12.55 2.546-8.199 13.259-17.931 22.871-17.206zm-478.033 21.187c15.388.01 31.916 20.674 40.656 27.195-15.126-3.953-36.92-14.6-49.031-24.855 2.715-1.636 5.525-2.342 8.375-2.34zm252.193 2.451c-13.929.245-39.032 31.164-42.992 47.213-12.195 40.234 19.023-34.942 35.629-36.402 41.666-3.664 11.289 57.939-6.59 75.353 15.552-7.433 40.674-40.071 37.846-61.248-.599-17.704-11.603-25.131-23.893-24.916zm-294.926.34c7.271.1 19.246 5.509 18.063 16.662-8.427 2.255-34.31-16.53-18.063-16.662zm530.645 1.37c4.442.188 7.466 2.282 6.322 7.228-2.559 9.941-15.678 23.162-26.912 9.08-5.813-7.92 10.818-16.723 20.59-16.309zm-367.793 5.515c-8.697.365-18.345 3.921-21.852 14.697-9.644 29.642 24.165 61.67 52.272 65.598 5.992 1.583-7.027-5.313-9.348-6.463-21.619-10.381-50.611-46.948-26.142-64.756 17.119-12.459 42.034 15.756 51.14 31.967 8.208 24.74 13.625 9.451 2.729-6.156-6.728-17.526-29.666-35.691-48.799-34.887zm-175.037 10.498c30.248-.72 20.215 24.817.697 10.346-12.444-9.227-8.9-10.341-.697-10.346zm54.28 2.13c12.826.404 32.413 14.479 42.357 21.104-14.133-3.633-40.419-7.957-47.393-20.379 1.509-.562 3.203-.782 5.035-.724zm248.28 7.095c-18.098 16.944-.808 15.575-.785 19.37 15.025-6.118 8.554-19.638.785-19.37zm241.247 1.785c29.276 6.296 5.195 25.264-10.32 16.847-13.503-7.323.112-16.627 10.32-16.847zm-566.704.922c10.276-.134 26.114 7.139 22.39 13-12.497 13.268-42.012-12.406-22.39-13zm209.786 2.537c-9.952.535-19.428 17.288 3.16 23.138 15.641 4.051 6.389-23.651-3.16-23.138zm-138.493 5.478c20.903-.227 43.215 15.89 63.022 21.756-23.15-3.864-49.952-10.041-71.881-20.58 2.917-.777 5.873-1.143 8.86-1.176zm-21.197 9.281c12.686.092 37.163 11.242 43.338 13.999-16.757-.477-34.017-7.177-50.979-9.682.494-3.148 3.413-4.347 7.641-4.317zm528.861 3.178c14.478.01 4.216 26.097-14.586 19.104-13.027-10.757-1.797-18.954 14.586-19.104zm-583.224.801c8.252.04 16.556 2.545 12.205 8.842-5.189 2.73-11.385 1.756-16.77.385-16.569-5.26-6.045-9.28 4.565-9.227zm-14.307 16.814c12.596-.138 28.726 13.582 5.387 12.14-15.66 5.566-19.788-11.736-5.387-12.14zm588.305 7.668c1.72-.06 3.363.12 4.808.606 16.815 5.647-.954 12.954-12.033 13.637-20.693-1.607-4.817-13.818 7.225-14.243zM127.123 520.44c16.987 5.833 3.883 11.047-7.666 10.952-26.901-1.515-5.64-10.697 7.666-10.952zm408.686.832c-10.597.083-21.295 2.363-28.957 5.872-27.229 10.021 22.061.527 33.267-.112 19.384-1.105 36.371 21.761 14.875 35.02-10.695 6.596-72.36-.327-53.86 7.47 21.761 2.393 63.36 6.825 72.442-17.955 2.325-22.6-17.537-30.452-37.767-30.295zm-238.239.28c-15.582-.327-32.33 2.19-42.715 8.33-21.487 9.359-16.716 41.044 7.051 43.467 27.354 2.788 58.297-2.181 82.24-15.627-27.823 1.715-77.255 30.05-87.925-2.866-11.034-34.038 51.792-26.951 77.078-24.57-5.729-5.238-20.146-8.408-35.729-8.734zm411.846 6.469c2.315-.177 4.607-.006 6.729.62 26.999 7.983 4.582 14.843-8.344 15.99-31.929 2.836-14.59-15.376 1.615-16.61zm-425.732 12.156c-7.79.218-15.268 5.445-10.793 13.18 6.233 3.957 23.925 2.9 22.63-7.624-2.38-4.015-7.164-5.687-11.837-5.556zM113.64 541.62c17.786.165 10.826 13.033-5.272 8.59-13.493-3.724-2.855-8.665 5.272-8.59zm427.464 1.56c-9.278.379-18.75 3.932-4.025 9.026 10.797 4.2 22.028-9.522 4.025-9.025zm160.555 7.182a16.17 16.17 0 0 1 4.15.516c29.668 7.67 12.893 19.148-8.96 16.562-11.901-8.507-4.67-17.018 4.81-17.078zm-506.775 6.217c12.579 16.706-27.985 2.669-39.406 11.033-33.024-10.264 31.461-8.23 39.406-11.033zm-81.739 5.6c11.84-.254 26.292 6.456 2.768 12.334-3.397 1.555-6.968 1.11-10.402.46-7.345-9.188-.466-12.62 7.634-12.794zm587.067 12.758c34.66.492 11.367 15.737-3.188 14.156-23.208-2.522-9.795-14.341 3.188-14.156zM348.16 581.83c-16.25.307-40.328 51.468-5.523 55.193 18.11 2.32 33.336-10.883 44.275-23.695 18.338-28.525-5.65.07-15.05 7.777-33.514 28.93-54.404-22.132-20.577-38.63a7.028 7.028 0 0 0-3.125-.645zm117.608.844c72.545 111.189-23.928 49.954-29.342 8.724-3.696.669 5.713 44.25 31.267 55.395 62.02 27.05 20.028-52.828-1.925-64.12zm-346.971 1.857c12.588-.326 24.427 9.774 1.266 13.264-5.032 3.609-14.78-.499-14.334-7.07 3.102-4.343 8.142-6.066 13.068-6.194zm567.023 12.473c1.86-.133 3.761-.12 5.621.066 33.12 3.31 14.078 24.633-10.687 15.073-18.947-6.122-7.95-14.21 5.066-15.14zm-333.793 6.676c-3.462.058-13.202 7.538-1.607 11.492 15.412 5.255 7.378-11.59 1.607-11.492zm-218.478 3.552c10.6-.061 20.568 6.087-4.235 11.02-14.9 2.963-6.34-10.781 4.235-11.02zm333.361.875a3.932 3.932 0 0 0-1.533.229c-14.936 5.509-3.035 20.475 4.453 10.978 4.886-6.196.78-11.048-2.92-11.207zm199.967 10.12c30.794 7.304 24.32 22.897-4.563 13.55-20.882-8.994-8.974-13.675 4.563-13.55zm-519.479 6.83c1.49-.136 2.891-.11 4.084.127 7.962 1.582.34 7.254-5.748 8.974-23.396.686-8.756-8.152 1.664-9.101zm503.204 9.119c10.488.312 27.528 10.406 25.027 21.187-1.1 25.867-48.74-21.305-25.027-21.187zm-482.73 4.023c10.171.307 1.257 17.505-13.524 14.301-17.454-3.783 2.163-14.497 13.523-14.3zm19.41 14.924c8.993.357 16.254 5.564-.866 12.53-29.603.373-20.25-13.367.865-12.53zm460.124 8.912c11.861-.626 33.675 11.688 24.041 26.522-11.282 10.912-43.354-24.98-24.04-26.522zm-442.549 7.863c16.746 11.27-17.88 23.645-13.617 11.368 3.547-8.688 9.292-11.636 13.617-11.368zm435.891 17.762c11.14.331 30.375 13.199 16.287 25.412-10.44 4.988-32.93-25.47-16.287-25.412zm-425.504 1.723c8.43-.688 1.45 21.245-11.416 25.494-10.686-11.907-4.595-23.755 11.416-25.494zm410.438 17.205c14.385-.08 36.908 22.19 9.298 27.105-14.231.74-26.013-26.611-9.298-27.105zm-396.944 4.148c6.213-.098 7.482 11.84-6.328 21.7-18.365-1.021-7.356-21.024 6.328-21.7zm373.1 14.27c14.209.365 39.217 24.429 14.701 32.945-12.074 2.842-33.238-32.95-14.701-32.945zm-354.797.84c7.848-.292 11.98 17.166-2.516 24.45-22.611-.383-12.36-23.39 2.516-24.45zm328.35 14.066c13.091-.57 42.305 20.187 16.463 30.223-12.34 6.904-28.509-29.33-16.463-30.223zm-303.631.111c14.121 14.387-4.738 29.613-17.602 19.184-9.438-7.652 9.866-19.117 17.602-19.184zm138.133 1.698c7.075-.847 18.797 28.654-1 31.558-4.356.072-5.271-30.476 1-31.558zm-17.13 1.136c5.729.942 8.696 27.65-5.644 31.934-7.935 1.637-.075-32.477 5.645-31.934zm-93.312 3.356c8.078.032 13.852 7.144 1.434 19.674-12.436 11.75-25.76-19.052-1.434-19.674zm26.797.656c8.567-.89 6.05 25.112-6.12 26.45-20.878 6.998-1.504-25.411 6.12-26.45zm104.287.106c6.873-.216 18.818 27.161 7.563 36.265-11.483-2.35-17.43-35.341-7.563-36.265zm-61.25 1.289c5.596-.29 10.016 18.01 2.317 29.482-20.604 7.196-7.504-28.91-2.317-29.482zm-19.54.308c6.084.383 3.864 21.204-3.526 30.895-25.75 8.04-3.956-31.365 3.525-30.895zm199.33 1.627c11.438-.813 38.544 21.212 13.495 26.395-10.17 4.938-24.15-25.289-13.496-26.395zm-97.554 4.692c7.754-.1 23.143 19.155 10.75 27.71-15.45 10.368-17.224-27.333-10.75-27.71zm75.338.242c10.501-.126 24.872 17.067 6.58 24.146-11.058 4.28-18.977-23.68-6.58-24.146zm-26.851 4.24c8.327-.6 30.04 17.43 19.367 26.572-14.225 12.187-29.099-25.477-19.367-26.572zm-23.797.615c8.44-.488 27.096 14.019 15.67 26.022-15.525 16.31-27.198-24.91-15.67-26.022z"/></svg>