<svg width="400" height="400" viewBox="0 0 105.833 105.833" xmlns="http://www.w3.org/2000/svg"><path style="fill:#000;stroke-width:.566358" transform="translate(-5.066 -24.248) scale(.14073)" d="M427.45 189.521c-4.16-.295-8.26-.297-12.278.024-45.785 3.66-86.623 31.363-125.46 55.078-131.298 96.675-55.389 76.938 34.683 41.709 22.784-8.911 73.827 19.47 49.65 17.375-16.91-1.466-11.57-10.036-51.08-1.906-93.307 19.2-35.55 125.5-71.434 111.404-34.802-27.822-74.577 4.922-84.183 40.613-17.187 22.736-22.07 57.613 2.863 77.184-41.474-12.614-23.595-66.18-14.809-95.39 8.199-27.258-9.523-63.463-34.996-31.22-31.275 39.59-46.056 87.46-63.459 133.21-12.07 31.733 2.704 43.22 14.487 89.498 31.395 123.313 94.953 116.56 72.707 22.482-6.693-28.304 12.318-76.392 32.714-73.064-20.14 17.11-36.537 57.377-3.292 70.238 5.893 57.915 74.435 47.695 99.035 20.808 23.38-27.12 55.334-58.312 51.94-96.14-13.563-35.16-73.373-24.556-32.41-36.742 34.226-16.527 14.555-71.804-7.283-93.983 29.031 30.586 69.305 36.382 93.237 24.17 25.02-12.767 25.369-55.864 27.238-53.328 5.93 30.232 11.151 59.82 42.439 60.82 16.76.535 55.043-13.794 66.094-29.805-13.568 28.32-23.332 34.578-11.43 60.086 4.453 9.542 36.615 27.379 29.876 35.47-30.603 28.2-39.377 32.895-38.227 77.798-.223 27.22-7.427 13.266-21.834 11.961-26.007-2.356-41.5 2.667-53.592 35.028-6.899 18.462-1.756 40.088-11.605 14.251-12.378-32.47-40.906-46.06-68.723-40.568-42.156 8.322-65.12 35.192-77.556 79.125-11.344 40.07 6.55 85.233 49.213 83.293 3.892 9.495 46.087 4.862 54.905-.96 5.5-3.632-16.846 18.033-27.515 16.046-104.6-19.474-174.526 6.055-10.584 66.398 40.29 14.83 76.106 46.314 113.938 25.268 37.319-20.762 75.08-36.377 114.377-51.508 22.782-8.773 77.48-50.843 27.82-57.198-34.836-4.458-64.108 29.634-101.03 24.416-18.793-2.655-37.97-8.716-33.335-18.19 4.555 2.135 33.693 12.774 55.212 2.17 57.286-28.224 62.129-45.958 46.284-106.575-4.963-18.987-34.516-42.67-4.963-18.987 20.891 14.598 51.128 26.842 78.405 16.596 36.789-13.818 46.298-79.8 41.704-106.546-5.63-32.775 30.862 5.58 14.332 40.38-12.444 26.2-36.33 110.266 10.746 89.567 49.807-21.9 49.722-89.1 77.99-131.487 23.699-35.533-.95-67.373-21.378-95.89-25.079-35.01-31.982-83.621-64.07-111.87-29.949-26.363-30.06 46.056-20.594 65.489 13.254 27.212 28.467 68.754-11.395 81.17 46.87-30.216 5.183-83.37-13.959-90.522 3.73-54.408-44.938-64.299-98.484-34.681 12.188-15.75 20.642-35.504 13.521-52.987-19.503-47.881-45.473-55.123-101.34-52.822 2.293-4.785 5.91-7.807 10.389-11.457 16.957-13.817 82.573 17.87 110.432 9.93 28.649-8.167-34.823-52.71-55.246-67.233-27.502-19.555-59.569-35.93-88.688-37.996zm-11.854 9.633c40.182 5.433 155.994 51.066 147.238 86.39-10.716 5.748-73.352-25.183-95.242-15.6-45.622 28.957-48.196 76.273-61.301 129.921-3.476-49.375-3.114-83.629-19.129-101.084-43.996-47.951-148.61 13.72-146.558-2.06 1.98-15.231 119.718-93.53 174.992-97.567zm-68.512 105.772c33.142 2.97 43.726 44.677 50.273 69.453 8.591 32.507-1.66 84.178-42.287 89.185-37.417 10.268-72.669-41.062-75.033-54.632-3.946-22.648-9.601-67.516 15.117-76.836 25.407 42.084 19.325 80.22 61.063 109.316-11.69-28.888-33.917-61.09-35.772-95.353-1.131-20.904 5.712-41.389 26.639-41.133zm120.81 2.377c14.165.818 21.478 7.28 17.526 14.816-15.503 29.564-39.104 74.833-38.264 110.315.969 40.89 11.99-34.394 19.063-46.041 8.264-13.611 27.311-75.624 44.906-65.942 45.306 35.226 25.804 86.63-9.594 121.924-25.369 25.295-73.836 37.361-84.238-1.97-7.462-28.216 9.476-127.638 35.795-132.135a73.96 73.96 0 0 1 8.33-.96 57.776 57.776 0 0 1 6.477-.007zm207.37 85.052c8.73.114 28.372 34.566 47.476 77.489 14.928 33.538 54.77 70.042 35.207 110.097-20.276 41.519-24.79 97.291-64.515 123.678-30.825 20.476-27.007-23.771-17.721-42.305 10.41-20.777 23.764-50.978 20.344-65.804-6.995-30.32-57.998-45.066-83.87-46.37 48.066-10.245 82.34-28.288 67.897-82.558-11.798-53.629-11.608-74.315-4.818-74.227zm-68.454 5.15c35.907 8.194 14.106 38.766-19.45 47.423-28.57 7.37-51.584 18.287-64.933 45.067 41.52-26.705 86.121-42.087 99.652-42.647 27.938-3.631 52.913 43.098 34.684 59.873-20.717 19.066-53.135 26.932-80.226 28.073-34.774 1.464-73.756-26.781-71.017-51.558 5.61-50.752 57.424-96.24 101.29-86.23zm-471.16 15.938c16.625.962 3.006 67.776.352 87.649-5.268 39.451 47.703 56.644 74.773 47.699-4.384 16.674-61.406 10.13-71.63 43.9-8.095 26.737-6.783 41.452-.717 69.66 2.927 13.613 8.297 33.544-5.432 42.053-26.257 16.276-30.658-15.797-44.701-51.46-17.865-45.371-30.062-63.077-22.35-103.13 7.86-40.815 23.459-93.344 52.858-125.128 7.564-8.179 13.01-11.464 16.847-11.243zm89.33 12.875c21.541.649 38.41 13.71 47.749 26.434 14.958 20.384 43.997 45.162 27.353 65.398-28.8 23.353-72.538 23.903-110.137 6.413-20.438-9.225-30.154-25.354-28.127-35.706 7.5-38.29 43.392 11.184 61.457 13.778 27.695 12.494 16.12.677 59.202 5.33-26.637-29.257-66.978-22.015-89.155-58.553-8.193-9.755 15.638-22.28 22.545-22.758a66.53 66.53 0 0 1 9.113-.336zm116.942 50.74c-20.073.905-33.323 18.856-23.746 45.27 7.452 20.554 35.283 40.138 38.627 39.19-21.204 16.485-34.133 35.011-27.016 59.42 3.02 10.355 28.305 13.446 42.58 11.572 20.083-2.636 23.547-9.406 36.612-26.844 11.009 20.262 29.924 20.962 48.313 17.28 14.694-2.986 19.167-4.222 26.776-14.014 14.787-19.03 14.58-43.852-20.333-69.354 21.143-8.516 38.49-35.23 22.53-53.2-11.129-12.533-28.978-10.287-41.96-4.608-32.442 14.192-21.002 36.035-49.102 7.615-16.154-16.338-34.84-13.157-53.281-12.326zm.826 3.71c29.474 1.822 64.955 17.687 57.164 35.297-4.145 12.294-17.501 39.817-35.428 37.795-22.214-3.786-29.644-11.796-38.353-28.026-11.36-21.17-1.419-43.031 16.617-45.066zm125.342 2.806c14.953 1.475 21.733 15.8 19.699 26.66-2.973 15.872-25.833 31.61-40.937 25.9-43.37-18.745-9.054-55.235 21.238-52.56zm-113.214 19.839c-16.542.323-17.22 14.986 7.775 21.492 20.352 5.298 9.639-21.833-7.775-21.492zm114.06-4.397c-17.166 1.946-37.52 13.141-19.032 20.735 15.934 6.242 33.52-19.688 19.032-20.735zm-55.25 25.26c14.486 1.362 19.663 34.532-6.216 37.89-29.624 3.845-16.524-40.027 6.216-37.89zM290.64 553.77c53.003 16.638 5.072 73.3-12.793 95.048-33.307 40.546-84.671 36.546-94.476 10.95-6.19-16.162 35.47-20.772 46.692-25.16 25.261-9.879 73.214-25.947 74.375-53.995-41.065 10.343-84.913 63.233-123.18 53.139-38.773-10.228-3.52-44.446 5.75-52.5 29.85-25.935 68.711-38.444 103.632-27.482zm196.627 23.5c4.28 38.38-34.236 47.387-60.163 37.192-27.144-14.989-10.613-66.383 14.455-65.705 18.735-.781 44.48 15.692 45.708 28.513zm79.35-31.71c28.952 4.703 98.263 16.905 93.08 67.153-2.731 26.495-39.671 23.878-59.981 15.469-29.191-12.087-54.117-30.219-81.67-44.278 16.628 27.134 55.039 56.566 86.68 57.714 16.028 4.855 38.054-.399 34.385 17.846-14.773 73.465-112.63-2.913-124.246-19.491-35.575-50.772-5.696-95.33 51.751-94.413zm-164.5 32.952c16.046 41.95-50.082 58.773-65.292 41.66-11.905-15.127 18.583-54.42 37.545-56.272 9.811-.958 24.878 7.11 27.748 14.612zm-48.806 25.535c4.153 18.084 33.695-15.59 24.608-21.108-8.833-5.365-26.91 11.081-24.608 21.108zm84.008-29.418c-12.813-.087-15.342 18.307 1.367 19.945 32.698 3.205 26.97-19.752-1.367-19.945zm106.229 153.42c.876 15.811-2.377 37.329-14.238 42.784-47.068 21.65-62.389-78.312-68.274-104.792-19.16 31.121 9.545 80.536 30.82 109.951 14.848 20.531-30.255 41.002-52.394 1.918-13.877-24.497-15.98-49.606-15.317-75.26.065-22.772-1.536-41.554 8.014-52.644 9.166-10.643 21.808-17.806 35.854-17.516 35.943-1.87 73.978 67.466 75.535 95.559zm-200.267-84.657c136.77 18.343 10.312 195.641-19.038 142.855-9.76-25.219 12.469-83.942 24.32-107.454-34.25 10.368-31.507 100.002-50.45 108.428-22.376 9.837-32.721-56.309-30.227-70.836 6.816-36.7 45.156-77.048 75.395-72.993zm71.318 79.672c10.436 79.756 33.797 105.447 69.601 107.618 37.355 2.264 98.427-33.546 104.262-15.188 8.426 26.511-78.816 39.718-117.29 62.346-47.369 27.86-75.43 28.38-213.443-37.873-43.935-36.02 43.473-22.026 47.432-20.596 59.956 21.654 102.282-42.246 109.438-96.307z"/></svg>