<svg width="400" height="400" viewBox="0 0 105.833 105.833" xmlns="http://www.w3.org/2000/svg"><path style="fill:#000;stroke-width:.606822" d="M386.83 351.645c-19.665.169-38.886 2.148-57.342 6.058-62.517 13.246-119.692 43.826-161.19 86.805-98.73 102.256-124.384 312.659-50.47 405.373 70.928 88.969 179.546 149.323 282.043 152.803 82.652 2.806 149.28-31.13 214.863-71.373 99.086-60.8 147.059-203.323 124.069-298.428-22.704-93.92-62.633-173.3-139.1-219.24-66.767-40.113-142.642-62.602-212.873-61.998zm29.98 11.142c.077.038.071.215-.058.615-.041 2.409-.945 5.288.953 7.243 2.472.532 3.549-1.87 4.053-3.868-.172 2.547 2.763 4.975 4.959 3.012 1.581-2.16 1.022.09 1.54 1.518 1.061 2.357 4.219 1.32 4.837-.858.975-2.326.95-1.956 1.013.336.14 1.902 2.046 2.97 3.582 1.793 1.268-.422 1.516-4.35 2.323-2.693 4.377 7.442 15.579 11.187 22.677 5.344-.092 2.614 1.732 4.639 4.17 5.337 1.196-3.629.465 2.228.657 3.573-.673 4.286 1.474.077 2.697-1.346.851-.687 2.665-4.76 2.123-1.514-.226 2.896-.278 5.207 1.488 1.418 1.28-2.218 2.611-4.588 1.752-.703.174 1.222-1.52 6.818.033 4.805 2.138-2.685 4.443-5.241 6.45-8.028-.473 2.042-.719 5.847 2.302 5.608 2.375-1.728 1.451-.687 2.754 1.266 2.087 1.924 4.699-.826 6.008-2.489 1.191-1.768.03 2.248.54 3.283.07 2.613 3.53 3.389 4.857 1.2.928-1.99 1.366 1.373 2.326 1.955 3.418 4.67 10.86 7.831 15.789 3.61.019 3.269 1.941 5.995 3.396 8.776 1.365-2.814 2.765-5.61 4.059-8.459.008 2.234-1.15 5.895 1.484 6.961 3.076.612 3.748-3.567 4.858-5.625.39-.73-.446 3.174-.37 4.245-.343 1.952.55 4.417 2.909 4.134 1.773-1.355-.539 3.631-.46 4.905.993-.285 3.34-2.816 4.856-3.98.67-.213.862 2.826 2.477 2.95 1.386.69 3.013.564 4.496.303.187 2.688 2.511 4.326 4.488 5.633 2.352 3.609 7.552 4.816 11.078 2.187 1.457-.864 2.71-2.665 2.541.034.372 1.801 2.202 3.166 3.95 2.878l-2.975 8.239c2.358-1.827 4.407-4.206 6.953-5.697 3.705 1.642 5.36 5.949 8.629 8.273 1.886 1.76 4.94 2.31 7.13 1.537-.16 3.627 3.986 5.95 7.102 4.309 1.39-.69-.372 2.548.701 3.382 2.019 2.96 5.609.32 7.489-1.449 1.516-1.536-.158 2.136.072 3.184-.586 3.126 1.385 7.344 5.084 6.656 3.471-1.27.442.912-.61 2.45-1.513 1.781-4.253 4.375-.28 2.523 2.327-.589 4.532-1.66 6.894-2.07-.192 2.374.188 5.977 3.387 5.744 2.322-.852 1.674.157 1.838 2.082.55 2.021 2.873 2.543 4.703 2.546-.492 2.297 1.806 4.172 3.986 3.913.015 3.018 3.406 5.182 6.016 3.402 1.298-.58 2.953-2.58 1.93-.064-1.007 3.125-.246 8.073 3.822 8.207 3.088-.626-.718 2.194-1.313 3.511-2.403 2.484-2.394 3.338 1.033 1.881 1.53-.103 4.63-2.087 5.246-.838-1.083 2.144-.075 5.408 2.518 5.057-.736 2.511 2.096 4.356 4.318 3.463-1.588 2.062.34 5.16 2.909 4.258 2.547-1.052 1.16-.15.302 1.455-1.275 2.403 1.603 4.522 3.875 3.734 1.186.068 4.448-1.529 4.047-.789-1.65 1.917-4.499 4.403-2.873 7.152 2.14 1.438 4.588.001 6.578-1.01-1.88 1.814-5.147 4.339-3.418 7.233.527 1.477 3.664.238 2.694 1.92-1.097 3.296 2.359 6.011 5.457 5.412 2.458-.582-1.314 1.735-.754 3.166.026 3.084 3.923 2.597 5.89 1.647 2.945-1.45-.325.938-.988 2.017-1.97 1.544-1.332 5.285 1.506 4.951 2.099-.34 3.64-1.225 1.578.897-1.891 1.653-2.47 5.66.746 6.049 2.694-.63.524 1.057.858 2.783-.02 2.227 3.216 2.415 4.119 2.465-2.01 1.546-1.598 5.314 1.32 5.255.9.379 4.137-1.125 2.996-.048-1.758 1.283-3.408 4.621-.619 5.69 1.284.506 2.778-.061 4.008-.386-1.94 1.817-2.597 5.79.51 6.727 2.59-.425.053 1.606 1.173 2.797 1.772 1.162-.263 1.726-.722 3.094-1.087 2.2 1.303 4.143 3.41 4.021-1.672.949-6.395 1.905-2.328 2.863 2.33 1.09 4.73 2.213 7.347 2.305a4296.26 4296.26 0 0 1-6.724 4.414c2.59 1.051 5.076 2.513 7.898 2.842-1.174 1.39-4.214 3.178-4.312 4.33 2.87 1 7.695 1.564 7.453 5.63-.198 3.47-.212 7.947 3.535 9.608-.477.918-2.715 2.387-2.254 4.233 1.762 2.069 0 2.035 2.229 3.668.49 1.155 4.019 2.24 2.722 2.816-2.75 1.258-5.501 2.512-8.252 3.768 3.865.49 7.753.837 11.606 1.41-2.244.823-5.116 3.638-2.783 5.877 2.234.714-.019 1.847.125 3.416-.102 3.024 2.587 5.256 5.086 6.453-2.937 1.897-4.269 6.544-1.047 8.851 1.367 1.084 3.023 1.722 4.693 2.17-1.57.391-4.746.714-3.787 2.946.962 1.736 1.827 1.595-.412 2.82-1.434 1.737.311 3.935 2.252 4.12-2.232.784-2.475 3.73-1.211 5.189-2.674 1.981-1.76 6.067 1.017 7.484 2.033 1.373 4.336 2.293 6.653 3.07-2.568.597-6.962.623-7.117 4.082.177 2.086 3.607 2.536 4.238 2.932-2.134.202-5.065 2.09-3.508 4.467 1.747 2.061 5.69 2.046 7.367 2.722-2.832.882-7.022 2.07-7.152 5.604.041 1.669 1.63 2.76 3.1 3.195-2.185.4-5.612 1.902-4.295 4.658.62 1.325 3.666 1.367 1.144 2.274-2.046 1.69-.37 4.57 1.719 5.316-3.005.491-5.629 2.121-8.408 3.262 2.647.953 5.243 2.063 7.922 2.924-2.232-.255-5.077 2.06-3.22 4.199.473 1.065 3.41 1.767 2.901 2.016-2.187.128-6.317.632-5.455 3.691.942 2.134 3.728 2.32 5.72 2.924-2.463.023-6.666.719-5.757 4.088.858 1.52 2.55 2.178 4.082 2.806-2.385-.056-5.463 2.324-3.514 4.71 2.057 1.366-1.717.99-2.23 2.452-1.178 1.641.02 3.706 1.619 4.524-2.107-.426-4.524 1.802-2.85 3.697.528 1.225 5.041 2.102 1.758 1.936-2.235-.088-6.126.67-5.316 3.676.559 1.88 3.188 2.657 4.377 3.38-2.226-.004-5.882 1.432-4.444 4.192 1.526 1.67 2.967 1.856-.023 2.246-2.463.776-4.657 2.204-7.004 3.262 2.128.428-2.244-.266 1.166 1.959 1.647 1.919 3.667 3.549 5.02 5.703-2.471.406-5.527 2.22-4.473 5.16 1.332 1.538-.988 2.53-.496 4.289-.353 1.171 2.086 3.684.129 3.047-2.55-.777-4.542 2.397-2.653 4.328 1.83 1.844.766 1.554-1.226 1.387-2.84-.395-4.25 3.196-2.08 4.953 1.892 1.581 1.965 1.865-.569 1.418-2.097-.446-4.565 1.494-3.13 3.566.095.996 3.463 2.265 2.037 2.176-2.055-.31-5.575.262-4.983 3.049.097 1.376 2.87 2.443.377 2.111-2.507-.075-2.9 3.443-.789 4.432 2.27 1.326 1.802 1.377-.674 1.326-2.471-.274-4.806 2.641-2.754 4.644 2.545 1.647-1.19.63-1.777 2.362-.667 2.419 1.894 3.736 3.668 4.717-2.5-.318-6.625-1.452-7.537 1.837.487 3.473 4.537 4.597 7.072 6.327-2.813-.332-6.014-1.958-8.67-.584-2.194 1.656.428 4.082 2.3 4.644-2.03-.63-4.607-1.991-6.136.201-.613 1.004.896 2.673 1.987 3.159 2.539 1.09-.64.278-1.69.85-1.939.521-2.763 2.895-1.861 4.612.501 1.73.916 2.727-1.756 2.415-2.475.248-4.216 3.895-2.605 5.605.573.592-2.79.203-3.5 1.186-2.084 1.227-2.41 3.81-2.592 5.927-2.508.368-4.79 1.545-7.174 2.34.975.88 1.893 1.513 2.75 2.037-2.526-.655-4.22 2.444-4.625 4.65-.734 2.438-1.085 5.025-2.252 7.31-1.904-1.955-3.718-4.005-5.588-5.995.363 3.283 2.024 6.571 1.455 9.87-2.063 3.232-7.724 2.944-8.52 7.3-.624 1.235 1.432 3.654-.777 3.086-2.325-.06-5.42.744-5.843 3.426-3.467.786-4.827 4.437-6.4 7.203-1.049-.856-4.366-4.394-4.434-3.037.256 2.47.648 4.876 1.634 7.156-1.86-.828-5.03-1.061-5.195 1.67.197 1.267-2.81-.332-3.404 1.328-1.235 1.303-.68 3.22-.274 4.754-3.164-1.607-6.38-3.113-9.617-4.576 1.47 2.318 3.467 5.18 4.658 7.144-1.524-.45-3.442.083-4.03 1.676-2.337-.451-4.295 1.914-3.75 4.156-1.905-1.081-4.368.34-4.519 2.496-1.114-1.73-2.128 2.502-3.197 3.366-1.566 2.503-5.004 2.47-7.328 4.027-7.865 3.96-13.893 10.503-22.383 13.172-25.566 14.866-53.195 25.237-80.963 35.21-26.014 6.31-52.164 12.384-79.129 11.427-26.94-.594-53.89-5.06-79.974-11.78-9.762-5.18-21.23-6.063-31.04-10.484-3.047-1.459-5.492-3.91-8.886-4.643-7.747-2.686-15.22-6.165-22.068-10.687-8.649-3.338-16.577-8.406-23.578-14.453-1.246.943-3.015 1.73-4.067.023-2.938-3.534-6.459-7.654-11.523-7.404-2.597-1.66-2.69-6.611-6.526-6.563-2.114.876-.432-2.546-1.795-3.521-2.639-3.74-7.675-1.654-11.351-1.19-1.242-.333 1.12-3.16 1.44-4.04 1.3-2.063 1.887-4.48 2.87-6.7-3.618 1.778-6.712 4.287-9.93 6.666.527-2.142 1.462-5.801-1.519-6.422-2.414.807-1.373-.585-1.02-2.111.903-2.646-2.29-4.67-4.34-2.834-2.662 2.453-.316-1.23.161-2.672.786-2.122 1.247-4.36 1.906-6.527-3.12 2.184-5.897 4.74-8.636 7.367.27-2.808 2.049-6.95-1.02-8.733-2.284.298-.642-2.54-2.59-3.164-1.91-.822-3.832.388-5.558 1.127 2.293-2.499 3.889-5.481 5.595-8.386-3.368 1.253-6.57 2.825-9.715 4.54.836-2.214 2.034-5.759-.9-6.931-2.567.376-.538-1.267-.398-2.836.238-3-3.454-3.478-5.526-2.314-1.997.79-3.656 1.562-1.209-.639 2.02-1.43 2.344-2.984.305-4.553a6.447 6.447 0 0 0-4.201-2.008c1.767-1.716 3.534-3.434 5.3-5.152-3.127.502-6.258.98-9.382 1.498.87-1.469 1.391-3.101 2-4.687-7.015-4.5-12.095-11.627-14.748-19.467-2.054-.287-4.165-.472-6.202.045 2.3-2.97 4.07-6.268 5.811-9.582-3.405 1.579-6.72 3.311-9.848 5.388 1.27-1.948 3.024-5.722-.06-6.865-2.549.346-.28-1.534-1.1-3.033-.134-2-3.781-1.317-3.521-1.904 1.864-1.554 1.007-5.015-1.645-4.711-3.403.98.004-1.013-.107-2.905.59-1.874-2.666-1.902-2.588-2.351 1.738-2.252-.91-5.32-3.38-3.795-.159-.564.468-3.547-1.222-4.39-.881-2.014-4.772-.325-2.52-2 1.91-1.5 2.32-5.2-.644-5.686-.933-.602-4.772 1.132-3.572-.033 1.6-1.598 4.482-4.542 2.096-6.588-1.315-1.02-3.12-.326-4.51.199 1.597-1.65 3.884-4.825 1.336-6.643-.868-1.152-4.373.64-3.61-.355 1.972-2.213 2.45-5.188 3.278-7.928-1.747.497-6.399 2.363-2.514.2 2.875-.963 2.066-2.209-.049-3.551-1.481-1.16-3.415-1.593-5.27-1.514 1.905-1.05 4.833-3.445 2.657-5.631-1.137-1.154-4.32-.129-4.428-.387 2.036-.646 4.393-3.183 2.184-5.004-2.732-1.177-5.799-.133-8.643.082 2.672-1.216 6.347-1.429 8.098-3.964 1.03-1.976-1.496-3.448-3.316-2.989-1.261-.085-4.39.614-4.51.317 2.109-1.508 5.782-2.625 5.633-5.75-.608-1.565-2.385-1.896-3.875-1.61 2.141-.746 3.625-4.028 1.086-5.218-1.888-.139 1.167-2.934-1.227-3.772-1.63-1.06-3.706-.884-5.566-1.094 2.12-.447 5.786-1.646 4.62-4.449-1.193-1.94-3.914-1.791-5.964-1.951 2.12-1.086 5.874-3 4.363-5.846-.811-1.43-2.7-1.5-4.178-1.527 1.97-.468 4.903-2.092 3.528-4.424-1.864-1.996-4.943-1.376-7.418-1.557 4.568-.867 7.637-4.476 10.777-7.574-2.687.288-5.373.58-8.06.865.4-2.033-1.669-3.131 1.308-3.552 2.332-.445 3.173-4.011.53-4.586-3.67.015.07-1.236 1.396-2.516 3.414-1.856 2.307-2.271-1.035-1.974-.947-.38-6.892.724-4.207-.02 2.043-.332 4.234-1.823 3.322-4.16-2.745-.124-2-2.578-3.398-3.738-1.2-.723-4.499-.265-1.762-1.112 2.372-.728 5.511-3.358 3.521-5.92-.682-1.415-3.912-1.688-3.968-2.058 3.845-.8 7.264-2.744 9.982-5.569 1.664-1.49-3.752-.66-5.16-1.142-3.36-.027-.664-.34.86-.797 2.392-.268 3.895-3.567 1.534-4.969-1.366-.806-2.798-.974-.347-1.44 2.502-.739 2.08-4.347-.352-4.87-2.508-.416 2.194-1.355.899-3.309.262-1.434-3.653-2.39-1.315-2.295 2.339.304 4.682-2.478 2.635-4.34-1.168-1.08-2.856-1.537-.346-1.256 2.7-.535 3.804-1.498 1.3-3.476-1.346-1.282-3.42-1.469-5.102-2.156 2.115.085 6.088.144 5.705-2.909-.19-1.526-2.09-2.146-3.387-2.605 1.99.015 5.556-.7 4.553-3.404-2.143-1.521 1.013-1.176 1.279-3.121.694-1.833-3.481-3.325-2.08-3.27 2.207.484 4.463-1.869 2.728-3.795-.676-.882-4.058-1.56-1.35-1.594 2.08-.11 1.489-2.595 2.962-3.207 2.143-1.003 4.701-4.169 2.013-5.998-1.365-.165-2.764-1.818-2.558-2.492 3.078-.582 4.62-3.444 5.586-6.13-2.171-.063-4.145.185-1.27-1.204 1.261-1.012 1.49-3.049.266-4.17 2.788.904 2.713-1.14 2.22-3.248.192-1.474-3.075-3.395-.507-3.226 2.813-.185 3.312-3.879.988-5.176-1.91-1.15-2.7-1.551-.125-1.955 2.047-.769 1.78-3.725-.191-4.385 2.204.241 6.16-.613 5.103-3.592-.01-1.418-3.822-2.185-1.473-2.535 2.816-1.036 1.493-4.654-.76-5.55-1.31-.891-2.739-1.597-4.185-2.24 2.997.525 6.004 1.671 9.08 1.204 1.304-1.452 1.057-3.273-.761-4.074-2.694-1.131-1.747-.881.535-.516 2.77.427 5.584.381 8.375.59-3.306-2.558-6.696-4.991-10.313-7.094 2.12.813 5.983.947 5.84-2.158-.6-2.513-3.141-3.813-4.969-5.379 4.155.181 9.813.033 11.834-4.305.893-2.09-.317-4.552-1.351-6.09 2.755.898 6.306-1.05 5.677-4.228-.365-1.769-.896-4.046-2.326-5.101 2.557.534 7.064.661 7.139-2.938-.377-2.696-3.13-4.523-4.77-6.09 2.053.951 5.999 1.399 6.127-1.736-.114-2.475-2.423-4.163-4.023-5.83 2.744.934 5.823 3.294 8.756 1.822 2.224-2.483-1.027-5.121-2.746-6.77 2.445.6 6.36 2.342 7.785-.658.578-2.518-2.177-4.077-3.762-5.527 2.623.631 7.164 1.274 7.89-2.207.261-1.62-.966-3.05-2.09-4.09 1.933 1.07 5.52 2.009 6.16-.974-.06-2.109-1.754-3.622-3.058-5.1 1.914 1.217 4.774 3.889 6.817 1.719 1.438-2.777-1.695-5.252-3.076-7.43-2.333-2.519-.66-1.343 1.08-.193 2.11 1.062 5.057 3.823 7.084 1.36.884-2.965-2.803-4.87-4.471-6.868-2.763-2.295.554.006 1.875.678 1.708 1.083 4.916 2.355 5.879-.168.463-1.861-1.079-3.394-2.15-4.733 2.164 1.478 6.333 1.495 6.546-1.853.028-1.306-.574-2.642-1.195-3.676 1.746 1.399 5.225 3.51 6.568.648 1.189-1.08-1.814-3.997-.058-3.572 3.31.656 8.458.483 9.258-3.654.67-2.532-1.561-5.873-2.09-7.352 1.938 1.284 5.92 2.201 6.4-.976.115-1.817-1.17-3.32-2.236-4.657 2.292 1.205 5.616 4.12 7.943 1.528.851-2.729-1.715-4.835-3.21-6.784 1.807 1.623 3.615 3.245 5.417 4.874 1.547-2.32 1.952-5.21.479-7.668.177-.457 2.341 1.59 3.457 1.75 2.308 1.305 4.712-1.491 3.326-3.647-.037-.777-1.761-2.616-1.275-2.676 5.332 2.16 10.962-1.322 13.822-5.789 1.86-1.806-.225-4.46.049-6.722-.32-2.249 2.124.798 3.136 1.056 1.922 1.785 5.551.954 5.493-1.986-.459-2.47.848-.448 2.066.021 2.39 1.335 4.462-1.687 3.307-3.832-1.352-2.571.743-.59 2.422-.847 1.74-.815-.283-4.806 1.115-3.608 1.626 1.31 4.23.166 4.369-1.818 1.638 2.217 5.261.989 5.115-1.785-.331-2.775 1.397.362 2.404.892 1.11.584 4.561 5.269 3.934 2.813-.493-2.485-1.392-5.675-1.643-7.744 1.93 2.16 5.834 1.532 6.41-1.489.13-2.333 1.985 1.245 3.46.079 1.745-.48 1.873-2.66 1.529-4.157 1.72 1.613 4.448.099 4.31-2.17 2.645.408 5.757-1.14 5.87-4.074.172 1.962 2.122 4.766 4.127 3.1 1.6-1.225 1.337-3.885.457-5.293 1.508-1.955 1.875-.121 2.996 1.174 1.741 1.964 4.721.039 4.148-2.385.051-1.402-.772-4.202-.498-4.47 1.087 2.305 4.933 3.563 5.984.55.617-1.03-.248-4.432.819-1.822.687 1.817 2.495 1.854 4.119 1.447.465-1.421-.123-4.082-.266-4.725.939 2.008 3.368 4.604 5.53 2.51 1.149-.77.326-3.99 1.224-3.521 2.358 1.835 4.746-1.138 4.664-3.504-.027-2.726.378-1.953 1.42.181.78 1.977 3.7 2.977 4.783.739.617-.998.14-4.113.362-3.713.565 2.954 1.605 5.78 2.48 8.652 1.034-3.5 2.757-6.962 2.237-10.713 1.17 2.371 5.04 3.03 6.023.156.222-2.107 2.034 1.621 3.477.043 2.012-2.2-.03 5.099 2.4 1.932 2.3-1.315 4.043-3.724 4.273-6.256.42 1.998 2.968 3.837 4.47 1.832.904-1.494.535-3.333.513-4.992.85 2.121 3.201 5.46 5.691 3.455 1.175-2.254.857-1.21 2.223.147 1.862 1.437 3.768-.983 3.63-2.895.082-2.204.747 1.391 1.825 1.715 2.758 2.12 5.232-1.435 5.78-3.889.468.063.885 3.083 2.45 3.35 2.207.731 3.527-1.789 3.721-3.654 3.087 2.719 7.697 6.107 11.84 3.564 2.25-1.543 3.068-4.358 3.478-6.916.514 2.262 2.752 5.345 5.256 3.596 1.422-.912 1.81-3.13 2.237-4.342.74 2.213 3.095 5.39 5.601 3.492.97-1.045 1.31 1.662 2.371 2.067 2.645 2.56 7.294 1.307 9.377-1.055.043-1.873.897 2.829 2.744 1.926 2.375-.005 2.725-3.234 3.225-4.71.93 1.892 3.618 2.75 5.234 1.212-.601 3.153 5.072 4.652 5.817 1.253.658-1.923-.115-4.3-.332-5.978.587.126 1.564-.998 1.795-.885zm-141.08 30.467a1.62 1.62 0 0 1 .497.006c.229.037.47.124.734.27 1.806 2.551-2.946 2.46-2.658.443.501-.372.947-.65 1.427-.719zm-9.005 2.96c.013-.008.031-.005.058.01.072.043.195.182.397.458 1.185 1.056 2.444 1.29.73 2.406-1.23 2.615-.518-.618-.986-1.756-.082-.435-.292-1.054-.2-1.117zM402.37 503.777s-17.663 142.37-26.142 163.582c-8.548 21.386-140.904 91.831-140.904 91.831s147.226-57.496 164.836-58.36c15.846-.777 169.196 63.644 169.196 63.644-47.204-33.043-137.024-91.594-145.233-102.804-7.583-10.355-21.753-157.894-21.753-157.894zm142.786-20.782a47.97 47.97 0 0 0-2.24.092c-15.36.764-30.117 7.757-40.736 18.832-15.724 16.272-24.062 38.128-28.998 59.852-2.08 9.963-3.83 20.07-4.327 30.244-.513 2.484 2.731 4.409 4.258 2.125 3.321-6.355 4.816-13.5 7.137-20.258 3.858-12.208 6.973-25.133 15.053-35.43 9.471-12.536 22.71-23.263 38.441-26.303 10.854-2.283 22.517 1.704 29.947 9.877 4.745 3.362 9.154 7.818 10.536 13.676 2.738 11.163-2.024 22.535-7.522 32.076-3.677 5.862-7.38 12.176-13.057 16.229-2.301 1.643-7.462 3.843-5.683 5.947 2.075 2.454 6.166-1.131 8.924-3.224 14.115-10.713 35.817-8.654 48.896 3.302 8.846 7.542 13.08 20.053 11.526 31.213-1.176 10.1-5.217 20.302-13.362 26.777-12.285 10.093-28.985 12.564-44.43 11.825-10.547-.404-20.816-3.83-31.404-3.492-2.548.093-3.041 3.641-.719 4.552 7.787 3.463 16.309 4.959 24.608 6.73 7.734 1.584 15.596 2.478 23.48 2.606 18.875 1.498 39.222-2.492 53.83-15.187 6.2-5.562 10.229-13.22 12.97-20.996 6.52-19.057 2.637-40.02-5.132-58.092-5.11-12.236-12.36-23.426-20.228-34.04-11.25-17.91-22.78-36.641-40.418-48.995-8.538-5.976-18.7-9.626-29.115-9.926a47.815 47.815 0 0 0-2.235-.012zM257.31 504.51c-.83.006-1.661.032-2.493.08-10.327.58-20.12 4.807-29.007 9.869-20.96 12.516-35.418 33.096-47.104 54.027-5.317 9.81-10.561 19.693-15.049 29.905-6.954 18.694-3.094 40.287 8.045 56.55 11.674 17.595 31.701 29.898 53.012 30.489 20.026 2.086 39.273-5.376 57.795-11.924 4.443-1.843 9.346-2.931 13.322-5.703 1.551-1.829-.636-4.094-2.725-3.492-13.773 2.095-27.25 5.997-41.203 6.978-17.352 2.003-35.598-2.94-49.332-13.789-9.656-7.478-16.188-19.582-14.873-31.996 1.108-7.927 2.853-16.174 7.612-22.795 5.575-8.057 15.888-11.196 25.314-10.504 16.52 1.193 31.98 8.619 45.416 17.945 2.42 1.68 4.181 6.111 7.025 5.352 2.632-.702 1.149-5.66-1.21-7.67-7.72-6.578-16.83-11.228-24.979-17.228-7.344-5.398-15.415-11.056-19.102-19.715-1.995-9.321 1.574-19.187 7.385-26.512 8.982-11.297 24.163-18.251 38.112-17.14 9.402.531 18.555 5.817 23.873 13.17 5.92 3.692 8.857 10.513 11.863 16.556 4.914 10.315 8.07 21.353 12.656 31.789.752 2.324 4.344 2.23 4.543-.35.2-5.59-.702-11.222-1.687-16.714-5.089-20.957-15.773-41.268-32.829-54.887-9.079-7.198-20.317-11.74-31.896-12.246a48.966 48.966 0 0 0-2.484-.045zm144.207 45.359s4.922 105.129 15.775 118.257c12.2 14.756 110.99 74.813 110.99 74.813s-109.535-49.31-128.53-48.094c-19.548 1.251-107.642 37.577-107.642 37.577s84.712-42.198 90.241-60.164c6.657-21.634 19.166-122.39 19.166-122.39zm24.97 210.276c-.599.01-.801.463-.082 1.755.498.893.73 1.91 1.096 2.864 14.484 16.806 28.868 33.792 38.31 54.138 7.302 15.733 9.216 33.703 5.354 50.862-2.483 11.034-9.88 20.712-20.564 24.197-13.659 4.455-30.486.33-38.565-12.102-4.818-7.414-4.341-16.717-8.222-24.431-1.304-2.59-4.723-1.066-5.16 1.41-3.047 17.232-8.777 24.416-19.077 33.978-7.537 6.999-19.292 8.979-28.955 4.993-14.525-5.992-24.224-20.67-26.666-35.856-1.246-7.749.79-15.407 3.115-23.185 4.172-13.951 11.6-26.45 19.764-38.211 7.068-10.183 15.413-19.505 21.625-30.256 1.56-2.7 5.7-10.112 2.895-8.815-8.945 4.136-14.295 13.516-21.133 20.577-18.811 19.423-36.673 41.012-45.522 66.998-3.186 9.358-4.914 19.315-3.474 29.187 2.943 20.18 17.009 37.363 34.543 47.016 12.504 7.094 26.916 10.51 41.26 10.299 14.46.786 28.94.09 43.404-.024 20.988-1.065 42.684-6.98 58.748-21.094 9.855-8.658 17.177-20.804 18.613-33.933 2.49-22.77-5.533-45.48-17.83-64.43-13.408-20.662-30.664-38.607-49.629-54.123-.753-.616-2.85-1.831-3.848-1.814z" transform="translate(-7.116 -47.658) scale(.14781)"/></svg>