<svg id="Ebene_1" data-name="Ebene 1" xmlns="http://www.w3.org/2000/svg" viewBox="0 0 374.67 490.98"><path d="M257.49,469.58c2.43-3.15,2-12.49,1.87-12.22-2,.24-17.21,20-22.31,25.26-2.9,2.95-7.32,4.42-11.05,6.55l-.68-1.52,16.18-19.11c7.69-9.36,9.39-20.89,8.8-33,.91,3.09,4.49,18.72,8.38,20.9-2.51-16.18-4.67-30.18-6.83-44.17l-2.81.15,1.05,16.33-2.05.32A357.75,357.75,0,0,0,219,340.61c-2.28-11.82-4.55-23.65-6.88-35.73l-5.85,2-5.54-7.68,2-.41c-.45-2.93-.89-5.85-1.34-8.78l-2.26.14c-1.58,3.07-3.16,6.15-5.06,9.83l-8.82-9.81-1.19,1q2.4,5.16,4.79,10.3l-1.29,1-10.15-10.95-6.52.72,4.57-6.88-11.4-4,4.61,10.46-2.43,1.27-10.49-15.26c-10.69-3.86-15.33-13.71-19-23.64-10.43-28.47-4-57,1-85.39,2.91-16.67,14.07-29,23.58-42.12,4.61-6.35,9.24-12.66,8.5-20.82-10.19,14.77-21,29.1-30.19,44.36-4,6.56-4.78,15-7,22.66-.48,1.66-.8,3.37-1.73,7.35-2.6-6.43-11.6-24.39-22.33-35.93a53.58,53.58,0,0,0-21.09-13.81c-2.44-.54-4.77-1.56-7.21-2-7.07-1.33-13.2,1.49-14.42,7.38-2,9.54-3.7,19.22,2.22,28.31a14.59,14.59,0,0,1,2,6.37c2.09,22.28,11.35,41.14,26.73,57.21,4.1,4.29,8.4,8.55,11.62,13.47,7.06,10.76,15.73,19.46,28.81,26,3.27,4.73,7.34,11,11.8,17,9.81,13.17,19.5,26.46,29.86,39.19,5.95,7.31,14.19,12.89,19.5,20.56,10.9,15.79,14.2,34.88,19.77,52.83,2.74,8.85,1.91,18.75,3.32,28.08,1.33,8.74-9.94,15.5-10.09,15.37a11.55,11.55,0,0,1-5.89,2.19c-.81.08-3.21.55-3.52.45a79.05,79.05,0,0,0-11.83,2.75,28.38,28.38,0,0,0-4.46,1.77c.07,1.09-.11,2.67,0,3.28a38.31,38.31,0,0,0,1.51,7l1.66.36,4.24-7.63,30-7.16v5.66c-2.19-.17-23.9,4.08-31.79,12.95l6.84,7.41c17-2.61,28.9-9.62,34.86-20.18l3.29,4.41,5.17-7.51,2.08.44c.39,2.63.79,5.25,1.46,9.7-7.38,2.85-14.17,6.19-21.35,8-5.93,1.51-10.11,3.89-11.48,10.81l0,5.08c.1.64.2,1.28.31,1.92l-8.61,3.55c1.24,1.58,2.52,3.13,3.81,4.67a68.74,68.74,0,0,1,11,3.89c1.91,1,7.67,2.13,7.87.17l10.15-2.41c2-3.51,3.86-7.18,6.39-10.12C247.19,476.94,253.79,474.37,257.49,469.58ZM122.67,183.15c-.71-.55-1.62,34,2.1,44s-29.14-19.37-38-39.84c-11.16-25.92-6.16-37-6.32-41.74s13.41,2.24,18.11,4.1S128.72,174.26,122.67,183.15Zm-29,26.79c6.73,7.81,23.52,18.27,32.84,29.58,4.79,5.82,3,13.66,6.48,17.72C123.83,254.88,102.44,228.94,93.7,209.94Zm99,104.41c-7.28-1-13.1-7.13-13.07-14.13Zm-1.41,15.52-18.54-20.09c.28-.25.56-.5.83-.76l19.89,19ZM217.13,349l-.87,1.18-3.68-2.64c.31-.43.63-.86.95-1.28Zm-6.29-22.6,2.49,5.44-1.52.73-2.63-5.37Zm-2.23,10.86,3,2.08-.64,1.08-3.49-1.79Zm-6.68-26.15.69-.9,2.83,2.22-.7.92ZM209,346.33l-3.6-1.12.8-1.85,3.29,1.8C209.34,345.55,209.18,345.94,209,346.33Zm10,20.42-1.78,1.64c-1.93-1.9-4.56-3.47-5.59-5.76-1.19-2.67-1-6-1.45-9.75l10.49,4.41-4.37,4Zm-15.61,96.56-.87-1.72,5.73-2.19.57,1.12Zm26.49-23.55c-.62-17.22-8.81-33.47-5.06-51.42,4,17.53,8,35.06,12.05,53Zm11.92-5.92c-8.14-12.23-5.28-27.09-9.9-40.16C238.2,400.35,244,422.89,241.83,433.84ZM219.45,486l-4.06-.3,4.77-6c2.76-11,3.68-11.85,14.94-11.83Z" transform="translate(-64.01 -4.28)"/><path d="M248.57,341.27l-6.09-27.91c.11-.33.84-2.37,1.52-4.29l-5.39-9.92c2.93-.27,5-.46,7.08-.61.33,2,.67,4,1,6l1.57-.5-2.59-5.42-1.23-3.44,1.41-.86q7.09,10.19,14.2,20.38l1.93-1.31c-6.59-15.13-15.31-29-28-41.22,7-2.43,8.83,2.85,11.66,5.55,3,2.87,5.34,6.42,8,9.68l2.26-1.68-13.57-17.39c1.25-3.73,2.62-7.85,4.61-13.82l-11.51,4v-8.92c-9.89-6.83-14.41-16.9-15.72-30.88,8.95,6.27,4.17,19.24,15.78,22.5-3.73-8.27-7-15.65-10.36-23l2-.74,10.56,4.26,9,12.09c1.05,5.41,2.42,12.45,3.7,19.07-.32,6.13-.62,12-.92,17.83l2.12.09c5.38-11.62,4.89-23.64,1.85-36,10.69,5.71,2.1,19.52,11.32,26.56,1.57-4.05,2.7-6.95,4.39-11.28l-9.18-23.7,5.95-1.42-2.37-5.75-11.14-6.68c.18,2,.35,4,.51,6-4.87-3.61-11.14-6.09-9.47-14.44l5.27,2.2c.32-.43.63-.87,1-1.31l-8-5.32c-.27-1.11-.87-3.68-1.48-6.24l1.63-.83,8,5.69-5-18.26,12.07,8.54,1.72-1.55-3-8.93-7.61-3.52V151.1l7.11-5c.1-1.93.2-3.81.37-6.9l12.18,2.47c-2.16-3.5-4.46-7.21-6.76-10.92l1-2c14.55,17.45,30.64,30.91,55.64,23.48l17.91,7.64c-8.62,3.93-16.22-7.33-23.58,1.45L288,156.29c-.31.58-.61,1.17-.92,1.76L298,164.19c-.3.88-.78,2.31-1.4,4.12l-9.2-6.58,8.15,25,.83-.62L310.23,208l2-.95q-7.65-18-15.28-36l2.54-1.31c6,9.87,12.61,19.4,17.76,29.67a60.14,60.14,0,0,0,26.61,27.13,16.29,16.29,0,0,1,6.43,5.18c-13.55,1-23.77-9.61-37.22-9.62-.84,4-1.79,8.51-2.73,13L308,234.7q-1-3.8-2-7.59l-1.82,0q-1.46,7.28-2.92,14.55l-2.45-.06q-1.62-9.13-3.23-18.28l-2.1.31c.05,10.16,3.56,20.65-2.19,30.65l-7.7.56c-1,1.49-2.17,3.08-3.49,4.94l-4.68-.35-16.24,9.24,21.54,44.84c16.71-1.15,30,3.83,36.83,17.93,3.1,6.4,8.37,15.24-.24,24.62-.38-3.83-.6-6.12-.91-9.16l-7.53-9.64-5.78,1.41c-3.28-4.05-6.51-8-9.73-12l.77-1.16,9.15,3.19.9-2.09-14.68-7.33-5.84,2.64-9.59-1.81L272.67,322c-1.08-2-2.15-4-3.13-5.8l-13.12,17.64,6,7.72,8.69-.67V327.71c8,1.58,14.51,7.19,19.24,13.73s7.28,14.71,10.85,22.31c-8.68,1.55-12.45-3.62-15.24-11.12l-2.92,10.43-5.83-10.61-22.55-2.75.87-1.91L248.45,341Zm23.1-194.44,3,14.57-1.77.77-8.77-17.82c-1.52,4.45-2.28,6.71-2.71,8l8.46,12.34c14.12,9,13.85,24,17.85,33.3l19.29,22.72,1.43-.93L296.06,195l-3.79,2.68-12.08-44Zm16.42,78.8c-6.55-14.74-6.55-14.74-4.67-17.78l8.19,8.58,1.79-1.14-4.6-10.46-6-1.92c-.6-12.95-11.53-15-19.68-20.84l-2.56,9.21,6.28.49,7.7,10.78c-1.06,3.88-2,7.32-2.55,9.32Zm-17.43-4.78L268.75,223c6,8.52,7.06,20.76,20.32,25.16V232Zm-3.78-10.7c3.71-12.84-8.42-11.51-12.11-19-1,4.44-1.59,6.76-2.24,9.54Zm-7-40.54L258,172.17l18.27,11.88,1.57-2.34Zm-18.51,72.3,3.13-1.86-7.6-12.31-2.5,1.5Q237.9,235.57,241.39,241.91Zm24.18-78.06-12.2-6.57,3.61,8.45Zm53,48.39-2.45,1.46,3.59,4.33,1.81-1.32Q320,214.48,318.53,212.24Z" transform="translate(-64.01 -4.28)"/><path d="M425.54,231.05c-12.91-16.2-25.24-32.86-38.18-49-10.41-13-19.89-27-34.18-36.41-9.38-6.17-18.72-12.38-28.24-18.32-8.15-5.07-16.2-10.51-24.9-14.45a240.82,240.82,0,0,0-30.87-11.08c-8.95-2.66-17.91-1.66-25.47,4.43s-4.47,13.35-2.12,20.62c.88,2.72.87,5.73,1.19,8.09-7.32,6.79-15,12.81-13.59,23,1.71,12.65-3.89,19.11-14.26,22.9l-6.87,8.49c-12.16-2.51-17.12-18.47-33-13.91,2.06-7.45,3.62-13.08,5.09-18.41l7.61-1.34c-.79-4-1.48-7.54-2.37-12,9.16-19.13,7.57-40.79,9.5-61.65,2.71-2.66,6.29-5.7,6.3-8.75.05-15.53-5.08-29-19.31-37.12-10.94-6.22-34.27-17.68-34.64-17.84,0,0-33.83-14.45-43.67-13.94-.38,1,34.46,21.15,39.22,26.57L104.15,16.21c-.28.62-.57,1.24-.86,1.86,2.72,1.54,5.41,3.13,8.15,4.62,12.68,6.9,25.48,13.58,38,20.79,2.52,1.45,5.44,4.78,5.55,7.36.37,8.69,5,14.34,12.44,20.13,1.25,8.93,2.53,18.1,3.81,27.27,3-17.14-.61-33-8.79-47.18,3.71-10.54,2.53-12.91-6.33-18.17-6.63-3.93-29.91-18-31.81-19.1a62.15,62.15,0,0,0-6.34-3.13c-.59-.25,9.33,1.43,20.35,6.92,13.94,6.94,30.34,18.43,37.33,22.74-4.4,7.78-4.37,8.09,1.56,11.15.91-2.06,1.79-4.08,3.34-7.61,3.83,5.56,6.92,8,9.83,14.27s-4.41,19.4-5,23.65c.92,2.26,3.91,13.44,2.66,26.4-1,10-6.07,22-6.54,26.17l-4.11,1c1,4.29,1.76,8,2.6,11.73l-8.07-5.24c-1.1,5.37-1.83,8.92-2.69,13.13l-8.6-5.14c1.54,6.7,2.64,11.5,3.73,16.22l-5.3,4.07,9.95,21.53,1.57-8.87,12.37,3.39c-1.32,2.27-2.1,3.61-2.91,5l5.76,4.11-1.48.78,4.48,11.2c-.47,1-1.27,2.68-2.34,4.93l11.88,7.34c1-9.83-5.85-14.83-9.12-21.26l1.91-1.31,13,17.23c.35-3,.63-5.4.89-7.61l8.26-4.17c-2.69-7.64.35-12.68,5.77-16.8,5-3.77,9.91-7.56,15.33-11.7,0-3.82.69-7.92-.14-11.69-1.76-8,1.34-13.79,7.21-18.38,7-5.45,8-12.09,5.44-20a90.33,90.33,0,0,1-2.1-10c8.33-9.49,18.62-10.42,30.61-3.85,7.35,4,14.62,8.36,22.36,11.44,6,2.38,12.67,3,20,4.67l-4.57,6.81c35.83,16.23,83.1,66.59,85.33,92-16.78-24.41-35.1-45.28-57.84-61.88,10.68,19.24,33.52,28.28,40.87,50.08l-3.66,4.37,12.72,5.17,5.53,7.5-1.32,1.63L363,211.3c-3.46-4.9-8.26-8.19-12.23-12.28-7.88-8.13-15.3-16.71-21.33-23.36l-17.88,3.17,8.71,6c1.12,5.16,2.28,10.5,3.9,17.93l8,1.43,16.51,19.44,2-1.89L354,229.9l19.4,3.32,8.63-4.12c4.46,7,10.94,8,17,8.81,8.41,1.15,16.37,2,22.89,8.79,3.16,3.3,8.62,4.38,13.93,6.89l2.78-9.62C434,239.47,429.24,235.7,425.54,231.05ZM195,64.94c.62.17,1.68,1.52,1.68,6.61s-5.9,7.91-6.62,7.71ZM362.6,163.82l-7.33-9.23,1.08-1.06,7.51,9.06Zm-40.15,20.35c7.46-3.13,10.68,1.62,14.14,5.31,6.19,6.6,12.23,13.32,18.33,20l-2.44,3.74,16.4,10.44C347.86,217.34,335.48,201.27,322.45,184.17Zm102.9,59.31-18.93-21.91,3.25-2.7L427.19,242Z" transform="translate(-64.01 -4.28)"/><path d="M231.45,251.27,226,255.4l-10-5.52,1-.55-11.83-16.81,9.17-5.38Z" transform="translate(-64.01 -4.28)"/><path d="M248.45,341c.68,14.94-2.49,30,2.1,44.86,1.74,5.67.9,12.14-.56,18.32-8.27-22-3.45-45.31-6.61-68.49,1.72,1.83,3.44,3.66,5.17,5.52C248.57,341.27,248.45,341,248.45,341Z" transform="translate(-64.01 -4.28)"/><path d="M255,114.08l28.61,25.17,1.53-1.46q-3.65-5.11-7.27-10.24c10.06,1.86,11.17,11.38,16.82,17.9l4.55-6c1.37,4.14,2.35,7.08,3.45,10.38C291.13,150.52,257.63,125.61,255,114.08Z" transform="translate(-64.01 -4.28)"/><path d="M248.44,228.27l-29.09-22.45.82-1.23,9.85,4c1.27-4.11,2.19-7.1,2.91-9.42Z" transform="translate(-64.01 -4.28)"/><path d="M303.6,343.45c7.21,2.84,10.44,7.28,8.5,13.67-.94,3.09-3.47,5.69-7,7.9C312,357.13,303.49,350.45,303.6,343.45Z" transform="translate(-64.01 -4.28)"/><path d="M307.07,168.07l9.8-4.69c-1.65,3.49-2,6.05-3.4,6.76-1.66.87-4.13.21-6.25.21Z" transform="translate(-64.01 -4.28)"/><path d="M294.26,335.72l-9.61-6.38,1.34-2.11,9.55,6.5Z" transform="translate(-64.01 -4.28)"/><path d="M227.39,192.17c.25-1.62.5-3.25.76-4.87l2,.15v5Z" transform="translate(-64.01 -4.28)"/><path d="M187.2,280.44l4.18,5.54-1.77,1.34-4-5.46Z" transform="translate(-64.01 -4.28)"/><path d="M155.77,269.15l-4-5.15.82-1a9.34,9.34,0,0,1,2.55,1.59C155.58,265.11,155.4,266.14,155.77,269.15Z" transform="translate(-64.01 -4.28)"/><path d="M157.71,186.41c-.6-1.14-1.19-2.29-1.78-3.43l1.55-.81,1.79,3.43Z" transform="translate(-64.01 -4.28)"/><path d="M281.76,232l4.28,7.49c-3.66-1.24-5.82-1.33-6.54-2.39s-.17-3.18-.17-4.83Z" transform="translate(-64.01 -4.28)"/></svg>