<svg id="Ebene_1" data-name="Ebene 1" xmlns="http://www.w3.org/2000/svg" viewBox="0 0 414.31 500"><path d="M185.92,334.08c-.8-3.08-1.61-6.15-2.41-9.23-.2-.77-.69-1.64-.49-2.29,1.25-4.05,2.66-8.05,4.18-12.55,1.61,3.87,3.65,7.6,9,6.08a11.17,11.17,0,0,1,2,4.92c.22,6.12,5.05,13.85,11.53,16.61-.48,7.63-1,15.6-1.51,23.57-.25,3.83,1.17,6,6.49,5.95-.32-5.73-.62-11.18-.92-16.57,5.21,2.06,8.35,10.37,7.3,17.46-1.52,10.27,4.39,18.63,8.28,27.32.93,2.06,5.61,2.44,9.79,4.07-4-6.77-7.58-12.91-11.18-19.06l1.54-1.31a41.58,41.58,0,0,0,5,4.69c1.37.94,3.24,1.17,4.88,1.72,0-1.85.5-4-.28-5.48s-3.08-2.4-4.47-3.79c-2.88-2.89-5.61-5.94-8.4-8.93l1.46-1.42,11.05,8.78,1.55-.45c-1.69-7.72-4-15.67,7.08-18.24-.76-1.36-1.15-3-1.83-3.11a92.38,92.38,0,0,0-13.7-1.93c-3.63-.14-5.27-1.94-7.59-4.48-7.47-8.19-6.55-19.41-11.17-28.59-1.2-2.4.07-6,.2-9.1l1.8-.15c1.25,1.7,2.45,3.43,3.74,5.1,2.76,3.56,5.45,3.06,7.44-1,2.93-6-.84-11.14-1.8-16.62-3.16-18.23-15.28-31.36-25.94-45.33a19.61,19.61,0,0,1-1.87-4.07l1.54-.94c5.09,5.9,10.21,11.77,15.26,17.71C225,277,228,293.87,229,310.62c.44,7.11.33,14,2.84,20.75a14.91,14.91,0,0,0,4.71,6.74c.27-5.93.28-11.89.89-17.79s2.16-11.53,2.63-17.34.1-11.64.1-17.47l-1.76-.25L236,291.42c-5.85-12.34-10.33-24.56-17.1-35.34s-15.79-20-23.65-30.14c16.13,11.25,26.1,27.87,36.12,44.45,2.74-6.19,3-6.35-7.72-26.72-4.34-8.19-10.36-15.5-14.65-24.22a54.19,54.19,0,0,0,4.22,4c1.14.88,2.53,2,3.84,2,7.83.29,12.86,6,14.51,14.14,2,10.06,5.39,19.87,8.38,29.72.49,1.59,1.95,3,3.23,4.21,2.23,2.12,3.13,3.72.2,6.26-3.71,3.22-.52,6.12,1.77,7.86,6.76,5.17,9.25,12,9.72,20.16.19,3.24.26,6.78,5.66,6.49,1.62-.09,4.05,3.41,5.06,5.73,3.71,8.52,7.58,16.91,6,26.89-1.1,7.06,4,14,11.29,16.58-.95-2.4-1.19-4.51-2.37-5.69-4.72-4.74-3.37-10.36-3.31-16.05A37.48,37.48,0,0,0,275,328.38c-2-5.29-5.12-10.14-7.76-15.18-.28-.52-.91-1-.87-1.53.83-10.39-7.52-17.36-9.82-26.46-1.62-6.4-3.2-13.61-1.84-19.81,4.54-20.63.48-39.3-9.8-57.14-.27-.47-.26-1.1.81-2.81,2.46,2.63,5.46,4.93,7.31,7.93,7.54,12.22,8,26,7.74,39.76-.1,5.91,1,12.06-3.22,17.54-1.13,1.48,0,5,.59,7.46,3,12.62,9.49,23.32,18,33.06,1.65,1.9,1.09,5.61,1.93,8.36.93,3,2.31,5.87,3.63,9.13,8.41-4.35,6.22-10.21,4.25-15,3.25-.51,8.1-.16,8.67-1.56,1.92-4.71-2.77-6.43-6-8-4.77-2.28-9.88-3.87-16.85-6.51-.21-2.71-.6-7.77-1-12.84,6,11.15,6,11.15,13.7,9.56,0-4.17.76-8.34-.17-12.08-1.46-5.81-4.22-11.28-6.16-17-2.59-7.57-2.56-15.42-3.35-23.18l2.24-.4c.87,3.08,1.88,6.13,2.58,9.26,1.76,7.86,2,16.39,5.38,23.46,4.13,8.7,6.16,18.86,15.15,25.15,2.84,2,3.28,7.41,4.8,11.27,1.37,3.48,2.72,7,4.08,10.47l2.28-.11,5.05-14,1.72-.45c.43,2.08,1.46,4.25,1.19,6.23-1.11,7.92,3,14.11,5.3,20.89l1.91-.33a34.51,34.51,0,0,1-.67-5.85,116,116,0,0,1,1.35-13.42c.14-.84,2.35-1.34,3.61-2,.27,1.2.94,2.47.75,3.59-1.74,10.68-1.7,20.85,6.26,27.81,1.37-8.53,4.52-18,3.9-27.28s-4.85-18.11-7.9-27c-1.17-3.4-3.45-6.41-5.23-9.6l2.88-1.42c4.44,8.91,10.33,17.42,12.87,26.84,1.87,7,.05,15.22-1.36,22.67-1.3,6.88-.94,12.89,3.12,18.64,1.13,1.6,2.74,3.46,2.72,5.18-.1,5.95,3.94,8.86,7.93,11.75,1.16.84,3.15.56,4.76.79-.14-1.58.09-3.3-.48-4.69a62.55,62.55,0,0,0-3.67-6.71l1.6-1.21,8.7,6.28,1.47-.92c-1.48-3.47-2.9-7-4.47-10.41-1.64-3.62-3.83-7-5-10.79-1.34-4.11-1.07-8.22,3.91-11.81-2.61,15.45,7.83,23.8,14.2,35.48L369,360.94c2.54,5.68,5.24,11.43,7.72,17.27,4.53,10.67,8,21.36,6.57,33.45-.8,7,1.09,14.24-3.88,20.38a.66.66,0,0,0-.09.58c4.11,9.08-3.45,12.16-8.11,17.38-3.65,4.09-5.07,10.17-8.18,16.85-5.93,2.4-7.7,12.61-2,20.16l18.74-15.18c7.45,11.62-1.93,25-15.74,27.28-5.62-4.58-10.08-9.87-9.33-17.69.67-7.06.54-14.39,5.77-20.25a8.94,8.94,0,0,0,2.18-4.82c.53-6.55,4.49-10.19,9.73-13.34a9.44,9.44,0,0,0,4.1-5.88c1.08-7.94,1.2-16,2.23-24a55.55,55.55,0,0,0-5-32.3c-1.31-2.68-2.43-5.45-3.64-8.17l-1.82.58c-.23,1.27-.9,2.65-.61,3.78,3.28,13-3.05,23.57-8.63,34.26-5.93,11.38-13,22.25-18.1,34-5.7,13-14.6,22.07-27.39,27.61-6.06,2.62-7.52,1.94-9.62-4.35-3.72-11.1.6-20.81,6.26-29.76,1.7-2.68,6.44-3.4,9.74-5.11,1.37-.72,3.74-1.69,3.73-2.52-.07-5.8,5-7.75,7.87-11.31,10.18-12.55,12.89-26.43,7.68-41.87-.68-2-.1-4.4-.1-5.3-6.84-2.66-14.25-3.84-19.25-7.94-5.19-4.25-8.05-11.34-11.95-17.22-3.09,7.65,2,19.26,9.19,21.64,1.27.42,2.07,2.28,3.09,3.48-1.47.52-3,1.64-4.4,1.46-7-.86-7.81-7.62-10.88-12.14-1.41-2.08-1.61-4.94-2.84-7.18-.85-1.57-2.49-3.7-3.81-3.72s-3.47,1.9-4.09,3.44c-1.63,4.07-2.61,8.39-3.89,12.6-.33,1.09-.77,2.14-1.37,3.78-4.37-2.52-8.49-3.61-12,1-.43.57-2.47.55-3.31.05-5-3-9.91-6.33-14.88-9.47-2.81-1.78-5.7-3.45-8.56-5.18L248,358.38l-2.55,23.14c9.11,7.5-1,14.71-.44,22.13.18,2.26-1.31,4.65-2.15,7.36l-11.41-8.17c0,6.29.3,11.08-.09,15.82s-1.66,9.64-2.18,14.49a13,13,0,0,0,.78,6.73c2.34,4.88,1.1,8.78-2.22,12.49-2.65,3-5.45,5.8-7.87,8.95s-3.25,6.73-.45,10.6l6.24-2.17c-1.27,6.28-2.33,11.59-3.64,18.08,2.34-.79,4.58-.92,5.87-2.1a64.8,64.8,0,0,0,8-8.82c3.1-4.08,3-7.88-1.41-11.4-1.6-1.29-3.09-3.8-3-5.68.05-1.15,3.34-2,4.92-3.26,2-1.62,3.73-3.55,6.55-6.31,1,1,4,2.72,4.42,4.94.41,1.89-2.25,4.31-3.1,6.65a28.88,28.88,0,0,0-1.31,6.62c-.3,2.53.35,5.4-.63,7.58a104.35,104.35,0,0,1-7.38,12.83c-2.25,3.52-9.37,5.21-13.43,3.44-7.5-3.25-11.62-8.79-9.37-14.54,3.54-9.08,3.62-19.37,10.67-27.42,2.37-2.71,1.22-8.52,1.64-12.91.25-2.68-.52-6,.82-7.91,4.37-6.19,2.7-12.49,1.25-18.74-2.37-10.21-5.06-20.36-7.89-30.46-.64-2.3-2.4-4.28-4.33-7.57-1.69,2.94-2.95,4.21-3.11,5.6-.87,7.54-2.65,15.24-1.89,22.65,1.06,10.31-.22,20-2.51,29.92-1.55,6.7-3.38,13.78-2.73,20.46,1.31,13.25-10.44,22.57-19.94,26.64-3.92,1.68-8.57,1.63-12.87,2.42-4,.72-5.14-1.27-4.5-4.75,1.34-7.32.85-15.13,6.25-21.35,1.49-1.72,1.91-4.33,3-6.45,2.47-4.81,5.59-9.36,7.46-14.39,2.54-6.81,5.2-13.86,5.89-21,.87-9-.39-18.17-.37-27.27,0-13.16-6.29-23.9-12.54-35.62l-5.13,6.71-2,0c-.91-5.49-2.3-11-2.62-16.47-.41-7-2.45-9.24-8.45-12.06-3.6-1.69-6.11-5.83-8.92-9-1.14-1.3-1.38-3.62-2.69-4.51-8.67-5.92-13.53-14.77-18-23.71-2.23-4.48-2.79-9.8-4-14.76-.78-3.08-1-6.39-2.28-9.24-2.23-5-1.51-7.75,6.16-7.45-4.46-11.21-8.5-21.38-12.56-31.55s-8.4-20.36.54-30.53c1.1-1.25.34-4.39,0-6.59-.25-1.55-1.26-3-2.31-5.3,8.59,3.7,9.85,9.63,4.49,16.29-3.73,4.63-3.7,19.82.12,24.24.46.52,1.35.67,1,.49l7.86-3.87c-.57,2.68-.67,5.58-1.81,8-2.12,4.52,1.64,14.08,7.66,18.28,4.54,3.16,6.71,9.26,4.45,13.86l-2.25-5.09c-1.61,1.22-3.59,2-4.47,3.5-3.4,5.68-2.05,29.28,1.6,33,1.63,1.66,3.2,3.37,6,6.27-.9-6.6-1.86-11.65-2.19-16.73s-.08-10.46-.08-15.69h1.75c.23,3.95.24,7.93.74,11.85,1,7.79,2,8.38,9.59,6.61l-.11,0c1.62,10.84,6.72,20.21,12.6,29.52.55-10-3.39-19.93.22-29.86a54.35,54.35,0,0,0,4.72,23.3l5.78-7c.92,2.83,1.45,4.59,2.07,6.33,2.46,6.87,4.74,13.82,7.54,20.55.83,2,3.16,3.33,4.79,5,.78,3.48,1.4,7,2.48,10.39.23.71,2.15.87,3.29,1.28.21-1.34,1-3.12.49-3.94A88.2,88.2,0,0,0,185.92,334.08ZM344,413.89c-5.1,5.11-9.89,9.89-14.63,14.73a2.24,2.24,0,0,0-.56,1.65c1.27,8.21-5.5,8.17-10.32,10.3-1.73.77-4.1,2.1-4.44,3.57-.44,1.91.17,5.07,1.55,6.18,3,2.42,2.48,4.54,1,7.25s-2.81,5.65-4.2,8.48l1.44,1.07c1.18-.48,2.61-.67,3.49-1.48,2.71-2.46,4.76-6.19,7.89-7.53,5-2.15,6.37-5.24,6.12-10.16-.05-.95,2-2.89,3-2.87,6.15.16,5.73-3.94,5.93-8.06.1-1.92.56-4.32,1.79-5.61A14.74,14.74,0,0,0,344,413.89Zm-149.42,7.32c-1.17,3.55-2.29,6.93-3.39,10.31-1.87,5.69-2.49,12.35-6,16.78-2.82,3.61-3.29,10.76-10.51,10.45-.41,0-1,3-1.81,5.75l7.54-3.39c.17,2.19.32,3.79.42,5.39s.17,3.24.25,4.86a38.27,38.27,0,0,0,5.34-1.6c6.29-2.89,7.77-9.16,9.56-14.85a93.71,93.71,0,0,0,4.26-19.57C200.72,430.65,201.29,425,194.61,421.21Zm45.1-95.48c2.89-.37,3.81-.56,4.73-.58,8.83-.22,10.72-3.33,7.35-11.27-1.1-2.59-.83-5.73-1.41-8.57-.77-3.72-1.76-7.4-2.66-11.1l-2.34.38C243.55,304.65,241.72,314.71,239.71,325.73Zm84.12,19.65c-2-5.48-3.47-9.9-5.29-14.17-.41-1-2.65-2.2-3.06-1.91a5.77,5.77,0,0,0-2.4,3.57C312.65,336.77,317.77,343.38,323.83,345.38Zm27,66.93c4.14-4.7,2-8.22-.81-11.28-.65-.71-3.93-.45-4.33.27C342.77,406.59,347.15,408.85,350.81,412.31Zm-57.2-84.95-2,.55c0,2.61-.34,5.28.14,7.8.25,1.31,1.93,2.35,3,3.51,1-1.35,3-3,2.69-4C296.68,332.47,295,330,293.61,327.36Zm-4,29.7c-1.54-3.75-2.68-6.52-4-9.81C280.7,352.81,281.74,355.35,289.57,357.06Zm41.33,5.38-10.57-8.74C321.66,360.91,323.93,362.91,330.9,362.44ZM196.15,394.53l-1.88.81c.44,2,.26,4.68,1.48,5.62s3.85.22,5.87.22l.4-2Zm59-69.31-2.21,1.08c-1.52,5.66,4.63,6.81,7.29,10ZM352.68,381l-3.17.34c.1.53.21,1.05.31,1.58l9.5-2-5.05-6.11-1.59,1.29Zm-21.36-30,1.86-1q-2.42-4.83-4.85-9.66l-2.17,1.17Z" transform="translate(-42.84 0.89)"/><path d="M395.54,171.83c-1.19,1.48-2.35,3-3.58,4.43-3.8,4.46-8,8.64-11.33,13.41-2.81,4-1.5,7.87,3.58,11.4a76.75,76.75,0,0,0,3.18-7.57c2.28-7.6,4.63-14.95,11.52-20.07,6.18-4.58,17.66-4.58,23.91-.21,13.3,9.3,16,23.49,17.59,37.86,1,9,7,14.26,16.52,10.85,0,2.11.57,5-.1,5.32-3.31,1.6-6.95,2.53-11.83,4.13l5.7,8.12c-6.48-.67-12.37-.47-17.73-2.06-5.65-1.68-10.79-5.06-17.75-8.48,1,3.34,1.07,5.61,2.21,7,10,12.23,11.91,26.41,10.65,41.52-.57,6.78.07,13.2,3.92,19.43,2.76,4.46,3.64,10.09,5.37,15.22-5,1.58-9.05-1-13.42-8A62.57,62.57,0,0,0,415.14,293c-1.52-1.51-4.37-1.69-7.23-1.68,2.09,5.07,1.75,11.11,8.13,13.32,1.47.51,2.73,2.07,3.72,3.42,2.58,3.51,4.77,7.3,7.45,10.73,4.18,5.37,2.58,11.62,4.16,17.63-1.44-.07-2.07,0-2.16-.13-4.09-7.84-10.33-13.86-16.52-20-1.77-1.74-2.26-4.83-3.17-7.37-1.48-4.13-3.11-8-10-8.17,1.73,5,2.24,9.79,4.79,13,4.88,6.13,7.74,14,15.88,17.65,3.28,1.48,4.94,6.48,7.41,9.82,1.21,1.64,2.61,3.15,5,6,.2-3.54.29-5.33.39-7.11l1.24-.94c1.51,1.86,4.14,3.6,4.33,5.58.7,7.34,2.9,15-2.12,21.85a43.13,43.13,0,0,1-3.3,4c-1.94,2.1-4.05,4-5.92,6.19-1.43,1.64-2.32,3.85-4,5.16s-3.7,1.56-5.59,2.28c-1.26-3.58-7.84-2.75-6.67-8.59,1.53-7.62-3.2-16.16-10.89-19.93,3.23,9.59,2.49,18.59.47,28.08-2.16,10.15-2.44,20.83-2.36,31.27,0,4.91,2.36,10,4.48,14.65,4.28,9.29.18,20.87-8.81,26-3.49,2-5.89,6-8.58,9.22a36,36,0,0,0-3.09,5.25l-1.7-.4c0-4.58-.26-9.19.18-13.74.11-1.12,2.43-2.08,3.79-3,4.86-3.36,11.58-4.22,14.28-10.46.6-1.38,1.35-3.2.92-4.44-5.92-17.43-5.6-35.1-2.63-53,.26-1.59-.56-3.37-.91-5.18-2,.56-3.47,1-5,1.37-.15,0-.36-.14-1.28-.53,1.54-8.09,4.24-16.77-2.9-24.19,10.62,2.87,5.45,13.54,11.23,21,.22-4.6.84-7.7.39-10.63-.63-4.07-2.84-8-3-12-.15-5.11-3.35-7.33-7-8.53-2.17-.72-5.13.95-9.1,1.86-.83-1.88-3.56-5-3.15-7.71.89-5.69-2.55-9.11-4.58-13.45a40.17,40.17,0,0,1-3.42-13.95,71.11,71.11,0,0,0,13.55,21.65l2-1c-.3-1.37-.3-2.9-.94-4.09-3.1-5.74-6.73-11.21-9.42-17.12-1.3-2.87-2.14-7-1.09-9.67,2.79-7.19-.4-13.19-2.24-19.56a7.6,7.6,0,0,1-.13-5.31c4.64,10,8.55,20.47,14.1,29.95s12.63,17.72,19,26.53l-1.57,1.35-11.51-11c-.4,2.39-1.21,4.05-.7,4.74,3.61,4.92,5.14,11.2,11.91,14,6.55,2.72,9.85,9.24,11.72,15.95,1.82,6.52,3,13.2,4.49,19.74,6.42-3,8.73-11.09,4.88-19a152.6,152.6,0,0,0-7.35-13.62c-.94-1.51-2.93-2.55-4.65-3.38-4-1.93-5.28-4.12-1.5-7.54,3-2.7,2.31-4.23-.52-7.51-8.85-10.3-19.94-19.1-23.1-33.6-1.38-6.3-4.9-12.11-7.32-18.19-1.1-2.75-2.65-5.6-2.72-8.43-.44-18.17-10.15-32.15-20.29-45.95-2.81-3.82-6-7.36-8.93-11.11-2.49-3.18-5.17-5.56-9.72-2.92-.91-2.85-2-5.19-2.39-7.65-1.41-8.29-10.16-7.86-14.56-12.53-1.8-1.91-3.19-4.25-5.14-6a60.9,60.9,0,0,0-9.56-7.25c-.9-.53-3.08,1.13-4.68,1.79.7,1.46,1.12,3.15,2.14,4.33,4.55,5.25,9.32,10.3,13.89,15.53,1.06,1.23,1.64,2.88,3.18,5.68-2.35-.77-3.39-.8-3.93-1.33-6.35-6.27-12.42-12.84-19.05-18.8-1.79-1.61-5.18-1.89-7.85-1.94s-5.21,1-8.26,2.92c1.44.69,2.91,2,4.32,1.95,9.07-.38,15.36,4.23,20.51,11,2.76,3.63,5.34,7.4,8,11.11l-1.51,1.26-8.06-7.9-1.49,1.06q3.57,7.41,7.13,14.83L307,217.32c-1.38-1.95-3.07-3.75-4.1-5.87-4-8.23-10.85-13.56-18.07-18.53-1.31-.9-3.76-1.78-4.78-1.17-4.83,2.91-6.72-.37-9.13-3.47a94,94,0,0,0-6.59-7l-2,1.38c1.08,2.27,2.23,4.52,3.23,6.83,2.63,6.11,5.31,12.2,7.7,18.4.38,1-.62,2.47-2.3,4-.82-1.77-1.66-3.54-2.48-5.32-2.56-5.53-4.29-11.71-7.93-16.4-3.35-4.32-8.69-7.13-13.34-10.34a3.75,3.75,0,0,0-3.64.57c-.56.67-.28,2.71.36,3.64,6.45,9.42,13.09,18.71,19.54,28.13.55.8.07,2.32.07,3.5l-1.83.77c-4-6.62-7.43-13.66-12.1-19.75s-10.73-11.51-16.41-17.46c1.67-6,7.05-5.52,11.89-5.19,5.58.38,10.89,2.46,16.79.58,2.11-.68,5.28,2.12,8,3.22,1.53.61,3.46,1.79,4.71,1.33,9-3.29,17.79-7.18,26.83-10.35,4.43-1.55,8.52.13,11.68,3.79s6,6.42,11.57,3.14c1.85-1.08,6.2,1.39,9,2.92,3.13,1.7,5.77,3.93,8.53-.39a3.06,3.06,0,0,1,2.53-1.21c9.12,2.16,19.58,1.67,24.54,12.29.57,1.22,2.7,2.85,3.48,2.57,1.28-.46,2.42-2.2,3-3.65,2.29-6.06,5.6-11.33,11-15a71,71,0,0,1,6.92-3.63Zm20.59,23.89c.63-.14,2.25-1,3.63-.75,4.87,1,9.21,9.77,8.08,14.77-.36,1.57,1,3.52,1.5,5.29l2.18-.32c1.08-2.18,3.38-4.58,3-6.51-1.35-7.62-3.18-14.87-11.9-18.43-3.89-1.58-10.13-2.32-10.26-9.09,0-.64-1.7-1.44-2.73-1.84-8.17-3.15-15.09,2.51-15.05,12l10.16-1.68c.08.48.15.95.22,1.42l-8.27,8.84,1.41,1.38a22.82,22.82,0,0,0,3.29-1.14c7.74-4,7.64-4,12.38,3.61,1.95,3.11,4.38,5.93,6.59,8.88l2.09-1.26C420.53,206.24,418.57,201.56,416.13,195.72Zm-39.65,55,1.71,0c.37-1.35,1.32-2.85,1-4-1.07-4.14-1.84-8.63-4.05-12.15-6.91-11-14.38-21.68-21.78-32.37-.92-1.33-3.11-3.11-4.16-2.81-5.34,1.55-6-2.81-8.35-5.54a132.71,132.71,0,0,0-12.71-12.61c-.78-.69-3,.31-4.63.53.69,1.43,1,3.22,2.13,4.23,3.31,3.09,7.25,5.56,10.3,8.87,4.6,5,8.58,10.56,12.95,15.78,7.72,9.19,16.51,17.54,21.29,28.95C371.83,243.5,374.36,247,376.48,250.73Zm3.5,2.45c-4.26,8,7.53,45.73,14.5,46.75-2.78-7.75,6-15.65-1.82-23.35L388.18,279C387.79,269.45,386.89,260.77,380,253.18Zm18,22.45,1.89-.7c1.11-5.63-1.08-10.6-4.17-15.19-2.26-3.38-2.87-6.37-1.5-10.49,3.29-9.85.35-19.91-6-24.91-.61,4.07-1.38,8.43-1.85,12.83-.13,1.26.72,2.6.93,3.93a35.33,35.33,0,0,1,.37,4.72c0,1.69-.53,3.51-.09,5.07A110.35,110.35,0,0,0,392,263.73C393.68,267.82,396,271.67,398,275.63Zm23.73.74c4.52-8.27,2.31-22.45-4.23-27.66C418.73,258.07,415.58,267.54,421.71,276.37Zm-11.2-53.45c-3.64-4.47-6.6-8.37-9.91-11.95-.79-.86-2.79-.89-4.17-.75-.41,0-.95,2-.86,3.08C396,218,404.38,223.94,410.51,222.92Zm15.15-5.84-1.58,1c-1.15,8.94,1.19,11.62,12.27,12.49Zm-45.64,15c1.65-6.77-3-14-10.25-16.47C373.7,222,376.86,227,380,232.13Zm26.53,43.55,2.69-.19-.63-8.21c-1.4.17-3.51-.19-4.07.59C402.14,271.19,404,273.63,406.55,275.68Zm-27.17,35.71-1.67,1.32,4.88,7.24C385.44,314.45,383.67,312.08,379.38,311.39ZM298.62,199.15l2.13-2.31-6.69-6.13-1.72,1.8Q295.48,195.83,298.62,199.15Zm60.06-1-1.75,1.7,5.4,5.74,1.36-1.21Z" transform="translate(-42.84 0.89)"/><path d="M73.64,11.41A80.32,80.32,0,0,1,67.07,1.19s13.13-4.69,23.82,0c9.42,4.13,16.49,17.52,17.21,20.16,1.81,6.65.54,14.08,1.26,21.1a149.38,149.38,0,0,0,3.46,19.35c.75,3.11,2.66,6,4.42,9.71.8-.55,3.59-1.41,4.24-3.11,1.59-4.08,21-12.9,38.91-15.05,15.73-1.89,30.13,2.69,33.68,2,9.71-1.94,18.94,2.36,24.59,10.42,3.06,4.38,3,10.94,3.41,17.17-3.83-4.52-17-9.89-29.36-11.44-10.8-1.36-20.92.81-23.79.89a35.33,35.33,0,0,0-14.57,3.39c-5.79,2.92-13.65,6-18.3,10.51-2.91,2.83-9.5,12.37-8,13.69,4.49,3.94,13.47,11.75,17.8,15.84,1.82,1.73,3.59,5.24,3,7.28s-4,3.31-6.48,4.38-5.16,1.46-7.76,2.15c-.14.59-.27,1.19-.41,1.78,2.18,1.14,4.47,2.12,6.51,3.46,4.1,2.7,8,5.73,12.13,8.34,1.39.88,3.33.89,5,1.28,1.57,2.59,2.45,6.14,7.12,5.18-1-4.29-2.61-6.9-7.27-5,.84-5.09-2-7-6.44-8.22-2.05-.54-3.78-2.33-5.16-4.3,9.14-1.58,14.9,3.79,20.08,9.29,6.49,6.88,8.24,15.47,8.25,25,0,6.08,5.36,9.64,13.1,11.73-2.41-4-4.09-6.83-6-10,4.94-1.51,8.24.17,10.12,4,1.73,3.55,4.14,4.32,7.89,4.74,5.47.62,10.61,2.3,16.31.29,2-.7,5.31,1.27,7.59,2.71,9.28,5.88,14.15,15.24,20.53,25.87l-9.64-2.24c7,13.52,14.54,25.93,16.75,40.2l-2.24,1a75.06,75.06,0,0,1-3.53-6.77c-2.4-5.88-4.43-11.92-6.91-17.76-6.14-14.5-17.54-23.94-30.81-31.5a49.51,49.51,0,0,0-9.79-4.49c4.89,9.5,8.63,20.07,23.71,21.47-10.6,5-2.61,9.74-2.23,14.71-14-15.92-23.58-36.32-46.08-42.89-.82,9.77,4.43,17.74,12.92,21,5.13,2,10.25,4.4,13.43,9.07l-1.12,1.89a74.38,74.38,0,0,0-8.16-3.7c-10-3.23-17.08-8.89-19.08-20-.71-4-4.63-7.62-4.64-11.42,0-5.56.61-9.63-7-9.29-1.55.08-3.27-3.42-4.18-6.14l8.06,4.34c-.43-6.33-.48-10.79-6.3-13.38-3.89-1.73-6.88-5.37-10.51-7.8-2.67-1.78-5.8-3.46-7.85,1.06L139,143c-6.69-.57-8.42-6.33-11.26-10.88-.71-1.15-.77-3.28-1.67-3.66-6.66-2.77-8.73-9-10.79-14.78-1.93-5.4-2.59-11.25-2.8-17.4,2.7,4.23,4.63,8.43,12.2,3.61-1.18-.57,0-7.34,3.42-12.09,4.2-5.8,11-9.76,11.78-10.21-2.13-2.53,1.29-9.95-1.4-11.5-1.29-.74-10,5.38-11.73,7-4.7,4.34-12,10.27-17,17.87,0-3.54,2.77-12,2.77-12s-6.68,1.67-7.76,5.51c-.53,1.88-1.82,3.55-2.76,5.31-.86-2.36-2.49-4.76-2.35-7.06.12-2.07,4.32-6.07,7-11,1.58-2.85-.14-15.83-.3-19.65s0-23.95-4.46-32.75C96.23,8,83.23,7.6,83.25,8a11,11,0,0,0,1.61,5.83c5.35,7.39,10.31,15.12,11.94,24.12.88,4.87-.55,10.17-1,15.26-.33,3.55-.94,7.08-1.16,10.63-.28,4.66-2.32,7.07-7.21,6.37,0,0,6-16.85,2.89-31.83C87.53,25.21,75.66,13.9,73.64,11.41Zm115,55.35a179.64,179.64,0,0,1,29,7.54c-1.43-8.1-14.28-16.56-22.73-14.19-3.25.9-30.55-7-38.47-.12-.26.23,1.56,6.51.89,9.84C157.32,69.83,181.93,65.71,188.64,66.76ZM216,180.39c-2,1.62-3.58,2.32-3.73,3.25a5.3,5.3,0,0,0,1.14,4.14A107.9,107.9,0,0,0,224.1,197a11.88,11.88,0,0,0,6.07,2.08c1,.07,2-1.8,3.06-2.79Zm-98.1-73.2c2.37,4.15,3,10.56,5.59,13.29,1.6,1.68,7.23,4.46,9.86,4.57,1.06,0,9.16-1,7.33-5.13s-10.1-10-14.8-13.51C125.34,106,119.77,108.2,117.87,107.19Zm34.71-36.34c-.24-1,.22-7.65,0-8.69-2.7-.19-7.37,2.5-10.07,2.3.66,2.53.5,9.62,1.16,12.15C144.53,76.77,151.18,72.32,152.58,70.85Z" transform="translate(-42.84 0.89)"/><path d="M107.87,174v7.53L95.3,175.51c8,13.29,4.76,26.12,2.65,39.36-4.41,2.74-8,1.33-7.43-4.49,1.16-12.09-4.37-21.8-9.89-31.59-.94-1.67-3-2.68-4.62-4a30,30,0,0,0-2.92,4.86c-2.57,6.82-14.7,8.76-19.78,3.13q-4-4.41-8.15-8.62c-3.43-3.46-2.91-12.69.63-17.7S52.68,146,55.9,140.61c.63-1.06.29-2.68.48-4,.41-2.85-.08-6.47,1.49-8.41,5-6.16,4.44-14.51,8.2-20.52,2.05-3.27,10-7.32,9.79-9.76-.31-3.2-14.19-8.09-17.07-11a10.92,10.92,0,0,1-1.91-3c-4.19-8.71-2.39-11.5,7.23-10.61,6.74.62,18.12,5.18,24.78,6.4,1.51.28,2.76,2,4.13,3.09l-.66,1.41c-8-.54-20.62-4.58-29-5.14,0,6.11,8.13,11.66,12.62,12.7,1.34.3,2.8.09,4.15.35,5.63,1.07,6.4,3.21,2.55,7.4-1.73,1.89-3.82,3.46-5.7,5.23-4,3.75-8.76,7-7,13.85.34,1.31-1.49,3.24-2.44,4.82-2.11,3.53-5.89,6.94-6.09,10.55-.33,5.87-1.36,10.82-5.29,15.22a14.66,14.66,0,0,0-2.8,5.24c-.54,1.7-1.23,4.38-.4,5.25,1.05,1.1,3.56,1,5.45,1.07,1.57,0,3.16-.51,5.27-.33-5.19,6.21-2.5,11.65.14,19,1.45-2.69,2.3-3.71,2.58-4.87,1.82-7.6,9.94-7.68,14.46-12.05.16-.16,2.2,1.24,3,2.21a54.43,54.43,0,0,1,3.36,5.08l2.09-.27L90.52,158l1.44-.94c1.78,2.66,3.53,5.34,5.36,8a19.69,19.69,0,0,0,3.38,4.08c.35.29,2.82-1,2.77-1.41-.21-1.74-.48-4-1.63-5-3-2.69-2.89-4.66,0-7.36,1.58-1.51,2.37-3.85,3.52-5.81,6.73-.53,7.68,9.36,15.1,8.89-.13-9.86-9-13.32-13.12-20.11,6.75-.7,21.56,17.78,20.73,25.76l-4.76-3.92c-7.59,4.82,2.46,11.25-1.55,16.65l-6.56-7.17c-.48,3.51-.75,5.52-1.21,8.86Zm-23.22,3,8,11.38C94.43,180.34,92,176.94,84.65,177.05Z" transform="translate(-42.84 0.89)"/><path d="M145.14,239.83l-6.48,5c-.75-1.42-2.26-3.2-1.9-3.76,3.44-5.3,3.18-10.55-.71-16l1.68-.5a32,32,0,0,1,2.31,2.5c1.18,1.54,1.93,3.65,3.45,4.6s3.58.56,5.41.77a31.89,31.89,0,0,0-1-5.22c-3.45-9.45-4-19.15-2.64-29,2.47,6.6,4.34,13.52,7.59,19.71,3.1,5.92,7.64,11.08,11.6,16.64l-7.4-2.93-1.39,1.15c4.44,8.52,11.49,15.38,16.28,24.27-5.09,5.69,4.76,15.38-5.4,21.9C173.15,258.15,158.23,249.92,145.14,239.83Z" transform="translate(-42.84 0.89)"/><path d="M242.49,417.08c1.1,2.5,1.89,5.19,3.35,7.46,3,4.67,6.34,9.11,9.53,13.66,3.75,5.34,3.81,10.52-.16,13.27-1.22.84-3.17.63-4.78.9-.05-1.42-.63-3.13-.06-4.23,1.88-3.61.54-6.08-1.52-9.19C244.6,432.55,238.75,426.48,242.49,417.08Z" transform="translate(-42.84 0.89)"/><path d="M104.14,132.2,97.94,140l-13.69-2.54c5.17-3.65-.34-11.68,8.44-12.38C98.65,124.63,101.9,127.24,104.14,132.2Z" transform="translate(-42.84 0.89)"/><path d="M305.88,266.18c-6.39-17.87-7.11-37.74-19.32-53.65C295.15,213.06,308.62,249.29,305.88,266.18Z" transform="translate(-42.84 0.89)"/><path d="M236.45,239.35a51.75,51.75,0,0,1-3-4.81c-3.39-6.85-6.76-13.72-9.91-20.68-.68-1.49-.45-3.4-.63-5.12,1.73.59,4.08.68,5.07,1.88a43.55,43.55,0,0,1,6,9.55,110.81,110.81,0,0,1,4.94,14c.43,1.45-.3,3.24-.5,4.87Z" transform="translate(-42.84 0.89)"/><path d="M143.19,161.1c10.75.62,28.33,29.32,28.39,45.39C163.82,190.63,158.78,173.1,143.19,161.1Z" transform="translate(-42.84 0.89)"/><path d="M354,330.29c-1.82-16.76-3.5-32.28-5.1-47.06,3.31,1.79,8.43,26,7.62,41.73C356.38,326.57,355,328.12,354,330.29Z" transform="translate(-42.84 0.89)"/><path d="M162.37,213.21c-8.45-10.48-12.47-23.15-17.37-35.39l1.86-.95,16.89,35.43Z" transform="translate(-42.84 0.89)"/><path d="M293.62,280.26c5,5.05,10.24,10.19,15.25,15.54.83.88.86,2.7.79,4.07,0,.31-2.1,1-3,.71C301,299,293.05,285.78,293.62,280.26Z" transform="translate(-42.84 0.89)"/><path d="M270.62,252c.46,9.62.89,18.59,1.31,27.56C266.36,274.22,265.72,255.66,270.62,252Z" transform="translate(-42.84 0.89)"/><path d="M214.79,305.11c-4.51-10.3-8.35-19.08-12.4-28.31C208.59,279.23,215.37,294.22,214.79,305.11Z" transform="translate(-42.84 0.89)"/><path d="M336.45,246.67c5.1,4.34,10.93,28.17,8.47,34.14-.77-.66-2-1.19-2-1.81-.78-9.85-1.13-19.76-6.38-28.64C336,249.54,336.45,248.17,336.45,246.67Z" transform="translate(-42.84 0.89)"/><path d="M292.58,272.58c-.48-7-1-14-1.51-21.87,5.81,3.72,6.75,13.27,3.23,21.8Z" transform="translate(-42.84 0.89)"/><path d="M356.53,252.15,343,226.39C349,229.16,357.58,245,356.53,252.15Z" transform="translate(-42.84 0.89)"/><path d="M126,142.71,112.22,130.5c5.72-.54,12.06,6.12,13.63,12.36Z" transform="translate(-42.84 0.89)"/><path d="M138.81,143.2l13.75,10.59-2.13,2.27L139,143Z" transform="translate(-42.84 0.89)"/><path d="M148.42,286.1c-4.6-4.16-3.19-8.92-2.13-13.64l2-.15c0,4.58,0,9.15,0,13.75A.63.63,0,0,0,148.42,286.1Z" transform="translate(-42.84 0.89)"/><path d="M125.85,142.86c7.72,9.78,7.72,9.78,7.34,15.14l-1.56.64L126,142.72Z" transform="translate(-42.84 0.89)"/><path d="M326.34,249.51l4.22,12.15-1.42.56q-2.64-5.88-5.27-11.75Z" transform="translate(-42.84 0.89)"/><path d="M177,230.37l-6.37-7.23,1.7-1.52q3.22,3.54,6.46,7.09Z" transform="translate(-42.84 0.89)"/><path d="M331,234.06l4.15,6.84-1.7,1-4.24-7.28Z" transform="translate(-42.84 0.89)"/></svg>