<svg id="detail-zuckerbanket-schildkröte_Bild" data-name="detail-zuckerbanket-schildkröte Bild" xmlns="http://www.w3.org/2000/svg" viewBox="0 0 500 255.54"><path d="M123.28,308.94l0,0-.42-.19Z" transform="translate(0 -122.23)"/><path d="M374,340.64l.43-.45,0,0Z" transform="translate(0 -122.23)"/><path d="M248.93,341.28l-2.17,1.93c-.6-.7-1.47-1.31-1.7-2.11-.13-.45.78-1.21,1.22-1.82Z" transform="translate(0 -122.23)"/><path d="M174.12,333.43c-.91,1-1.32,1.81-1.9,2-.37.09-1.11-.71-1.43-1.25-.11-.18.51-1.1.91-1.19A7.56,7.56,0,0,1,174.12,333.43Z" transform="translate(0 -122.23)"/><path d="M248.47,266h0a2.59,2.59,0,0,0-.9-.1l-15.25.87c-3.13.18-7.26.72-9.59-1.83-2.48-2.71-6.49,1.32-4,4,3.1,3.39,7.9,3.78,12.22,3.57,5.55-.27,11.09-.63,16.64-.95a2.83,2.83,0,0,0,1.58-.56c1,2,3,2.36,6.69.94a30.46,30.46,0,0,1,10.08-1.87c8.73-.25,17.49-.08,26.23-.08,0-1.34.08-2.68.11-4Z" transform="translate(0 -122.23)"/><path d="M288.81,247.26a33.36,33.36,0,0,1-3.77,3.48c-5.82,4-25.92,3.9-34.49-1.69l38.37-1.61Z" transform="translate(0 -122.23)"/><path d="M133.51,180.6c-4,1.74-7,4.25-9.51,3.83-3.45-.58-6.58-3.28-9.69-5.31-.33-.21,0-2.54.65-2.9a5.6,5.6,0,0,1,4-.62C122.9,176.75,126.79,178.26,133.51,180.6Z" transform="translate(0 -122.23)"/><path d="M204.91,209.52a159,159,0,0,0-45.11-11.73c-2.2-.24-6.28,1.37-6.65,2.83-.7,2.81.63,6.12,1.12,9.23l2.62-.17c2.35-8.73,3.41-9,12.27-6.36,11.21,3.33,22.59,6.13,34,8.89a3.81,3.81,0,0,0,.47.07c-1,2.63-2.91,4.86-4.47,7.2a25.71,25.71,0,0,0-2.64,5.17c-.65,1.71-1.1,3.5-1.85,5.17-2.64,5.8-7.39,10.23-12.13,14.38A146.34,146.34,0,0,0,164.77,235c-.43-1.08-.75-2.59-1.41-2.75-11.87-3-20.31-10.13-29-18.73-5-5-4.77-5-.5-8.77,6.14-5.43,11.75-11.47,17.58-17.25l-2.75-2.78c-8,7.29-16.15,14.4-23.76,22.05-1.23,1.24-1,5.91.3,7.33,5.71,6.09,11.52,12.41,18.42,17a14.51,14.51,0,0,0,4.83,1.92,2.74,2.74,0,0,0,2,2.65,140.64,140.64,0,0,1,30.88,14.51,2.91,2.91,0,0,0,3.44-.45c5.64-4.89,11.55-10.11,14.73-17,.87-1.89,1.49-3.85,2.17-5.8a20.27,20.27,0,0,1,2.46-4.73c2.07-3.09,4.39-6,5.34-9.67C210.23,209.6,206.72,208.06,204.91,209.52Z" transform="translate(0 -122.23)"/><path d="M209.15,250a29.26,29.26,0,0,0-3.83,1.17c.61,3.5,1.51,6.94,2.35,10.4l2-.33C209.49,257.47,209.32,253.73,209.15,250Z" transform="translate(0 -122.23)"/><path d="M246.49,247.05l3.13,4c-1.13.74-2.52,2.29-3.34,2-1.34-.42-2.31-2-3.44-3.12Z" transform="translate(0 -122.23)"/><path d="M292.62,230.78a13.16,13.16,0,0,1,.63-2.68,12.74,12.74,0,0,0,1.16-4.52,6.11,6.11,0,0,0-2-4.24,15.21,15.21,0,0,0-7.68-3.33,23.16,23.16,0,0,0-9.16.19,2.68,2.68,0,0,0-1.66,1.25c-10.38-.26-21.85-3-30.5.69-3.36,1.45-5.18,6.48-6.77,12-.42.55-.85,1.09-1.16,1.6a42.31,42.31,0,0,0-3.14,6.37,97.31,97.31,0,0,0-4,13.27,2.88,2.88,0,0,0,4.18,3.21,30.1,30.1,0,0,1,5.42-2.14c.39-.1.79-.18,1.19-.25a2.83,2.83,0,0,0,2.73,3.17,184,184,0,0,0,19.51,0,96.67,96.67,0,0,0,13.11-1.86,2.59,2.59,0,0,0,1.33.35h.31a.11.11,0,0,1,0,0,2.92,2.92,0,0,0,3.5,2l.17,0h.07l.79,0c.46,0,.91,0,1.37,0,1,.06,2,.17,3,.19A9.76,9.76,0,0,0,291.6,254c3.51-2.86,3.81-7.64,3.62-11.82C296.44,238.77,294.25,234.72,292.62,230.78ZM255,245.85c-4.25.1-8.53.09-12.78.33a29.06,29.06,0,0,0-6.49,1l-.42.14c.48-1.76,1-3.52,1.62-5.24a7,7,0,0,0,1.27-1.69c1.05-2.38,2.11-4.76,3.13-7.16,1.32-1.94,2.75-4,2.57-6.4,3.49-8.51,7.39-9.52,17.23-6,4.11,1.48,8.9,1.1,13.39,1.57l.06-1.32a3,3,0,0,0,2.54.56c.29-.07.59-.13.89-.18l.53-.08a16.38,16.38,0,0,1,1.71-.12c.61,0,1.21,0,1.82,0l.69.07c-.44.5-.86,1-1.31,1.5,1,.31,2.1,1,3,.82a6.88,6.88,0,0,0,2.37-1.26l.05,0,.2.07.14.07c.22.12.45.23.67.36l.45.29.19.19a1.48,1.48,0,0,0,.21.3c0,.05,0,.07,0,.08s0,.19-.07.29a8.69,8.69,0,0,1-.29.86,21.6,21.6,0,0,0-1.12,3.5,19.44,19.44,0,0,0,.11,8.35,2.86,2.86,0,0,0,2.09,2l-.45,7.29a2.42,2.42,0,0,0-1.68-.05c-1.05.37-2.13.69-3.22,1a2.49,2.49,0,0,0-2.59-1.83Z" transform="translate(0 -122.23)"/><path d="M342.2,217.64a86.27,86.27,0,0,1,28.33-9.1c.51-.07,1-.09,1.53-.17.9-.13.32,0,.29,0a15.37,15.37,0,0,1,2.12,3.11l4.61,6.76,4.61,6.75a24.84,24.84,0,0,1,2.55,4c-10-.81-18.75,5.31-26.82,10.36-3.15,2-7.67,4.52-10.44.73-1.22-1.67-2-3.59-3.24-5.25-1.39-1.87-3.5-3.35-4.51-5.47s-1-4.4-1.31-6.55a14.82,14.82,0,0,0-2.51-7.11,2.94,2.94,0,0,0-3.89-1c-1.2.71-1.95,2.66-1,3.89,2.67,3.51,1.7,8.46,3.29,12.43,1,2.6,2.93,4.35,4.76,6.4,1.37,1.54,2.17,3.51,3.3,5.22a11.13,11.13,0,0,0,5.69,4.72,11.54,11.54,0,0,0,7.66-.49c5-1.92,9.23-5.41,13.87-8,5-2.79,10.4-4.86,16.23-4.09a2.4,2.4,0,0,0,2.12-1,2.72,2.72,0,0,0,3-2.74c0-4.65-3.54-8.57-6-12.2l-8.26-12.11c-1.25-1.84-2.44-3.58-4.79-3.94-2.18-.33-4.59.29-6.74.65a88.65,88.65,0,0,0-13,3.25,93.76,93.76,0,0,0-14.22,6.06C336.09,214.44,339,219.35,342.2,217.64Z" transform="translate(0 -122.23)"/><path d="M272.57,188.68c9,1.31,18.05,2.7,27.11,3.85,4.43.57,8.88,1.05,13.34,1.35q3.06.21,6.13.29a36.66,36.66,0,0,0,7.18-.17c4.14-.71,6.51-4.79,8.93-7.81s5.85-6.39,7.05-10.38c2.35-7.77-4.61-14.44-11.45-16.45-4.41-1.29-9.06-1.25-13.59-1.87a56.68,56.68,0,0,1-12.54-3.3,2.67,2.67,0,0,0-.78-1.58,2.86,2.86,0,0,0-4,0c-4.58,5.77-9.11,11.59-13.79,17.28-4.18,5.08-8.67,10-14.25,13.59C270.05,184.65,270,188.3,272.57,188.68Zm17.28-14.39c4.11-5,8.08-10,12.08-15.1a59,59,0,0,0,10.95,3.3c3.77.73,7.58,1,11.38,1.38,3.2.36,6.66,1,9.29,3,1.92,1.45,3.69,3.79,3.5,6.32-.23,3.08-3.31,5.88-5.13,8.14-1.24,1.55-2.48,3.11-3.73,4.66-.86,1.05-1.68,2.26-3.1,2.49a33.67,33.67,0,0,1-5.94,0q-3.07-.09-6.13-.3c-4.09-.27-8.17-.7-12.23-1.2-6.81-.85-13.59-1.86-20.37-2.86A82,82,0,0,0,289.85,174.29Z" transform="translate(0 -122.23)"/><path d="M498.29,345.62c-2.42-6.5-9.23-4.87-13.94-8.83-4.54-3.81-3.84-24.08-11.68-32.16-5.95-6.15-21-1.08-22.88-.63-4.38,1-7.38-1.7-11.8-4.53s-10.51-2.77-10.51-2.77a2.89,2.89,0,0,1-1-3.89,2.47,2.47,0,0,1,.73-.84l-.12-.21,2.11-1.23.61,1a3.83,3.83,0,0,1,.56.22c.23.12.46.24.69.34l.22.09,1.44.51c1.1.34,2.21.61,3.34.84.58.12,1.18.23,1.77.33l.69.1h0l.47.05c.52.06,1,.1,1.55.14a15.59,15.59,0,0,1,5-.39c2.59.09,5.21.11,7.8,0a45.28,45.28,0,0,0,7.13-1s11.52-4,14.42-11-1-13.75-1-13.75c-.32-1.41-1.26-8.95-6.38-14.57-4.61-5.05-13.27-8.25-16.89-9-16.27-3.27-16-3.16-19.91-19.1-1.94-7.9-4.07-16.12-8.11-23-5-8.46-12-15.7-18.19-23.54l-1.91,6.19c-1.57-1.63-4.4-3.17-4.53-4.91-1-12.92-12.42-16-20.73-20.14-18.31-9.09-37.69-16-56.71-23.65-1-.42-18.8-5.59-21.2-5.91-11.56-1.53-23.07-3.38-34.63-4.87-9.52-1.23-47.56-5.66-78-1.81-31.54,4-55.45,16.3-58.4,18.46-10.81,7.87-22.29,15.29-26.06,29.46C99.44,181.83,97,183,87.48,177.79c-15.19-8.26-30.22-12.81-47-3.4-11.26,6.33-23.08,6.26-34.23-1.6-1.12-.79-3.75,0-5.39.76-.68.3-1.07,2.47-.76,3.54,2.54,8.85,19.54,20.13,28.9,19.17,1.17-.12,2.24-1.23,3.36-1.89-.93-.9-1.71-2.12-2.82-2.66-3.61-1.74-7.34-3.23-11-4.82.25-.76.49-1.52.73-2.27,4.62-.61,9.35-.8,13.83-1.94a76.14,76.14,0,0,0,14.17-5.12c9.7-4.65,18.87-3.56,28.12,1.23,4.15,2.15,8.65,3.63,12.93,5.56a60.22,60.22,0,0,1,5.33,3.07c-1.83.76-3.67,1.52-5.5,2.3a30.89,30.89,0,0,1-4.85,2.05c-7.11,1.64-13.58,3.68-20.13-3.36-8.54-9.17-19-6.57-26.28,5.13.9.2,2.11.83,2.5.5,10.06-8.42,17.65-3.39,25.51,3.88,3.36,3.12,8.3,4.5,12.33,7,1.46.9,3.58,3,3.34,4-2.9,12.75,2.9,22.68,9.58,32.62,2.89,4.3,4.59,9.4,7.68,15.94C81.56,250.45,70.1,255,63,268c-3.46,6.37-5.75,11.64.15,17.75,3.38,3.51,5.9,7.82,9,11.64a8.14,8.14,0,0,0,3.46,2.25c4.07,1.48,8.13,3.55,12.34,3.94,9,.84,17.93,6.79,27.18.71.7-.46,2.4.59,3.63.93-.72,1.43-1.11,3.64-2.25,4.13-2.31,1-5,1.11-7.58,1.58.06,1.05.12,2.1.17,3.14L130,315.4c.15-1,.31-2.09.46-3.13L123.4,309c2.1-.52,4.87-.55,5.87-1.89,4.7-6.37,2.23-16.63-5.56-22.58,0,1.95-.1,3.33,0,4.68.19,2,.54,4,.82,6-2.77-.19-7.17.65-8-.73-3.78-6-6.14-3-9.4.24-1.46,1.48-4.27,2.9-6,2.45-1.32-.35-1.94-3.6-2.7-5.62a11.37,11.37,0,0,1-.57-2.58c-5.56,1-11.45,4-14.86,2.21-8.52-4.38,5.12-7.37,1.76-12.86-2.44.89-5,2.64-7.27,2.4-1.74-.17-4.76-4.08-4.6-4.29,7.42-9.49-4.53-2.42-4.55-5.27,4.2-11.24,10.26-13.74,21.25-9.41,5.31,2.09,11.46,6.62,15.21-2.61a18.91,18.91,0,0,0,1.83,2.39c1.59,1.46,3.26,2.82,4.9,4.22,0-2.1.08-4.21-.15-6.29C111,255.75,110,252,110,248.21c0-1.22,3.41-3.72,4.1-3.37,5.44,2.74,10.62,6,15.78,9.23.47.3.48,2.39.34,2.43-6.36,1.9-2.18,3.5.06,5.32,3.17,2.57,6.24,5.29,9.36,7.95-2.23,2.46-3.75,5.76-5.81,6.14-8.71,1.6-3.14,5.57-1.53,8.34,3.27,5.61,7.15,10.85,10.46,16.43.55.92-.11,3.11-.93,4.17-1.8,2.31-5.17,3.93-5.89,6.42-2,6.72-6.06,8.79-12.49,7.91-.28,0-.68.82-2.74,3.44,9.31,1.21,17.3,2.43,25.33,3.22,4.7.46,11.15,2.19,13.86-.11,5.44-4.63,7.2-2.56,10.52,1.67,1.14,1.45,4.85,1.13,7.35,1,.43,0,1.51-3.55.88-4.64a11.38,11.38,0,0,0-4.95-4c-2.67-1.24-5.64-1.83-8.41-2.89-.09,0,.63-3,.88-3a88.2,88.2,0,0,1,9.15,1.11,8.8,8.8,0,0,1,2.33,1.14c.45-1.84.86-3.55,1.27-5.25,1.87.77,4,1.23,5.48,2.48.54.47-.39,2.85-.92,4.27s-2.45,3.78-2,4.3c5,6.21.86,9.55-7,13.71l50.77,7.3c-1.51-3.28-1.7-4.79-2.46-5.16-2.64-1.3-7.51-1.08-4.25-5.88.55-.83,5,.77,7.5,1.52s4.81,2.38,7.32,2.65c7.72.83,15.52,1,23.23,1.89,2,.23,3.77,2.28,5.65,3.49-2.25.6-4.49,1.29-6.77,1.75a5.31,5.31,0,0,1-2.05-.07c1.69,4,3.31,7.74,4.93,11.52a82.29,82.29,0,0,0-8.61-3.46c-.86-.25-3.33,1.75-3.22,2,2.2,5.84,3.17,13.36,7.44,16.9,5.32,4.42,13.29,7.23,20.29,7.61s15.84-1.08,21.26-5.16a33.44,33.44,0,0,1,13.51-6.12l1.32-1.74a13.76,13.76,0,0,1,3.82-5.6l-2.38-.67c-.12,0,.07-2.16.33-2.21,2-.39,4-.85,6-1.15a49.08,49.08,0,0,1,4.48-4.41,31.24,31.24,0,0,1,6.86-4.64,30.22,30.22,0,0,1,8.85-2.42c4.09-.63,8.15-1.46,12.16-2.43a73.86,73.86,0,0,1,11-2.34,10.88,10.88,0,0,1,1.14-.06c1.37-.72,3.66-1.71,5.1-2.45.19,1.11.38,2.23.6,3.46a31.83,31.83,0,0,1,4.49,2.07l1.67-1.62c3.47,2,6.89,4,10.35,6,5.66,3.24,12.67,5.31,16.67,10,4.56,5.31,9.83,5.8,13.6,3,6.18-4.61,9.26-.71,14,1.67a143.8,143.8,0,0,0,24,9.34c8.23,2.4,16.79-6,25.43-1.92,7.22-3.93,14.76-7,18.2-8.87C501.68,356.73,500,350.14,498.29,345.62ZM431,255.71c8.13-8.56,18.71-3.43,24.81.46s8.14,21.75,3.64,27.7-16,1.31-26.13-1-10-7.84-12.77-13.47S422.89,264.27,431,255.71Zm-17.49-28.85c.46-1.33,3.2-2.86,4.64-2.64,2.37.37,4.53,2.08,7.31,3.5-1.24,1.4-1.65,2.31-2.29,2.52-8,2.61-3.1,4.6.18,7,.85.61,1,2.18,1.48,3.31-1.08.16-2.24.66-3.22.43C415.91,239.65,411.6,232.47,413.53,226.86Zm-9.11-20.47a24.73,24.73,0,0,1,2.94,3.6c.14.24-1.12,1.26-1.73,1.92a25.35,25.35,0,0,1-2.59-3.2C402.87,208.43,403.7,207.55,404.42,206.39ZM394,194.49c2.76,1.77,5.39,3.75,8.05,5.69L400,203l-8.22-6A21.72,21.72,0,0,1,394,194.49Zm-4.81-19.91a40.9,40.9,0,0,1,4.07,3.07c.21.2-.52,1.41-.82,2.15l-5.23-2.9ZM379,184c.85-.13,1.8.46,4.16,1.18-2.38,1.13-3.35,2-4.25,1.91s-1.68-1.07-2.52-1.65A8.36,8.36,0,0,1,379,184ZM89.56,222c-.1-1.31.63-2.67,1-4,1.08.3,2.64.24,3.15,1,4.32,6,8.44,12.13,13.16,19C96.76,236.29,90.14,229.82,89.56,222Zm51.68,90.55.56-3c4.55,1.53,10.29-2.41,13.66,4.51Zm3.85-21.06,5.65-9.38,2,1L148.07,293Zm10.37,4c.76-4.42,1.37-8.74,2.31-13,.25-1.13,1.47-2.06,2.24-3.08,1,1,2.68,1.79,2.92,2.91C164.23,288.49,163.38,293.81,155.46,295.42Zm4.06,23.93-3.37-4.85,5.39,2.51ZM160,310l-2.68-2.74,4.06-3.88,2.17,2.75Zm19-21c-2.54,3.28-5.81,6-8.85,8.89-1.17-1.31-3.58-3.09-3.3-3.83,1.48-3.77,3.64-7.28,6.43-12.49C176.24,285.27,179.37,288.45,179,288.93ZM192.59,333c-1.79.1-5.6-3.85-5.35-5.5.59-4,3-7.65,4.73-11.45l13.18,12.43C199.88,330.51,196.29,332.75,192.59,333Zm6.55-21.6c-1.18,1-2.2,2.17-3.3,3.27a42.22,42.22,0,0,1-1.3-5.33,5.3,5.3,0,0,1,.71-3.37c1.62-2.37,3.53-4.54,5.33-6.79-3.19,1.27-6.3,3.19-9.61,3.63-3.72.49-7.62-.35-11.45-.61.73-2.6,1.54-5.19,2.17-7.82,1.05-4.4,1.86-8.66,8.33-5.56.65.32,3.54-4,5.44-6.2,3.25,1.41-1.76,12.16,8.26,7.38,1.38-.66,6.4,5,8.66,8.45.49.73-3.49,4.68-5.71,6.82S201.62,309.3,199.14,311.38Zm11.16,18.75c-.94,0-1.84-1.05-2.75-1.64l1.88-2.6,3,2.35C211.74,328.91,211,330.15,210.3,330.13Zm2.2-17.2c-.56-1.26-1.95-3-1.54-3.69A62.44,62.44,0,0,1,218,299.6c.92-1,3.19-1.25,4.72-1,1.12.16,2,1.66,4.4,3.73Zm19.26,9.15c-3.14-1.39-4.74-6.24-7-9.51,5.19-2.38,3.95-12.94,13-10.3,3.37,1,5.57,3,1.64,6-3.28,2.52-6.85,4.64-10.3,6.94l2.24,3L238,319.4C239,324.43,238.62,325.1,231.76,322.08Zm18.35,6.38c-.87-1.28-2.46-2.54-2.47-3.83-.1-7.54-6.62-3.13-9.54-5.26a63.4,63.4,0,0,1,3.56-5.8c3.19-4.2,6-4.47,8.08,1,1.15,3,3.2,5.76,3.72,8.82C253.71,324.87,251.31,326.77,250.11,328.46Zm59.7,13.31c-2.79,7.38-6.72,14.89-12.07,20.52-3.15,3.32-10,3.89-15.29,4.22-4.37.28-9.81-4.22-9.57,8.13l-3.55-4.48c.95-3.28,1.78-6.59,2.88-9.81a36.34,36.34,0,0,1,2.5-4.89,48.78,48.78,0,0,0-5.06-.69c-3.59-.12-7.18-.09-10.79-.07l27.45-19.65c-4.08-2.83-8.7-5.23-12.18-8.74-2.08-2.09-2.74-5.87-3.33-9-.33-1.74.78-3.76,1.24-5.66-2.16.06-4.54-.41-6.44.33-2.09.82-3.74,2.75-7.64,3.51,1.39-3.8,1.72-9.31,4.43-11,4.25-2.64,10.13-3.65,15.3-3.63,6.94,0,13.87,2.38,20.82,2.52,8.27.15,4.15,7.57,7.13,10.63H296.3l-.93,1.82a51.74,51.74,0,0,0,5.47,4C309.56,324.69,313.41,332.27,309.81,341.77Zm-43.07-7.58c.25-.05.54-.2.73-.12s.21.4.3.62l-.58.4Zm43.12-15.64-3.5-4.14,4.91,2.18Zm10.66,30.58c-1.77-.76-5.14-1.94-5.07-2.24,1-4,2.54-7.93,3.93-11.86l4.2,1.12Zm16.62-25.19c0,2.24-1.83,6-3.46,6.37-4.24,1-10,4.9-12.55-2.5-1.86-5.36-3.17-10.92-5.17-18,9.26,4.1,20.12-2.69,28.43,7.52l-10.12-1.09C335.31,318.84,337.17,321.4,337.14,323.94Zm-17.08-21.08h16.58l-.09,2.28H320.14C320.11,304.38,320.09,303.62,320.06,302.86Zm25.39,24a15.25,15.25,0,0,1-1.18-2c.48-.11,1.23-.47,1.39-.3a11,11,0,0,1,1.2,2.08C346.2,326.71,345.56,327,345.45,326.84Zm8.75-2.53c-.93-.55-2.32-.87-2.72-1.68-3.27-6.62-6.35-13.33-9.88-20.85,8.31,3.64,12.2,10.19,14.14,18.09C356.06,321.15,354.75,322.82,354.2,324.31Zm45.22,21.37c-2.56-6.2-5.17-12.38-7.67-18.35-1.81.52-6.07,2.34-6.46,1.72A105.1,105.1,0,0,1,378,314.48c-.83-1.92-.89-4.18-1.3-6.29-1.39,2.31-3.12,4.48-4.08,6.95s-1.07,5.07-1.55,7.62c-2.42-2.31-6.76-4.54-6.85-6.95-.2-4.87,1.83-9.84,3.07-14.75.75-2.95,1.75-5.85,2.63-8.78-2.71-.08-5.58-.78-8.11-.13-11.36,2.89-22.76,3.09-34.45,2.62-9.2-.37-18.52,2.51-27.76,2.39-7.08-.09-14.12-2.64-21.18-4-4-.8-8.62-3.11-12-2-17.28,5.78-32.45-1.08-47.95-6.65-1.39,2.56-2.77,5.09-4.14,7.63-2.26-2.39-4.14-5.41-6.85-7.06A181.93,181.93,0,0,0,186.69,274c-7.57-3.36-15.83-5.24-23.25-8.85-13.28-6.47-26.37-13.4-39.07-20.93-3.53-2.09-5.43-6.93-8.05-10.53s-5.07-7.73-8.14-11.11c-3.7-4.06-8.54-7.16-11.89-11.45-7.32-9.36-6.57-14,2.84-20.55,1-.72,4.68.51,5.67,1.88,3.11,4.27,5.25,9.24,8.36,13.52,1.11,1.53,3.9,1.85,5.92,2.72-.3-2,0-4.36-1-5.95-3.87-6.29-8.51-12.14-12.06-18.6a11.35,11.35,0,0,1-.39-9c3.39-7.07,14.51-20.22,26.54-28.35,11.06-7.47,23.06-10.21,26.43-11.18a12.85,12.85,0,0,0,1.4,3.9c2.52,3.9,5.09,6.37,9.56,1.46a32.73,32.73,0,0,1,6.67-5.21,9.29,9.29,0,0,1,2.44-1.58c.59-.39,1.17-.78,1.74-1.18l.43.51a20.23,20.23,0,0,1,8.83.3,58.35,58.35,0,0,1,16.09-2.91,17,17,0,0,1,8.41-.11c5.7.11,11.42.49,17.08.57,10.56.15,22.12.35,32.53,3.5,3.07.1,18.56.75,18.62,4.59.11,6.38-16.9,17.3-17.07,17.66-1.75,3.68-3.25,9.8,1.15,9.45,1.45-.11,11.17-11.78,12.79-11.66,8.71-8.5,21.43-13.12,33.45-11.69,9.27,1.1,16.38,6.18,24.5,10.22,7.64,3.8,14.36,6.81,20.45,13.09,3.52,3.63,2.89,8.39,0,12.06a24.33,24.33,0,0,1-2.52,2.71c1.2.69,2.38,1.86,3.57,2.62-1.72,1.16-3.3,2.79-5.2,3.37-2.17.66-4.62.38-7.41.54,1.65,7.41,7.37,6,11.23,4.84a12.9,12.9,0,0,1,3.53-.61,7.89,7.89,0,0,1,8.28-2.47c19.27,5,34.56,27.19,33.69,47a8.25,8.25,0,0,1-6.62,7.95,6.77,6.77,0,0,1-2.16,1.38c-11.51,4.49-23.21,8.5-34.84,12.68-6.86,2.47-13.64,5.33-20.7,7.06-2.25.55-6.85-1.28-7.67-3.17-6.38-14.85-12.47-29.84-17.67-45.12-.92-2.74,2.66-7.07,4.51-10.47,0-.05.37.14.88.42a9.47,9.47,0,0,1,.91-1.14c3.39-3.59,7.76-5.65,12.44-7,3.2-.94,6.41-1.46,9.27-3.05a14.94,14.94,0,0,1,1-2.16c-1.38-.5-2.92-1.65-4.12-1.37-2.86.66-5.49,2.58-8.34,3-9.79,1.24-15.42,13.86-28.29,8.34-9.14-3.92-20-4.4-30.19-5.11-7.85-.54-15.83,1.08-23.77,1.44a9.86,9.86,0,0,1-6.22-1.65c-.7-.55.23-3.77,1.07-5.46,2.62-5.26,5.55-10.37,8.82-16.39-7.57,1-10.79,6.65-12.39,12.08-2.34,8-6.06,8.37-13,5.79-8.57-3.18-17.7-4.8-26.4-7.66-6.68-2.2-13-5.51-19.62-7.88-4.16-1.48-8.63-2.12-15.93-3.84,9.36-3.84,11.26-9.93,5.57-8.5a34.14,34.14,0,0,0-8.39,2.9c-4.58,2.59-8.42,3.72-12.17-1.41-3.25-4.42-6-8.41-.43-13,.61-.51.39-2,.55-3.06-1.64-.12-4-1-4.77-.21-1.88,1.91-4.74,5.18-4.14,6.77,1.93,5.18,5,10,8.09,14.68,1.71,2.61,4.26,4.67,6.18,6.71,7.59,1.79,15.94,3.37,24.05,5.76,13.23,3.92,26.21,8.67,39.46,12.49,9.74,2.81,12.29,8.56,7.46,18.17-4.22,8.39-8.17,16.91-12,25.49-.69,1.56-.1,3.68-.1,7.74,2.5-3.15,4.05-4.45,4.76-6.11,4.82-11.17,9.22-22.53,14.35-33.55,1-2.17,4.45-4,7-4.48,6.3-1.1,12.81-2,19.15-1.65,9.05.5,18,2.2,27.05,3.4,2.93.4,5.86.81,8.78,1.28,7.12,1.13,12.06,3.54,14.4,11.88,3.64,13,9.35,25.44,14.5,38,1.43,3.49,2.87,6.58-.49,8.22-18.05,2.21-36.33,1.55-54.45.81l-16.33-.67c-3.65-.16-3.65,5.53,0,5.68,19.43.8,39,2.06,58.39.95q8.43-.48,16.81-1.67a2.12,2.12,0,0,0,1.32-.77,34.82,34.82,0,0,0,11.32-.7c18.2-5.06,36.18-11,54-17.37,6.25-2.24,9.8-10.71,18.31-8.48,3.07.81,6.33,1.37,9,2.9,1.16.65,2.06,4.53,1.4,5.16-8.31,7.82-13.48,18.76-25.74,22.76-8.2,2.68-15.43,8.35-23.09,12.68l1.65,3.24a66.85,66.85,0,0,0,7.73-2.61c7.9-3.75,15.57-8,23.65-11.32,2-.8,5.15,1.35,7.77,2.14-1.05,1.79-1.75,4-3.24,5.28-3.09,2.68-6.86,4.58-9.87,7.33s-5.53,6.23-8.26,9.38l2.18,1.92c3.18-2.4,6.06-6.1,9.6-6.9,5.19-1.17,10.86-.32,16.3,0,.19,0,.78,4.46.22,4.71C406,308,400.47,320.54,402.6,336.11c.66,4.82,6.23,9,9.58,13.47C406.6,354.36,402.32,352.72,399.42,345.68Zm87.84,9.39c-4.06,2.45-8.24,4.7-12.36,7l-.9-1.83c-1.76,0-3.64-.4-5.27.06-18.88,5.31-25.09,2.51-38.37-13.72-2.27-2.77-6.29-8.86-13.93-6.19-5.77,2-11.75-13.22-7.33-20.13s9.19-13.9,18.39-15.18c1.56-.22,4.26,4.14,3.21,5.42-1.66,2-4.9,3.09-5.81,5.26-1,2.44-.2,5.65-.19,8.52,1.82-1,14.69-12.15,18.29-13.53,1.71-.65,19.78-1.89,21.17-1.91a4.4,4.4,0,0,1,3.08.59,7.67,7.67,0,0,1,4.05,4.44c.68,1.93,2.13,18.59,3.57,24.1.83,3.16,7.36,5.23,11.63,7C493.89,348.1,493.54,351.28,487.26,355.07Z" transform="translate(0 -122.23)"/><path d="M457.64,333.9l-4.29-2.44c-2,3.49-4.83,6.81-5.51,10.53-.28,1.55,5,6.05,6.12,5.55a19.88,19.88,0,0,0,7.92-7.53C462.4,339.17,459.16,336,457.64,333.9Z" transform="translate(0 -122.23)"/><path d="M302.48,351.76a22.87,22.87,0,0,1-3.6,1.24,2.22,2.22,0,0,1-1.42-.56c.13-.75.29-1.72.81-2.08C298.62,350.11,299.59,350.75,302.48,351.76Z" transform="translate(0 -122.23)"/><path d="M200.83,142.29c.59-1.41-.64-3.12-2-3.49a2.91,2.91,0,0,0-3.49,2c-3.13,7.56-30.71,29.32-33.85,31.93a2.85,2.85,0,0,0,0,4,2.9,2.9,0,0,0,4,0C168.42,174.32,197.4,150.58,200.83,142.29Z" transform="translate(0 -122.23)"/><path d="M255.52,146.78a2.91,2.91,0,0,0-4,0c-7.91,6.71-15.37,13.85-22.68,21.2-1.82,1.82-3.65,3.62-5.57,5.32a23.28,23.28,0,0,1-2.61,2.15,1.91,1.91,0,0,1-2.35.16,82.45,82.45,0,0,0-13.53-5.53,63.59,63.59,0,0,0-10.87-2,83.13,83.13,0,0,1,14.37-12.58,87.24,87.24,0,0,1,11.06-6.46c3.67-1.79,7.92-4,12.1-3.93a26.75,26.75,0,0,1,6.89,1.48,33.79,33.79,0,0,0,7.95,1.6c3.66.18,3.65-5.51,0-5.69-4.66-.23-9-2.53-13.63-3-4.94-.5-9.68,1.65-14.07,3.64a89.2,89.2,0,0,0-22.18,14.49,87.08,87.08,0,0,0-10.39,11c-1.47,1.84-.65,4.85,2,4.85a57.46,57.46,0,0,1,14.76,2,59,59,0,0,1,7.19,2.43c2.33,1,4.48,2.34,6.83,3.27,5.44,2.15,10.08-3.29,13.6-6.7,3.85-3.74,7.56-7.62,11.45-11.32q6.66-6.36,13.69-12.31A2.85,2.85,0,0,0,255.52,146.78Z" transform="translate(0 -122.23)"/></svg>