<?xml version="1.0" encoding="UTF-8" standalone="no"?>
<!-- Created with Inkscape (http://www.inkscape.org/) -->

<svg
   version="1.1"
   id="svg1048"
   width="800"
   height="800"
   viewBox="0 0 800 800"
   xmlns="http://www.w3.org/2000/svg"
   xmlns:svg="http://www.w3.org/2000/svg">
  <defs
     id="defs1052" />
  <g
     id="g1054">
    <path
       style="fill:#000000;stroke-width:1.20061"
       d="m 401.53766,635.37388 c -3.40864,0 -5.71383,-4.8438 -3.37005,-11.48678 0.99051,-2.80739 1.75223,-5.03225 1.75223,-5.30122 -116.91138,-0.65218 -206.45006,-1.10086 -332.404163,-1.00407 -0.434625,-11.22428 0.218445,4.52712 0,-6.45414 l 13.365964,0.0693 c 0,0 0.156767,-66.34558 0.60132,-354.70541 L 81.778648,64.693588 H 738.49275 l -7.5e-4,70.536022 c -4.1e-4,38.7948 -0.35982,160.86391 -0.79866,271.26466 l -0.79791,206.72865 11.80253,-0.0221 v 5.57565 l -331.6027,-0.61764 2.04211,5.89364 c 2.2343,6.44834 0.0278,11.32141 -3.23473,11.32141 -6.69833,0.20337 -7.61345,0.17697 -14.36498,0 z m 14.40675,-11.392 c -1.1965,-3.41482 -1.1662,-3.39413 -7.47311,-3.40445 -6.33457,-0.0104 -6.15638,-0.0104 -6.94423,3.42758 -2.00284,8.73983 -2.80459,8.54642 7.42024,8.57855 8.9905,0.006 9.03193,0.0646 6.9971,-8.60168 z M 733.63426,71.578776 87.486727,69.935793 85.662385,610.53377 c 205.705055,0 438.750635,3.16487 644.455685,3.16487 z"
       id="path1351" />
  </g>
</svg>
