<svg id="Ebene_1" data-name="Ebene 1" xmlns="http://www.w3.org/2000/svg" viewBox="0 0 281.72 500"><path d="M252.66,340.85c1.64-.56,2.83-.37,3.38,1.59.28,1,1.08,1.89,1.43,2.9.83,2.44,2,3,3.79.8,1.54,3.25,3,6.34,4.46,9.39,1.29,2.61,2.18,5.65,4.13,7.65,3.24,3.34,6.94,6.08,12.36,5.51a23,23,0,0,1,13.16,2c2.86,1.46,6.22,2,9.39,2.78a7.06,7.06,0,0,0,6-1.27c2.55-1.79,5-1.74,7.1.76-.07.17-.09.43-.2.47-3.9,1.44-4,1.5-.88,4.52,1.7,1.67,3.84,2.91,5.44,4.64,1.77,1.91,3.12,4.19,4.72,6.26,5.28,6.84,5.41,14.85,4.84,22.86-.14,2-2.12,3.78-3.07,5.75-2.15,4.48-1.31,5.74,3.25,5.92l-2.51,4.11c-4,1.24-5,3.54-3.3,8.38.47,1.37-.4,3.21-.71,4.82,0,.23-.51.41-.52.62,0,3.78,0,7.57,0,11.35l1.33.23c.88-2.54,1.79-5.07,2.6-7.63.3-1,.16-2.08.56-3s1.37-1.75,2.16-.23c.92,1.77,2.53,2.5,4.1,1.82,1.1-.48,2-2,2.46-3.24a44.59,44.59,0,0,0,1.49-6.07,23.62,23.62,0,0,1-2.67-.79,1.62,1.62,0,0,1-.94-1,1.36,1.36,0,0,1,.8-1.1c2.95-.43,2.95-1.66,2.08-4.32a14.05,14.05,0,0,1,.56-9.66,13.48,13.48,0,0,0-.09-8.67c-1.77-5-4.74-9.48-6.66-14.4a23.5,23.5,0,0,1-1.47-10c.16-2.62-.71-5.32-1.19-8a10.3,10.3,0,0,0-.84-2.85,24.16,24.16,0,0,0-2.16-3.19c-.81-1.06-1.5-2.46-2.6-3-2-1-3.29-2.93-6.51-2.14-2.82.69-6.4-1-9.45-2.17-2.69-1-5.11-2.73-7.66-4.09a6.51,6.51,0,0,0-1.83-.63c-2.15-.41-4.31-.75-6.47-1.16-.23,0-.61-.28-.61-.44-.19-3.47-3.73-3.83-5.79-6.24l4.61-2c1.19-.61,1.81-2.7,3.84-.39.75.87,1.87,2.56,3,.87.7-1.09.88-3.78.22-4.24-1.67-1.18-2.39-4.15-5.56-3.26-.75.21-2.13-1.84-3.12-2.76,1.41-5.33,4.28-.47,6.46-1.3.41-1.7.38-3.22-1.58-4.27a2.06,2.06,0,0,1-.48-1.88c1.67-1.67.3-2.8-.48-4.1s-1.41-2.59-2.18-4c3.48-1.39,3.92,1.37,5.41,2.87,3.65-1.74,5.72.43,8,3.12,2.75,3.2,6.29,5.72,9.15,8.84,2.28,2.49,4,5.45,6.17,8.36.4-2.36.54-4.45-1.1-6.61a53.75,53.75,0,0,0-12-11.65c-1-.68-1.48-2-2.52-3.53,3.82-.63,5.55,1.46,7.49,3.16,2.53,2.21,5.1,4.35,7.79,6.63.72-2.49-.93-5.61-3.17-7.28s-4.22-3.45-6.27-5.25a5.59,5.59,0,0,1-.9-1.5l.55-.75,5.39,2.91c2.11-1.12,3.09-2.31.47-4.2a11.93,11.93,0,0,1-3-3.4,5.56,5.56,0,0,1-.47-2.95c.06-1.7.34-3.39.56-5.42-2.77.59-3.16,2-3.24,3.66-.11,2.4-.14,4.81-.44,7.18-.09.67-1,1.23-1.5,1.85l-.68-.5c0-1.37.11-2.75,0-4.12-.6-6.46-.92-13-2.06-19.34-.66-3.7-2.73-7.14-4.09-10.73-.76-2-1.19-4.18-2.1-6.12-1.73-3.67-3.58-7.28-5.61-10.78-1.5-2.58-3.37-4.95-4.81-7.88,1.21.61,2.89.9,3.54,1.87a100,100,0,0,1,7,11.79c2.65,5.54,4.92,11.27,7.16,17,.94,2.4,1.21,5,2.07,7.48s2.1,4.81,3.19,7.2c0,.08.34.05,1,.13-.09-4.38-.21-9.07,6.41-8.68.83,3.41,3.83,5.43,6.77,8.11.47-5.52-.93-7.55-5.06-7.78.1-2.37-.85-3.84-3.18-3.29a39.46,39.46,0,0,0-2.88-3.74c-.31-.33-1.21-.14-1.84-.09a29.46,29.46,0,0,1-4.27.33c-.19,0-.13-1.92-.4-2.88-.94-3.31-1.59-6.78-3.06-9.85-2.75-5.71-5.86-11.26-9.12-16.7-1.47-2.44-3.76-4.38-5.51-6.67a20.13,20.13,0,0,1-1.82-3.69l6.54-1.71c-.81-.88-1.36-2-2.18-2.28-2.39-.71-3-2.63-3.13-4.55a10.21,10.21,0,0,0-4.41-7.76l.08.08,3.41-3.48-8.25-1.36-.36.8c-.51-1.52-1-3-1.56-4.54-.3-.75-.71-1.73-1.34-2a2.31,2.31,0,0,0-2.2.48,3.46,3.46,0,0,0,0,2.61c1.33,3.44,2.82,6.81,4.37,10.48l-3.26.85a12,12,0,0,1,.85,3.13c0,.8-.51,2.14-1.09,2.32-3,1-5-.14-6.23-3.17-2.18-5.26-4.21-10.55-4.68-16.35a48.17,48.17,0,0,0-1.93-8.81c-.89-3.19.9-5.32,3.1-8.26l2.34,4.07c1.13-3.89,3.52-4.14,6-3.73,2.18.37,4.29,1.19,6.57,1.56-2.43-2.63-4.33-5.27-3.62-8.93l.74.44,5.69-6.38c.92,3,.52,5.19-1.38,7.17a9.75,9.75,0,0,0-1.17,1.92c.54.27,1.15.86,1.6.76a3.56,3.56,0,0,0,2.17-1.25c1.14-2.07,2-4.29,3-6.42a14,14,0,0,1,1.19-1.73c3.24,2-.36,4.34.9,7.09.84-.83,1.53-1.46,2.15-2.16.82-.94,1.57-1.93,2.35-2.9l.85.46c.16.58.14,1.36.52,1.7a25.84,25.84,0,0,0,3,2.06c.4-.74.83-1.48,1.2-2.23a9.2,9.2,0,0,1,.88-1.9c.55-.67,1.63-1.75,1.94-1.59,1.16.59,1,1.5.27,2.67-.47.81-.09,2.13.55,3.67.49-.6,1.32-1.15,1.41-1.8.33-2.34,1.65-2.61,3.95-2-.32,1.15-.62,2.27-.93,3.39l.56.62,2-1.83c.51-.47,1-.93,1.56-1.39.43.59,1.18,1.15,1.23,1.77.13,1.84-.12,3.67,1.94,4.78.46.25.7,1.35.63,2-.3,2.59,1.36,3.45,3.38,3.86.61.12,1.36-.48,2.05-.75a7.29,7.29,0,0,0-1.43-1.89,10.05,10.05,0,0,0-2.52-.81l-.13-1a36,36,0,0,0,3.61-.92,34.52,34.52,0,0,0,3.36-1.62l-.32-.66L316,201.39c1.94-4.81,5.55-5.83,9.12-3,1.62,1.26,3.23.61,3.52-1.43.47-3.31-.4-4.92-4.87-6.07-3.91-1-6.11-3.39-8.54-6.34-2.15-2.61-5.63-4.09-8.47-6.16a37.17,37.17,0,0,1-5.15-4.18c-2.56-2.69-2.43-3.64-.13-6.56a19.19,19.19,0,0,0,1.54-2.78l-6.53-1.24L291,170.42c-1-2.49-2-5.09-2.95-7.68l.84-.67,3.15,1.92.58-.35-4.34-6.5-.75.36c-.09,1-.19,1.94-.28,2.89-2.07.06-5.16-2.52-5-4.65.43-4.54-3-6.17-5.71-8.39a20.08,20.08,0,0,0-2.28-1.39l-.52.6c1.44,1.64,2.78,3.38,4.35,4.89a4.51,4.51,0,0,1,.17,6.57c-2.39-5.52-6.05-9.72-11.63-11.89,2.55,4.14,5,8.21,6.42,12.78l-1,.62-9-12.69-1.11.68c.37.86.73,1.73,1.13,2.59a34.27,34.27,0,0,1,2.27,4.84c.23.78-.46,1.85-.74,2.78-.81-.69-2-1.23-2.37-2.11-1.62-3.46-3.4-7-6.72-8.83a6.59,6.59,0,0,0-6,.4c-1.18.95-1,3.72-1.21,5.7,0,.27.92.94,1.36.89s.82-.78,1-1.3c.46-1.15.69-2.4,1.24-3.5.33-.66,1.1-1.1,1.67-1.63.62.72,1.63,1.36,1.77,2.17a18,18,0,0,1-.18,4.13c.1.15.2.4.32.41,1.55.16,3.34.61,3.1,2.35s-.44,3.87-3,4.51a14.79,14.79,0,0,0-4.77,2.51c-2.73,1.94-5.87,1.69-8.52.83-3.34-1.07-5.73,0-8.17,1.71a37.81,37.81,0,0,0-5,4.13,2.47,2.47,0,0,0,.11,2.39,28,28,0,0,0,6.84,3.29c-2.15-3.37,0-5.68,1.73-7.27,1.4-1.26,3.92-1.28,6-1.84,2.11,5.73-3.53,6.69-5.23,9.82,4.21,1.76,8,.63,10.53-2.48a19.34,19.34,0,0,1,4.55-4.16c.79-.52,2.29-.22,3.32.13.28.09,0,1.72.05,2.64,0,.72-.15,1.62.21,2.11,1.47,2,1.59,3.57-.53,5.3-.79.63-1,2.13-1.2,3.28-.37,2.08-.21,4.29-.83,6.27-1.35,4.33-.81,8.54,0,12.82.47,2.49.08,5,2.65,7,1.21.95,1.35,3.78,1.27,5.73a38.79,38.79,0,0,0,3.15,16.32c1.74,4.27,3.57,8.64,7,12a17.6,17.6,0,0,1,1.75,2.44c-2.7,1.15-3.75.1-4.59-1.68a45.68,45.68,0,0,0-2.52-4.47c-.26-.43-.84-1.09-1.1-1-2.73.74-3.42-1.43-4.43-3.05s-2.09-3.19-4.47-3.89c-1.49-.44-2.56-3.06-3.37-4.9a77.19,77.19,0,0,1-3.39-9.46c-.47-1.62-.87-3.65-.29-5.1.76-1.92,0-3-.75-4.49a11.05,11.05,0,0,1-1.36-4c-.5-6-.8-12.07-1.22-18.11-.2-3-1.62-4.12-4.64-4.37-5.34-.44-9.74-2.57-12.42-7.47-.9-1.64-.06-6.36,1.39-7.73,3.86-3.66,7.93-6.84,13.71-5.36.93-4.37.69-4.73-3.06-5.16-2.51-.29-2.91-1.44-1.64-3.63-1.42-1.28-2.67-2.56-4.1-3.63a3.8,3.8,0,0,0-2.45-.7c-2.09.21-3.65.27-4.62-2.27-.57-1.49-2.37-2.57-3.72-3.7-5-4.11-6-9.81-6.72-15.72a13.73,13.73,0,0,0-1.65-3.82c-.18-.38-.69-.65-.78-1-1.19-5.06-5.2-7.56-9-10.51-4.27-3.34-8.72-6.59-11.74-11.29-1.91-3-4.08-5.83-5.86-8.89a19.45,19.45,0,0,1-1.48-4.82c-.89-3.3-2.09-6.58-2.54-9.94-.53-3.94.34-8.19-.79-11.88-.88-2.88-3.9-5.1-6-7.63-1.06-1.3-2.17-2.58-3.14-3.95-1.43-2.05-2.58-4.33-4.17-6.24s-3-3.45-1.3-6a2,2,0,0,0,.12-1.62c-2.59-5.77-1.06-11.79-1-17.7,0-2.21,4.13-6.24,6.27-6.23,0,3.2-.21,6.43.06,9.62.35,4.2.19,8.77,1.88,12.44a17.66,17.66,0,0,0,8.89,9.22,7.67,7.67,0,0,1,3.09,2.82c1.94,3,3.78,3.26,6.7,1.13,4.19-3,6-7.18,6.67-12.2.49-3.87,1.61-7.67,2.29-11.52.38-2.16.38-4.39.66-6.57.05-.4.61-.74.94-1.11.28.3.86.76.8.87-1.29,2.35,2.27,2.17,2.06,4.06-.19,1.72-.55,3.83.22,5.17,2,3.41,1.23,6.88.8,10.28-.47,3.82-.77,8-2.53,11.25-2.37,4.41-4.13,9.33-8,12.89a5.32,5.32,0,0,0-1.59,3.52c0,3.88.31,7.76.64,11.64a6.86,6.86,0,0,0,1.11,2.44A28.22,28.22,0,0,0,199.25,85a19.63,19.63,0,0,0,3.53,2.73c.38,2.72-.85,4.09-2.91,3a7.37,7.37,0,0,1-3.31-2.9c-1.83-4-5.39-7.55-4.34-12.61.11-.49-.29-1.08-.29-1.62,0-3-.91-6.41.31-8.74,1.59-3,2-7.12,5.87-8.78.58-.25.74-1.49,1.24-2.6-2.45.07-4.38-1.71-6.4.88-.72.91-4.21,1.06-5.09.2-3.44-3.38-7.39-5.87-11.34-8.51-2.1-1.4-3.22-4.23-4.87-6.35-.36-.47-1.08-.66-1.93-1.15a6.91,6.91,0,0,0-.09,2.1,45.82,45.82,0,0,0,2.62,6.43c1.57,2.83,2.76,5.86,5.81,7.81,4.1,2.61,5.71,7.15,6.74,11.6s1,9.36,2.06,13.92A65.57,65.57,0,0,0,191,92.92c1.65,3.67,3.71,7.17,7.51,9.41,2.73,1.62,5,4.06,7.49,6,2.35,1.85,5.25,3.22,7,5.49,1.59,2,2.26,4.71,5.13,5.54a.8.8,0,0,1,.39.65c-.18,2.32,1.78,2.35,3.16,3a24.64,24.64,0,0,1,2.49,1.62l-.17.78a24.1,24.1,0,0,0-2.42.71c-.86.36-1.66.85-2.48,1.28.55.76.93,1.82,1.67,2.19a10,10,0,0,0,3.15.44l2.91.39.07,1.21-6.19,1.77.22.65H232.7c-.9-1.4-1.37-2.18-1.89-2.92a15.91,15.91,0,0,1-2-2.75c-1-2.52-1.7-5.15-2.68-7.68a28.09,28.09,0,0,0-1.91-3.36c-.37-.68-1.1-1.57-.9-2.06a3,3,0,0,1,2-1.6,14.93,14.93,0,0,0,9.32-5.36c.42-.55,1.21-.82,1.61-1.37,1.05-1.43,2-3,2.94-4.44l-.85-.8c-1.14.58-2.29,1.14-3.41,1.73-2.27,1.2-4.5,2.44-6.78,3.6a18.53,18.53,0,0,1-3.62,1.55c-1.66.45-3.54,1.18-5,.75-1.34-.38-2.23-2.21-3.43-3.28-.61-.55-1.91-1.36-2.16-1.15-3.37,2.81-5.17-.36-7.17-1.93s-1.62-3.13.83-4.11c.85-.34,2-1.5,1.95-2.19-.27-3,1.33-5,2.77-7.22,2.14-3.31,6.44-4.44,8.83-2.29,3.72-5.09,8.86-9.55,7.29-17.67a29.18,29.18,0,0,1-2.8,4,20.89,20.89,0,0,1-5,4c-3.36,1.66-7,2.8-10.46,4.25-.68.29-1.62.92-1.72,1.5-.53,3.35-2.52,4.58-5.7,4.37,1-2.23,1.74-4.65,3.13-6.62a9.4,9.4,0,0,1,4.29-3c3.2-1.21,6.55-2,9.83-3a3.07,3.07,0,0,0,1.37-.65c4.2-4.79,5.48-8.59,4.94-14.43a7.68,7.68,0,0,1,5.36,9.32,10.4,10.4,0,0,0,.06,5.2c.63,2,.1,3-1,4.58a65.65,65.65,0,0,0-5.33,8.67c-1,1.89-5.67,5.09-7.8,4.43-2.83-.88-4.21,1.34-4.75,2.78-.9,2.36-.62,5.16-.9,8.56,3.58-2.58,5.86-1.93,7.75,1,.69,1.06,1.56,1.53,3.16.62,1.9-1.08,4.33-1.19,6.42-2,4.84-1.89,7.16-5.54,7.32-10.73,0-1,1-1.89,1.47-2.85.35-.69.61-1.42,1-2.1s.74-1.61,1.08-1.59A2.6,2.6,0,0,1,242,87c2.61,4.47,3.31,9.17,1.29,14.07-.86,2.09-1.75,4.18-2.73,6.21s-1.77,3.79-4.35,4.43c-1.44.35-2.51,2.1-3.79,3.17a1.91,1.91,0,0,1-1.19.54c-2.52-.21-3.06,1.34-2.35,3.14,1.39,3.57,3.07,7,4.8,10.45a2.5,2.5,0,0,0,2.13.92c2.32-.44,4.92.8,7-2,.84-1.14,3.84-1,5.83-.89,3.05.17,5-1.21,6.68-3.46,2-2.59,4.06-5.08,6.2-7.52s3.22-2.3,4.83.56a2.93,2.93,0,0,0,2,1.49c4.18-.21,6.54,2.58,9,5.15,2.18,2.24,8.76,2.28,10.59-.14a2.68,2.68,0,0,0-.41-2.56c-2-1.88-4.34-3.42-6.36-5.3a9,9,0,0,1-1.84-3.18,11.24,11.24,0,0,0-8.15-7c-4.12-.74-5.63-3.79-7.74-6.32-2.57-3.08-2.1-6.89-1.45-10.55.39-2.15,2-2.8,3.7-1.37a19.83,19.83,0,0,1,3.21,3.79c2.42,3.52,4.78,6.73,9.79,6.9,3.07.1,5.32,2,6.45,5.36.82,2.39,2.62,4.46,4.12,6.58a1.86,1.86,0,0,0,1.78.12c.76-1,1.81-2.17,1.77-3.25-.21-5.49,2.69-9.89,4.82-15.41-2-1.08-4.26-2.42-6.63-3.53a30.41,30.41,0,0,1-11.62-10.34c-1.95-2.74-4.38-4.41-6.94-6.23a35.14,35.14,0,0,1-5.6-4.7c-.51-.55.08-2.13.58-3.38,3.91,5,9.68,5.11,14.73,7,3.4,1.28,6.23,4.2,9.17,6.57,1.79,1.44,6.11,2.48,8,1.41a2.85,2.85,0,0,0,1.34-1.83,26.26,26.26,0,0,0-5-18.71c-1.18-1.6-3.33-2.49-5.09-3.64-1.21-.8-2.56-1.41-3.76-2.24-4.45-3.1-6.8-7.65-9.07-12.42-2.09-4.4-2-9.32-4-13.65-1.33-2.92-3-5.69-4.53-8.52-.25-.48-.51-1-.82-1.53,2.24-1,4.18-.93,6,.62s4.1,3,5.95,4.78a4.25,4.25,0,0,1,1.41,4.71c-.38,1.2-.3,2.78,1.86,3,.57.06,1.51,1.62,1.38,2.33-.66,3.53,2,5.37,3.7,7.6,2.11,2.78,8.24,4.88,11.5,4.25.25-1.05.51-2.14.84-3.49l4.07,2.23a19,19,0,0,0-1-2.48c-1-1.62-1.85-3.12.75-4.11a1.88,1.88,0,0,0,1-1.24c.53-4,2.28-7.84.81-12.22-1.24-3.69-1.49-7.78-1.67-11.72-.08-1.73,1.15-3.51,1.69-5.3a7.44,7.44,0,0,0,0-2L310.22,0a21.34,21.34,0,0,1,1.2,2.55A72.63,72.63,0,0,1,314,11a63.88,63.88,0,0,1,1.22,10.4c.18,6.1.07,12.21,0,18.31a4.85,4.85,0,0,1-.94,2.55c-2.49,3.54-2.69,7.18-1.51,11.34A77.77,77.77,0,0,1,315.26,86a34.52,34.52,0,0,1-5.67,14.81c-1.82,2.64-2.59,6.17-3.21,9.42-1.16,6-1.73,12.12-2.84,18.13a10.75,10.75,0,0,1-2.62,4.64,8.88,8.88,0,0,0-2.48,7.1c.3.06.67.25,1,.17a17.15,17.15,0,0,1,14.12,2.16c2.42,1.5,3.33,5.43,1.22,7.51-2.78,2.73-5.37,5.69-10,5.82-2.19.07-4.33,1.84-6.5,2.83l.12.82a27.75,27.75,0,0,1,4.19.32c1.18.26,2.87.61,3.31,1.46,1.62,3.1,4.32,6.67,3.84,9.61-1.06,6.49,4.11,7.27,7.16,10.14,1.13,1.06,1.75,2.64,2.8,3.79a11.19,11.19,0,0,0,3.2,2.54c2.48,1.24,5.13,2.14,7.61,3.37.52.27.82,1.33.91,2.07.33,2.54.53,5.1.8,7.88a4.09,4.09,0,0,1-1.15.59c-3.78.92-3.4.84-2.79,4.55.36,2.19,0,5.21-1.38,6.76a6.42,6.42,0,0,1-6.6,2.05,19.25,19.25,0,0,1-10.18-6.69,4.47,4.47,0,0,0-3-1.43c-2.79,0-5.68,1.08-8.33.6-3.39-.61-5.79,1.28-8.62,2.09-.4.11-1,.47-1,.76-.22,2.2-.39,4.42-.44,6.64s1.5,3.45,3.12,5c3,2.81,5.88,5.6,7.06,10.2s4.17,9,7.12,12.84,7,6.51,10,10.16c2.59,3.15,4.2,7.09,6.59,10.43s2.82,7.22,3,11.16a1.09,1.09,0,0,0,.1.54c3.36,5.91,4.15,12.7,6.5,18.95.44,1.17.08,2.67,0,4-.24,3.14-.42,6.3-.84,9.42s1.75,4.92,3.38,7l.77-.17q-.72-3.39-1.43-6.79l1.09-.52c1.08,1.34,2.17,2.67,3.24,4a9.74,9.74,0,0,0,1.22,1.69c1.26,1,1.76,1.94.76,3.49-.33.51.16,1.5.12,2.26-.18,4.56,2.45,8.72,1,13.64s-5.29,7.29-8.3,10.62c-.59.65-1.17,1.31-2.24,2.52,1.28,0,1.84.18,2.09,0,4.38-3.61,8.32-.63,12,1.18,3.3,1.64,6,3,10.08,2.1,3.58-.74,7.66.93,11.52,1.56.22,0,.36.48.58.53,5.89,1.23,7.21,6.09,8.88,10.83,2.18,6.22,2.93,13,7,18.52A32.29,32.29,0,0,1,389.17,395c.55,3.1,1.64,6.28.72,9.83-.7,2.69.54,5.87.85,8.83.12,1.12.09,2.25.11,3.37.16,6-3,11.34-3.58,17.22-.15,1.64-1,3.2-1.25,4.84a11.61,11.61,0,0,0,.05,4.95c1.74,5.28-.55,9.57-3.16,14.67l-4.52-9L375,454.82a39.81,39.81,0,0,1-1.6-5.11c-1.3-8.21-2.27-16.45-1.76-24.8,0-.09,0-.18,0-.28.49-3.66.95-4.06,5.25-4.34v-5.66c-.15,0-.37-.18-.5-.12-3.88,1.71-5.23,1-4.68-3.25.64-5-.53-10.13,2-15,.83-1.57,0-4.29-.62-6.28a47.54,47.54,0,0,0-3.39-7c-1.37-2.65-2.8-5.28-4.19-7.92-1.08-2.06-2.54-3.35-5.18-2.41l-1-2.35c-4.53,2.39-8.1.21-11.59-2.32-.21-.16-.4-.6-.53-.57-4.28.86-7.47-4.11-12-2.18-1.07.45-2.57-.24-3.85-.14a10.56,10.56,0,0,0-2.76,1.18c3.26,1.65,3.16,4.26,3.48,6.81.39,3.16,1.14,6.27,1.7,9.4.14.81.52,1.92.15,2.41-1.75,2.3,0,4.29.67,6.08,2,5,4.72,9.65,6.55,14.67a21.89,21.89,0,0,1,.15,16.05c-1.11,2.89-.31,6.52-.35,9.81-.07,4.7.1,9.41-.23,14.09-.37,5.24-1.14,10.46-1.81,15.69-.57,4.43-1.22,8.86-1.9,13.69-.87-.53-1.52-.69-1.67-1.06-1.17-2.78-3.69-4.9-3.78-8.27,0-1.12-1.17-2.21-1.81-3.35-.56.37-.75.44-.84.57-.91,1.42-1.6,3.58-3.75,2.72a5,5,0,0,1-3.29-5.07c.26-5.92.61-11.84.86-17.76.08-1.94-.07-3.89-.1-5.83,0-3.21-.08-6.22,1.57-9.36,1.23-2.33,1-5.57.95-8.4-.06-2.31-.31-4.22,2.11-5.69,1-.62,1.59-2.38,1.8-3.71a16.16,16.16,0,0,0,0-5.55,25.4,25.4,0,0,0-1.93-4.94c-.17-.39-.72-.78-.65-1.08.74-3.61-1.51-6.13-3.11-8.89-1.25-2.15-2.25-4.24-5.08-5.21-2.34-.8-4.13-3.11-6.37-4.41a47.57,47.57,0,0,0-7.26-3.31,64.79,64.79,0,0,0-6.9-2,18,18,0,0,0-4.1-.69c-3.34,0-6.55-.88-10-.32-4.4.71-8.31-1.48-11.63-4.51-2.56-2.33-5.19-4.6-7.92-6.72a2.51,2.51,0,0,0-2.27.61c-.77,2.64-2.39,2-3.85,1-1.95-1.22-3.5-1.87-6.12-1.07-2.45.74-5.57-.06-8.22-.82-3-.87-5.79-2.47-8.7-3.68a4.4,4.4,0,0,0-1.92-.16,9.07,9.07,0,0,1-7.8-3.43c-.93-1.06-2.63-1.45-3.59-1.95.11,3.63,1.09,7.49.14,10.79a73.77,73.77,0,0,0-3,17.38,2.18,2.18,0,0,1-1.27,1.46c-1.51.56-3.1.89-5,1.41.14.2,0-.17-.27-.34-.83-.51-1.75-1.36-2.55-1.27-.59.07-1.35,1.34-1.49,2.17-.28,1.57,0,2.84-2.2,3.78-1.54.66-2.37,3.14-4.7,3.47-.35.05-.49,1.26-.81,1.88s-.67,1.56-1.16,1.68c-3.74.88-4.8,3.44-5.87,6.91-1.85,6,1.13,10.35,3.51,15.13,1.67,3.36,2.94,6.92,4.45,10.36a12.69,12.69,0,0,0,1.9,3.35q3.09,3.43,6.5,6.58a37.8,37.8,0,0,0,6.19,5c1.88,1.12,3.42,2.13,3.28,4.8,6-.4,7.78,4.76,10.8,8.13s5.45,7.35,8.21,11c.41.55,1.29.73,1.78,1.25,1,1.11,1.93,2.33,3.12,3.8-1.29.39-2,.59-2.65.81-1.85.57-3.66.42-4.56,3.23s-7.6,4.34-10.93,3.28c-1.05-.33-2.14-.5-3.21-.75l.11-.91c1.1,0,2.2,0,3.3,0s2.19.14,4.33.27a25.13,25.13,0,0,0-2.08-3c-1.89-1.92-3.85-3.78-5.82-5.61a3.32,3.32,0,0,0-1.71-1c-.41,0-.93.61-1.32,1a22.88,22.88,0,0,0-1.47,1.94,7.17,7.17,0,0,0-6.68-7.53,18.64,18.64,0,0,1-3.51-.81c2-1.29,3.48-1.95,4.52-3,.59-.63.42-2,.59-3l-.8-.57-4.44,3.35c-.65-.5-1.66-1.32-2.72-2.07a18.22,18.22,0,0,1-8-13.64c-.41-3.48-1.3-7.31-4.24-10a2.61,2.61,0,0,0-.9-.54,4.55,4.55,0,0,0-1.31.11l3.63,6.67c-.1.07-.94,1.18-1.62,1.09-1.84-.23-4.22.82-5-.85l1.93-6.35c-1.64-1.13-4.36-.75-3.22-3.69l3.07-.19c.42-1.48.25-2.45-1.57-2.69a52.44,52.44,0,0,1-6.23-1.12,3.48,3.48,0,0,1-1.45-1.64c2.61-3,.43-4.76-1.54-6.62-.11-.1-.07-.35-.1-.52.88-.67,2.35-1.23,2.46-2a3.45,3.45,0,0,0-1.42-3c-3.42-1.64-3.88-5.19-5.5-8-2.79,3-3.15,6.88-1.57,10.59.95,2.24.7,5.1,2,7.06,2.79,4.37,3,9.6,5.44,14,.92,1.7,2.48,3.06,3.7,4.6a18.77,18.77,0,0,0,7.45,6c1.16.49,1.62,2.72,2.31,4.2s1.15,2.76,1.82,4.41c-2.06,4.07-.69,6.68,4.65,8.31a14.46,14.46,0,0,1,4.48,1.92,12.18,12.18,0,0,0,7.27,2.72c1,0,2,.82,3.77,1.63l-5.16,1.2c1.43,2.09,2.71,3.91,3.94,5.77,1.91,2.89,3.88,5.75,5.62,8.75a22.75,22.75,0,0,1,1.88,4.87c1.26,4.14-1.79,6.46-4.13,8.93a4.1,4.1,0,0,1-3.31.76,39.62,39.62,0,0,1-9.05-2.64c-2.09-1-3.59-3.22-5.42-4.81s-3.73-3.07-5.57-4.63a2.33,2.33,0,0,1-.75-1.06,29.84,29.84,0,0,1-1.39-5.8c-.08-1.16.81-2.39,1.27-3.59l1,0a20.17,20.17,0,0,1,1.29,3.44c.58,3.06,1.27,5.92,4.19,7.8,2.58,1.67,4.95,3.67,7.42,5.52l1-.72c-.69-1.75-1.45-3.48-2.06-5.26-1.05-3.06-2.05-6.15-3-9.25-.1-.36.39-1.27.63-1.28a17.51,17.51,0,0,1,2.95.36c2.38-4.08.31-8.53-4.87-10.24a50.3,50.3,0,0,1-8.29-3.68c-2.7-1.49-3.29-3.85-2.16-6.76.6-1.55-.77-6.24-2.63-7.25-4.52-2.46-7.07-6.65-9.74-10.67a35,35,0,0,1-3.36-7.39c-2.22-6.1-4.57-12.18-6.33-18.42a16.27,16.27,0,0,1,1.25-11.73,2.66,2.66,0,0,1,1.89-1.17,17.09,17.09,0,0,1,3.17.15c2.16,3.31,3.94,6.21,5.92,9,1.48,2.07,3.19,4,4.83,5.93.39.46,1,.72,1.38,1.2a30.49,30.49,0,0,1,3,4.77c1.17,2.62,1.52,5.73,3.11,8,2.87,4.15,5.4,8.21,5.89,13.44.4,4.24,2.74,7.77,5.9,10.59.57.51,1.89.39,2.81.24a18,18,0,0,0,3.65-1.07,7.66,7.66,0,0,0,3-1.5c3.09-3.46,2.38-6.95-2.66-9.27-2.89-1.33-4.88-3.25-7.19-5.16-5.25-4.35-7.47-10.22-9.6-16.29-1.35-3.88-3.4-7.57-4.28-11.53-.63-2.84-2.34-5.56-1.15-8.95.59-1.67-.71-4.15-1.5-6.13a27.84,27.84,0,0,0-2.7-4.57c-.33-.51-.8-1.25-1.26-1.29a9.76,9.76,0,0,0-2.67.48,8.19,8.19,0,0,0,.75,2.38c1,1.49,2.43,2.74,3.38,4.28.84,1.36,1,3.18,2,4.43,1.81,2.39.44,3.77-1.26,5.59-2.08-4.89-4.05-9.54-6-14.18l-.95.14a23.39,23.39,0,0,1-1.52,3.33,10.34,10.34,0,0,1-2.61,3c-.64.44-1.82.1-2.75.11.18-1.05,0-2.69.59-3.05,2.79-1.68,2.21-3.62.94-5.81-.12-.21,0-.54,0-1.15l3.45-.55c.13-1.25.27-2.58.46-4.34.77.58,1.12,1,1.55,1.12,1.26.25,2.55.35,3.83.51.1-1,.17-2.07.3-3.1.23-1.86-2.19-3.73.51-6l2.61,5.36c.56-.82,1.52-1.58,1.43-2.19-.29-2-1-4-1.48-6-.35-1.5-.59-3-.89-4.52l1.14-.44a20.73,20.73,0,0,0,2,2.87,18.17,18.17,0,0,0,2.57,1.9c.16-1.16.78-2.51.4-3.44-.92-2.22-2.35-4.23-3.48-6.37-.22-.42,0-1.06,0-1.87,4,.13,3.66,4.61,6.28,5.79,2.42-4.93-2.07-8.72-2.43-13.2l.88-.58a21.18,21.18,0,0,1,2.51,3.05c1.37,2.44,2.54,5,3.79,7.51l.91-.19a8,8,0,0,0,.57-2.21c-.18-3.84-1.2-7.32-4.37-9.88a6.42,6.42,0,0,1-1.82-2.29,20.67,20.67,0,0,1-.86-3.55h3.29L193.53,338h5a40.73,40.73,0,0,1,.06-4.86,8.28,8.28,0,0,1,1.13-2.42,19.34,19.34,0,0,1,2,2,7.19,7.19,0,0,1,.54,2.12l7.63-4.89c1.43,1.18,2,3.52,2.07,5.95.13,3.58.62,6.95,3.73,9.25l.9-.26c-.8-2.47-1.56-4.95-2.42-7.39-.5-1.41-1.43-2.72-1.7-4.16s.55-2.49,2.26-2.11c2.18,4,4.16,7.78,4.44,12.51.1,1.74,3.11,3.31,5.05,4.7-1.21-6.83-6.57-12.36-4.93-20.21,3,2.17,2.67,5.4,3.71,7.94,1.6,3.88,3,7.82,4.54,11.73l1.23-.41c-1.06-4.49-2.75-9-3-13.49A30.66,30.66,0,0,0,222.29,322c-.56-1.14-.24-2.71-.32-4.07,2.09-1.13,2.74.43,3.17,1.58,1.33,3.45,2.46,7,3.62,10.49a4.23,4.23,0,0,1,.12,1.63c-.11,1.61-.72,3.33-.35,4.81,1.16,4.64,2.62,9.21,4.12,13.76.28.86,1.23,1.52,1.91,2.23,1.47,1.54,2.9,3.14,4.49,4.55.43.39,1.37.2,2.08.28l.38-.71c-1.26-1.58-2.51-3.16-3.78-4.74-.28-.34-.77-.6-.88-1-1.67-5.59-3.28-11.19-5-17,2-.3,2.57-.09,3,1.69,1.17,4.43,2.82,8.74,4.32,13.08a3.23,3.23,0,0,0,.84,1.06c.29.29.65.53,1.07.87-.73-4.21-1.47-8.23-2.06-12.27-.09-.65.53-1.41.82-2.12.57.56,1.46,1,1.66,1.69.7,2.38.86,5,1.79,7.23a33.22,33.22,0,0,0,4.32,6.95c-2.14-5-2.63-10.25-3.41-15.42l1.25-.66c1.69,3.94,5.18,6.16,8,9.05-.26-1.35-.54-2.78-.82-4.22ZM210,342.62c-.35,1.32-.71,2.63-1.07,3.95l3.06.48.52-.71L210,342.63l-2.2-7.22c-2.62,1.38-2.08,3.34-1.52,4.81S207.56,343.77,210,342.62Zm156.28,28.1c.13-.4.19-.57.24-.75a29.24,29.24,0,0,1,.87-2.94,3,3,0,0,1,1.4.24,32,32,0,0,1,0,3.53.82.82,0,0,1-.22.49c-1.42,1.4-.67,2.28.73,2.91s2.42,1.45,2.29,3.27a4.08,4.08,0,0,0,.79,2.32c4.17,6.29,4.53,13.18,3.42,20.38-.52,3.35-2.87,6.6-1.24,9.43,2.21.43,4.1.33,5.31,1.2.84.6,1,2.52,1,3.85a22,22,0,0,1-.89,4.53c-.44,1.92-.93,3.84-1.39,5.77l-4.21-1.28c.36,7.91.69,15.31,1,22.71l1,.3a43.12,43.12,0,0,0,2.29-4c1.14-2.56,1.59-5.65,3.32-7.65s1.52-3.84,2-5.92c.45-1.92.47-4.66,3.37-5.28a1,1,0,0,0,.64-.76c-.08-3.86-.15-7.72-.38-11.57-.11-1.86-1.14-3.87-.68-5.51.81-2.85,1.29-5.32-.05-8.22-1.94-4.22-3-8.9-5.13-13-2.34-4.41-4-9.07-5.89-13.62-1-2.3-2-4.58-3-6.87a9.65,9.65,0,0,0-.77-1.66c-1.58-2.37-2.76-5.27-4.9-6.95-5.37-4.22-11.68-2.76-17.74-1.72-.62.11-1.37,1.31-1.48,2.09a44.64,44.64,0,0,0-.43,6.93c0,.5.92,1.22,1.54,1.39.31.09,1.12-.75,1.31-1.31a15.4,15.4,0,0,0,.18-2.48c.46-3.2,1.51-4.3,4.16-3.77-.46,2.7-1,5.42-1.34,8.16a6.59,6.59,0,0,0,.67,2.36c.58-.29,1.53-.46,1.67-.89.59-1.81.82-3.73,1.41-5.55a16.93,16.93,0,0,1,1.65-3l1.29.45c-.21,2.26-.41,4.51-.64,7.14l2.32.19c.28-1.78.51-3.18.75-4.73,2.49,1.59,3,3.87,1.73,6.59C363.23,369.71,363.83,370.68,366.29,370.72Zm-100-245.55a21.35,21.35,0,0,1-.83,2.31c-1.76,3.11-2.57,6.94-6.14,8.69-3.34,1.64-6.75,3.17-10.23,4.48-1,.38-2.38-.13-3.58-.24a24.7,24.7,0,0,1,1-3.76,3.11,3.11,0,0,1,1.69-1.25c2.63-1,5.25-2.11,8-2.89a9.73,9.73,0,0,0,6.63-11.86c-2.55,2.86-5.06,5.75-7.69,8.53a2.79,2.79,0,0,1-2.1.73,13.82,13.82,0,0,0-11,3.17c-1.26,1-3.2,1.48-2.65,3.83.07.28-1,1.23-1.46,1.17-1.53-.2-3-.75-4.54-1.1a4.41,4.41,0,0,0-2.08-.19,12.38,12.38,0,0,0-2.73,1.35,15.14,15.14,0,0,0-1.55,1.25,9,9,0,0,0,1.46,1.6c2.78,1.86,4.89-.55,7.55-1.42.35,1.16.67,2.22,1,3.26l3.76-1.17-1,4.11c3-3,6.43-2.88,9.93-2.54.55.06,1.28.16,1.64-.12,2.35-1.8,4.2-.28,6.32.59a5.3,5.3,0,0,0,3.93-.22c3.64-1.85,7.13-3.63,11.3-1.51,1.17.59,2.23.48,3.24-1s2.86-2.56,4.31-3.83c.56-.49,1.48-1.11,1.44-1.6s-.88-1.3-1.53-1.57C275.38,131.9,269.78,130.94,266.33,125.17Zm13.06-94.65c-.83,4.92,1.82,8,3.38,11.28a11.89,11.89,0,0,0,3,4.47c2.46,1.87,5.35,3.16,8,4.85,1.59,1,3.47,2.06,4.38,3.59,2.36,4,4.26,8.21,6.41,12.48h4.54c-.64-1.68-1.13-3-1.63-4.25-1.37-3.49-2.19-7.23-5.07-10-1.29-1.23-2.88-2.51-3.45-4.08-1.43-4-5.25-4.48-8.21-5.68a12.37,12.37,0,0,1-5.95-4.68C283.12,36.12,281.51,33.68,279.39,30.52ZM266,93.31c-.38,2.79,1.76,6.55,4.08,7.53,5.05,2.13,9.63,4.48,12.14,10,1.2,2.64,4.09,6,6.51,6.26,4.08.44,6.32,2.6,8.8,5,.51.5,1.08.94,2,1.76a8.7,8.7,0,0,0-.45-2.44,59.48,59.48,0,0,1-3.68-5.52c-.68-1.39-1.49-1.54-2.84-1.93-3.26-1-6.68-1.66-8.15-5.76-1.39-3.85-3.73-7.34-8.58-7.82a9.42,9.42,0,0,1-7.52-5.24C267.87,94.44,266.86,94,266,93.31Zm48.21,259.23h1.21c.51-1.19,1.5-2.41,1.4-3.55a7.66,7.66,0,0,0-1.8-4c-3.78-4.48-7.62-8.92-11.65-13.19-1.69-1.79-3.89-3.11-6-4.74-1.31,5.24,8.62,17,14.45,17.44,0,1.45-.31,3,.09,4.35S313.37,351.33,314.16,352.54ZM290,80.88c2.88,3.21,5.21,5.75,9.15,6.13a5.7,5.7,0,0,1,2.67,1.37,13.73,13.73,0,0,1,1.83,2.29L305,87.74c.11-.24.26-.47.77-1.42L310.3,91c-.13-5.37-1.93-9.24-5.61-12.34C300.62,82.36,295.87,82.8,290,80.88ZM315.76,306.8c-1.74,3.35.33,8.36,3.12,10.85,5.1,4.55,11.31,8.21,13.25,15.5.15.54,1,1.05,1.66,1.25a1.5,1.5,0,0,0,1.29-.74,3.22,3.22,0,0,0-.59-1.65,37.71,37.71,0,0,0-2.17-3.88c-1.93-2.79-3.88-5.58-6-8.26C323,315.58,319.48,311.38,315.76,306.8ZM293.55,135.54c1.11-5.32-2.43-9-7-8.18a38.44,38.44,0,0,1-6.83.72c-3.47,0-5.05-3-7.19-5.1a13.48,13.48,0,0,0-2.49-1.82c-.12-.07-1,.7-1,.93a6.69,6.69,0,0,0,1.14,2.78c2.4,2.75,5.71,3.93,9,5.24,4.65,1.83,5.83,1.89,9-1.56ZM211.43,494.07c1.09-1.43,2.08-2.74,3.21-4.25a10.37,10.37,0,0,1-1.58-.75c-1.45-1-2-2.59-.58-3.64,2.68-2,.44-3.45-.52-4.65-.5-.63-2.36-.68-3.36-.31-1.93.72-2.41,4.45-1.08,6.79S210.06,491.68,211.43,494.07Zm106.82-173c-.37,3-.56,5.1,2.12,6.54,1.73.93,4.14,2.46,4.35,4,.51,3.72,3.74,5.41,5.31,8.45.45-.95.83-2.2.38-2.69-1.92-2.12-.57-6.63-5-6.92-.16,0-.37-.81-.37-1.25C325,324.82,321.35,323.57,318.25,321.07ZM295.5,245.48c2.35,5.84,9.06,9.81,15.31,8.34C307.47,248,300.67,248.6,295.5,245.48Zm22.22,43.23a14.76,14.76,0,0,0-.81-2.29,27.53,27.53,0,0,0-3-4.69,18.87,18.87,0,0,0-3.65-2.55c-.76-.52-1.48-1.09-2.55-1.87C308.55,283,309.84,286.81,317.72,288.71ZM251.6,196l-.69-.1c-.25,2.68-.67,5.37-.71,8,0,2.41.65,4.85.46,7.23s1.75,7.67,3.46,8.72C253.31,212.12,252.45,204,251.6,196Zm83.71,261h.22c0-1.84.05-3.68,0-5.52a1.53,1.53,0,0,0-.8-1.18,1.61,1.61,0,0,0-1.36.59,9.54,9.54,0,0,0-.19,11.45c.28.44.92.66,1.39,1,.26-.45.72-.88.75-1.34C335.37,460.24,335.31,458.58,335.31,456.92ZM316.15,274.77c-1.4,5,1.19,9.36,5.55,9.27C323.2,280.44,319.58,276.57,316.15,274.77Zm10.18,38.68c.38-3.55-7.39-11.53-10.94-11.37,2.48,3.17,4.86,6.22,7.27,9.26a8,8,0,0,0,1.68,1.75A5.66,5.66,0,0,0,326.33,313.45Zm-11.06-49c-2.77-2.36-5.52-4.73-8.32-7.06a5.51,5.51,0,0,0-2.09-1.18,2.4,2.4,0,0,0-2,.27,2,2,0,0,0,.05,2,22.88,22.88,0,0,0,3.72,2.34c.46.25,1.41.1,1.55.39C309.51,264.13,312.57,263.8,315.27,264.41ZM330,361.93c.49-.28,1.71-.56,2-1.21a76.65,76.65,0,0,0,3.07-9.22c.5-2-.6-3.1-2.61-3ZM202.67,380c-1.32-2.25-2.59-4.34-3.8-6.47s-2.59-.38-3.12.33a5.37,5.37,0,0,0-.27,3.18c2.32.38,3.44,2.13,4.78,3.71.27.32,1.09.35,1.6.25C202.17,381,202.39,380.39,202.67,380Zm1.89-3.72c2.42-1.29,2.72-2.53,1.29-4.21-.94-1.09-1.61-2.42-2.6-3.45a7.08,7.08,0,0,0-2.28-1.08c-.27.9-1.06,2.09-.74,2.63C201.51,372.36,203.13,374.33,204.56,376.3Zm18.15,77.81c-.89,1.94-1.35,3.78-2.44,5.13-1.73,2.15-1.71,2.77,1,3.86a14.41,14.41,0,0,0,2.15-2.44c.54-1,.52-2.3,1-3.32C225.81,454.65,225.6,454.23,222.71,454.11Zm68.84-202.9a6.25,6.25,0,0,0,0,1.84c.44,1.37,5,4.32,6.41,4.09.56-.09,1-.7,1.53-1.07-1.16-1.31-1-3.72-3.5-3.95A39.91,39.91,0,0,1,291.55,251.21ZM190.3,383.14c1.58,2.45,2.91,4.54,4.24,6.62a6,6,0,0,0,1.29,1.78c.28.19,1.48-.28,1.54-.6a4,4,0,0,0-.29-2.36,21.13,21.13,0,0,0-2.52-4.32,10.81,10.81,0,0,0-3.18-2.33C191.25,381.86,190.45,383,190.3,383.14Zm152.41-32.27c-.22,3.44-.43,6.67-.64,9.89l1,.44a12.41,12.41,0,0,0,1.73-2.69c.39-1.21.09-2.66.57-3.8C346.76,351.47,346.55,351,342.71,350.87ZM291.91,120.6c-.3,1.16-.83,2.05-.58,2.45,1.79,2.82,3.74,5.52,5.64,8.27l1-.64C297.77,126.49,294.68,124,291.91,120.6Zm-26.05,93.91-.85.19c-.64,2.89,1.62,12.91,3.9,13.61ZM309.63,57.27c.83-3.58-4.2-10.6-8-10.21Zm-.37,20.25-4.79-9c-2,3.58,0,6.11.77,8.7C305.35,77.56,307.21,77.38,309.26,77.52ZM192,394.5a4.74,4.74,0,0,0,.38-1.18c-.07-3.67-2.73-5.85-4.87-8.31a1.36,1.36,0,0,0-1.2.29,1.73,1.73,0,0,0-.1,1.44,26.1,26.1,0,0,0,2.33,4A50.17,50.17,0,0,0,192,394.5Zm105.64-156a26.1,26.1,0,0,0-4.5.66c-2,.66-1.41,2.06-.39,3.15a3.6,3.6,0,0,0,2.27,1.24c1,0,2-.68,3.3-1.18C298.23,241.63,298,240.3,297.68,238.5Zm-72.63,224-1.13,1.13c-1.69.07-2.51.8-1.6,2.45a11.53,11.53,0,0,0,2.47,3.42c.69.56,2,.4,3,.56a12.23,12.23,0,0,0-.51-2.36c-.41-1-1.09-1.86-1.53-2.84A16.87,16.87,0,0,1,225.05,462.45Zm59.56-247.94-.18-1.17-5.06-2.49c-.52,1.09-1.56,2.49-1.27,2.87a5,5,0,0,0,3.1,1.88C282.28,215.72,283.47,214.91,284.61,214.51ZM309.42,10.1l-.91.41c.23,2.72.39,5.45.75,8.15.06.51.91.91,1.39,1.36.4-.6,1.13-1.2,1.13-1.8a17.1,17.1,0,0,0-.56-4.62A19.33,19.33,0,0,0,309.42,10.1ZM248,198.89c.18-4,.34-7.36.52-11.38C245.31,190.22,245.05,196.46,248,198.89Zm51.18,140c-1.5,2-1,3.34.5,4.31S301.89,347,305,345Zm2.45-227.79.78-.48c-.12-.89,0-2-.43-2.64a62.52,62.52,0,0,0-4.4-5.62c-.24-.28-1-.11-1.52-.15a4.87,4.87,0,0,0,.16,1.94,22.52,22.52,0,0,0,2.18,2.91C299.51,108.46,300.59,109.79,301.67,111.14Zm-96.51,252c-4.24,3-.44,3.67.91,4.81.94.8,2.22,2.76,3.3.4-.82-1-1.54-1.78-2.22-2.62S205.88,364.1,205.16,363.17Zm.72-8.81c1,2.78,5.52,6.44,7.52,6.27C212.58,357.71,208.79,354.45,205.88,354.36ZM298.05,97c0,1.17-.22,1.87,0,2.19,1.45,1.83,3,3.62,4.59,5.3.23.24,1.16-.18,1.76-.3a7.57,7.57,0,0,0-.81-2.07,32.23,32.23,0,0,0-3-3.18A31.7,31.7,0,0,0,298.05,97ZM332.24,321.8l1.22-.63c-1.15-2-2.23-4-3.52-5.94-.2-.3-1.32,0-2,.06.08.64-.05,1.45.3,1.89C329.48,318.79,330.89,320.27,332.24,321.8ZM305.65,150c1.52.1,2.43-1.09,1.66-2.71-.69-1.46-2.19-2.57-3.41-3.75a1.21,1.21,0,0,0-1.21.13,1.37,1.37,0,0,0,0,1.23C303.59,146.49,304.54,148.06,305.65,150ZM336.9,360.53l.67.21c1.65-3.35,1.36-7.31,2.84-10.92l-2-.53C337.88,353.19,337.39,356.86,336.9,360.53ZM298.61,259.69l-.9.9c.88,1.23,1.54,2.81,2.73,3.55.83.52,2.38-.11,3.62-.23l.17-1.06Zm29.86,97.24c.31-2.34.65-4,.7-5.7,0-.53-.69-1.5-1.13-1.54a2.92,2.92,0,0,0-2.09.85c-.29.3-.15,1.27.09,1.81C326.61,353.64,327.34,354.84,328.47,356.93ZM384.06,452c0-2.68,0-4.92-.05-7.16a1.42,1.42,0,0,0-1-1,1.58,1.58,0,0,0-1.25.71C380.83,446.49,381.77,450.07,384.06,452ZM279.58,145l2.68,2.84c.76-.77,2.28-1.87,2.12-2.25a7.1,7.1,0,0,0-2.55-2.65C281.68,142.8,280.6,144,279.58,145ZM312,277.73c1.9-2.94-.56-4.39-1.08-6.4a11.42,11.42,0,0,0-1.67,1.15C310.08,274.27,311.06,276,312,277.73ZM231.07,469.06l1-.36a17.76,17.76,0,0,0,.61-3.9c0-.8-.87-1.55-1.34-2.33-.53.65-1.55,1.35-1.49,1.94A26.63,26.63,0,0,0,231.07,469.06Zm76-194.86c-1.4-2.63-1.19-5.82-4.86-7.45,1.17,2.87,2.08,5.17,3.1,7.42C305.42,274.36,306.29,274.2,307.1,274.2ZM193.92,377.41c-.27,2.39,3.33,7.15,6,7.75ZM241.57,151c3-.54,4.44-2.41,4-4.94C242.78,146.52,241.65,147.86,241.57,151ZM201.43,40.22l1,.33c2.29-1.48,2.68-3.67.49-5.51C202.36,36.91,201.9,38.56,201.43,40.22Zm71.21,176.71c-.13,1.93.07,3.54,2.17,3.91.44.08,1.53-.84,1.47-1.08C275.86,218.09,275.43,216.21,272.64,216.93Zm15.54-10.63c1.15-1.49,1.88-2.93-.09-3.67-.71-.26-1.93.83-3.42,1.55Zm-15.55,4.34c-.53,3.43-.28,3.71,2.65,3.12C275.8,211.68,275.46,210.27,272.63,210.64ZM320.55,288l-.92.51c.21.84.18,1.92.7,2.44a8,8,0,0,0,2.65,1.17l.55-1ZM202.32,44.47,201.7,44c-2.39,1.78-3,3.32-1.59,5.73Q201.21,47.1,202.32,44.47ZM312.27,70l-.53-.65c-.56.58-1.57,1.16-1.6,1.76a16.09,16.09,0,0,0,.71,3.75l.94-.16ZM245.42,358.13c-.19-4.07-1.1-5.28-3.46-5.28Zm75.17,1.17c3.18-.6,3.72-2,2.08-5.43C322,355.53,321.4,357.18,320.59,359.3ZM288.17,134l-1.13.36c.61,1.57,1.16,3.16,1.87,4.67.1.21,1,0,1.22,0Zm11.34-40.74,3.64,4.08C303.57,94,302.17,92.31,299.51,93.24Zm6.73,257.54,1.24-.08.18-3.13h-2.21C305.71,348.64,306,349.71,306.24,350.78Zm-3.94-.95-1.54-.2-.63,3.63,1.77.21C302,352.26,302.17,351,302.3,349.83ZM269.36,233.11l-1,.66,3,4.51.89-.57Zm-52.71,218L221,452.8l.4-1.13C220.27,450.2,218.32,451,216.65,451.11ZM282.76,220.8a9.41,9.41,0,0,0-2.14-1.59c-.33-.11-1.32.63-1.28.77a3.18,3.18,0,0,0,1.08,1.83C280.76,222,281.58,221.34,282.76,220.8Zm-52,133.66.93-1.07L229,351l-1,1.12ZM311.62,26.51c.38-4,.3-4.13-2.49-3.08Z" transform="translate(-109.14)"/><path d="M208.71,274.46l-.85-4.16-9.77,11.14-.93-.58,3.73-8.29c-5.26-2-6.7,5-11.06,5.15l-.66-.7q1.7-2.76,3.37-5.54l-.75-.51c-2.66,1.44-5.07,3.19-6.14,6.23-.91,2.6-3.33,4.18-6.87,3.82,1.06-3.85,4.81-5.86,6.21-9.25l-.39-.85c-2.15.8-4.3,1.59-6.44,2.44-.39.16-.67.8-1,.83-4.86.33-5.1,3.86-5.25,7.46-.1,2.48-1.43,3.13-3.69,2.65l1-5-.77-.47a38.87,38.87,0,0,1-4.63,4.37c-1.21.84-2.9,1-4.51,1.5-.34-4.59,4.48-4.32,5.39-7.32a8.43,8.43,0,0,1-2.18-1.55c-1.15-1.55-2.23-1.1-3.52-.3-2,1.22-4.41,2-5.85,3.62a12.39,12.39,0,0,1-4.25,3.35,45.07,45.07,0,0,0-4.19,1.66,14.68,14.68,0,0,0-3.65,2.9c-1.72,1.93-3.12,4.14-4.82,6.09-.86,1-2,2.18-3.13,2.35-3.87.56-7.82,1.46-11.6-.66a10.11,10.11,0,0,0-4.05-1.51c-2.19-.13-2.39-1.26-2.23-2.95.2-2.18.48-4.36,3.14-4.76.37-.05,1.28,1.31,1.38,2.09.38,3,2.93,4.44,6,4.65,5.19.35,8.6-2.15,11.69-5.68a24.55,24.55,0,0,1,2.49-3.09,78.2,78.2,0,0,1,7.22-5.34c1.27-.82,2.73-1.21,3.25-2.94.13-.42,1.34-.52,2.06-.75,1.45-.46,3.47-.45,4.25-1.43,2.9-3.65,7.27-3.95,11.09-5.45,4.44-1.75,8.83-3.84,13.45-4.86a80.32,80.32,0,0,1,14.8-1.4c2.36-.07,4.78,1.24,7.11,1.08a28.4,28.4,0,0,0,7.52-2.08c2.4-.87,4.66-2.12,7-3a24.43,24.43,0,0,1,5.31-1.49c4.63-.65,9.34-.8,13.91-1.68,4.38-.85,8.72-.3,12.93.24,2.94.38,5.63,2.66,8.44,4.07,1,.52,2.07,1,3.53,1.66-.17-4.25-4.38-7-2.16-11.56a16.85,16.85,0,0,1,2,2.82c2.17,5.32,5.17,9.8,10.21,13,1.89,1.2,3.91,3.15,3.87,6.24,0,1.13,1.76,2.24,2.56,3.46a9.93,9.93,0,0,1,.84,2.35,8.71,8.71,0,0,1-2.31-.26,7.09,7.09,0,0,0-2.84-1l2.77,4.05,2.61,3.83-1,1a17.46,17.46,0,0,1-2.55-1.81c-2.51-2.52-5.07-5-7.33-7.75-1.19-1.44-1.71-3.41-2.65-5.08a5.7,5.7,0,0,0-5.31-2.5c3.34,4.63,6.44,9.32,10,13.67,2.28,2.81,5.29,5,7.74,7.72.49.54-.09,2-.18,3.12l-.93.22a18.63,18.63,0,0,1,2.26,1.75,9,9,0,0,1,1.07,1.9c-.71.15-1.57.64-2.11.41A76.75,76.75,0,0,1,268,290.75c-3-1.9-4.55-5.17-5.91-8.44-1-2.4-2.12-4.76-3.33-7.06a1.82,1.82,0,0,0-1.65-.69c-2.83,1.14-5.59.21-8.4,0-4.6-.4-9.18-.26-13.53,1.7a2.93,2.93,0,0,1-2.26-.49c4.48-3.86,9.35-4.48,14.75-3a16.22,16.22,0,0,0,7,0c-.28-.25-.54-.52-.83-.75a24.46,24.46,0,0,0-19-5.27,33.16,33.16,0,0,0-13.4,4.93,6.57,6.57,0,0,1-2.08.55l-.65-1,5.32-4.47c-.3-.08-.77-.36-1.06-.23-3.74,1.64-7.85,2.53-10.77,5.79-.88,1-2.37,1.4-3.59,2.08Zm2.59-9c2.42,1.45,2.93,1.5,5.36.12,3.76-2.12,8-2.7,12.08-2.86,3.34-.14,6.66-.51,10.16,1.1,3,1.36,6.86.69,10.34.92l.14-.27-9.14-1.92c-.38-1.9-.4-3.33-1-4.46-.31-.57-1.69-.89-2.54-.81-4.43.46-8.84,1.08-13.26,1.66a5.16,5.16,0,0,0-1.31.43c-4.56,1.93-9.07,4-13.68,5.78-3.06,1.18-6.16,1.89-9.52.31-1.77-.83-4-.81-6-.87-1.33,0-2.67.56-4,.73-4.33.55-4.34.53-2.92,4.53,0,.12.28.17.37.21,4.05-2.91,8.32-2.39,12.68-1C201.67,269.87,209.28,269.07,211.3,265.42Zm-47.61,7.05a16.54,16.54,0,0,0,2,2.91,1.93,1.93,0,0,0,1.83.17c3.1-3.18,7.3-4.36,11.1-6.26.67-.34,1.31-.77,2-1.15l-.37-.93Zm111.76,17.78-7.88-7.94A8.22,8.22,0,0,0,275.45,290.25ZM253.24,265l-.93.9c.26.79.29,2,.83,2.3,2.54,1.4,5.22,2.54,7.85,3.78l.58-1.1Zm11.61-1.67-.32.39,3.46,3.68.93-.92Z" transform="translate(-109.14)"/><path d="M154.62,361.74l-.34,3.76c-1.5-7.28-4.75-14.2-4.35-22.22-3.29-1.46-4.34-4.66-4.7-8.49-.23-2.41-1.24-4.75-2-7.43l2.27-1.42-9.41-4.16.25-1,6.16-.66-.22-1.4a51,51,0,0,1-6.52,1.25c-1.21.08-2.49-.69-3.73-1.07.55-.82.91-2.06,1.67-2.38,3.36-1.43,3-4.94,4.46-7.39.62-1,1.34-2,2-3.05a14.24,14.24,0,0,0,1-2.12c1.19-3.09,2.32-6.21,3.56-9.28.19-.46.85-.74,1.28-1.11.24.61.73,1.25.68,1.83-.42,4.84-1.36,9.67-1.33,14.49a82.4,82.4,0,0,0,1.7,13.86c.41,2.26,1.49,4.15,1,6.81-.49,2.93.75,6.15,1.32,9.75l3.59-2.79v8.71l4.6,1.5c-2.42,3-1.62,5.63.13,8.25a5.7,5.7,0,0,1,.67,2.9c.07,2.5.27,4.8,3.11,5.89a2.14,2.14,0,0,1,.74,1.85c-.66,3-1.52,5.9-2.26,8.86a20.67,20.67,0,0,0-.89,4.48c-.06,3.09,0,6-2.86,8.24-1,.77-1.16,2.56-1.91,3.74a5.15,5.15,0,0,1-2.21,2.11c-2.5.93-3,2.6-3,5.12,0,5,3.16,8,6,11.4A57.56,57.56,0,0,1,160.1,418c2.31,3.76,4.4,7.65,6.79,11.34,2.27,3.49,5.09,6.64,7.1,10.25,1.15,2.05,1.32,4.7,1.64,7.11a40.76,40.76,0,0,1,.05,5.85c-.16,8.49-.1,5.92,5.29,14.55-1.65,1.14-3.74.57-4.88-1.35-.32-.54-.5-1.57-.88-1.64-5.86-1.11-2.81-5.63-3.1-8.58-.55-5.68,1-11.61-2.41-16.91-3.81-5.87-7.37-11.91-11.39-17.63-1.22-1.72-2.45-3.65-3.69-5.06-3.28-3.77-4.47-8.28-6.42-12.53a2.8,2.8,0,0,0-.75-1.1c-2.21-1.6-1.61-3.59-1.42-5.9.25-3,.78-5.11,3.82-6.47,1.7-.76,2.93-2.61,4.32-4,2.06-2.07,2.48-4.55,2.22-7.42a11.25,11.25,0,0,1,1-4.95c1.34-3.28,1.92-6.24-1.28-8.89-.69-.57-.72-1.94-1-3Zm-12.34-49.68-1.22-.41-.9,3a5.21,5.21,0,0,0,1.19.22C141.72,313.94,142,313,142.28,312.06Z" transform="translate(-109.14)"/><path d="M128.88,306.49l-1.34,2.85c-.34.72-.7,1.43-1.05,2.15.8,0,1.77.41,2.35.08,2.14-1.18,4.14-2.6,6.2-3.94,1.17,1.8.6,4-1.7,5.77-2.49,1.93-7.56,2.62-9.75.48a11.9,11.9,0,0,0-6.13-3.27c-.54-.11-1.35-.83-1.34-1.25.06-3-2-4-4.15-5.1a2.67,2.67,0,0,1-.57-2.48c1.33-3.14-.52-5.48-1.75-8a5.15,5.15,0,0,1,3.39-7.18c0,1,.29,2,0,2.67-2.33,5,1.16,7.94,3.72,11.27a35,35,0,0,1,2,3.29l3.57.24c.91,3.37-1.78,2.76-3.27,3.41,1.67,2.35,3.2,2.49,5.22.7a32.18,32.18,0,0,1,3.66-2.48Z" transform="translate(-109.14)"/><path d="M287.52,176.33s.59-1.35-.3-2.09c2.39-.81,6.14,1.19,6.06,3.94,0,.92-.23,5.74-1.95,6.28-.12,0-1,.38-1.23-.41-.3-1.09-.05-1.1-.12-2.3a2.93,2.93,0,0,0-.26-1.17,2.2,2.2,0,0,1-.84,1.82,2.81,2.81,0,0,1-2.39.42c-.13,1.1,3.45,1,3.17,2.09-.14.54-1,1-2.65.93a17.91,17.91,0,0,1-5.34-1.09c-1.2-.58-6-2.65-5.76-3.49.73-2.91,4.6-5.51,6.54-6.14s3-1,3.56-.7c1,.59-2.54,3.27-1.3,4.28.14.11.2-1.22,1.22-2S287.52,176.33,287.52,176.33Z" transform="translate(-109.14)"/><path d="M299.19,302.67c3.77-1.26,3.77-1.26,3.12,4.17-1.89.41-1.62-6.52-5.09-.77l-.55-.59c-.33-2.55-.86-5.09-1-7.65a39.55,39.55,0,0,0-3.44-14.13c-1.22-2.85-1.52-6.1-3.54-8.69-1.25-1.61-2.44-3.26-4-5.29,3.16-.75,4.15,1.39,5.29,3s1.69,3.41,2.9,4.81c2.84,3.28,2.91,7.44,3.82,11.28C297.86,293.3,298.4,297.94,299.19,302.67Z" transform="translate(-109.14)"/><path d="M245.08,279.48c.55-.7,1-1.77,1.4-1.72,3.64.54,7.25,1.25,10.87,1.94.11,0,.16.31.24.47-1.43,2.25-1.15,2.88,1.57,3.9.83.32,1.95.65,2.28,1.3a2.82,2.82,0,0,1-.77,2.23,21.28,21.28,0,0,1-4.44-.71c-2.46-.56-4.89-1.2-8.18-2a27,27,0,0,0,2.52-1.18,18.09,18.09,0,0,0,1.81-1.35c-.52-.49-1-1.22-1.58-1.42C249.08,280.36,247.3,280,245.08,279.48Z" transform="translate(-109.14)"/><path d="M186.57,463.92c1.07,8.11,1.07,8.11,7,9.26l-.32,2.28c-.73-.18-1.47-.34-2.19-.55a15.79,15.79,0,0,0-1.84-.6c-1.16-.2-2.86.16-3.4-.49a16.3,16.3,0,0,1-3-5.39C182,465.45,183,464.24,186.57,463.92Z" transform="translate(-109.14)"/><path d="M148.06,388c-1.56-7.89,2.25-13.63,5.24-20.35.53,1.27,1.27,2.16,1.08,2.72-1.17,3.3-2.62,6.5-3.84,9.78C149.67,382.53,149,384.94,148.06,388Z" transform="translate(-109.14)"/><path d="M282.17,340.84c6.17.44,7.86,2,6.36,5.5C281.29,344.59,281.21,344.53,282.17,340.84Z" transform="translate(-109.14)"/><path d="M226.22,312.67c.62.38,1.32.55,1.48.94,1.15,2.76,2.25,5.56,3.23,8.39a2.19,2.19,0,0,1-.58,1.7c-.15.18-1.2,0-1.4-.31C226.88,320.23,224.75,317,226.22,312.67Z" transform="translate(-109.14)"/><path d="M163.7,406.79a4.37,4.37,0,0,1-4.94-3.06c-.27-1.57,1.91-4.28,3.65-4.3.45,0,1.34.87,1.29,1.23C163.13,404.62,163.09,404.8,163.7,406.79Z" transform="translate(-109.14)"/><path d="M271.46,355.74a31,31,0,0,1,3.61,2.89,13,13,0,0,1,1.94,3.2,11.07,11.07,0,0,1,.55,2.11,6.14,6.14,0,0,1-2.39.11C273.15,363.23,271,358.73,271.46,355.74Z" transform="translate(-109.14)"/><path d="M256,241.42c3.51-.39,6.18,2.29,5.66,4.79-.33,1.55-1.92,2.19-2.77.94A45.67,45.67,0,0,1,256,241.42Z" transform="translate(-109.14)"/><path d="M149,317.56a27.58,27.58,0,0,1,.42-5.78c.16-.56,2.12-.62,3.26-.91a7.62,7.62,0,0,1,0,2.74,37.61,37.61,0,0,1-2.44,4.32Z" transform="translate(-109.14)"/><path d="M228.35,300.56c2.64,1.17,3.51,4.59,2.25,8.23C228,308.17,227.28,305.69,228.35,300.56Z" transform="translate(-109.14)"/><path d="M178.18,397.94c1,.25,2.18.21,2.8.8,1.2,1.14.94,5.28-.23,7.05-3-1.58-1.74-4.84-3-7Z" transform="translate(-109.14)"/><path d="M284.53,234.16l2.13,8c-2.54.37-5.07-4.39-4-8.77l1.93.81Z" transform="translate(-109.14)"/><path d="M237.55,333.9a58.75,58.75,0,0,1-3.39-5.43c-.31-.62.15-1.61.26-2.43a6.5,6.5,0,0,1,2.14.79C238.81,328.74,237.5,331,237.55,333.9Z" transform="translate(-109.14)"/><path d="M288.06,293.59c-2-2.07-3.72-3.88-2.95-7.39C287.25,288.49,289.35,290.15,288.06,293.59Z" transform="translate(-109.14)"/><path d="M277.56,196.45a27.24,27.24,0,0,1-3,3,5.36,5.36,0,0,1-1.7-1.55,29.21,29.21,0,0,1,2.54-3.35C276,195,276.55,195.53,277.56,196.45Z" transform="translate(-109.14)"/><path d="M252.73,340.77c-2.16-.18-2.33-1.94-2.77-3.48-.28-1-.52-2-.78-3,1.93-.65,2.93,1.17,3.48,6.59Z" transform="translate(-109.14)"/><path d="M276.74,306.06c1.84-.22,3.43-.88,4.07-.37.82.67.9,2.27,1.3,3.46l-.95.54Z" transform="translate(-109.14)"/><path d="M301.9,310.92c0,2,.06,3.94-.07,5.91,0,.35-.82.82-1.32.91-.24,0-.94-.73-.88-1,.37-2,.89-4.05,1.36-6.07Z" transform="translate(-109.14)"/><path d="M256.75,332.54c.44,1.43.89,2.87,1.56,5-1.44-.32-2.63-.35-2.7-.64a27.36,27.36,0,0,1-.37-4.06Z" transform="translate(-109.14)"/><path d="M239.64,278.6l3.31-.5c0,.85,0,1.7,0,2.56l-3.32-.5Z" transform="translate(-109.14)"/><path d="M208.62,274.38c0,.09,0,.19,0,.28-.17,1.18.37,2.88-1.71,2.74-.41,0-.76-.94-1.13-1.45l3-1.49Z" transform="translate(-109.14)"/><path d="M291.09,310.17c0,.35,0,.48,0,.52-.49.47-1,.92-2.07,1.89v-4.72Z" transform="translate(-109.14)"/><path d="M197.91,316.37c-1,.68-1.53,1.34-2.06,1.32s-1-.8-1.16-1.33a2,2,0,0,1,.82-1.34A14.23,14.23,0,0,1,197.91,316.37Z" transform="translate(-109.14)"/></svg>