<svg id="detail-zuckerbanket-hund-1_Bild" data-name="detail-zuckerbanket-hund-1 Bild" xmlns="http://www.w3.org/2000/svg" viewBox="0 0 474.13 446.29"><path d="M395.87,216.94l.22,0,0-.1Z" transform="translate(-15.64 -30.96)"/><path d="M239.34,234.67l.09.13a.78.78,0,0,1-.05-.14S239.34,234.67,239.34,234.67Z" transform="translate(-15.64 -30.96)"/><path d="M254.4,241.14l.19.14V241Z" transform="translate(-15.64 -30.96)"/><path d="M132.27,438l0,.34.12-.22Z" transform="translate(-15.64 -30.96)"/><path d="M103.64,304.21l.24-.13-.37,0Z" transform="translate(-15.64 -30.96)"/><path d="M471.34,234.79l7,5.4c-6.53,4.47-14.44,2.35-17.76-3.63-1.62-2.93-3.48-5.72-5.77-9.45v-4.94c-9.45-2-18.64-3.21-27.35-5.95-10.65-3.34-20.81-2.34-31.12.6,17.81,0,35.19,2.5,49.92,8.21,6.45,6.81,11.56,12.57,17.07,17.92s13.52,4.7,19.47-1.78c-2.72-2.89-5.46-5.82-8.45-9Z" transform="translate(-15.64 -30.96)"/><path d="M396.09,216.9l.28-.08h-.31S396.09,216.9,396.09,216.9Z" transform="translate(-15.64 -30.96)"/><path d="M161.46,300.36l19.93,34.13C178.21,321.07,171.28,309.86,161.46,300.36Z" transform="translate(-15.64 -30.96)"/><path d="M161.46,300.36l-.33-.58-.14.11Z" transform="translate(-15.64 -30.96)"/><path d="M332.9,36.56c1.54-.66,3.78.64,5.85-.55s1.44-3.49-3.19-4.73-2.14,1.5-5.25,3.62c-4.73,3.23-11.71,7.88-16.89,10.9a168.17,168.17,0,0,1-15.64,8.07,34.46,34.46,0,0,1-6.89,1.44,17.15,17.15,0,0,0-6.46,1.59c-3.69,2-5.68,6-9.69,7.53-2.06.81-4.29,1-6.35,1.78s-2.81,3.29-3.51,5.26a101.35,101.35,0,0,0-13.06-6.53,56.57,56.57,0,0,0-14.68-3.4,1.5,1.5,0,0,0-1.45,1.9A171,171,0,0,0,247,85.87a53.54,53.54,0,0,0-9.16,3.84A23.46,23.46,0,0,0,230.17,97a1.52,1.52,0,0,0,.54,2.06c2.87,1.6,5.72,3.27,8.64,4.79s6.3,1.71,9.49,2.26a49.42,49.42,0,0,0,7.4.81c1.12,5.65,2.15,10.88,3.18,16.09l1.57-.37q-.75-7.94-1.49-15.86a17.93,17.93,0,0,0,3.15-.63,8.77,8.77,0,0,1,.62,2.07c.21,1.38-.29,2.85-.31,4.27s.19,2.6.3,3.9l.88-.05c.5-4.31,1-8.62,1.31-11.31.37-.19.73-.4,1.09-.62a1.83,1.83,0,0,0,.35-.32l7.91-5c-.35-.72-.7-1.44-1-2.16-5.25,3.67-10.51,6.73-17.23.36l8.34-1.66c-6.29-7.3-17.19-.4-18.35,1.85l8.9,5.32.23,1.16a52.92,52.92,0,0,1-6.93-.88c-2.88-.5-5.82-.66-8.42-2.09-2.22-1.22-4.42-2.46-6.63-3.69a20.15,20.15,0,0,1,6-5.15,46.07,46.07,0,0,1,7.27-3l.15,0V89c.5-.18,5.83-2.79,11-2.74,4.1,0,7.92,2.43,10.27,4.27l-.07-.1c-.68-1.41-1.39-2.81-2-4.24-.92-2-1.78-4.13-2.67-6.2,0,0-2.12,1.14-2.91,1.53l-9.2-6.94c1,4,1.67,6.59,2.36,9.31-1.79.28-3.12.48-4.12.7a166.61,166.61,0,0,1-10.15-19.76q1.83.27,3.63.66l19.67,8.26,1.51.85a1.47,1.47,0,0,0,.93.18c.18.08,2-3.75,3.33-4.85a11,11,0,0,1,3.76-1.65,21.5,21.5,0,0,0,5.75-2.17c2.42-1.44,4.14-4,6.36-5.67l6.23-2.14c.91-.1,1.83-.18,2.72-.31a34.41,34.41,0,0,0,6.4-1.66,57,57,0,0,0,6.77-3l.62-.19-.05-.12c1.67-.88,3.31-1.83,4.93-2.79Z" transform="translate(-15.64 -30.96)"/><path d="M336.61,189.54c-1.79-4.2-4.67-6.8-9.67-6.28l8.17,8.06Z" transform="translate(-15.64 -30.96)"/><path d="M165.77,296.42h-.05Z" transform="translate(-15.64 -30.96)"/><path d="M165.77,296.42c2.53,3.23,5.07,6.47,8.57,10.91C173.21,301,171.28,297.3,165.77,296.42Z" transform="translate(-15.64 -30.96)"/><path d="M308.87,95.91l2.09-.73-2.44-6.78-1.84.65Z" transform="translate(-15.64 -30.96)"/><path d="M131.29,428.06l1.05,9.3q.51-4.67,1-9.32Z" transform="translate(-15.64 -30.96)"/><path d="M132.27,438l.15.13-.08-.74C132.31,437.57,132.29,437.77,132.27,438Z" transform="translate(-15.64 -30.96)"/><path d="M228.3,234.81l2.79,6.07c-.18-2.24-.36-4.46-.55-6.68Z" transform="translate(-15.64 -30.96)"/><path d="M231.09,240.88c0,.18,0,.36,0,.54l0,0,.34.39-.2-.58Z" transform="translate(-15.64 -30.96)"/><path d="M251.29,234.82l3,5.57c-.32-2.08-.65-4.17-1-6.25Z" transform="translate(-15.64 -30.96)"/><path d="M254.41,241.13l.18-.18-.3-.56Z" transform="translate(-15.64 -30.96)"/><path d="M165.77,296.41l0,0,0,0Z" transform="translate(-15.64 -30.96)"/><path d="M120,386l-2,2.6,1.17.91,2-2.63Z" transform="translate(-15.64 -30.96)"/><path d="M224.58,244.14q-1-2.43-2-4.88l-1,.39,2,4.89Z" transform="translate(-15.64 -30.96)"/><path d="M161,299.89l.14-.11-.48-3.25v-.06h0l-.56-.17.57.23C160.76,297.65,160.87,298.77,161,299.89Z" transform="translate(-15.64 -30.96)"/><path d="M133,424l.17-1.45-.54,0V424Z" transform="translate(-15.64 -30.96)"/><path d="M27.31,246.21Z" transform="translate(-15.64 -30.96)"/><path d="M27.31,246.21l-.41,0,.18.18.23-.21Z" transform="translate(-15.64 -30.96)"/><path d="M322.3,181.71l.35-.14,4,1.72.12-.13-.12.12.27,0-.13-.13-4.05-1.6h-.21Z" transform="translate(-15.64 -30.96)"/><path d="M157.72,295.53l-.09.05c.8.25,1.62.48,2.44.72l-2.21-.86h0l-.22.13Z" transform="translate(-15.64 -30.96)"/><path d="M291.59,116.71l.47-.24-.25-.09A3.15,3.15,0,0,1,291.59,116.71Z" transform="translate(-15.64 -30.96)"/><path d="M268.67,90.36l-.42.08a.71.71,0,0,0,.07.09Z" transform="translate(-15.64 -30.96)"/><path d="M103.64,304.21l-.13-.15-.21.19Z" transform="translate(-15.64 -30.96)"/><path d="M26.89,246.23c0,.22,0,.44-.07.66.09-.15.17-.31.26-.47Z" transform="translate(-15.64 -30.96)"/><path d="M288.35,80.9c2,0,4.83.8,5.71-.18,1.68-1.87,2.24-4.76,3.27-7.23-.71-.45-1.41-.91-2.11-1.37l-7.56,6.21Z" transform="translate(-15.64 -30.96)"/><path d="M299.65,158.58l-.28-1,4-1.22c.11.41.23.82.34,1.23Z" transform="translate(-15.64 -30.96)"/><path d="M468.19,218.81,465.83,212l-17.07-8.17c-3.67-11.7-18.54-11.18-23.17-16.9-11-4.35-18.25-7.74-25.83-10-5.43-1.63-11.45-3-16.95-2.3-8.69,1.06-17.15,3.93-25.48,6-14.14-12.14-27.69-24.63-34.85-42.35.84-2.09,1.64-4.05,2.37-5.85C324,130,323.31,128,322.59,126l-1.2.65-6.21-11.31,3.28-.4c1.37-4.72,2.3-9.64,4.27-14.09,1.38-3.12,3.63-6.73,6.48-8.18,11.55-5.88,17.13-14.87,14.91-26.7l-13.84-1.4c2.64-8,5.15-15.63,7.89-23.92L332.5,41c3.49,7.6.06,13.13-4.24,18.52-6.35,8-12.54,16-19.57,25.07l12-.54c-.15,2.68-.31,5.42-.58,10.16l-11.79,8.56-5.92-9-1.3.65,4.19,18.45-5.17,5.56,8.14-1.87c-.93,5-1.65,8.77-2.36,12.58l-1.56.15c-2.25-4.47-4.49-8.94-6-11.93l-6.51-1,.27.1,9.54,15.38-6.08,1.1c-1.7-3-3.18-5.56-4.67-8.16l-1.11.59c.94,2.65,1.88,5.3,3.16,8.88l-15.46-1.7c-1.12-2-2.21-4-3.56-6.41-.35,2.22-.6,3.78-1,6l-9.24-1.51c0,3.26.38,6.15-.12,8.88-.43,2.35-1.81,4.52-2.8,6.76-.46-1.65-.94-3.32-1.49-5.27-6.65-1.39-12.11-8.06-19.65-3.92-2.46,8.88,1.86,14.49,8.31,19.76l18.15,3.75c.46,3.7,1,7.7,1.55,12.49-1.22,0-16.88,2-34.34,9.7-22.22,9.83-47.17,25.95-47.17,25.95l-6.47,4.53a19.34,19.34,0,0,0-6.75,4.69,29.45,29.45,0,0,0-5.65,4.78c-2.55,2.94-4.7,6.27-7,9.43s-4.55,6.35-6.84,9.51l-8.57,9c-1,.75-2,1.49-3,2.32-1.41,1.27-2.62,2.74-4,4-2.92,2.55-6.31,4.64-9.42,7,0,0-30,26.22-32.39,27.22C81.72,297.36,67,300,51.36,293.68c-16.1-6.52-28.47-16.71-25.58-37,.47-3.26.72-6.54,1-9.82-6.2,11-5,22.16.09,33.45,1.68,1.94,4,3.61,6,5.61C46.73,299.87,64.17,302.39,82,299c0,0,15.78-3.43,21.7-8.84,2.89-2.64,18.48-14.11,29.71-23.82,11.72-10.14,23.21-22.91,25.44-26,2.39-3.33,5.78-9.08,8.18-12.41a28.41,28.41,0,0,1,4-4.78,50.77,50.77,0,0,1,5.16-3.8l11-7.68,6.46-3.1L235.08,186c17.09-8,43.8-12.13,43.8-12.13-2.54-2.22-4.62-4-7.17-6.27.23-1.41.51-3.12.8-4.84,4.94,7.08,11.19,11.16,12.94,8.35l-3.88-6.9h29.56l5.38,10.7c-.71-5.25-1.15-8.52-1.79-13.31l31.1,31.67-1.23,1.51-4.44-1.2c.86,2.58,1.57,4.72,2.53,7.58l-8.18.68c-4.27-11.78-12.44-16.49-24.43-13.68,13.58,1.41,20.57,6.85,20,15l-8.89,5.94c1.76,1.19,2.76,1.09,3.48.59,6.88-4.65,14-6.1,22.32-3.78,4.56,1.26,10,.83,14.73-.29,10.25-2.44,20.28-5.83,30.42-8.76,2-.57,4.06-.79,6.1-1.17a14.4,14.4,0,0,0,7.36,5c6.87,1.83,13.83,3.35,20.77,4.93,5,1.15,10,2.84,15.12,3.18,10.63.71,21.55.24,24,14l14.45,2.4,7.69,8.25.49,8.85C493.28,229.93,486.33,222.41,468.19,218.81ZM340.24,75.2c-2.07,8.19-8.14,12.55-15.46,10.65Zm-83.87,78c-1.59.43-3.15.94-6.49,2l-10.61-11.47c4.42-6.53,13.68-4.65,21.43,2.9.28,1.53.55,3.08.95,5.32C259.83,152.31,258.09,152.7,256.37,153.16Zm15.3-1-4.84-13.71L319,134a32.52,32.52,0,0,0,.69,6.22c.55,2,1.88,3.77,3.56,6.95C305.54,151.48,288.72,155.63,271.67,152.14Z" transform="translate(-15.64 -30.96)"/><path d="M323.75,161.14l.38-1.14,2.1,1.44Z" transform="translate(-15.64 -30.96)"/><path d="M329.53,165.82,327,161.91l4.09,2Z" transform="translate(-15.64 -30.96)"/><path d="M348.2,186.88,343,183.46l1.11-1.72,5.26,3.36Z" transform="translate(-15.64 -30.96)"/><path d="M332.63,177.16c.11-.88.22-1.76.34-2.63,4.68,3.32,11.37-4.19,16.5,4.12Z" transform="translate(-15.64 -30.96)"/><path d="M363.38,185c-.08.79-.15,1.57-.23,2.35-.32-.69-.62-1.41-.91-2.12Z" transform="translate(-15.64 -30.96)"/><path d="M355.33,200.85c.73-3.8,1.28-6.65,2.31-12l6.4,9.26Z" transform="translate(-15.64 -30.96)"/><path d="M366.9,192.34c-.41-1-.83-1.93-1.24-2.9l2.55,2.14Z" transform="translate(-15.64 -30.96)"/><path d="M373.77,191.28l-3.39-5.83,1.69-1.07,3.75,5.61Z" transform="translate(-15.64 -30.96)"/><path d="M385.75,185l-1.5-2,1-.71,1.47,2Z" transform="translate(-15.64 -30.96)"/><path d="M412,194.36q-1.27-2-2.53-4l1.49-.95,2.52,4Z" transform="translate(-15.64 -30.96)"/><path d="M420.34,197.42l-2.86-6.93,1.72-.73,3.39,6.71Z" transform="translate(-15.64 -30.96)"/><path d="M443.17,205.06,430.05,202c.16-.51.31-1,.47-1.54l9.24-1.73,5,4Z" transform="translate(-15.64 -30.96)"/><path d="M50.87,302.47C41,297.9,30,292.71,23.65,284.56c-7.25-9.32-3.38-34.5-3.33-34.56.32-.39,6.19-11,12.15-14.51,7.6-4.51,15.87-2.07,18.38-1.52.23.13.47.25.7.4a10.9,10.9,0,0,1,3.39,4.15c1.27,2.31,2.43,6.82,3,9.39-.78.14-5.63-7.41-8.87-8.44a12.63,12.63,0,0,0-3.77-.48,8.13,8.13,0,0,0-5.89-.28,25,25,0,0,0-6-.73c-1.92.13-1.93,3.13,0,3,2.31-.16,4.51.54,6.78.85,1.77.24,3.57,0,5.35.12l2.69.41a7.23,7.23,0,0,1,3.39,2.43l.06.19,0,0h0l0,0,.42.48a10.94,10.94,0,0,1,1.34,2.85v3.6l-8.31,1.7L45,255.35l8.75,3.25c1-.67,5.93-4.38,6.83-8.6,1.11-5.17-2-11.12-3.16-13.27A13.72,13.72,0,0,0,53.31,232a22.44,22.44,0,0,0-5.94-2.58c-.58-.18-12.81-1.44-18,2C21.23,237,17,249.1,16.11,254.86c-1.52,9.84,1,21.54,2.6,26.93s14.39,20.6,31.09,25.4c17.58,5.05,47.92,2.64,57.75-.56,2.48-.82-5.06-1.55-4.25-2.38C85.71,306.53,67.8,310.32,50.87,302.47Z" transform="translate(-15.64 -30.96)"/><path d="M164.64,279l2.1.86.18-.2c-.7-.29-1.4-.58-2.13-.84Z" transform="translate(-15.64 -30.96)"/><path d="M163,275.07l1.56,3.44c-.12-1.23-.24-2.45-.35-3.68Z" transform="translate(-15.64 -30.96)"/><path d="M164.59,278.51l0,.51.12-.15Z" transform="translate(-15.64 -30.96)"/><path d="M181.17,262.55l.22.21,0-.36Z" transform="translate(-15.64 -30.96)"/><path d="M181.92,266.36l2.82-.3c-1.14-1.09-2.24-2.19-3.35-3.3C181.55,263.88,181.72,265,181.92,266.36Z" transform="translate(-15.64 -30.96)"/><path d="M184.82,266.15,185,266l-.22,0Z" transform="translate(-15.64 -30.96)"/><path d="M162.66,289.56,159.07,284l-1.34,1,4.71,4.8h0c1.1,2.19,2.19,4.38,3.31,6.57C168.1,292.58,166.27,290.67,162.66,289.56Z" transform="translate(-15.64 -30.96)"/><path d="M176.68,253.4l3.56,5.13q-.62-3-1.26-5.92Z" transform="translate(-15.64 -30.96)"/><path d="M180.38,258.72l-.14-.19c0,.1,0,.21.07.32.3,1.21.58,2.45.86,3.69l.17-.14c-.34-1.21-.67-2.41-1-3.65Z" transform="translate(-15.64 -30.96)"/><path d="M188.57,247.88l-1.58.2.63,10.59,2.38-.09Q189.3,253.23,188.57,247.88Z" transform="translate(-15.64 -30.96)"/><path d="M184.85,266.13l.09,0,0-.06Z" transform="translate(-15.64 -30.96)"/><path d="M166.74,279.88l.75.72c-.19-.31-.39-.61-.57-.92Z" transform="translate(-15.64 -30.96)"/><path d="M392.25,210.72l-16,4.54c0,.5.09,1,.13,1.5l10.72,1.57c-11.43,2.91-21.74,5.69-32.14,8-1.49.34-3.46-1.45-4.65-2L341.65,226l-.4-1.57L337.07,228l-8.54.49L335.1,234c-7.79,3.77-10.93-4-16.44-4.93-.61,2.25-1.15,4.27-1.69,6.28-1.92-2.18-3.49-4-6-6.86v10.64l9.49,11.15c-3.83,5.09-6.48,3.55-8.66.39-4.53-6.55-8.86-13.23-12.27-18.35-.44,2.14-1.25,6.1-2.45,11.93l-5.73-8-1.38.71c2.86,6.07,5.71,12.14,8.9,18.93-12.07-.84-9-9.8-10.75-15.63l-5.51,1-4.85-6.09,5,13.72,6.15,7.11-1.83,2.48-14.22-7.66v-9.05l-5.49-1.63c-1.3-3.27-2.3-5.77-3.3-8.27l-1.11.37,5.73,18.37c6.47,3.53,6.83,4.91.48,8.88-3.33-4.9-6.59-9.95-10.16-14.77-1.06-1.44-2.91-2.31-4.45-3.4v7.93c-4.81,1.77-7-.06-8.78-3.83s-4.22-7.07-6.38-10.58c1.48,5,6.84,10.19-.65,15.43l-7.32-8.4L236.65,257l-1.25,1.05-5.17-3.25c.15-2.87.27-5.13.42-7.88l-4.49.37c1.34,4.19,3.12,8.22-4.4,7.77-1.8-3.68-3.69-7.54-5.74-11.71l-3.19,7.68c-4.26-11.48-11.47-3.56-18.43-7.16,2.6,6.32,4.43,10.76,7,16.93l-16.42,5.28c-.7,1.69-1.41,3.39-2.61,6.31l-8.67-14.22a11.37,11.37,0,0,0,.69,7.18c.72,1.86,1.76,3.59,2.66,5.38l-1.55.77q-3-3.81-6-7.64l-1.72,1.22c2.54,4.07,5.09,8.13,7.73,12.35v10.7l-7.94-7.55c3.14,5.09,6.87,9.95,9,15.43a190.57,190.57,0,0,1,9.33,30.47c1,4.93-1.43,10.55-2.51,17.12l-21.5-35.5-2.42,1.51c3.75,5.59,8,10.94,11.12,16.86,3,5.77,4.95,12.13,7.36,18.24l-1.34.49q-6-9.15-12-18.29l-.53.44,9.6,23.36-3.25,1.63-9.86-17.25-.8.51c.91,3.35,1.83,6.7,2.82,10.3l-4-.92c.43,9.53,8,19,.5,30.2l-4.31-8.9c-.43,2.87.38,5.28.91,7.76,1.55,7.22,3.11,14.62-1.85,21.15-12.69,16.67-10.35,35.28-8.44,53.82l12.56,9.16c.36,1.46.81,3.25,1.09,4.39l10.94,6L155,473.12v-8.95l-6.74,1.51-4.87-5.27h-6.23c-7.56-6.37-4.11-14.67-4.84-22.09-1.4,2.64-2.81,5.28-4.29,8.08-7.95-1-13.77-10.13-14.39-23.38-.54-11.54,9.16-27.79,19-29.9V413.2l2-.06V391.71a21.13,21.13,0,0,1,3.86-9.53c7.46-10.57,7.12-26.9-.53-37.68-6.44-9.08-11.3-18.84-9.7-30.68l-5.08-2.92,2.09-16.54-3.3-1.47-6.08,6.66-.79-1.25-11.19,5.78,5.5.4c1.63,12.59,3.22,24.33,4.64,36.08.75,6.27,1.9,12.6,1.66,18.85-.41,10.83.41,22.37-10.25,29.46-.4,3.28-.76,6.19-1.11,9.11l2,.49c.72-2.56.69-5.84,2.3-7.57C119.43,379.29,118,365,118.08,351c0-3.24,1.1-6.46,1.7-9.69l3-.1q2.11,9.35,4.24,18.67l-1.27.24c1.7,2.85,3.41,5.7,5.1,8.54-2.41,4-4.66,7.74-7.3,12.11.73,2.84,1.7,6.66,2.67,10.48l-1.75-.68-16.18,31.3,2.11.49c.66,5.41,1.32,10.83,2,16.35l3.31,5.41.49-.15-.36.27L99.2,441.39c2.28-7.87,4.83-14,5.64-20.28s-.13-12.89-.3-19.34l-2.3.07c0,1.55,0,3.1,0,4.65-.21,8.47,1.33,17-4.75,24.74-1.65,2.09-.11,7.29,1,10.75,1.31,4.3,3.66,8.27,5.56,12.38,6.42,12.7,16.68,11.9,28.23,6.1l22.71,16.07c18,1.79,19.95,1,22.76-11.21l-31-19.59c.75-11.6,1.35-23.41,2.4-35.17.27-2.95,1.24-6.44,3.15-8.53,6.64-7.3,10.22-15.43,8.62-25.44l11.39-8-1.39-1.05c3.21-4.92,7.17-9.52,9.44-14.84,3.42-8,11.38-14.5,8.45-24.7-2-6.85-4-13.7-5.51-20.66-5.31-25-2.54-41,25.51-44.79,14.09-1.89,28.54-1.28,42.82-1.66,5-.13,10.05.2,15.08.26,4.47.05,9,0,13.43,0,9.45-.35,18.79-.18,27.79-1.87,15.26-2.86,29.75-7.44,38.95-21.92a24,24,0,0,1,18.24-11.26,197,197,0,0,0,24.29-4.42c2.42-.58,4.37-3.08,6.52-4.78l-5.08.88C391.5,214.37,392,212,392.25,210.72Z" transform="translate(-15.64 -30.96)"/><path d="M137.16,350l2,2.25-1.91,1.95c-.35-1.06-.69-2.12-1-3.18Z" transform="translate(-15.64 -30.96)"/><path d="M135.68,380.74l-3.11.39c-.34-2.69-.69-5.37-1-8.05l1.88-.49Q134.56,376.67,135.68,380.74Z" transform="translate(-15.64 -30.96)"/><path d="M127.43,330l-2.35,1.11c-2.48-4.15-5-8.29-7.88-13.19l4.12-2.06Q124.38,323,127.43,330Z" transform="translate(-15.64 -30.96)"/><path d="M112.44,306.31l8.07-6.22v9.12Z" transform="translate(-15.64 -30.96)"/><path d="M118.5,338.36c-1.37-4.18-2.79-8.5-4.21-12.81l2.25-1.07,6.17,10.26,6.73,1.7-.3,1.92Z" transform="translate(-15.64 -30.96)"/><path d="M129.32,341.71l1.19-.85,2.9,3.54-1.69,1.31Z" transform="translate(-15.64 -30.96)"/><path d="M130.79,384.72c0,.35,0,.69,0,1l-2,.38-.18-1.57Z" transform="translate(-15.64 -30.96)"/><path d="M118.55,459.64l-6.61-1c.14-.78.27-1.57.41-2.35l6.57,1.37C118.8,458.33,118.67,459,118.55,459.64Z" transform="translate(-15.64 -30.96)"/><path d="M123.7,459.77q-1.9-4.9-3.83-9.81l1.89-1.18,5.28,9.08Z" transform="translate(-15.64 -30.96)"/><path d="M166.64,365.61l-3.57-14,1.69-.48L168.93,365Z" transform="translate(-15.64 -30.96)"/><path d="M209.51,257.91c-2.9-2-6.19-3.78-4.28-7.33l2.81-1q1.69,3.76,3.38,7.54Z" transform="translate(-15.64 -30.96)"/><path d="M216.69,257.83l-1.95-3.92,1.86-.93,2,3.91Z" transform="translate(-15.64 -30.96)"/><path d="M249.22,256.93l-4.74-2.32,1.15-2.31,4.61,2Z" transform="translate(-15.64 -30.96)"/><path d="M255.34,256.13l-1-2.66,5.26-1.45.7,2.35Z" transform="translate(-15.64 -30.96)"/><path d="M299.22,249.74c.84-2.44,1.49-4.31,2.7-7.81l7.71,10.88C304.07,258,302.67,252.27,299.22,249.74Z" transform="translate(-15.64 -30.96)"/><path d="M322.78,250.22l-.52-4.62,2.24-.33.69,4.59Z" transform="translate(-15.64 -30.96)"/><path d="M328.19,248.79c-.31-8,2.24-8.4,7.64-5.48Z" transform="translate(-15.64 -30.96)"/></svg>