<svg id="detail-zuckerbanket-camel_Bild" data-name="detail-zuckerbanket-camel Bild" xmlns="http://www.w3.org/2000/svg" viewBox="0 0 283.29 500"><path d="M272,14.67a1.29,1.29,0,0,0,.28-.56,19.35,19.35,0,0,0,.43-6.57c.1-.51.21-1,.3-1.45l-1.3-3c0-.12-.06-.24-.11-.36A4.84,4.84,0,0,0,270.14.46a1.87,1.87,0,0,0-3,.64,10,10,0,0,0-.74,3c-.08.92.11,1.88-.05,2.79s-.51,1-1.3,1.15a11.16,11.16,0,0,0-3.16,1.13,1.34,1.34,0,0,0-.31.26,59.69,59.69,0,0,1-7.89,1.11c-1.45.15-2.91.33-4.35.61-1.16.23-2.31.64-3.48.83a55.91,55.91,0,0,0-7.09,0,1.6,1.6,0,0,0-1.18.67h0c-1.74.93-3.25,1.68-4.71,2.54s-2.8,1.8-4.45,2.86c-2.29,3.62-5.52,6.11-10.82,8.29h-2.38c.63,2.88,3.8,1.05,4.44,2.68,1.46.06,2.63.14,3.79.14a14.29,14.29,0,0,0,4-.16,28,28,0,0,0,4.43-2.21c2.07.46,4.51,1.59,6.59-.55l2.54,1.3,5.62-2.1c.95.57,2,1.29,3.07,1.83a5,5,0,0,0,2.53.7,49.11,49.11,0,0,0,5.1-1.15l6.07,2.25c.46,4.9-19,161.47-19,161.47,0,1.2-.89,12.55-1.37,17.33-.17,1.68-.53,3.34-.7,5-.2,2-1.81,3-2.8,4.28.44,1.48.82,2.74,1.18,3.94a4.37,4.37,0,0,0,5.12.18c.13-.08.16-.32.31-.65l-2.44-1c0-.53.05-1,.07-1.32l3.58-2.14H251l2.2,1.71c0,.5-.09.93-.13,1.44l-2.58,1.07c.23,1.13.46,2.19.61,2.91L246,230.15c-2.85-.57-4.28-3.35-6.73-4.81-.34.48-.58.82-.89,1.24l1.84,2.23-1.82.86-1.63-1.46c.37-1.23.6-2,.79-2.58l-1.08-2.58,3.16-1.33c-3.12-3-7.66-2.24-10.75-4.43l-3.37-.71A14.13,14.13,0,0,0,223,212c-1.11-1.39-2.47-2.56-2.1-4.69.1-.6-.57-1.45-1.09-2-1-1-2.12-2-3.28-3l-2,1.73c2.8,3.27,4,7.07,5,10.84l-1.5,2.51,1.13,1.94,3.42-1.83c.12-.64.25-1.29.46-2.34.59,1.7,1,2.94,1.47,4.19a52.49,52.49,0,0,1,5.67.46,50.56,50.56,0,0,1,5.43,1.62c-.17,2,.69,3.88-1,5.46l-1.46-2.56c-1.73,1.56.11,4.22-2.4,5.32l-2-1.5-1.92,3c-1.3-.24-2.49-.53-3.7-.64-.3,0-.66.46-.95.69l2,2.53-1.64,1.85c-1.66-1.77-1.84-3.9-2-6.12a11.73,11.73,0,0,1-6.93-4.26c-2.7-3.43-4.9-7.26-7.34-10.89a6,6,0,0,0-1.1-1c-.42,3.15,2,5.2,2.61,7.82-1.7,1-3.1-1.38-4.78.11,1.77,2.66,4.59,2.76,7.31,3,1.51,1.62,2.91,3.13,3,5.56,0,1,.89,2,1.49,3,.73,1.13,1.59,2.17,2.52,3.43l-3.78,1.49h-5.75a19.83,19.83,0,0,1-8.9-10.26c-1.62-4.21-3.7-8.44-2.7-13.23-.46-1.48-.93-2.95-1.42-4.5l2.55-1.24a13.73,13.73,0,0,1,8-7.53c3.72-1.28,7.48-.24,11.3.11v-1.45c-1.18-1-3.07-.62-3.82-2.57l3.56,1.28.35-.46-2.36-3.1,1.12-1.64c.61.12,2.81,0,3.57-1.36.53-.94-.34-3,0-3.83-.05-.58,2.5-2,1.85-3.15-.49-.9-1.61-1.14-1.91-1.35.19-1.76-1.2-1.15-1.2-2.35.21-.18,4.31-3,3.36-4.33-1.56-2.18-7.54-4.72-8.64-6.25a11.44,11.44,0,0,0-2.39-1.85,12.1,12.1,0,0,0-7.13-1.92,12.56,12.56,0,0,0-7.16,4.52c-5.74,7.81-2.5,11.68-2.5,13.63.2.45.62,1.34,1.18,2.55-.82,0-1.44.19-1.82,0a32.68,32.68,0,0,1-3.28-2.35c-1.22-1-2.37-2-3.43-2.92-2.45,1-5.1-1.07-7.18,1.74-.23,1-.57,2.36-.94,3.84l2.19,1.18,2.72-3.56,4.1,3.94,7.21,1.53c0,2.24-2,2.66-3.38,3.48-2.54-.43-4.87-1.4-7.23-1l-3.45,3.22,1,2.28c.52-.94.95-1.69,1.26-2.24a46.78,46.78,0,0,0,5.09,1.14,45.93,45.93,0,0,0,5.12,0l4.28-2.64,2.28,1.4a14.41,14.41,0,0,0,0-2,16,16,0,0,0-.58-1.91c2.74.58,2.74.58,4,1.59-.2.66-.41,1.34-.71,2.3,1.28-.13,2.28-.14,3.25-.34,3.3-.68,3.79-.6,6.59,1.53-1.82.35-3.6.59-5.34,1a13.71,13.71,0,0,0-6.93,4c-.46.5-1,1-1.43,1.46s-.91.95-1.53,1.61c-.08-3,1.77-4.58,3.39-6.53l-1.95-.78-3.38,5.16c-1.2,9.68,0,19,4.6,27.66-.58,1.09-1.1,2-1.55,2.91l-1.67-.21.74,2.7c-2.45,2-2.57,4.95-3.44,7.33l.79,3.11,1.66.66c1,2.38,2.16,4.73,4.47,6.19,1.2.68,3-.63,3.78,1l-2.19,2.91-2.28-2.81c-.12,1.23-.18,1.81-.25,2.47,1.72.84,3.46,1.53,3.52,3.75,0,.26.43.5.62.77q4.92,6.67,9.81,13.35a26.24,26.24,0,0,0,6,6.27c-.73-3-2.74-4.21-3.91-6-1.3-2-3.07-3.61-4.47-5.51s-2.41-3.81-3.66-5.7-2.63-3.82-4.14-6l3.19-.53-1.16-2.2a5.65,5.65,0,0,1,3.58,4.39l-2.59-.21c.5,2.28,2.6,2.82,3.48,4.31,2.63,4.47,6.69,7.93,8.9,12.69a5.34,5.34,0,0,0,1.4,1.45c.13.12.42.06.67.08l.9-1.94,2.24,2.26L218,284c-1.15-1.37-2.41-2.8-3.61-4.28s-2.43-3.21-3.68-4.78-2.49-2.91-3.63-4.44-2-3.57-3.45-4.95c-1.26-1.24-1.28-3.68-4.25-4.12,2.88,3.53,4.46,7.22,7.2,10.15a10.18,10.18,0,0,1,1.16,1.54,44,44,0,0,0,8.32,10.64,4.25,4.25,0,0,1,1.1,2c.19.79,0,1.62-1.33,1.6-3.63-3.2-5.19-8.28-9.47-11.14l9.39,14-1.1,2.78c-2.47-2.08-3.28-4.89-5-7s-2.45-5-4.57-7.58c-.5,4.41,2.67,6.58,4.23,9.42,1.4,2.57,2.57,5.6,5.92,6.73v5.66c2.3-2.28.31-5.28,1.72-7.46.41,0,.76-.05.83.06a41.77,41.77,0,0,0,6.13,7.46c.27.25.26.81.37,1.23l2.69-.69c1.46,3.08,3.06,5.95,4.21,9s1.89,6.28,2.81,9.43c.75-3.72-.76-6.9-2.12-10.11s-2.81-6.54-4.26-9.94l4.43-3.66c2.22,3.76,4.73,7.21,5,11.41l-1.39,2.82c.7,3.24,1.35,6.28,2.06,9.54-1.86,1.55.46,4.42-2,6.2h-3l-1.69,4.07c-1.92.18-2.56-1.39-3.4-2.47-1-1.31-2-2.34-3.87-2.33-.67,1.39-.27,3.28-2.15,4.16-2.63-1-3.3-4.41-6.14-5.56-.91,1.63-1.86,3.18-1.32,5.73.45-.95.72-1.41.89-1.91s.31-1.19.56-2.22c2.95,1.93,3.74,5.9,7.41,6.52.49-1.61.92-3.07,1.41-4.69,2.91,1.31,4,4.88,7.3,5.3.59-1.32,1.07-2.59,1.73-3.76.26-.45.94-.66,1.81-1.23.5,2.36.91,4.29,1.46,6.86.51-1.6.86-2.67,1.21-3.76,1.94,1,1.94,1,3.57,3.19-1.09,4.79-2.21,9.67-3.33,14.56-1.9-.49-1.9-.49-3-1.81.19-1.82.37-3.49.54-5.16a8.72,8.72,0,0,0-.56-5c-.41,3.28-.76,6.1-1.07,8.62L230.27,349c-2.38-1.27-3.8-3.72-6.19-5-1.15,1.8-1.3,3.82-2.68,5.34-2.78-1.74-4.25-4.82-7.25-6.12-1.21,2-.73,4.48-2.93,6.08l-3.07-5.59-2.78,3.17,3.2.56c.39.86.79,1.87,1.32,2.82s.87,2.27,2.18,3.18l2.16-7.53c2.21-.16,2.86,1.77,4,2.88s2.14,2.85,3.94,3.83c.8-1.43,1.77-2.62,1.86-4.29,0-.57.53-1.12,1-1.95l6,6.58a11.79,11.79,0,0,0,1.14-2c.25-.74.26-1.55.47-2.3.07-.25.44-.41.76-.68l.7.88a51.61,51.61,0,0,0-.45,5.23,9.43,9.43,0,0,1-1.44,4.79c-.6,1-1.25,2.06-2,3.32l-4.24-4.84c-3.47-.08-2.78,3.92-4.86,5.2-1.44-.53-.77-2-1.52-3.18l-2.59-2.46c-1.88,1.58-.89,4.28-2.68,5.72-.86-1-1.22-2.33-3-2.28.69,1.61,1.29,3,1.88,4.38h2.42c.66-1.21,1.23-2.23,1.92-3.5l3.56,4.25c2.86-.94,1.7-4.32,4-5.47a15,15,0,0,1,5.16,9.63c-1.72,2.14.6,5.52-1.91,8-1.57-1.75.16-3,.3-4.48l-.77-.7c-2.77,2.71-1.34,6.88-3.39,9.94a6.25,6.25,0,0,1-.72-5.44c-.47-1.62-.86-3-1.4-4.88a9.47,9.47,0,0,0-.86,2.44,78.22,78.22,0,0,0,1.29,16.45c.08.39.57.7,1,1.16.9-2.82,1.71-5.35,2.72-8.49-.26-1.63-.26-1.63,1.72-4.45l.93.1c.42,3.85-3.22,7-1.62,11l-2.78,4.36v4.1c-3.6-1.82-3.63-5.06-4.06-8.11-.78-1.1-1.63-2.15-2.3-3.32a32.91,32.91,0,0,1-2.94-5.68c-1.45-4.23-2.3-8.68-4-12.81a22.72,22.72,0,0,1-1.73-7.83l-3.41-9.62a30,30,0,0,1-4.38-9.89,20.15,20.15,0,0,0-2.76-6.11c.39,1.83,1.12,3.55,1.64,5.33s.81,3.6,1.22,5.49l-1.73.71a22.06,22.06,0,0,0,.43,2.31c.63,2,1.37,4,2,6.1a25.65,25.65,0,0,0,1.63,3.95c1.33,2.73,2.88,5.53,2.43,8.84-.29-.08-.6-.07-.69-.21-3-4.29-4.37-9.34-6.31-14.12l0-.33c.47-2.49-1-4.44-1.93-7.16-.19,3.16-.43,5.72.58,8.23.67,1.67,1.18,3.4,1.77,5.09s.82,3.38,1.77,4.69c2.89,4,4,9.05,7.24,12.83.14.15.1.44.2.64.74,1.5,1.5,3,2.26,4.51-1.05.26-2.12.56-3.2.76-.26,0-.58-.26-1-.47l.47-1.82c-1.29-3.13-2.43-6-3.63-8.77a11.07,11.07,0,0,0-1.24-2.13c-2.37-3.31-3.71-7.15-5.53-10.74a18.84,18.84,0,0,1-1.05-2.54c-.81-2.58-1.6-5.16-2.51-8.1a6.21,6.21,0,0,1-1.53,3.52c-.59-1.41-1.12-2.69-1.77-4.22-.51,1.11-.89,1.91-1.29,2.77L193.88,366a3.57,3.57,0,0,1-4.2-.93,19.19,19.19,0,0,0-1.52-3.24c-.66-1.16-1.57-2.27-.33-3.79l2.8,1.74-2.34-5.1-1.22.31c-.66-1.59-1.32-3.16-2-4.74,0,3.68,0,7.27,1,10.7a6,6,0,0,1-.52,4.9,18.25,18.25,0,0,1-2.55-9.78l-2.11.37c-.21,1-.39,1.88-.63,3.06-3.29-2.82-3.51-7.22-6.21-10.11a13.38,13.38,0,0,0,1.21,5.1c1.6,2.91,2.11,6.29,4.13,9.06a3.31,3.31,0,0,1-.25,4.1c-1.47-1.46-1.49-3.24-2.15-4.74s-.94-3.5-3.37-3.93c.86,4.26,4.22,7.46,4.67,12-.7-.12-1.3-.05-1.46-.28a28.93,28.93,0,0,1-1.8-3.16c-.73-1.49-1.13-3.18-2.63-4.7-.36,3.66,2.05,6.17,2.59,9.57l-3.58-4.09a17.37,17.37,0,0,1-1.78,0c-.62-.07-1.22-.24-2.13-.42l1.11,2.24,2.21.26c1.66,3.19,3.32,6.36,4.84,9.29-.37,1.33-.65,2.31-1.09,3.82a56.58,56.58,0,0,0-2.47-6.13c-.95-1.75-.93-4.26-3.39-5.08-1,1.55.25,2.43.73,3.47,1.39,3,3.55,5.77,2.84,9.4-.36-.21-.83-.36-1-.67-1.6-2.84-3.13-5.71-4.72-8.55-.15-.27-.52-.41-.78-.62a59.61,59.61,0,0,0,3,8.63c0,.07-.08.19-.21.46l-1.71-.12-1.58,1.93v5.92c1.19,2.39,2.5,5,3.71,7.42a6,6,0,0,1-1,3.43c-.81-1.79-1.63-3.44-2.32-5.15s-1.35-3.65-2.06-5.61c-.35,1.45-.68,2.83-.94,3.93a35,35,0,0,0,2.08,4.24,6.22,6.22,0,0,1,.47,6.84l-2.41-4.45c.18-.42.43-1,.7-1.66-.4-.61-.76-1.18-1.15-1.73s-.81-1.11-1.22-1.67a5.1,5.1,0,0,0,.24,2c.37,1.74.38,3.65,1.12,5.21a13.21,13.21,0,0,1,1,5.58c0,1,.45,1.94.48,2.91,0,.53-.41,1.07-.83,2.05a23.27,23.27,0,0,1-1-2.25c-.38-1.17-.6-2.4-1.08-3.52-.15-.34-1-.39-1.57-.59.64,3.94,1.22,7.55,1.85,11.44l-1.15,1.47c-.93-3.2-.41-6.25-2.56-8.77l-1,1.28c.44,1,.83,2,1.2,2.84-.23,1.31-.45,2.56-.75,4.23l-3.17-3.06a26.31,26.31,0,0,0,.45,4c.64,2.22,1.48,4.39.52,7.16,1.75-1.55,1.75-1.55,2.42-6.12h2a11.89,11.89,0,0,1-.79,3.41,16.73,16.73,0,0,0-1.81,5.74c-.4,2.19-1.15,4.32-1.72,6.49a17.65,17.65,0,0,0-.8,3.62c-.3,7.67-.55,15.38,2.77,22.57a10.67,10.67,0,0,1,.45,8.71l2,3.83,5.33,4c-.24,1.15-.46,2.22-.65,3.15,1.17,2.13,3.27.82,4.37,1.45l5.79,4.33c.2.5.56,1.42.9,2.31l-.63.91-5.06.79c-.12,1.14-.2,2-.3,3h4.29c1.77-1.72,3.93-2.14,6.48-1.88a63,63,0,0,0,8.13,0,5.88,5.88,0,0,0,1.76-.46c4.08.73,7.8-.91,11.38.41,3.64-.61,7.31.44,11.22-.23l-1.74-1c-4,1.58-7.72-1.28-11.59-.2-.34-.93-.59-1.64-.83-2.32,2.33-1.36,2.35-1.36,6.33-.22,2.12-1.23,4.42-.84,6.77.11.85-.46,1.69-.89,2.52-1.33l-.16-.46-2.22.24-.48-1.85a15.11,15.11,0,0,1,2.64-.58,5.7,5.7,0,0,1,2.21.44c.94.35,1.08,1.28,1.46,2.12a12.37,12.37,0,0,0,2.15,2.59l1.88-2.29-1.88-1.53c0-.62.09-1.15.12-1.6-1.24-1.55-3.35-2.18-3.67-4.39,1.6-1.14,3,.83,4.5.08l2.05,3.09-2.06,1c2.92,0,4.3,1.15,4.5,3.42l2.85,1.33,1.57-.92-2.44-2c.15-.69.26-1.2.39-1.84-2.89-.79-3.58-3.35-4.81-5.6l-1.55-.73c-3.61.58-6.65.83-9.61-.52l-.87,1.3a15.16,15.16,0,0,0-2.15-.32c-1.23,0-2.46.14-3.82.22l-1.52-.83a27.54,27.54,0,0,1-5.09.57,11.67,11.67,0,0,0-4.87.92c.79,1.87,2.57.54,4,1.62l.59,1.93c-2.55.2-4.71-.19-5.42-.91-.18-.85-.37-1.7-.56-2.6-.8-.15-1.46-.25-2.11-.41s-1.28-.4-1.8-.57c-3.1.86-3.3.85-7.53-.4l-2.72,1.06-1.84-2a8.42,8.42,0,0,1,2-.75c1.91-.13,3.83-.13,5.75-.21.16,0,.31-.29.59-.55-.12-.34-.25-.73-.44-1.3l-9.6.53c-2.21-.38-5.23-2.3-8.18-.72-3-.75-5.68-1.48-6.28-4.74,1-4.23,1-4.23-.73-8.13a27.92,27.92,0,0,1-2.06-6,52.35,52.35,0,0,1,.26-18.76c.54-3,.93-5.94,2.26-8.78,1-2.17,1.32-4.69,2-7.42l4.13-7.13a10.3,10.3,0,0,0,1,.34c.43.1.86.16,1.08.2l7.75-7.89,3,.41.23-2.92c3-5.76,8.36-10,10.13-16.41l2.2.25c-.27-1.2-.46-2.06-.67-3,2.43-2,1.49-5.06,2.27-7.61,7.35,4.3,15.18,6.32,23.55,7.76l3.22,3.93a7,7,0,0,0,.22,2.06c.88,1.91.4,3.43-.92,4.95a5.56,5.56,0,0,0-1.14,4.67l2.41,3.14c-1,.82-1.82,1.41-2.57,2.06a23.82,23.82,0,0,0-2.42,2.29c-2.24,2.63-2.72,5.84-2.85,9.15-.06,1.69-.1,3.38-.21,5.06,0,.26-.41.5-.76.91l-2.16-1.09c.08-1,.15-1.85.23-2.83-2,1-2,1-1.93,3,.73,2.13,1.28,3.7,1.86,5.38l1.72,1,5-.77c3.2-2.46,3.28-5.5,2.38-8.39.19-1.85.28-3.3.5-4.73.47-3.11.79-6.3,3-8.82a6.38,6.38,0,0,1,1.85-1.05c1.06,1.89,1.68,3.56,1.35,5.42-1,5.5-2,11-3,16.64l-2.82,1.59.05.37,4.47-.62,1.68,1.07c3.24.5,5.43-.56,6.94-3,.24-2.05.47-4.05.74-6.4L230,417c.34-1.86.75-4.05,1.09-5.87-.72-2.75-1.36-5.22-2.17-8.35-.12-.14-.74-.8-1.28-1.52s-1.14-1.64-1.81-2.61a26.13,26.13,0,0,1,1.84-4.3,27.86,27.86,0,0,1,3.11-3.54c-.11-1-.21-2-.31-3l1.09-.66c.68,1.2,1.66,2.16,1.32,3.7l-1.37,1.55c.64.59,1.22,1.11,1.62,1.49l7.61.44.77-1h6.09l1.94-1.49c1.54.63,1.81,1.89,2.15,3,.44,4.72.87,9.43,1.64,14.09.66,4,2.92,7.86,1.15,12.11a1,1,0,0,0,0,.34c-.24,4.93,1.12,9.54,2.57,13.65a39.7,39.7,0,0,0,.24,4.73c.36,2.21.7,4.42.87,6.66.37,4.85.93,10.12.24,15.12a34.2,34.2,0,0,0,.1,11.06c.29,1.59.48,3.2.77,5.17l-8-.67c-1.34-.12-2.64-.14-3.5,1.15-1.72.7-1.09,2.55-1.91,3.91,3.8,1,5,4.56,7.43,7.21-1.57.84-2.86.3-3.89.24l-11-11.46c-.36,1.66-.26,3-1.85,3.69L234,480.34l-1,1.27,4,5.21c.64,1.07,2.49,1,2.53,2.95a21.11,21.11,0,0,1-2.37.28c-.89,0-1.78-.12-2.57-.18-2.89-4.92-5.71-8-8-8.5a8.93,8.93,0,0,0,1.29,2.44,12.5,12.5,0,0,1,2.71,4.18c.8,1.71,1.66,3.48,3.77,4.08,3-.26,6-1.07,9,.41l2.77-1.23L249,492a7.06,7.06,0,0,1,7.31.36,7.32,7.32,0,0,1,2-.9c1.55-.12,3.12,0,4.73,0,.28-.95.5-1.67.7-2.35l2.44-1.24c1.58,0,3.06,0,3.85,1.76l-.83,1.81-4.29-.53c0,.34,0,.48.07.55s.3.41.46.41a10.5,10.5,0,0,1,6.71,2.73,6.24,6.24,0,0,0,2,.71l.27-.46-2-2c-1.88-2.74,1.16-5.58-.95-8.14l-3.42,1.22a9,9,0,0,0-1.42-1.64c-3.73-2.57-5.26-6.41-6-10.59a46.28,46.28,0,0,1,.5-18.49c-.35-2.37-.73-4.81-1.07-7.26-.52-3.76-.8-7.58-1.62-11.28a22.27,22.27,0,0,1-.32-4.81l2-.77-1.16-3.26-2.14-.77c-.47-2.37-.93-4.45-.32-6.8a8.63,8.63,0,0,0-.46-6,9.17,9.17,0,0,1-.65-3c-.6-5.46-1.22-10.93-1.67-16.41-.16-1.94-.5-3.71-1.63-4.79a31.65,31.65,0,0,0,.48-5.4,18.33,18.33,0,0,1,.95-7c0-.13-.11-.33-.21-.6l-2.39,1.47-.63-2.61-1.6,2.29c-.19,1.5-.37,3-.56,4.55.39,2.22,1.94,4.37,1.67,6.84a4.25,4.25,0,0,1-.84.37,4.86,4.86,0,0,1-1-.13c-1.8-3.44-5-6.38-5.47-10.79l1-1.78c-1-1.91-1.75-3.89-.85-6.14h1.64l1-1.95,2.41,1.15c-.13-2-2.13-2.89-1.49-5l4.38.79-2.17-6.92c.26-.76.68-2,1.21-3.49l2.62,3.87c.14-.79.32-1.16.22-1.43-.83-2.21-1.71-4.4-2.64-6.78V348c-1.48-2.35-1.48-2.35-.51-4.37.79,1.67,1.48,3.1,2.35,4.93.12-1.84.21-3.18.29-4.45l2.23-1.84-1.33-1.54c-1.27-4-1.55-7.94,1-11.18-.35-2.65-.65-4.93-.95-7.17l-2.13.78,1.68,5-1.31.72a9.32,9.32,0,0,1-3.46-7.84c-.81,1-1.28,1.6-1.75,2.18l-2.25-.46c-2.81,1.32-1.86,5.16-4.86,6.06-1.73-1.15-1.17-2.83-1.08-4.33s.41-3.12.45-4.68c.07-2.37-.07-4.74,0-7.12a12.62,12.62,0,0,1,.44-2.22l2.52.32-3.32-7.55c.07-.85.13-1.61.19-2.35-2.4-2-4.23-4.27-4.42-7.63a12.79,12.79,0,0,1,.93-1.2,3.59,3.59,0,0,1,.82-.45c4.92,5.52,7.13,12.51,10.49,19,1.23-1.48.33-2.61-.13-3.42-3.23-5.67-4.89-12.26-9.82-17.06.37-.87.77-1.77,1.31-3,4.9,4.47,6.52,10.54,9.7,15.46l1.57.87c.38,2.68.12,5-1.28,6.84.65,2,1.86,3.63,1,5.58,1.5,1.27,3.11.19,4.41.38l3.63,5.57.32-.14c-.19-.83-.37-1.67-.58-2.59l1.67-1.81a6.12,6.12,0,0,1,2.63,4.25,5.41,5.41,0,0,0,.61,1.48l3.65-1.56,1.43,1.16c2.9-.31,5.32-2.8,8.33-1.69.13,1.2.24,2.17.33,3,2.29.87,4.53,1.4,6.4,2.55a6.88,6.88,0,0,1,3.51,5.44c-2.81-.43-3.7-3.09-5.93-4.39v3.54c1.79,1.13,3.3,2.48,3.1,5.3l-2.56-2.3-4.83-2.25.16-.23L271.69,329l.63,3.89a6.57,6.57,0,0,1,3,3.38c.05.16-.06.38-.1.57l-2,.7,2.93,2.07,1.3-1.62c-.07-.93-.12-1.63-.21-2.74l6.49,3.64a13,13,0,0,1-.49-2.44,8.42,8.42,0,0,1,.48-2.14c1.27.52,2.18.94,3.12,1.25.24.08.59-.18,1-.33-.19-1-.37-1.86-.69-3.42l4.15,3.63c1.35-.2,1.17-1.49,1.69-2.29.07-.12.38-.09.43-.1.28.59.55,1.13.87,1.77,1.64-1.26.83-2.62.65-4l2.11-1.82,2.61,2c-.28-1.41-.43-2.11-.57-2.81l-3.3-.19c-1.23-2-2.23-3.94-3.49-5.65a7.5,7.5,0,0,1-1.69-4.68,7.66,7.66,0,0,0-2.66-6.15c-1.05-5.75-5.1-9.79-7.28-14.68l-3.47-2.24a5,5,0,0,1-.55-.48c-2-3-4.06-5.82-7.4-7.69-2-1.11-3.36-3.28-4.84-5.11-2-2.51-3.82-5.2-5.8-7.75s-4.64-4.88-5.48-8.51l.76-1.09c2.15,1,4.36,1.6,6.1,2.86a9.42,9.42,0,0,0,6.42,1.95l-.49-2.65c-2.45-1.07-4.72-2.49-7.18-3a13.55,13.55,0,0,1-5.43-2.44,6.07,6.07,0,0,0-2.13-.56c-.9-2.17-1-4.78-3.91-6,2.81-7.4,1.61-15.05,2.77-22.91l1.08-1.72c-.13-.84-.22-1.48-.33-2.14l3-2.5c-.08-1-.15-1.93-.22-2.82l1.78-2.08c-.12-.91-.22-1.69-.36-2.84l-4.68-3.53c.11-1.51.23-3.53.39-5.54a18.94,18.94,0,0,0,.32-3.32C251,203.8,271.35,22.5,272,14.67Zm-40.3,2.55c2.18-.46,3.82-2.44,6.31-1.89-.79,2.71-3.08,4-6.53,3.58C231.54,18.39,231.6,17.86,231.69,17.22Zm-2.29,9-3.19,1.3c-.44-2.62,1.87-2.41,2.73-3.44s2.08-2.2,3.29-3.47l.6,1ZM259.11,25l-8.29,1-3.27-2.88,2.77-3.95c-1.31.3-2.08.24-2.45.6a22.05,22.05,0,0,0-3.06,3.57,4.3,4.3,0,0,1-3.05,2.22l-1.31-1c2-3,5.49-4.58,6.68-8.48-2.52,1-3.9,2.7-5.42,4.26s-2.89,3.12-4.48,4.51c-1.27,1.12-2.28.93-3.83-.4l2.5-4.31,6.16-5.32c.77,0,1.53,0,2.29,0A1.41,1.41,0,0,0,245,15a7.77,7.77,0,0,0,1-.1h.06s.06,0,.09,0l.12,0a2.05,2.05,0,0,0,.34-.07c1-.19,1.91-.47,2.88-.69a37.35,37.35,0,0,1,4.59-.68A52.13,52.13,0,0,0,263.36,12a1.34,1.34,0,0,0,.69-.49,7.34,7.34,0,0,1,1.78-.33c1.22,5.54-.95,10.45-2.08,15.56C261.74,26.84,260.47,25.12,259.11,25ZM248.52,212.81a4.39,4.39,0,0,1-.45,1.34l-3.46.84c-.42-3.17,22.1-197.26,23.43-200,.12-.23.53-.31.9-.5a3.81,3.81,0,0,1,1.24,3.68c-.25,1.66-.37,3.33-.57,5C269.44,24.62,248.44,208.83,248.52,212.81Zm-52.39-26.89c-1.2-.18-1.33-1.27-1.39-2.46-.07-1.43-.2-2.86-.32-4.47a30.38,30.38,0,0,1,1.91-5.13,33.71,33.71,0,0,1,3.57-4.46l3.9-1.09,1.36,1.58-4,9Zm14.07,6.8c-2.28-.22-4.28-.47-6.3-.6a4.48,4.48,0,0,1-4.5-3.28l4.8.74,2.77-1.64-.23-1.94-3.87,1.21-2.14-2a5.27,5.27,0,0,1,1-4.1,21.88,21.88,0,0,0,4.09-9.89,2.13,2.13,0,0,1,.48-.88,3.8,3.8,0,0,1,.67-.56l3,.79c.91,1.41,8.16,5.46,8.87,6.41s-2.14,1.68-3.06,3.36a4.08,4.08,0,0,0,.06,2.37c.14.61,1.3,0,1.6.55a2.77,2.77,0,0,1,.22,1.17c0,.25,1.35.59,1.21,1.06-.21.72-1.95,1.65-2,2.14-.15.8.59,1.34.75,2.69s-4,.27-5.79.59Zm1.34,290.66c.55.94,2.54.88,2.19,3.11h-5c-.73-1-2.21-1.41-2.36-3.35Zm-8.88-.31c.78.85,1.5,1.65,2.24,2.47-3,1.72-4.87.9-5.22-2.28Zm-7.52,8.4c.63.19.67.48.9,2.25-1.12,1.46-2.36.83-3.78.1-.24-.54-.54-1.25-.81-1.87C192.61,490.28,193.93,491.1,195.14,491.47ZM185.31,493a3.9,3.9,0,0,1,.39-.9,4.46,4.46,0,0,1,1-.23c.77,0,1.55.1,2.43.16l1.38,1.73c-1.92,1.07-1.92,1.07-5.21.74A12.09,12.09,0,0,1,185.31,493ZM166.16,391c.37-.78.7-1.47,1-2.1,1.27-.18,3,3.38,3.12,6.6Zm7.37,1.55c-.8-2.89-1.55-5-1.15-7.25h2.51A29.25,29.25,0,0,1,173.53,392.54Zm11.9-10.42c-1.13-.91-2.22-1.89-3.5-3l-1.84.42c-1.25-1-2.26-1.95-1.29-3.75l1.8-.17,5.83,4.42c0,.6.06,1.33.1,2.2C186,382.2,185.62,382.28,185.43,382.12Zm19.33,1.13-7.27-4.12c-.43-.67-1.22-1.9-2.05-3.21.13-.63.26-1.28.4-1.95-1.85-1.31-4.28-2.26-3.73-5.77l3.37.16c.59,1.32,1.17,2.6,2.06,4.56l1.12,1.05c.13.93.24,1.81.35,2.61l3.05,1.64c.64-1.37,0-2.3-.93-3.28-1.44-1.56-3-3.12-3.29-5.38a6.1,6.1,0,0,1,0-1.22c-.7-1.5-1.23-2.69-1.8-3.87a8.89,8.89,0,0,0-1-1.71c-1.64-2-2.16-4.41-2.58-6.84-.1-.52.36-1.14.64-2,2.08,2.29,2.38,5.1,3.62,7.44a17.49,17.49,0,0,0,.91,2.16c2.93,4,4.25,8.59,5.28,12.33l3.78,6.23Zm11.69,37.36c0,.39-.42.73-.69,1.15-2-3.08-1.9-6,.4-9.23.33.66.83,1.2.81,1.72C216.89,416.37,216.68,418.5,216.45,420.61Zm12.64,3.92-1.85,3.81L225.09,430c-1.32-.72-1.4-2.11-.24-4.53l2.1.47Zm-3.55-5.34a24.29,24.29,0,0,1,1.31-7.71C228.8,414.54,228.21,417.74,225.54,419.19Zm1.91-15.26-1.14,1.91a13.52,13.52,0,0,1-1.69-.56c-.58-.31-1.12-.7-1.58-1a2.53,2.53,0,0,1,.31-3.21C225.66,401.1,225.66,401.1,227.45,403.93Zm14,82.55a10.9,10.9,0,0,1-1.42,0l-2.29-2.15,1.22-2.18c1.64-.23,2.74,1.14,3.4,4A3.82,3.82,0,0,1,241.43,486.48Zm18.8,2.9c-1.36.84-2.56.51-3.58.56-1.84-2-3.58-3.94-5.41-6l1.11-1.54c-.14-.19-.21-.45-.37-.52-.72-.3-1.48-.53-2.2-.83-1.17-.5-2.11-1.19-1.91-2.65,1.14.09,2.22.72,3.47.07a4.06,4.06,0,0,1,2.33-.08c1.53.24,3.05.62,4.69,1-.14.87-.29,1.81-.43,2.71-1.48.11-2.44-1.69-4.17-.51ZM235.64,349.47l2,1.58c-.7,2.67-1.36,5.17-2.12,8l-1.11-1.27C234.81,355.09,235.19,352.5,235.64,349.47ZM235.38,366c.74,1.64.74,1.64.46,3.27l1.81.85c-.06.46-.11.87-.16,1.21h-4.12Zm7.26,25.53-3.06.62c-2.61-4.22-2.7-5-.8-7.16ZM238.74,363l-1.55.28-.19-.53,1.63-.92,1.47-2.54c2.39,1.17,1.59,3.4,2.28,5.22C240.15,365.37,239.68,363.62,238.74,363Zm6.76-39.16a6.12,6.12,0,0,1,1.21,4l1.46.41c1.68,2.23,1.49,4.94,2.27,7.63L248,337c.13,1.08,1.37,2.6-.27,4.17l-2.3-2.4,1.54,5v6.7c-3,0-.92-3.3-3.18-4,.1,4.41,2.65,8.5.94,12.95l-1.42.07a17.43,17.43,0,0,0-.46-3.65,17.66,17.66,0,0,0-1.82-3.15c-.59-3.28.67-6.17,1.75-9.1a15.09,15.09,0,0,0,.38-1.89l-1.73,2c-.26-.21-.72-.44-.69-.59.53-3.15.48-6.5,2.79-9.14l-.9-1.26A39.47,39.47,0,0,1,245.5,323.87Zm25.19-33.78c1.89.56,2.29,2.24,3.05,3.72a34.41,34.41,0,0,1,2.31,4.19c-.64-.61-1.51-1.1-1.89-1.84a6.91,6.91,0,0,0-3.22-2.72C270.28,291.88,270.28,291.84,270.69,290.09ZM258.32,290c-.3-1.46-.58-2.85-.88-4.32a2.09,2.09,0,0,1,2.72-.18,24,24,0,0,1,6.3,4.95l-1.61,2.11,2.9,1.74c0-.61.05-.93.08-1.57l3,.74c-.11.61-.22,1.22-.33,1.79,1.22,2,4.34,2.83,3.58,6.22L271.05,300l-1.77-2.47c-3.84.79-6.17-2.56-10-3.34l-1.89.25-2.67-6C256.19,288.12,256.76,289.88,258.32,290Zm15.9,15.21c-2.26-1-4.22-1.9-6.19-2.77-.38-.17-.77-.47-1.14-.44a6.45,6.45,0,0,1-6.54-3.61,10.81,10.81,0,0,0-.9-1.14,3.09,3.09,0,0,1,.4-.51c.18-.12.44-.36.56-.31a117,117,0,0,1,12.41,6.23,4.42,4.42,0,0,1,1.18,1.18C274.16,304.06,274.11,304.44,274.22,305.22ZM249,286.78c-.48-.56-.92-1-1.31-1.53-1.39-1.75-2.75-3.52-4.14-5.27-.53-.67-.9-1.3.2-2.24l7,7.86Zm-.19,7.26c-2-2-7.29-10.45-7.8-12.7l1.76-.24c2.43,2.89,3.76,6.52,7.59,8.17C250.5,290.94,251,292.87,248.85,294Zm-5.16-19.21,1.15-.57c4.89,5.42,4.89,5.42,4.7,7.64C247.84,279.19,245.25,277.51,243.69,274.83Zm6.78,3.95c-1.32-1.53-2.62-3.09-3.92-4.64a49.34,49.34,0,0,1-3.2-3.92,12.34,12.34,0,0,0-4.85-4.6c-.3-1.27-.6-2.52-.95-4l1.31-.06,13.79,16.16-1.16,1.63A4.36,4.36,0,0,1,250.47,278.78Zm-15-27.15-1.89-3.69,2-2.22L238,247.2c.32,1.05.62,2.08,1,3.47ZM248,258.39c.25,0,.56-.18.64-.1.74.8,1.27,1.85,2.55,1.91l1.16,2.22-3,3.64-2.8-2.08c-.09-.92-.18-1.8-.23-2.32-1.47-2.44-4.87-1.24-5.78-4.19l2.29,1,1.64-1.1,1.73,2.68h1.86C248.06,259.41,248,258.9,248,258.39Zm-40.9-3.65-3.66-2.59-3,.55-2.73-2.95.3-.18-3.11-6.07,1.73-1.5c-.18-.62-.4-1.45-.67-2.42l1.88-1.43c0-.21-.09-.7-.16-1.34l2.85-4.13c1.47,2.32,2.69,4.26,4,6.33l2.56-.31,1.73,1.43,6.25-1.43,3.17,1.58c4.09-1.26,6.07-5,8.79-8,4.35.58,8.34-2.28,12.68-.88l2.4-1.37,1.85,2,3,.56a33.79,33.79,0,0,1,.14,4.35c-.35,3.57-.91,7.12-1.26,10.7a5.35,5.35,0,0,1-2.49,4.36l-2.13-.79-1-2.94c.53-3.65,1.13-6.8,1.38-10,.12-1.49-.41-3-.75-5.21-1.64,2.52-.7,4.67-1,6.64s-.47,4-.72,6.17a3.44,3.44,0,0,1-2.84-2.35,21.71,21.71,0,0,0-5.2-7.23l-1.48.78c1.1,2.35,4.37,2.88,3.65,6.26l-2.8-2.05-3.44,4a6.68,6.68,0,0,1,.4.82l2.85-2.92,1.6,1.42c.11,1.9.19,3.41.29,5.11l-2.42.56-1.86,2.32-2.67.13-2.31,2L218.69,253l-1.4,2-2.42.87-4.22-1.39Zm9,10.9a51.31,51.31,0,0,1-3-5c-.7-1.51-3.22-2-2.42-4.66,3.15,1.65,6.21,2.67,8.3-1.11l4.15,1.39L226,254l2.75.71,1.65-1.89c3.06,1.52,3.2,4.45,3.94,7.11-4.24,4.49-9.16,6.85-15.44,5.57-.17.64-.28,1-.38,1.4Zm5,8.54,1.12-.93,3.86,3.22c-.18,1.44-1,1.64-2.34,1.34Zm3.83,25.1-4.44-5.14.5-.61c2.3.57,3.4,3,6.09,3.79Zm10.18-11.15a61,61,0,0,1-4.53,5.86,21.91,21.91,0,0,1-3,2.41l-5.46-4.6a10.54,10.54,0,0,1-2.26-6.91c1.82-4.31,6.22-5.61,9.73-8.38a8.07,8.07,0,0,0-1.14-.6,3.19,3.19,0,0,0-.62-.12c-1.65-1.29-2.76-2.19-3.92-3-1.44-1.07-2.91-2.09-4.37-3.14a2.38,2.38,0,0,1-1-2.61,21,21,0,0,1,2.63-.06A13.93,13.93,0,0,0,230,265c.94-.56,1.89-1.14,2.79-1.77.71-.51,1.36-1.11,2.11-1.73,2.19,1.67,1.75,4.44,3.15,6.3s2.7,3.85,4.23,6.06a10.18,10.18,0,0,1-1.53,5.41C238.8,282.18,237.1,285.24,235.15,288.13Zm13.26,11.49a5.94,5.94,0,0,1-.94.82l-8.68-14.39,1.13-2.39c3.4,5.06,6.75,9.54,9,14.79A8.88,8.88,0,0,1,248.41,299.62Zm4.26,13.74-1.31,1.85h-2.48l1.05-6.47c2.48-.25,2.48-.25,3,3.51H255c.05.76.1,1.41.17,2.47Zm7.84,3.57c-2.44,0-2.71-2.33-4-3.79.26-.93.44-1.56.65-2.32l-2.19-.43-3.05-3.82c.68-1.41,1.81-.93,3-.74l7.25,9.15Zm13,2.43-3-2.51c.22,1.19.33,1.81.47,2.54a6.7,6.7,0,0,1-5.15,1.18c-.66-1.09-1.66-2.14-.45-3.62l3.9.23.16-.45-3.4-1.6-2.3.7-6-9.06c2.17-1,2.8.51,3.56,1.64s1.46,2.47,2.39,4.06c2.24,1.62,5.32,1.71,8.47,2.37C273.88,315.74,273.8,317.35,273.47,319.36Zm-10.6-12.23a17.12,17.12,0,0,1,5.86,1.81l1.59,3.13C265.71,313,263.38,311.43,262.87,307.13Zm22.19,13.76c-.95-.58-1.83-1.28-2.73-1.94a19.31,19.31,0,0,0-7.79-3.91l-2.92-4.43-.43-1.84L265.61,305l-2.63.75-3.33-1.24c-.13-.84-.24-1.57-.36-2.28.35-.11.58-.27.72-.21,1.12.5,2.23,1.05,3.56,1.69l1.79-.55a9.94,9.94,0,0,1,6.46,3.73L276,308c.64.81,1.42,1.77,2.22,2.77l-1.11,1.42c1.87,1.86,3.49,4,6,5.11,1.58.69,2.62,2,3.8,3.9A6.34,6.34,0,0,1,285.06,320.89Z" transform="translate(-108.36 0)"/><path d="M271.55,328.88l.14.14,0-.23Z" transform="translate(-108.36 0)"/><path d="M283.86,339l-.11-.07s0,.1,0,.15Z" transform="translate(-108.36 0)"/><path d="M272.33,332.94v0l-.07-.05Z" transform="translate(-108.36 0)"/><path d="M283.1,476.38l1.62-1.8c1.59-.07,2.65-.1,3.71-.17a34.82,34.82,0,0,1,5.61-.24,96.27,96.27,0,0,0,9.89-.06l1.27-2.25c1.75-.32,3.49-.73,5.26-.93.55-.06,1.16.45,1.74,1.24l-2.45.52c1.47,1.48,2.88.87,4.38,0l-1.22-1.33a22.62,22.62,0,0,1,5.91-1.27c2.34-.05,4.69-.34,7-.38,1.09,0,2.19.45,3.29.44,4-.07,8.09-.36,12.13-.34,2.77,0,5.53.39,8.46.61-.22.45-.39,1-.48,1-2.76-.36-5.51.22-8.24.11-3.82-.16-7.61.23-11.42.08a11,11,0,0,0-2.08.42,7,7,0,0,0,4.38,1.58c2.89.16,5.77.53,8.65.52a55.3,55.3,0,0,0,7.71-.64,13.67,13.67,0,0,1,2.93,0c3.27.23,6.55.25,9.83.22a7.33,7.33,0,0,0,2.2-.77,16.42,16.42,0,0,0,10.12,0c.27.15.66.35,1,.58s.73.5,1.12.77c2-.32,4-1.28,6.11.46l-4.6.48c0,2.45,1.62,3.48,3.25,4.64v3.06c-2.37,2.33-5.38.95-7.9,1.92-2.12-1.13-2.32-4.21-5.09-5l-1,.89c0,1.74,1.58,2,2.59,3l-1.09,2.45-2.57-2.28h-3.88c-.26.69-.54,1.43-1,2.65h7.58l.89,1.16c-.2.29-.32.61-.43.61q-3.36-.11-6.71-.28c-1.69-.09-3.38-.22-5-.34l-1.86,1.39-1.43-.79-5.17-.42c-.32.64-.76,1.56-1.2,2.48,0,1.14,1.49.77,2.5,1.4h-4.94l1.26-2c-1.78-2.23-4.15-2-6.44-1.85-.85,1.44-.85,1.44-.1,3.06,1,.59,2.64-1.24,3.68,1-3.45,0-6.7-.05-10,0s-6.82.77-10,.2-6.4.5-9.7.3v-1.57a32,32,0,0,0,5,.37c1.61-.11,3.41.57,5-.91l-2.2-2.58-3.06.3L316.59,490l-2.67-2.07-3.5.39c-1.71-.06-3.08-.41-4.24-.07a6.11,6.11,0,0,1-5.17-.54c-1.62.18-3.19.33-4.75.55-.29,0-.54.36-1.06.73l1.49,2.15h15.19l-2.8,1.82c1.81,2.18,4.61.18,6.76,2.17-3.8.06-7.14.35-10.52.47s-6.69.75-10.53-.19l-7.9,4.6c-2.23-.79-5.7.39-8.26-3.09a8.39,8.39,0,0,1,2.15,0,12.89,12.89,0,0,0,5.64,1,10.72,10.72,0,0,0-1.79-7.57l-2.88-.86c.28-.37.44-.8.65-.83,3.15-.41,4.83.77,5.63,3.86.23.86.56,1.7.85,2.55.41.07.8.27,1,.15a12.9,12.9,0,0,0,1.65-1.11c-.34-.87-.61-1.58-.94-2.45l2.08-1.67c.19-3.21-4.3-1.45-4.12-4.42l-2.76.7-2.06-.83-3.08-6.58-6.34-2.52c-3.36-4.09-4.74-8.77-5.48-13.71a14.07,14.07,0,0,0-.84-3.61c-1.86-4.23-2.08-8.66-1.95-13.18a57.34,57.34,0,0,0-.48-6c.51-2.07,1.18-4.79,1.78-7.27-.4-2.78-2.78-4.66-2.44-7.91,1,1.07,1.69,1.87,2.4,2.67,1.16-.69.87-1.46.49-2.16-1.12-2.06-2.23-4.14-3.47-6.13-.62-1-1.28-1.85-.5-3.38l2.84,3.74c.64-3.47-2.78-4.86-2.9-7.57,1-.31,1-.31,2.12.4.07-.19.26-.46.2-.58-.49-.88-1.05-1.72-1.53-2.61a4.37,4.37,0,0,1-.63-2.68l2.8,1.91c-.47-3.28-2.67-5.49-4.11-8.18l2-1.07c-.43-1.06-.85-2.13-1.39-3.47,3.44.31,3.14,3.88,5.46,5.11l.19-1.88c-1.63-2.93-4.56-4.82-5.65-8.15l1.09-1.16c1.47.81,1.54,3,3.67,3.13-.38-3-3.21-4.39-4-7.16l3.13,1.64c1.86-1.23,0-2.35,0-3.79l1.74-1.24c.19-2.83-2-4.54-3.31-6.92l-2.75,1.27c.07-.75-.06-1.51.19-1.68,1.73-1.15,2.38-3,3.19-4.94V360.7c.72.25,1.19.45,1.68.58s.83.13,1.46.23c.15-1.36.28-2.56.41-3.75.23,1.48,1.13,2.84.43,4.49-.56,1.3.51,2.24,1.42,3.54a4.17,4.17,0,0,0,.38-4,5.89,5.89,0,0,1,.1-4.47c-.44-1.68-.85-3.27-1.37-5.3,2,1.92,3.64,3.55,5.36,5s2.73,3.84,5.62,4.46c-1.15-6-6.13-8.6-10-12.71.94,0,1.37-.13,1.52,0,2.55,2.53,5.91,4.15,7.94,7.28.65,1,1.86,1.59,2.73,2.46,1.74,1.74,3.43,3.55,4.93,5.13l1.33,3.56c-.13,1.95-.25,3.84-.39,5.9l2.18,2.28c1.25-2,.2-3.93.8-5.43.71-1.76-.82-3.27.05-5.07l1.9-.12c-1.35,3.46-.59,5.32,3.18,7.76.54-4.24-.87-10.38-2.37-10,.05.5.11,1,.17,1.6l-1.07.76v-3.7l1.93-.11c2,.9,1.42,3.68,3.76,4.6.34-1.51.65-2.86.94-4.14-.6-2.23-1.21-4.39-1.76-6.56-.06-.25.2-.58.32-.91,2.11,2.19,2.57,3.19,3.19,7.09l3.54,3.69c1.18-2.59-1.31-3.9-2-6.48,1.2.65,1.86.78,2,1.15.81,1.59,1.74,3.12,1.7,5.07,0,2.36,1.31,3.93,3.73,5.28.25-1.89.46-3.45.68-5.08-1.09-.73-2.82-.6-3.09-2.56l.72-1.84c-.31-2.18-2.71-3.15-2.85-6l4.52,4.18c.94-1.8-1-2.75-.91-4.16v-3.62l2.1,1.31c.33-.79.59-1.41,1.09-2.63,1.76,4.05,3.29,7.6,4.89,11.3,1.93-3.16,1.93-3.16,2-5.87l-3.32-7.39c2.32-.68,1.64,2.8,3.94,2.16-.33-1.18-.67-2.4-1-3.67l2.94.27-.84-3.68c1.28-.16,1.81.83,2.37,1.73s1,2,2.65,2.25c-.51-3-2.55-4.39-4.31-6-.29-1.07-.57-2.13-.89-3.33l1.39-.34c1,1.59,2,3.09,4.17,3.45,1-1.64-.44-2.6-1-3.83l-5-1.39,2-1.65c0-.15,0-.41-.07-.53-.92-1-2-1.9-1.61-3.73l1.83.16.65-1.78H327l1.52,2.56,1.57-.2c-.26-2.85-1.77-4.73-3.63-6.5H324c-.37.9-.69,1.7-1.19,2.93l-1.93-4.13c1.11-1.19,3.56-.94,2.77-3.54l-1.55.25-2.06-1.62-4.49-.2c-1.67-1-1-2.3-1-3.49l2.2,1.86.67-2.2,4.37,3.28,1.28-1c-.33-2.93-2.85-3.89-4.56-5.65a5.24,5.24,0,0,1-5.23-.48l1.3-.89c.16-.67.32-1.34.54-2.3l2.72,2.07,2.43.32,12,13.83c0-3.76-2.05-6.61-3.55-9.72l-3.18-.64c-1.73-1.83-3.66-4-5.73-6-1.44-1.41-3.06-2.63-4.6-3.94l-3.42.19-1.4,1.91-1.63-2.93,2.52-.5.92-2.25c1.87,1.35,3.57,2.53,5.2,3.78a47.37,47.37,0,0,0,4.94,3.57c-2.1-3.23-4.55-6-8.13-7.68a18.19,18.19,0,0,1-2.22-1.43,7.89,7.89,0,0,0-2.77-1.36c-1.92-2.87-3.85-5.73-5.67-8.44.44-1.75.81-3.23,1.18-4.69-1.2-1.07-2.48-1.59-4-.53l-1.92-2.17,2.11-.95c-.63-1.94-1.52-3.48-3.46-4.17a3.9,3.9,0,0,0-1.79,2.36c-.26-.2-.64-.35-.75-.61a2.47,2.47,0,0,1,.55-3l3.22-.57c-1.32-1.2-2.64-.88-4-.72a23.38,23.38,0,0,1-4.39-.34l-.55,1.81a5.84,5.84,0,0,0-6.35-.34l1,4.28,2.35-1.93c.16.08.46.17.46.26.08,1.61,1.31,2.28,2.31,3l-1.12,3.16,2.16,1.61L288.73,285c.21,2.37,2.37,2.35,3.79,3.57,0,.47-.12,1.09-.24,2.06l2.67,2.82-3.39-.45a3.25,3.25,0,0,0-.26,1.17c.32,1.52,2.79,4.65,4.2,5.46.78.45,1.55.92,2.34,1.36s1.51.82,2.55,1.38L298,304.58l1.73,2.94,2.75,1-.31,3L305,313.1l-2,2.58c1.78,2.52,4.94,4.38,4.24,8.38a4.2,4.2,0,0,1-1.71-3.09c-.14-.91-.46-1.74-1.89-1.51,0,3,1.8,5.26,2.72,7.94-.75,1.09-1.5,2.17-2.73,4v-7.18l-3.12.18,1.54-3.48c-.44-1.21-.84-2.33-1.25-3.44-.27-.74-.55-1.47-.86-2.19-.9-2.17-1.77-4.36-2.76-6.5-.75-1.63-1.62-3.21-2.5-4.78-1.32-2.36-2.65-4.71-4.06-7a18.17,18.17,0,0,0-2-2.21c-.36-3-1.74-6.1-2.18-9.45a7,7,0,0,0-1.9-3.9c-1.92-1.84-2.6-4.15-3.39-6.49-.29-.85-.63-1.68-.94-2.51l-11.47-2.53a8.87,8.87,0,0,0,1.48-1.66,5,5,0,0,0,.16-1.61c.9-.14,1.28,1.22,2.4.57.54-.32,1.48,0,2.26.07,1-1,.6-2.06.14-3.35l-1.82-.61c-2-1.68-.92-4.19-1.26-6.32s.15-4.42.26-6.43l4.79-11.86-1.48-6.82c1.08-4,2-7.5,2.89-10.91,1.38-1.65,2.73-3.28,4-4.79l4.09-.34c5.17-3.45,10.06-1.79,15,.19,4.79-1.05,9.37-1,12.47,3.64a10,10,0,0,0,6.67.64,11.46,11.46,0,0,1,4.64.27,44.29,44.29,0,0,1,7.07,2.07l5.07.63a7.22,7.22,0,0,1,8.43,3.6,31.07,31.07,0,0,1,3,9.18,2.68,2.68,0,0,1,0,1.35,51,51,0,0,1-3.2,7.08l-2.41-1.36c-.9,1.61-.21,3.23-.58,4.76-1.24,1.62-2.44,3.39-4.83,3.46-2.62-.24-3.77-2.68-5.89-4.11-.52,1.24-1,2.22-1.35,3.25s-.49,2.18-.72,3.25l-1.7.54c-.07.08-.21.17-.2.25.18,1.45.38,2.91.66,4.95l-.9,1.72a16.55,16.55,0,0,0,.95,3.3,18.55,18.55,0,0,1,2.19,6.65,15.69,15.69,0,0,0,2.33,6l-.62,1.17c-.24,2.29-.46,4.35-.69,6.53l-2.33,1.62-3.48-2.06c-3.63-5.81-3.52-12-2.32-18.58-3.18-.72-5.49,1-8.13,2.1.73,2.81,3,5.27,1.45,8.78a13.57,13.57,0,0,1-.79-1.52c-.8-2.43-1.46-4.93-3.4-6.83-1.52.47-1.57,1.52-1.31,2.71s.55,2.4.9,3.91l1.64,1.4c.07,2.88,1.9,5.79.11,8.51.67,2.25,1.19,4.2,1.82,6.11a23.91,23.91,0,0,0,4.39,7.48c2.48,3,4.38,6.53,6.61,9.78,1.77,2.59,3.31,5.32,4.9,8A25.52,25.52,0,0,1,335.67,327c.12,1.2.71,2.36.93,3.56a5.36,5.36,0,0,1,0,2.64,12.6,12.6,0,0,0,.28,9.7c-.52,2.6-1.48,5.16-.58,8a13.36,13.36,0,0,0-5.44,6.64c-.88,2-2.66,3.6-4,5.42-.76,1.06-1.42,2.2-2.28,3.53l-5.09,3.21h-2c-.86,1.64-1.73,3.33-2.62,5-2.49.33-3.67,2.4-5.15,4-2.49,2.76-4.92,5.57-6.88,7.79l-7.58,2.58a52.13,52.13,0,0,1,3.19,4.52A42.85,42.85,0,0,0,306,403.9a11.07,11.07,0,0,1,3.11,5.87,33.52,33.52,0,0,1,1.13,8c-.08,2.61-.36,5.16-2.43,7.09l1.12,2.75-2.11,1,.77,3-1.4,1.33,1.79,10c-1.68,1.41-1.75,3.79-1.79,6-1.31,2.73-2.56,5.32-3.86,8l-2.12,1c-1.61,2-3.17,3.77-4.54,5.69-1.16,1.64-2,3.54-3.16,5.14a42.2,42.2,0,0,1-3.57,3.8c-4.51.51-5.67.18-9.86-2.63.08-.84.16-1.81.26-2.9L277,463.48a56.64,56.64,0,0,1,1.5-6.15,42.12,42.12,0,0,1,2.56-5c1.94-1.56,3.88-1.45,6.21-.61l5.27-1.92a7.94,7.94,0,0,1-.47,2.28c-.82,1.43-1.82,2.76-2.88,4.33l-1.23-2c-1.24-1.19-3.09-1.37-5-1.11-2.09,2.49-3.65,5-1.93,8.32l-1.47,1.66,1.76,2.79,4.77-.67c2-2.08,2-4.71,2.45-7.4l3.33,2,1.31-2.38c-.19-1.18-.36-2.24-.59-3.64,2.22.44,2.93,2.23,4.61,3.18l-.3-2.32,2.6-2.38c-.63-.87-1.26-1.77-1.92-2.63s-1.4-1.76-2.22-2.78c.21-.54.44-1.1.81-2l4.68,5.68c-.31-2.75-1.54-4.94-4.65-8.4-2.9.51-4.61,2.5-5.91,5.09.08.62.18,1.36.35,2.62l-2.1-1.32c1-4.54,2.87-8,8.17-8.53-.13-5.6.92-11.23-2.12-16.42a9.82,9.82,0,0,1-.66-1.89L291.58,415c.18-1,.41-2.19.63-3.41l1.79-1.46a3.27,3.27,0,0,0-3-1.34c-2.55.24-4.91-.34-6.54-2.61a5,5,0,0,0-1.29-1.09,13,13,0,0,1-4.7-6.08c-.49-1.13-1.07-2.22-1.61-3.32h-5.66c-.3,2.42-.64,4.84-.9,7.27a92.83,92.83,0,0,1-1.27,9.64c-.65,3,.11,6,.75,9a11.72,11.72,0,0,1,.46,3.29,39.69,39.69,0,0,1-1.9,10.56,14.85,14.85,0,0,0-.76,4.5c-.13,3.49-.29,7,.58,10.44s1.9,6.72,2.6,10.11c.5,2.39.81,4.83,1.36,7.25a15.29,15.29,0,0,0,1.54,4c.65,1.19,1.32,2.36,2.08,3.72l7.5.77.08,1,2.52.91h13.44l1.4-1.14a7.22,7.22,0,0,0,6.39.1l1.54.9,16.23-.93,1.21-1.27c-.72-.36-1.28-.88-1.86-.88a84.65,84.65,0,0,0-10.22.19c-4.95.56-9.85.22-14.76.39C293.81,475.74,288.43,475.45,283.1,476.38Zm28-257.41c-1.94-.87-3.88-1.67-6.47-1.17,1.76,2.41,5.18,1.87,6.43,4.83-3.09.05-5-2.49-7.75-2.19v-2.39l-5.46,3.49-2.62-2.38,1.68-2.32-4-1.65-6.64,2.71-2-.53L282.19,219c.76.48,1.2.79,1.68,1a19.75,19.75,0,0,0,1.9.71l-3.67,1.87-1.54-1.6c-.36,1-.66,1.92-1,2.86,2.84.45,2.84.45,5,2l-5.11,1.06-1.71,3.35a8.66,8.66,0,0,0,1.95,7.06c3.34.86,3.92.63,5.18-1.88l-3.71-1v-2.9c1-1.55,2.2-2.38,4.28-1.4l1.64,3.75,2.1-.51.7.88c-.59,2.58-1.14,5-1.76,7.69L285.76,244l-3.21-.49c-2.34,2.14-2.7,5.3-3.84,7.48-.39,2.38-.4,4.37-1.07,6.12-1.29,3.4,0,6.51.87,9.83.33-.88.66-1.76,1.2-3.22l1.91,4.52,3.43-.39c.51-1.74-1.08-1.9-1.68-2.64v-3.88l2.95-1.16.51,3.64c1.24.92,2.69,1.64,3.26,3.28.16.46,1.14.64,2,1.09v-4.31c.7,1.5,1.09,2.55,2.67,2.85-.29-4.14-3.55-7.22-3.17-11.87.76.87,1.29,1.25,1.48,1.76s-.2,1.17,0,1.6c1.39,2.93,2.87,5.82,4.2,8.48,2.31.92,3.17-.51,4.22-1.52-.79-1.45-1.49-2.72-2.19-4l.4-.12c-.39-2.41-.79-4.83-1.3-8,.12-1.1.32-3,.55-5.2a9.52,9.52,0,0,1,1.12,1.49,6.8,6.8,0,0,1,.32,1.45c.57-3.06.89-6,1.22-9,0-.09.22-.15.44-.3.06,1,.11,1.85.18,3a9.4,9.4,0,0,1,3.7-3.49,11.72,11.72,0,0,1-3.24,6.49c.2,1.22-.57,2.62.62,3.71,1.85-.2,1.45-1.55,1.63-2.58,0-.16.2-.3.28-.42l1.51.91.9-1.17L306,245.51c1.08-1.62,2.13-3.2,3.26-4.92.57,1.36-.2,2.83,1.24,3.69l1.45-1.74,1.36,3.34c-.16,1.45-.29,2.65-.42,3.86l-1.33,1c-2.22,3.3-1.28,6.28.16,9.14l-1.64,1.88,2.93,1.74c2.09-1,3.72-2.2,5.52-2.53a16.67,16.67,0,0,0,8.82-4.88c-.17-1.24-.34-2.56-.54-4.07l.62-2.23c.82-1.8,3.14-2.06,2.43-4.52l-8.32-1.72-2.56,4h-1.79l-3.43,3.23c-.07-3.31,1.19-5.63,2.68-7.9l-1.94-.73,1.32-1.44,1.84.5,1.51-1.25-.35,2.58a58.28,58.28,0,0,1,12.93-.14l1-2.25-3.13-1,2.42-2.53c4-.27,6.53.31,9.32,2.05.95.6,1.84,1.29,2.82,1.83a9.32,9.32,0,0,0,1.88.56c1.43-5.37,1-10.17-2.14-14.43-2.78-1.15-5.16-3.26-8.33-1.58,1.22,2.52,3.34,1.51,5.19,1.17l.49,1c-1.5.84-1.5.84-4.31,1l-2.12-1.12-.27-2.29c-1-.28-1.95-.56-2.91-.81a5.83,5.83,0,0,1-1.61-.33c-3.5-2.17-7.43-2.17-11.12-1.4S312.87,222.21,311.11,219Zm68.45,264.19c-1.91-3.85-4.05-6.54-7.26-8.11l-4.44.73,2.82,3.16c1.2.07,2.39.1,3.57.23.2,0,.35.47.69,1h-2.78a5.34,5.34,0,0,0-.4.48,2.63,2.63,0,0,0-.17.49C373.31,484,376.15,483,379.56,483.16Zm-106.14-122c2,2.18,4.17,4.47,6.33,6.72a13.69,13.69,0,0,0,1.83,1.32c.11-1.8.18-3.13.28-4.76-2.29-2-4.62-4.12-7-6.17-.2-.17-.61-.09-1.09-.14Zm14,24c.63-.24,1.15-.41,1.63-.64,1.69-.82,3.62-1.26,4.81-2.89a4.48,4.48,0,0,0,.34-1.2L291.78,379a25.88,25.88,0,0,1-1.82,2.33,8,8,0,0,1-2.31,1.86c-2,.87-4.1,1.52-6.16,2.27a3.32,3.32,0,0,0-.6.46,2.25,2.25,0,0,0,.23,2.86l4.41-3,1.92,2.27Zm20.35,38c-2.27-4.78-6.2-7.33-10.1-9.89-.35-.23-1,0-1.6,0,.32,3.27,3.66,3.61,4.62,5.34,1.61.86,2.74,1.56,3.95,2.1S305.32,423.53,307.8,423.2Zm-25.14-62.38a11.25,11.25,0,0,0,5.85,8.69v-3.43C284.82,361.25,284.82,361.25,282.66,360.82Zm24.82,13.41,3.61-.93c-.09-.79-.16-1.5-.24-2.25l-2.56.55c-.35-1.44-.66-2.68-1-4.06l-2,.39a5.7,5.7,0,0,0,.63,5.66Zm19.62-94.6c1.1-4.61-.88-9.07-.66-13.64A14,14,0,0,0,327.1,279.63Zm-8.8,83.51a7.55,7.55,0,0,1-1.48-3.88c-.14-2-.72-4.47-3.8-5.29a23.23,23.23,0,0,0,3.12,9.53c.6,0,1.05,0,1.49,0A2.41,2.41,0,0,0,318.3,363.14ZM278.89,240.43c-1.48,4.45-5,7.42-3.52,12.77.93-2.28,1.49-3.94,2.28-5.48.86-1.69,1.94-3.27,3-5ZM326.54,476l2.3,1.92c2.34-.81,4.9.69,7.34-1-.6-.71-1.07-1.26-1.61-1.88C332,475.32,329.39,474.43,326.54,476Zm-60-102.31c1.78,2.25,3.52,4.15,4.35,6.65.14.42.93.62,1.76,1.14l.24-3.34-2.6-1.55-.2-2.86-2.38-2.13Zm15.56-2.51,1.62,1.87,1.47-1.21c.08,2,0,3.83,1.85,5.35l1.82-2.74L284.08,369Zm59-123.42-6.7-5.27-.8,1,2.8,4.94,3.51.82ZM300.07,369a12.8,12.8,0,0,0-.56,5.54c1,1.86,1.05,1.85,3,3,.29-1.33.56-2.56.85-3.92ZM302,254.72c-1.69,4.57-.86,8.74,1.36,10a19.1,19.1,0,0,1-.41-3.19,22.11,22.11,0,0,1,.6-3.32Zm25.27,217.44a18.77,18.77,0,0,0-9.54-.19l.53,1.72,3.46-.35c.65-.06,1.41-.38,1.93-.15C325.12,473.84,326.11,472.86,327.27,472.16Zm5.71,9.58,6.44.53a1.78,1.78,0,0,0-.87-2.31l-5.58-.62-1,1Zm-33.43-74.88-.61.66c2.11,2.43,4.24,4.82,7.57,5.67.24.07.57-.22,1-.41l-1.43-2.28-1.79-.24Zm-27-13,2.33-1,3.6.93.88-1.87-7.31-1.2C271.6,392.38,271.6,392.38,272.53,393.87ZM299,440c0,1.2-.35,2.14,0,2.54,1.63,1.94,2.23,4.78,5.38,6.23C302.37,445.65,302.1,442.3,299,440Zm.59-5a10.86,10.86,0,0,0,4.51,7C304,438,303.82,437.69,299.54,435Zm59.84,42c-2.06-2-4.1-1.42-6.46-.78a3.8,3.8,0,0,0,3.68,2.29c.86,0,1.72-.11,2.57-.17Zm-63.56-97.27c.6-1.58,1.22-2.56,1.27-3.57,0-.75-.61-1.56-1-2.3-.09-.15-.59,0-1-.06a15.61,15.61,0,0,1-.68,1.86,19.4,19.4,0,0,1-1.13,1.78Zm35.05-44.36c-2.54-3.74-3.68-4.47-5.7-3.59C327,333,327.08,336.49,330.87,335.28Zm4,149.58c2.68,1.59,7,1.68,7.52.11-.1-.25-.25-.64-.46-1.14l-2.7.61C337.87,484.38,336.37,482.78,334.87,484.86Zm-49-15.42c-1.39-.66-2-2.32-3.84-1.65v1.73a7,7,0,0,0,6.13,1.18c.18,0,.27-.51.51-1ZM331,488l1.52,2.72c1.41-.08,2.63-.14,3.84-.24.12,0,.22-.34.44-.71l-1.89-2ZM277,367.3c-.94-1-1.5-2.27-3.25-2.4l-.17,3.61,2.44,2C276.37,369.21,276.66,368.27,277,367.3Zm-4.48,7.85,2.2,1.45c.43-1.45.75-2.5,1.11-3.72l-2.46-2.15C273,372.33,272.78,373.51,272.47,375.15Zm27.47,49c-.68,2.65,1.43,3.29,2.13,4.63.37.7,1.2,1,2.13.23C304.22,426.41,302,425.79,299.94,424.12ZM358.5,483c2.11-1,3.7.17,5.59-.76-.9-1-1.63-1.75-2.38-2.54l-2.85.44C358.77,480.9,358.7,481.5,358.5,483ZM306.2,273.45c-1.29,2.25-.11,3.86.28,5.51.09.37.76.61,1.31,1C309.11,277.28,307.4,275.66,306.2,273.45Zm47.55,212.2,3.18,1.35c1.28-.47,2.15-.8,1.58-2-2.37-1.07-2.37-1.07-4.42-.85C354,484.5,353.91,484.91,353.75,485.65Zm1.37-2.61c-.47-2.18-.94-2.65-2.79-2.72a19.89,19.89,0,0,0-2.87.37l1.61,2Zm-27.53-159.9c2.1,1.58,2.25,4.29,5.11,5,.26-2.7-2.47-3.43-2.87-5.49Z" transform="translate(-108.36 0)"/><path d="M142.39,354.6c-.71,4.33,1.76,7.8,3.2,11.53.8,2.09,1.88,4.08,2.82,6.08v5.61c-.94-2.51-2.19-4.38-2.23-6.75a6.86,6.86,0,0,0-1.09-2.48l-2.54,2.71c.45,1.46,1,3.4,1.67,5.27s1.67,3.45,2.26,5.26,2.81,2.92,2.62,5.34c-3.28-.44-2.18-4.12-4.63-5.37L148,393l-1,.39-.86.37c-.12,2,1.66,3.56.9,6l-2.21-4.06c-.57,3.39.24,6.09.48,8.88l1.76-.23c1.63,1.67,1.08,3.62.51,5.39a43.54,43.54,0,0,0-1.77,8.21,26.46,26.46,0,0,1-1.71,5.45c-.42,1.16-1,2.26-1.45,3.22-.12,1.87-.23,3.55-.4,6.06l2,4.68-.44,1.56,2.43,2.76c.95,4.22,2.72,8.27.55,12.72-.34-.18-1-.3-1.16-.63-.87-2.17-1.62-4.38-2.2-6l.59-6.44c-1.41-.67-1.91.21-2,.86a25.79,25.79,0,0,0,.11,3.94l-2,1.1a33,33,0,0,0-.9,4.57,42,42,0,0,0,.28,5.17l-1.27,2a7.69,7.69,0,0,0,2.55,4.42l6.28,5.81.83-1.59c-.75-2.52-1.89-5.05-1.06-8L148,459a18.51,18.51,0,0,1,1.1,13.38L148,474c-1,7,3.33,11.1,7.45,15.62l2-1.64c.23.18.66.36.68.57.07,1,0,1.94,0,3,1.31,2.69,4.05,3.17,7.07,4.19l.73-.86c0-3.4-2.83-4.08-4.48-6l1.07-.95c3.5,1.12,4.89,3.68,5.45,7.06-.69,1.66-2.6,2-3.69,2.86l-5.27-2.74a2,2,0,0,1-.58-.35c-1.61-1.89-3.78-3.22-5.36-5a17.49,17.49,0,0,0-5-4l-3.32,1.56c-6.84-1.09-13.14-3.17-17.21-9.71l-.22-2.87a22.06,22.06,0,0,1-4.58-8.94c.77-1.89,1.66-4.06,2.53-6.24,1.47-3.68,2-7.6,2.75-11.45a17.38,17.38,0,0,1,1.88-6c1-1.7,1.37-3.78,2.16-6.14a43.89,43.89,0,0,1,2.27-12.52c1.31-.71,2.56-1.49,3.89-2.08a3.55,3.55,0,0,0,2.19-2.76c.5-2.29.9-4.5,2.51-6.51,1.33-1.66.95-4.06.62-6.23-.46-3-.87-6-1.1-9a20.23,20.23,0,0,1,.49-4l2.61-.38c.08-.3.3-.65.23-.91-.57-1.88-1.2-3.74-1.87-5.78-2.82,1.39-.24,4.76-2.58,6.18-1.87-1.74-.5-3.6-.28-5.66a16,16,0,0,1-.21-9c2.54.35.72,3.77,3.33,3.83.64-2-1.26-3.37-1.41-5.23s-1.94-2.88-3.78-3.69l.79-3.1-1.19-1.89c.19-2.45.36-4.58.57-7.23l1.26-2.78c-1.8-3.29.43-6.89-.23-10.43l-1.86.46,2.15-4.8V338a3.25,3.25,0,0,1,1,3.56c-.26,1.3-.47,2.62-.66,3.7.86,2,2.53,3.38,2.06,5.76a2.56,2.56,0,0,0-2.44,2.61l2,1.09Zm-2.62,121.69v3.52c.67,1.08,1.38,2.25,2.46,4,.4-1.3.94-2.1.75-2.65-.64-1.87-1.12-3.94-3.31-4.76l.83-1.83c-.56-1.18-1.1-2.29-1.7-3.54a6.7,6.7,0,0,1-3.34-4.25c-.68-2.12-1.77-4.11-2.48-6.22a16.17,16.17,0,0,1-.32-3.6c-.45-.84-2-1.94-.17-3.39,1.39,4.95,1.39,4.95,3.18,6.29-.7-2.56-1.34-4.89-2-7.21l.83-.43,1.44,2.14c.72-2.11-.74-3.16-1-4.5s-.42-3-.71-5.24l3.2,2.93a9.18,9.18,0,0,0,0-2.3c-.42-1.28-1-2.5-1.51-3.75a4.72,4.72,0,0,1,.15-3.54l2.61,5c1.15-1.66-.46-2.89-.33-4.29a3.27,3.27,0,0,1,.3-.84l1.75,1.07c.25-.82.75-1.57.63-2.21-.39-2.18-1-4.33-1.53-6.48l-2.61-.29L136,426.3a2.91,2.91,0,0,0-1.12,1.81A59,59,0,0,1,132,441.16a51.94,51.94,0,0,0-3.21,12.27c-.28,2.41-.77,4.77-.93,7.22a25.45,25.45,0,0,0,.26,5.6,3.77,3.77,0,0,1-.19,1l-2.66.56,2.22,3.62,2.75.39c.32,2-1.59,3.73-.36,5.82l3.75,2.8,2.45-1.35c.28,1.29.5,2.3.81,3.76,1.72-1.95,0-3.34.25-5.21l.86-2.43Z" transform="translate(-108.36 0)"/><path d="M189.6,270.94c-.31,2.75-.61,5.38-.93,8.2l1.14,1.91-.31.05.83,4.72a6.46,6.46,0,0,0,0,4.28,13.79,13.79,0,0,1,1,6.61,2.46,2.46,0,0,0,.05,1c.77,2.92,1.69,5.81,2.34,8.75.87,3.93,1.7,7.89,2.26,11.88a56.32,56.32,0,0,0,1.91,7.41l1.58-1.65c1.52,1.26,1.52,1.26,2.06,3.6l-3.35,1.21a3.26,3.26,0,0,1-1.57-3.77c-2-1.68-2-4.31-2.21-6.41-.3-3.17-1.15-6.18-1.67-9.28a22.29,22.29,0,0,0-.8-2.75,5.45,5.45,0,0,1-2.5-1.76c.58-.46,1.16-.94,1.9-1.55l-1.85-2c.1-.25.37-.58.31-.83-.81-3.37.06-6.9-1.18-10.25-.95-2.54-.79-2.59,0-5.22-.65-4.11-3.08-7.42-5.1-11.24-.31.52-.82,1-.74,1.31.58,2.29,1.2,4.57,2,6.8a12.74,12.74,0,0,0,1.68,2.47,43,43,0,0,1,.71,5.56c0,2.45-.43,4.91-.44,7.37s1.13,4.84.25,7.72c-.42-2.12-.76-3.9-1.13-5.67s-.71-3.37-1.14-5.38c-2.18,1.47-1.09,3.31-1.41,4.69.54,1.1,1,2.07,1.77,3.62-1.1-.32-2-.31-2.12-.65a14,14,0,0,1-1.55-4,33.71,33.71,0,0,1-.06-4.72c0-1.1.23-2.29-1-3.36l-2.06,2.83c.42,2.1.87,4.39,1.38,6.91l-1.08,1.18a9,9,0,0,1-3.12-5.68l-2.38.33a3,3,0,0,0-.38,3.13c.93,2.52.92,2.52.75,5.58-.23-1.09-.35-1.5-.4-1.92s-.07-.88-.1-1.27l-1.74-2.1-.27-3.64c-2.06,2.27-2.42,4.87-2.13,7.87-1.21-.67-1.18-1.61-1.26-2.56a28.82,28.82,0,0,0-.52-3.31c-.18-.88,1-2-.67-2.73a6.07,6.07,0,0,0-2.23,4.52c-.17,1.56-.39,3.11-.62,4.94-1.51-2.06.69-4.3-1.18-6-3.08,1.07-2.28,4.32-3.76,6.94-.31-1.16-.51-1.89-.71-2.61-1,1-1,1-1.82,3.55-.17,1.48,1.57,3-.43,4.56L154,309l-1.21,2.1-.25-2.72c1.31-.81,2.62-1.73,2.65-3.56l-.58-.8c-.21,0-.46-.07-.61,0-1.78,1-3,2.33-2.36,4.79l-1.33,2.07-1.46.42a48.07,48.07,0,0,0-3.32,5.36c-.74,1.65-1,3.52-1.76,5.23-.82-2.49,1.28-4.76.39-7.5l-3.22,2.34a12.49,12.49,0,0,1,1-2.46c1.81-2.57,3.57-5.2,6.46-6.75a3.34,3.34,0,0,0,1-.91c2.06-2.86,4.83-4.93,7.58-7.07,1.46-1.13,2.49-2.82,3.91-4.48l1.69.36c2-2.09,4.19-4.2,6.21-6.42a9.19,9.19,0,0,0,2.28-5.54,10.15,10.15,0,0,1,2.11-5.22,47.93,47.93,0,0,0,4.37-6.77c1.39-2.78,3.64-4.85,5.38-7.34a20.32,20.32,0,0,1,2.73-2.65c.54-2.84,1-5.81,1.68-8.75.51-2.32.59-2.31,3.09-3.53,1.8.33,1.68,2.25,2.76,3.35,1.94.36,4.16.53,5.16,3.18l-6.78-2-1.7-1.94c-.41.55-1,1-1,1.36.13,2.58.4,5.16.61,7.56l-1.8,2.53,2.15,2.24-.58,1.86c.68,2.21,3.64,1.74,4.15,4.35Zm-4.25,15-3.42-6.08-1.26.31c-.14,1.51-.26,2.93-.43,4.9l-1.9-2.59-1.86,2.7c.05,1.54-.67,3.22,1.13,4.24l3.12-2.53,1.72.85.24,3.9,2,1.87,1.94-2.07C186.12,289.2,185.67,287.25,185.35,285.91Z" transform="translate(-108.36 0)"/><path d="M123.65,377.69c1.82-2.29,1.48-5.2,2.5-7.88a5.51,5.51,0,0,1-.8-5.81c.54-1.36.1-3.12.1-4.5l2.93-4,.2.24,6.64-5.18a12.32,12.32,0,0,1-3.76,4.41c-5.15,4-6.44,8.66-3.44,14.1a10.13,10.13,0,0,1,1,7.79c-.46,1.84-.71,3.74-1.07,5.64L123,387l-3.85-.67-2.42,3.17,4.23,7.73c-1.34,4.59-4.27,6.75-8.66,7.54l-2.39-2.63,3.18.69a20.41,20.41,0,0,0,2.83-1.08,21.27,21.27,0,0,0,2.56-2l.75-2.29-3.89-5.42v-4.86l-1.42,1.2c.52,2.1,1.09,4.13.28,6.88l-2.09-3.93-2.55-.23c-1.88-1.34-1.44-5.6,1.13-9.87l9.08-3c.4-2.16.75-4,1.14-6.07,1.27,1.39,1.27,1.39,1.24,4.48a3.75,3.75,0,0,0,.6.74A3.42,3.42,0,0,0,123.65,377.69Z" transform="translate(-108.36 0)"/><path d="M225.06,317.69c-.74-2.11-1.81-4-1.9-6.39,0-1.3-1.11-2.55-1.73-3.87,2.69-.66,2,3.16,4.57,2.92-.6-2-1.16-3.87-1.72-5.73l.37-.2a4.86,4.86,0,0,1,.86,1.15c.64,1.79,1.59,3.59,1.69,5.44a11,11,0,0,0,3.35,7.07l-.53,2.07-3.26,1.74c-2.21.61-3.65-1.11-5.38-2.07-1.35-.76-2.68-1.57-4.48-2.63-1.18-2.37-2.87-5-6.26-5.85-.86-2.17-2.23-4-2.23-6.45,1.52-2.35,3.32-4.13,6.45-3.91a8.13,8.13,0,0,1,.31,1.14,10.87,10.87,0,0,1-.12,1.31l-2.13-.36-2.18,1.34c-.43,3-.43,3,1.85,6.45l1.19.25,1.34.37c2.34,4.81,6.78,6.94,11.43,9.19l2-3.42-1.27-1.14Z" transform="translate(-108.36 0)"/><path d="M283.79,339.06l1.91.17,1.78,2.39.42-.18c-.15-.82-.31-1.64-.55-2.91l2.82-2.15.5.29c-.54,1.93-1.08,3.85-1.51,5.41,1.32,2.85,5.19,3.32,4.76,7.1-2-2.62-4-4.9-7.31-6.14,0,1.69-.08,3.13,0,4.55s.41,2.87.62,4.24l-1.42,1.35,2.91,5.08c-1.43.51-2.46-.25-3.54-.43-1.53-3.36-3.13-6.47-6.27-8.63a69.23,69.23,0,0,1-6.23-5.51c3.82.19,5,3.94,8,4.88l1.35-.48c1,1.32,1.25,3.35,3.33,3.8.8-3.42.34-4.74-2.4-6.73l-1.15,2-.62-.2c.21-1.16.41-2.31.65-3.64,1.56-.1,2.39-1,2.73-2.71l-.74-1.64Z" transform="translate(-108.36 0)"/><path d="M119.46,369.87a24.19,24.19,0,0,1,8.42-19.6c-2,3-4.25,5.93-5.22,9.49-.92,3.4-1.65,6.84-2.46,10.27Z" transform="translate(-108.36 0)"/><path d="M233.43,468.33l-.48-.55c.29-.24.55-.65.79-.63,2.53.19,5-.64,7.61.1,1.68.49,3.58.22,5.38.3l5.16.28.78,1.52c-4.27-.28-8.16-.1-12.06-.94C238.49,468,236.18,468.33,233.43,468.33Z" transform="translate(-108.36 0)"/><path d="M205.53,331.38l-3.06-1.94.11-.4,2.2.35,1.84-7.21c2.3.21,1.35,2.22,2.2,3.15a10.73,10.73,0,0,1,1.92,3.31c-1.26-.45-1.62-2.27-3.4-1.78C205.88,327.88,205.71,329.57,205.53,331.38Z" transform="translate(-108.36 0)"/><path d="M240.82,472.84c-2.4.94-14.53,1-18.67.38,1.6-1.06,2.18-1.28,4-.78a16.24,16.24,0,0,0,6.8,0A17.61,17.61,0,0,1,240.82,472.84Z" transform="translate(-108.36 0)"/><path d="M383.73,465c2.26,1.36,5.21-.79,7.91.93a9.94,9.94,0,0,1-8,.27c-3.12.71-3.12.71-5.24-.37Z" transform="translate(-108.36 0)"/><path d="M272.25,332.86c-.59.62-1.18,1.24-2,2.08l-.18,1.69c-.19-.07-.43-.07-.49-.18a7.67,7.67,0,0,0-1.09-2.07c-2-1.86-2.43-4.41-3.85-7.37,2.77,1.6,2.75,4.6,5.58,5.76l2.06.18Z" transform="translate(-108.36 0)"/><path d="M182.67,349.85c-3.67-3.49-4.06-8-4.18-12.66,1.35.38,1.25,1.31,1.38,2.18a44.37,44.37,0,0,0,1.11,5.85,30.65,30.65,0,0,0,2,4.24C183,349.51,182.83,349.62,182.67,349.85Z" transform="translate(-108.36 0)"/><path d="M213.7,236.39c-4.35-1.9-4.29-6.25-6.66-9.25.65-.07,1-.19,1.05-.1,2,2.55,3.2,5.62,5.58,7.89C213.84,235.08,213.7,235.55,213.7,236.39Z" transform="translate(-108.36 0)"/><path d="M295.22,341.42l-.89,2.31-2.67-4,3,.56c.07-1.06.14-2,.21-3.21,1.16,2.39,2.22,4.58,3.29,6.77l-.4.32Z" transform="translate(-108.36 0)"/><path d="M259.61,365.48c2.43,2.43,1.73,5.12,1.81,7.62a1.73,1.73,0,0,1-1.81,1.86Z" transform="translate(-108.36 0)"/><path d="M271.66,328.79,269,326.08c-.86-.15-2.15-.45-3.46-.59-1.14-.12-2.4.34-3.88-1.1h8.81c.36,1.55.71,3,1.05,4.49Z" transform="translate(-108.36 0)"/><path d="M253.65,20.7l1.46-2.78,1.71.42c.07.43.21.71.13.83-1.35,2-2.9,3.72-5.52,4.28C251.12,21.54,252.75,21.69,253.65,20.7Z" transform="translate(-108.36 0)"/><path d="M354.27,466.38c2.07.38,4-1,6.2-.46,1.9.45,4-.91,6.17,0C364.81,467,360.27,467.23,354.27,466.38Z" transform="translate(-108.36 0)"/><path d="M142.48,354.69l.23-1.91c.4,0,.77-.07.81,0,1.3,2.91,2.57,5.83,3.69,8.81a7,7,0,0,1-2.72-3.71c-.48-1.24-.68-2.65-2.1-3.29Z" transform="translate(-108.36 0)"/><path d="M205.34,287.32l3.49,8.61c-1.68-.58-1.7-.57-2.84-3.34-.63-1.53-1.19-3.09-1.79-4.67Z" transform="translate(-108.36 0)"/><path d="M179.66,353.63c-2.37-1.89-2.89-5.39-3.5-10.4C178.39,346.78,178.31,350.44,179.66,353.63Z" transform="translate(-108.36 0)"/><path d="M224.5,495.52c-2.6.27-5.22,1.13-8.21.26C218.26,494.54,221.05,494.41,224.5,495.52Z" transform="translate(-108.36 0)"/><path d="M211.67,178.54l-3.08-.29c0-1.34-.19-3,1.36-3.05S212,177,211.67,178.54Z" transform="translate(-108.36 0)"/><path d="M247.28,334.26c-1.2,1.36-2.07,2.33-3.31,3.72.52-3.06.95-5.64,1.41-8.38C247,330.82,246.67,332.73,247.28,334.26Z" transform="translate(-108.36 0)"/><path d="M304.47,225.05a7.41,7.41,0,0,0,5.1,1.87,15.07,15.07,0,0,1,3.39.86l-.23,1.81-1.94-.27c-3.41,2.69-7.26,3.85-11.85,2v-4.17C300.2,225.26,301.82,224.47,304.47,225.05Z" transform="translate(-108.36 0)"/><path d="M283,259c-1.17.64-2.2,1.2-3.33,1.8-1.39-1.47,0-2.92.13-4.33s-.7-3.21,1.29-4.86l3.19-1.72C283.8,253.06,283.39,256,283,259Z" transform="translate(-108.36 0)"/><path d="M295.47,250.75a2.18,2.18,0,0,1,1.35,2.62,17.11,17.11,0,0,0,1.37,7.58c.38,1,1.05,2,.22,3.3-2.16-3.25-2.7-6.93-3.53-10.48C294.68,252.91,295.23,251.88,295.47,250.75Z" transform="translate(-108.36 0)"/><path d="M289.5,223.54l2.63,2.85c-.81,2-2.52,2.42-4.46,2.53-.21-1.09-.4-2.06-.68-3.47Z" transform="translate(-108.36 0)"/><path d="M339.56,232.33l1.81-3.45,1.53.16-.58,2.66c.61.83,1.25,1.7,1.91,2.58C342.31,235.07,341.66,234.81,339.56,232.33Z" transform="translate(-108.36 0)"/></svg>