<svg id="detail-zuckerbanket-orangenbaum-2_Bild" data-name="detail-zuckerbanket-orangenbaum-2 Bild" xmlns="http://www.w3.org/2000/svg" viewBox="0 0 340.43 500"><path d="M417.84,251.91,413,251c-3.35-2.77-7.72-2.26-11.57-3.29l-1.67-1.52-2.13,1.2-1.27-1.86a22.6,22.6,0,0,0-4,0,19.13,19.13,0,0,0-2.71,1.3,6.15,6.15,0,0,1-1.92.27,10.32,10.32,0,0,0-2.84.05A27.09,27.09,0,0,1,374,248.75l-5.86,4.1c-1.94-2.24-4.61-3.8-5.31-7,3.7-1.26,4.8-5.08,7.48-7.43-.58-1.91,1.13-2.48,2.15-3.71l5.54.68c1.07-1.62,4.12.8,5.12-1.68l-.66-1.27L377.77,229c-.62-.47-1.34-1.47-1.82-1.37-1.74.39-2.06-1.59-3.42-1.74a20.7,20.7,0,0,1-3.73-.82,6.36,6.36,0,0,1-2.7-1.3c-2-2.07-4.67-2.18-7.06-2.61-2-.36-4-.82-6-1.35s-4-.78-6-1.27a15.8,15.8,0,0,1-2.6-1.18c-.58.82-1,1.45-1.77,2.47L341.5,218l-12.83,1.93-1-1,3.07-2c3.7.84,5.9-1.82,8.05-4.08,2.53.16,4.68.08,6.57-1.54a4.37,4.37,0,0,1,2.88-.8c1.8.13,3.06-1,4.22-1.41,3.44.93,6.72,1.41,9.69,2.92a3.09,3.09,0,0,0,2.25-.34,32.42,32.42,0,0,0,3.14-2l9.41,1c1.67-2.13,3.86-1.87,5.41-1.86l4.2-4.19V202.8c1.5-2.33,3.67-3.14,6-3.8.26-.08.4-.58.71-1.06l-2.48-1.31-2.69.83c-.95-1.06-1.47-2.09-2.28-2.44a14.2,14.2,0,0,0-4.12-.86c-3.28-.34-6.57-.56-9.85-.86-.34,0-.64-.49-1-.54-.9-.13-2.11-.54-2.67-.13-1.31,1-3.16.91-4.15,1.76-3.29,2.78-8.25,2.52-10.92,6.26-.18.25-.6.32-.91.47.09.77.16,1.39.29,2.46,1-.73,1.54-1.24,2.18-1.63,1.61-1,3.19-2.55,4.92-2.77,2.18-.27,3.77-1.5,5.68-2.14.6-.21,1.21-.39,1.94-.62l3,3.44H374c1.21,2.18,4.3,2.5,5.36,5.14l-1.69,1.51L373.3,202l-.52.66-3.6-2-3.61.19c-.09,0-.18.19-.42.47v2.19c-2-1.08-4.18.66-5.93-1.12a3.12,3.12,0,0,0-.42.28l-1.28,1.73c2.18.8,4.05,1.46,5.89,2.17a14.1,14.1,0,0,1,1.8,1.15l-3.71,1.5c-.89-1.06-1.66-2-2.52-3l-1.29.82c-3-1.51-5.68-.2-8.41.92l-3.35-2.27c-3.08-.06-4,.3-6.93,2.14-2,1.25-4,2.31-6.73,3.83,1.05-2.09,1.76-3.52,2.6-5.21h2.92c2.85-1.71,2.2-5.27,4.61-7,.34-.24.14-1.23.21-2.09l4.14-1.85c2.41-.47,1.65-3.28,3.53-4.6h4.8c1-.82,1.48-1.71,2.82-1.7a4.56,4.56,0,0,0,3.15-1.09c2.44-2.87,6.34-3.94,8.43-7.33,1-1.69,3.15-2.73,4.68-4V172.1c-1.38,1-3.42,1-3.23,3.42.07.81-.88,1.41-2,1.53-1.57.18-2.41,1.28-2.84,2.81a3.68,3.68,0,0,1-2.81,2.87c-1.16.41-2.29.92-3.54,1.42-1.26-1.62-2-4.17-4.92-4.16-1.77-2-4.37-1.91-6.73-2.46a6.12,6.12,0,0,1,2.54-2.72,35,35,0,0,1,4.18,1.42,21.44,21.44,0,0,1,3.88,2.44c1,.77,1.74,1.88,3.3,2.39.35-.84.75-1.76,1.21-2.84l-7-4.91,3.05-.93c2.81,1.3,5.11,3.71,8.52,2.8-.56-1-1-1.89-1.52-2.74l3.18-1.53-1.27-1.27c-2.83.83-5.79-2.41-8.71.14l-1.16-.89c-3,.51-4.71,3.61-7.9,3.26-.27,0-.57.53-.91.71a15.91,15.91,0,0,0-7,8.06c-.14.33-.24.68-.35,1h-1.37l-2.58,2.3a36,36,0,0,0-3.36,9.24,17.64,17.64,0,0,0-2.35-.93,12.22,12.22,0,0,0-2-.18c-.42-3.87-.81-7.4-1.16-10.61a14.9,14.9,0,0,1-1.49-3.37,7.43,7.43,0,0,0-3.76-5.29c-1.83-1.05-3-2.91-5-3.61-.15-.05-.17-.45-.29-.81a7.63,7.63,0,0,1,.67-.83,10.21,10.21,0,0,1,1-.77c3.34,1.37,6.7,2.56,10.24,2.61l1.52-1.65c-1.5-1.86-4.25-2.2-4.65-4.72a6.57,6.57,0,0,1-4.09-5.07H321.6c-1.31-1.64-3.3-2.72-4-4.85l-6.05-2c-.08-.41-.16-.79-.17-.86l-5.5-1.72-.31.27c-2-1.08-4.4.18-5.89-.78-1.95-1.27-4.23.3-5.89-1.3-1.82,1.46-3.84.28-5.16-.15l-2.53-1.14.26-.55h8.51l-2.05-2.88c.58-.91,1.21-1.88,1.91-2.95,4.87,1.2,9.29-1.48,13.17-1.5l4.58,2,.29-.41,3.14,4.19h2.48l1.62,1.62h1.63a10.8,10.8,0,0,0,1.71,1.67c3.34,2.13,6.86,4,10.92,2.36a11.48,11.48,0,0,1,5.1-.68l2,2.53,1.85-1,1.65,1,1.89-1.09c.77,1.06,1.78,1.57,3.16.49a11.48,11.48,0,0,1-.89-3.19,11.27,11.27,0,0,1,.87-3.15c-4.24-4.25-9.26-6.84-14.27-9.49-2-1-4.2-1.11-6.1-2a29.88,29.88,0,0,0-4.76-1.35,25.42,25.42,0,0,0-5-.71c-4-.4-7.53,1.75-11.44,2.07a16.88,16.88,0,0,1-5.17-.21l5.48-4,1.95-2.24,2.23,2,2.52-1.13c1.83-4.26,4.06-6.1,7.3-6l-4.2,4.19,2.43,1.58,1.69-2.18,5.24,1,3-1.53c2.25.86,4.42,1.53,6.45,2.52a12.16,12.16,0,0,0,5.91,1.5c.78,0,1.83-.18,2.31.24,1.74,1.51,3.85,1.36,6.08,1.39l1,1.69c.39-.38.59-.75.78-.74,3.28.08,6.64-.93,9.84.58.06,0,.18-.08.28-.13,2.08-2,4.7-1.28,7.14-1.44l2-2v-2.45c-.77-.77-1.57-1.51-2.3-2.32A14.1,14.1,0,0,0,360,118.26a22.14,22.14,0,0,1-2.21-.53c-2.05-.28-4.12-.77-5.91.29l-5.62-2.26-1,.88c-1.75-.87-1.75-.86-6.73.82a2.11,2.11,0,0,0-1.78,2.49c1.08-.19,2.23-.77,3.06-.46,1.14.42,1.72-.69,2.76-.45a17.81,17.81,0,0,0,3.83.06l1.82,3.52c1.61,1.06,2.86,1.71,3.25,3.39l-1.13.57-5.95-6-3.38.34,3.48,4.19a5,5,0,0,1-3.95-3.31c-2-1.46-4,2-5.86-.22l-1.57,1.1-1-1.86,2.66-.24c1.05-.94,1.75-1.87.74-3.16h-4.9c-1.38,1.68-3.24,2.12-5.69,2.38l2.23-4.51c3.24-1.6,4.64-5.17,8.19-6.07.6.54,1.27,1.14,2,1.81l2.21-.69,1.43.67,1.1-.92a17.5,17.5,0,0,0,2.84.78,19.33,19.33,0,0,0,6.21-.7c2.23-.58,4.65-.45,7-.63,2.39-3.19,5.69-4.14,8.73-4.42l2.41-1.84V99.78c-1.91-1.14-1.61-3.24-2.52-4.9,4.06-.9,7.94-1,11.22-3.45,1-.77,2.65-.8,4.57-1.33l2.11-3c-.54-1.41-1-2.58-1.46-3.77l-3.53-.19L379.17,82c-1.78.27-2.81.5-4.23,0a7.91,7.91,0,0,0-4.6-.06c-5.08,1.38-10.12,2.88-14.16,3-6.08,2.82-10.83,5.59-13.94,11l1.8.8,1.3-1.22h2.46l1.42,1.42a20.36,20.36,0,0,0-9.16,6.35c2.19.27,2.22.33,3.61-.46a27,27,0,0,1,6.73-2.45,13.74,13.74,0,0,1,2.92-.78c3.65-.09,7.3,0,11.24,0l1,3c-3.67.4-6,2.68-8.85,4.2-2.25.3-4.56.72-6.89.9-2.49.19-5-.35-7.22,1a12.75,12.75,0,0,1-2.52-1.34,12.05,12.05,0,0,1-1.6-2.35l-3.48,1.6-1.73-.88c3-6.09,7-11.34,7.65-17.86-.65-.64-1.13-1.13-1.62-1.62V83.53L340.83,82V77.29l-2.33-3.14c-.65.33-1.22.88-1.77.86a6.71,6.71,0,0,0-5.43,2.67c-1.75,2-3.43,4-4.69,5.5-1,3.15-1.79,5.67-2.51,8.23-.48,1.72-1.55,3.77-1,5.13a12.09,12.09,0,0,1,.51,3.52l1.91,4.14c-1.21,1.7-2.7,3-3,4.47-.37,1.68-3.5,2.39-1.68,4.65l1.33.27c-.09.84-.16,1.56-.27,2.56l-2.7-1.35-3.47,5.12h-2.35c-.52,2-2,3.21-3.74,4.3l-1.77-2.09,2.14-1.48c-.75-3.54.95-5.81,3-7.58.32-1.55-.14-2.8.67-4.15.49-.8-.34-2.38-.58-3.62,0-.13-.06-.32,0-.4,1.83-2,.39-3.89,0-5.86s.46-4.2-.6-6.28c-.61-1.22-.38-2.93-1.13-4A13.36,13.36,0,0,1,308.69,83c-2.64,1.9-5,4.17-5.27,6.38-.44,3.1-2.52,5.52-2.8,8.91-2.64-1.66-5.7-2.09-6.68-5.28a13.83,13.83,0,0,1-2.1-.11c-.07,1.43-.07,2.74-.07,4.77L289.37,94a18.11,18.11,0,0,1,2.47-1.09c.06-.57.06-1.25.06-1.67l-3.72-4c-3.46-1.31-6.55-3.7-10.86-3.12-.66-.8-1.44-1.72-1.94-2.32L268.67,80l-1.09,1-1.07-1.56-5.75-1c.38,1,.67,1.72,1,2.49a2.17,2.17,0,0,1-2.46,1.52v3.13c3.88,3,8.61,2.44,11.71,5.72,4.36,1.63,6.08,6,9.47,8.64a2.86,2.86,0,0,1-3.75,1.09c-2.95-1.37-5.52-.75-8.3,1-1.26-1.09-2.62-2.3-4-3.48-.68-.57-1.09-1.43-2.24-1.5-2.3-.12-3.52-1.8-4.5-3.65a3,3,0,0,1-.16-.94l-3.31-1.56V88l-4.6,1V85.84h3.86c.12.56.2.93.26,1.25h4C256.09,84,256.09,84,248,80.89l-2.23,3c-.82-1.2-2.11-.59-3.11-.65L241,84.57,234.5,84c-1.92,1.94-4.9,1.27-7,2.81-.07,1.57-1.44,2.06-2.29,3l-1.83-1c-4,2.17-8,1.54-12.05.29-2.25,1.77-6.16.72-7.83,4.45l3.59.38.09.56L204,95.78c-.7,2.16-3.34,3.68-2.54,6.48l-1.72,1.81c.09,4.38-.43,8.8,1.22,13.36,2.36,1.43,2.27,4.62,4.13,7.27l-2.4.11c-2-3.28-6.24-3.32-7.85-6.25s-4.13-5.16-5.55-8c1.44-1.89.15-4,.87-5.89a14.41,14.41,0,0,0,3.94-6.52c.73-2.13,1.16-4.39,2.89-6.18a5.48,5.48,0,0,0,1.2-4,51,51,0,0,1,.45-6.43c-1.1-3.26-2.3-6.84-3.45-10.27L193,69.59c-.83.21-1.54.45-2.28.56-1.44.23-3.07.57-3.65,1.85-.77,1.68-2.12,2.69-3.27,3.93a7,7,0,0,0-2,4.09,12,12,0,0,1-1.24,4.75c-.94,1.57.37,2.42.49,3.58-1.42,3-1.21,8.18.58,10.51,1.12,1.44,2.33,2.74,1.51,5-2.76-1.71-5.94-2.29-7.94-5.07,1.17-2.42-1.47-4.67-.25-7.36.41-.9-1-2.51-1.2-3.85a27.92,27.92,0,0,1-.06-4.44C171.34,79.52,170,76,170.4,72l-4.19-3.47c-.85-4.53-5.67-6.68-8.37-10.09l-5.92-3.06c-.11.44-.35.83-.27,1.15a5.62,5.62,0,0,0,.75,1.72c1.36,2,3.23,4.24,2.34,6.66A7.58,7.58,0,0,0,154.9,70c.77,2.8,1.09,5.76,3.22,8a31,31,0,0,1,2.5,3.51c0,.45-.07,1-.12,1.62-.89-.49-2.25-.89-2.24-1.27,0-1.65-1.76-.91-2.16-1.94a10.92,10.92,0,0,0-1.41-2.26,23.91,23.91,0,0,0-2.33-3.1,16.78,16.78,0,0,0-3.1-2.31c-1.18-.73-2.46-1.29-3.93-2-3-.13-4.35-.59-7.19-2.58-.32-.23-.59-.74-.9-.75-2.74-.07-5.36-1.55-8.16-.71-.15,0-.2.44-.29.67l.88,1.07c3.3,1.11,6.44,2,9.49,3.25,1.87.73,3.63,1.67,5.53,2.39a14.88,14.88,0,0,1,8.47,7.66l-1,1c-1.51-.54-2.64-2.23-4.71-1.12,1,3.4,5.12,3.72,6.64,7v2.26c-1.7-.57-2.86,1.6-4.71.71-1.47-.71-3-1.36-4.46-2s-3.07-1.53-4.86-.84l-10.15-8.84-2.95-4.62-4.34,1a30.49,30.49,0,0,1-3.53-5.3c.39-.38.77-.77,1.15-1.15h2.45c2.17,2.41,5.21,3.09,8.09,4.09a15.91,15.91,0,0,1,3.08,1.42c.67.41,1.1,1.51,1.76,1.63,3.67.65,6.46,3.32,10.17,4.36V78.67c-.61-.4-1.33-.93-2.11-1.36-1.76-1-3.3-2.18-5.54-2.47-1.85-.24-3.39-2.1-5.55-2.26-1.68-.13-4.45-2.1-6.23-4h-1.41c-.25-.74-.41-1.21-.6-1.79h-2.69c-.23-.63-.38-1.08-.69-1.94L117.06,67l-4.21-1.57-2.27,1.16,1.27,2.8h3c.48,1.5,2.3,1.88,2.68,3.8.29,1.49,1.76,2.75,2.79,4.24a3.2,3.2,0,0,1,1,.07c.71.25,1.38.6,2,.89l.84-.75a5.2,5.2,0,0,1,3.74,3.54,7,7,0,0,0,3,3.59c2.86,1.82,4.87,4.49,7,6.32l4.37,1,.66-.49c1.72.83,3.15,1.66,4.68,2.22,1.9.68,3.88-1,5.82,0,1.19-1.26,2.77-.55,4.13-.86,1.52-.35,3-1,4.56-.77a5.59,5.59,0,0,1,.76.25l1,1.16-1,2.09.67-.46,1.47,2.7c.7-.71,1.18-1.19,1.51-1.51l3.72,3.59c-2.64.29-2.64.29-5.66-1.3l-2.05,1-.52-1.42c-1.23-.4-2.29-.81-3.39-1.08a16,16,0,0,0-4.5-.86,9.8,9.8,0,0,1-6-2c-1.55,2.26-4.1,1.7-6.29,2V97.9a13,13,0,0,0,2.92.78c5.19.12,10.4-.35,14.63.9a6.93,6.93,0,0,1,4.58,3.14l-1.49,2.71c-1.83-1.53-3.89-1-6.12-.91.94,3.46-2.12,2.84-3.32,3.69-2.77-1.07-5.61-.22-9-.66l-1.59-2.1-5.33.77c-.17-1.09-.29-1.84-.33-2.12l-4.94-2.38-2.45,2.45-2.08-.65v4.64l5.34-1.8,5.3,2.72c3-1.49,4.95.24,6.9,2H152c3.82,2.66,6.82,6,11.43,8.11H166a42.92,42.92,0,0,0,9.29,3.14c2.56.49,5-.74,7.35-1.53l6,2.74c-1.82.87-3.19,1.62-4.85,1.32s-3.08.3-4.67-.54a3.84,3.84,0,0,0-3.92.09c-3.47-.72-6.57-1.42-9.69-2-.49-.09-1.11.52-.92.42l-5.28-.22-1.51-.42-1.29,1.67a24.51,24.51,0,0,0-13.39,5c-.93.67-2.27,1.44-2,3.37a10.88,10.88,0,0,0,3.87-2c3.09-2.36,6.69-3.55,11.52-4.19l.54-2c1.71,2.1,3.12,1.57,4.23.72l3.43,1.13c.16,2.49-2.32,1.6-3.31,2.52.07.76.13,1.39.2,2.12a5.92,5.92,0,0,1,3.8-.95c2.79-.94,4.64-3.19,7.62-2.11-.2.83-.37,1.45-.5,2.07-.43,2.23-2.81,2.5-4,4-1.49,1.86-3.63,2.24-5.84,2.65s-4.25.79-6.36,1.31c-2.39.58-4.95.82-7.26-.57-1.53,1.23-3.12,1-4.76.54,0-.44,0-.71.08-1.12l4.54-.51-1.68-2.12H144l-2,2-1.83-.31c-1,1.64-1.81,2.89-3,4.79a13.42,13.42,0,0,1-1-3.22,2.59,2.59,0,0,0-1.45-2.43A7.11,7.11,0,0,0,133,141c.81.67,1.61,1.33,2.22,1.85,1.26-.77,2.23-1.39,3.23-2a16.91,16.91,0,0,1,5.27-.69c1.45.4,3.09-.29,4.41.78,2.39-1.41,5-.25,7.48-.64a6.28,6.28,0,0,0,.85-.26l1-1.09,9.36-1.19c1-.94,1.84-2.44,3.73-.95l-1.8,3.4c.4,5.79-2.51,11.67.5,17.07l2.89,2.89L178,152l3.1-1.52v-3.69c2.19-.45,3.24-2,4-4.06-.39-4.87.54-10-.67-15.27,1.13.21,2.14-1,3.82-.32,1.11.44,2.71-.41,4.1-.68l4.33-.82,5.61,5L200,133.22a20.38,20.38,0,0,0-2.95-.92,31.59,31.59,0,0,0-3.93,0l3.53,2.79-3.38,3.77a2.68,2.68,0,0,0,.33,1.33,17.92,17.92,0,0,0,6.36-4.43,17.52,17.52,0,0,1,3.41-2.33l1.28,2.52-2,4.73c1.18-.49,1.87-.57,2.17-1,1.49-1.94,2.88-3.95,4.42-6.11.59,1.56,1.24,2.94,1.63,4.39s.5,3,.76,4.6c-.43,1.11-1,2.51-1.6,4.07-1.55.64-3.18,1.48-2.9,3.83-2.26.8-3.42,2.9-5.29,4.42h-2l-5.62,4.43-1.52-1.08c-2.25.58-4.42,3.35-6.78.37-.05-1.59,2-1.87,1.69-3.57-.31-1.49,1-2.55,1.49-3.83s.09-2.67.09-3.85c1.53-2.39,3-4.62,4.41-7.21-3.07-.07-3.69,2.49-5.23,3.85.07,3.3-1.55,6.14-2.44,9.18-.07.24-.11.49-.24,1l-3,2.76c-.05.79-.08,1.42-.14,2.36l-2.06-.94-2.08,1c.52,1.15.89,1.95,1.2,2.62a9.14,9.14,0,0,0,2.11,1c1,.22,2.42-.22,3.1.32,1.34,1.06,1.94-1.15,3.18-.33,1,.64,1.91-.48,2.89-.74,1.74-.46,3.51-.76,5.64-1.2,1.3-1.06,2.88-2.46,4.57-3.69a19,19,0,0,1,3.62-2.06,10.48,10.48,0,0,1,2.65-.33l-3.51,9.44a61.87,61.87,0,0,0,.05,6.75c.31,3.27.91,7.15,3.93,9.38a15,15,0,0,1,2.28,2.8h2c-.35-1.6-.66-3-1-4.47a40.14,40.14,0,0,0,5-3.25c3.45-3.05,4-4.14,6.56-10.3a3.77,3.77,0,0,1,1.3-1.43c.2-.14.71.12,1.12.21-.35.5-.63.9-1.07,1.51.4.41.71,1,1.1,1.09,3.2.39,5.84,2.51,9,2.81a7.49,7.49,0,0,0,2.6-.78l3,1.9v1.83l-3.3,1.18.93,1.53c-.34.7-.68,1.37-.91,1.84l3.41,2.74a2.43,2.43,0,0,0-.82,3.09c.29,1,1.17,1.73.39,3-2,0-4.52.69-6.25-.16-2.84-1.4-4.91,0-7.14.46-.19.59-.3.95-.33,1.06l-5.26,1.23c-1.82,1.91-3.91,3.39-4.43,6.24h2.27l1.3-2.87,7.7-3.53,2.66-.61a24.21,24.21,0,0,0,11.87,0l1.81.91c.44,1,.91,2,1.3,2.86h2l.48-1.46h2.13c.33.46.79,1.12,1.06,1.51l3.47.28c-.69,1-1.11,1.65-1.6,2.36h-2.73c-.44,2.41-2.53,2.91-4.33,4.16l-4.51-.85a35,35,0,0,1-4.59,2c-1.7.5-3.51.66-5.27,1s-3.79,0-5.69.1c-1.71.06-3.72-.28-5.07.49-2.11,1.19-3.49-.85-5.25-.48-.21,0-.37.31-.64.55a5.82,5.82,0,0,0,.45,1,7,7,0,0,0,.85.88h4.21c1.07,0,2.35-.3,3.18.16,1.45.81,2.48.54,4,.06,1.72-.55,3.74-.08,5.62-.26s3.47-.59,5.26-.91v6.32c-1.85-1.6-3.63-1.42-5.38-1.16-.07.3-.17.48-.12.54a40.2,40.2,0,0,0,5.72,4.57c-.06,1.2-.12,2.47-.2,3.94a6.7,6.7,0,0,1-1.36-.54c-6.5-5-6.49-5-14-7.47a11.06,11.06,0,0,0-1.89-.36c-4.56-.62-9,.83-13.51,1a5.08,5.08,0,0,0-5.09,3.61l1.72.66-.4.37h2.44c.63-.95,1.13-1.68,1.35-2,2.21-.44,4-1.09,5.76-1.07a53.85,53.85,0,0,1,9.83.84,14.8,14.8,0,0,1,7.15,3.41c1,.92.56,2,1.4,2.55.51.79,1,1.59,1.23,1.93l4,.52-2.91,2.08-1.68-1.67-8,1L222,219.25l-3.47.84-4.09-2c-1.29.23-2.31.74-2.72.43-1.43-1.07-3.7-1.06-4.32-3.23h-4l-5.06-3-.92.7-2.24-1.06a13.55,13.55,0,0,0,1.51,3.25,68.63,68.63,0,0,1,6.37,3.41l1.39-.76,2.9,3.33A31.79,31.79,0,0,1,220.63,223l-2.35,1.24c-.84-.2-2.15-1.6-3.71,0-.4.41-1.57,0-2.38.08-1.26.13-2.5.38-4.46.69a23.86,23.86,0,0,1-4-2.14c-1.39-1.06-2.63-2.09-4.63-1.73v2c1.8,1,4.3,1.47,5,4.17.15.57.85,1.06,1.4,1.44,2.12,1.48,4.22,2.94,4.86,5.68v4.18l-1.4,1.19a7.23,7.23,0,0,0-1.38-.76A6.31,6.31,0,0,0,206,239c-1.28-1.07-3-1.9-3.69-3.24-.91-1.7-2.67-2-3.74-3.27a21.28,21.28,0,0,1-4.05-8.09c-1.83.82-1.83.82-2.26,2.95-1.66,1.08-4,.78-5.46,3.27.54-3,1-3.45,3.8-3.89-.35-1.22-1.39-2.56.44-3.78l6.17-1.32v-2c-1.39-.09-2.84-.75-3.84,1L189,217.59l2.71-1c.36.19.82,1.71,2.45,1.17.72-.72,1.52-1.53,2.5-2.55a12.67,12.67,0,0,1-2.6.17l-2.42-4.08H189.4l-1.86-2.79c-8.58-2.53-16.72-4.38-25.32-1.72-.28.28-.74.77-1.21,1.26-1.06-.78-2.47-1.34-3.06-2.37-1.24-2.13-3.1-3.63-4.44-5.13-.72-2.9-1.16-5.42-4.34-6.47-1.26-.41-2.26-1.78-3.23-2.86a20.45,20.45,0,0,1-1.84-2.77h-5.18l-4.18-3.13c-1.49-.13-3.06.17-4.08-.45-1.23-.74-2.47,0-3.46-.54a7.12,7.12,0,0,0-3.77-.77c-1.89,0-3.79,0-5.65,0l-1.3,1.3c1,.93,1.81,2.36,3,2.66,2,.53,2.71,2.1,3.31,3.55a16.62,16.62,0,0,0,4.49,6,4.31,4.31,0,0,0,1.13,4.29c1.63,1.62,2.47,3.63,3.67,5.64a15.24,15.24,0,0,1,7.56,5c1.8.48,3.7-.41,5.31.76l.38-.39c1.26.5,2.43.93,3.59,1.41a7.47,7.47,0,0,1,3.42,1.78,2.81,2.81,0,0,1,.48-.12c.11,0,.27.29-.16.44h0c0,.16-.35.08-.76,0a10.31,10.31,0,0,0-3.56.6c.12.84.22,1.55.32,2.32,1.14-.37,2-.67,2.82-.91s1.63-.39,2.13-.51l1.88.56c.26-.77.42-1.25.57-1.68h3.48l6.22,2.51,1.95-1.7,5.22,2.11,1.06-2.11c2,0,3.62-.09,5.24,0,1.43.11,2.32-.86,3.44-1.39-.18-1.8,1.86-1.5,2.5-2.67l-.55-1-4.65,2.86-1.82-.93h-4.29c-.13.51-.22.88-.35,1.37H170l-3.17-1.64c-1.22,1.66-3.23,1.31-4.43.82-2.2-.91-4.42-.37-6.57-.82l.59-.7-1.69-.26,2-2c5.52-.62,10.78-3,16.2-2.58l1.65.86c.66-.45,1.08-.74,1.23-.83a52.42,52.42,0,0,1,7.07,2.47c2.24,1.16,4.88.47,7.27,2.18l-2,4.48-3-.78c-2.29,1.39-5,2.56-7.92,2.19L174.89,221c-2.83-.24-4.28,2.51-6.66,3.1L164,218.9v3.3c.56.81,1.11,1.63,2,2.93-1.12,0-1.77.2-2.1,0-1.56-1.12-3.31-.63-5-.8s-3.31-.58-5-.78c-2.74-.32-5.59-.19-8.18-1a23.93,23.93,0,0,0-4.19-.69c-1.53-.2-3.07-.88-4.55-.74-4.83.48-9.24-1.43-13.87-2-.2,0-.38-.25-.47-.31L120,220.22c-3.14.15-6.42-.68-9,1.69-2.74-1.08-5.28-2-8.14-.9a40,40,0,0,1-5.08,1.28c-.17.16-.5.81-.94.89-3.12.58-5.5,2.55-8.11,4.09-3.92,2.31-7.69,4.78-8.94,9.9.38.79.85,1.77,1.4,2.88l5.58-2.69c3.2,0,7.14-.05,11.08,0a15.59,15.59,0,0,0,5.38-.81c1.58-.52,3.23-.79,5.57-1.35,1.91-1.32,4.45-3.05,7-4.83,1.27-.91,3-1.67,3.58-2.93.89-1.94,2.36-2.5,4-3.18a20.63,20.63,0,0,0,2.73-1.59h4.47l2.13,1.1c-2.44,1.72-5,3.42-7.39,5.28-1.17.9-2,2.2-3.21,3.11s-1.56,2.47-3,3.26c-1.14.61-1.89,2.1-2.63,3.32-1.73,2.87-4.36,5.51-2.36,9.4a2.51,2.51,0,0,1-.56,2.6c-.47.56-.18,1.75-.23,2.71l2.46,1.41-2,2.08,7.55-1.12c1.18-1.17,2.59-2.65,4.07-4a11.89,11.89,0,0,1,2.77-2.17c3-1.41,4.84-4.09,6.75-5.76l1.14-3.18-.85-2.52,5.1-5.94v-4.35l1.41-1.33,10.71,3.9c-2.76,2.92-6.31,5.18-8.2,9a28.47,28.47,0,0,1-2.55,3.43c-.52.72-1.36,1.5-1.37,2.26a11,11,0,0,1-.93,4.13,24.87,24.87,0,0,0-1.43,3.89c-.44,1.87-1.28,4-.84,5.67.66,2.59,1.62,5.1,1.48,7.83h1.71c-.4-3.48.69-6.94-1-10.25a20.91,20.91,0,0,0,1.67-3.82,43.3,43.3,0,0,1,4.05-11c1.11-2.14,3.56-2.82,4.54-5,.18-.4.79-.64,1.25-.86.21-.11.53,0,.8,0,.61-2.21.61-2.21,3.59-2.28-1.35,1.05-1.8,2.56-3.59,2.28,0,.41.18,1,0,1.19-2.42,2.59-1.38,5.63-1.62,8.58h1.29a33.86,33.86,0,0,0,1.87-4.42c.43-1.55.24-3.34,2.3-3.87a4.9,4.9,0,0,1,3.47-3.4l1.14-4.18,1.82-2.17c1,.46,1.83.81,2.61,1.17.35.81.7,1.61,1.08,2.52-1.46,1.59-3.26,2.94-3.44,5.48-.05.83-1.22,1.66-2,2.33A10.32,10.32,0,0,1,158,240c.12,2.15-.27,4.37.48,6.08a3.4,3.4,0,0,1-1.37,4.65,7.21,7.21,0,0,0-3.07,3.66,6,6,0,0,1-5.46,3.38c-.82.85-2.35,1.71-2.56,2.82-.33,1.72-2.41,1.09-2.41,2.57v4.61c2.75-2.93,3.48-7.61,8.25-7.61l2.81-2.66c.47-3.64,3.46-4.68,5.46-6.26a11,11,0,0,0,1.17-3,14.87,14.87,0,0,0-.73-3.61l3.08-1.1.84-1.9,3.92-3.48h5.61l3.27,3.33c1.88-.89,3,.78,4.45,1.55s3.36,1.39,4.33,3.14a11.76,11.76,0,0,1,2.57,1.59l-1.79,2.09-2.78-1.23c.76-.88,1.33-1.54,2-2.45-1.67.87-2.72-1.1-4.26-.39-1.22.56-2.53-.88-3.87-.15l-1.59,1.6c-2.7-.69-5.14.68-7.74,1.43-1.13.33-2,.56-2.36,1.69a1.5,1.5,0,0,1-.62.82c-2.8,1.29-5.8,2.3-7,5.6-3.25.77-3.2,4-4.67,5.84.24,2.48,1.79,3.75,3.14,5.17a16.07,16.07,0,0,1,1.49,2.44l-5.1-1-1,1v4l2.86,1,2.19-2.81a15.14,15.14,0,0,0,9.89-2.3c1.13-.71,2.67-.78,4-1.14,1.14-.77,2.94-1.34,3.36-2.43a5.07,5.07,0,0,1,3.31-2.95,6.61,6.61,0,0,0,4.47-4.22,7.06,7.06,0,0,1,1.73-2.13c.74-.8,2.07-1.48,2.18-2.33.22-1.8,1.64-2,2.69-2.47,1.23-.6,3-1.5,3.91-1,1.33.75,2.14-.51,3.06-.13a35.67,35.67,0,0,1,3.32,1.82,16.54,16.54,0,0,0,3.47,1.5,26.8,26.8,0,0,1,4.95,2.57c-.07.27-.13.53-.19.8-1.69-.8-3.47.63-5.26-.91-.48-.41-2,.15-3,.3-1.73.25-2.7,1.46-4.06,2.1a28.29,28.29,0,0,0-3.8,2.66A15.56,15.56,0,0,1,190,263c-.36,2.23-1.91,3.68-3.47,5.07-3.35,3-4.41,7.1-5.51,11.17-.16.61.6,1.48,1.06,2.5a14.59,14.59,0,0,0,1.28-2.82,17.62,17.62,0,0,0,0-3.08l2.3-1.26c.74-3.55,2.26-5.25,12.88-14.36a19.82,19.82,0,0,0,2.44,0,9.26,9.26,0,0,0,1.8-.56l1,1c-1.16.87-2.56,1.54-3.38,2.64a16.27,16.27,0,0,1-3.85,3.43c-.52.37-1.42.64-1.52,1.09-.44,1.92-2.3,1.7-3.29,2.64-1.18.7-.53,2.44-2.33,3.13-1.11.43-1.42,2.62-2.41,3.73a7.1,7.1,0,0,0-2,5.73c0,.22-.18.46-.41,1l-2.9,1.07a6.27,6.27,0,0,0-2.36,5.78L181.9,293c1.52-1.27.4-2.21.13-3,2.33-1.78,4.58-3.52,7-5.37a5.22,5.22,0,0,0,4.44-1.51c1.69-1.47,3.33-3.05,3.06-5.57a8.31,8.31,0,0,0,5.71-4.91c.41-.92,1-2.11,1.85-2.42,1.75-.67,2.59-2.18,3.89-3.14V263c1.71-2.84,1.71-2.84,7.41-4.54a7.26,7.26,0,0,0,1.06.83c.54.3,1.15.49,2.46,1l14.46-1.08,3.09,2v4.66c0,1.36,0,2.72,0,4.08s-.4,2.94.94,3.92a6.49,6.49,0,0,0-.09,6.84,4,4,0,0,0-.59,4.48,6.34,6.34,0,0,1,0,5.27c-.33.81-.62,2.19-.2,2.65,1.12,1.23.62,2.55.68,3.82.1,1.89,0,3.8.07,5.7a11.11,11.11,0,0,0,.77,2.53,8.77,8.77,0,0,0-.82,6.31,5.48,5.48,0,0,1,0,.81v18.56c-2,.7-3.8,2.17-5.68-.17v-3.22c-.33-.34-.6-.5-.7-.73a19.44,19.44,0,0,1-1.81-9.46c.22-3.4.32-6.82-1.92-9.79a5.19,5.19,0,0,1-.49-1.83c-.33-1.31-.65-2.63-1-4.08l-1.05.91-1.07-.86v3.89c2.1,2.19,1.46,4.93,1.4,7.63h-1.81l-1.87,2.49-2.86-2.47c.14-1.36.31-3,.5-4.79l-2-2.94c1.43-1.16.54-2.75.76-3.87-.63-1.2-1.15-2.21-1.42-2.71.28-1.51.44-2.49.64-3.47a8.42,8.42,0,0,1,.34-1.05l1.54,1.55,1.91.35,2.72,3c-.1-3-2.31-5-3.74-7.27l-7.83-3.3c.25,1,.41,1.73.6,2.46a20.35,20.35,0,0,1,1.13,4.4c.07,3.32,1.46,6.5.89,9.86a1.92,1.92,0,0,0,.3,1.09c1.45,2.48,1.41,5.23,1.31,7.67.67.87,1.52,1.46,1.58,2.12.35,4.09,3,7.1,4.75,10.52-2.28.09-2.28.09-4.44-1-1.69-3.62-4-6.85-3.5-10.8l-1.67-1.48v-3.77c-1.24-2.86-4-4.64-3.23-7.85a5.66,5.66,0,0,1-1.34-.37,2.37,2.37,0,0,1-.87-.85c-2.32-4.64-6.56-6.2-11.23-7.2a5,5,0,0,1-3.91-3l-4.28-1-1.37.86-1.43-1.09c-.32,4.91,1.48,8.94,2.49,13,.59.16,1.12.13,1.3.37,1.45,1.9,3.61,3.29,4.28,5.76,1.41.68,2.75.95,3,1.61.64,1.78,2.25,1.78,3.47,2.51.39,1.86,1.88,2.79,3.27,3.76a55.33,55.33,0,0,0,9.42,5.78c1,.43,1.6,1.64,2,2.1l-3.47,3.43-2.14-1V325c-1.77-1.42-.15-.33-5.23-4.17s-6-4.37-9.59-5.8c.72,1.86,10.16,8.95,10.78,10.53-5.46,2.89-17.67-1.66-20.92-1.83-2.86-1.29-4.9-2.28-7-3.11a2.26,2.26,0,0,0-1.95.08c-1.31,1.28-2.8.37-4.07.74l-8.17-5a29.21,29.21,0,0,0-7-4.46,10.65,10.65,0,0,0-7.91-.05c.37.72,5.1,1.73,6.81,3s3.25,2.66,5,4.15c0,0,8.73,4.44,11.84,5.66.18-.13,7.83,2.18,15.72,3.34A129.83,129.83,0,0,0,202,329c.43.05.75,1.11,1.07,1.63-1.56.64-2.83,1.2-4.12,1.68-.59.22-1.64.6-1.79.4-1-1.36-1.94-.12-2.62.13-3,1.08-6.79.86-8,4.9a6.18,6.18,0,0,0-6.95,3.66c-1.2,2.65-3.09,4.94-3.92,7.74-.21.7-.27,1.44-.43,2.29h2.43c.41-1.56.83-3.15,1.24-4.73,1.79-1,2-1,2.07-1.91.15-2.23,1.66-3.42,3-4.8l2.35,1.17c.38-.48.74-.89,1-1.33,1.92-2.83,2.25-3,5.62-3.83a16.85,16.85,0,0,0,2.74-1.26c.34-.16.69-.29,1-.43l.88.8,5.2-1c.48,1.11.89,2,1.31,3-.58.49-.46,4.37-3.8,7.5C196,348.74,188,352.32,187,353.27h-2.64l-5.87,3.29c-.37-.28-.66-.39-.75-.59a5.69,5.69,0,0,1-.22-1.09c-2.37.21-3.06.61-3.06,2.16.29.67.72,1.7,1.12,2.63h3.82c.31-.46,5.32-3.29,6.06-4.06a30,30,0,0,0,12.74-5.34c5.23-4.13,8-10.26,8-10.92.08-1.72.08-3.39,1.18-4.84,1.65-.24,2.79-1.9,4.58-1.72,2.34.25,3.92-1.1,5.68-2.71l5,1.22c-.39,2.47-.35,2.59-1.71,3.09-3.32,1.22-6.13,3.53-8.87,4.06a26.46,26.46,0,0,0-5.49,8.43c.15,1.71.54,2.78.26,3.61-.62,1.82-1.53,3.52-1.41,5.54a2.47,2.47,0,0,1-.56,1.38,7,7,0,0,0-.94,5.24l2.31,3.4c0,2.23.17,4.68,1.93,6.58h2.92c2.52-.86,1.3-2.57,2-4.05,1.38-1.09,3-2.44,4.69-3.69s2.95-3.14,4.46-4.67,3.14-3.4,3.58-5.8c.21-1.13.65-2.21.78-3.34s-.07-2.46.06-3.66a13.44,13.44,0,0,1,.77-2.54,11.65,11.65,0,0,1-1.4-8.19c.73-.2,1.92-.88,2.33-.57,1.8,1.41,4.17.12,6,1.49.32.25,1.27-.34,2.09-.59,0,1.44-.49,3.08.11,4.06,1.18,2,.24,4,.76,5.83a20.28,20.28,0,0,1,.79,5.79c-.06,6.25,0,12.5,0,18.76a5.9,5.9,0,0,1-.28,2.72c-1.11,1.95.18,4.14-.62,5.86a8.94,8.94,0,0,0-.58,6.2c.93,3.19.51,6.33.66,9.49.09,1.62,0,3.26,0,4.89a3.73,3.73,0,0,0,.56,2.66c.25.32-.85,1.58-.4,2.71a15.52,15.52,0,0,1,1.45,5.51c0,2,.07,4.08,0,6.12a2.3,2.3,0,0,1-.56,1.15c.4,2.87.73,5.23,1,7.29-1.15,3-2.23,5.77-3.32,8.57a30.68,30.68,0,0,0-9-4.85c-.52.81-1.06,1.66-1.76,2.73a31.4,31.4,0,0,0-11.29-.94l-1.15,1.16v3.63h-1.94a2.74,2.74,0,0,1-.79,1.15,25.91,25.91,0,0,0-5.6,7.22l.06,0c.6.38,1.22.72,1.89,1.1l-.45,1.12-2.34-.72c-.93,1.76-1.81,3.56-2.77,5.34-.11.19-.2.39-.3.59l-.27,1.29h-.37A22.36,22.36,0,0,0,198.07,468a33.88,33.88,0,0,1,1.69,3.61c.72,1.92,1,4,1.62,6a24.1,24.1,0,0,0,2.43,5.78,16.62,16.62,0,0,0,3.56,3.74c1.4,1.17,2.89,2.25,4.28,3.43a25.64,25.64,0,0,0,2.7,2.08h2.07l1.48,1.41c.64.16,1.29.3,1.94.41a2.66,2.66,0,0,1,2.83.35h.08c1.48-1.75,2.09-3.46,4.29-2.95.69,1.1,1.35,2.14,2,3.18.72,0,1.43.07,2.14.12-.38-.86-1-1.65,0-2.52h1.51c1.26.88,2.12,2.18,3.33,3.19.65.14,1.31.29,2,.46.11-1,.21-2,.3-2.83h3.27l3.1,2.84c0,.54-.06,1-.09,1.5a97.89,97.89,0,0,0,9.83.63l-2-1.63,1.45-1.56c.74-.14,1.18.89,1.16,3.21,1.66.07,3.32.17,5,.37,2.88.36,5.72,1,8.62,1.16s5.38-.67,8.11-1.2a24.06,24.06,0,0,1,5.72-.33c1.13-.5,2.29-.92,3.39-1.3.86-.29,1.73-.56,2.58-.87l.22-.09L287,494.64c.29-2.32.29-2.32,2.57-2.81.72.91,1.33,1.58,1.81,2.28.66-.63,1.3-1.27,2-1.84l-.09-.07.7-1.42q.42.24.81.51a10.53,10.53,0,0,0,1.64-1.21,20.26,20.26,0,0,0,2.37-3.35c.95-1.4,1.91-2.8,2.76-4.26,1.64-2.83,1.89-5.9,3-8.93.09-.26.22-.52.33-.78a2.69,2.69,0,0,1,.06-.69,2.57,2.57,0,0,1,.42-1.31c.09-.19.19-.36.29-.55a2.74,2.74,0,0,1-.24-1.2c.21-4.37.81-8.72,1.33-13.07a13.72,13.72,0,0,0-.65-2.73c-.17-.45-.31-.92-.46-1.38l-.57,0a10.23,10.23,0,0,1-.16-1.06c0-.1.08-.21.23-.5-.27-.86-.54-1.72-.85-2.57l-.19-.51a9.68,9.68,0,0,1-1-.7,3.55,3.55,0,0,1-2.47-1.84l0,.51h-2.16l0-.43,2.09-.29c0-.1-.07-.2-.1-.3a3.72,3.72,0,0,1-1.77-1.31,13.6,13.6,0,0,0-1.41-.3,8.24,8.24,0,0,1-2.74-1,20.64,20.64,0,0,1-2.87-2l-3,.53c-1.18-.68-3.14-.7-4.09-2.33l-1.57,1L282,436.92a63.12,63.12,0,0,0-10.73-1.37l-.17,0-.54,0a3.41,3.41,0,0,1-1.5-.35c-.37.32-.89.46-1.73,0v-1.88a4.05,4.05,0,0,1-.24-1c-1.7-.2-3.23.25-4.62-.4,1.2-3.16,2.31-6.09,3.55-9.34l-2.28-.12a5.2,5.2,0,0,0-.77.79c-.32.54-.58,1.12-.85,1.66H260.5l-2.06-2.06A26.23,26.23,0,0,0,257,412.5c0-.1-.07-.19,0-.13l1.13-2.2c-.62-2-1.12-3.54-1.64-5.19l2.15-1.69c-.34-1.78-.74-3.41-.95-5.07s.33-3.34-.7-5l2.32-1.34c.19-2.19-1.34-3.55-2.14-4.65-.41-4.17-.8-7.85-1.12-11.53-.29-3.29.28-6.57-.68-9.9-.48-1.67-1-4,.64-5.76a1.26,1.26,0,0,0,0-1.18c-1.4-1.95-.52-4.12-.84-6.23l1.9-1.25,3.36,5.75c1.95.49,3.8,1.36,4.52,3.29.93,2.5,2.91,4,4.17,5.39,2.34.74,4.13,1.38,6,1.88,1.47.39,2.92.4,3.75-1.12v-4.1a33.75,33.75,0,0,1-7.23-9.12c-2.12-2-3.59-3.51-5.18-4.87s-3.5-2.79-5.18-4.11c-2.14-.37-3.56-1.88-5.15-3.22,1.52.06,3.12-1,4.44.58,1.43-1.64,3.31-.42,5.4-1l1,1.81c2.85.35,5.07-3.64,7.77-.47-.85,2.11-.82,2.09.09,4.18a60.55,60.55,0,0,1,2.83,7c.64,2.15,1.62,3.72,3.76,4.51s3.13,2.84,4.66,4.56l3.51-.68,2,3.81,2-2.09c0-1.41.1-2.91,0-4.39a5.76,5.76,0,0,0-.81-2.5c-1.13-1.76-1.37-3.79-2-5.69-.81-2.27-1-4.93-3.64-6.17a8.86,8.86,0,0,0-2.28-4c-.35-.38-.05-1.35-.05-1.8l4,.82c-.26,3.23,2.58,4.71,3.81,7.06,1,1.91,3.25,2.39,5.1,2.69,2.91,4.41,2.08,3.52,13.31,11h5.78c-1.28-3.43-.81-6.87-2.57-10.16-1.68-3.14-3.75-6-5.33-9a15.63,15.63,0,0,1-3.07-1.64,6.62,6.62,0,0,0-4.54-1.92,3.83,3.83,0,0,1-1.7-.78c-2.57-1.52-5.13-3.07-7.65-4.58l.38-.93,4.53.63c2-1.88,3.83,0,5.72.33.35.06.66.42,1,.47,3.07.42,5.77,1.8,8.82,3.28a8.91,8.91,0,0,0,2.45-.05,31.42,31.42,0,0,0,3.79-1.5c1.14,1.43,2.81.32,4.13.86l1.47,1.47h6.62a6.33,6.33,0,0,1,6.11-2.43l2.36-1.93c-.64-1.27-1-3.06-1.83-3.38-1.49-.54-1.39-2.1-2.49-2.69s-2.24-1.16-3.36-1.73a15.48,15.48,0,0,0-3.4-1.61,18.83,18.83,0,0,0-4-.06c-1.34-1.4-3-1.44-4.71-1.72-1.92-.32-4-1.43-5.72-.6s-3.09.53-4.63.66c-1.32.11-2.65,0-3.55,0-.74,1.08-1.23,1.78-1.71,2.46l-2.29-3.49c1.87-2.07,5.16-1.65,6.52-3.93l2.76,1.2c-.28-1.54-.24-2.6.78-3.27,1.25-.84,2.5-1.7,3.76-2.56l.62.63c2.38-2.24,3.22-5.38,4.76-8.09a12.19,12.19,0,0,0,.76-3.17c-2.19-.07-3.14-2.95-5.39-1.72l-4.59,3.3-6-1c-2.83.65-4,2.1-4.56,3.77a3.94,3.94,0,0,1-2.18,2.66c-2.4.61-3.5,2.39-4.92,4.48l-2.54-1.17c.86-1.09,1.5-1.92,2.39-3.06l-1.17-8c-1.28-1.48-2.53-1.38-4-.59a15.26,15.26,0,0,1-3.6,1.14c-2.62.61-5.09,1.19-6.5,4a5,5,0,0,1-4.18,2.57,5.6,5.6,0,0,0-1.56.59c-2.18-1.19-.87-2.65-.45-3.78-.59-2-1.11-3.85-1.71-5.91l-4.7-.82-3.92,3c-.31,1-.67,2.19-1,3.32l1.84.63-1.94,1.46-1.32-1.19-4.91,11.36c1.79,1.34-.13,2.56-.22,3.85,0,.22-.77.38-1.7.81.2-1.71.34-2.91.53-4.49l-1.08-2.1,1.47-1.48V308l1.62-1.7v-2.33l-1.72-.88c.54-4-.67-7.76.94-11.37-1.06-.74-.5-2-.88-2.89-.8-1.89-1.16-3.55,0-5.51a3,3,0,0,0-.48-3c-.82-1.19-1.66-2.7-.79-4.58l3.14-1.79L257.7,276a7,7,0,0,0,1.16-1.13,6.23,6.23,0,0,0,.42-1.45c.11-.34.25-.68.37-1H263c1.66-3.14,3-3.66,6.17-2.76a41.88,41.88,0,0,0,5.65,1.14c3.61.47,6.7-1.44,9.64-2.32,1,.29,1.73.52,2.46.7s1.6.37,2.12.49l1.56-.57c.5.5.89.88,1.08,1.08-.28,1-.52,1.8-.66,2.29l5.9,4.2v3l1.55,1.28v4.46c1.27.91,2.51,2.33,4.05,2.79a7.1,7.1,0,0,1,4.91,4.4l6,1.42.92,1.53,3.34-.91c1.34-6.09-1.42-10.72-3.79-15.41-2-3.92-5.82-6.05-9-8.82l2.45-1.26c2.11.75,4.6,1,6.19,2.61s2.62,3.78,3.89,5.7c2.09-.55,3.56.3,4.91,1.35a12.54,12.54,0,0,0,7.09,2.61,12,12,0,0,1,2.58.78c1.08-.56,1.92-1.08,3.46-.23,3,1.67,6.28,2.94,9.85,2.67.89.82,1.53,2,2.49,1.77l2.78-2.25v-3.86c-3.23-3.61-6.32-7.08-9.42-10.56l-3.88.85-2.95-3.29-4.47.94c-1.72-1.69-4.4.19-6.26-1.48-.37-.34-1.3,0-1.77,0l-2.36,3-.92-2a35.3,35.3,0,0,0-15.13-.53L303,266c-1.56,0-3.23-.51-4.2.1-2.72,1.7-4.67.11-6.82-1-1.22,0-2.45.09-3.66,0a29.85,29.85,0,0,1-3.42-.72c-.22.2-.53.73-.8.71a17.8,17.8,0,0,0-5,.78c-1.76.38-3.59,0-5.4.8-1.17.54-2.69.17-3.12-1.85l3.17-4.37-1.17-1c-2.93.22-3.35,4.69-7.06,3.73.43-1.6,2-2.25,2.7-3.51-.53-2.57,2.88-2.87,2.67-5.54,1.69,1.16,2.88,2.54,4.25,2.76A4.54,4.54,0,0,1,279,259.7c.57,1.08,2.19,1.61,3.25,2.33l1.37-1.1,4,1.95,3.35-2c-.44-1.93-3.29-1.13-3.08-3.72l1.72-.26,2.5,1.89,2-3-2.88-2.24,2.07-1.75,3.39,1.31c.13.77.26,1.51.41,2.38l3.17-.74c-.53,2.72-1,5.28-1.51,7.81l.91.9.85-.77a3.44,3.44,0,0,0,4.09.57,5.86,5.86,0,0,1,2.61-.58,5.57,5.57,0,0,0,4.64-1.6c2.29,1.12,6,.12,9.38-2.56l3.14,1.69h7.55l2.18-2.61,1.75,1c3.76-1.66,3.76-1.66,4.76-3.39,2.38,1.12,5,1.93,7.05,3.5a17.33,17.33,0,0,0,4.08,2.09,27.1,27.1,0,0,0,5.17,1.16c.19.54.36,1,.51,1.42h2.1v-2.81l-7.45-3.7-.92.79-5.16-4h-3.23c-.81-2.18-2.49-2.47-4.21-2.34a11.1,11.1,0,0,1-1.33,1.53l-1.84-1.46c1.49,0,2.26,0,3.17-.07a5.23,5.23,0,0,1-.14-1.59l-7.21-1.26-3.3-3.08-1.29.79-3.6-2.88,3.88-2.65a27.24,27.24,0,0,1,3.26,0,7.46,7.46,0,0,1,2.51.81c1.32.71,2.51,1.36,3.86,0a1.53,1.53,0,0,1,1.51.07c.94,1.25,2.31.35,3.36.84s2,1.08,3.06,1.47a31.15,31.15,0,0,1,3.29.9c.66.32,1,1.2,1.36,1.61h5.36c1.29,2,3.95,2,5.41,3.38a15.6,15.6,0,0,0,4.85,3.09c2,.79,4,1.44,6.29,2.23v1.71l2,2.66,2.84-1,3.28,2.25,10.3,1.55c1.54-.4,3.13-1.17,4.71-1.16a8,8,0,0,0,6.2-2.86l8.23,3a17.23,17.23,0,0,1,8.7-3.45l2.94-1.2C419.27,254.71,418.58,253.37,417.84,251.91Zm-42.65-53.42,3.44-.38c1.21,1.82,4.13,1.93,4.84,5.26ZM367.77,204a5.32,5.32,0,0,1,.42-1.07c2,.47,2.62,3.39,5.14,2.59.05.56.08.93.12,1.43-1.81.66-3.19-.7-4.75-.94-.33-.05-.68-.49-.84-.84A2.18,2.18,0,0,1,367.77,204Zm-1.38-2.57h.27v.82h-.27ZM346.86,178.8c2.75,1,5,3.38,8.52,3.1l2.14,3.9-3,.25c-2.51-2.69-6.73-2.86-8.71-6.29Zm-1.56,4.55c1.72.53,2.22,1.91,3.89,2s1.78,1.53.41,3.79h-3.54l-4.74-3.66Zm-6.77,4.32h2c1.08,2.18,4.42,2.37,5.47,5.54-2.59.21-5,.06-7.46.12Zm-9,9.17,1.17-1.11,1.59,2.51c1.46,0,1.82-1.13,2.16-2.19l4.15-2,1.28,1.17V199l-3-.39-1.67,1.21,2.65,2-1.1,2.9h-2.91l-3.12,3.69c-1.19-2.28.3-3.45,1-4.88V200l-2.18-.24Zm-5.18-32.58c-.35.49-.73,1-1.12,1.55-2.36-.91-2.07-3-2.31-4.61A28,28,0,0,1,324.38,164.26ZM320,160l.56.66h0a1.64,1.64,0,0,1-.82-.41Zm25.51-16.71c.16.78.23,1.15.35,1.74h-2.47Zm-9.73,2.63a13.71,13.71,0,0,1-3.74-6.15C334.1,141.3,335.86,143.07,335.75,145.88Zm-4.7-.41h.82v.27h-.82ZM324.66,142H326v2.32h-1.36Zm-7.14-8.14.57.66-.16.16a19.75,19.75,0,0,0,2.43-.81l.12,2.43-2.67-1.46a1.48,1.48,0,0,0-.55-.73Zm-4.28,0h2.82c.93,1.23-.08,2.16-.5,3.11.67.37,1.33.71,2.21,1.15.31.63.74,1.52,1.33,2.71-.69.09-1.32.37-1.55.17a5.6,5.6,0,0,1-2-4c-1-.36-2.06-.72-3.38-1.16Zm47.85-10.37v2.33a6.69,6.69,0,0,1-4.2-4.42Zm-9-3.51,2.05,2.76c-.6.24-.89.48-1,.41C352.1,122.67,351,122.21,352.08,120Zm21.43-34.54L377,88.71c-.37.59-.5.8-.72,1.17a7.51,7.51,0,0,1-3.75-3.64Zm-7.29.28,2.09-.1c1.09,1.47,2.26,3.05,3.43,4.61l-1,1-4.53-3.4Zm-15.75,7.7c2.21-.4,2.18-.39,2.62,1.16a13,13,0,0,0,.82,1.78A4.14,4.14,0,0,1,350.47,93.43Zm8.08-1.24h-2.67l-1.25-3.93h2.2C357.67,89.19,359.39,89.91,358.55,92.19Zm5.92-.07c-1.33.34-2.53-.54-3.36-1.38A22.71,22.71,0,0,1,358.56,87c2.71-.49,3.72,0,7.82,3.57C365.73,91.1,365.18,91.94,364.47,92.12Zm-35.34,15.49h-2c.33-.78.62-1.51.95-2.3h2C329.75,106.09,329.45,106.82,329.13,107.61Zm5.16-27.89c1.73,2.75,1.73,2.75,1.34,7-.93-2-1.74-3.79-2.67-5.8Zm-4.76,3.74a1.48,1.48,0,0,1,2.25,1c.32,2.66,1.55,5,2.39,7.55-2.87-.6-3.06-3.47-4.64-5ZM328,89.56c2.2,2.08,3,4.61,3.74,7.37l-1.19.2C330,94.61,327.35,92.81,328,89.56Zm-.87,7.33a9.84,9.84,0,0,1,1.42,5.89L326.37,101l-.68-4.79C326.14,96.42,326.91,96.5,327.12,96.89Zm-4.22,15.89h1.63v.41H322.9Zm-46.76-26.3h-.28v-.82h.28ZM156.2,88.83c.21.6.43,1.2.61,1.7C156,90.87,155.68,90.37,156.2,88.83Zm26.18,54.62-3,2.56v2.85a32,32,0,0,0-4,3.27c-1,1.1-1.71,2.42-3.58,3l-1.41-1.28c0-3-.18-6.12.06-9.21a18.35,18.35,0,0,1,2.7-8.22,5.33,5.33,0,0,1,1.47-1.15l.73.47c-.31,1.43-.63,2.87-1,4.48h4.09c.31-.57.72-1.35,1.23-2.31-.79-.86-1.47-1.59-2.53-2.72l1.83-1c.77-2.08-.37-3.94,1.14-4.88l3.36,3.36C183.2,135.37,182.82,139.15,182.38,143.45Zm12.46-64.51c-.45,3.13,1.36,6.37.87,9.87-.22,1.61-.63,2.86-2.43,3.64.64,3.18-2.13,5.39-2.81,8.39-.35,1.53-2.44,2.65-4.27,4.49-.4-3.32.87-5.42,1.25-7.68s1.54-4.49.64-7l-1.9-.18c-1-1.55.17-2.79.84-3.84,2-3.15,4.28-6.13,6.53-9.3Zm-8.92-2.54c2-1.33,3.74-2.53,6-4l1.56,1.78L186,83c-.17,2.19-.17,2.19-1.93,3.59l-1.13-1C183.39,82.24,184.93,79.27,185.92,76.4Zm-4,16.93c1-.88,1.68-2.64,3.75-1.75l-1.57,5C183.25,95.28,182.62,94.32,182,93.33Zm-23-17.8c-.7-3.2-2-6.91-1.42-11.24l3.84,5.41-.86,1.09L165.55,80l-.72,1.13c1.67.94,2.56,2.34,2.11,5a12.17,12.17,0,0,1-2.24-1.84C162.81,81.55,161,78.74,158.92,75.53Zm-.7,13.26V86.61h2.24c0,.58.1,1.31.17,2.18Zm5.53,1.2a16.62,16.62,0,0,1-2.44-1.68l1.43-2.79c2.73.9,2.92,3.69,4.44,5.69C165.65,91.67,164.79,90.47,163.75,90Zm6.15,1.19c-.93-1.07-.25-2.15.88-3,2,1.37.92,3.14,1.26,4.58C170,93.67,170.41,91.76,169.9,91.18Zm5.22,27.88c-3.11-1.13-6.44-1.35-9.6-2.33a14.25,14.25,0,0,1-7.33-4.61c.41-.41.8-.79,1.18-1.18.41,0,.9-.15,1.21,0,5,2.77,10.84,3.76,15.95,7.41C175.87,118.72,175.4,119.16,175.12,119.06Zm13.95,5,.9-1.56c-.18-1.29-1.24-1.45-2.16-2a12.07,12.07,0,0,1-2.4-2.31c-1.6.27-3-.5-4.25,1.09l-5.58-5.06-.13.29c-1.89-1-3.75-2-5.68-3s-3.91-1.7-5.88-2.54v-1.69c1.48-.61,2.1-1.88,2.55-3.45,1.95-1.36,5-.94,6.48-4,1.39,2.16,2.34,4.49,4.63,4.56l7.31,4.56a56.66,56.66,0,0,0,11.6,14.39C193.58,124.34,191.41,123.83,189.07,124Zm15.29,101.09h-.27v-.82h.27ZM140.7,190.59l4.62,2.93c-2.7,2-3.21-1.84-5.58-.91Zm-3.76-.16c-3.1.29-4.69-.71-4.48-2.82C136.09,188.92,136.09,188.92,136.94,190.43Zm-10.67-4.32v1.42l-3-1.42Zm22.64,19.54L147,203.22H144.4c0,.49-.16,1,0,1.2,1,1.09,2.11,2.11,3.11,3.09v1.74l-1.89,1-5.25-.8-3.83-3.84h-2.42c-1.66-3.81-5.39-6.59-5.38-10.76a27.25,27.25,0,0,1-3.17-2.75c-.32-.36,0-1.23,0-2.29,5.45,2.54,10.47,4.91,13.6,10.72.67-3.23-1.25-4.72-2.38-6.42a1.72,1.72,0,0,1,2.54-.44,11.24,11.24,0,0,1,1.95,1.18c1.3,1.18,2.54,2.45,3.75,3.73s2.65,1.85,3.46,3.38a28.61,28.61,0,0,0,2.46,3.37Zm6.78,2.83-2.17,1.73c-.15-1.78-.26-3-.38-4.41l-1.24-.4a8.35,8.35,0,0,0-4.91-6.67l-1.93-3.85a8.13,8.13,0,0,1,5.82,4.53c1.2,2.4,2.31,5,4.81,6.31ZM114,228.82c-1.66,1.48-3.5,2.77-5.57,4.39a42.6,42.6,0,0,0-8.63,1.55c-2.27.63-4.84.11-7.28.17a20.72,20.72,0,0,0-2.76.47c-.9-1.14-2.49-.23-3.8-.5l-1.67,1.66-2.64-.24c6.15-6.21,12.51-10.88,20.85-12.58l2,2.06c2.3-1.49,5.58.33,7.36-2.17h5.52C117.18,226.09,115.56,227.47,114,228.82Zm19,8v5.74c-2.36,2.13-4.09,4.73-7.23,5.63a3.18,3.18,0,0,0-1.7,1.7c-1,2.33-3.14,3.27-5.16,4.73l-3.18-1.22c0-.51-.22-1.23,0-1.52,1-1.14.85-2.48.74-3.77-.09-1.08-1.34-1.85-.58-3.25,1.25-2.33,1.62-5.14,3.78-7,1.29-1.1,2.22-2.56,4-3.26,1-.38,1.55-1.64,2.81-3.08l4.06-1.78.27.43,1.92-2.38,4.1-.67C138.89,229.87,138.31,231.5,133,236.81Zm27,26.45c2.35,1.18,4.72,2.32,7.7,3.77l-1.91.8.31.41h-3.39l-7.16-3.84c1.22-2,1.71-4.47,4-5.84,2.39.41,4.39,1.81,6.53,2.8a5,5,0,0,1,2.87,3.8l-7.27-3.94-2,1.12C159.86,262.81,159.87,263.18,160,263.26Zm11.83-1.2a13.86,13.86,0,0,1-3.57-2c-1.52-1.5-3.49-2-5.21-3.1-.36-.22-.69-.51-1.61-1.19,2.92-.54,8.2,1.51,13.82,5C173.83,263,173.78,263,171.85,262.06Zm4.89-3.79c1.46-1.27,1.87.2,2.2,1.23ZM170,252.78l1.37,1.52h-4.11v-1.85l3-2h3c.43.47.89,1,1.31,1.4,3.64.4,4,.62,7.8,4.73C178,254.52,174.22,253.88,170,252.78ZM200.66,269c.24,4.51-3.23,5.79-6.52,8,0,.11-.08.74-.16,1.43l-3.2,3.81-3.15,1.57c.33-1.8.62-3.42,1-5.62,1.82-2.4,4-5.29,6.09-8l1.94-.22,6.78-5.72,1.26,2.71C203.66,268,203,269.72,200.66,269Zm9.61,48a29.24,29.24,0,0,0-4.49-2.12c-1.45-.42-2.65-1.33-2.67-2.54-.05-2.47-2-2.52-3.4-3.17a14.26,14.26,0,0,1-4.92-3.73c-1.69-1.95-3.62-3.68-5.12-5.18-.5-2.85-.36-5.11-1.7-7.66,4.05,1,6.7,4.19,10.29,3.45a33.13,33.13,0,0,1,3.66,2.66,28.66,28.66,0,0,1,2.34,3.08c.75.95,1.83,1.5,2.64,2.47,1.24,1.49.75,3.73,2.25,4.78,1.85,1.29.79,3.45,1.91,5A2.17,2.17,0,0,1,210.27,317Zm-3.87,14.06v-2.4l1.3,2.4ZM221,319.3v-2.88c.57.13,1.3.12,1.38.35.51,1.37.86,2.79,1.26,4.19l-.68.41Zm2.37,32.89c-3.74,1.38-5,4.57-6,8.2-1.75,1.24-2.86,3.5-5.22,4.52-.9.38-1.34,1.82-2.26,3.16a15.93,15.93,0,0,1-1.2-2.27c-.23-.71.14-1.48-.56-2.23-1.39-1.45-1.18-3.35-1-5.71l1.46-1.46c-.51-1.35-1.27-2.65-.08-4.52.74-1.16.14-3.17.14-4.22.82-1.56,1.4-2.67,2-3.78l-.28-.15,3.72-3.73,1.12,1.77c-.41.82-1,1.9-1.58,3.12H216c1.91-2.78,2.73-6.63,6.57-8.76h1.78c-.44,1.52.67,3.15-1.07,4.6C225.85,344.44,223,348.24,223.39,352.19Zm3-19.85-1.51-3.18c.89-.73.93.27,1.17.31l2.1-1.1c.06,1,.1,1.63.14,2.39ZM200.56,458.93h-.82v-.28h.82Zm61.37-110.34.58-.12c2.83,3.16,5.75,6.24,8.43,9.51,1.06,1.3,1.59,3,2.51,4.83h-3.32c-3-2.45-3.32-7.62-8-8.85a14.85,14.85,0,0,1-.81-1.65,23.58,23.58,0,0,1-.59-2.3c-.41-.84-2.25-1.25-2.27-3.21Zm61.13-19.82,1.7-.09a10.6,10.6,0,0,0,1.49,2.88c1,1,.65,1.84.6,2.95-2.14-.28-2.54-1.56-2.29-3.15l-1.5-.33Zm-5.38.66c.22.6.43,1.19.61,1.7C317.51,331.46,317.17,331,317.68,329.43Zm-3.8,3.26-.53.07c-.11-.53-.21-1.06-.31-1.59h0A1.8,1.8,0,0,1,313.88,332.69Zm-1.32-8.88h.28v.82h-.28ZM311,328.55c1.39.45,2.27,1,2.09,2.4a15.61,15.61,0,0,1-2.5-1C310.71,329.52,310.85,329.08,311,328.55Zm-9.14-3.45c1.45,1.82,3.24,2.79,4.05,4.62-.32.29-.51.45-1,.87l-3.09-2.9Zm11.6-20.77c1.31-1,2.68-1.84,4.12-2.81.46,3.23.35,3.57-2,6.18L313,305.42C313.16,305,313.21,304.52,313.46,304.33Zm-2.69,6.95-1.54,1c-2.3-1.38-2.3-1.38-3.62-4C308.12,308.34,309.26,309.79,310.77,311.28Zm-6,1v2.93l-1.88-2.55Zm-4.89,3.46v1.36l-.39.06c-.1-.44-.21-.88-.31-1.33ZM274.78,331h-2.45v-.41h2.45Zm10.58,19.56v4.68c1,.93,3.49,0,3.24,2.7-2.41.77-4-1.16-5.79-2.05s-2.7-3-3-4.77c-.5-2.76-2.36-4.73-3.17-7.41a1.93,1.93,0,0,1,3.05-.71c1.84,1.19,4,1.95,4.15,4.74C283.87,348.59,284.75,349.45,285.36,350.51ZM280.63,336v-2.3H282V336Zm11.13-22.63v2.16l-.41,0c-.1-.71-.21-1.42-.31-2.13Zm8.29,26.44a5.15,5.15,0,0,0,2.79,1.23,8.27,8.27,0,0,1,6.87,5.38c1.34,3.52,3.18,6.84,4.38,11.13-2.67-.81-3.81-3-6-3.59a50.82,50.82,0,0,1-6.11-2.55,8.83,8.83,0,0,0-5-5.61c-2.65-1.23-5.27-2.7-5.15-6.43,0-.92-1.1-1.88-1.79-3C292.49,336.46,298.11,338.29,300.05,339.78Zm-10.8-20c.11,1.71.17,2.71.24,3.86h-2.13l-.44,1.3-5.1,3-.53-.86ZM283.07,314l1.29,2.4h-1.29ZM281,311l.88,2-2.48,2.49,2.84,4.45c-1.66,1.38-3,3.25-6.12,3,.41-2.2.26-4.52,1.28-6.06C278.73,314.92,278.23,311.88,281,311ZM270.75,320c-.85-3.1,1.44-5.19,2.81-7.63h2c.24-1.67.66-3.24,2.34-4,.23-.11.65.21,1.13.38-.67,1.81-2.21,2.6-3.66,4.47a5.68,5.68,0,0,1-.94,4.84l-2.57.14c-.49,1.73-.93,3.3-1.42,5.07l-1.85-.85Zm-4.27,13.31-2.13,2.14a10.34,10.34,0,0,0-2.26-1,17.63,17.63,0,0,0-3.27,0,40.2,40.2,0,0,1,3.29-4.78,38.15,38.15,0,0,1,4.37-3.48ZM258.6,328V325l1.88,2.58Zm6.13-17.27,1.2,2.1-.51.44a5,5,0,0,1-.82-.84,7.3,7.3,0,0,1-.52-1.25Zm-3.45,7.94,2,1.31v3.56c-.37.36-.66.65-.73.73l-2.87-2.88C260,320.87,260.56,319.85,261.28,318.62Zm-2-7.91.86.1c0,.9.38,2.22-.07,2.63-1.67,1.52.41,4.22-2.12,5.45C257.1,315.84,258.48,313.34,259.24,310.71ZM344,277.21v1.34l-1.58-1.05ZM340.69,275l.06.38-1.33.32-.08-.7Zm-10.22-4.88,7.1,2.53v2.13l-6.23-2,.12-.48h-6.78C326.54,271.35,328.88,271.94,330.47,270.14Zm-9.21.93h.82v.27h-.82ZM296.09,271a7.43,7.43,0,0,0,1.52.63,12.38,12.38,0,0,0,2,0,8.32,8.32,0,0,0,5.13,4.77c2,2.1,3.64,3.94,5.38,5.7,1.53,1.56,2.53,3.27,2,5.55-.82,1-2,1.85-3,.74-1.16-1.31-2.94-1-4-2.08-2.63.3-3.37-2-4-3.56-.8-2-.79-4.27-1.12-6.4-1.5-1.79-2.77-3.31-4-4.84C295.94,271.43,296,271.25,296.09,271Zm50.26-45.86c0,.24,0,.47,0,.7H345c0-.13,0-.27-.05-.4Zm-7.22,0c-1.56-.06-2.26-.72-2.46-2.74C338.39,222.92,339.37,223.35,339.13,225.14ZM328.41,214.5l0,.7H327.1c0-.13,0-.27-.05-.4Zm-2.56-8.75c-.57-1.16-1-2.07-1.83-3.69C326.23,203,326.45,204.09,325.85,205.75Zm-1.59,17.79a13.54,13.54,0,0,1-2.45-1.36C323.56,221.54,324,222.44,324.26,223.54Zm-.07-42.69-1.72-1.08C324.45,179.62,324.45,179.62,324.19,180.85Zm-.29,10.69c1.09,1.41,2,3,1,5.43-.65-2.83-3.74-3.77-3.61-6.64C322.84,189.51,323.36,190.85,323.9,191.54Zm-8.07-34.11h.27v.82h-.27Zm-2.63,4.72c.66.34,1.25.46,1.5.82a8.79,8.79,0,0,1,.84,2c0,.09-.08.22-.29.71C313.31,165.33,312.94,164.17,313.2,162.15Zm-2.91-9.62,1.39,1.9-.62.68-2.18-1.22C309.4,153.4,309.77,153,310.29,152.53Zm-5.75,2.9,5.15,6.79-3.52.15-2.47-3.16C303.89,158.36,304.17,157.07,304.54,155.43Zm-9-4.45.57.67-.16.16a1.28,1.28,0,0,1,.81.4l-.26.25-.56-.66.15-.16a1.31,1.31,0,0,1-.81-.4Zm-4.39,1.1a39.26,39.26,0,0,0,5.41,4.62c2.31,1.72,3.87,4.13,6,6.07s4,3.48,6.84,2.7c2.18,2.36,4.9,2.6,7.54,2.61l1,1a32.49,32.49,0,0,0-.62,4c-.08,3.39,0,6.79,0,10.19,0,1-.36,2.11.66,3,.3.26.22,1.42-.1,1.82-1.3,1.59-.42,2.93.24,4.34.84,1.83,1.63,3.68,2.47,5.57-2.16,3.59.25,6.89.4,10.67-1.21,1.11-.08,3-.43,4.64-.32,1.48-.71,3-.94,3.88l-5,3.72h-4.84c-.68.94-1.33,1.82-2.26,3.09a14,14,0,0,0-1-2,15,15,0,0,0-1.42-1.46c1.32-1.63,2.81-1.75,4.55-.45.15-.42.3-.87.51-1.47h3.5l-.35-.49,1.57-.75c.06-2.67-2.52-4.23-1.45-6.83l1.37-1.36v-4l1.95-2.21c-2.26-1.64.07-4.48-1.88-6.19v-6.54l-3.26-4.27c.57-3.16-2-4.91-4-7-.07-.65-.13-1.29-.19-1.86-1.3-.8-3.78.68-5.14,2.95-1.51.25-2.59-.12-2.92-1.81-.2-1-.6-1.94-.78-2.93-.24-1.28-1.13-1.66-2.21-1.88a9.61,9.61,0,0,0-1.1-2.38c-1.87-2.17-3.28-4.67-5-6.87s-4.29-3.92-6.5-5.83c-1.52-1.32-3.41-1.08-5.16-1.08-1.42-1.69.94-2.57.44-3.8l7.89-1.43-2.25-1.06-8.76.82-1.14,1.13-3-.8a1.7,1.7,0,0,1,.26-.56c1.57-1.56,3-3.41,5.56-3.28,1.3-1.53,3.27-2,4.86-3.05a3.33,3.33,0,0,1,1.18-.23l.3,1.23-1.69.8v.86c.23.14.47.4.66.37C286.36,147.86,288.81,149.62,291.11,152.08Zm28.65,70.25c-.31.68-.54,1.16-.72,1.53a3.59,3.59,0,0,1-.2-.69C318.83,223.05,319.13,222.89,319.76,222.33Zm-.95,2a3.24,3.24,0,0,1-.48.75l-.25-.26.66-.56ZM314,229h-2.54v-1.26l2.25-.2Zm-14-6.47c2.42-.93,3.09-.51,5.08,3.27l-2.18.21C302.8,224.16,300.23,224.37,300,222.52Zm.81,6.25-2.67-3,.75-.68C299.52,226.11,301,226.5,300.8,228.77Zm5.65-.54,3.46,2-.18.51-5.06-1.12ZM300.86,188l1.15-1.15c1.92.68,1.07,2.4,1.43,3.8l1.15.28c.31.62.67,1.36,1,2.09l-1,.95-3-2.09C301.06,191.05,302.58,189.13,300.86,188Zm3.42-3.84V182l.42,0,.3,2.19Zm-2.4,12.33c3.19,1.59,3.91,2.52,5.69,7.5L303.78,203c-.6-1.23-1.13-2.35-1.9-4Zm5.25-8.29.78-.64,3.17,4.86C308.36,191.67,308.29,189.54,307.13,188.23Zm5,15.53L311,204c-.25-1.62-.49-3.17-.77-4.92l.89-.89A6.62,6.62,0,0,1,312.11,203.76ZM297.59,180.7l-1.39,1.39a16,16,0,0,1-1.45-1.86c-1-1.72-2-3.49-3.11-5.57l2.25-.12Zm-19-15.63,4.22,2.15c.09.91.16,1.55.22,2.17,4.46,1.44,4.42,6.39,7.47,9.22-.43.51-.82,1-1.24,1.51a2.19,2.19,0,0,1-.58-.23c-1.23-.94-2.38-2-3.69-2.82-1.59-1-3.32-1.73-5.28-2.74.14-2.32-2.14-4.5-.21-6.6Zm11.6,7.93.16-.16a1.3,1.3,0,0,1-.82-.39l.26-.26.57.67-.16.15a1.28,1.28,0,0,1,.81.4l-.25.26Zm-13.78-13.09c-.68-.1-1.12,0-1.39-.22-2-1.36-4-2.76-6-4.2-1.76,1.18-4.07.7-5.3,3.16l-1.34-2.76c1.8-2.84,4.24-3.85,7.35-4.26.09.94.17,1.82.27,2.83,1.61,1.85,3.93,1.23,6,1.36l1,1a9,9,0,0,0-.59,1.44A8,8,0,0,0,276.41,159.91Zm-20.11,2.87c.14-.35.38-.93.75-1.8l2.57-1.27,2.57,3.63,1.73-1,3.21,1.05,1.92,2.89C264.77,165.26,260.59,164,256.3,162.78Zm12.79,3.59.14.2c.13-.06.35.13.58.32l-.26.25-.57-.66Zm-18-17.71V146c.8,0,1.45-.2,1.81,0,1.67,1.14,3.27,2.4,4.88,3.62-1.21,1.72-1.21,1.72-2.73,2.07Zm3.27,5.78v.27h-.82v-.27Zm-1.09,5.44v.82H253v-.82ZM256,139.8c.62-.12,1.19-.41,1.61-.26a8.37,8.37,0,0,1,1.78,1.19C257.9,141.54,257,141.06,256,139.8Zm3,5.4V146h-.27v-.81Zm-.75,12.16H257V155Zm1.22-3.19v-1.63h.41v1.63Zm9.26-9.66c-1.08-1.42-.41-2.34.67-3.31l2.57-.14,1.57-1.57h2.5l1.79,2.58C273.91,141.24,271.47,143.4,268.74,144.51Zm2.87,2.53c-1,1.29-1.95,2-3.36,1.05V147Zm18.5-8.37c-1.44,0-3,.49-3.79-.09-1.9-1.42-4.22.11-6-1.27l-.27-.24-.66.61a36.52,36.52,0,0,0-4.76-.59,8.15,8.15,0,0,1-4.78-1.28l1.29-1.21a43.14,43.14,0,0,1,7.09.08c2.49.42,5,.52,7.49,1.37,1.54.54,3.41.1,5.65.1Zm-13.55-7.9c1.54-.94,2.54.51,3.8.84C278.06,132.28,278.06,132.28,276.56,130.77Zm10.86.56,1.12,1.13c-.12.17-.24.48-.37.48-1.06,0-2.12,0-3.22,0l-1.09-1.15c.11-.15.23-.46.36-.46C285.28,131.32,286.34,131.33,287.42,131.33Zm-.74-2.65,1.69-1.36.45,1.36Zm6,6c.16-1.85.93-2.57,2.5-2.5C295.24,133.72,294.51,134.49,292.67,134.65Zm12.81-39c1.44,1.29-.82,2.39-.41,4.24l5.74,9.31c-.53.93-1.06,1.84-1.79,3.13-1.83-2.48-1.69-5.09-2.84-8.06l-1.89-1.57c-.43-2.56-.8-4.7-1.2-7Zm.32,22.54-6.42,1.26L297,120.72c-.85-.27-1.69-.55-2.53-.8s-1.45-.38-2.13-.56c-2.17,1.23-4.68.67-7,.47-4.67-.4-4.65-.61-6.05.06l-1.11-1.07c0-.1,0-.24,0-.29,1.91-1.75,3.38-4,6.35-4.37,3.18-.39,6.18-1.86,9.48-1.72.28,0,.59-.47.69-.56l7.62,1.48c.11.91.18,1.55.27,2.34h3C305.68,116.56,305.74,117.29,305.8,118.15ZM279.67,94.36h-.82v-.27h.82Zm-8.51,15.9a12.27,12.27,0,0,1,2.09,2.5c2.49-.78,4.16-3,6.42-1a4.35,4.35,0,0,0-.64-2.56c-.4-.48-1.39-.46-2.1-.71a19.21,19.21,0,0,0-2.11-.78,11.11,11.11,0,0,0-2.09,0c-.43-.86-.88-1.75-1.33-2.67l1.32-1.42c1.61.27,3.28-.15,5.18.69s4.12,0,5.72-1.78c.8-3-1.26-4.81-3.1-6.61-.19-2.06.39-4.13-.51-6.18,2.32,1.54,4.95,2.61,6.09,5.42a4.17,4.17,0,0,0-1.54,3c2,2.07,4.6,1.22,7,1.46l1.86,1.86,5.1,2.1,2.61-.91,2.24,6.54c-1.56.24-3.42.67-4.6-.14s-1.78,1.13-2.63,0c-.71-.9-1.55-.64-2.5-.29s-2.29.09-2.94.67c-1.34,1.2-2.85.32-4.11,1l-4.82,2-1.85-.7c0,2.45-1.79,2.42-3.36,2.76-.07.62-.15,1.26-.23,1.9l-1.59,1.59v3.43l-1.41.3v3.39l5.56-2.68h5.07c1.15.62,2.14,1.17,3.23,1.75l4.83-1.69c3.47,2.42,7.19-.86,11,0,1.73,2.59-1.81,4.33-1.26,6.65l-6.54,3L292.62,129c.19-.62.4-1.34.69-2.29l-.85-.92c-2.51-.62-4.72.89-7.12,1.08a9.78,9.78,0,0,0-3.43.93,15.49,15.49,0,0,1-3.8.66c-.2,0-.51.39-.55.35-2.11-1.92-5.06.45-7.24-1.4-.95.41-1.37,2-2.86,1.52-2.22-.65-4.42-1.32-6.26-3.44H255c.66-2,2.18-2.73,3.27-4.16l4.34,2.7c3.05-.18,6.83.78,9.81-2.06-.39-2-.74-3.74-1.14-5.78-1.93-2.24-4.1-4.73-6.21-7.27-.2-.23,0-.76,0-1.17C267.58,107.6,269.39,109,271.16,110.26Zm-8.67-6.21a12.6,12.6,0,0,0,.41-1.49l2.91,1.43-1,3.59c-1.23-.61-2.16-1.19-3.28-1.88C261.89,105.07,262.24,104.58,262.49,104.05Zm-7.62-8.84-1.72-1.07C255.13,94,255.13,94,254.87,95.21Zm2.07,7-.59.7a17.09,17.09,0,0,1-1.79-1.22,43.37,43.37,0,0,1-5-5.1C252.35,98.06,255.46,99.13,256.94,102.24Zm-5.83.28c.48.59.71,1.46,1.29,1.86a16.24,16.24,0,0,0,3.37,1.66c3.78,1.43,6.59,4.1,9.22,7,.33,2.89,2.51,4.69,4.07,6.85.06.09,0,.26,0,.53-2.63,1.3-4.28-2.72-7-1-1.42-1.85-2.78-3.46-3.93-5.2-.63-.94-2.45-.56-2.28-2.22-2.35-.54-2.73-2.86-3.94-4.41-1.37-1.77-2.71-3.53-4.79-4.37v-2.86l1.91-.1C249.7,101,250.45,101.71,251.11,102.52Zm-5.36,46.88L244,148l2-.38.24,1.26Zm2.06,3.48v2.58L245,156.83c-.2-.49-.47-1.13-.74-1.77l-.31.38V151Zm-8.67-15.3-2.64-1.24H240l1.59-1.6,4.65,1.95Zm-4-5.6-1.51-1.42-3.05,2.38-.72.08,1.86,1.86c-.17.18-.35.36-.53.53h3.26l1.3,1.3L233,138.42l1,1.7-3.06.47,3,1.4c-.08.27-.16.54-.23.81h2.56v2.11l-3.07,1L228,141.5l1.85-2.59v-2.54h-5.46c-.43-.94-.85-1.85-1.46-3.15l3.8-.4,1.16-3.19c1.6-.89,3.16-2.75,5.24-.64l1.75-1c.29.17.67.26.71.43a5.51,5.51,0,0,0,1.75,3.52Zm1.5-8.72-5.11,2.5-1.16-.89c-1.13.25-2.45,1-3.31.64-1.24-.51-1.83,1.39-3.16.32a2.61,2.61,0,0,0-3.4.67c-.36-.86-.6-1.44-.79-1.87l4.71-4.7h2.24l2.22-2.76,7.36,3.18c.16-1.42.27-2.43.38-3.43,3.75-1.25,7.25,1.48,10.72.44l5.39,3.86v2.06l-.88-.63-9.1,3L239,123.26Zm-20.06,15.27-2.12-1,1,2.41-1.48.53c-.44-2.18-.85-4.26-1.24-6.17,2.45-1.89,4.88,1.57,7.36-.62.55,1.32,1.08,2.58,1.68,4a5.88,5.88,0,0,1-1.45.12,5.79,5.79,0,0,1-1.43-.65Zm.94,21.11-2,2.07c-.14-.68-.2-1-.31-1.58Zm-4.33-31.57,4.31,3-3.34.33C212.87,130.46,212.35,129.5,213.14,128.07Zm8.29-14.46,1.62-1.88,3.27,3.25h-3.4Zm11.49-.11c.42-.92.52-1.58.9-1.92a60.88,60.88,0,0,1,6-5.14c1.28-.9,3-1.18,4.64-1.79.56,1.69,2.58,2.34,3.73,3.82s2,3,3.15,4.85h-4.9c-.72-1.09-1.44-2.16-2.19-3.28L242,112.4C239.12,113.09,236.14,111.77,232.92,113.5Zm5.91-23.39a2.66,2.66,0,0,0,1.65-3.26l2.7-.87a10,10,0,0,1,2.67.59,13.2,13.2,0,0,1,2.22,2A13.32,13.32,0,0,0,246.24,97l-5.68,5.69c-1.31-.37-2,1-3,1.79a21,21,0,0,1-3,1.55c-1.11.57-2.21,1.16-3.65,1.92-.06-1-.1-1.77-.15-2.54l2.48-.4c.06-2-1.88-2.3-2.58-3.88a10.69,10.69,0,0,0,2.66-6.22C235.09,93.47,236.42,91.25,238.83,90.11ZM230.25,89c1.84,1.48,2.75-1.63,4.59-.54l-4.36,6.17-3.24-2C227.94,90.88,229.35,90.1,230.25,89Zm-21.53,28.41-2.33-3.44c.8-2,1.58-3.93,2.48-6.18l-2.16-.1c-1.08,1.83-2.18,3.66-3.2,5.38-2.26-6.15-1.29-7.37.74-12.72.74-1.95,1.92-3.32,4.21-3.44.57,0,1.11-.56,1.93-1L207.88,94c.08-.32.07-.73.21-.79,1.39-.57,2.81-1.08,4.57-1.74.25.4.65,1.06,1.07,1.76l11.21-1.12v3.13l-1.46.31c0,.52-.07,1.15-.11,1.84,1.64,1.58,3.3,3.16,4.81,4.6v2.31l-2,.13-2.57-3.2H221l-.1,1.67c2.05,3.25,6.48,3.88,8.38,7.41-1.35,1.05-2.59.82-3.11-.38-.82-1.84-2.22-2.21-4.22-2.34-.11,1-.21,2-.29,2.85l-3.45,2.3c-1.17-2-2.09-3.82-.82-6.09.29-.52.46-1.54.17-1.85a2.73,2.73,0,0,1-.72-2.18c0-.66,0-1.33,0-1.62l-4.61-6.63c-.17,2.24-.27,3.48-.31,4,.88,2.63,2.74,4.22,1.73,6.73-.21.51.69,1.37.7,2.08,0,1.81.21,3.58-.69,5.4-.77,1.56-.81,3.48-1.2,5.39l-3.9,4.51C207.63,119.82,207.63,119.82,208.72,117.38Zm1.46,10.13c-.45-.2-.93-.34-1.42-.51v-2.51l4.5-2.93c.42-1.72.83-3.69,3.56-4.26.1,2.78,0,5.41.06,8.18h-4.63c-.18,1-.35,1.79-.56,2.89C211,128,210.63,127.72,210.18,127.51Zm11.58,30.21c-.08,7.42-3.56,13.27-8.49,18.47l-.66-.58c-1.36.79-2.86.63-4.36.53-.38-.39-1.12-.8-1.09-1.15.2-2.8-1.52-5.41-.86-8.2.49-2.07.19-4.43,2-6.09.18-.17.43-.44.4-.63-.35-2.09,1.13-3.62,1.89-5.59l-2.83-.57,1.65-1.64c-.25-.49-.51-1-.74-1.48l3.34-3.26v-2.78l.38.36c.27-.63.55-1.26.83-1.89l.77-.08c.23.67.45,1.34.68,2l.58-.48c0,2.16,0,4.31,0,6.47a8.39,8.39,0,0,1-.62,2.58,60.93,60.93,0,0,0-1.81,8.21c-.41,2.16-1.12,4.29-.91,6.56,0,.26-.49.58-.84,1l1.31,2.64h1.1c.52-2.28-.66-5.12,2.2-7.12l2.45-.77c.82-3.34,1.61-6.54,2.44-9.93l1.21-.18C221.76,155.38,221.77,156.55,221.76,157.72Zm3.81,4.61h-.27v-.82h.27Zm-1-5.87a9.86,9.86,0,0,1-1.2-6.11c-.69-1.79-1.24-2.93-1.57-4.14a27.67,27.67,0,0,1-.52-3.35h2l1.12,4c1.42,2.21,2.74,4.25,4,6.17l-1.23,3.4c2.12.13,3.56.26,3.65,2.6C228.24,159,225.9,158.56,224.56,156.46Zm8.31-1.21c-.67-1-1.15-1.77-1.63-2.51,0-.3-.21-.49-.43-.68l.26-.26.57.67-.16.15C232.46,153,233.55,153.37,232.87,155.25Zm5.2,5.17h-.81v-.27h.81Zm-5.45-12.9,6.73,1.17,2,4.95-.8.91c.28,1.14.57,2.3.86,3.46A32.58,32.58,0,0,1,232.62,147.52ZM245,186c-1-2-2-4.1-3.29-6.75,1.08.26,1.72.23,1.92.5,1.29,1.84,2.48,3.75,4,6Zm-.21-10.57h1.3v2.4C245.42,176.6,245.13,176.07,244.8,175.45Zm2.62-3.94c-3.15-1.52-3.75-4.69-5.85-7.28L243,164c1.67,2.24,3.2,4.31,4.83,6.52ZM245.82,158l1.82,1.12c.4,2.48.77,4.74,1.19,7.37C245.93,163.81,245.27,161.9,245.82,158Zm1-24.7c-.82-.78-2.38-.72-3.5-1.26a21.06,21.06,0,0,1-2.85-2l-3.15-2.26.11-.67c2.55.33,5.09.64,7.63,1a23.15,23.15,0,0,0,7.16-.82c1.64.64,3,2.68,5.06.8,6.15,2.81,6.15,2.81,8.55,8.63l-6.35.82a17,17,0,0,1-2.78-1.12c-1.07-.61-2.24-.13-3.41-.65-.8-.35-2.06-.2-3-.83S247.89,134.34,246.85,133.33Zm2.66,65.46c.53-.91,1-1.7,1.45-2.43a17.06,17.06,0,0,1,1.27-1.43h3.53c.72-1.72,1.45-3.45,2.25-5.34-2.84-.55-5.38-.9-7.76-2,.24-2.81-.6-5.55,1.69-7.7-.14-1.79.52-3.71-.73-5.17.27-1,1-2.14.65-2.63-1.35-2.08-.65-3.94,0-5.92a8.78,8.78,0,0,0,0-2.35c2.06.5,4.05.62,5.65,1.46,1.78.95,4.16.79,5.38,2.79a9.52,9.52,0,0,1,5.62,2.25c.75.67,2.13.65,3.52,1,.09-.69.17-1.39.25-2l-1.53-1.53,3.2-2.5a13.31,13.31,0,0,0-6.28-4c-1-.26-3-.62-2.7-2.66l4.09.58c4.49,1.27,4.78,5.73,7.26,8.6.15,2.41-.8,5.38,1.22,7.41,1.25,1.24,2.7,2.93,5.22,2.59.32,3.21,3,4,4.62,5.75h1.76c3.51,1,4.75,4.47,8,4.91.34.67.69,1.34,1,1.94-2,3.61,1.29,7.15.12,10.59l1.65,1.65v4.28c-2.75.9-5.12-.17-7.16-.91-1.68.14-3.42.85-4.34.26-2.54-1.6-4.45-.1-6.5.7a30.48,30.48,0,0,1-8,2c-.54,1-1.15,2.26-1.87,3.66.71.12,1.31.36,1.42.22,2-2.48,5-2.36,7.66-3.24l3.4-1.11c2.63-1.86,4.85,1.77,6.93-.38l9.72,2.46,4.44,3.36v2.82H303l-1.43,1.82h-2.73a8.33,8.33,0,0,0-5.07-2.55,39.88,39.88,0,0,1-8.23-2.71,3.4,3.4,0,0,0-2.54-.15c-2.48.67-5,1.07-8.13,1.7L273.13,217H270c-.37-.47-.85-1.12-1.42-1.86-1,1-2.49.56-2.91,2.29-.2.82-1.61,1.34-2.7,2.18,2.14,1.58,3.82-1.06,5.37-.1,1.81,1.12,3.39-1,5.13.23.85-1.06,1.61-2,1.87-2.32l9.26-2.2c2.64,2.52,6.65,1.84,8.91,4.64l-1.07,4.38c-2.2-1.78-2.2-1.78-4.29-.68a8.2,8.2,0,0,0-2.47-.8,33,33,0,0,1-10-1.6,5,5,0,0,0-4.83,1c-1.49,1.38-3.28,1.43-5.14,1.4-2.58,0-5.15,0-7.73,0-1.12-1.59.2-2.76.78-3.9a19.34,19.34,0,0,1,2.84-3.71,3.5,3.5,0,0,1,1.88-1.29c1.87-.18,3-1.31,4.31-2.46,1.06-.95,2.39-1.62,3.36-2.64a33.63,33.63,0,0,0,2.77-4v-2.23c.94-2.55,2.86-1.34,4.21-2.1-.76-2.9-3.3-3.43-5.4-3.63s-4.54-1-6.6.62c-.05,0-.53-.46-.77-.68l-5,3.18h-2.52l-6.73,7.65C249.48,204.85,249.48,204.85,249.51,198.79Zm47.29,21.65v.4h-1.63v-.4Zm-33.68,10.83c-.94-.7-1.57-1.16-2.47-1.81C262.43,229.54,262.43,229.54,263.12,231.27Zm-12-16.83h-1.48v-3.92C251.76,211.4,251,213,251.11,214.44Zm.78,6.8,1.48-1.15c-1.24-3.36-.69-6.54.64-9.7s2.82-5.85,5.71-7.95c3.07-.82,6-2.81,9.73-3.29l2.72,1.47-2.25,1.2c.13,1-.57,2.3.67,3.28l-2.39,4.43h-1.9l-6.94,3.81v2.2c-.9,1-1.55,2.17-3.15,2.36-.44,1.81-.88,3.66-1.4,5.84l-2.93-2h-2.3v-2.44Zm-5-21c0,.78.45,1.84-.38,3a2.44,2.44,0,0,0,0,2.14,2.91,2.91,0,0,1-.67,4.12c-2.06-1-2.65-3.35-4.58-4.59-1-.62-1.17-2.43-1.85-4Zm.26,22.53-.14-.14c-2-1.56-3.62-3-5.55-4.79v-4.58c1.95,2.61,3.67,4.8,5.24,7.09A6.5,6.5,0,0,1,247.19,222.82Zm-5.58-1,1.2,1.08v3l-2-1.18c-.15,1.06-.25,1.78-.37,2.61l-3.82,1.4c-.07-1.51-.12-2.67-.17-3.75C237.44,222.77,239.77,222.8,241.61,221.81Zm-7.32,7.59c.36.88.62,1.5.87,2.1l-3.31.23Zm-5.19-5.7h1.63v.41H229.1Zm-3.32,2.56v1.17h-1.41l-.29-.39Zm-47.41,5.15c-2.51.82-5.5.26-7.49,2.59h-3.31c-1.61-.84-1.23-2.16-1.27-3.33.14-.22.27-.44.41-.65,4-5.79,6.42-5.52,14.54-9l1.73-.77,2.09-.86h2.85l1,1.05c-1.08,3.57-3.84,5.45-6.81,7.26C180.69,228.62,179.62,230.16,178.37,231.41Zm.45,4.37c.12-1.81,1.37-1.49,2.44-1.74a9.26,9.26,0,0,0,2.44-1.39l9-1.14,2.14,2.14c-1.27,2-2.8,1.5-4.13.19l-1.06,1C185.8,232.61,182.4,235.34,178.82,235.78Zm12,9.46H190V245h.81Zm9,4.9h-.81v-.27h.81Zm16.31,5h-4.89v-.41h4.89ZM237.18,251l-3.42,2.59c-1.18-.7-2.32-1.37-3.4,0-1-1.31-2.61-.31-3.68-.85a7.12,7.12,0,0,0-3.82-.71l-.59,1.66c-3.38-.89-7-.9-10.22-2.53a13.76,13.76,0,0,0-7.24-1.63c-1.87-1-3.23-1.63-4.57-2.34a24.61,24.61,0,0,1-3.62-2,9.29,9.29,0,0,0-4-2.23c-1.12-.23-2-1.6-3.05-2.27-1.26-.78-2.66-1.35-4.39-2.21l-.81-1.58c.1-.07.29-.34.5-.34,2.71,0,5.43.05,8.14,0a34.19,34.19,0,0,0,4.13-.65c3.44,1.28,3.82,1.65,4.49,4.74l.92-.7c2.47,2.53,5.8,2.72,8.82,3.24,1.95-1.82.82-4.43,2.14-6.28-1.36-1.11-.48-2.68-.75-4.1l2-.74a9.94,9.94,0,0,1-2-.4,10.53,10.53,0,0,1-1.52-1l2.86-5.1,5.09,2.33c.06.68.12,1.32.21,2.31l3.07-1.14c.23,2.2-1.72,2.62-2.42,3.88,2.87,1.2,6.15-.73,9.05,1.29l1.38-1,2.57,1.2c-.14.16-.31.49-.42.47-3.61-.52-6.81.94-10.1,2.07.33.32.62.61.9.9a6.53,6.53,0,0,0,4-.5c1.23.84,2.46,1.38,3.83,0l1.44,2.34-3.53.15c.3,1.87.58,3.6.82,5.13l-1.53,1.47a10.05,10.05,0,0,0-10.35,1.16l1.71.44-.45.58h5.26l1.5-1.11c.33.93.62,1.74.67,1.86,4.13.65,7-1.87,10.31-1.35Zm-.67-6.7-4,1.56v-3.11Zm3.08,36.82a65.4,65.4,0,0,0-.19-8.41,10.62,10.62,0,0,0-.55-2.59c-.55-1.33,1.16-2.35.16-3.9-.62-.95-.12-2.63-.12-3.69l1.18-2.3h1.6l4.78,5c-.92-.31-1.64-.33-1.93-.69a2.74,2.74,0,0,0-3.09-1c0,.55-.08,1.19-.13,2l5.64,3.79c.08.72.15,1.36.22,2,1.83.44,2.82,1.37,2,3.66-.62-.33-1.39-.47-1.6-.9-1.29-2.57-4.25-3.06-6.07-4.95-.13-.14-.53-.06-.79,0a9.69,9.69,0,0,0-1.11.33c.27,2.68,4.14,2.11,4.15,4.85l4.32,4,1.22,3.66-1,.86c-.87-1.83-3.17-2.22-4.05-3.86h-2v2.16c1.76,1.41,3.17,3.51,5.48,4.8,1.65.92,2,3,1.6,5.08l-1.82.25c-.6-.6-1.74-1.21-2-2.09-.72-2.38-2.63-2.5-4.49-2.92a17.76,17.76,0,0,1-2.31-.92C239.26,283.87,238.2,282.33,239.59,281.11Zm5.15-27.1-3-2.74c-.15.14-.33.34-.76.77a4.51,4.51,0,0,1-.89-.91,9.76,9.76,0,0,1-.53-1.67l2.83-2.42c1.42,1.26,3,2.55,3.71,4.7Zm1.22.48v.81h-.27v-.81Zm-1.45,4.2c-2.16-.4-2.82-2.15-4.39-3.24l1-1.06C243.11,255,243.72,256.73,244.51,258.69ZM233.2,440.31l-2.3-.94-.83-2C231.16,436.77,231.93,437.48,233.2,440.31Zm-4.77-5.45.4-.06.3,1.37-.7,0Zm-17.3,9,1.84-.2a17.41,17.41,0,0,0,1.83,2.4c.56.53,1.38.78,1.95,1.41-2.49.19-3.7-2-5.78-2.6Zm-6.48,15.22-1.55.1c0-.61-.08-1.06-.12-1.51C203.79,457.77,204.17,458.33,204.65,459.08Zm-2.13-2.25.41.47a.74.74,0,0,1-.67-.22Zm-1.05,5.74h2l.95,2.9-1.74,1.84,2,2.29c-.57.09-1.09.33-1.28.17a26.83,26.83,0,0,1-2-2Zm4.63,15.85c-1.55-1.86-2.77-3.31-4-4.82l1.7-1.64,2.32,3.13Zm4.38,5.92c-.42-.61-.78-1.13-1.61-2.31l3.41.67,1.57-.79c.66.87,1.27,1.69,1.82,2.43Zm5.16-3.94-4.84-1.63a6.41,6.41,0,0,1-1.38-.55,1.7,1.7,0,0,1-.68-.91,11,11,0,0,1,0-2l2.51,1a6.59,6.59,0,0,1,1-.64,11,11,0,0,1,1.39-.49v-1.15c-2.36-.45-5.49.31-6.62-3,1.24-.74,2.17-.63,2.94.39,1.1-.93,1.81,1.23,3.12.34.5-.34,1.75.43,2.76.73C216.75,475,217.7,477.65,215.64,480.4Zm-7.47-14.49,3.12-.25,3.52,2.64c-1.45,1.17-2.84.46-4.2.75Zm8.7,3.49c0-.4,0-.92,0-1.44s0-.78.09-1.27c.41-.05.85-.26,1.14-.13,1.48.69,2.91,1.46,4.3,2.17l4.94-.76v3.31C220.34,472.68,220.34,472.68,216.87,469.4Zm1.69,4.52c1.59.26,3.16.62,4.75.75s3.18,0,4.95,0c.13,1.81-1.32,2.32-1.88,3.06l-5.19-.82C220.56,476,218.26,476.36,218.56,473.92Zm.94,8.72v-3.2c1.85.52,3.35,1.75,5.27.26.85-.66,2.62-.11,4.68-.11-.54,1.6-.93,2.79-1.37,4.11C225.17,483.43,222.22,484.33,219.5,482.64Zm9.93,6.79-6.69-1.11-1-1,3.5-1.19,1,.78,4-.94C231.3,487.45,230.62,488.37,229.43,489.43ZM231,474l-1.17-1.67c.67-2.52,3.81-1.43,5.13-3.11l7.87,2.71.8,1.67-1.1,1.1c-1.2,0-2.59.38-3.58-.09-1.33-.64-2.75-.47-4-1-.79-.34-1.51-.82-2.28-1.24Zm.65.65c3.69,2.45,7.29,4.52,12,2.61,0,.6.1,1.34.18,2.33-4.3-.09-8.55.82-12.15-2.72Zm2.56,15.71-1.94-1.27,1.48-1.71,1.87,1.58Zm-1.75-6V481.3h2c.52.52,1,1,1.51,1.51h6.38a2.46,2.46,0,0,1,1.17,3.34C239.93,485.91,236.09,486.86,232.49,484.35Zm8.65,6.92-1.32-1.45c.53-1.57,2-1.59,4.17.22Zm5.3-19.78h3.87l1.19-1.79c2.56.91,4.73,2.18,7.26,1.67,1.74,2.12,1.74,2.12-.22,4.38-2.68-1.11-5.17-1.64-7.81-.49l-5.82-2.51,1.8-.85ZM260,477.14V482c-3,0-5.91,0-8.83,0-2.19,0-3.55-1.38-4.87-2.78v-3.73l4.11,2.1c1-.18,2.08-.75,2.58-.41,1.54,1,2.75,1.11,4.27,0C257.81,476.81,258.86,477.14,260,477.14Zm-4.5,16.29c-1.13.07-2.34-.23-3.26.76-.9-1.4-1.66-.31-2.6,0a6.45,6.45,0,0,1-2.41-.05l-1.2-4.5c2.29-.87,4,1,5.93,1,1,0,2,0,3.28,0l-.71,1.77,1.4.52C255.8,493.12,255.67,493.42,255.53,493.43Zm1.13-2,2.37-1.72c.12,1.53.2,2.57.27,3.53C257.06,494.09,258,491.6,256.66,491.39Zm-4.63-4c-1.33-.31-2.59-1-3.93-1.26-1.7-.37-2-1.44-1.81-3.13a19.81,19.81,0,0,0,3.62,1.42,22.77,22.77,0,0,0,4.05.05H260c0,.77.07,1.29.1,2C257.62,488.17,254.84,488.07,252,487.4Zm9,10.16v-2.34l.71-.35,2.28,2.48Zm13.71-17.65c-.67.56-1.45,1-2.17,1.48-.22.15-.35.48-.58.54-1.21.35-2.43.64-4,1l-1.88-1.74h-3.55v-2.51a26,26,0,0,0,3.24.85c1.06.14,2.15-.05,3.22.05s2.2.38,4.11.74l1.42-1.42C274.65,479.22,274.89,479.79,274.75,479.91Zm.39,5.12c-2.33,3.58-5.73,2.5-8.65,2.73l-4-3.16.58-1.21,2.42,1.77c4.54.21,4.54.21,7.94-1.4Zm-2-8.26-1.42,1.35-1.4-.8c-2.51,1.73-5,.23-7.51-.43-1.4-.38-1.34-1.54.1-3.91a23.78,23.78,0,0,0,5,.82c1.68-.06,3.35-.79,5.26-1.28Zm-2.51,20.57c-.36.07-.73.14-1.1.19-1.32.16-1.86-1-2.51-1.71-1.18-1.37-2.18-2.9-3.63-4.86,0-.1.05-.84.09-1.58,2-.1,2.36,1.82,3.46,2.28l2.28-1-1.09,2.16,2.5,1.63Zm5.05-1c-1.53-1.71-2.94-3.52-5-6h3.11c.05.45.12,1.06.23,1.94,2,.34,2.56,2.18,3.41,4.31C276.66,496.48,275.93,496.61,275.66,496.31Zm6.23-.52-2.22-1.09V492l-4.73-.23c-.07-.4-.14-.77-.24-1.34h7.49c-.17.59-.33,1.13-.59,2l1.55,1.79Zm0-7.37h-4l.89-2.1c-.44-.3-1.06-.75-1.73-1.23.45-.33.64-.58.84-.59,1.07,0,2.15,0,3.22,0a17.75,17.75,0,0,0,2.42,0,13.47,13.47,0,0,0,2.16-.72C284.86,486.16,282.85,487,281.87,488.42Zm-3.69-15.92,3.82-.76,1.68.83v-3.45l1.54-.13v4.69c-1.61,1.83-4.6,1.13-6.47,2.84C277,474.49,277,474.49,278.18,472.5Zm-.76-7.76c.29-1.35.29-1.35,1.54-2.37l.92.69,5.18-1.65a18.34,18.34,0,0,1-.93,4.49Zm6,12.43,2,1.26c-.12.46-.11.78-.26.93-2.17,2.17-2.89,2.5-5.86,2.68-.7-.9-2.17-1.34-2.09-3.23C279.68,478.75,282.27,479.16,283.43,477.17Zm3.91,1.19,2.28-2.8c.5,1.08.79,1.7,1.34,2.86v1.95c-.51-.05-1,0-1.22-.13C289,479.72,288.25,479.09,287.34,478.36Zm3.57,6h-2.2v-1.65l2.36,1.08Zm.26-10.58c-2.45.49-2-1.6-2.42-2.44s-.11-2.37-.11-3.55l1.47-1.47,2.89,1.39C291.89,469.83,290.52,471.5,291.17,473.75Zm5.05,4.34a9.08,9.08,0,0,1,0-4.18c.29-1-.1-2.17-.19-3.29h1.48c.13,2.31,0,4.66.07,7.09Zm4.38,2.31h-.27v-.81h.27Zm.89-12.23h-.41v-1.63h.41Zm.2-8.43h-.82v-.27h.82ZM304,454.5l-2.41,2.66-1.5-2.66Zm-10.44-5.63h.82v.27h-.82Zm-2.15,3.88a27.16,27.16,0,0,1,9,7.36l-2.28,1.4c-1.94-.34-2.73-1.93-3.68-3.45s-2.13-2.93-3.31-4.52C291.15,453.35,291.28,453,291.38,452.75Zm-1.54-.76-2.18-1.26C289.12,449.53,289.54,450.92,289.84,452Zm-12.16-4.41A54.67,54.67,0,0,0,283.4,451c2.3,1,2.83,4.05,4.87,4.73,2.59.88,2,4.13,4.14,4.31.47,1.54.79,2.61,1.21,4-1.57,0-3.06.67-4.11-1.35v-2.23c-.74-.67-1.51-1.39-2.31-2.06-1-.84-2.56-1.45-2.94-2.5-.71-2-2.57-2.42-3.83-3.61a42.06,42.06,0,0,0-4.21-3.09Zm-7.23.12c.16-.45.33-.92.61-1.73l1.27,1h2.37v1.64h-1.56l.91,1.72-.82,1.21c1.19.38,3,.43,3.43,1.23.58,1.05,1.63,1.35,2.37,2.44L277.46,457a23,23,0,0,1-3-1.78c-1-.84-1.91-1.91-2.89-2.83-.81-.74-1.7-1.39-2.52-2.13s-1.54-1.51-2.51-2.47l1.07-1.54Zm-3.08-10.64V441l-.42.15-1.45-3.69Zm-4.83,7.73h.82v.27h-.82Zm-4.08-15.5h.82v.27h-.82Zm.55,4.62v.82h-.27v-.82Zm-5.46-26.79a7.14,7.14,0,0,1,.81,2.07c.08.31-.15.71-.3,1.31L250.83,407l-.3.42c-.27-.83-.53-1.65-.86-2.69l1.89-.24C252.19,405.3,252.94,406.16,253.55,407.12Zm-1.38-58.44-1.74.88c-.77-1-1.79-2.35-2.9-3.63-.86-1-1.85-1.87-3.22-3.23l-.64,2.64,3.2,3c.39,3.7,3.64,5.45,5,8.9v3.1c-.27-.05-.55,0-.64-.13a43.64,43.64,0,0,1-4.11-5.24,9.17,9.17,0,0,0-3-3.07c-.2,1.39-.33,2.36-.42,2.95,1.8,2.94,4.27,5,5.27,8,.16.47.25,1.09.59,1.36a9,9,0,0,1,3,5l-1.1,1c-1.57-1.52-2.18-4.12-4.83-5-1.3,2.19,1,3.48,1.21,5.21l-.84,1.27,2.83,4.8-3,.49c.84,1.79,1.63,3.45,2.44,5.17l-1.59,2.88,2,2.28-2,2.33c.8,1.37,1.7,2.88,2.7,4.58-.59,1.26-1.22,2.63-1.75,3.77.34,1.7.64,3.17,1,5.07l-2-1.17-1.58,1.39a34,34,0,0,0,5,8.7c.24.34.88.37,1.19.68,1.55,1.54,3.37,2.93,3.73,5.3l-1,.48a13.06,13.06,0,0,0-1.71-2.28,21.68,21.68,0,0,0-3.12-1.87l-2.86.19c.66.91.91,1.65,1.41,1.88a11.82,11.82,0,0,1,4.81,4.49c.29.44,1,.62,1.41,1,1,.84,1.66,1.78.44,3.2-2.23-1.26-3.66-3.44-5.51-5-2.39,1.24-.84,2.87-.28,4.43l-1.77.61c-.24,2.11.9,3.61,2.34,5l-2.38,1.57c0,2.47,2.1,3.38,3.32,4.83a37.87,37.87,0,0,0,4.89,4.66c1.55,1.29,3.29,2.36,5.08,3.63l-3.44,1.62v1.63l5.82,2.47a6.49,6.49,0,0,1-.49,1.16c-1.7-.38-3.38-.82-4.64-1.14l-1.7.77c.22.66.23,1,.4,1.12,1.68,1.17,3.35,2.38,5.11,3.42a37.61,37.61,0,0,1,3.6,2.92,6.69,6.69,0,0,1,2.61,5.14h2s.19-.11.2-.21c.28-2.4.28-4.73-1.57-6.62-1.14-1.17-2.32-2.29-3.44-3.47a8.12,8.12,0,0,1-.85-1.37l1.07-.45,9.68,7.59v6.35a54.72,54.72,0,0,1-5.53,2.32,3.18,3.18,0,0,1-3-.65c-.92-.73-2.38-.78-3.77-1.19l-3,2.94c-1.42-1.1-2.82-1.68-4.08-.17a22.74,22.74,0,0,0-2.26-.85c-.73-.2-1.49-.26-2.76-.47l-2.73,1c-1.8-.2-3.18-.43-4.57-.51-2.34-.12-4.68.3-6.83-1.31a3.83,3.83,0,0,0-3.44-.2c-2.67,1.55-4.43.31-6.2-1.42l-1.29-1.3-3.61,1.84-4.08-2.6-4.57,1.46c-1.63-.71-3.55-2.61-5.77-.51-2.39-1.8-2.39-1.8-2.45-3.92l7.18-1.35c-1.4-3.48-1.4-3.48-4.42-5.24-1.5,1.61-2.87.08-4.45-.34v-2.74a1.55,1.55,0,0,1,.6-.31,5.74,5.74,0,0,1,4.91,1.93c.82.83,1.72,1.57,3.06,2.79.17-1.87.28-3.12.41-4.67l1.8-.08,4.13,3.81c.49-2.42,1.19-4.38,1.2-6.34,0-2.36-1.66-4.05-3.31-5.62a12,12,0,0,1-1.13-1.62h-4.28c-.08-.5-.14-.87-.2-1.22,2.44-1.47,4.59.84,7.07.37.45,3.92,5.28,2.21,6.77,5.81v3.72c1,.37,1.19-.5,1.55-.86a6,6,0,0,0,.95-1.63c1.44-2.76,1-4.55-1.6-6.18-1.5-.93-3.11-1.68-4.62-2.6a9.68,9.68,0,0,1-1.53-1.49c-1.28,0-2.63,0-4,0-.1,0-.21-.14-.31-.21L214.31,435l1.67-1.18a3.83,3.83,0,0,0,5.08-.07c3.13,3,7.47,4.52,8.86,9.18,1.22-.19,2.45-.79,3.19-.41,1.36.69,2.25.43,3.28-.94,1.27,1.9,3.9,1.9,4.37,4.45h1.9c.11-.25.3-.48.29-.7a13,13,0,0,0-.27-2.34c-.49-2-2.41-3.83-.53-6-.4-4.23.9-8.57-.81-12.71.42-2.87-.81-5.86.71-8.68.34-.64.43-2,0-2.33-1.67-1.35-.29-3.27-1.18-4.88-.76-1.35-.28-3.39-.4-5.12-.09-1.41.44-2.93-.78-4.17-.2-.21-.09-.8,0-1.2.24-1.25.46-2.51.82-3.73s-1.4-2.28,0-3.41c-.9-2.07-.41-4.43-1.2-6.44-.49-1.23-.75-2.62-.32-3.43,1-1.81.32-3.68.75-5.42,1.43-5.83.59-11.74.7-17.61,0-1.75,1.09-2.84,1.57-4.27.42-2.29-.22-4.64.82-7a4.69,4.69,0,0,0-.37-4.24c-.56-.89-.29-2.31-.38-3.38l1.37-1.37C245.47,341.85,250.19,343.92,252.17,348.68Zm-.3-32.86-5.23-1.2L244.76,312l-2,1.78c1.63,3.56,5.38,5,7.43,8.09v2l-2.46-1.9-.48.31a6.4,6.4,0,0,1,.56,1.7,8.24,8.24,0,0,1-.53,2.08c1.21,1,1.81,3,3.74,3.59v3.1l-5.72-4.3-2.64,1.36c3.64,2.78,7.24,5.29,7.37,10.25-2.11-3.15-5.59-4-8.61-4.71.37-2.25.64-3.88.87-5.29l-1.72-1.71c-.09-4.56-.28-5.52-1.73-8.33a9.38,9.38,0,0,0,.65-7.26,9.82,9.82,0,0,1,0-6.4,9,9,0,0,0,.14-4.39c-.23-1.35-1.29-2.58-.54-4.06.61-1.21-.53-2.26-.25-3.49s.16-2.64.36-3.94a29,29,0,0,1,.78-3.12L246.2,292s0,.65.07,1.2c1,1.45,2.74,2.26,3.4,4.11-2,.47-2.37-1.67-3.74-2s-3-.94-4.68-1.5c.37,2.74,3.51,3,4.1,5.44h-2.18c-.09.74-.17,1.35-.24,1.88a1.57,1.57,0,0,0,.18.45,49.86,49.86,0,0,1,3.57,4.19c.94,1.36,2.87,2,4.42,3v1.56c-.57.77-1.92.38-3.9-.27-1.46-.49-.82-2.64-3-2.51l-1.58,1.85,2.86,1.36c.93,1,1.57,2.33,2.26,2.35C249.5,313.16,250.08,314.39,251.87,315.82Zm-.68-13.08c-.12.63-.21,1.08-.36,1.89l-2.57-1.89Zm2.05-30.16c-.42-.81-.75-1.48-1.2-2.34l2.56-1.67a7.08,7.08,0,0,1,.4.81C255.59,270.88,255.11,271.91,253.24,272.58Zm11.11-20.22L263,251.31c-1.91,1.1-1.42,2.51-.42,4a10.77,10.77,0,0,1-1.77,2.9,4.63,4.63,0,0,0-1.7,2.11c-.41,1.05-1.41,2.69-2.8,3.11-1.64.5-2.9,2.32-5.21,1.41a57.89,57.89,0,0,0,1.6-17.65h1.72l-2.49-4.25c.91-.69,1.79-1.34,2.69-2l-2.46-3.75c1.55-2.67-1.27-5.11-.06-7.73-1.7-.48-2.25.35-2.57,1.45a21.48,21.48,0,0,0-.79,3.33,33.58,33.58,0,0,0,0,3.77l-2.33,1.45.8,1-3.44.38a11,11,0,0,1-1.11,3,7.67,7.67,0,0,1-2.23,1.57l-3.81-1.91,1.87-2-2.78-1.81a10.81,10.81,0,0,1,4-8.88c1.3-1.17,3.45-1.43,4.48-3.07l1.09.82,3-3.56s-.17-.66-.35-1.38a4,4,0,0,1,1.48.33c.34.26.31,1,.65,1.27a8.87,8.87,0,0,0,1.88.78l2.52-.87c.39.27.79.42.78.55-.1,1.34,1.28,1.64,1.75,2.55s.74,1.86,1.19,2.75c.16.33.65.82.86.76,2.15-.63,2.54,2.25,4.93,1.72-.7,1.07-1,1.6-1.53,2.37h-3.82c.68,2.9,4.06.46,4.8,3.37v1.08l-6-.43L256,241c.43.4.8,1,1.31,1.17s1.36-.07,2,.08a7.12,7.12,0,0,1,1.63.82l1.83-1c.84.91,1.63,1.74,2.7,2.9l-5.82,1.88c1.84,2.09,4.4,1.88,6.4,3.27Zm16.39,5.69c-.14-1.09-.24-1.91-.45-3.5a18.32,18.32,0,0,1-6.37-3.85c-.59-.52-.73-1.57-1.16-2.6H269.4a51.21,51.21,0,0,1-1.91-5,14.34,14.34,0,0,0-.8-2.13c-.78-1.72-1.44-3.43-.34-5.53.68-1.29.26-3.15.34-4.82l-2.51-3.71,3.57-.19,11.09,12.09c-.28.82-.61,1.78-.93,2.73l3.59,2.76c-.25,3.67-.5,7.35-.79,11.63.67-.09,1.14.47,1.8,1.25Zm-2.8-24c2.33-1,3.74-.1,4.74,1.77Zm0-7.22a56,56,0,0,0-6.78-1.09l4.46-2.29a70,70,0,0,0,9.35,1.84,24.42,24.42,0,0,1,10.24,3.64c2.91,1.78,2.84,1.9,6,2,1.82,1.4,2.91,3.57,5.34,4.37v3.46l4.45,1.27,3.28,4.57h-4.75c-.9-.53-1.81-1-2.66-1.56-1.93-1.28-4.2-2-5.7-4-.51-.67-1.55-1.49-2.2-1.37-1.94.33-2.57-1.72-4.15-1.92a12.24,12.24,0,0,1-4.1-.87,10.88,10.88,0,0,0-4.22-1.66c-.56,0-1.08-.59-1.9-1.08C284.35,228.3,281,227.67,278,226.81Zm35.28,22.53c-1.78.54-2.33-.39-2.77-2.12C312.45,247,312.91,248,313.24,249.34Zm-9.52-2.79-4.23-1.48C301.61,244.52,303.05,244.35,303.72,246.55Zm-19.83,7v-1.35l.4-.06c.1.46.2.91.29,1.37Zm6.38-2.91-4.64-1.2c-.31-.66-.62-1.32-.94-2l.83-.83.28-.25c.86,1.94,3.49,1.11,4.46,2.85C290.37,249.41,290.27,249.73,290.27,250.61Zm5.16-1.69c-2.25-1.34-5.09-1.63-5.75-4.72-2.51-.53-4.88-1.16-6.19-4l2.16-.55c2.79,3.77,7.87,4.2,11.43,7.2Zm2.64.84h3.41l1.73,2L300.77,254Zm28.23,2.16a4.27,4.27,0,0,1,4.1-.26c1.32.63,3.06.41,5.62.67l-5.56,4.61c-1.79-.28-3.79.2-5.92-.7s-5.53.33-8.1,1.79a15.39,15.39,0,0,1-3.91,1.31c-.4.1-.92-.32-1.52-.54l-2.65,1.38h-5.2L301.54,259c.75-1.62,1.31-3,2.06-4.32a9.25,9.25,0,0,1,1.69-1.74c.82.71,1.73,1.16,2.77.48,2.57-1.69,5.59-1.58,8.44-2.18.86-.18,1.85.33,2.61-.62.23-.29,1-.29,1.51-.18C322.45,250.86,324.27,251.38,326.3,251.92ZM319,247.35l2.72-1.12c.8,1.6-.32,2-1.57,2.9C319.71,248.42,319.36,247.89,319,247.35ZM342.28,238c-2.22.34-4.39.74-6.56,1a5.55,5.55,0,0,1-5.07-1.61,24.6,24.6,0,0,0-3.21,0,6.53,6.53,0,0,0-2.88.83c-1.46,1-3,.64-4,.74l-4.31,1.95c-2.44-2.32-4.42-4.89-7.93-5.33v-2.84l1.06-1.06h5.15l2.2-2.73,1.56.81,3.21-3.83h2.6l1.16-1.16-.75-1a5.57,5.57,0,0,1,4.8.89,42.42,42.42,0,0,0,9.48,3.62c2,.61,4.3.12,5.91.12l2.58,2.7Zm8.49,5.15-1-.24,1.15-9.54h1.49C351.77,236.69,353.41,240.26,350.77,243.13Zm2.11-15.48c2-.2,2.44.73,2.77,2.12C353.87,230.31,353.32,229.38,352.88,227.65Zm2.93,13.77-1.09-6.51h1.54A22.37,22.37,0,0,1,355.81,241.42Zm7.61-13.93c.11.49.2.94.49,2.31l-2.07-2ZM372.65,255h-.82v-.27h.82Zm25.14-5.31v1.36l-.39.06c-.1-.44-.21-.89-.32-1.33Zm-9.22,7.87c-2.9-2.54-6.79-2.69-10.5-5.57.46,1.51.46,2.21.81,2.53,1.12,1,2.36,1.85,3.93,3.05h-4.14l-5-6.38a36.88,36.88,0,0,0,6.24-.06c2.71-.49,4.54,1.79,7,1.79.38,0,.77.7,1.14,1.1a8.66,8.66,0,0,0,4.49,2.92c.24,0,.36.61.58,1C391.42,259.45,389.55,258.45,388.57,257.59Zm10.95-2.14a8.78,8.78,0,0,1-1.32,1.71c-3.31-2.53-7.38-3.83-10.08-7.26a12.7,12.7,0,0,0,1.43-.51,5.92,5.92,0,0,0,.85-.65c3.5,1,5.41,4.54,9.16,5.21A4,4,0,0,1,399.52,255.45Zm2.27-2.67-1.73-2.12,1.73-.35Zm3.34,1.64h-1.36v-2.31h1.36Zm.6,1.9c2.32-1.41,2.32-1.41,3.22,1.54Zm8.84-.08-1.74-1.42,2-.38.24,1.26Z" transform="translate(-79.79 0)"/><path d="M319.2,224.31l-.1-.27C319.44,223.47,319.32,223.89,319.2,224.31Z" transform="translate(-79.79 0)"/><path d="M203.09,457.49l-.11.11v0l.1-.09Z" transform="translate(-79.79 0)"/><path d="M200.44,60.4a8,8,0,0,1,.33-4.6l3.31-1.71c2.59-.36,5-.84,7.5-1s4.89.06,7.33-.08a11,11,0,0,1,4.13.8c1.16-1.35,2.22.74,3.45.13.3-.15,1,.59,1.59.94,1.42.94,2.85,1.87,4.63,1.33,1.34,2.07,4.38,1.53,5.41,4.12v2.14l3.33,3.33c-.16,1-.33,2.13-.56,3.63a9.17,9.17,0,0,0,4.72,4.49A22.48,22.48,0,0,1,243.84,70a17.47,17.47,0,0,1-.06-3.62c3,.11,1.62,4.25,4.51,4.7.76-4.35,1.5-8.62,2.26-13L252,56.66c-.5-2.19.89-4.74-1.16-6.9L247.51,52l-2.82-.89-2.15-2.15L239.9,52c1.73,1.4,3.17,3.44,5.43,4.77a5.13,5.13,0,0,1,2.41,5.78L246.21,64c-.39-.51-.78-.8-.76-1.06.08-1.4-.42-2.46-1.88-2.5-1.64-.05-2.23-1.28-3-2.27-1.81-2.22-3.56-4.49-5.33-6.74-.82.79-1.38-1.68-2.25-.18l-3.69-2.12-7.5-1.22c-2.25-1.36-2.25-1.36-5.41-1.49-.2-.19-.47-.35-.57-.58-2.09-4.94-6.52-6.72-11.12-8.27-1.2-.41-2.42-.75-3.91-1.21V33.53h5.14c1.22-3.66,5-3.22,7.36-4.9.72,1.15,1.94.52,2.91.8s2.16,1.47,2.78.57c.82-1.21,1.43.66,2.22-.22.32-.37,1.76.33,2.7.4s2.16,0,3.12,0c3.64,2.4,7.8,3.83,10.57,7.28,2.25-.4,3.74,2.39,6.34,1.45-.77-3-3.81-3.52-5.48-5.41a54.71,54.71,0,0,0-6-5.22,6.22,6.22,0,0,0-.05-2.41c-1.47-3.07-3.1-6.06-4.75-9.23-.11-3.32-.11-3.32.72-5.14A8.09,8.09,0,0,0,224.4,7c-2.23-1.13-3.1-3.66-4.14-5.8L221.34,0c3.17,1,6.28,2,9.36,3.14A15.69,15.69,0,0,1,238.9,10c.7,1.11,1.48,2.18,2.9,2.38,1.73,5.11,4.64,10,2.61,15.52,2.34,2.39,2.89,2.7,5.64,3.2,1.13-3-1.55-5.84-.28-8.88l1.34-1.35V17.89l4.13-6.36,2.87-.14c.34-.34.63-.62.91-.91,1.26-1.09-1-2.08,0-3.45.47-.69-.35-2.28-.63-3.63h2.18c1.05,2.37,2.11,4.78,3.19,7.19.1.23.43.44.41.63-.38,4,.37,7.93-.54,12a43.58,43.58,0,0,1-3.88,11.07c-1,1.86-.36,3.82-.31,6a6.17,6.17,0,0,0,3.84-3.2c1-2.26,2.9-3.23,4.76-4.37,1.63-1,3.3-2,5.46-3.26h10.69l1.6,1.6h3.29l1.51,1.62c-2.37,1.63-4.75,1.82-7.55,1.61l-2.1,5.46c-1,1.28-2.14,2.85-3.33,4.41a3.31,3.31,0,0,1-3.74,1.5c.19,1.48.33,2.68.5,4l-2,1L270,49.47c-.06,1.35-.11,2.36-.16,3.48a3.55,3.55,0,0,1-1.24,0c-1.13-.55-2.22-1.19-3-1.61-2.82.48-2.09,2.42-2.22,3.76l-.41.4-2.39-2.41c-2.41,1.68-2.84,4.77-5,6.78-1.8,1.7-2.44,4.62-3.63,7.05L253.87,70l-4.23,4.92c-1.91-.56-2.39,1.35-3.21,2.78s-1.42,2.64-2.27,4.22l-2.63-2c-2.85.37-5.72-1-8.73-1.58s-6-.66-8.92-.95l-1.72,1.72a6.09,6.09,0,0,0-5.41,2.11c-.68.7-2,1.09-2.23,1.86-.43,1.44-1.66,1.52-2.56,2.12a32.66,32.66,0,0,1-3,1.56l-.26-3.2c.7-.36,1.44-.52,1.79-1,1.91-2.46,4.8-3.52,7.31-5.06a12.82,12.82,0,0,1,5-1.63c2.14-.27,4.44.33,6.49-.18s3.76,0,5.44.29c2.12.33,4.58.89,6.27,3.3l1.13-1.71-1.18-3.4c-1.84,0-1.52-2.16-2.8-2.89a16.32,16.32,0,0,1-2.89-2.81h-3l-4.13,2.18a21.71,21.71,0,0,0-4.56-.49,39,39,0,0,0-5.28,1.23,17.18,17.18,0,0,1-3.93-1.36c-1-.65-1.66-1.86-2.78-3.19a22.78,22.78,0,0,1-4.52-.67c-1.44-.48-2.84-1-4.27-1.52s-2.88-.24-4.42-.31L198,65.88h-3.78l-.85-.85c.07-.17.09-.43.22-.53,1.06-.75,2.13-1.47,3.6-2.46h4.53c-.94-1-1.52-1.64-1.29-1.64,4.68,2.82,8.92,3.13,13.4,4.36l3.71,3.72h2.73l1.1-1.87c1.18.32,2,.6,2.92.77s2.17.67,2.64.27c2.42-2,5.21-1.49,7.93-1.58.23,0,.45-.2.66-.3V62.32l-2.69-2.69a8.91,8.91,0,0,1-3.06-1.45c-1-.7-2.18-.16-3.36-.74-3.4-1.69-7.37-.92-11-1.93-.48-.13-1.29-.13-1.52.15-.76,1-1.72.54-2.61.64C207.52,56.75,203.8,57.33,200.44,60.4Zm75.08-25.22.16-.16-.57-.66-.26.25a2.51,2.51,0,0,0,.74.49c.58,1.4,1.16,2.78,2,4.74,1.34-2.93,2.74-5.13,3-8.75l-3.2,4A17.18,17.18,0,0,0,275.52,35.18Zm-58,8,6.19,1.08,3.54,2.23c1,0,1.14-1.23,2-.31.35.38,1.23.28,1.87.33s1.28,0,1.58,0l1.78,1.62,4.89-.9,3.11-2C240.82,44,239.44,43,238.07,42a17.18,17.18,0,0,1-3.36-2.62c-2.47-3.08-6.3-3.9-9.41-5.89a8,8,0,0,0-3.3-.83c-1.37-.16-2.82.23-4.07-.69-1.36,1.81-2.57-.22-3.86-.15a5.45,5.45,0,0,0-1.92.27c-1.48.72-2.9,1.57-4.51,2.47,1.89,1.37,3.65,2.47,5.2,3.81S215.73,41.32,217.52,43.17Zm23.82-22.31c-1-2.49-1.71-4.25-2.46-6a20.64,20.64,0,0,0-3.27-5.59c-2.14-2.45-5.19-3.35-7.83-5.68-.15.94-.46,1.54-.27,1.87.94,1.67,2,3.27,3.22,5.19v1.22a4.07,4.07,0,0,1,0,1.21,6.33,6.33,0,0,1-.67,1.21,11.58,11.58,0,0,1,1.36,2.33c1.34,4.26,2.76,8.41,5.82,11.87,1.54,1.74,4.21,3.65,6.45,3.85-.65-1.88-2.36-3.29-2.34-5.46S241.34,22.29,241.34,20.86ZM263.78,40l-3.27,3.29h-2.15L255.29,47l.68.72c-.33,1.39-.64,2.75-.92,3.94l1.53,1.53,2.74-4.88L263.76,47c-.14-1-.26-2-.41-3.14,2.14.42,2.8,2.09,4.06,3a7,7,0,0,0,1.86.47C268.37,43.89,265.84,42.26,263.78,40Zm-9.32-22.47a10.86,10.86,0,0,1,2.48,4.58c.39,1.76.79,3.85,3.13,4.93.54-1.73,1.1-3.5,1.76-5.56-1.44-.13-2.85-.36-3.68-1.73-.73-1.2-1.57-2.33-2.38-3.53Zm14.13,17.13c1.46,3.79,4.84,4.84,5.73,7.76l1.27-1.13c0-2.55-2.51-3.24-3.5-5C271.71,35.53,270.37,35.39,268.59,34.62Zm-14.27,3.29-2.41-3.36-2.23,2,4.29,5,.35-.33Zm15.6,2.73-3.06-3.74-1.8,1.8c.79.57,2.19,1.09,2.26,1.75.18,1.7,1.82.93,2.45,2.24ZM257.63,15.13l2.92,3.94c.22-2.48.17-2.67-1.29-4.78-.1-.14-.36-.17-.54-.25ZM252.9,29.47v2.39l2.44-.15A9.32,9.32,0,0,0,252.9,29.47Zm-1.16,17a2.21,2.21,0,0,0-1.3-3.15v3.15ZM255.41,33v1.33l2.08-.36ZM254.25,22.2l-.73,0,.3,2.18.43,0Zm4.09,8.68-.09-.71-1.33.32.06.39ZM256,55.21v-.27h-.82v.27Z" transform="translate(-79.79 0)"/><path d="M279.73,73.9c-.25-1.51,0-3-.79-4.56-1.23-2.26-3.56-3-5.24-4.65-.36-.36-1.22-.2-2.17-.32,1.13,2.2,2.13,4.14,3,5.87-.3,1.12-.55,2.06-.82,3.09h-2.29l.75-2.07c-1.95-1.65-2.09-4.15-2.51-6.81l-1.05.77-4.16-3.06h-2.94c2.47,2.84,4.14,6,7.51,7.55v1.74a6,6,0,0,0-.92.35c-1.83,1-3.81.78-5.78.82-2.65.06-4.72,1.7-7.15,2.52V79h-2.25V74.64l4.4-2.88c1.25-1.8-1.66-3.24.12-5.07l2.15,1.66L258.36,70h5c-.18-2.48-2-3.82-3.56-5.41l-2-.22v-1.8c2-2.27,5.21-2.5,7.52-4.4,1-.84,2.63-.88,4-1.18s2.3-1.23,3.45.15c.05.06.26,0,.39,0,3-.66,5.68,1.25,8.09.86,2.18.93,3.85,2,5.66,2.31,1.35.25,2.31,1,3.5,1.43,1.79.59,3,2.63,5.29,2.1.54-.12,1.45.56,1.93,1.1,2.57,2.88,5.95,5,7.82,8.56a6,6,0,0,0,1.17,1.2L305.06,76c-2.09-.29-4.81-.08-6.89-1.13-1.78-.89-2.88-.17-4.41.37-.15-1-.27-1.72-.4-2.53-1.95-.45-2,1.21-2.59,2.25-1.77.33-3.56-.12-5.39.75-.95.45-2.63-.55-3.95-1A12.33,12.33,0,0,1,279.73,73.9Zm9.8-3-.16.16.57.66.26-.26c-.23-.18-.45-.37-.88.06V67.13L288,68.85A4.92,4.92,0,0,0,289.53,70.9ZM275.59,62l.41-.44-1.92-1.24L274,61.92c.66,0,1.14.08,1.62.09.05,2.16,2.41,2.35,3.31,3.85a44.09,44.09,0,0,0,3.28,4.31l-1.1,2,1.59,1,1-.71,1.44.8c.81-1.81.19-4-1-4.55-1.64-.81-1.61-2.55-3-3.38a20.64,20.64,0,0,1-3.5-3.38C277,62,276.27,62,275.59,62Z" transform="translate(-79.79 0)"/><path d="M186.76,204.11l-1.35,1.68a17.66,17.66,0,0,0-5.57-2c-1.85-.32-3.46-2-5.13-3.12-1.24.45-2.79,0-4.49-.45s-2.2-2-3.05-3.28c-1.6-.46-3.65-.44-4.65-1.46-1.76-1.78-4.73-1-6.09-3.8l1-2.92,3.89-.81.53.48,1-.9c1.33.66,2.73,1.73,4.09.1,3.11,1.19,6.24,2,9.12,1.63l6,2.9c-1.64-3-4.11-4.1-6.26-5.06a18.67,18.67,0,0,1-5.35-3.9v-1.55a44,44,0,0,0-4-2.15A5.34,5.34,0,0,1,162,177l1.34-1.57h5.75l3,1.65,1.18-.86.52.49c.94-.18,2-.69,2.81-.49a77.36,77.36,0,0,0,9.11,1.7c1.62.19,3.09,1.71,5.4,3.08h2l4,2,.81,1.93-2,.95-3.11-3.1h-4l-2.21-2.22c-4.33-.93-8.26-2.82-12.77-1.74l-1,1v2.72a4.22,4.22,0,0,0,1.07.83,50,50,0,0,1,7.69,4.14,19,19,0,0,0,6.69,2.45,8.83,8.83,0,0,1,4.9,2.95l-2.1,1.08c-4.2-2.44-4.2-2.44-8-1.89,1.92,3.12,5.94,3.56,7.51,6.52.65,2,1.19,3.94,2,5.8.29.7,1.11,1.17,1.68,1.75,1.67-.63,1.67-.63,6,.23l2.5,2.9c-2.42.29-4.27.93-6.15-.58l-3,1.56-2.38-2.61a35.76,35.76,0,0,0-1.56-4.43,37.39,37.39,0,0,0-2.66-4c-3.46-2.46-6.82-5.74-11.58-7.42l-12.84-1.19a10.92,10.92,0,0,0,1.5,2.4,25.71,25.71,0,0,0,3.17,1.91h1.68l2.58,3.31a8.82,8.82,0,0,1,5.38,1.05c1.63.91,3.55,1.3,5.24,2.1S185.2,203.19,186.76,204.11Z" transform="translate(-79.79 0)"/><path d="M384,269.53l6.62,4.33c.18,1,1.11,2.86.55,3.91-.78,1.47-.09,2.9-.7,4.21l-1.73.71-4.09-1.29c-.85,1.57-2.74-1.3-3.46.82l-4-1.15.11-.41h-6.46c-2.43-.35-3.45-4.09-6.84-2.77a6.22,6.22,0,0,0-1.81-1.34c-1.9-.58-2.6-2.25-3.25-3.68-2-4.43-1.9-4.47-5.73-6.45-1.44-.75-2.85-1.57-5-2.78h5.57l1.14,1.46h2.84c.52.77,1.08,1.6,1.63,2.44l1.11-.16-.93-1.25,2.5-.42-1-1.51,3.08-3.25,3.38,1.2c.14-1.28.25-2.27.37-3.42h2.18c.05,1.09.12,2.35.19,3.78h-2.35l-.2,2.31c1.15.83,2.39,1.75,3.65,2.63s2.36,1.6,3.17,2.15a39.67,39.67,0,0,1,13.31,8.25l.4-2.36A7.22,7.22,0,0,1,384,269.53Zm-12.14,7.87,2.41.86V276a25.25,25.25,0,0,0-6.67-4.76Zm-4.94-7c-.74-.47-1.35-.86-2-1.23,0,0-.18.17-.55.54l-.79,1.09c.86,1.47,1.82,2.1,3.32,1.32Z" transform="translate(-79.79 0)"/><path d="M99.56,200c4,1.42,8.19.15,12.33.72l4.89,2.48.73-.67c4.24,1.15,7.19,4.46,11.36,5.46a1.87,1.87,0,0,1,1.21.91c.85,2.25,2.95,3.38,4.3,5.11v4.54c-1.89.08-2.34-1.71-4-2.52l-2.51.87c-3.71-2-5.46-2.42-10.88-2.42l-3.75,2.54-9.4-1.11c-4.34-1.7-7.82-4.8-11.19-7.7L83.1,206l1.29-1.4,7.53,1C92.13,200.74,96.24,201.08,99.56,200Zm4.79,12.87c1.64.17,3.76-.44,5.78.73a3.09,3.09,0,0,0,2.75,0c2.83-1.94,6-1.41,9.17-1.54l1.11-1.82c-3.5-2.76-7.23-4.23-11.07-4l-1.37-3.39-5.2.92c-.63-1-1.83-.45-2.8-.72s-1.82,1.24-3.08.14c-.61-.54-2.07-.09-2.81-.09l-4.72,2.57A16.4,16.4,0,0,1,98.64,210a7.83,7.83,0,0,0,2.3,1.26C102,211.76,103,212.24,104.35,212.91Z" transform="translate(-79.79 0)"/><path d="M180.58,313.21a5.71,5.71,0,0,0-4.61-1.66,17.45,17.45,0,0,1-3-.45c-1.26.1-2.81.67-3.94.21-2.25-.91-4.4-.49-6.6-.32-.2,0-.38.36-.61.59-1.07-1.48-.19-2.4,1.07-3.44.46.16,6.88-.63,13.16.19,5.51.71,10.91,3,12.06,3.22.64.79,1.4,1.72,2,2.51h2.09v2.34c-3,.48-4.46-2.32-7.36-3.19Z" transform="translate(-79.79 0)"/><path d="M204.44,206l-.8-2.24,1.42-1.5c-.16-1.28-.28-2.21-.41-3.28l5.79,1.57,1.61-1.61,1.7,1.4-1.17,4.15a17.64,17.64,0,0,1-3.84,1.21C207.51,205.91,206.36,206.64,204.44,206Z" transform="translate(-79.79 0)"/><path d="M128.26,100.48l-5.77,5.21-.3-3c1.6-2.82,4.3-3.78,7.14-4.66,1.52,2,3.13-.82,4.82-.23l1-2,2.45,2.62c-2.37.33-4.16.26-5.73,1.48C131.06,100.59,129.57,100.33,128.26,100.48Z" transform="translate(-79.79 0)"/><path d="M384.31,269.68l-1.37.9c-2.08-.74-2.76-3.42-5.33-4-2-.42-3.75-1.92-5.82-3.06.25-.22.69-.89,1-.84,1.37.2,2.72.62,4.54,1.07C378.8,266.2,382.89,266.5,384.31,269.68Z" transform="translate(-79.79 0)"/><path d="M197.15,188.45c2-.34,2.52,1.48,3.79,2.33l1-.81,4,2-2.08,1.16v3.38a10,10,0,0,1-1.35-.09c-.28-3.19-2.62-5-4.63-7A8.72,8.72,0,0,1,197.15,188.45Z" transform="translate(-79.79 0)"/><path d="M225,170.94l1.21-1.22c3.3.16,5.3,3.41,8.94,3.3-2.62,2.14-4.83,1.85-7,.14C227.09,172.38,226,171.68,225,170.94Z" transform="translate(-79.79 0)"/><path d="M197.55,199.87c-.66-2,.08-2.92,1.65-3.42.24.33.46.5.53.72.26.79.47,1.59.7,2.39Z" transform="translate(-79.79 0)"/><path d="M248.07,52.67,250.84,56l-2.77.41Z" transform="translate(-79.79 0)"/><path d="M257.65,80.77a7,7,0,0,0,.62.81c.31.3.67.55,1,.82h-4V80.77Z" transform="translate(-79.79 0)"/><path d="M141.1,102.31l-1.22,1.22a6.75,6.75,0,0,0-1-.73,8.56,8.56,0,0,0-1.34-.42l.65-1.44c.51.29.91.56,1.34.77S140.45,102.06,141.1,102.31Z" transform="translate(-79.79 0)"/><path d="M233.5,174.46l2.16,2.19c-.36.13-.7.4-1,.33-.82-.22-1.62-.57-2.53-.91Z" transform="translate(-79.79 0)"/><ellipse cx="196.21" cy="73.43" rx="1.61" ry="0.98"/><path d="M152.47,132.27c-.09,1.69-.88,2.26-2.36,2.35Z" transform="translate(-79.79 0)"/><path d="M126.34,68.53V66.9h2.45A2,2,0,0,1,126.34,68.53Z" transform="translate(-79.79 0)"/><path d="M257.38,80.63l1.46-1.46,1.84,1.46Z" transform="translate(-79.79 0)"/><path d="M197.22,188.51l-.66-.57.25-.26.57.67Z" transform="translate(-79.79 0)"/><path d="M141.92,98l-.57.67-.25-.26.66-.57Z" transform="translate(-79.79 0)"/><path d="M254.9,445.22l-.79.79-7-5.93V437.4a3.07,3.07,0,0,1,1.11-.2,10.77,10.77,0,0,1,3.77,2.67,24.83,24.83,0,0,0,2.26,2Z" transform="translate(-79.79 0)"/><path d="M262.14,464.09h-2.68l-.21-2,1.48-1.48Z" transform="translate(-79.79 0)"/><path d="M245.42,442.28v1.19l-1.44.3-.3-1.49Z" transform="translate(-79.79 0)"/><path d="M278.08,185.67c-.37-1.82-2-2.55-2.85-3.77h-2.49l-2.49,2.48c-4.59-1.17-8.36-4.22-13.12-4.22-1.41-.87-2.83-1.72-4.21-2.62-.15-.09-.12-.48-.19-.83,1.86-1.67,3.59.76,5.62.17l-1.93-3,2.83.83c-.05-.75.06-1.31-.13-1.45-1.76-1.28-3.58-2.5-5.47-3.8a2,2,0,0,1,2.39-1.38c3.57.87,7.34,1.36,9.95,4.82l-1,2.39c-.4-.12-.65-.12-.77-.24-.85-.88-1.65-1.85-2.74-1.28l3.15,3.19,1.28-.32,2.34,2.35c2.24.2,4.27-1.08,6.16.44a29.24,29.24,0,0,0,5,2.66.58.58,0,0,1,.29.29c.72,2,2.75,2.86,4.39,4.33l-2.76,3-.14,2.14a18.71,18.71,0,0,1-3.95-1.06,11.52,11.52,0,0,1-2.4-2.35c-1.73.44-3.28,2.38-5.67,1.35v-2.16h2.92l.4-1.53a23.83,23.83,0,0,0,5.59-.45,17.88,17.88,0,0,0,.22,3.05l1.77-.88A27.34,27.34,0,0,0,278.08,185.67Zm-18.44-8c1.93,2.45,3.58,1.93,5.39,1.55C263.64,177,261.84,178.13,259.64,177.62Z" transform="translate(-79.79 0)"/><path d="M260.92,185.54v-1h6.41l1.32,2.11C265.71,186.81,263.18,187.27,260.92,185.54Z" transform="translate(-79.79 0)"/><path d="M255.49,183.25c1.9-.85,2.91-.64,3.74.89l-1.76,1Z" transform="translate(-79.79 0)"/><path d="M196.54,241c1.09-1.67,2.5-1.24,4.05-1-.12,2-1.82,1.72-2.74,2.46Z" transform="translate(-79.79 0)"/><path d="M223.07,239.51l3.51,2.48c-1.85.8-3.3-.12-4.68-.87Z" transform="translate(-79.79 0)"/><path d="M220.58,232.45l-3.57,1-.15-1.74C218.07,231.72,219.22,231.31,220.58,232.45Z" transform="translate(-79.79 0)"/><path d="M219.76,241.58l-2.64,1.87-.28-1.87Z" transform="translate(-79.79 0)"/><path d="M254.3,247.27h4c.77,1.7-1.29,1.86-1.45,3.21l2.11,3-2.83.29c-.23-1.57.33-3.32-1.4-4.36C254.27,249.12,254.4,247.93,254.3,247.27Z" transform="translate(-79.79 0)"/><path d="M246.06,321.54c-.38.92-.62,1.5-1,2.4-.72-1.12-2.21-1.43-2.06-3.46Z" transform="translate(-79.79 0)"/><path d="M247,325.53l-.66-.57.25-.26.57.67Z" transform="translate(-79.79 0)"/><path d="M272.33,447l.81,1.64H271Z" transform="translate(-79.79 0)"/><path d="M271.44,450.31l-.67-.57.26-.25.57.66Z" transform="translate(-79.79 0)"/><path d="M271.59,450.14l.66.57L272,451l-.57-.67Z" transform="translate(-79.79 0)"/></svg>