<svg id="Ebene_1" data-name="Ebene 1" xmlns="http://www.w3.org/2000/svg" viewBox="0 0 500 329.92"><path d="M471.06,244.49c-.15,2.87.79,5.43,1.86,8a56.23,56.23,0,0,1,2.55,8.47c.18.76-.5,1.72-.78,2.59a15.92,15.92,0,0,1-2.29-.81c-1.18-.63-1.24.23-1.09.87.38,1.62,1.14,3.17,1.37,4.81a58.23,58.23,0,0,1,.51,7.7c0,.82-.75,1.63-1.12,2.47-.8,1.81-3.5.91-4.12,2.81-.51,1.57-.67,3.25-1.12,4.84a8.19,8.19,0,0,1-5.09,6,10.28,10.28,0,0,0-5.39,5.31c-.16.33-.42.62-.6.94-1.65,3.07-5,3.17-7.53,4.61-2.37,1.35-3.3,5.21-6.37,6.61-.17.08-.35.25-.5.22-4.84-.89-8.42,2.25-12.47,3.86a6,6,0,0,1-2.69.46c-2-.19-3.06.85-4.08,2.3a13.21,13.21,0,0,1-11.44,5.75,9.08,9.08,0,0,0-7.91,4,13.09,13.09,0,0,1-3.82,3.05c-2.12,1.31-4.79,1.69-5.44,5-.2,1-2.62,1.8-4.15,2.36s-2.24,1.34-1.8,2.87c.53,1.79,1.19,3.45-.45,5.12a9.74,9.74,0,0,1-6.23,3.3,17.2,17.2,0,0,1-2.78,0c-2.18-.15-3.28-1.58-3.83-3.49-.5-1.75.6-2.91,1.93-3.63,2.07-1.14,3.85-2.13,2.49-5-.24-.51.79-1.88,1.53-2.51a14.23,14.23,0,0,1,3-1.52c2.78-1.43,2.78-1.44,1.48-4.79-.79-2-.3-3.13,1.86-3.62,1.81-.41,3.68-.49,5.5-.86,6.34-1.29,12-3.65,15.36-9.74a9.36,9.36,0,0,1,2.17-2,18.25,18.25,0,0,1,1.28,2.33c1,2.64,1.12,2.82,3.12,1.18a29.32,29.32,0,0,0,5.36-5.49c1.18-1.65,1.88-2.66,3.78-.94.36.33,1.63,0,2.24-.35,3.14-2,6.28-4,9.26-6.16,1.77-1.31,3.12-2,4.5.35,1,1.65,2,1.33,2.85-.14,1.16-2.11,2.21-4.29,3.3-6.44,1.9-3.79,2.12-3.81,5.09.17A61.12,61.12,0,0,0,457,284c.48-1.11,1.31-2.9,2.76-1.47,1.91,1.89,2.58,1.6,2.84-.88.22-2.19.38-4.4.56-6.6a10.84,10.84,0,0,1,.27-2.75c.19-.53,1.07-1.25,1.47-1.15.58.13,1.52,1.15,1.41,1.41-.76,1.84-.16,3.21,1.17,4.56.95-3.33,0-6.28-1.66-9-2-3.33-1.41-6.88-.66-10.21.83-3.74,1.06-4.66.45-7.7a33.91,33.91,0,0,1-.32-6.54c0-4,.44-4.25,4.4-2.47Z" transform="translate(0 -85.04)"/><path d="M349,301.13c-9.78.75-19.65-2-29.16-6.47-2.11-1-3.28-2.29-2.93-4.73.27-1.86,1.11-2.51,3.06-2.08,5.94,1.3,11.86,2.68,17.81,3.91a24.37,24.37,0,0,0,5,.38c6.31,0,12.64-.27,18.94,0,12.24.56,23.36-3,34-8.51,3.3-1.69,6.53-3.56,9.93-5a14,14,0,0,0,7.94-8.77,69.45,69.45,0,0,1,3.37-7.6,1.36,1.36,0,0,1,2.56,0c.82,1.67,1.44,3.29.35,5.24a32.94,32.94,0,0,0-2.5,6.14,16.09,16.09,0,0,1-6.66,8.57,112.54,112.54,0,0,1-25.05,13.13A97.59,97.59,0,0,1,349,301.13Z" transform="translate(0 -85.04)"/><path d="M12.55,319.64a23.8,23.8,0,0,0-2.92,1.54c-1.09.79-2.13,1.69-.1,2.77.38.2.45,1.31.36,2-.22,1.6-.63,3.17-1,4.76-.42,2.1-1.48,3-3.38,2.9a2.7,2.7,0,0,1-2.76-2.91c.75-3.72-2.21-7.29.09-11.09a18.49,18.49,0,0,1,8.13-7.1c-3.66-5.87-2.69-9.44,3.3-12.53a8.65,8.65,0,0,1,1.52-.69c2.59-.75,3.59-2.51,3.1-5.07-.73-3.81,1.32-5.55,4.42-7.24,5.28-2.88,10.73-2.55,16.16-1.38a91.45,91.45,0,0,1,11.59,3.84c1,.37,2.34.94,2.75,1.79a15.59,15.59,0,0,1,1.57,5.64c.07,1.14-2.58,1.34-5,.49-4.53-1.57-9-3.35-13.64-4.53-2.82-.71-5.88-.54-8.84-.62-1.58,0-3,.52-3.2,2.4a2.68,2.68,0,0,0,2.39,3.16c1.08.22,2.1.74,3.18,1,1.84.37,2.73,1.58,2.07,3.17a4.16,4.16,0,0,1-2.83,2c-2.89.41-5.84.33-8.75.62a16.81,16.81,0,0,0-4.28,1.08c-.68.26-1.17,1-1.75,1.57.54.47,1,1.2,1.64,1.37a16.34,16.34,0,0,0,3.3.27l5.29.28c-1.49,3.32-2,6.41-6.17,6.82a5.21,5.21,0,0,0-4.54,3.66Z" transform="translate(0 -85.04)"/><path d="M448.88,128.59q.53-5.75,1.06-11.5a22.82,22.82,0,0,0-2.32-11.83c-.73-1.59-1.37-3.81-.81-5.28,1.09-2.87-.36-4.8-1.25-7.14-.78-2-1.75-1.59-2.84-.67-.66.57-.94,1.57-1.51,2.28a20.61,20.61,0,0,1-1.81,1.81,11.27,11.27,0,0,1-1.13-1.86c-1.11-2.89-.26-5.26,2.14-7.36,3.64-3.19,7.65-1.73,11.61-1.22a.93.93,0,0,1,.51.21c1,.91,1,8.18-.29,8.75-2.73,1.18-1.69,3.09-1,4.46,1.92,3.69,2.68,7.62,3.54,11.62,1.34,6.22.11,12.11-1.57,18-.5,1.78-1.51,3-3.67,1.88-1.15-.6-1.75,0-1.83,1.14-.1,1.48,0,3-.18,4.44-.08.57-.79,1.48-1.2,1.47a6.74,6.74,0,0,1-2.9-.85c-.29-.15-.22-1-.28-1.58-.73-7.29-4.4-13.18-8.7-18.87-1.85-2.45-3-5.42-4.48-8.17-.25-.49-.37-1-.6-1.54-1.84-3.81-3.21-4.33-7.37-2.79-1.88.69-3.56-.34-3.12-2.16a8.62,8.62,0,0,1,2.2-4.32c4.08-3.62,12.42-.73,13.13,4.64a13.12,13.12,0,0,0,2.92,6.35c4.53,6.09,9,12.24,10.43,20.05Z" transform="translate(0 -85.04)"/><path d="M396.72,235.48c-.55.94-.77,1.89-1.29,2.11-1.83.76-3.75,1.73-5.66,1.79-8.2.22-16.15,2.07-24.22,3.06a98.23,98.23,0,0,0-20.34,5.18c-1.18.41-2.75.92-3.27,1.86-2.11,3.88-5.89,4.94-9.59,6a69.22,69.22,0,0,1-10.3,2c-3.87.5-7.12,1.76-9.31,5.21a12,12,0,0,1-2.67,2.66c-1.31,1.05-2.4.5-3.29-.71s-.78-2.53.51-3.37c2.8-1.81,5.64-3.58,8.55-5.19,3.56-2,7.19-3.79,10.84-5.58a16.8,16.8,0,0,1,4.65-1.74c3.51-.56,6.52-1.44,9-4.52,1.32-1.68,4.11-2.46,6.39-3.06,6.6-1.73,13.25-3.31,19.93-4.67,6.34-1.3,12.73-2.38,19.13-3.29a29.67,29.67,0,0,1,7.76.13C394.6,233.52,395.55,234.68,396.72,235.48Z" transform="translate(0 -85.04)"/><path d="M451.62,140c3.47.49,6.95.94,10.41,1.5a5.75,5.75,0,0,1,2.51,1c.45.33.51,1.19.74,1.81a4.15,4.15,0,0,1-1.49.42c-3.12-.39-6.34-.47-9.29-1.42-3.82-1.23-7.4-.18-10.92.55-8.1,1.69-12.22,9.47-9,17.05,1.94,4.55,4.64,8.78,7,13.16,4.6,8.59,6.75,17.43,4,27.22-2.27,7.95-3.79,16.11-5.62,24.18-.86,3.78-1.72,7.56-2.47,11.36a15.47,15.47,0,0,0-.24,4.24c.15,1.83-.17,3.39-2,4.06-1.47.55-3-1.31-3.13-3.63-.3-6.19,1.12-12.16,2.62-18.07,2.31-9.11,4.72-18.19,7.31-27.22,1.18-4.1.37-8-.34-12a81.45,81.45,0,0,0-1.88-8,8.19,8.19,0,0,0-1.74-2.72,27.86,27.86,0,0,1-7.15-16.92c-.54-8.81,7.43-15.62,15.1-16.1,1.84-.11,3.71,0,5.56,0Z" transform="translate(0 -85.04)"/><path d="M328.38,277.3c2.45.36,4.46.62,6.46,1,4.91.85,9.8,1.8,14.71,2.59,3.1.5,6.29,1.34,9.33,1,10.8-1.12,21.85-1.28,31.83-6.51a9.13,9.13,0,0,1,3.15-.95,1.64,1.64,0,0,1,1.66,2.5c-1,2.2-2.14,4.17-4.73,5-4.91,1.6-9.69,3.66-14.65,5.08-3.33,1-6.88,1.17-10.34,1.67a26,26,0,0,0-3.33.22c-4.79,1.35-9.57.93-14.27-.19-6.43-1.54-13.17-2-19.08-5.42a7.7,7.7,0,0,1-1.82-1.11c-1.1-1.15-2.06-2.43-3.07-3.65Z" transform="translate(0 -85.04)"/><path d="M354.61,319.34c-2.27,1.76-4.07,3.39-6.1,4.66-1.86,1.18-6.39.23-6.29-1.33.19-2.9-.51-2.42-2.48-1.85-.87.24-2.08-.54-3.08-1-1.67-.72-1.76-1.95-.41-2.94a45.89,45.89,0,0,1,7.85-5.14c5.29-2.45,5.41-2.25,4.85,3.29,2.6-1.11,3.51-4.73,7.07-4.59.62,0,1.25-1.7,2-2.5a3.92,3.92,0,0,1,1.75-1c.17-.05.64.76.85,1.23a4.46,4.46,0,0,1-.13,4.69c-2,2.9-2.73,5.81-1.36,9.4,1,2.6.92,5.52-2.53,7-1.63.71-1.78,2.05-.76,3.68,3.82,6.17,2.9,12.66,1.43,19.31-1.87,8.44-4.28,16.84-3.43,25.65a14.41,14.41,0,0,1,.11,2.78,17,17,0,0,1-.65,2.5c-.89-.82-2.53-1.64-2.53-2.46,0-6.27-1.25-12.63.88-18.8a2.72,2.72,0,0,0,.15-.54c1-6.54,1.87-13.11,3.25-19.59.3-1.39-.7-3.09-1.2-4.62-.69-2.06-1.75-4.05-2.15-6.16s0-4.53,2.15-5.94C356.35,323.5,355.51,321.48,354.61,319.34Z" transform="translate(0 -85.04)"/><path d="M363.94,384.88c3.62.7,7.21,1.62,10.85,2,6.09.68,10.4,3.49,12.62,9.3.52,1.37,1.19,2.68,1.73,4,1.08,2.72.38,3.37-2.63,4.22-3.4,1-6.07-.88-9.06-1.54a5.32,5.32,0,0,0-2,.43c.4.56.68,1.31,1.22,1.65,3.6,2.26,7.4,4.29,9.05,8.59a5.6,5.6,0,0,1,0,1.36,6.85,6.85,0,0,1-1.93-.87c-1.93-1.82-3.67-2-6.34-.93-5,2-8.93-1-12.34-4.26-3.19-3-3.86-7-3.09-11.25.07-.42.82-1.11,1.1-1,.6.15,1.49.66,1.55,1.12.53,4.2,2.63,7.2,7,9.18-1.5-3,1.14-6.25-1.58-9.06-1-1,.12-2.24,1.22-2.5a9.22,9.22,0,0,1,3.77,0c2.33.45,4.63,1.11,7.67,1.87-3-3.39-6.2-4.32-9.79-4.6-5.83-.45-7.19-1.73-8.84-7.94Z" transform="translate(0 -85.04)"/><path d="M169.77,298.27c-.09-5.54,3.79-9.59,9.3-9.54a17.89,17.89,0,0,1,4.32.76q7.47,2,14.91,4.09a20.34,20.34,0,0,1,4.13,1.57,16.05,16.05,0,0,1,3.83,2.85c.42.43-3.25,1.85-5.35,1.66a104.68,104.68,0,0,1-20.49-4.34c-1.46-.44-3.13-.2-4.71-.27-.41,2.54,1.91,2.85,3.27,3.87,2,1.5,4.08,2.39,6.43.39.48-.41,1.74-.23,2.47.07a7.13,7.13,0,0,1,2.68,1.9c1,1.23,2.75,3.42,2.39,3.92-1,1.48-2.94,3.08-4.6,3.18a5.37,5.37,0,0,0-3.22,1.18c-1.07.77-2.78,1.53-3.89,1.21C175.82,309.22,169.76,304.67,169.77,298.27Z" transform="translate(0 -85.04)"/><path d="M364.11,384.73c-2.14-.42-3-2-3.35-3.91a53,53,0,0,1,.73-24.73c1.41-5,2.23-10.09,3.26-15.16a30.06,30.06,0,0,1,8.53-15.77c2.75-2.74,5.21-6.05,5.47-10.59.14-2.6,1.68-5.29,3.1-7.62a8,8,0,0,1,9.21-3.41c.78.26,1.83,1.08,1.9,1.74a5.53,5.53,0,0,1-1,2.94c-.21.39-.92.61-1.45.73-5.05,1.2-7.18,5.3-8.34,9.55a28.47,28.47,0,0,1-7.28,12.16,24.71,24.71,0,0,0-6.3,12.15c-2,9.37-3.66,18.82-5.39,28.25a13.56,13.56,0,0,0,.09,3.3q.3,5.26.62,10.52Z" transform="translate(0 -85.04)"/><path d="M276.24,290.55a36.36,36.36,0,0,1-5-2.54c-1.56-1.1-1.15-2.75.62-3.31a6.57,6.57,0,0,1,1.63-.29c6.66-.3,12.4-3.42,18.29-6,1.13-.5,1.95-1.66,3-2.39,2.27-1.56,4.57-3.07,6.92-4.52.37-.23,1.34-.2,1.44,0a3,3,0,0,1,.35,2c-.88,2.87-3.3,4.42-5.65,5.85-4.87,3-9.84,5.77-14.78,8.63-1.12.65-1.17,1.44-1,2.74.78,5.91-.45,7.21-6.42,7.16-3.89,0-7.79-.16-11.69-.31a4.46,4.46,0,0,1-2.61-.61c-2.57-2.38-5.47-1.61-8.37-1.15-.9.14-1.9.74-2.64.49s-1.52-1.27-2.26-2c.7-.36,1.45-1.09,2.1-1,3.88.49,7.58-.21,11.37-.95C266.46,291.43,271.45,291.12,276.24,290.55Z" transform="translate(0 -85.04)"/><path d="M289.55,326.59c2.67-2.61,5.17-5.06,7.7-7.49,1.22-1.17,2.56-.83,2.85.74,1.12,6.07-2,11.27-8,13.55-.51.19-1.29.44-1.61.2-3.55-2.51-6.09.56-9.11,1.36a16.22,16.22,0,0,1-8.15.2,8,8,0,0,0-6.74.81c-3.27,1.83-5.38,1.4-6.73-1-.38-.67-.56-2.05-.17-2.45,2.73-2.75,5.6-5.36,8.54-7.88.23-.2,1.46.51,2,1,.3.28.08,1.06.14,1.62.51,4.31,1.33,4.83,5.11,2.94a25.45,25.45,0,0,0,9-7.37,32.46,32.46,0,0,1,2.56-2.69c.68,1.2,1.46,2.36,2,3.61A14.58,14.58,0,0,1,289.55,326.59Z" transform="translate(0 -85.04)"/><path d="M229.26,300.8c2,.11,4,.26,5.92.31,3,.08,5.94.09,8.9.13,1.5,0,3.57,0,3.44,1.79-.08,1.29-1.73,3.41-2.87,3.55-8.17,1-16.49,2.82-24.41-1a6.57,6.57,0,0,1-3.41-3.9c-.37-2,1.07-3.87,3-4.87,4.78-2.45,9.51-5,14.42-7.17a12.44,12.44,0,0,1,5.92-.72,2.43,2.43,0,0,1,1.58,4.16,17.7,17.7,0,0,1-5,3.38c-2.46,1.18-5.09,2-7.65,2.94Z" transform="translate(0 -85.04)"/><path d="M209.88,335.19a16.2,16.2,0,0,1,1.38-2.52c2.43-3.31,6.2-3.95,9.85-4.34a22.81,22.81,0,0,1,6.57.78c2.36.47,2.93,2.06,1.63,4s-2.29,5.52-1.74,7.82c1.1,4.56-1.15,7.85-3.69,11.12-.33.43-.76,1-1.21,1.09a25,25,0,0,0-11.42,5.1c-.39.29-2-.53-2.63-1.24s-1.14-2.3-.76-2.83a49.64,49.64,0,0,1,6-7.14c1.1-1.06,1.94.44,2.4,1.4,1,2,2,1.88,3.17.23q2.5-3.65,4.87-7.39a6,6,0,0,0,.42-1.9c-.89-.07-2.08-.54-2.63-.14a10.18,10.18,0,0,1-5.46,2.35c-1.58.11-3,1.33-4.66-.06S209.8,338.72,209.88,335.19Zm10.28-2.52a37.91,37.91,0,0,0-5.45,1.39c-.59.24-.8,1.38-1.18,2.11l5.3,2.54a20.68,20.68,0,0,1,.17-2.85A26.32,26.32,0,0,1,220.16,332.67Z" transform="translate(0 -85.04)"/><path d="M75.22,306.58a25.18,25.18,0,0,1,2.91.49c4.5,1.25,5.52,3.76,3.18,7.86-.84,1.48-3,2.63-1,4.71-.88,5.13-2.41,7.47-7.65,6.11-2.48-.64-5-1.23-7.46-1.82a7,7,0,0,1-4.5-10.23c2.65-4.59,7.21-6,12-6.94A20.58,20.58,0,0,1,75.22,306.58Zm-.91,7.95c-.38-.26-.81-.8-1.24-.8a8.27,8.27,0,0,0-3.15.42c-1.36.56-3.85-.32-3.83,2.07,0,2.2,2.61,1.45,3.88,2.34a2.44,2.44,0,0,0,2.33-.42A19.61,19.61,0,0,0,74.31,314.53Z" transform="translate(0 -85.04)"/><path d="M413.24,127.55c-3.24-2.8-4.69-5.3-4.77-8.7a6.61,6.61,0,0,1,4-6.68c2.85-1.41,5.29-1.17,7.59,1.12,1.85,1.84,4.29,2.69,6.59,3.86a33.55,33.55,0,0,1,13.51,12.91c.83,1.38,1.51,2.76,0,3.92a3.52,3.52,0,0,1-4.61,0c-2.47-2-4.8-4.11-7.38-5.93-3.77-2.66-7.65-5.19-11.6-7.59-1-.58-2.86-1-3.46-.46s-.75,2.33-.76,3.57A20.57,20.57,0,0,0,413.24,127.55Z" transform="translate(0 -85.04)"/><path d="M160,305.75a49.52,49.52,0,0,1-5.95.31,18.86,18.86,0,0,1-5.3-1.13c-1.56-.58-1.75-2.12-.77-3.63,2.13-3.27,2.07-4.13-.54-6.21-1-.79-2.12-1.44-3.1-2.27-1.49-1.28-1.46-2.76-.69-4.51.67-1.52,1.57-2,3-1.45,6.09,2.19,12.15,4.45,18.25,6.57a1.92,1.92,0,0,1,1.41,2.54c-.52,2.38-1.84,4.45-1.25,7.23C165.48,305.06,162.65,306.44,160,305.75Z" transform="translate(0 -85.04)"/><path d="M144.29,376.42c.41,1.75-.39,3.46-1.72,5.2s-2.65,2.64-4.54,1c-1.26-1.08-1.78-.27-2.61.57-3.32,3.37-3.46,3.46-7.44,1.46-1.25-.63-1.37-.06-2,.65s-2.26,1.79-2.64,1.53c-2.92-2-4.73-.18-6.64,1.56-.13.12-.36.26-.5.22-1.3-.36-2.7-1.24-3.86-1-1,.22-1.7,2.32-3.14,1.45-1.75-1.08-2.53-.32-3.65.88-.65.7-3.52-.6-3.5-1.57a2.83,2.83,0,0,1,1.34-2.07,19,19,0,0,0,9.8-10,4.25,4.25,0,0,1,1.44-1.66,3.92,3.92,0,0,1,2-.66c.19,0,.57.89.62,1.39.13,1.29.15,2.59.19,3.89.11,4,.2,4.33,4.26,3.28,3.39-.88,6.91-1.44,10.06-3.33,3.33-2,6.95-3.51,10-6.07.6-.52,1.69-.46,2.56-.67,0,.8.07,1.61.09,2.41C144.3,375.25,144.29,375.62,144.29,376.42Z" transform="translate(0 -85.04)"/><path d="M472.41,235.34c.07-4.18-.54-8-3.79-11.19-1.91-1.88-2.17-4.59-1.58-7.3a4.82,4.82,0,0,0-.12-3c-2.23-4.22-4.71-8.31-6.93-12.54a10.21,10.21,0,0,1-1-4.23c-.11-3.89.13-7.8,0-11.7a8.63,8.63,0,0,1,2.23-6.07l-.16.11c2.06,2.53,2.5,5.51,2.45,8.63,0,2-.07,4.08-.26,6.11-.51,5.56,1.93,10,5.15,14.2,2.6,3.38,4.56,6.93,4.54,11.43a7.59,7.59,0,0,0,1.72,4.5c3.42,4.09,3.2,8.79,3.06,14.18l-5.45-3.33Z" transform="translate(0 -85.04)"/><path d="M52,367.62c3.1.85,5.84-.44,8.64-1.34,2.4-.77,2.41-.76,2.63,2.09,0,.5,0,1,0,1.8.88-.27,1.57-.42,2.22-.68,2-.82,3.5-.6,4.32,1.81s.66,3.48-1.43,4.61c-2.44,1.33-5,2.44-7.91,2.28-2.42-.14-4.38-.44-4.74-3.48a3.16,3.16,0,0,0-2.23-1.9c-4.33-.73-7.23-4.2-11.2-5.57a3.22,3.22,0,0,1-1.2-1.13c-1.59-2-.92-4,1.62-4.51,3.27-.63,6.57-1.08,9.86-1.53,1.12-.16,2.42-1.49,3.34.4,1.14,2.34,1.09,4.26-.54,5.56A15.09,15.09,0,0,1,52,367.62Z" transform="translate(0 -85.04)"/><path d="M154.49,346.22a38.69,38.69,0,0,0-1.2,5.36c-.19,2.14-.67,3.38-3.25,3.24-2.07-.11-1.69,2.2-2.14,3.4-.81,2.18-1.45,3.81-4.22,2.47a1.79,1.79,0,0,0-1.6.65c-.78,3.33-2.58,4.44-6,3.76-1.11-.22-2.53,1.29-3.86,1.9a3.62,3.62,0,0,1-3.65-.08c-2.92-1.79-3-1.73-5.87-.38a2.5,2.5,0,0,1-1,.4,7.61,7.61,0,0,1-1.53-.33c.14-.48.12-1.15.43-1.41,3-2.45,5.91-4.86,10.19-5a10.4,10.4,0,0,0,6-2.37c2.6-2.28,4.45-5.41,7-7.78a111.39,111.39,0,0,1,9.43-7.45c.18-.14,1.37.51,1.4.84a11.65,11.65,0,0,1-.42,2.71Z" transform="translate(0 -85.04)"/><path d="M78.63,357.1l2.45-4.19c-3.13-2.37-6.5-2.15-9.93-.73-2.16.89-2.5,2.16-.92,3.74A17.17,17.17,0,0,0,78.64,361,2.31,2.31,0,0,1,80,362.27c.09.2-.56.93-1,1.17-3.78,2-8.46,1.12-12-2.2a9.25,9.25,0,0,1-2-10.6,6.58,6.58,0,0,1,2-2.53c4.66-3.29,13.33-3.29,18-.13,1.36.92,2,3.3.42,5.44s-.82,2.73.65,3.87a4.89,4.89,0,0,1,1.74,2.11c.36,1.14.8,2.9.23,3.56-1.26,1.46-2.14-.42-3.06-1.08C82.81,360.4,80.82,358.79,78.63,357.1Z" transform="translate(0 -85.04)"/><path d="M122,348.24c-2.51-1.07-6-2-8.78-3.88-4.2-2.82-4-7.72.07-10.67,5.42-4,11.24-5.42,17.66-2.62,3.71,1.61,4.63,4.07,3.06,7.93-.28.68-.59,1.36-.85,2.05-.71,1.86-.89,4.68-2.21,5.38C128.63,347.66,125.63,347.6,122,348.24Zm2.46-12.53c-4.25,0-7.75,1.51-8.24,3.34s2.66,5.14,5.61,6.13c1.48.5,3.21.78,4-.74a37.86,37.86,0,0,0,2.39-7.06c.08-.29-1-1.08-1.6-1.31A8.24,8.24,0,0,0,124.45,335.71Z" transform="translate(0 -85.04)"/><path d="M109.58,297.82c-.64-.36-1.28-.73-1.93-1.07-.87-.45-2.47-.84-2.5-1.34a5.21,5.21,0,0,1,1-3.51c3.85-4.32,12.69-5.77,17.85-3.13,3.17,1.62,3.69,2.81,3.48,6.78a6.35,6.35,0,0,0,1.12,2.87c1.52,2.83,1.26,5-1.35,6.64-2.3,1.41-4.5,3.46-7.56,2.83-.8-.16-2.13-.73-2.17-1.19-.29-3.81-3.65-4.76-5.93-6.72a30.13,30.13,0,0,1-2.19-2.32l11.42,4.71c-3-3.58-3.09-3.87-1.22-6.47a33.17,33.17,0,0,0,1.78-3.07,21.19,21.19,0,0,0-3.71-.74,16.43,16.43,0,0,0-4.37.44C109.78,293.38,109.79,293.44,109.58,297.82Z" transform="translate(0 -85.04)"/><path d="M378.88,355c.39-1,.55-1.37.64-1.73.34-1.46.78-3.38,2.57-2.79.92.3,1.62,2.4,1.71,3.73.11,1.61-.57,3.26-.82,4.91-1,6.55-2,13.1-2.94,19.67-.29,2.09-.83,3.13-3.13,1.9-.7-.38-1.75-.09-2.63-.16-1.66-.15-2.19-1.25-2.08-2.71q1-12.7,2-25.42a6.52,6.52,0,0,1,.81-1.9,9.39,9.39,0,0,1,2.07,1.36A20.1,20.1,0,0,1,378.88,355Z" transform="translate(0 -85.04)"/><path d="M184.74,365.33c2.47-4,4.88-7.9,7.4-11.78a2.67,2.67,0,0,1,1.76-.71c.15,0,.56.89.6,1.39.34,5.26-1.14,9.9-5.08,13.52-.64.6-2.36,1.07-2.78.69-1.79-1.59-2.84-1.05-3.83.74a4.72,4.72,0,0,1-4,2.48c-2.75.37-5.37,1.6-8.09,2.24a8.84,8.84,0,0,1-4.15.1c-1.4-.39-1.89-1.71-1.14-3.15.25-.49.7-.87,1-1.34,3-5,8.81-5.59,13.38-8C182.75,360,183.53,361.16,184.74,365.33Z" transform="translate(0 -85.04)"/><path d="M190.48,337.69c.13-.05-.57.2-1.24.51a23.88,23.88,0,0,1-4,1.81c-4.19,1-9.1-1.76-10.76-5.93a4.21,4.21,0,0,1-.22-1.62c.13-3.92,4.5-8.81,8.41-9A65.37,65.37,0,0,1,192,324a6.29,6.29,0,0,1,3.05,1.24c2.24,1.73,3.25,3.87.39,5.77-1.92,1.28-1.75,2-.75,3.8C195.88,336.89,194.52,338,190.48,337.69Zm-1.09-8.33c-2-.38-3.67-.74-5.31-1s-5.13,1.72-5.32,3.12c-.29,2.19,2.13,2.23,3.08,3.48a1.43,1.43,0,0,0,1,.45c1.29.05,2.73.34,3.82-.13.61-.27.55-1.9,1-2.84A31.6,31.6,0,0,1,189.39,329.36Z" transform="translate(0 -85.04)"/><path d="M91.57,330c1.56,5.52,1,6.62-4.65,6.73-3.8.07-7.52,1.94-11.37.45a46.53,46.53,0,0,0-16.12,7.42c-.52.39-.65,1.49-.69,2.27s.44,1.43.44,2.14a28.6,28.6,0,0,1-.4,3.17c-1.17-.73-2.69-1.2-3.42-2.24-1.62-2.32-1.09-6.72,1.12-8.66,5-4.4,10.35-8.24,17.7-7.07.94.15,2-.56,3-1,4.65-1.88,9.35-3.52,14.49-3.1Z" transform="translate(0 -85.04)"/><path d="M72.28,300.34a6.4,6.4,0,0,1-.81.78,19,19,0,0,1-3.21,2,3.06,3.06,0,0,1-3.94-1.15,4.13,4.13,0,0,1,0-5.15,2.79,2.79,0,0,1,3.91-.83,4,4,0,0,0,5.11-.47,2.86,2.86,0,0,1,2.43,0,22,22,0,0,1,4.33,2.44c1.12.83,1.73.35,2.13-.56.83-1.9,2-2,3.46-.81,1.9,1.45,3.85,2.83,5.67,4.36a11.48,11.48,0,0,1,2,2.58c.85,1.34,1.27,3.14-.15,3.94-1,.55-2.77,0-4-.5-1-.39-1.65-1.46-2.4-2.28s-1.55-1.29-2.8-.48c-3.84,2.51-7,.93-9.92-1.86C73.51,301.68,72.9,301,72.28,300.34Z" transform="translate(0 -85.04)"/><path d="M32.52,338c-1.6-3.3-2-6.45,1.12-9.18l.32-1.69c3.34-1,6.69-2.21,10.26-1.38a19,19,0,0,1,5.14,1.78c2.16,1.24,2.6,2.92,1.1,5.09-1.15,1.66-1.35,2.86-.07,4.35a1.89,1.89,0,0,1,.5,1c0,1.41.58,3.39-.13,4.11-1.3,1.33-2.54-.35-3.68-1.21S45,339.34,44,338.6c-3.14-2.23-3.22-2.87-.75-6.76-1.8-1.29-3.41-.32-5,.41-3,1.39-3.16,2.31-.45,4.52,1,.78,2,1.53,1.14,2.57a3.29,3.29,0,0,1-2.91.85,15.24,15.24,0,0,1-3.62-2.37Z" transform="translate(0 -85.04)"/><path d="M116.82,272.77c5.83,1.32,11.38,2.45,16.86,3.88a13.27,13.27,0,0,1,7.9,5.68c.3.46.94,1,.87,1.38a20.22,20.22,0,0,1-1.32,4.52,9.24,9.24,0,0,1-2.92-.78,5.39,5.39,0,0,1-1.75-1.34c-5.33-5.68-12.48-6.66-19.63-7.37-3.11-.31-6.28.13-9.43.12a6,6,0,0,1-2-.81c.5-.66.88-1.66,1.54-1.91C110.22,274.91,113.52,273.87,116.82,272.77Z" transform="translate(0 -85.04)"/><path d="M91.71,330.15c-1.71-2.42-2.06-4.79.48-6.86,1.49-1.21,1.66-2.65,1.52-4.45-.24-3,1.28-4.89,4.26-5.57,1.43-.33,2.83-.84,4.28-1,4.9-.72,9.82-1.33,14.73-2,.55-.08,1.1-.18,1.65-.21,2.2-.11,4.44,1,4,2a6.87,6.87,0,0,1-2.79,2.29,12.47,12.47,0,0,1-10.18,1.12c-4.29-1.47-7.49.36-12.16,1.8,3.66,1.2,6.26,2,8.85,2.93.29.1.7.6.64.79-.14.46-.45,1.1-.82,1.21a16.42,16.42,0,0,1-3.68.65c-2.37.12-4.08,1.31-5.8,2.81s-2.43,2.76-.22,4.38a1.32,1.32,0,0,1,0,1.29,1.72,1.72,0,0,1-1.45.43A35.75,35.75,0,0,1,91.57,330Z" transform="translate(0 -85.04)"/><path d="M69.21,281.08c6.21-4.84,12.83-3.39,19.44-1.17a10.9,10.9,0,0,1,3.24,2c3.26,2.65,3.21,2.65,6.52-.25a40,40,0,0,1,4-3c.32-.21.9,0,1.35,0,0,.53.19,1.28-.09,1.56-2.35,2.32-4.53,5-7.28,6.68-1.72,1.06-2.7,4.06-5.38,3a35.83,35.83,0,0,1-5.15-3.09,18.36,18.36,0,0,0-12.06-2.63c-3.08.38-3.09.33-4.38-3.25Z" transform="translate(0 -85.04)"/><path d="M246.09,342.46c-2.52-2.18-3.52.74-5.13,2s-3.23,2.44-4.74,3.78c-1.2,1-2.24.31-2.88-.38a3.52,3.52,0,0,1,.29-5.18c2.28-2.43,4.61-4.83,7.06-7.1a3.55,3.55,0,0,1,2.28-.23c.71,3.23,1.95,1.34,3.08.36,2.64-2.3,5.26-4.63,7.93-6.91,1.17-1,2.11-1.23,2.91.62,1.74,4,1.62,5.34-1.33,8.4C252.35,341.18,249.62,342.57,246.09,342.46Z" transform="translate(0 -85.04)"/><path d="M34,327.08l-.32,1.69a9.3,9.3,0,0,1-2.2.29c-2.91-.28-3.94-1.84-2.88-4.45a12.8,12.8,0,0,1,7.79-7.46,29.42,29.42,0,0,1,14.74-1.32c3.07.5,4.09,1.9,3.9,4.92-.15,2.33-.87,3-3.22,2.24-3.87-1.22-7.56-.69-11.44.08A10.91,10.91,0,0,0,34,327.08Z" transform="translate(0 -85.04)"/><path d="M323.36,317.33c-2.18,1.7-4.29,3.52-6.59,5.06-.74.49-2.48.71-2.87.27a7,7,0,0,1-1.1-3.4,2,2,0,0,1,.69-1.46c2.75-2.45,5.44-5,8.4-7.2,1.82-1.34,2.87-.55,3,1.89.06.87,0,1.75,0,2.52,3.29-1.84,6.3-3.59,9.38-5.21a5.08,5.08,0,0,1,2-.13,15.82,15.82,0,0,1-.09,2.39c-.66,3.9-3.61,5.75-6.69,7.57C325.71,321.89,325.27,321.78,323.36,317.33Z" transform="translate(0 -85.04)"/><path d="M490.27,151.74c-4.33-.78-8.1-1.32-11.81-2.17-3.53-.81-7.28-1.23-10.61-4.2,3.42-1.3,6,.63,8.78.86,5.32.44,10.6,1.43,15.89,2.18a44.47,44.47,0,0,1,4.92.7,9.79,9.79,0,0,1,2.56,1.55c-.62.62-1.12,1.48-1.86,1.82-7.34,3.29-15.19,4.48-23.09,5.43-.36,0-.86.14-1.09,0a18,18,0,0,1-1.67-1.71c.53-.41,1-1.07,1.6-1.17,4.9-.87,9.83-1.62,14.74-2.44A8.38,8.38,0,0,0,490.27,151.74Z" transform="translate(0 -85.04)"/><path d="M101.49,371.07c-.36,1.16-.51,3-1.46,4.23-.74,1-2.5,1.12-3.74,1.75-1.91,1-4.09,1.73-5.56,3.18s-2.5,1.09-3.91.56a2.85,2.85,0,0,1-2-3.51,12.28,12.28,0,0,1,5.33-8.06,14.82,14.82,0,0,1,3.5-1.47,1.5,1.5,0,0,1,1.29.39,4.55,4.55,0,0,1,.54,1.53,8.2,8.2,0,0,1,.49-1.34,20.42,20.42,0,0,1,1.78-2.77,13.37,13.37,0,0,1,1.91-1.67,16.34,16.34,0,0,1,.92,2.37C100.94,367.69,101.15,369.15,101.49,371.07Z" transform="translate(0 -85.04)"/><path d="M428.71,248.69c0,1.21,0,1.95,0,2.69a2.38,2.38,0,0,1-2.65,2.25c-.63,0-1.59-1.37-1.78-2.26-.47-2.21.37-4.58-2.47-6.19-2-1.11-3.68-2.21-6-2.33a23.43,23.43,0,0,1-4.86-1c-2.64-.7-3.06-1.69-2.45-4.38.37-1.59,1.08-2.2,2.68-1.92,1.8.31,3.61.63,5.44.78C423.15,236.89,428.59,242.62,428.71,248.69Z" transform="translate(0 -85.04)"/><path d="M336.75,390c.65-2.07.87-3.79,1.68-5.16,1.37-2.32,3.64-4,6.34-3.82,3.08.22,6,2,6.66,5.07.61,2.65,2,3.58,4.11,4.55a22.28,22.28,0,0,1,4.5,3.18,1.63,1.63,0,0,1,.37,1.48c-.15.38-.83.66-1.32.76a5.89,5.89,0,0,1-6.51-3.25c-1.6-2.89-4.32-3.31-6.89-4.09-2-.61-2.84.41-3.22,3.13a10.55,10.55,0,0,1-.52,1.49c-.41,1.29-1.23,2.07-2.32.89A32.55,32.55,0,0,1,336.75,390Z" transform="translate(0 -85.04)"/><path d="M144.62,311.59a3.85,3.85,0,0,1,.44.91c.34,1.74.63,3.49.94,5.23,1.62-.29,3.25-.54,4.87-.89,1.45-.31,1.94.34,2.12,1.7.48,3.6-.24,4.7-3.91,5.17-1.21.16-2.78.24-3.69-.37-3.1-2.1-6.18-3-9.86-1.64-.88.31-2.23-.22-3.18-.71a16.88,16.88,0,0,1-2.78-2.26,21.13,21.13,0,0,1,3-2C136.57,315,140.6,313.29,144.62,311.59Z" transform="translate(0 -85.04)"/><path d="M22.58,358.11c3.19,4.56,7,6.17,11.75,5.35a2.84,2.84,0,0,1,1.64.14,2.08,2.08,0,0,1,.81,1.21c.06.18-.39.75-.6.75-4.78,0-9.61.34-14.31-.3-2.91-.39-3.84-3.12-2.7-5.71.36-.8.7-1.21-.28-1.63s-2.25-1-3.33-1.56a10.61,10.61,0,0,1-1.58-1.2c.49-.52.89-1.29,1.5-1.51,3.81-1.37,7.66-2.64,11.52-3.88a1.44,1.44,0,0,1,1.92,1.78C28.21,354.85,26.55,357.34,22.58,358.11Z" transform="translate(0 -85.04)"/><path d="M154.25,369.88c1-1.33,1.34-1.76,1.65-2.22.75-1.07,1.92-2.69,2.93-1.38,1.21,1.56,4.11-.21,4.36,2.94.19,2.27.78,4.4-1.27,5.95a4.68,4.68,0,0,1-5.72-.09c-1.75-1.27-2.41-1.25-3.77.64-1.55,2.16-4.14,1.27-4.94-1.34-1-3.31,1.59-8.41,4.95-9.49a1.78,1.78,0,0,1,1.52.9C154.25,366.62,154.13,367.59,154.25,369.88Z" transform="translate(0 -85.04)"/><path d="M32.37,337.82A18.26,18.26,0,0,0,45.58,349.1a5.88,5.88,0,0,0,1.11.11c1.79.12,4-.1,4.41,2.1.09.48-2.48,1.7-4,2.2A10.33,10.33,0,0,1,36,351.05c-1.33-1.25-3-2.1-4.39-3.33-3.87-3.49-3.55-6.45.93-9.77Z" transform="translate(0 -85.04)"/><path d="M461.2,179.34c-5.24-2-5.28-2.06-1.4-5.71,3.17-3,5.89-6.16,6.69-10.63.35-2,.92-4.61,3.35-4.06,2.2.49,1.32,3.19,1.18,4.93-.46,5.33-2,10.16-6.94,13.2a32.79,32.79,0,0,0-3,2.38Z" transform="translate(0 -85.04)"/><path d="M119.29,362.79a6.35,6.35,0,0,1-4.83,2.79c-2.52.2-5.31.09-6.32,3.45a2.85,2.85,0,0,1-2.62,1.1c-1-.37-2.49-1.59-2.47-2.42a11,11,0,0,1,1.47-5.74,21.84,21.84,0,0,1,5.28-4.84c1.13-.84,2.49-.82,2.94,1,.17.72.39,1.43.54,2.15.45,2.07,1.51,2.85,3.66,2C117.5,362.15,118.31,362.59,119.29,362.79Z" transform="translate(0 -85.04)"/><path d="M17.91,333.6c2.72.27,6.19.6,9.65,1,.43.05.87.57,1.16,1a.94.94,0,0,1-.32.88A98,98,0,0,1,18,340.89c-1.55.48-3.55-.19-5.29-.58-1.58-.35-2.9-1.66-2.41-3.15a6.88,6.88,0,0,1,3.08-3.45C14.34,333.16,15.88,333.6,17.91,333.6Z" transform="translate(0 -85.04)"/><path d="M385.05,380.66c4.9-.17,12.22,5.62,13.2,10.79.16.88-.64,1.94-1,2.91-.88-.4-2.17-.55-2.56-1.23-1.38-2.37-3.46-3.66-5.77-4.93a76.2,76.2,0,0,1-7.68-5.09,2,2,0,0,1,.44-1.59A19.58,19.58,0,0,1,385.05,380.66Z" transform="translate(0 -85.04)"/><path d="M471.06,244.49l-1.38-3.31c-1.71-2.85-3.43-5.69-5.12-8.56a6,6,0,0,1-1.16-2.45,17.36,17.36,0,0,1,.56-3.67,12.38,12.38,0,0,1,3,1.93c1.93,2.2,3.63,4.59,5.43,6.91l-.16-.17c.81,2.76,1.75,5.49,2.35,8.3.18.82-.62,1.85-1,2.78Z" transform="translate(0 -85.04)"/><path d="M0,344.73a7.05,7.05,0,0,1,.15-1.85c.65-1.26,1.37-2.49,2.06-3.73A17,17,0,0,1,4.34,342c1.68,3.66,3.53,7,8.21,7.28a3.06,3.06,0,0,1,.43,1.62,23.65,23.65,0,0,1-5.46,2.47A4.68,4.68,0,0,1,4,352.26C1.55,350.13.74,347.05,0,344.73Z" transform="translate(0 -85.04)"/><path d="M83.87,370.12c0,2.84.12,4.86,0,6.86-.22,2.9-1.76,4.13-4.43,3.23-1.79-.6-3.24-1.27-5.13-.16a2.62,2.62,0,0,1-3.76-1.31c-.78-1.54,0-2.89,1.25-3.86,1-.78,2.14-1.45,3.24-2.13s1.73-.31,2.08.81.74,1,1.5.34a23.75,23.75,0,0,1,2.23-1.6Z" transform="translate(0 -85.04)"/><path d="M206.58,352.19c.31,4.43-2.66,7-5.54,9.57-.57.51-1.74.46-2.63.44-2.3,0-3.09-1.32-1.77-3.15,2.27-3.1,4.72-6.08,7.19-9a2.2,2.2,0,0,1,1.88-.67c.43.13.64,1.11.85,1.75A3.6,3.6,0,0,1,206.58,352.19Z" transform="translate(0 -85.04)"/><path d="M448.9,155.26c.06-3.21,1.79-6,3.81-6s4.89,3.38,5.06,5.92c.13,2-2.55,4.34-4.89,4.32C450.2,159.42,448.85,158,448.9,155.26Z" transform="translate(0 -85.04)"/><path d="M137,305.28c.81,5.76.18,7-4.51,9.35-1.27.64-2.36,1-3.53,0-.91-.78-1.79-1.59-2.69-2.39a29.8,29.8,0,0,1,2.87-2.3C131.77,308.32,134.45,306.79,137,305.28Z" transform="translate(0 -85.04)"/><path d="M309.91,316.17a11,11,0,0,1-1.84,7.95,3.15,3.15,0,0,1-2.61,1.26,3.36,3.36,0,0,1-1.64-2.49c-.33-3.5,1.41-6.37,3.41-9,.37-.49,1.64-.42,2.47-.35.18,0,.29,1.18.35,1.82A2.45,2.45,0,0,1,309.91,316.17Z" transform="translate(0 -85.04)"/><path d="M69.4,280.9c-1.66-.18-2.33.94-2.73,2.21-.71,2.28-1.25,4.6-2,6.87a2.77,2.77,0,0,1-1.31,1.63c-.31.14-1.22-.57-1.54-1.1a7.79,7.79,0,0,1,2.4-10.14,10.39,10.39,0,0,1,2.93-1.49c2-.57,2.08.8,2,2.2Z" transform="translate(0 -85.04)"/><path d="M91.71,386.93c-1.44.16-3,0-4.29.56-2.29,1-3.5.08-4.42-1.76-.36-.72-.82-1.92-.5-2.34.59-.77,2-1.79,2.59-1.56a32.33,32.33,0,0,1,6.16,3.23c.38.24.2,1.35.28,2.06Z" transform="translate(0 -85.04)"/><path d="M12.55,319.64l1.75-.09,3.42-.87a10.81,10.81,0,0,1-.23,3.14c-1.25,3.25-2.8,4.3-4.7,3.47S10.94,323.28,12.55,319.64Z" transform="translate(0 -85.04)"/><path d="M91.53,387.12c2.39-.78,4.77-1.64,7.2-2.3.44-.11,1.53.52,1.56.87a3.69,3.69,0,0,1-4.75,3.9c-1.46-.47-4.06.36-3.83-2.66Z" transform="translate(0 -85.04)"/></svg>