<svg width="400" height="400" viewBox="0 0 105.833 105.833" xmlns="http://www.w3.org/2000/svg"><path style="fill:#000;stroke-width:.174605" d="M144.945 24.229c-5.046.1-10.07.845-14.944 2.146-8.337 1.694-16.532 4.014-24.826 5.902-7.597 2.116-15.84 2.737-22.923 6.565-3.115 1.67-5.953 3.986-7.794 7.043-1.029 1.693-2.009 3.436-2.755 5.27-1.01 2.956-1.937 5.96-2.503 9.031-.495 7.965-.15 15.963.771 23.883.555 6.975-.068 14.03-.74 21.012-.21 1.94-.127 3.948-.52 5.834-.426 2.722-1.247 5.504-1.516 8.297-.37 8.926-1.852 17.998-.287 26.917.257 2.986 2.01 5.527 3.353 8.117 3.28 5.52 8.823 9.255 14.573 11.843 2.51 1.182 5.228 1.858 7.668 3.198 4.26 2.193 8.248 4.918 12.719 6.692 7.666 3.125 16.218 3.35 24.31 2.084 6.292-1.27 12.58-2.859 19.024-2.077 9.206 1.276 18.007 5.324 27.418 5.55 3.749-.011 7.528-.088 11.205-.9 4.11-.878 8.101-2.38 11.731-4.5 5.471-3.277 10.039-7.893 15.726-10.836 2.895-1.81 6.1-3.369 8.249-6.113 1.822-1.338 3.399-3.081 4.275-5.18 2.308-3.998 3.095-9.12 3.465-13.322.314-5.359.31-10.754-.158-16.1-1.653-5.852-1.729-12.035-2.759-18.056-.377-8.07-.552-16.158-.164-24.23-.353-7.692-.337-15.412-1.227-23.069-2.32-7.08-3.26-10.59-8.442-15.474-5.22-4.709-12.052-7.054-18.764-8.712-5.586-1.211-11.193-2.176-16.743-3.503a124.396 124.396 0 0 1-13.53-3.94c-7.734-2.303-15.812-3.555-23.892-3.372zm1.69 2.316c6.513.06 13.085 1.14 19.305 2.833 3.488 1.046 6.936 2.233 10.443 3.222 5.535 1.606 11.169 2.887 16.88 3.683 3.99.846 7.86 1.729 11.635 3.128 4.318 1.58 8.413 3.975 11.497 7.43 3.66 4.079 5.467 8.995 5.975 14.06.094 1.417.434 2.804.783 4.169 1.76 15.177.457 30.566 1.183 45.838 1.166 7.188 2.816 14.382 2.422 21.678-.152 4.423-.259 8.84-.6 13.238-.828 3.557-1.772 7.344-4.355 10.139-1.198 1.287-2.342 2.644-3.781 3.68-4.437 3.353-9.846 5.24-13.987 9.017-5.25 4.397-11.207 7.985-17.924 9.557-2.819.669-5.732.835-8.618.682-7.109.34-13.877-2.213-20.67-3.9-3.615-.94-7.329-1.54-11.07-1.552-6.022-.51-11.925 1.102-17.768 2.301-5.978.95-12.246.749-18.123-.898-6.533-1.697-11.463-6.817-17.87-8.825-5.35-1.991-10.769-4.47-14.874-8.592-4.26-3.409-4.397-8.657-6.182-12.595-1.464-4.102-1.419-8.532-.973-12.777.35-3.62 1.064-7.2 1.34-10.836-.098-6.38 2.301-12.519 2.36-18.922.472-11.07.095-22.154-.413-33.216-.464-8.594.98-14.75 4.527-21.808 2.535-3.916 6.41-7.014 10.929-8.29 7.494-2.506 15.318-3.696 22.95-5.666 7.083-2.207 14.517-3.304 21.61-5.296 4.383-1.068 8.888-1.516 13.369-1.482zm1.111 22.642c-3.814.114-7.678.283-11.377 1.206-5.052 1.26-10.187 1.984-15.32 2.715-5.642.802-10.976 2.851-16.153 5.089-4.508 1.949-8.415 5.792-9.833 10.598-.692 2.342-.716 4.976.427 7.209 1.888 3.687 5.611 5.956 9.368 7.34 3.453 1.27 7.051 2.1 10.643 2.875 2.81.606 5.732 1.187 8.616.717 1.421-.232 2.733-1.428 2.555-2.942-.08-.673-.054-1.605-.604-1.986-5.591-3.874-12.883-3.982-18.614-7.607-1.615-1.022-3.366-2.658-3.16-4.749.2-2.023 2.238-3.284 4.143-3.44 2.597-.21 5.16.366 7.586 1.142 2.144.684 4.032 2.353 6.278 2.47 4.22.221 8.407-5.216 12.216-3.385 7.813 3.755 5.028 18.054 10.231 23.91.795.834 2.145 1.678 3.238.905 1.372-.97 1.637-2.812 2.053-4.337.348-1.273.787-2.529.95-3.857.35-2.875.902-9.845 2.484-12.41 1.312-2.131 4.18-3.154 6.471-2.187 5.1 2.154 12.403 2.585 16.829 1.558 2.137-.496 4.685-.711 6.417.798 1.09.95 1.249 2.584.627 3.872-1.301 2.698-4.143 4.106-6.804 5.072-2.254.818-4.556 1.522-6.955 1.796-2.8.32-5.947.62-8.134 2.601-1.005.91-1.157 2.58-.253 3.648 1.45 1.711 3.743 2.323 5.885 2.614 6.675.908 13.443-.691 19.544-3.443 4.12-1.858 8.18-4.066 11.202-7.502.857-.973.928-2.252 1.134-3.448.402-2.338-.285-4.733-1.31-6.811-.732-1.482-1.589-2.893-2.735-4.1-3.077-3.244-7.053-5.525-11.206-7.055-3.2-1.178-6.376-2.41-9.658-3.351-5.248-1.506-10.266-3.816-15.736-4.593-3.67-.52-7.344-1.042-11.045-.932zm50.842 25.303c.182.346-.314-.595 0 0zm-87.582 20.653c-7.094.256-14.034 4.048-17.935 9.99-2.723 4.146-2.59 9.335-2.981 14.134-.327 4.022-.298 8.148.55 12.093.885 4.115 1.732 8.714 4.66 11.738 4.79 4.943 12.073 7.763 18.94 8.226 4.463.301 9.117-1.282 12.916-3.644 4.262-2.651 7.743-6.746 10.078-11.19 1.835-3.492 2.267-7.595 2.75-11.51.116-.943.06-1.9.03-2.85.273-12.306-13.196 9.821-17.928 13.047-2.622 1.72-6.077 4.894-8.797 3.333-2.202-1.265-1.68-5.009-1.262-7.514.29-1.736 1.564-3.162 2.52-4.64.874-1.353 2.22-2.398 2.928-3.846.541-1.109 1.577-2.519.946-3.58-.565-.948-2.118-.699-3.22-.783-4.465-.344-8.936 1.65-13.386 1.146-1.904-.215-4.667-.02-5.475-1.758-.195-6.102 11.545-8.09 15.156-8.459 2.905-.336 5.81-1.014 8.44-2.284 3.238-1.562 9.196-2.032 9.173-5.704-.024-4.053-6.557-4.667-10.47-5.162-1.298-.165-2.589-.297-3.877-.55-1.233-.242-2.5-.274-3.756-.233zm69.65 3.46c-3.534.298-7.238 1.233-9.966 3.645-2.325 2.055-2.97 6.025-1.524 8.523 1.357 2.344 4.988 3.253 7.648 2.743 1.08-.206 1.981-1.2 2.475-2.182.58-1.154-.246-2.676.32-3.861.454-.949 1.86-.822 2.778-.698 3.053.41 5.166 3.599 5.43 6.378.236 2.494-1.64 5.123-3.707 6.536-3.15 1.962-9.378-1.019-10.158 3.53-.256 1.798 2.032 3.192 2.155 5.004.25 3.68.053 8.537-2.963 10.66-1.988 1.4-5.25.817-7.277-.527-3.57-2.964-1.014-8.271-3.137-11.71-2.241-3.63-5.606-10.083-9.57-8.503-3.002 1.196-1.247 6.456-.83 9.661.6 4.623 2.34 9.156 4.72 13.165.85 1.43 2.003 2.71 3.319 3.729 2.758 2.133 5.912 3.988 9.31 4.769 4.1.942 8.546.789 12.617-.27 4.116-1.072 7.99-3.276 11.272-5.981 1.618-1.335 3.061-2.997 3.956-4.894 2.717-5.757 3.92-12.344 3.829-18.709-.035-2.433-.86-4.812-1.669-7.108-.935-2.652-1.998-5.312-3.65-7.607-2.642-3.668-7.07-5.548-11.429-6.087-1.31-.162-2.635-.316-3.949-.205z" transform="translate(-37.329 -9.73) scale(.60872)"/></svg>