<svg width="400" height="400" viewBox="0 0 105.833 105.833" xmlns="http://www.w3.org/2000/svg"><path style="fill:#000;stroke-width:.640917" d="M398.553 122.28c-2.413-.052-4.601.012-6.455.179-11.843.828-19.525 2.732-27.897 6.914-12.066 6.135-12.222 16.19-12.209 30.922-.76 24.627-2.168 52.425-10.308 77.871-6.012 21.564-23.061 44.849-39.33 65.693-56.764 72.729-79.663 150.362-98.479 253.266-2.686 14.689-15.115 3.69-20.059-6.139-15.675-31.167-15.474-66.722-16.128-108.564-2.038-9.51-12.194-2.55-16.625 4.04-13.694 20.365-13.022 76.313-14.983 103.509-1.153 24.69.008 60.077 2.848 94.035 2.665 31.872 10.368 68.33 20.93 101.668 8.465 26.721 23.974 58.87 39.787 84.277 3.132 5.033 49.973 64.34 68.677 83.953 17.137 17.971 22.625 54.136 38.92 66.625 7.229 5.54 15.946 6.066 33.244 7.418v-.002c41.213 1.868 125.185 8.091 143.276-6.023 22.44-17.508 77.284-103.423 117.902-166.57 34.125-53.052 56.69-123.773 60.873-190.075 1.549-24.553 10.548-64.123 5.824-96.45-3.762-25.745-6.58-48.538-17.408-74.587-2.043-6.173-5.452-10.631-10.234-.02-15.316 34.095-19.382 68.896-31.364 105.3-1.864 7.404-2.72 9.28-7.183 15.714-3.776 5.443-4.928 6.28-6.217 4.526-9.113-45.329-13.441-100.031-31.701-148.856-17.117-43.126-37.232-83.572-65.57-123.199-13.844-25.312-35.894-47.334-42.055-80.756-5.443-29.524-9.713-57.121-11.916-82.353-1.39-15.93-29.274-21.954-46.16-22.317zm-7.82 3.741c22.873-.47 50.179 11.784 48.171 34.594-2.639 29.986 5.735 61.714 16.305 92.131 7.106 20.45 30.9 43.82 43.102 65.55 20.995 37.002 44.764 71.013 57.222 113.106 15.933 60.003 28.184 116 21.686 184.067-1.955 27.68-9.586 59.946-20.115 88.322-9.582 27.473-19.18 56.504-38.764 73.414-14.953 12.91-23.275 49.186 5.326 39.604 18.868-11.337 40.497-45.833 51.387-69.114 5.726-12.352 12.356-27.129 17.931-41.14 7.645-22.664 19.775-50.606 25.979-77.11 9.668-39.192 19.054-86.5 23.611-128.33.757-13.093 9.138 23.763 9.123 35.719-.036 32.696-3.217 73.785-7.41 107.318-8.017 62.986-28.345 128.307-69.168 180.078-28.064 40.78-35.47 52.34-65.603 99.582-4.201 8.315-22.76 48.316-32.327 52.057-42.6 16.662-106.048 2.24-156.94 3.076-8.969.148-4.186-26.328-16.733-48.254-27.832-48.633-58.698-69.232-93.373-121.08-21.28-31.817-31.78-66.65-41.872-104.484-7.71-28.91-16.095-63.62-16.1-97.514-.003-29.702-5.01-63.366-.107-95.134 1.04-6.735 2.152-49.979 6.112-25.864 2.527 15.865 3.19 32.67 4.765 49.256 2.269 23.868 3.287 36.262 4.84 41.98 3.817 14.049 5.01 28.939 8.696 44.223 11.75 45.812 24.723 89.235 48.642 130.748 12.641 16.324 33.516 57.133 58.717 58.256 9.723-.102 16.441-5.544 11.437-17.805-9.1-17.298-29.038-29.129-40.644-51.668-14.123-27.425-27.882-66.117-33.928-102.546-3.707-29.382-7.93-64.417-2.633-95.817 4.376-25.937 4.149-52.793 14.412-81.396 14.894-41.506 25.599-88.1 57.202-129.717 17.299-23.396 32.408-46.419 50.81-71.852 7.36-10.171 9.322-22.998 13.164-35.55 8.04-26.266 7.137-44.205 7.625-73.5-3.45-16.777 11.66-24.84 29.451-25.206zm40.253 259.397c-9.516 12.246-19.37 26.634-19.722 42.139-.614 26.964-8.314 32.25 12.699 35.93 8.57 1.715 16.286 6.845 23.238 12.142 2.838 2.162 5.194 4.948 7.297 7.83 2.39 3.275 4.124 6.989 5.941 10.613 2.67 5.325 5.277 10.71 7.272 16.323.716 2.016 1.172 4.117 1.674 6.197.904 3.748 1.688 7.525 2.41 11.312 1.361 7.14 2.642 14.302 3.621 21.504.525 3.862.846 7.749 1.207 11.63.272 2.924.61 5.847.723 8.782.18 4.714.1 9.437-.084 14.15-.297 7.589-1.03 15.154-1.645 22.723-.26 3.207-.422 6.427-.867 9.614-1.021 7.322-2.352 14.614-4.129 21.79-.618 2.496-1.575 4.896-2.266 7.372-.5 1.79-.73 3.66-1.357 5.41-2.077 5.798-4.573 11.521-7.906 16.701-3.023 4.698-5.707 10.54-10.815 12.803-27.895 4.053-33.912-4.825-37.37 25.883-.615 5.765-.821 11.673.122 17.394 1.975 11.97 3.588 25.305 11.444 34.55 2.665 3.139 6.945 4.745 10.943 5.728h.002c4.703-.1 9.531.524 14.1-.598 10.439-2.566 20.431-7.483 29.183-13.725 8.918-6.36 15.988-15.068 22.906-23.56 2.973-3.65 5.585-7.604 7.926-11.688 3.474-6.058 6.069-12.581 9.026-18.908.944-2.022 1.932-4.026 2.785-6.088.454-1.1.84-2.227 1.24-3.348.417-1.17.822-2.344 1.205-3.525 2.055-6.33 2.072-5.43 5.87-19.084 1.42-5.111 2.741-11.024 2.935-13.139.193-2.115.762-4.94 1.263-6.275 1.16-3.092 3.434-17.889 4.157-27.053.305-3.877.898-8.923 1.316-11.215.907-4.964.826-30.672-.125-39.712-.353-3.363-.774-8.277-.935-10.92-.7-11.454-1.086-15.863-1.6-18.268-.301-1.41-.87-6.168-1.262-10.574s-.984-9.02-1.316-10.254c-.333-1.234-1.069-4.984-1.635-8.332-1.579-9.34-5.221-20.449-8.291-30.541a46.408 46.408 0 0 0-.943-2.795c-1.798-4.793-3.74-9.537-5.871-14.191-.364-.796-.799-1.557-1.18-2.344-1.672-3.452-3.064-7.04-4.856-10.43-.871-1.649-1.88-3.222-2.86-4.809-4.929-7.972-9.469-16.237-15.184-23.666-2.36-3.066-5.138-5.79-7.838-8.562-3.936-4.04-7.809-8.182-12.178-11.748-4-3.264-8.5-5.862-12.768-8.766-.983-.669-1.924-1.407-2.959-1.994-11.722-3.54-15.519-13.898-24.543-2.408zm-80.091-3.098c-3.081.996-7.832 2.907-11.262 5.221-10.476 7.066-19.282 16.462-27.668 25.914-1.677 1.89-3.054 4.03-4.486 6.111-6.28 9.126-12.738 18.189-17.999 27.938-4.369 8.098-7.786 16.686-11.187 25.236-.922 2.317-1.798 4.657-2.494 7.051-3.58 12.314-6.114 24.916-8.61 37.494-1.917 9.668-3.574 19.394-4.884 29.162-.557 4.15-1.002 8.32-1.264 12.498-.587 9.384-.763 18.797-.684 28.2.092 10.797.074 21.642 1.334 32.367 1.817 15.456 5.368 30.678 8.948 45.824.459 1.943 1.056 3.85 1.605 5.77 1.266 4.43 2.275 8.948 3.893 13.261 5.17 13.784 10.804 27.554 18.5 40.104 12.58 21.717 48.339 47.257 69.097 42.433 2.436-.656 4.875-1.751 6.729-3.46 4.103-3.784 7.016-8.945 8.842-14.22 5.046-14.576 6.5-30.633 5.091-45.993-.725-7.917-1.1-17.385-6.89-22.833-5.267-3.928-11.13.188-16.352-.01-29.697-1.125-42.51-69.373-42.502-88.437.015-2.056-.315-4.104-.328-6.16.225-8.327.104-15.492 1.399-22.979 2.294-13.87 2.817-28.055 6.021-41.744.326-1.393.949-2.7 1.336-4.078.37-1.318.543-2.688.943-3.998a71.202 71.202 0 0 1 3.391-8.973c2.714-5.895 5.716-11.703 9.363-17.072 1.247-1.835 2.654-3.582 4.246-5.127 5.042-4.89 10.468-9.57 16.63-12.943 12.648-6.2 20.57-1.8 23.265-17.727 1.035-6.453-1.576-12.98-2.645-19.427-.66-3.987-1.204-8.016-2.326-11.899-1.392-4.82-3.57-9.376-5.431-14.035-.645-1.613-1.128-3.307-1.985-4.818-12.935-17.716-10.138-22.16-21.636-18.65zm-2.399 14.537c2.701-2.999 8.111 1.98 11.22 4.553 6.722 5.562 11 13.867 14.204 21.98 2.113 5.351 3.207 11.234 3.064 16.985-.07 2.796-.435 5.789-1.898 8.172-.566.92-1.53 2.59-2.484 2.082-1.82-.97.676-4.089.654-6.15-.043-3.964-.631-7.931-1.516-11.795-.595-2.6-1.66-5.07-2.535-7.59-.58-1.674-1.112-3.37-1.8-5.002-.475-1.125-1.057-2.202-1.604-3.293-.522-1.04-.9-2.174-1.602-3.102-3.277-4.332-7.593-14.449-11.898-11.136-2.374 1.826 2.606 5.414 4.254 7.916 1.108 1.682 2.668 3.039 3.76 4.732.554.86 1.047 1.774 1.402 2.734 1.375 3.72 1.892 7.702 2.762 11.57.61 2.72.933 5.51 1.724 8.182.487 1.647 1.27 3.192 1.852 4.807.846 2.347 1.99 4.632 2.386 7.096.52 3.222 3.037 8.722-.046 9.793-.589.204-.549-1.368-1.165-1.461-3.279-.5-5.142 6.78-8.236 5.584-1.749-.677-.446-3.81-1.318-5.47-.822-1.562-1.965-3.138-3.537-3.94-.306-.157-.682-.116-1.026-.108-1.036.025-2.043.364-3.074.47-1.937.202-3.893.162-5.834.323-1.225.102-3.395-.793-3.664.406-.203.908 1.632.904 2.377 1.461 1.536 1.148 3.108 2.327 4.275 3.848.979 1.276 1.46 2.865 2.188 4.299.307.604.67 1.184.92 1.814.63 1.595 3.013 4.253 1.441 4.938-1.903.828-1.964-3.672-3.185-5.35-1.222-1.679-2.67-3.186-4.112-4.68-.378-.392-.734-.82-1.19-1.12-.41-.271-1.003-.936-1.35-.589-.348.348.346.924.587 1.352.318.564.786 1.03 1.121 1.584.606 1 1.06 2.085 1.602 3.121.527 1.008 1.098 1.994 1.605 3.012.449.9 1.786 1.87 1.272 2.734-.985 1.656-4.038 1.206-5.77.361-1.726-.842-2.1-3.219-3.256-4.753-.788-1.048-1.571-2.112-2.504-3.034-1.006-.995-2.15-3.489-3.304-2.668-2.9 2.065 4.445 6.584 3.62 10.047-.346 1.46-1.769 3.117-3.269 3.092-1.275-.02-1.906-1.714-2.691-2.719-1.518-1.942-2.23-4.454-3.846-6.316-2.029-2.339-4.713-4.021-7.174-5.9-1.732-1.323-3.434-2.715-5.336-3.78-1.051-.589-2.171-1.777-3.324-1.424-.184.057-.325.294-.312.487.145 2.169 2.856 3.279 4.226 4.967 5.717 7.04 11.65 13.95 16.657 21.513 1.5 2.266 6.155 5.478 3.984 7.112-2.46 1.85-4.545-4.182-6.488-6.569-1.626-1.996-2.79-4.33-4.28-6.43a73.557 73.557 0 0 0-2.804-3.71c-2.181-2.695-4.333-5.436-6.809-7.862-.843-.825-1.816-1.507-2.723-2.262-1.188-.989-2.31-2.063-3.562-2.97a15.674 15.674 0 0 0-1.79-1.121 24.938 24.938 0 0 0-2.687-1.217c-1.58-.62-3.133-1.704-4.828-1.615-.754.04-1.8.23-2.062.94-.16.43.281.902.582 1.251 2.723 3.159 7.156 4.323 10.443 6.889 1.308 1.02 2.488 2.199 3.668 3.365 2.919 2.885 5.817 5.808 8.43 8.973 1.175 1.423 2.232 2.943 3.246 4.486 2.15 3.272 3.689 6.938 6.004 10.096.38.52.984.873 1.287 1.441.415.779.953 1.734.656 2.565-.754 2.106-3.193 4.254-5.412 3.97-2.974-.38-3.698-4.723-5.678-6.974-1.475-1.678-2.49-5.554-4.613-4.86-1.102.36-.488 2.293-.441 3.451.062 1.551.016 3.325.96 4.557.502.655 1.84.384 2.206 1.123.703 1.419-.376 3.162-.848 4.674-.33 1.057-1 1.982-1.371 3.025-.26.735-.347 1.523-.594 2.262-.244.732-.436 1.507-.873 2.143-.91 1.322-2.098 2.54-3.517 3.29-.543.287-1.613-.182-1.797.403-.866 2.745 4.395 3.878 5.82 6.379 1.091 1.915 3.834 5.211 1.932 6.324-.612.358-.927-1.08-1.467-1.537-6.048-5.12-14.496-19.346-19.67-13.346-1.613 1.87 3.253 3.722 5.016 5.451 4.592 4.505 13.448 6.439 14.449 12.793.319 2.027-1.131 4.843-3.131 5.3-2.267.516-3.562-4.496-5.803-3.874-4.123 1.146-2.461 8.571-5.47 11.613-1.565 1.582-5.428.762-6.008 2.91-.365 1.351 1.293 2.557 2.341 3.483 1.256 1.11 3.014 1.47 4.487 2.27 1.992 1.08 4.4 1.697 5.88 3.414 2.79 3.235 7.762 8.902 4.73 11.91-.3.297-.78-.322-1.173-.477-2.275-.9-4.547-1.808-6.85-2.635-2.292-.822-4.586-1.654-6.931-2.31-.864-.242-1.751-.389-2.623-.598-.356-.085-.699-.28-1.065-.267-.342.011-.779.037-.976.316-.196.278-.124.717.03 1.022.518 1.032 2.063 1.196 2.722 2.146 1.104 1.594 1.837 3.603 1.77 5.541-.073 2.071-.778 4.37-2.3 5.777-.394.365-1.017.35-1.538.477-3.295.802-6.636 2.1-10.012 1.793-2.092-.19-3.937-1.468-5.9-2.213-1.582-.6-3.353-2.787-4.737-1.816-.393.276-.145.992.027 1.441.51 1.326 1.716 2.293 2.791 3.22 1.594 1.375 3.363 2.63 5.325 3.391 2.43.944 5.185 2.024 7.703 1.35 5.704-1.527 9.148-7.473 13.588-11.367.934-.82 1.519-2.733 2.744-2.524.675.116.846 1.139.965 1.813.428 2.43-1.49 4.906-1.037 7.332.503 2.697 5.303 4.761 4.015 7.184-1.248 2.347-5.499 1.7-7.949.667-.542-.228-.579-1.134-1.121-1.36-1.627-.68-3.507.546-5.27.476-7.47-.297-15.03-1.38-22.109-3.787-.955-.325-1.998-2.161-2.676-1.414-.995 1.096 1.324 2.74 2.444 3.709 3.486 3.014 7.987 5.048 12.525 5.857 3.025.539 6.12-1.005 9.184-.78 1.69.125 3.488.312 4.95 1.169 2.195 1.285 4.051 3.33 5.159 5.619.825 1.705 1.346 3.77.9 5.611-.182.754-1.027 1.182-1.379 1.873-.101.2-.326.455-.203.643 1.126 1.717 4.489-.6 6.125.64 3.92 2.97 8.34 9.73 5.45 13.71-.654.899-2.223-.1-3.329-.214-1.957-.202-3.881-.69-5.843-.836-.893-.066-2.076-.67-2.686-.015-.792.85-.057 2.359.266 3.474.466 1.616 1.317 3.138 2.357 4.46.666.845 1.386 1.838 2.42 2.136 1.679.485 3.582-1.562 5.174-.842 2.554 1.156 5.827 4.677 4.465 7.127-1.06 1.907-4.362-.014-6.543-.023-1.677-.007-3.376-.293-5.031-.023-1.381.224-2.627.972-3.975 1.347-6.408 1.786-12.934 5.417-19.49 4.29-5.5-.947-10.792-4.442-14.207-8.854-.806-1.041-.848-2.495-1.182-3.768-.388-1.478-.764-2.968-.953-4.484-.248-1.988-.874-4.107-.234-6.006 1.395-4.142 4.497-8.03 8.335-10.121 5.36-2.919 12.105-1.583 18.184-2.113 2.92-.255 6.68 1.532 8.78-.514.708-.691.252-1.97.247-2.96-.006-1.29.597-2.99-.36-3.855-1.286-1.16-3.47-.108-5.196.041-5.626.49-11.082 2.34-16.711 2.79-2.841.227-5.932 1.076-8.551-.05-1.39-.597-2.157-2.13-3.145-3.277-1.12-1.3-1.494-3.606-3.144-4.078-.69-.197-1.713.102-2.018.752-1.412 3.017 1.93 6.399 3.319 9.426.809 1.763 4.375 3.78 2.902 5.043-2.17 1.86-5.296-2.867-6.687-5.363-2.603-4.671-3.456-10.791-1.952-15.922.802-2.734 3.416-4.59 5.455-6.578.664-.648 1.951-.824 2.186-1.721.334-1.276-1.054-2.42-1.512-3.656-1.343-3.628-3.67-7.158-3.619-11.026.052-3.874 2.136-7.504 3.92-10.943.494-.952 1.819-1.559 1.852-2.63.056-1.834-2.106-3.025-2.885-4.684-1.276-2.718-3.038-5.535-2.885-8.534.19-3.732 3.333-6.703 4.652-10.199a40.963 40.963 0 0 0 1.497-4.95c1.613-6.757 1.467-13.922 3.63-20.525.683-2.083 2.083-3.868 2.91-5.898 1.624-3.984.739-9.471 4.006-12.27.885-.757 2.69.324 3.448-.56 1.195-1.396-.064-3.677.035-5.512.19-3.538-.119-7.239 1.076-10.574 1.104-3.083 3.174-5.816 5.438-8.184 1.673-1.75 3.498-3.774 5.865-4.289 3.933-.855 8.889 5.187 11.828 2.436.867-.812-.231-2.37-.486-3.53-.706-3.201-2.06-6.23-2.875-9.406-.261-1.016.288-2.601-.645-3.082-.207-.106-.46.134-.64.282-1.002.815-1.499 2.104-2.243 3.16-.751 1.066-1.457 2.166-2.244 3.207-.187.248-.417.464-.59.722-.39.584-.66 1.24-.998 1.856-.555 1.011-.733 2.377-1.691 3.02-.524.35-1.431.671-1.877.226-1.94-1.938-.135-5.66.974-8.168 1.102-2.489 2.943-4.899 5.35-6.168.901-.475 2.042-.127 3.037-.348.45-.1.925-.189 1.313-.44 4.984-3.216 9.066-7.952 12.1-13.05.609-1.024.897-2.222 1.144-3.389.764-3.618-.974-7.925 1.006-11.048 3.267-5.156 9.898-7.66 15.781-9.285 1.403-.388 2.916.082 4.367-.032 2.632-.206 6.646 1.181 7.832-1.177zm89.082.329c2.746-.317 5.933-.02 8.121 1.67 2.034 1.57 2.642 4.46 3.414 6.91.975 3.091 1.187 6.384 1.471 9.613.659 7.504 1.185 15.09.527 22.594-.08.922-.347 1.82-.547 2.724-.118.536-.187 1.09-.384 1.602-.34.882-.925 1.65-1.362 2.488-.564 1.083-1.091 2.185-1.627 3.283-.323.664-.597 1.352-.957 1.996-.24.432-.38.988-.8 1.248-.75.464-1.757.41-2.63.284-1.196-.174-2.256-.878-3.347-1.4-.82-.394-1.573-1.686-2.398-1.303-3.21 1.489.361 7.908-2.157 10.394-1.985 1.96-5.929 3.195-8.214 1.596-1.63-1.14-.644-3.925-.94-5.89-.235-1.56.715-3.92-.664-4.686-.204-.114-.433.176-.64.283-.4.204-.727.792-1.16.68-3.168-.819-4.107-5.297-5.007-8.442-1.186-4.148-.813-8.658-.283-12.94.903-7.287 2.61-14.646 5.842-21.24 1.436-2.928 3.333-5.779 5.87-7.83 2.247-1.817 5-3.303 7.872-3.634zm-103.182 3.908c-.352-.622-1.458.1-2.105.402-3.196 1.493-6.49 3.607-8.193 6.695-.974 1.765-.443 4.008-.739 6.002-.265 1.79-.729 3.549-.93 5.346-.072.65-.439 1.403-.097 1.961.651 1.063 2.277 1.016 3.412 1.531.91.414 1.847 1.73 2.725 1.252 1.164-.634.324-2.633.564-3.937 1.097-5.954 1.23-12.333 3.996-17.717.313-.61 1.706-.94 1.367-1.535zm134.88 2.412c3.402 1.938 5.95 5.395 7.626 8.933 2.128 4.49-1.112 11.422 2.649 14.668.933.806 2.47-.003 3.697.12 2.188.217 4.702-.168 6.506 1.09 3.214 2.24 4.348 6.578 5.832 10.204.913 2.232.589 4.935 1.842 6.995 1.905 3.132 6.998 3.9 8.158 7.379.482 1.445-.515 3.005-.871 4.486-.967 4.024-1.632 8.204-3.43 11.932-.325.673-1.643 1.161-1.3 1.826.824 1.599 3.605-.172 5.396 0 2.56.245 5.429.045 7.574 1.463 1.183.781 1.728 2.266 2.379 3.525.338.653.503 1.382.78 2.062.475 1.172 1.792 2.246 1.513 3.479-.113.5-.797.647-1.16 1.008-2.022 2.006-3.737 4.3-5.653 6.408-5.393 5.932-10.125 12.618-16.445 17.55-3.677 2.872-11.128 2.272-12.23 6.805-.129.529.46 1.044.902 1.36 1.083.773 2.535 1.122 3.861 1.012 3.525-.294 6.562-2.676 9.678-4.348 1.178-.632 2.357-1.292 3.39-2.139 4.422-3.62 8.648-7.661 11.829-12.408 2.25-3.358 2.631-7.756 4.937-11.076.41-.589.903-1.843 1.535-1.506 4.198 2.233-1.36 9.434-2.595 14.025-.223.827-.423 1.686-.864 2.42-.408.681-1.02 1.224-1.601 1.764-.497.461-1.094.803-1.602 1.252-3.17 2.807-5.785 6.204-8.974 8.988-1.163 1.016-2.359 2.018-3.69 2.801-2.858 1.681-5.886 3.215-9.107 4.002-2.803.685-5.76.792-8.637.564-2.82-.547-5.743-.471-5.607-4.146.068-1.021 1.126-1.743 1.416-2.725.394-1.338 1.355-3.154.394-4.166-.856-.9-2.487.041-3.724.16-.962.093-2.166 1.094-2.867.43-3.6-3.407-.281-10.138 1.392-14.803.834-2.324 2.72-4.123 4.152-6.134.415-.582 1.485-1.03 1.286-1.715-.554-1.899-3.583-1.903-5.551-2.094a6.831 6.831 0 0 0-3.39.572c-1.03.46-1.87 1.289-2.641 2.11-1.118 1.19-1.182 3.906-2.811 4.01-2.486.157-4.573-3.08-5.025-5.53-.51-2.756.58-6.521 3.056-7.834.466-.247 1.044.18 1.543.352 2.527.868 4.653 3.983 7.26 3.398 11.978-2.686 19.455-16.768 23.49-28.361.334-.959.084-2.041-.066-3.045-.06-.4-.233-.774-.328-1.166-1.094-4.489 1.81-13.333-2.803-13.574-2.393-.125-1.465 4.564-2.18 6.851-.525 1.683-.905 3.416-1.55 5.057-.547 1.387-1.354 2.659-1.956 4.023a36.628 36.628 0 0 0-.941 2.371c-.353.98-.511 2.035-.96 2.975-1.358 2.836-3.197 5.442-5.169 7.89-.376.468-.783.923-1.262 1.286-2.299 1.744-4.984 2.923-7.584 4.176-.752.362-1.477.96-2.312.962-1.188.004-2.317-.678-3.3-1.345-.798-.54-1.059-2.264-2.005-2.082-3.548.683-.473 10.234-4.082 10.043-4.796-.255-3.593-9.06-3.982-13.848-.074-.91.93-2.04.322-2.723-.573-.645-1.732-.098-2.59 0-1.03.119-2.326-.054-3.03.707-1.135 1.23.85 4.473-.75 4.967-3.377 1.043-8.225-4.38-7.22-7.77.452-1.524 3.229-.405 4.63-1.16 5.048-2.718 10.257-6.43 12.675-11.63 3.913-8.415 1.011-18.536 1.174-27.815.083-4.76-2.84-10.386-.102-14.281 1.417-1.769 10.104-1.507 11.072-1.037zm.874 6.238c-.254.274-.864-.192-1.119.082-2.06 2.217-.075 6.053 0 9.078.108 4.33.357 8.657.647 12.979.046.695-.478 1.841.176 2.082 1.173.431 1.702-1.84 2.662-2.64.7-.585 1.446-1.128 2.246-1.567.71-.391 1.819-.25 2.246-.94.774-1.25.016-2.962-.29-4.4-1.058-4.98-1.52-10.903-5.284-14.332-.328-.298-.933-.612-1.284-.342zm-148.734 17.367c-1.575 1.352-1.249 4.321-.396 6.213.608 1.35 2.302 1.866 3.507 2.725.557.397 1.19.686 1.72 1.12 2.8 2.306 5.207 5.065 7.589 7.802 1.11 1.275 2.018 2.717 3.113 4.006.865 1.017 1.605 3.662 2.725 2.935 1.093-.71-1.03-2.395-1.533-3.598-2.683-6.42-3.183-14.213-7.91-19.32-.61-.657-1.544-.952-2.403-1.207-1.544-.458-3.2-.373-4.803-.533-.536-.054-1.2-.493-1.609-.143zm-35.252 60.371c-.544.275-.883-.843-1.361-1.22-.442-.349-.88-1.2-1.389-.961-1.118.523-.055 2.484-.33 3.687-.365 1.598-2.061 2.996-1.732 4.602.301 1.475 1.849 2.46 3.123 3.262 1.015.639 2.327.626 3.42 1.12 1.481.672 2.79 1.676 4.2 2.485 3.075 1.764 5.994 3.873 9.294 5.168 3.355 1.317 6.967 3.28 10.502 2.576 1.98-.395 5.357-1.627 4.88-3.59-.318-1.314-2.686-.34-4.005-.638-4.275-.965-8.68-1.777-12.614-3.71a11.378 11.378 0 0 1-3.045-2.206c-6.135-4.484-9.968-22.014-10.943-10.575zm220.09 36.27c1.081 1.17 3.197.096 4.766.379 4.804.866 10.428.776 14.087 4.008 2.522 2.227 5.082 6.791 3.942 9.293-.391.857-.545 2.571-.344 3.81.55 3.39-3.297 9.984-7.078 13.281-4.999 4.36-12.14 5.72-18.67 6.885-5.076.906-10.905 2.398-15.469-.002-1.423-.748-1.888-2.607-2.736-3.974-.718-1.158-1.598-2.265-1.984-3.57-.432-1.458-.781-3.104-.311-4.55.42-1.29 1.953-1.934 2.613-3.119 1.156-2.074 3.565-4.794 2.239-6.763-.315-.467-1.45.4-1.686-.112-2.06-4.48 5.042-8.733 8.873-11.84 2.006-1.626 4.535-2.586 7.027-3.265 1.529-.417 3.558-1.526 4.73-.461zm-232.516 3.467c-.708.277.264 1.498.414 2.244.233 1.152.981 2.291.756 3.445-.053.276-.314.466-.476.696-.134.188-.31.352-.41.56a2.83 2.83 0 0 0-.295 1.066c-.11 2.066.412 4.142 1.007 6.124.165.547.446 1.052.7 1.564.146.295.188.703.474.867 1.067.612 2.46-.06 3.69-.105 2.404-.09 4.81-.167 7.21-.33 1.445-.099 3.97 1.01 4.327-.393.368-1.452-2.557-1.573-3.74-2.492-4.348-3.377-8.725-6.842-12.272-11.05-.557-.663-.579-2.511-1.385-2.196zm251.235 10.836c-.086.213-.315.335-.477.498-2.126 2.128-4.13 4.41-6.514 6.246-1.376 1.06-2.849 2.04-4.449 2.719-4.934 2.094-10.21 3.802-15.564 4.044-2.68.122-5.262-1.439-7.942-1.312-1.646.078-4.075-.226-4.78 1.264-.626 1.317.97 2.79 1.81 3.982.61.867 1.297 1.822 2.28 2.215 2.208.882 4.757.027 7.132-.072 3.237-.136 6.495-.194 9.693-.713 1.704-.277 3.456-.545 5.02-1.276 4.934-2.305 9.486-5.624 13.246-9.564.807-.846 1.41-1.883 1.918-2.936.524-1.087 1.808-2.362 1.136-3.437-.75-1.203-1.626-2.133-2.51-1.658zm-19.641 33.111c7.269 1.155 15.056 2.716 20.857 7.246 2.943 2.298 6.918 9.373 6.131 9.373-.21 0-.702-.403-1.093-.896-.392-.493-1.401-1.103-2.243-1.354-1.395-.416-1.5-.3-1.195 1.293.59 3.09-2.65 7.053-5.605 8.983-4.115 2.686-9.676 2.087-14.59 2.11-1.278.007-2.538-.305-3.8-.51a68.565 68.565 0 0 1-3.401-.653c-.897-.193-1.835-.275-2.676-.64-3.132-1.363-7.72-2.348-8.54-5.663-.267-1.08 1.047-1.965 1.602-2.93.515-.893 1.894-1.657 1.602-2.646-.564-1.908-4.007-1.157-5.367-2.608-2.51-2.676-6.127-7.09-4.162-10.187 2.604-4.106 9.707-.591 14.566-.766 2.637-.094 5.308-.566 7.914-.152zm28.025 22.709.024 1.467c.035 2.4-2.391 6.481-4.108 6.912-4.164 3.069-8.067 4.535-12.537 5.36-5.525 1.019-11.554 1.237-16.843-.659-5.587-2.003-11.087-5.701-14.18-10.766-.384-.628-1.038-1.834-.385-2.173.712-.37 1.078 1.198 1.701 1.703 3.538 2.866 7.36 5.451 11.457 7.437 1.238.6 2.556 1.068 3.907 1.324 4.075.775 8.296.95 12.431.61 2.084-.171 4.145-.672 6.131-1.324 1.2-.395 2.397-.87 3.459-1.555 2.848-1.838 3.522-1.778 7.62-6.734zm-54.699 14.002c.93-.544 1.968.88 2.975 1.264 4.798 1.826 9.73 3.284 14.594 4.927 6.945 2.348 15.13 2.443 20.836 7.047 6.343 5.119 12.537 11.542 12.552 20.985-.039 3.593-.402 6.025-1.107 7.404-1.652 3.233-5.686 4.739-8.395 7.258 0 0 0 .002-.002.002-3.607 1.489-7.842.514-11.707-.028-5.35-.75-10.77-1.98-15.592-4.418-4.033-2.038-7.956-4.728-10.71-8.31-2.233-2.904-4.857-6.504-4.28-10.121.354-2.218 2.494-6.23 4.424-5.082.798.474-.653 1.739-.973 2.611-.562 1.536-2.135 3.052-1.66 4.617 2.452 8.066 12.313 12.478 20.354 15.01 6.556 2.065 14.263 2.106 20.615-.521.952-.394 1.711-1.245 2.242-2.127.908-1.51 2.326-3.585 1.416-5.094-.423-.703-1.584-.511-2.404-.524-2.885-.043-5.626 1.481-8.51 1.588-1.65.062-3.302-.226-4.922-.545-3.015-.593-6.132-1.123-8.863-2.53-.945-.488-1.574-1.455-2.492-1.991-1.247-.728-2.662-1.124-4.018-1.62-1.189-.433-2.605-.41-3.607-1.183-1.21-.932-1.968-2.41-2.49-3.846-.338-.927-.288-1.953-.366-2.937-.044-.567-.138-1.142-.056-1.705.112-.77.403-1.514.742-2.215.255-.528.904-.89.96-1.475.097-.99-.523-1.972-1.12-2.77-1.48-1.974-4.275-2.657-5.803-4.595-1.956-2.48-5.212-5.684-3.988-8.595.185-.442 1.057-.105 1.355-.481zm-176.328 12.5c-1.127-.094-1.762 1.422-2.603 2.178-1.546 1.388-2.703 3.262-4.487 4.326-.548.327-1.202.446-1.826.582-1.71.372-3.462.695-5.21.63-2.664-.097-5.196-1.822-7.847-1.542-1.653.175-4.44.308-4.586 1.965-.291 3.301 5.178 4.382 8.313 5.457 2.163.741 4.587.948 6.838.545 4.69-.84 10.155-2.167 12.969-6.012 1.088-1.488 1.227-3.72.699-5.486-.332-1.111-1.105-2.547-2.26-2.643zm15.041 12.023c.466.102 1.168.138 1.3.596.191.658-.855 1.09-1.12 1.72-.467 1.111-.863 2.327-.781 3.528.083 1.236.735 2.376 1.283 3.486 1.828 3.711 6.553 6.358 6.625 10.495.017.989-.778 1.883-1.496 2.562-1.18 1.116-3.557.793-4.338 2.217-.676 1.233-.367 3.02.4 4.2.584.896 1.73 1.606 2.799 1.57 1.364-.048 2.06-2.215 3.424-2.245 1.976-.042 5.369 1.078 5.094 3.035-.037.263-.512.144-.77.204-1.487.345-3.18.116-4.49.9-1.08.646-1.904 1.757-2.403 2.912-.78 1.809-.272 3.949-.734 5.863-.446 1.849-.811 3.838-1.95 5.362-2.82 3.776-7.2 6.21-11.372 8.402-1.456.765-3.076 1.185-4.666 1.604-1.55.408-4.028 2.323-4.727.88-.495-1.02 1.58-1.674 2.563-2.24 1.788-1.029 3.969-1.165 5.863-1.982 1.008-.435 2.064-.843 2.908-1.545 4.273-3.555 8.934-7.689 10.37-13.059.437-1.637.192-3.622-.755-5.027-1.02-1.514-3.164-3.748-4.714-2.785-.466.289.053 1.095.12 1.638.193 1.548.923 3.053.81 4.608-.094 1.273-.501 2.57-1.206 3.635-.923 1.394-2.476 2.247-3.765 3.312-1.46 1.205-2.798 2.624-4.487 3.477-1.189.6-2.542.812-3.845 1.088-2.639.558-5.314 1.114-8.01 1.138-2.866.026-5.71-.557-8.533-1.054-1.221-.216-2.464-.4-3.625-.834-.78-.292-1.772-.464-2.202-1.176-2.572-4.266-.664-9.997-.078-14.944.15-1.259 1.499-2.571.909-3.693-.446-.847-1.905-.46-2.686-1.014-3.02-2.138-5.997-4.977-7.15-8.494-1.22-3.715-1.552-8.56.771-11.705 1.26-1.706 3.824-2.318 5.943-2.267.86.02 1.597.646 2.366 1.033.913.46 1.997.748 2.662 1.525.961 1.123 1.206 2.713 1.584 4.143.645 2.371-.145 4.23-.065 6.654.017.658.216 1.324.104 1.973-.213 1.232-1.1 2.26-1.44 3.463-.25.883-1.219 2.247-.431 2.718 1.209.725 2.195-1.776 3.37-2.554 1.429-.946 2.91-1.823 4.456-2.56.458-.22.944-.378 1.422-.552 3.835-1.391 7.793-2.44 11.593-3.925 3.921-1.534 10.57-1.042 11.537-5.14.117-.49-.67-.757-.96-1.17-.6-.85-1.119-1.755-1.604-2.675-.596-1.13-1.824-2.224-1.602-3.482.251-1.42 1.8-2.341 3.043-3.07.802-.471 1.765-.623 2.686-.749zm157.836 16.412c1.72-1.122 3.799 1.568 5.639 2.479a42.2 42.2 0 0 1 3.205 1.773c3.509 2.136 11.414 2.894 10.254 6.834-.319 1.082-2.355.517-3.381.051-.82-.371-.977-1.591-1.746-2.056-.526-.318-1.204-.252-1.8-.403-.887-.225-1.805-.378-2.642-.752-.579-.258-1.076-.672-1.609-1.015-.98-.632-1.936-1.3-2.922-1.922-1.05-.662-2.197-1.179-3.191-1.924-.934-.7-2.583-1.204-2.576-2.371.002-.345.629-.378.769-.693zm-4.764 2.952c-.071.485.943.27 1.409.423 1.464.485 2.957.913 4.351 1.573 1.735.822 3.31 1.946 4.945 2.95a141.41 141.41 0 0 1 3.506 2.218c.782.512 1.573 1.014 2.32 1.576.838.63 1.636 1.313 2.42 2.008 1.903 1.683 3.566 3.634 5.544 5.228.367.297.8.505 1.167.801 1.645 1.328 3.16 2.816 4.608 4.355.466.497.949.99 1.308 1.569 1.934 3.106 4.253 6.378 4.46 10.031.119 2.106-.654 4.336-1.903 6.035-.951 1.295-3.528 1.207-3.955 2.756-.183.663.246 1.55.85 1.881 1.319.722 3.146.074 4.465-.65 2.91-1.6 3.28-6.721 6.496-7.551.596-.154 1.522.063 1.732.642 1.244 3.422-2.457 7.358-5.408 9.49-3.003 2.17-7.458.812-10.895 2.196-1.682.677-4.09 1.177-4.59 2.92-.635 2.212 2.187 4.069 2.973 6.232 1.04 2.863 2.49 5.811 2.277 8.85-.288 4.133-1.988 8.391-4.738 11.49-2.612 2.944-6.373 5.546-10.303 5.766-4.512.252-8.635-2.909-12.496-5.258-1.65-1.005-2.667-4.452-4.453-3.713-.644.267-.188 1.386-.191 2.084-.014 3.162.864 6.292.783 9.453-.094 3.663.541 7.828-1.467 10.893-2.164 3.302-6.2 5.768-10.13 6.136-4.35.408-8.824-1.91-12.276-4.586-5.645-4.376-10.036-10.784-12.264-17.57-2.92-8.894-6.616-20.815-.705-28.074 1.64-2.013 6.005.612 7.662-1.385 1.046-1.26.108-3.28-.03-4.91-.223-2.616-1.747-5.187-1.282-7.771.185-1.03.513-2.652 1.557-2.725 1.936-.135 2.637 2.9 3.56 4.607.777 1.436 1.023 3.102 1.604 4.627a72.855 72.855 0 0 0 1.601 3.856c2.691 6.01 6.332 11.608 8.563 17.804.35.976.56 2 .748 3.02.34 1.86.434 3.756.68 5.63.337 2.582.73 5.156 1.087 7.735.172 1.235.534 2.459.508 3.705-.043 2.069-.514 4.125-1.098 6.11a11.285 11.285 0 0 1-.875 2.101c-.273.515-.855.888-.96 1.461-.156.842-.222 2.14.55 2.51 2.629 1.26 5.979-1.64 7.832-3.889 1.53-1.856 1.895-4.553 1.914-6.959.07-8.76-3.755-17.151-6.566-25.449-.232-.684-.546-1.339-.846-1.996a62.242 62.242 0 0 0-1.283-2.615c-.412-.8-.865-1.58-1.281-2.377-.869-1.665-1.79-3.306-2.54-5.028-1.5-3.448-6.696-8.06-3.907-10.584.515-.467 1.332.482 1.876.915.518.41.588 1.519 1.249 1.54.834.028 1.005-1.378 1.703-1.837 1.248-.822 2.994-.652 4.224-1.5.673-.464 1.506-1.054 1.59-1.868.23-2.233-2.76-3.716-3.23-5.912-.46-2.14-1.516-5.722.511-6.548 1.663-.678 2.724 2.34 4.053 3.546 1.685 1.53 3.376 3.058 4.97 4.682 1.159 1.18 2.234 2.437 3.335 3.67 1.23 1.377 2.413 2.796 3.652 4.164 1.536 1.695 3.152 3.315 4.688 5.01 1.01 1.115 2.057 2.205 2.98 3.394.406.524.756 1.09 1.121 1.643.765 1.157 1.548 2.304 2.244 3.504a52.085 52.085 0 0 1 2.243 4.28c.599 1.294 1.061 2.648 1.603 3.968.527 1.283 1.13 2.537 1.602 3.842.287.793.622 1.583.748 2.418.161 1.07-.015 2.164 0 3.246.014 1.104-.905 2.828.088 3.312 1.05.512 2.245-1.066 2.818-2.084 2.49-4.425 1.987-10.128 1.385-15.17-.203-1.698-.953-3.298-1.659-4.857-.406-.898-.989-1.705-1.472-2.565-.539-.956-.931-2.006-1.59-2.884-1.543-2.057-3.576-3.699-5.445-5.465-3.223-3.046-6.472-6.077-9.938-8.842-.96-.766-2.048-1.363-3-2.14-1.62-1.324-3.323-2.617-4.594-4.28-1.415-1.853-5.01-4.66-3.252-6.191 1.038-.904 2.163 1.718 3.356 2.404.565.325 1.27 1.2 1.785.8 1.304-1.008-.915-3.23-.826-4.876.1-1.851.33-3.926 1.516-5.352 1.16-1.395 3.19-1.752 4.878-2.416.979-.384 2.786.126 3.024-.898.062-.268-.412-.364-.606-.559-2.469-2.48-7.337-4.255-7.086-7.746.075-1.039 2.769-1 2.418-1.98zm25.707 9.332c1.559 3.207 10.184 3.516 8.41 6.61-1.006 1.756-3.965-1.105-5.652-2.226-.553-.367-.953-.925-1.39-1.425-.822-.94-2.851-1.826-2.309-2.951.136-.283.719-.23.941-.008zm-152.744 17.1c-.2 3.018-1.786 5.787-2.902 8.599-.468 1.18-1.068 2.304-1.588 3.463-.365.814-.871 1.582-1.076 2.451-.237 1.004-.65 2.187-.152 3.09.415.753 1.596.706 2.248 1.267.724.624 1.296 1.427 1.763 2.26.693 1.237 1.4 2.568 1.494 3.983.34 5.086-1.384 10.231-3.422 14.904-1.73 3.967-4.45 7.48-7.296 10.74-1.305 1.494-2.83 2.798-4.426 3.975-1.186.874-2.586 1.426-3.795 2.27-1.278.89-3.559 1.379-3.637 2.935-.026.524.626.933 1.121 1.107 2.539.891 5.442-.096 8.028-.84.932-.268 1.797-.756 2.613-1.28a16.804 16.804 0 0 0 2.93-2.405c3.542-3.635 7.519-7.283 9.353-12.016 3.292-8.493 6.832-19.44 2.133-27.242-.831-1.38-3.336-.742-4.436-1.92-.619-.663-1.492-1.874-.906-2.566.917-1.083 2.828.348 4.193.736.958.272 1.872 1.528 2.774 1.107 1.605-.748.352-3.855 1.664-5.044 1.728-1.566 5.193-3.194 6.826-1.53 1.33 1.356-.27 3.973-1.351 5.535-.592.856-1.578 1.47-2.577 1.762-1.128.33-2.834-1.06-3.525-.11-.964 1.328 1.405 3.01 1.666 4.63.834 5.177 1.005 10.677-.41 15.726-2.421 8.641-6.791 17.27-13.383 23.36-3.513 3.245-8.244 5.432-12.976 6.125-2.192.32-4.635.08-6.57-.997-4.335-2.408-7.827-6.705-9.66-11.312-2.128-5.344 1.33-11.922-.88-17.232-.2-.48-.563-.97-1.049-1.155-1.46-.554-3.097.576-4.656.502-2.099-.1-4.39-.156-6.176-1.265-3.082-1.915-5.502-5.161-6.683-8.592-1.277-3.71.855-7.944-.022-11.768-.275-1.199-.925-2.297-1.601-3.324-.652-.989-1.626-1.73-2.332-2.68-.358-.48-.657-1.004-.961-1.521-.34-.576-1.254-1.157-.963-1.758.142-.293.665-.297.963-.164.548.244.522 1.112.96 1.521 2.04 1.908 4.996 2.516 7.37 3.989 1.225.76 2.282 1.776 3.533 2.492 1.599.914 3.247 1.834 5.035 2.277 2.23.553 4.583.472 6.881.424 1.154-.024 2.794-1.309 3.443-.355.376.55-.705 1.145-.92 1.777-.342 1.01-.276 2.122-.56 3.15-.168.609-.358 1.224-.674 1.77-.273.472-.69.844-1.035 1.265-.427.52-.906 1.002-1.283 1.56-1.177 1.734-3.989 3.644-3.032 5.509.443.863 1.95.588 2.891.348 1.83-.469 3.277-1.957 4.607-3.297 5.189-5.23 9.181-11.61 12.721-18.07.732-1.335 1.491-2.723 1.733-4.225.309-1.926-2.008-4.711-.414-5.836.786-.556 1.687 1.242 2.646 1.156 2.685-.24 4.535-2.921 6.72-4.5zm162.721-7.95c1.277.25 2.187 1.477 3.01 2.484 2.155 2.638 4.173 5.671 4.804 9.018.216 1.14.75 3.334-.404 3.457-.66.07-.38-1.275-.644-1.885-.726-1.677-1.613-3.285-2.565-4.845-.779-1.277-1.737-2.436-2.564-3.682-.483-.727-1.03-1.423-1.4-2.213-.326-.693-1.06-1.505-.71-2.185.076-.147.31-.18.473-.149zm-136.748 11.129c.688.045 1.163.824 1.498 1.428.555 1.001.485 2.239.693 3.365.355 1.916.375 3.905.946 5.768.55 1.799 1.918 3.298 2.36 5.126 3.908 16.137 8.914 34.59 2.167 49.76-2.707 6.086-8.763 12.273-15.408 12.725-2.437.166-3.948-2.985-6.229-3.858-1.549-.592-3.316-.373-4.898-.87-4.519-1.422-10.379-1.959-12.897-5.971-1.464-2.334-1.011-5.759.135-8.264 1.9-4.153 7.186-5.71 10.219-9.125 1.068-1.203 2.019-2.53 2.767-3.953 2.759-5.248 1.027-13.8 6.217-16.664 2.16-1.192 5.628-.355 7.246 1.508 1.987 2.287.761 6.044.588 9.068-.242 4.227-.843 8.51-2.262 12.498-.75 2.11-2.16 3.923-3.246 5.88-.919 1.658-3.977 3.51-2.767 4.968.68.82 2.213-.332 3.031-1.014 4.18-3.483 5.802-9.267 7.887-14.293.43-1.036.782-2.121.937-3.232.792-5.653 1.228-11.564-.066-17.123-.36-1.543-1.022-3.095-2.082-4.272-1.937-2.15-5.68-2.244-7.365-4.596-.864-1.204-1.124-2.85-1.018-4.328.112-1.564.15-4.291 1.717-4.38.8-.046.758 1.41 1.125 2.122.791 1.539 1.331 3.223 2.318 4.643 2.266 3.261 6.397 5.134 8.133 8.705 1.56 3.208 1.652 7.009 1.639 10.576-.017 4.413-.68 8.898-2.127 13.067-2.282 6.573-6.624 12.241-10.133 18.25-.846 1.448-3.636 2.946-2.631 4.289 1.227 1.638 4.229-.466 5.926-1.61.68-.458.947-1.343 1.488-1.959 1.99-2.264 4.835-3.798 6.442-6.35.437-.693.422-1.598.8-2.325.32-.617.754-1.176 1.223-1.69.472-.518 1.163-.822 1.584-1.383.447-.594.697-1.32.943-2.023 1.529-4.354 2.219-8.96 3.276-13.451.528-2.245 1.544-4.44 1.53-6.746-.004-.882-.447-1.707-.614-2.573-.224-1.16-.226-2.362-.518-3.507-.193-.757-.433-1.514-.808-2.198-.551-1.001-1.35-1.847-2.083-2.724-.614-.737-1.221-1.489-1.935-2.13-1.047-.939-2.544-1.377-3.412-2.484-1.462-1.862-2.063-4.289-2.695-6.57-.62-2.236-.814-4.573-1.053-6.88-.138-1.331-.793-2.798-.22-4.007.288-.609.96-1.237 1.632-1.193zm51.068 16.848c-.131.6 1.303.28 1.676.77.934 1.222.642 3.02.756 4.554.134 1.8.102 3.619-.086 5.414-.102.974-.328 1.934-.564 2.885-.273 1.098-.752 2.14-.985 3.248-.718 3.42-1.574 6.93-1.252 10.41.145 1.56.909 3 1.408 4.486.33.98.706 1.943 1.05 2.918.39 1.11.824 2.207 1.15 3.338.206.718.242 1.484.507 2.182.371.976.984 1.841 1.495 2.752.865 1.542 1.46 3.29 2.658 4.591 2.814 3.055 7.42 4.052 10.236 7.104.556.603 1.532 1.362 1.236 2.127-.262.68-1.355.662-2.084.66-.92-.002-1.76-.537-2.626-.848-1.347-.482-2.802-.779-3.99-1.574-2.884-1.929-5.147-4.714-7.227-7.49-.61-.815-1.034-1.754-1.514-2.652-2.006-3.754-4.236-7.43-5.701-11.426-1.013-2.762-1.75-5.651-2.098-8.572-.671-5.649-1.497-11.594.059-17.065.74-2.602 2.285-5.054 4.248-6.916.454-.43 1.802-.29 1.648-.896z" transform="translate(5.4 -12.033) scale(.11803)"/></svg>