<svg width="400" height="400" viewBox="0 0 105.833 105.833" xmlns="http://www.w3.org/2000/svg"><path style="fill:#000;stroke-width:.155431" d="M96.738 45.441C66.65 44.91 37.854 66.571 29.66 95.467c-7.652 22.017-6.865 46.007-2.67 68.635 4.987 20.712 17.074 40.399 35.1 52.132 21.867 12.396 49.32 17.954 73.436 9.013 24.916-9.388 42.64-32.628 49.828-57.706 5.37-20.635 5.098-42.844-.675-63.359-7.405-24.283-26.795-44.255-50.78-52.57-11.807-4.533-24.51-6.768-37.16-6.17zm8.996 1.455c2.891 2.988 2.547 10.398 4.803 2.326 1.66-3.79 3.21 7.575 4.481.671 2.071-3.861 3.968 8.813 4.892.505-1.969 6.594 5.206 2.809 5.617 2.574-.626 3.33 8.55-3.004 6.725 3.596 1.083 4.362 7.995-2.24 5.857 2.997 1.948-2.206 4.499-2.29 2.213 1.085 6.266-5.237.983 6.366 7.84 2.553 4.244-1.618-1.905 6.268 4.53 1.653 3.467.428-2.801 5.022 2.117 3.36-.9 1.326 1.571 2.103 2.581 2.876 4.425-4.954-2.037 6.18 3.116 1.554-4.053 3.493 2.633 4.624 3.416 2.468-5.213 6.289 5.662-1.921 1.548 4.566 5.638-2.343-2.595 3.217 4.206 1.232.94.212-3.081 2.997 1.37 2.905 2.4 1.351-2.774 3.46 1.62 2.215-4.301 4.455 3.983 1.018-.667 3.986-.264 3.865 5.95-1.622 1.585 3.022.397 3.675 2.447 1.952 2.42 4.942 3.62-2.752-2.833 4.29 2.982 2.198 3.722-2.569-4.847 5.007 1.318 3.262 4.474-2.39-5.69 4.357 1.696 2.826 3.552-1.04-5.242 3.623 1.39 3.614 2.605.795-7.186 4.277.663 3.425.194 2.05-4.182 4.023.71 4.448-7.21 1.547 6.301 3.087-1.044 4.222-5.822 2.014 7.723 2.159.127 3.904-5.932 2.648 6.588 1.293-1.139 4.049 2.497 1.759 5.75.147.558 2.547 4.03 2.595 2.025 2.064-2.218 3.446 4.296.797 7.904 1.977 1.105 2.4-4.295 1.13 9.13 3.066.663 3.105-4.118 1.512 3.963 2.598-.66 3.814 3.63 2.169 5.398-.161.74 2.569.177 2.612-3.66 3.851 1.493 3.729-7.04.956 2.83 2.714-3.127 6.679 5.864 1.908-3.08-.006.065 3.426 6.953.404-7.488-.423 1.161 2.284-3.937-1.8-6.016 3.338-1.936 3.342-4.86 1.447 4.032 3.082-2.383 1.844-2.058 1.928 7.137 3.257.393 1.978-3.382 1.173 6.12 3.766.175 2.059-4.059.234 2.695 7.561-3.666 5.553 5.923 3.131-4.782 1.762 1.352 5.066-2.015-1.427-6.54.668-2.277 1.913-3.636-3.238-5.635 2.66-4.277 4.786-4.699.586-1.425 9.577-5.117 8.359-4.457-1.972 2.113 5.805-2.831 1.215-3.607-.745 3.351 5.806-1.622.987-3.873-.455 3.35 6.183-1.486 1.674.204 3.112-3.295 2.94-2 6.48-4.966-4.563.303 6.384-5.564.371 2.42 6.139-.998 4.112-3.368 1.98 3.72 6.684-1.85 1.802-2.037 1.384 1.898 5.32.47 2.855-2.18 2.546.011 3.068-3.944-3.774-1.877 1.986-.313.308-3.896-2.756-1.922 1.603-4.454-7.325.145 7.397-3.494-.267-2.834-4.237.193 9.078-2.832.807-1.69 5.05-1.048 1.523-2.91.178-.606 3.956-.64 3.566-1.428.153-2.427 1.22-1.254 7.148-2.641 1.48-2.68 4.602-.623 3.595-2.564-.723-.915 2.513-1.287 7.496-1.526 1.842-2.722 3.935-2.755-3.382-3.12 2.355-3.126 4.045-4.33 1.483-5.48.087-.913 7.328-1.313-5.615-4.53-.28-.695-3.993-5.392-4.978-6.514.961-1.955 2.217 2.487-5.03-2.623-.026-2.166-2.707-.64-3.445-3.275-1.252-.378-5.59-1.15-5.583-1.698-.095-2.514 4.064.345-7.967-2.593-.995-1.028 4.008-.003-11.477-1.614-2.88-.437 8.812-.145-7.04-2.544.986 1.46 2.267-2.045-4.576-4.831-.527-3.803 4.668-.517-7.06-3.516-1.478.414-5.28-3.874 3.614-2.131-2.7-2.366.476-2.016 5.419-1.767.272-3.52 2.737-4.284-.116-4.505-1.807-2.947 4.352-.959-5.529-2.71-.704.254 4.739-2.84.947-1.05-1.966-3.808 6.371-.302-6.21-3.09.15-1.69 3.432-.584-5.467-3.353.217.988-6.013.206-2.824-2.007-1.288-3.157-2.848-.732-5.537-5.948-5.175 2.328-3.647 3.365-7.405-1.334-2.403 2.344-3.343 1.115-4.995-1.892-1.582 2.462-2.332 2.495-7.733.008-2.198-6.028 4.99-.2-6.507-5.285-2.415-2.225-2.734 1.505-5.74-2.887-4.956 3.521-5.968-3.376.723-3.468-6.3-1.213-2.662-.178-6.457-3.431-6.759 3.922-3.136 2.87-5.374-1.41-1.701 1.572-1.941 2.949-2.754 1.988-5.46-6.264 2.21-.493-1.602-1.308-2.871-10.585 2.864 7.405-5.86-2.078-3.087-6.65.828 4.96-4.925-1.843-3.345-5.073.292 1.797-5.605-2.643-6.717 3.848-.92 6.219-3.79.69-2.791-3.676-2.199 7.52-4.29.798-3.665-7.025-1.105 7.345-4.738-2.061-4.253-3.048-3.406 9.801-4.788 2.116-5.64-5.605-4.328-2.76-10.015 1.569-8.11-2.189-1.494-4.216-1.902-.673-4.222-4.284.018-5.676-2.508-.507-3.333 8.064-.438-9.45-1.69.782-2.47.163-1.943-7.327-2.53-1.081-2.095 6.335-.811-8.644-2.089-.575-4.52 5.46.519-5.278-3.18.728-6.405 5.093.145 3.57-.314-.069-3.226 5.007 1.477 2.03-1.888 2.065-2.208 6.515 1.089-3.699-5.552 4.109-2.006 3.792.62-8.613-6.618-.999-4.208-6.44-4.662 5.742-1.982.874-5.942 7.082 3.165-3.659-5.78 2.816-1.758 5.949 2.61-6.868-7.944 1.056-2.884 3.835 1.641-4.47-9.195 1.371-3.346 4.202-.218-4.313-6.757 1.644-2.111 5.26 2.9-4.787-9.18 1.34-3.26-.354-4.572 2.057-3.145 2.268-7.188 2.78.647 2.857 2.052 3.29-1.402 4.823 4.25-.058-5.777 4.402-.961-2.724-7.593 5.407 2.157 2.517-4.206.84-.696 4.895 3.606 2.219-1.347-1.505-6.173 6.204 9.765 3.33-.113-2.522-9.093 3.798 6.003 2.443-2.195-.9-8.017.89.164 3.169.973-.119-4.312.082-9.794 2.432-2.205 3.037 4.061-2.133-11.852 3.008-4.003 2.085 1.034.31-8.393 4.184-1.769.25-1.774 4.188-8.567 7.447-2.554 2.05 4.697 1.064-5.458 3.51.91 1.237.552.475-4.905 2.618-.155 3.909 6.554-.136-10.053 3.915-1.05 2.14 4.41 1.546-7.115 4.03.037 1.231 9.69 1.703-8.01 2.766.45 2.458.203 1.3-5 4.206-4.459zm-4.74 9.721c-14.141 1.132-30.107 2.001-40.743 12.678-18.398 16.66-23.903 42.974-23.467 66.864.46 20.944 4.274 43.804 19.27 59.513 11.691 11.664 27.389 19.309 43.994 20.101 10.15.69 20.693 1.127 30.186-3.116 14.059-4.362 26.504-13.757 34.638-25.987 6.596-11.523 11.17-24.212 12.352-37.5 1.893-12.962-.13-26.21-2.667-38.943-4.682-18.72-17.866-34.576-34.51-44.044-11.718-6.95-25.57-9.464-39.053-9.566zm2.37 1.936c20.03.723 40.57 7.88 53.804 23.545 11.7 12.59 17.693 29.485 18.476 46.492 1.354 14.603-.564 29.649-5.92 43.288-3.962 9.234-8.126 18.728-16.172 25.19-14.642 13.711-35.645 19.63-55.377 16.645-19.23-1.813-37.852-12.396-48.164-28.88-13.25-26.296-14.25-57.834-6.014-85.808 5.168-14.749 15.038-29.21 29.735-35.604 9.484-3.39 19.705-3.875 29.631-4.868zM86.991 68.81C72.25 70.697 62.81 83.435 54.153 94.08c-6.132 7.54-11.127 22.132-2.758 29.587 5.916 5.27 15.367 3.338 23.006 5.046 7.098.876 14.532 3.678 21.387 1.636 8.744-2.605 7.285-15.589 7.053-23.527-.346-11.805-1.435-24.485-8.194-34.507-1.618-2.399-4.729-3.879-7.655-3.504zm38.994 1.441c-11.63.974-10.285 15.31-12.472 24.08-2.88 11.554-7.09 29.136-.381 35.719 4.76 4.67 27.006 1.051 40.423 2.323 12.09 1.146 16.512-9.956 13.033-20.262-5.17-15.317-15.572-28.61-28.693-37.519-3.692-2.092-7.723-3.613-11.91-4.341zM97.381 91.084c1.92 8.523 2.469 28.807-5.547 31.456-8.86 2.927-20.78-.82-28.835-1.939-7.663-1.068-12.897-10.793-7.836-17.06 5.233-6.48 8.555-12.273 13.948-17.91 22.14-23.144 24.94-9.323 28.27 5.453zm30.681-12.361c5.512-2.361 12.324 2.345 15.936 8.34 6.794 11.281 21.794 22.33 17.218 34.265-3.116 8.127-41.715 5.756-45.273-.322-3.082-5.263-1.358-36.51 12.12-42.283zm-47.45 59.572c-11.067.398-26.064-.892-32.08 9.778-6.044 10.721 1.398 23.605 7.048 33.308 6.675 11.466 17.255 13.566 28.82 19.323 8.709 4.335 12.748-1.062 13.739-8.65 2.932-14.281 4.49-28.828 4.565-43.403.85-9.99-15.088-10.609-22.093-10.356zm39.675 4.183c-10.158-1.988-10.919 10.572-9.917 17.563.452 11.447-.605 23.524 3.502 34.248 3.808 9.942 18.185 7.542 25.892 2.636 13.96-8.647 25.716-22.918 27.74-39.596 2.174-14.957-16.139-13.588-25.969-13.912-7.062.107-14.165-.464-21.248-.939zm-36.062.946c6.83 1.197 8.724 1.614 10.39 6.954 3.836 12.296 6.623 37.697-4.007 43.9-9.705 5.662-22.588-7.244-29.867-15.884-5.902-7.005-11.865-19.654-7.923-27.598 4.043-8.147 22.77-8.886 31.407-7.372zm44.523 5.494c9.017-.891 37.633-.841 32.617 11.544-5.172 12.77-18.948 32.762-30.372 34.542-17.708 2.76-11.927-13.162-14.614-27.188-3.72-19.409 5.677-18.237 12.37-18.898zm-8.926 74.072c-.973-.577.707-.87 0 0z" transform="matrix(.553 0 0 .553 -5.958 -23.088)"/></svg>