<svg width="400" height="400" viewBox="0 0 105.833 105.833" xmlns="http://www.w3.org/2000/svg"><path style="fill:#000;stroke-width:.647913" d="M482.11 179.008a51.598 51.598 0 0 0-2.464.033c-16.323.478-30.923 9.334-42.984 19.697-20.493 19.578-28.238 30.099-52.996 25.016-30.166-6.596-61.623-1.482-90.46 8.443-19.428 6.623-37.967 15.566-56.126 25.067-38.536 21.278-68.427 55.996-88.129 94.992-5.388 10.42-9.517 21.415-14.615 31.97-23.203 52.228-34.337 110.089-30.184 167.19 5.519 39.255 10.782 79.274 26.883 115.871 5.908 13.745 13.822 26.51 22.668 38.541 26.687 37.645 57.734 73.12 96.383 98.875 17.273 11.453 36.008 20.946 55.853 26.992 5.379.855 10.897 1.288 15.15 5.012 3.165 3.546-.03 8.309-2.234 11.445-8.513 11.311-23.054 17.803-29.255 30.5-8.272 16.937-39.304 91.325-9.288 94.258 6.13-.208 9.587-6.237 12.424-10.89 8.748-15.1 18.902-29.957 34.149-35.999 2.231.71 1.995 3.996 2.496 5.913 1.229 9.836-.125 20.848 3.738 30.572 1.695 4.565 6.591 7.603 11.445 6.596 3.223-2.582 6.278-5.913 10.163-7.788 6.652-3.958 15.323-3.162 21.525 1.293 3.769 2.263 6.636 5.812 9.805 8.641 3.016 1.315 6.223 2.676 9.644 2.314 14.126 2.3 28.853 4.304 43.006.922 8.956-1.938 12.39-11.852 20.506-16.898 19.84-12.336 16.247 8.538 33.88 17.887 4.797 1.89 11.179 3.343 15.585-.258 4.536-4.463 3.574-11.48 3.549-17.268-.13-7.707-1.242-16.513 3.783-23.031 15.641-7.032 63.627 38.945 57.886.969-1.86-12.31-12.22-22.208-13.949-34.121-2.604-16.095-2.363-33.45-11.101-47.82-3.301-5.154-7.536-10.057-12.936-13.005-3.991-1.73-8.923-2.973-11.346-6.851.612-2.945 4.248-3.95 6.649-5.203 8.019-3.45 17.46-5.197 25.814-8.684 36.522-13.907 67.354-39.76 91.973-69.685 12.938-15.583 24.194-32.486 34.615-49.823 24.61-31.46 38.075-70.375 43.364-109.658 2.67-19.027 3.306-38.282 3.013-57.474 2.737-44.793-6.164-89.605-21.101-131.69-7.671-36.66-27.88-69.604-53.096-96.851-17.441-18.597-36.66-35.667-57.928-49.784-105.316-58.384-92.214-13.094-129.76-20.054-4.228-1.21-9.603-2.947-11.013-7.606-.146-4.48 4.466-7.122 7.79-9.197 4.164-2.065 9.013-2.39 13.552-3.262 11.181-1.63 22.483-1.51 33.431-.105 44.15 5.681 83.537 28.83 127.252 36.406 20.651 2.702 41.097 7.934 62.03 7.85 10.576-.868 15.093.669 17.093-6.202 7.02-24.107-54.504-17.772-68.931-19.843-8.732-1.303-18.346-3.51-26.47-6.705-5.525-1.95-10.438-5.285-16.15-6.72-31.765-10.92-60.125-30.807-93.308-37.73-7.847-1.78-15.91-2.219-23.91-2.488a56.173 56.173 0 0 0-7.364-.572zm10.335 6.306a93.116 93.116 0 0 1 41.346 9.61c35.217 15.452 69.926 32.338 106.525 44.334 14.668 3.322 29.839 1.805 44.743 2.506 8.223.509 17.135.53 24.341 5.043-7.35 18.441-106.785-12.252-128.412-19.424-13.581-4.457-27.025-9.375-40.62-13.754-20.309-4.044-41.107-8.705-61.903-5.945-11.557 1.49-23.486 6.87-29.404 17.402-6.154 9.828 15.413 16.519 21.015 16.594 14.918.138 28.67-6.507 43.149-8.733 7.789-1.373 16.005-.997 23.312 2.2 14.436 3.695 28.36 9.26 41.094 16.09 31.647 16.874 58.346 41.858 80.598 69.62 8.453 10.674 16.5 21.605 23.601 33.147 15.472 34.724 27.065 70.956 34.125 108.437 2.238 11.527 4.009 23.152 4.498 34.897 2.894 44.408 1.43 89.632-11.082 132.662-4.067 13.574-8.924 27.018-15.586 39.541-20.817 34.126-41.957 68.499-70.047 97.275-15.227 15.616-32.54 29.279-51.804 39.266-3.33 1.579-5.809 4.522-9.366 5.777-15.542 6.838-32.666 8.85-48.486 14.858-2.792 1.079-6.993 3.423-5.53 7.039 2.44 4.332 8.011 4.165 12.169 5.666 9.351 2.757 16.996 10.055 20.46 19.137 7.45 18.664 5.044 40.345 13.653 58.869 2.276 5.139 5.962 9.443 9.918 13.347 1.587 2.144 4.635 9.575 1.937 11.885-7.095 1.823-27.5-6.575-32.904-10.324-21.324-20.379-36.125 3.014-32.824 26.25 2.493 17.55-11.056 6.996-13.352-.867-2.878-10.662-.07-21.72.873-32.461 1.025-10.114 1.97-21.495-4.185-30.27-8.353-9.658-23.521-22.627-30.59-5.373-4.48 10.763-4.725 22.75-4.203 34.239 4.578 13.122 6.781 27.871-2.346 37.382-8.701 8.591-21.836 10.168-33.508 9.336-26.038.822-49.293-24.619-43.57-47.004 2.6-11.905 15.531-16.302 12.822-28.271-2.828-16.105-23.814-10.538-28.726-4.127-4.829 8.98-3.98 19.607-3.862 29.459.145 10.275 1.65 20.829-1.07 30.896-9.315 16.754-8.24-.84-9.238-10.595-.749-9.056-1.37-18.982-7.15-26.44-4.717-5.823-9.104-4.197-10.702-.664-5.811 12.854-22.989 17.001-29.549 29.153-7.63 14.134-18.16 31.62-16.187 5.98 7.001-19.734 37.763-33.467 14.252-33.016-2.906-1.53-2.314-5.609-2.244-8.392 2.931-22.845 25.264-40.753 40.658-62.192 4.927-5.953 27.358-8.616 23.434-10.482-3.397-1.615-7.121-1.506-10.725-2.035-16.367-2.405-33.048-4.581-48.434-10.93-4.818-2.06-8.855-5.478-13.619-7.664-58.133-32.523-103.8-84.018-136.744-141.434-6.025-13.79-10.783-28.334-14.99-42.794-16.384-57.947-19.64-119.522-7.117-178.56 2.909-14.372 7.962-28.421 12.664-42.126 13.017-36.739 30.681-72.7 55.29-103.053 5.054-6.17 10.216-12.493 16.528-17.236 35.723-29.745 79.146-51.356 124.828-59.27 9.341-1.476 18.929-2.92 28.508-2.857 14.174 1.462 28.002 5.76 42.262 6.266 9.769 1.071 24.655-7.009 28.554-14.377 11.962-22.6 41.779-33.232 62.922-33.493zm-78.55 93.293c-68.799 3.707-128.998 22.373-173.627 75.87-8.705 10.7-15.342 22.875-20.885 35.464-26.465 58.408-36.29 124.65-25.528 188.024 4.39 25.696 20.605 60.15 33.333 80.49 6.706 9.363 14.087 18.29 20.07 28.133 22.594 31.4 56.158 53.657 92.338 66.478 21.449 7.558 43.918 12.459 66.627 13.891 41.81 2.13 84.394-5.519 122.035-24.096 34.194-20.874 65.769-47.656 86.86-82.107 9.69-15.947 16.526-33.431 22.722-50.973 11.856-42.855 15.094-82.33 12.473-122.953-6.906-35.197-15.857-79.67-31.772-104.826-25.384-43.269-68.047-75.054-115.412-90.623-30.773-6.964-60.586-12.941-89.234-12.772zm11.937 16.926c18.882.124 37.666 2.134 55.563 8.541 30.34 6.6 58.676 22.201 82.044 42.512 10.424 9.134 20.316 18.997 28.811 29.959 21.948 31.122 33.378 68.637 38.734 106.049 3.207 22.567 4.605 45.309 4.6 68.144-12.911 107.02-95.66 218.753-218.977 209.07-8.76-2.243 10.223-19.161 15.914-22.32 12.55-6.964 77.561-34.356 96.192-50.101 52.393-44.279 78.172-125.58 73.195-186.157-2.983-36.307-15.314-73.69-39.955-101-52.224-57.88-143.178-54.49-209.29-43.886-12.592 2.194-25.073 5.984-36.259 12.236-38.552 21.494-52.16 45.04-67.328 81.662-20.27 48.945-13.021 106.11 5.955 155.254 21.758 51.53 76.047 102.583 119.38 123.361 21.902 10.079 30.6 21.437 29.663 29.788-18.709 3.104-57.573-11.895-72.267-19.088-21.4-10.475-42.87-22.509-59.014-40.569-4.243-4.615-7.605-9.947-10.73-15.336-27.142-31.436-46.946-69.72-54.274-110.623-5.732-44.825-2.79-90.81 10.957-133.9 7.033-21.985 16.983-42.895 29.963-62.09 14.72-25.04 37.965-44.92 63.959-58.027 21.777-11.091 45.61-18.09 69.914-21.416 14.424-1.095 28.754-2.132 43.25-2.063zm-7.79 70.996c93.464 0 173.699 61.432 173.7 151.382 0 89.951-78.959 200.523-172.424 200.523S250.084 626.37 250.084 536.418c0-41.644 12.411-92.4 39.128-121.197 30.992-33.405 78.636-48.692 128.83-48.692z" transform="translate(1.061 -19.656) scale(.12612)"/></svg>