<svg width="400" height="400" viewBox="0 0 105.833 105.833" xmlns="http://www.w3.org/2000/svg"><path style="fill:#000;stroke-width:.645025" d="M377.697 108.08c-.257 0-.514.005-.771.014-9.669.831-17.597 7.301-24.86 13.174-40.67 36.342-84.39 72.812-113.447 113.76-28.676 40.92-50.103 86.483-67.017 133.378-24.097 63.699-34.255 133.129-26.756 200.559 9.774 87.89 31.993 168.548 69.459 237.637 30.843 56.876 62.329 113.396 93.853 169.89 14.762 22.842 20.446 50.662 37.75 71.987 14.637 19.274 42.188 15.815 56.203 3.081 6.375-5.81 9.95-13.912 12.203-22.083 20.37-58.869 52.207-112.732 81.952-167.243 22.23-40.738 37.996-84.722 52.521-128.789 23.356-60.122 31.1-125.19 30.438-189.363-.352-24.72-1.453-49.462-4.205-74.037-10.214-87.22-46.15-171.322-102.49-238.727-20.617-29.173-50.865-50.635-67.99-82.283-4.443-7.87-7.132-16.52-9.677-25.137-2.328-6.92-6.978-14.542-14.86-15.638a13.08 13.08 0 0 0-2.306-.18zm-4.896 9.607c3.523.085 7.088 3.16 10.97 11.024 5.64 12.64 8.38 26.854 17.094 37.928 10.048 10.878 20.458 22.404 30.555 33.652 32.814 36.686 64.424 75.298 85.047 120.318 19.542 35.584 32.413 74.663 40.113 114.264 6.842 34.759 9.736 70.132 10.531 105.615 2.734 68.473-11.368 136.637-33.713 201.205-13.808 39.877-26.832 81.013-49.14 116.914-38.396 61.795-59.708 127.87-89.881 181.989-1.253-8.878.117-17.948 1.969-26.653 10.392-38.925 24.083-80.32 36.539-113.765 7.86-23.722 17.974-46.743 23.619-71.155 11.612-30.488 15.381-57.644 19.615-88.6 3.42-49.373 5.929-98.977-2.04-144.675-3.298-17.073-5.62-34.389-10.753-51.05-13.223-37.982-29.446-74.228-49.623-105.866-31.222-64.198-18.224-63.608-35.969-79.187-5.931-4.86-15.774-3.529-19.933 2.187-36.007 49.481-67.23 94.614-84.35 147.785-17.7 56.23-23.971 120.055-15.476 173.518 11.867 64.269 27.36 120.768 44.447 174.752 6.108 22.478 14.827 44.155 24.941 65.111 11.616 26.781 23.478 53.689 30.754 81.889 13.874 44.43 4.55 47.1 4.346 46.775-4-4.962-5.833-11.274-9.317-16.545-27.341-56.896-60.965-110.431-90.417-166.217-31.369-53.804-61.543-109.118-78.647-169.28-23.842-69.84-31.172-144.59-25.588-218.089.927-15.065 3.893-29.944 6.95-44.635 13.46-62 39.051-120.757 70.011-175.91 26.702-45.676 63.213-85.657 106.55-115.261 13.065-8.924 21.793-28.253 30.796-28.037zm-6.653 266.917.48 1.529c13.917 41.382 46.806 73.033 61.087 114.248 19.208 48.464 31.496 99.516 33.931 145.596 1.015 21.971 1.104 43.997.323 65.974-3.845 60.793-21.957 119.426-41.022 176.998-49.284 153.567-20.276 112.193-37.959 159.426-6.394 5.426-10.62 9.913-10.998.941 4.96-21.593.026-43.88-6.453-64.587-4.099-13.026-8.658-25.915-12.766-38.932-31.847-73.925-59.267-150.262-74.1-229.453-8.173-44.733-9.916-91.078-4.038-136.127 4.868-37.45 14.976-73.867 30.91-108.012a218.863 218.863 0 0 1 14.514-26.662c11.687-19.112 23.264-38.452 39.033-54.574 2.253-2.23 4.584-4.383 7.058-6.365zm-23.37 95.298a.674.674 0 0 0-.221.016c-3.61.2-3.167 4.759-2.774 7.328 1.857 11.583 5.403 22.852 6.697 34.537 1.705 11.797.911 23.524-1.294 34.953-6.025 31.263-21.516 60.547-23.801 92.744-1.714 20.398-1.89 41.888 6.6 60.948 13.457 26.765 35.386 35.376 54.757 11.334 18.534-28.613 24.772-63.833 21.936-97.47-3.668-52.5-32.152-98.426-50.016-130.304-2.473-4.118-7.196-11.703-11.25-13.93-.213-.04-.418-.14-.635-.156zm12.138 30.92c42.598 66.263 55.558 146.072 22.686 197.574-20.202 31.651-49.32-1.879-46.827-47.273 1.431-26.062 6.31-52.842 17.514-79.789 10.889-26.189 6.627-70.512 6.627-70.512z" transform="matrix(.104 0 0 .104 15.645 -7.574)"/></svg>