<svg width="400" height="400" viewBox="0 0 105.833 105.833" xmlns="http://www.w3.org/2000/svg"><path style="fill:#000;stroke-width:.799419" d="M462.063 29.486c-7.772.265-12.118 28.49-15.295 44.022-21.396 112.436-36.44 236.94-49.55 337.734-4.431 28.067-4.06 56.7-10.407 84.467-7.62-31.842-3.853-64.994-10.534-96.984-5.334-60.132-11.69-120.208-21.28-179.823-3.656-53.53-14.83-106.16-23.143-159.04-11.143-35.763-27.111-7.198-23.514 15.54 11.367 73.725 24.193 155.128 30.68 219.936 3.24 31.6 7.167 63.21 7.302 94.957-3.373-12.636-5.684-25.529-8.945-38.188-7.337-27.756-18.687-54.34-26.479-81.853-5.723-33.595-21.086-64.32-33.341-95.805-10.539-28.419-15.453-59.032-30.3-85.758-10.497-26.606-19.144-4.147-17.55 12.522 1.958 19.68 11.447 37.413 17.914 55.78 29.59 92.402 60.766 190.438 79.223 273.019 4.238 21.792 7.613 44.106 4.793 66.242-1.347 9.533-3.506 19.16-7.852 27.793-11.276 24.316-12.03 48.108-.29 69.873 5.903 12.982 18.985 22.748 21.778 36.7 11.552 57.687-3.58 118.008-25.302 172.589-2.762 6.41-5.224 12.923-7.08 19.656-12.096 39.316-24.068 80.23-20.346 121.588 2.211 24.566 6.69 50.03 19.625 71.393 8.84 14.6 16.278 26.193 31.93 26.992 19.287.984 39.848 2.463 57.076-2.399 25.087-7.079 35.953-18.879 44.111-41.968 17.229-37.572 19.987-80.56 12.725-120.907-7.642-56.816-33.538-116.472-36.614-165.744.826-19.901-1.191-39.89.944-59.744 1.312-11.785 4.462-23.56 11.252-33.57 2.946-5.048 8.257-7.939 11.703-12.596 12.426-14.535 16.3-34.422 15.314-53.088-2.498-32.554-16.85-71.562-12.314-100.152 4.506-21.911 9.976-43.622 15.428-65.316 20.89-81.852 46.517-162.33 70.746-243.215 2.694-20.39 15.668-41.159 16.275-59.67.28-5.353-2.647-11.278-8.225-12.528-16.949-4.3-31.843 47.024-34.757 57.881-4.131 15.774-8.022 31.66-13.868 46.908-21.813 56.89-25.438 106.483-47.693 163.084-6.444 19.14-7.783 39.716-15.52 58.45-1.336 3.064-2.963 6.029-5.037 8.656-17.826-80.511 76.07-335.345 38.94-376.572-.88-.616-1.72-.89-2.523-.862zm.457 20.578c2.169.888.237 4.231.62 6.165-2.956 35.98-7.16 71.77-12.962 107.527-6.19 38.144-17.632 77.239-23.541 115.393-5.45 38.675-8.366 76.666-14.272 115.263-4.169 30.528-7.216 60.978-6.754 91.926-1.023 20.581-5.06 40.975-6.359 61.61.038 2.517-.72 6.524 2.367 7.495 2.703.276 2.85-2.394 3.059-4.427 22.43-139.196 67.256-273.437 108.09-408.086 4.324-16.855 9.382-34.179 16.8-48.569 2.505-4.4 4.862-9.112 8.72-12.496 1.136 9.326-2.353 18.373-4.55 27.3-7.675 28.582-16.101 56.909-26.529 84.509-7.929 27.904-16.797 55.542-24 83.648-21.303 75.339-44.66 150.562-55.332 228.358-2.036 19.299-8.722 37.924-9.287 57.396-2.802 18.03 14.46 16.399 19.678 4.615 4.42-10.408 3.078-22.062 2.168-33.025-.949-11.704-3.334-23.315-1.95-34.994.841-4.404 1.99-8.777 3.55-12.985.132 20.942 7.44 37.355 11.028 54.383 4.301 14.983 1.068 31.1-5.83 44.778-8.433 17.322-25.783 30.468-29.921 49.246-7.901 35.848-6.31 73.862.958 110.19 1.538 7.278 3.484 14.455 4.762 21.79 8.913 42.997 23.97 84.668 29.174 128.38 1.751 15.2 2.286 31.026.709 46.343-1.115 9.563-2.525 19.457-5.686 28.693-7.384 18.316-13.807 37.688-26.869 52.912-22.822 22.103-83.222 17.322-94.394 2.188-19.947-27.02-27.433-61.911-26.438-95.149-.98-37.657 9.617-74.307 21.418-109.79 12.59-38.226 26.789-76.588 29.866-117.047 1.121-17.25 3.529-34.504 2.408-51.829-.971-19.159-6.533-38.86-19.672-53.318-8.227-8.252-12.13-17.072-13.502-28.348-.934-17.715 6.816-34.148 12.072-50.607 13.226-40.226 5.663-68.253-3.353-109.813-17.303-77.927-41.8-153.992-66.748-229.746-6.895-21.83-16.598-43.015-22.172-65.088-1.873-7.575-3.336-15.507-3.713-23.431 16 26.749 23.008 57.448 32.222 86.896 16.77 42.598 30.693 86.4 42.909 130.586 9.034 25.559 13.956 52.335 22.353 78.078 11.3 48.746 24.288 97.163 31.801 146.705 3.545 20.52 2.555 41.947 9.336 61.893 1.06 1.13 2.846 6.396 3.01 2.434 1.388-5.165.013-10.535-.05-15.797-2.732-41.794-8.426-83.421-17.763-124.254-7.092-104.883-20.354-209.22-34.845-313.295-.767-24.513-9.265-48.024-8.97-72.6.166-4.558.674-9.15 2.096-13.502 9.346 40.683 14.385 82.254 20.565 123.612 4.616 38.662 12.478 76.883 16.21 115.619 5.445 44.522 9.092 89.266 15.36 133.681.843 39.53 5.754 78.807 9.356 118.141 2.059 29.17-.618 58.763 1.728 88.041 2.487 21.756 3.975-5.812 4.477-9.867 3.328-69.245 7.72-138.53 16.62-207.293 12.007-104.883 26.227-209.513 44.727-313.438 4.146-16.79 4.905-34.38 10.604-50.796 2.098-2.252 2.432-5.649 4.64-6.204zM346.459 507.5c-.35.146-.899 1.156-1.557 2.633l-1.718 3.195v.002c-5.249 11.192-8.286 23.381-9.8 35.623.289 6.192-.083 38.926 10.796 31.684 7.575-4.883 9.528-14.618 9.052-23.037-.645-16.044-6.738-31.413-6.418-47.547.143-1.98-.006-2.699-.355-2.553zm46.258 165.59c-5.55 1.548-7.637 73.699-8.727 85.517-1.845-8.38-5.774-2.828-6.127.784-2.085-12.237 2.374-94.87-5.806-73.356-10.212 52.633-16.895 106.204-34.203 157.192-3.92 12.044-7.204 24.302-10.252 36.593-5.255 21.902-4.028 48.029 2.507 70.031 4.14 13.173 14.005 25.719 19.827 21.592 17.799-12.618 4.948-24.188-1.108-40.453-9.383-25.2 8.078-56.997 13.879-75.63 5.115-11.62 5.548-23.756 8.447-35.098.755 10.567.378 21.19.666 31.781.116 18.333-7.271 37.319-1.943 54.814 8.786 28.851 13.537-18.373 14.662-28.968.603-5.677.288-11.392.162-17.1.358-12.254.207-24.553 1.512-36.756l.377 1.453c5.272 31.116 20.422 78.198 15.983 104.264-1.048 31.829-17.189 31.826 1.395 43.012 7.817 4.705 14.089-9.818 17.92-17.96 6.401-13.597 6.81-29.033 6.483-43.786-.428-10.097-1.053-20.232-2.514-30.229-14.045-67.98-27.49-136.442-31.304-205.766-.651-1.495-1.262-2.091-1.836-1.931z" transform="translate(15.06 -.345) scale(.0999)"/></svg>