<svg width="400" height="400" viewBox="0 0 105.833 105.833" xmlns="http://www.w3.org/2000/svg"><path style="fill:#000;stroke-width:.759575" d="M396.613 76.514c-14.467.3-27.928 8.364-37.314 19.23-14.388 16.657-21.838 37.902-27.705 58.766-1.774 6.308-4.084 12.594-4.828 19.086-.748 6.52.397 13.129-2.207 19.256-.596 1.4-2.492-2.018-3.08-3.059-7.066-12.494-11.377-26.227-17.4-39.318-2.56-5.562-5.795-10.725-9.284-15.727-11.017-15.796-24.437-30.437-41.184-40.201-10.175-5.933-23.01-9.516-34.414-4.895-7.587 3.075-15.262 8.458-17.826 16.108-8.554 25.52-12.957 53.17-9.084 80.183.533 3.718 4.968 13.612 2.227 11.043-18.343-17.188-31.742-39.767-53.233-53.615-18.092-11.658-41.046-24.666-59.205-17.424-25.777 10.281-28.381 32.72-27.504 57.057 1.228 34.045 4.376 67.877 16.533 99.379 9.068 23.495 21.074 45.684 31.887 68.388 12.614 26.485 33.432 47.466 52.09 69.575 9.512 11.184 18.47 22.989 25.139 36.12 9.589 98.45-2.647 197.787 6.902 296.329 2.046 17.48 2.528 35.095 3.871 52.639 2.593 38.238 6.726 76.623 17.227 113.591 13.749 46.972 25.836 88.644 45.8 126.141 5.772 12.798 17.313 22.823 30.934 26.375 18.946 5.165 39.125 1.09 56.975-6.113 3.397-1.287 6.512-3.513 10.302-3.17 44.685-2.99 89.884-7.286 134.301.543 15.34 2.68 30.354 7.112 44.754 12.998 12.266 3.493 25.925.431 35.774-7.59 8.535-6.77 15.161-15.912 19.455-25.879 19.345-51.616 35.903-104.816 41.804-159.826 12.042-82.532 9.117-166.178 8.914-249.313-.235-48.366-9.588-96.4-5.166-144.767 1.605-17.287 5.005-33.963 11.23-50.291 2.447-6.46 5.174-12.849 9.304-18.434 37.01-57.114 71.917-116.446 93.822-181.162 8.02-23.693 15.559-48.213 15.248-73.5-.123-16.818-5.105-34.494-17.434-46.367-13.853-13.341-55.45-2.283-68.08 4.15-17.839 9.086-33.648 21.953-46.933 36.842-4.307 4.826-12.408 21.884-16.141 9.8-4.582-14.83-2.87-31.05-8.182-45.75-5.712-15.81-8.747-30.311-23.152-37.911-19.737-10.413-47.66-8.592-62.338 8.219-77.433 100.278-15.82 85.218-79.887 6.421-12.488-14.837-25.88-24.28-42.912-23.927zm4.09 10.976a18.39 18.39 0 0 1 13.445 5.324c21.267 21.082 34.476 49.14 40.467 78.112 2.977 14.397 2.239 29.824 8.162 43.4 6.102 13.983 12.03 3.996 15.526-5.027 3.66-9.451 4.948-19.654 7.644-29.422 2.88-10.432 4.756-21.627 10.727-30.678 11.259-17.067 21.554-35.207 37.576-48.385 5.793-4.764 12.481-9.135 20.227-9.816 9.811-.863 21.493 1.473 26.64 10.547 3.571 6.295 5.781 13.311 8.117 20.162 6.166 18.082 9.338 36.882 8.737 56.027-.65 20.68-12.196 42.474-7.487 60.606 2.829 10.89 13.397-13.268 15.75-19.688 6.697-18.266 19.577-33.157 31.608-48.308 9.79-12.33 21.434-23.132 34.703-30.992 10.503-6.223 21.568-11.513 32.94-15.858 13.199-5.043 31.507.388 36.67 13.986 5.885 15.505 5.073 34.665 3.19 49.725-2.806 22.462-11.129 43.687-19.103 64.734-6.82 18.002-14.328 35.975-22.748 53.383-11.29 23.345-24.36 45.597-38.719 67.5-7.856 11.984-14.559 24.372-22.025 36.444-31.125 50.324-34.36 102.877-29.271 155.724 2.728 35.608 4.03 71.46 4.869 107.219.913 38.92-.786 77.714-2.256 113.908-.702 17.27-2.441 34.9-3.61 51.735-2.711 28.891-7.203 57.513-11.29 86.246-5.468 19.408-8.957 39.612-17.307 57.838-11.33 26.823-18.847 55.83-36.438 79.544-1.373 1.55-2.469 3.913-4.168 4.811-4.09-.646-6.307-1.177-10.295-2.258 14.929-19.38 26.408-52.63 31.58-77.666 13.685-66.245 17.487-133.619 28.038-190.789 5.807 2.026 14.85 1.504 17.168-16.648 1.222-41.239-1.412-84.681-1.17-122.535-1.691-19.223.982-47.193-20.522-47.485-15.4 9.262-15.773 52.058-16.724 74.264 1.682 52.96-15.043 87.19 12.574 109.669-25.565 197.323-39.379 234.087-59.76 268.298-6.393-1.764-6.424-1.606-12.75-3.575 12.894-34.035 20.111-70.659 28.701-105.832 10.883-44.56-2.559-93.068 4.82-135.607 3.932-17.967 8.063-36.007 11.253-54.106 3.818-21.666 6.237-43.42 4.648-65.289-.98-21.512-1.062-43.447-7.271-64.254-2.69-8.347-6.888-17.686-15.606-21.128-2.1-.815-4.375-1.138-6.621-1.067-3.17.322-7.721-.066-9.28 2.826-7.336-.841-11.429-7.526-15.177 7.575-3.657 14.732-7.77 36.027-11.049 58.646-8.201 56.568-10.54 122.121 17.256 119.178 23.16-2.453 19.896 20.024 18.559 50.974-1.804 43.829 1.938 83.524-5.694 123.678-4.49 27.91-12.274 55.378-20.63 82.516-16.91-2.5-42.045-10.646-55.087-10.186-7.134-36.36-1.727-73.798-3.59-108.773 2.42-44.035-2.591-86.485 2.778-136.192 1.05-9.714 21.875-11.043 25.84-22.326 6.627-19.334 7.764-40.115 6.748-60.39-2.325-15.824-1.52-31.84-2.322-47.86-.225-4.495-.676-9.429-1.268-14.472-1.42-12.093-3.997-24.949-8.703-34.85-5.276-10.545-16.9-14.11-27.274-14.441-.756-.025-1.549-.18-2.289-.17-8.275.85-13.44 8.6-16.527 15.584-4.892 11.313-10.352 33.033-12.314 50.127-4.03 35.093-7.876 71.852 1.298 105.964 9.902 36.815 26.289-17.478 27.756 58.233 3.943 73.055-5.015 142.284-.334 211.574-13.567.814-26.024 3.368-39.578 2.457-5.237-.477-11.349-1.706-15.82-5.2-6.054-34.883-14.24-73.496-17.684-106.19-7.505-42.667-8.708-83.468-6.031-122.235.576-5.483.935-12.942 6.205-16.494 24.024-16.532 20.72-81.018 19.197-105.977-1.006-17.441-3.326-34.77-5.297-52.111-.23-11.165-3.523-23.607-13.234-30.234-4.069-2.797-9.087-4.115-14.006-3.83v.002c-12.433.7-24.246 10.59-25.77 22.558-3.346 26.296-3.346 56.503-3.081 81.545-.5 17.673 1.482 35.39 5.056 52.686 1.89 8.385 2.543 18.047 8.479 24.34 6.031 6.393 13.376 12.294 14.388 21.25 5.265 60.327.88 116.903 13.123 171.13 1.974 8.973 11.834 54.46 10.612 66.424-9.181 4.384-19.483 6.608-29.656 6.367-3.863-.314-9.5-.961-10.409-5.566-53.594-115.68-48.443-143.882-56.582-194.541-3.064-19.073-9.253-44.219 3.602-53.084 13.629-9.4 12.113-20 14.656-31.21 2.662-11.727 3.224-30.535 4.3-45.5-2.559-36.458 2.556-90.534-24.858-110.507-45.404-33.078-45.298 41.36-47.16 63.25 3.232 81.87-8.759 112.61 37.51 134.264.014.556.027 1.114.042 1.67 4.493 45.639 10.752 95.758 19.004 135.842 5.524 26.472 15.898 51.426 26.363 76.138 4.673 10.932 9.419 21.866 12.891 33.252-5.469 2.428-26.129 8.917-32.12 6.484-19.469-23.536-33.564-51.111-43.991-79.703-3.903-17.803-12.38-34.257-16.043-52.115-2.004-15.656-7.167-30.959-8.084-46.457-11.218-36.681-10.97-75.372-14.649-113.217-4.705-53.1-2.707-106.663-5.066-159.96-.193-44.416 5.366-89.199-1.965-133.32-1.6-7.5-1.677-15.346-4.691-22.505-6.633-17.346-21.27-29.605-33.965-42.47-7.437-7.5-12.162-17.206-19.389-25.012-16.338-17.65-28.483-38.061-38.004-59.508-4.196-9.453-8.52-18.832-13.498-27.92-15.605-28.484-25.556-60.492-27.453-92.61-1.145-19.38-.657-39.221 4.64-58.095 3.66-13.034 9.823-19.223 23.09-17.74 13.07 1.46 24.262 9.05 34.989 16.074 19.281 12.626 36.585 28.92 47.41 49.435 10.564 20.022 14.117 38.786 28.85 44.594 7.86 3.099 4.01-36.194 2.63-43.447-2.835-14.902-5.312-29.868-2.943-45.035 2.789-17.856 3.14-44.098 16.16-53.301 6.844-4.837 16.329-3.616 23.352.79 15.482 9.711 27.94 23.68 37.373 38.802 9.794 15.7 18.89 31.961 25.695 49.13 6.758 17.049 8.524 36.279 17.973 51.999 8.593 14.297 11.816-42.944 12.699-52.733.46-5.098-.359-10.5 1.244-15.33 5.996-18.065 8.14-38.267 19.957-53.576 11.634-15.071 24.644-33.311 40.201-33.758zm53.86 526.27c2.593 5.528 5.047 12.152 7.275 18.99 4.006 12.295 6.98 25.516 6.598 35.977-1.186 32.359 7.334 62.78-5.51 96.324-16.34 42.673-9.984-90.825-11.893-108.719-1.133-10.627-1.685-21.259-.17-31.861.338-1.586.657-3.432 1.123-5.22.535-2.05 1.27-4.026 2.577-5.491zm-95.33.562c28.395 37.905 24.721 144.523 3.747 173.477-2.05-31.512 1.294-70.76.538-97.613-.541-19.199-2.84-65.503-4.286-75.864zm-9.202 1.082c.17.184.299.636.38 1.416 4.382 42.578 6.733 85.388 3.839 128.02.106 12.654-.47 25.234-2.69 37.728-.305 2.855-1.062 2.749-1.562-.043-2.273-49.072-16.124-105.847-5.459-151.332 1.216-5.185 4.308-17.077 5.492-15.789zm-7.818 1.44c.11-.062.098.135-.123.748-11.127 39.021-9.877 85.785-5.43 123.127 2.84 12.01 3.56 25.218 5.885 36.67a87.447 87.447 0 0 0 2.123 7.482c-7.58-9.086-9.525-21.307-11.033-32.683-.868-32.229-6.42-69.825-1.217-100.221 1.6-10.852 3.162-21.69 7.773-31.819.25-.602 1.69-3.118 2.022-3.304zm94.412 4.601c3.621 27.235 2.239 51.75 2.328 76.72-.585 20.681-.204 41.38-.64 62.062 3.682 23.732-11.443 13.44-12.887-14.36.756-39.253 2.676-91.235 11.199-124.422zm-180.156 1.69.14 1.056c2.094 18.186 3.66 36.706 4.077 55.07.453 17.765 1.123 35.531 1.097 53.307.082 17.106-.126 34.21-.308 51.315-3.268-6.06-3.592-13.194-4.678-19.88-1.313-10.583-2.1-21.254-3.693-31.82-1.065-31.923-5.817-64.12.101-95.794a123.92 123.92 0 0 1 3.264-13.254zm11.783 1.482s11.73 8.605 11.973 8.764c21.649 14.2 15.28 136.523-4.13 152.435-7.896-50.395-7.843-161.199-7.843-161.199zm262.27 1.545c2.37 1.966 4.271 4.665 4.052 7.87 3.895 34.306 5.418 68.948 3.69 103.427-.594 11.844-1.55 23.67-2.955 35.455-.369 2.918-.733 5.837-1.104 8.754-3.02-17.878-3.03-36.1-3.32-54.32-.026-1.598-.07-3.191-.102-4.79-.102-12.676-.329-25.38-.797-38.029 1.087-9.27-.267-18.637-.556-27.93-.316-9.647-1.49-19.446.25-29.013.257-.312.28-1.752.841-1.424zm58.685.693c2.043 5.285 2.507 10.951 2.49 16.606-.118 40.01-.097 80.028.719 120.03.107 5.246.615 10.328-1.437 15.195-5.729-6.982-6.365-18.92-7.135-26.522-3.786-38.074-3.903-79.048 2.681-114.959.692-3.493 1.323-7.041 2.682-10.35zm-71.35 1.606c-.124 4.61.043 39.167-.367 43.654.452 12.715.667 25.44.934 38.162.451 21.478 1 42.952 2.705 64.373.163 3.417.316 7.123.18 10.664-4.334-13.077-6.762-26.87-8.248-40.43-.654-14.244-.829-28.543-.684-42.892.244-24.226 1.698-48.642 5.48-73.531zm-7.324 1.86c.232 17.444-1.634 43.74-2.453 65.784-.284 7.65-.447 14.814-.346 20.883.319 19.044-.718 44.513 4.342 65.102-10.2-24.342-11.067-59.64-8.762-92.516 1.562-22.26 4.534-43.436 7.22-59.254zm-263.04 1.642c-.139.92-.275 1.841-.413 2.762-6.41 46.469-1.047 93.45 4.522 139.712l1.125 9.342c-4.779-7.127-5.72-15.983-7.135-24.252-1.088-9.106-2.773-18.183-2.578-27.384-.764-30.93-4.498-62.318 2.437-92.64a130.019 130.019 0 0 1 2.041-7.54z" transform="translate(11.774 -6.303) scale(.10138)"/></svg>