<svg width="400" height="400" viewBox="0 0 105.833 105.833" xmlns="http://www.w3.org/2000/svg"><path style="fill:#000;stroke-width:.685553" d="M234.61 208.99c-44.164 91.49-38.55 199.148-39.489 243.444-.44 20.726-22.77 7.372-8.058 100.04 4.753 29.946 14.92 57.075 35.41 91.474 33.823 70.586 111.665 184.183 117.89 200.792 6.004 21.24-9.153 55.083 18.28 101.506 27.761 46.976 90.386 37.471 111.676 6.137 21.04-30.967 15.75-71.684 20.164-95.755 3.242-17.676 46.827-87.425 84.511-133.981 32.132-39.602 52.551-85.91 64.294-133.448 12.096-48.972 18.248-62.761-7.486-113.36-9.132-10.956-3.198-107.205-10.173-140.044-13.539-63.74-39.597-132.257-79.18-177.68-94.713-107.35-249.16-66.549-307.84 50.875zm281.326-56.385c54.812 52.367 82.706 125.836 89.818 185.436 4.988 41.797 15.277 88.679 4.446 125.829-33.61 115.287-339.047 89.63-379.573 32.288-39.648-56.098-23.336-145.593-11.621-205.687 4.865-24.96 27.043-82.149 48.476-111.541 63.39-75.824 178.661-89.62 248.454-26.325zM204.369 485.581c53.552 77.56 179.628 82.813 257.113 72.257 63.398-8.637 106.242-32.77 158.208-74.452 18.558 5.155 10.69 45.314 2.659 43.56-9.454 3.64-69.485 22.524-78.812 26.48-30.271 11.506-61.41 21.324-93.5 25.033-134.205 15.513-227.522-50.236-251.76-58.532-8.948-20.087.632-37.848 6.092-34.346zm376.422 199.753c-24.159 31.373-85.751 121.704-107.293 167.32 0 0 14.082 116.396-54.296 114.473-84.097-2.366-59.26-117.717-62.258-128.145-16.581-57.68-98.27-149.735-125.715-204.904-40.595-81.603-47.238-111.175 15.317-81.207 46.122 22.095 142.57 48.154 227.125 34.813 48.625-13.77 89.585-26.813 137.861-48.327 62.666-27.927-10.733 119.396-30.741 145.977z" transform="translate(5.367 -9.25) scale(.11603)"/></svg>