<svg width="400" height="400" viewBox="0 0 105.833 105.833" xmlns="http://www.w3.org/2000/svg"><path style="fill:#000;stroke-width:.568656" d="M387.139 262.395c-3.604-.004-7.208.043-10.81.142-28.256.783-56.412 4.836-83.683 12.299-40.018 10.625-78.682 26.873-113.605 49.185-33.192 29.017-62.613 63.56-80.277 104.297-3.715 8.68-6.842 17.59-10.268 26.383C74.437 493.713 70.947 535.833 73.795 577c-1.727 32.14 7.21 63.552 16.77 93.889 3.094 11.514 6.378 23.017 11.062 34.01 13.61 33.18 34.856 62.63 58.703 89.183 38.107 44.37 91.158 74.52 147.54 88.906 26.155 6.588 53.142 10.459 80.16 9.742 66.153-.957 132.727-18.558 188.593-54.52 14.946-9.57 28.9-20.61 42.377-32.13 47.89-42.654 78.258-103.023 88.816-165.9 8.126-48.482 4.544-98.177-4.138-146.317-9.873-29.673-19.31-59.992-36.137-86.617-30.616-46.652-72.721-86.42-123.035-111.064-49.328-22.097-103.314-33.723-157.367-33.787zm4.117 22.236c15.667.2 31.176 1.195 46.799 2.865 51.697 5.977 103.116 24.305 143.863 57.568 25.496 20.037 46.988 45.068 63.496 72.786 18.78 31.445 31.421 65.934 38.195 101.91 2.21 14.785 3.269 29.82 3.948 44.642 1.38 33.774-1.099 67.676-10.055 100.36-6.467 27.922-18.281 54.8-33.73 78.539-20.636 31.697-48.391 58.894-80.19 78.635-12.87 7.502-25.482 15.512-39.01 21.812-33.965 16.204-71.333 25.381-108.808 30.031-7.562.899-15.213.525-22.809.971-36.46.804-72.808-4.83-107.19-17.281-30.415-11.056-59.241-27.46-83.44-49.223-37.123-32.78-66.596-74.207-85.329-120.049-10.241-30.897-18.73-62.538-21.969-94.996-1.44-13.884-1.53-28.075-.914-42.164.785-36.667 9.403-73.22 23.68-106.94 9.51-22.502 21.441-43.92 35.46-63.824 22.657-24.761 48.796-47.146 79.518-61.203 49.832-21.648 104.052-34.63 158.485-34.44zm89.113 86.756a81.932 81.932 0 0 0-5.248.025c-7.149.394-14.468 1.185-21.17 3.795-18.85 8.374-32.537 25.382-40.515 44.03-7.766 18.04-11.636 37.643-12.545 57.21.197 20.484-.905 41.737 6.548 61.219 3.599 9.366 9.826 17.858 18.26 23.402-14.82 22.577-19.08 50.487-17.144 77.024 4.079 28.194 7.052 54.015 18.884 77.668 10.374 19.357 29.349 42.09 50.206 51.527 21.964 6.992 54.434-2.192 69.959-13.41 15.667-11.422 27.563-27.179 37.658-43.543 22.256-37.008 31.333-80.61 31.879-123.438.168-23.276-1.66-46.63-6.194-69.474-6.087-27.982-19.237-53.712-32.353-78.934-14.27-25.301-36.068-46.844-62.727-58.783-11.171-4.966-23.267-7.988-35.498-8.318zm-190.898 4.453a72.533 72.533 0 0 0-6.62.209c-23.187 1.803-45.334 12.38-62.324 28.09-26.699 26.524-43.525 61.388-53.773 97.232-3.914 13.864-7.263 27.94-9.379 42.19-4.116 54.087 7.464 109.341 33.285 157.072 15.75 25.6 36.578 49.1 63.55 63.119 13.144 6.67 27.73 10.998 42.534 11.11 12.22-.976 22.696-8.283 32.268-15.344 32.833-33.673 41.794-75.121 43.795-117.319-1.562-18.028.861-44.61-9.504-57.908-20.136-25.832 7.964-59.623 8.802-91.227.002-14.01.25-28.202-3.025-41.92-5.051-23.317-17.532-45.488-36.871-59.855-11.859-10.072-27.275-15.229-42.738-15.45zm236.58 16.441c22.11 13.138 39.57 33.583 49.9 57.065 15.461 24.378 25.65 52.245 30.645 80.902 3.783 21.89 4.634 44.611 3.654 67.12-1.821 38.472-10.614 78.005-31.332 111.196-7.856 12.724-17.758 24.062-28.48 34.422-11.027 9.881-24.417 16.68-39.057 19.38-14.239 2.62-29.062.812-41.822-6.403-38.456-28.123-48.155-80.439-54.438-121.143-4.647-30.105 14.915-50.485 17.983-71.722.194-6.316-5.725-10.24-9.907-13.996-15.271-13.564-16.983-53.718-15.783-70.815 1.601-20.568 6.823-40.72 14.107-60.101 4-14.224 15.676-24.795 28.463-31.344 28.281-12.886 50.754-9.414 76.067 5.44zm-237.088-9.177c4.312-.078 8.626.319 12.873 1.347 21.837 4.952 39.599 21.167 50.715 40.096 9.93 18.722 14.157 40.695 14.092 61.922-2.172 17.18-5.407 43.37-14.735 55.697-4.63 6.759-7.528 14.737-8.074 23.23-.741 11.527 9.33 14.083 13.959 23.622 7.99 21.506 9.295 44.77 7.478 67.373-.825 10.21-1.736 22.802-3.492 32.886-6.31 31.983-26.284 65.422-55.308 76.635-3.52 1.398-7.483 2.276-11.1 1.736-21.591-1.09-42.249-10.082-59.213-23.546-19.69-15.567-35.153-36.493-45.642-59.004-14.387-29.622-18.716-59.203-23.56-86.22-1.295-10.9-1.243-21.945-.704-32.888 3.326-26.113 3.84-53.125 13.725-77.906 2.055-5.52 5.154-10.577 7.837-15.762 5.685-15.972 14.435-30.62 22.838-45.267 12.54-20.524 34.585-33.98 57.055-40.336 6.883-2.04 14.069-3.487 21.256-3.615zm190.254 16.183c-9.727.492-19.712 3.116-27.59 9.016-12.88 10.533-20.86 26.58-22.613 43.033-1.237 23.122-4.38 46.19-1.825 69.576 2.93 20.396 23.088 19.432 16.653 37.195-8.06 34.972-15.393 76.308-9.903 107.418 4.534 20.926 10.196 42.5 23.473 59.758 9.538 12.656 24.685 21.16 40.654 21.473 21.447.85 41.779-10.813 55.102-27.076 27.37-34.16 41.697-77.898 42.299-121.49 3.467-53.571-4.398-83.248-21.35-127.895-6.206-13.087-16.52-23.51-25.638-34.549-14.197-15.647-31.797-29.328-52.579-34.639-5.448-1.35-11.07-1.985-16.683-1.82zm-193.42 2.553c-23.063.809-44.81 14.027-57.643 32.974-34.172 46.017-51.355 104.835-45.326 162.004 2.912 29.732 9.791 68.799 33.693 102.856 9.136 12.249 20.118 23.153 32.34 32.316 13.252 9.712 28.84 16.97 45.354 18.358 12.859.817 25.087-6.148 32.885-16.057 8.437-10.45 13.633-23.252 16.015-36.408 6.164-27.635 12.553-56.094 8.627-84.535-1.887-12.762-5.827-25.492-12.834-36.366-3.923-3.824-8.825-9.226-6.486-15.128 3.35-7.07 10.231-11.67 13.951-18.54 3.586-5.659 3.601-12.497 4.967-18.847 4.262-26.635 3.138-54.932-7.889-79.881-6.607-14.672-17.069-28-30.922-36.408-8.105-4.551-17.47-6.588-26.732-6.338zm193.908 10.482c18.927-.14 36.188 10.274 49.31 23.184 6.084 6.067 11.435 12.25 15.971 19.457 10.427 21.144 18.911 43.099 25.256 65.861 3.356 17.744 7.902 35.308 10.229 53.225.655 22.128.288 44.302-4.963 65.916-6.833 24.19-15.045 48.826-30.973 68.701-10.314 12.817-24.908 22.965-41.426 25.326-9.054.794-18.279-1.653-26.142-6.053-16.268-14.495-24.306-35.807-28.332-56.728-2.405-13.902-4.243-28.013-3.768-42.148.86-20.78 5.902-40.85 12.067-60.618 8.856-17.495 12.992-37.379 25.328-52.9 23.425-28.345 38.11 9.902 37.062 30.726-1.032 17.79-6.794 35.094-14.94 50.842-8.72 15.037-15.06 32.116-14.773 49.703.158 11.548 5.12 23.408 14.881 30.03 1.894 2.179 3.5 1.461 4.969-.694 5.808-6.614 4.565-16.066 3.432-24.091-1.231-9.083-3.304-18.675.207-27.61 1.089-3.575 4.074-6.016 5.882-9.113 11.967-23.445 21.527-49.055 21.475-75.707-.118-18.415-5.979-37.215-18.24-51.178-6.628-7.403-17.19-10.92-26.906-8.662-14.36 3.174-26.105 13.755-33.739 25.973-4.81 7.05-5.762 16.209-11.66 22.558-1.669 2.111-4.243.447-5.117-1.506-4.448-8.142-5.376-17.709-5.643-26.836-.034-6.02 1.42-11.908 1.36-17.937.834-15.783.561-32.09 6.476-47.096 4.346-11.342 14.596-21.077 27.026-22.24a59.76 59.76 0 0 1 5.691-.385zm-189.303 3.332c11.432.307 22.174 6.579 29.073 15.588 7.77 9.73 12.402 21.715 15.214 33.438 2.823 11.182 2.919 22.938 3.739 34.254.432 12.068.726 25.105-5.682 35.832-2.165 3.412-5.224 6.246-8.836 8.068-7.59-16.713-10.486-35.65-21.375-50.783-5.348-7.679-14.377-13.01-23.902-12.426-3.981.194-8.093.833-11.733 2.404-14.435 11.445-22.489 29.393-24.209 47.48-1.91 19.11 1.549 38.628 8.957 56.282 10.062 20.516 18.025 43.193 16.403 66.223-.404 5.983-1.53 11.522-3.137 17.236 6.239 1.908 14 2.202 18.867-2.887 6.199-6.646 6.622-16.458 6.356-25.062a110.605 110.605 0 0 0-10.87-41.916c-6.32-17.415-13.426-35.112-15.017-53.576-.386-4.905-.373-10.317.355-15.2.986-7.313 3.508-14.416 7.395-20.691 4.838-2.712 11.646-4.966 16.314-.73 5.756 5.739 7.352 14.154 9.627 21.66 3.26 11.257 5.58 23.576 13.649 32.574 1.841 2.094 4.33 3.507 6.611 4.945 9.178 11.797 14.964 26.242 17.666 40.514 4.078 21.421 2.717 43.323-.853 64.752-3.502 16.605-5.299 34.168-14.713 48.603-5.368 8.044-14.187 14.397-23.998 15.016-8.858.153-17.382-2.996-25.461-6.334-25.865-11.66-44.93-34.82-56.547-60.215-5.556-11.68-8.848-24.23-11.824-36.762-10.55-43.055-9.816-89.01 4.42-131.308 5.935-17.19 13.905-33.836 23.841-48.94 10.547-15.806 24.89-30.47 43.631-35.85a59.406 59.406 0 0 1 13.744-2.17 32.55 32.55 0 0 1 2.295-.019z" transform="translate(-9.625 -38.939) scale(.15973)"/></svg>