<svg width="400" height="400" viewBox="0 0 105.833 105.833" xmlns="http://www.w3.org/2000/svg"><path style="fill:#000;stroke-width:.187103" d="M132.357 51.592c-6.082.46-10.517 2.471-15.055 4.844-1.658.75-3.015 2.068-3.953 3.615-1.204 1.952-1.858 4.17-2.604 6.321-.511 1.45-1.057 2.974-1.99 4.239-.636.862-1.51 1.566-2.535 1.905-1.893-2.7-2.878-5.904-4.653-8.674-1.08-1.712-2.52-3.227-4.299-4.216-5.7-3.277-12.19-6.06-17.83-6.001-3.165.075-6.317.782-9.191 2.114-2.707.634-5.161 2.01-7.505 3.462-2.71 1.677-5.314 3.555-8.213 4.904-2.135.82-3.99 1.478-6.033 1.413-2.477-.212-7.185-2.755-7.093 1.59.476 2.949 3.489 5.024 5.625 6.386 1.89 1.17 3.929 2.144 6.099 2.664 1.2.273 2.48.416 3.68.07.324.041.648.088.964.168-.989.566-2.057.974-3.083 1.466-1.407.67-2.841 1.368-3.983 2.45-.643.618-1.165 1.466-1.09 2.389-.027.11.106.301-.015.343-1.537.547-2.972 1.476-3.936 2.81-1.129 1.533-1.613 3.41-2.06 5.229-.294 1.222-.587 2.45-.977 3.655-.56 2.02-.773 4.148-1.661 6.066-.45.974-1.137 1.848-2.03 2.452-.495 1.693-.417 3.476-.443 5.22a41.962 41.962 0 0 1-.056 2.08c-.098 1.747-.397 3.537-1.299 5.064-.1.138.074.293.1.439.39.947.773 1.907 1.097 2.86.594 1.697.99 3.47 1.056 5.27.041.89.028 1.781.007 2.671.232.62.439 1.248.603 1.888.03.13.088.352.122.519.331 1.508.408 3.073.926 4.539.352 1.053.847 2.052 1.398 3.014-2.177 1.051-4.105 2.659-5.408 4.707-1.5 2.327-2.173 5.104-2.277 7.85-.128 3.446.536 6.882 1.61 10.146a37.798 37.798 0 0 0 1.885 4.636c.251 1.676 1.069 3.245 2.253 4.451 1.582 1.63 3.645 2.67 5.695 3.588 1.17.543 2.391.997 3.48 1.698.166.067.2.172.075.31-.721 1.5-.963 3.18-1.043 4.827-.106 2.873.35 5.775 1.383 8.46.879 2.264 2.238 4.4 4.186 5.889 1.637 1.48 3.601 2.7 5.802 3.088 5.663 1.426 9.324-3.594 10.57-8.069.71-2.643.604-5.526-.438-8.069 1.76.161 4.447 2.05 4.849 2.814.45 1.001.741 2.089.76 3.19.02.179-.075.369-.025.536.491.871.868 1.86.761 2.878-.108 1.038-.44 2.037-.56 3.073-.017.206-.222.333-.33.498-1.56 1.848-3.764 3.037-5.212 4.99-.241.323-.46.663-.654 1.016-.67.072-1.108.667-1.395 1.22-1.724 2.575-1.815 6.24-6.375 8.641a7.99 7.99 0 0 1-2.486.783c-7.357-5.6-13.587-12.547-19.058-19.968-2.615-3.547-5.073-7.226-7.409-10.94-.152-.258-.336-.506-.47-.771-.216-1.74-.58-3.514-1.488-5.038-.56-.942-1.39-1.74-2.405-2.173-.067-.149-.135-.296-.203-.444-.464-.01-.93.024-1.393.024-1.683-.19-3.366.182-4.988.6-2.713.712-5.366 1.72-8.165 2.063-1.037.124-2.084.093-3.126.134.632.385 1.286.736 1.904 1.144.287.19.471.546.363.89-.2.727-.676 1.333-1.017 1.997-.418.762-.738 1.668-.481 2.537.18.645.638 1.174 1.15 1.58-.41.202-.908.442-1.017.93-.1.435.265.807.644.95.591.261 1.24.356 1.834.608l-.648.522c.555.272 1.167.475 1.594.945.837.88 1.33 2.012 1.813 3.11.676 1.551 1.206 3.18 2.099 4.627.425.667.976 1.311 1.738 1.592-.02 1.096.31 2.167.721 3.172.834 1.969 2.21 3.778 4.102 4.828.216.12.438.23.665.325-.15.772.256 1.507.65 2.139.94 1.466 2.17 2.775 2.78 4.431.222.584.282 1.214.237 1.834-.079.234.193.153.34.185.82.066 1.644.118 2.454.267-.447.301-.98.672-1.02 1.262-.031.56.448.966.901 1.2.224.121.459.22.696.31-.119.874.39 1.681.972 2.285 1.048 1.072 2.354 1.843 3.65 2.575 2.083 1.155 4.28 2.118 6.401 3.166-.349.246-.562.738-.34 1.135.275.492.851.678 1.338.892.59.255 1.233.437 1.734.854.138.09.143.266.032.38-.307.394-.73.677-1.092 1.018 1.54.484 3.082.998 4.506 1.768a16.3 16.3 0 0 1 1.613.98c-.108.162.148.242.223.362.183.196.435.368.715.332 1.485 1.171 2.78 2.558 4.11 3.894 2.367 1.41 4.654 3.02 6.502 5.08.896 1.014 1.693 2.146 2.173 3.418.532 2.182 1.827 4.098 3.343 5.722a22.543 22.543 0 0 0 3.32 2.89c.634 1.354.422 2.91.907 4.305.432 1.367 1.422 2.475 2.53 3.347-.527.198-1.11.368-1.499.798-.29.315-.218.842.123 1.091.324.25.727.362 1.115.473-.357.121-.714.445-.647.855.07.478.561.71.953.896.478.22 1.003.398 1.464.613-.607.126-1.217.233-1.825.352.905.522 1.872.962 2.66 1.663a10.253 10.253 0 0 1 2.805 3.92c.124.308.21.63.284.953 1.578 1.328 3.444 2.291 5.415 2.89 3.056.935 6.278 1.107 9.455 1.14 3.211.033 6.426-.106 9.635.09.473.031 1.011.074 1.484.124a28.86 28.86 0 0 1 1.571.206c.55.117 1.114.066 1.672.09 15.022-.667 11.907.032 21.555-1.893 2.983-.577 5.908-1.422 8.775-2.42.963-.314 1.905-.686 2.851-1.046-.87-.16-1.743-.298-2.612-.461-.57-.14-1.223-.334-1.535-.878-.255-.499-.125-1.082-.28-1.606.69-.126 1.408-.211 2.04-.534.37-.175.605-.634.422-1.021-.238-.488-.766-.724-1.175-1.045-.32-.25-.722-.512-.797-.942-.01-.346.252-.622.475-.856.76-.1 1.558-.175 2.239-.554.41-.217.662-.725.486-1.172-.24-.63-.856-.984-1.289-1.466.827-.25 1.704-.23 2.557-.313l.73-.053c-.607-.382-1.241-.723-1.83-1.132-.074-.078-.323-.204-.126-.279.705-.42 1.561-.504 2.253-.948.33-.214.457-.699.204-1.018-.3-.384-.801-.52-1.243-.672.721-1.21 1.43-2.472 2.53-3.386.812-.703 1.805-1.162 2.834-1.45l.922-.29c-.604-.357-1.227-.682-1.812-1.07 1.01-.025 2.024.128 3.03-.004.393-.044.824-.306.834-.742.003-.51-.46-.84-.834-1.11-.08-.066-.328-.18-.089-.133.595.025 1.233.1 1.79-.16a.761.761 0 0 0 .322-1.06c-.07-.14-.124-.295-.306-.301-.956-.323-1.935-.618-2.815-1.12-.073-.071-.358-.162-.18-.254.711-.515 1.601-.851 2.09-1.62.07-.124.121-.254.26-.314.78-.561 1.324-1.388 1.665-2.275.262-.64.507-1.374 1.148-1.733.864-.486 1.887-.506 2.853-.555l1.55-.075c-.99-.536-2.019-1.008-2.973-1.61-.061-.058-.336-.173-.157-.184.69-.126 1.433-.102 2.066-.44.374-.199.548-.69.354-1.072-.169-.366-.496-.626-.81-.866 1.035-.834 1.867-1.884 2.614-2.975.588-.84 1.228-1.688 2.11-2.236 1.284-.51 2.293-1.53 3.028-2.677 1.024-1.546 1.67-3.336 2.904-4.742a5.093 5.093 0 0 1 2.085-1.432c.934-1.034 1.7-2.21 2.336-3.447.539-1.044 1.122-2.094 1.995-2.9 3.761-2.464 5.73-6.864 8.156-10.023.978-1.247 2.143-2.525 3.187-3.486.573-1.145 1.258-2.246 1.973-3.286 2.14-3.115 4.668-5.977 6.463-9.322 1.454-2.403 4.015-4.193 5.45-6.13.173-.232.33-.475.494-.714-.178-1.014-.736-1.907-1.298-2.75-1.377-1.987-3.118-3.711-5.065-5.14-1.925-1.404-4.104-2.484-6.43-3.034-.157-.035-.19.238-.293.337-5.828 8.253-11.033 17.305-17.524 25.234-2.899 3.281-4.839 5.922-7.725 8.521-2.281 1.13-2 3.69-5.77 2.209-1.285-.519-2.205-1.636-2.908-2.789-.294-.478-.548-.98-.82-1.47.203-.435.146-1.016-.258-1.315-.676-.503-1.61-.347-2.315-.792-.384-.26-.328-.786-.24-1.18l.142-.61c-.85-.197-1.687-.477-2.44-.927-1.8-1.047-3.196-2.632-4.536-4.195-.573-.66-1.116-1.346-1.717-1.979-.675-.656-1.338-1.445-1.455-2.414-.098-.862.413-1.65 1.011-2.219.766-.743 1.707-1.27 2.645-1.759.627-.534 1.25-1.106 2.012-1.442.105-.026.31-.147.35.024.175.503.124 1.05.116 1.573-.011.231-.032.536-.05.796-.138 1.972-.365 3.98.039 5.936.242 1.203.833 2.397 1.873 3.099.922.645 2.074.835 3.178.838 5.426-.05 9.446-2.704 12.322-6.995 1.949-2.968 3.155-6.404 3.61-9.92.2-1.585.242-3.194.08-4.785 1.616-2.953 3.634-5.656 5.433-8.495 1.712-2.688 3.3-5.515 4.121-8.615.652-2.418.746-5 .145-7.439-.14-.551-.287-1.113-.504-1.635-1.277-1.13-2.435-2.5-2.902-4.172-.455-1.58-.215-3.252.13-4.828.484-2.162 1.099-4.312 1.229-6.534a17.25 17.25 0 0 0-.032-2.597c0-.1-.012-.317-.011-.461-.018-1.813.262-3.62.723-5.371.073-.272.168-.61.261-.905a19.468 19.468 0 0 1 1.634-3.84c.307-.6.368-1.37-.035-1.941-.523-.775-1.46-1.06-2.195-1.576-.173-.112-.378-.317-.246-.536.3-.59.85-.998 1.351-1.411.105-.107.31-.205.352-.317-1.288-1.406-2.383-3.002-3.151-4.75a9.397 9.397 0 0 1-.28-.727c.127-.14.072-.282-.02-.424-.088-.2-.242-.368-.25-.597-.187-.93-.148-1.991.474-2.758.527-.673 1.349-.996 2.134-1.26l.566-.205c-.87-.595-1.75-1.187-2.506-1.926-.903-.855-1.697-1.85-2.426-2.833-1.336-1.817-2.628-3.704-4.351-5.184-.104-.093-.212-.181-.32-.27.526-.41 1.109-.813 1.419-1.423.223-.423.068-.971-.323-1.237-.604-.427-1.344-.59-2-.92-.873-.401-1.71-1.027-2.082-1.943-1.206-2.356-2.925-4.416-4.831-6.238-1.779-1.675-3.754-3.16-5.927-4.286.477-.288 1.073-.402 1.585-.525 2.09-.425 4.22-.667 6.32-1.097 2.045-.418 4.107-.933 5.943-1.956 2.378-1.52 4.22-4.802 4.728-7.268.313-2.476-.845-4.107-3.29-4.098-2.126.059-3.693 1.02-5.38 1.733-2.29.458-4.684.273-6.908-.416-3.04-.93-5.764-2.619-8.454-4.272-2.851-1.758-5.72-3.575-8.92-4.632-2.184-.732-4.504-.994-6.8-.972zm.825 2.081c2.94.028 5.922.682 8.142 1.873 4.223 2.21 8.277 4.78 12.734 6.512 2.886 1.123 5.976 1.86 9.089 1.705a16.898 16.898 0 0 0 6.503-1.661c.408 1.39.358 2.936-.28 4.25-.77 1.62-2.194 2.82-3.708 3.724-2.996 1.51-5.827 2.432-8.814 2.675-2.04.336-4.128.152-6.143-.259-4.275-.871-8.321-2.641-12.64-3.32-2.255-.349-4.612-.34-6.791.399-1.968.648-3.707 1.87-5.138 3.352-1.252.825.963.868 1.523.846 1.568-.05 3.11-.38 4.654-.63 2.54-.426 5.12-.834 7.703-.636 1.544.123 3.108.507 4.397 1.397 1.374.242 2.727.64 3.978 1.264a12.958 12.958 0 0 1 1.24.706c1.403.887 2.572 2.087 3.934 3.03.854.593 1.823 1.033 2.85 1.212-.388.86-.169 1.85.184 2.683.632 1.434 1.69 2.67 2.976 3.56.422.286.873.53 1.35.708-.378.302-.723.79-.564 1.295.187.56.799.783 1.314.937.086.041.414.077.34.113l-1.361.352c.724.302 1.47.553 2.177.895.092.076.335.133.298.264-.221.34-.316.81-.06 1.158.095.145.226.262.367.361-.275.36-.187.897.154 1.182.385.345.89.512 1.369.684-.46.05-.918.095-1.365.218l-1.08.24c.589.233 1.16.513 1.76.714.318.095.699.17.979.262-.702.367-1.073 1.098-1.501 1.725.853.135 1.736.387 2.596.155-.272.177-.5.313-.782.466-.444.228-.795.595-1.196.888-.05.074-.41.256-.233.249.53-.011 1.062.014 1.589-.02l.771-.134a3.099 3.099 0 0 0-.854 1.684l-.12.525 1.183-.18c-.352.246-.624.72-.418 1.142.235.485.809.638 1.291.76.081.066.465.012.254.099-.379.253-.846.538-.907 1.035-.022.388.309.693.671.758.102.044.295.022.355.074-.135.407.109.821.424 1.068-.213-.038-.269.093-.271.282-.119.413-.039.894.292 1.189.28.27.66.4 1.029.49-.548.166-1.108.301-1.624.557l-1.002.431c.607.12 1.207.288 1.819.378.607.062 1.22.122 1.81.286-.494.377-1.115.653-1.427 1.217-.225.402-.047.921.328 1.162-.323.167-.448.61-.238.912.286.405.78.579 1.18.85.163.103.328.208.466.345-.597.364-1.309.456-1.97.65l-1.209.312c1.258.347 2.519.682 3.774 1.039-1.118.206-2.195.575-3.286.884l2.731.858c-.74.238-1.399.763-1.715 1.484l-.285.54c.856.139 1.718.248 2.564.438-.658.233-1.374.383-1.931.824-.314.252-.422.733-.186 1.072.324.456.888.639 1.391.826-.435.193-.969.364-1.17.838-.144.385.123.79.478.94.15.061-.208.093-.258.166-.344.155-.554.584-.377.938.25.453.79.6 1.235.79l.516.194c-.517.083-1.016.126-1.548.178l-1.163.114c.57.49 1.078 1.08 1.771 1.402.138.071.28.135.422.196l-2.422.172c.847.569 1.646 1.223 2.583 1.642l-3.726.378c1.205.512 2.4 1.049 3.62 1.525a75.186 75.186 0 0 0-3.19.437c.46.534.87 1.135 1.49 1.502.066.065.419.188.193.184l-2.446.23c.914.508 1.778 1.13 2.785 1.448.195.056-.224.068-.304.104-1.066.208-2.129.43-3.192.65 1.032.329 2.062.664 3.098.978-1.402.177-2.808.363-4.208.579 1.046.416 2.092.833 3.149 1.22a5.432 5.432 0 0 0-2.237.948l-1.204.799 2.23.013c-.526.217-1.085.367-1.558.695-1.495.969-2.875 2.1-4.248 3.23-.915.767-1.827 1.54-2.69 2.364-4.283 5.061-9.545 7.278-15.728 6.816-.117-.013-.331-.03-.487-.046-3.98-.418-7.797-1.845-11.286-3.768-.663-.35-1.464-.65-2.208-.38-.622.224-.956.891-.98 1.522-.053 1.095.376 2.149.893 3.093 1.655 2.914 4.664 4.993 7.957 5.577 1.092.204 2.21.237 3.316.164 3.22.144 6.425-.531 9.459-1.569 4.188-1.453 8.11-3.613 11.704-6.198 3.244-2.355 6.25-5.075 8.726-8.237a28.346 28.346 0 0 0 1.585-2.243c1.58.756 2.863 2.078 3.62 3.652.526 2.476 2.063 3.836.831 8.788-.026.124-.064.342-.098.502a21.825 21.825 0 0 1-1.273 4.064c-1.776 2.748-3.676 7.035-5.714 9.07-.637.628-1.509 1.058-2.419 1.003-1.212-.065-2.304-.677-3.325-1.282a31.215 31.215 0 0 1-.556-.345c-1.68-1.055-3.33-2.294-5.262-2.888l-.508-.15c-.697.94-1.402 1.96-1.539 3.153-.11.846.249 1.721.909 2.259.881.737 2.027 1.045 3.134 1.257 1.727.319 3.488.355 5.24.412 1.082 1.114 1.625 2.654 1.759 4.181.014.146.03.38.035.561.07 2.394-.587 4.758-1.58 6.92-1.221 2.611-2.976 5.007-5.247 6.801-1.662 1.305-3.677 2.27-5.817 2.346-1.142.019-2.347-.075-3.353-.665-.774-.446-1.248-1.28-1.409-2.141-.285-1.493-.054-3.018.13-4.508.182-1.469.45-2.954.275-4.436-.102-.92-.51-1.86-1.314-2.373-.84-.543-1.888-.62-2.86-.54-1.59.276-3.226.52-4.67 1.28a5.639 5.639 0 0 0-1.965 1.725c-.507.507-1.031 1.128-1.03 1.885.009.272.103.54.267.757-.368.02-.734.05-1.086.167l-1.071.274c.508.219 1.005.47 1.52.668.498.14 1.036.254 1.441.593.059.118-.128.236-.197.329-.581.56-1.353.896-1.877 1.517-.266.312-.283.823.036 1.105.289.275.699.36 1.078.432-.416.582-.83 1.283-.677 2.027.155.71.818 1.153 1.458 1.393.178.056.353.181.539.082l.498-.128c-.3.203-.604.564-.457.947.065.238.332.383.528.43-.284.177-.581.456-.528.822.043.316.364.517.67.526.545.033 1.094-.066 1.635-.07-.159.162-.412.248-.462.49-.176.357-.069.853.314 1.025.399.18.85.056 1.252-.046-.254.21-.58.353-.733.661l-.575.852c.441-.074.89-.125 1.327-.213.55-.297 1.103-.59 1.687-.814-.255.468-.631.878-.784 1.396a.644.644 0 0 0 .18.587c.236.199.586.162.847.022.102-.045-.026.218.006.302-.037.451.326.892.787.901.302.022.599-.081.868-.21-.114.38.068.843.46.973.459.154.94-.034 1.375-.18l-1.533 1.395 3.825-.829c-.354.64-.276 1.452.122 2.052.149.238.333.45.499.676.32-.167.65-.47 1.038-.335.627.222 1.1.721 1.586 1.155 1.207 1.146 2.44 2.293 3.897 3.118.67.39 1.382.698 2.11.96 6.477-5.41 11.985-11.875 16.99-18.645 3.381-4.576 6.537-9.314 9.64-14.082 1.056-3.938 4.265-5.259 6.113-4.63 1.762.674 3.309 1.857 4.521 3.292.772.948 1.455 2.044 1.608 3.28a2.72 2.72 0 0 1-.253 1.515c-.739 2.48-3.127 4.283-3.878 6.45-.99 2.685-3.744 5.246-5.261 7.6-1.432 2.22-2.793 4.513-4.597 6.46-1.04 1.095-2.02 2.315-2.92 3.551-1.929 2.642-3.642 5.478-6.006 7.77a19.536 19.536 0 0 1-1.84 1.584c-.204.167-.459.283-.569.536-.942 1.496-1.942 2.961-3.119 4.284a94.523 94.523 0 0 0-2.107 2.504c-1.199.968-2.271 2.078-3.334 3.19-.728.75-1.508 1.508-2.342 2.164-.404.331-.842.625-1.256.937-1.032 1.501-2.014 3.09-3.452 4.244-.716.591-1.57.968-2.409 1.346-.181.064.181.181.242.269.526.387 1.089.746 1.554 1.2-.745.159-1.585.255-2.136.84-.077.12-.164.205-.315.194-.542.073-1.177.277-1.392.835-.211.552.108 1.11.378 1.58.03.087.211.268.02.236-1 .006-1.978-.24-2.962-.384-.128-.01-.381-.086-.436-.056.515.582 1.085 1.118 1.554 1.739.242.314.4.749.212 1.13-.2.464-.54.847-.867 1.225-.787-.624-2.159-.73-3-.484-.369.106-.613.534-.451.896.14.331.472.52.771.69-.632.039-1.299.026-1.885.3-.351.17-.516.648-.287.978.292.432.817.608 1.27.819.07.044-.261.013-.352.03-.662.037-1.35.035-1.975.279-.378.132-.622.589-.432.962.258.472.806.658 1.268.868.548.228 1.13.424 1.68.608-.511.033-1.096.028-1.5.389-.33.296-.27.825.012 1.133.22.277.505.494.769.728-.918-.044-1.85-.122-2.76.044-.16.101-.199-.033-.28-.146-.37-.392-.913-.564-1.425-.68-.366-.084-.856-.052-1.046.322-.2.352.028.763.296 1.01.213.216.46.395.699.58.322-.009.649-.005.965-.077.082.27.293.473.506.645-.894-.185-1.788-.414-2.703-.455-.347-.025-.755.115-.855.483-.099.4.228.728.537.924.283.199.586.369.888.538-.496-.076-1-.22-1.503-.148a.62.62 0 0 0-.457.423c-.07.3.132.59.376.754.303.235.64.43.913.7-.28.108-.578.155-.873.195-.08-.337-.47-.469-.783-.414-.34.043-.684.118-1.006.223-.19.17-.396.334-.53.555.12.063.37.13.407.191-.165.071-.37.113-.512.201.016.36.39.6.73.54.31-.043.602-.163.883-.295.365.185.788.158 1.18.247.434.069.867.146 1.296.237-1.418.208-2.852.281-4.282.326l-1.506.315c.491.242.968.52 1.468.738.575.173 1.15.344 1.72.533-.52.052-1.126.095-1.67.134a7.649 7.649 0 0 0-1.376.176l-1.001.188c.568.25 1.12.543 1.7.766.368.119.736.246 1.115.39.504.194 1.004.403 1.476.666-1.602-.101-3.15-.554-4.712-.892.474.504.913 1.042 1.41 1.524.292.253.629.45.979.613-.688.05-1.38.05-2.058.189l-1.074.172c.595.269 1.17.584 1.78.821.366.132.741.267 1.098.41-.51.074-1.115.132-1.449.576a.806.806 0 0 0-.077.784c-.31.264-.35.802-.01 1.06.4.307.939.289 1.418.326.501.02 1.004.012 1.505.01-.298.085-.586.24-.905.198-.846.012-1.702-.021-2.537.141-.348.056-.696.345-.643.726.056.437.518.621.878.762.659.249 1.337.44 2.003.664-.564.051-1.13.07-1.697.093a4.581 4.581 0 0 1-1.063 1.522c-.735.72-1.598 1.298-2.498 1.791-.118.06-.317.17-.468.243-7.17 2.768-15.398 2.222-22.802 1.956a149.851 149.851 0 0 1-3.701-.177c-2.86-.137-5.723-.123-8.575-.278a60.846 60.846 0 0 1-1.571-.104c-2.101-.174-4.214-.474-6.238-1.131-2.07-.668-4.033-1.783-5.485-3.423a11.07 11.07 0 0 1-.587-.711c.437-.106.958-.295 1.094-.772.12-.454-.229-.856-.587-1.084-.656-.433-1.393-.72-2.094-1.071.224-.021.397-.026.629-.04.347-.166.664-.508.599-.92-.093-.549-.62-.853-1.043-1.14-.063-.07-.443-.213-.207-.21.474-.054.956-.021 1.429-.068l1.447-.274c-.492-.25-.97-.534-1.471-.764-.73-.24-1.474-.464-2.154-.831.39-.19.906-.37 1.007-.849.1-.43-.265-.789-.623-.96-.333-.182-.714-.305-1.059-.43.429-.267.95-.585 1.007-1.137.034-.465-.379-.804-.786-.93a4.345 4.345 0 0 0-.7-.176c.06-.467-.366-.788-.72-1-.287-.172-.584-.327-.876-.49.834-.077 1.67-.121 2.505-.185-1.066-.578-2.168-1.094-3.197-1.738-.075-.07.232-.093.298-.164.405-.181.647-.663.5-1.091-.223-.627-.776-1.05-1.266-1.466a1.141 1.141 0 0 0-.554-.301c-.345-.115-.722-.225-1.046-.343.5-.304.732-.928.62-1.493-.084-.534-.363-1.008-.614-1.477-.4-.509-1.025-.761-1.591-1.039-.655-.298-1.323-.563-1.978-.858.365-.003.69-.2 1.036-.298l.544-.192c-.452-.191-.895-.417-1.354-.586-.424-.065-.85-.13-1.262-.25.45-.407.906-.936.86-1.585-.042-.677-.558-1.183-1.047-1.596-1.364-1.272-2.451-2.798-3.673-4.2-1.261-1.462-2.665-2.853-4.38-3.773-1.648-2.045-3.81-3.588-6.022-4.966-.97-.614-1.955-1.204-2.883-1.88-.032-.03.135-.187.151-.277.194-.42-.024-.915-.39-1.16-.514-.368-1.135-.539-1.737-.702-1.588-1.938-3.258-3.875-5.382-5.245a9.699 9.699 0 0 0-1.727-.885c.299-.136.47-.531.287-.821-.215-.373-.703-.388-1.084-.44-.986-.102-1.977-.12-2.966-.154.688-.104 1.394-.168 2.051-.412.32-.117.545-.49.401-.818-.188-.417-.7-.47-1.095-.557-.945-.165-1.902-.255-2.854-.372.457-.066 1.017-.183 1.22-.653.187-.417-.113-.863-.468-1.077-.754-.476-1.643-.676-2.508-.846a15.421 15.421 0 0 0-2.333-.235c.802-.252 1.647-.361 2.434-.663.294-.113.555-.406.488-.737-.06-.381-.463-.559-.8-.645-.29-.084-.615-.137-.891-.196.41-.185.792-.601.697-1.082-.11-.559-.655-.873-1.122-1.114-.562-.28-1.156-.485-1.755-.671.33-.088.641-.405.55-.766-.083-.408-.537-.55-.894-.629-.215-.004-.09-.085-.005-.202.245-.347.07-.83-.264-1.05-.349-.252-.76-.396-1.165-.533.347-.256.368-.795.074-1.1-.46-.49-1.14-.68-1.77-.847a8.013 8.013 0 0 0-.702-.13c.322-.138.688-.406.646-.798-.019-.394-.425-.601-.77-.667a6.33 6.33 0 0 0-.66-.111.632.632 0 0 0-.044-.934c-.404-.317-.934-.398-1.418-.53-.17-.043-.34-.08-.512-.118.377-.085.808-.337.81-.77.019-.417-.364-.698-.704-.857.352-.044.784-.164.892-.548.103-.319-.122-.648-.404-.792-.7-.368-1.48-.548-2.23-.781.428-.059.907-.053 1.266-.323.311-.234.272-.747-.051-.954-.446-.287-.988-.36-1.493-.494-.378-.087-.757-.165-1.136-.247.888-.034 1.776-.052 2.663-.08-.745-.598-1.43-1.301-2.313-1.703-1.01-.51-2.141-.67-3.211-1.005-.393-.128-.852-.358-.902-.82-.055-.353.033-.706.077-1.056-.883-.433-1.806-.824-2.577-1.448.073-.06.284-.07.413-.096.668-.087 1.323-.09 1.985-.104.458-.028.943.033 1.377-.146a.595.595 0 0 0 .28-.359c.087-.315-.147-.623-.439-.73-.806-.315-1.66-.488-2.496-.704-.471-.089-.952-.121-1.425-.197.792-.098 1.602-.138 2.37-.367.332-.088.63-.407.542-.768-.09-.417-.552-.56-.915-.663-.43-.13-.876-.171-1.318-.237.397-.063.887-.054 1.15-.407.209-.302.04-.737-.293-.866-.103-.057-.283-.06-.112-.179.291-.382.053-.94-.338-1.152-.366-.237-.906-.099-1.093.3-.111.195-.13.423-.155.642-.76-.117-1.513-.3-2.242-.543.537-.24 1.165-.383 1.559-.85a.779.779 0 0 0 0-.96c-.027-.666.467-1.205.932-1.621 1.118-.947 2.48-1.543 3.836-2.06 2.147-.782 4.391-1.316 6.668-1.526.36-.061.714.058 1.057.158 4.638 10.404 11.253 19.844 18.92 28.235a137.11 137.11 0 0 0 7.1 7.211c.893 1.391 1.98 2.736 3.464 3.526a5.042 5.042 0 0 0 3.55.439c1.63-.389 3.042-1.354 4.347-2.368 1.737-1.355 3.323-2.899 5.112-4.187 1.283-1.334 2.514-2.794 3.153-4.558.227-.595.414-1.212.75-1.758.89.057 1.867-.157 2.48-.85.69-.767.83-1.834.975-2.815.086-.468.11-.982.394-1.382.122-.175.37-.123.53-.205.819-1.042 1.372-2.372 1.228-3.715a3.028 3.028 0 0 0-.796-1.763c.55-.215.978-.75.972-1.355.001-.839-.437-1.588-.722-2.354-.237-.614-.473-1.31-.22-1.957.095-.172-.123-.293-.19-.438-.959-1.322-2.26-2.375-3.682-3.164-1.57-.856-3.411-1.36-5.2-1.032-.83.137-1.602.498-2.321.925-.021.117.115.29.152.427.827 1.9 1.09 3.999 1.076 6.057-.04 2.291-.44 4.899-1.455 6.97-.951 1.667-2.64 2.772-3.835 2.994-.652.201-1.93.268-3.744-.143-.176-.062-.397-.153-.536-.21-1.087-.468-2.109-1.079-3.068-1.768-2.355-1.755-4.129-4.231-5.193-6.958-.03-.085-.106-.285-.154-.415-.904-2.546-1.198-5.37-.48-8a9.578 9.578 0 0 1 3.367-5.07 10.893 10.893 0 0 1 2.432-1.433c1.177-.217 2.376-.41 3.485-.882.466-.204.982-.564.998-1.124.018-.574-.463-.991-.893-1.294-.983-.67-2.069-1.169-3.104-1.75-.741-.403-1.453-.857-2.167-1.307-.125 1.055-.257 2.126-.67 3.115-.506 1.295-1.479 2.441-2.775 2.988-4.628 1.587-9.37-2.157-10.657-5.91-1.565-3.619-2.993-7.33-3.748-11.213-.435-2.329-.643-4.752-.144-7.088.366-1.755 1.245-3.429 2.62-4.6.854-.745 1.864-1.294 2.923-1.689a21.491 21.491 0 0 1 2.228 1.675c2.537 2.174 4.698 4.737 6.933 7.208 2.124 2.347 4.295 4.697 6.898 6.524 1.972 1.388 4.26 2.415 6.685 2.61 3.746.533 7.624.01 11.124-1.416 1.097-.66 2.215-1.306 3.198-2.132.328-.292.716-.668.644-1.148-.066-.406-.495-.615-.875-.61-.848-.002-1.672.248-2.483.472-3.162 1.073-4.528 1.55-7.472 1.042a23.266 23.266 0 0 1-4.127-1.108c-.094-.035-.296-.114-.432-.166-2.962-1.164-5.645-2.978-7.94-5.175-.112-.113-.29-.282-.427-.42-3.365-3.356-5.91-7.436-8.033-11.663-.442-.896-.89-1.791-1.287-2.708-.775-2.218-.902-4.583-1.09-6.905-.165-1.983-.426-4.023-1.38-5.802a9.254 9.254 0 0 0-.26-.455c.28-.673-.15-1.385.093-2.063.253-.655.945-.943 1.486-1.313.084-.082.398-.193.325-.256-.45-.154-.913-.307-1.357-.461.464-.254.775-.702.972-1.18.047-.136.252-.336-.005-.348l-.914-.326c.567-.269.914-.889.887-1.51-.007-.204-.021-.409-.031-.613l-.643-.085c.443-.31.609-.927.39-1.42-.076-.126-.056-.369-.254-.345l-.619-.102c.395-.153.724-.573.605-1.01-.119-.193.143-.118.256-.173.52-.097.968-.534 1.006-1.073.064-.783-.346-1.494-.605-2.208a3.357 3.357 0 0 1-.122-.385c.287.014.555.157.845.095l1.059-.058c-.341-.308-.669-.633-1.017-.93-.395-.187-.813-.365-1.13-.675.507-.41 1.146-.615 1.672-1.001.455-.3.848-.82.744-1.394-.082-.496-.445-.885-.819-1.194.397-.109.79-.457.732-.902-.032-.364-.315-.636-.582-.854.44.02.878.092 1.315.11l1.396-.191c-.421-.277-.825-.585-1.256-.843a24.71 24.71 0 0 1-.617-.236c-.427-.174-.856-.352-1.254-.589.87-.272 1.813-.332 2.634-.752.4-.194.693-.667.536-1.111-.103-.322-.36-.565-.622-.765.492-.113 1.017-.465 1.056-1.013.03-.32-.126-.629-.339-.859.44-.043.95-.266 1.042-.746.06-.289-.081-.582-.258-.793.367-.22.401-.727.214-1.08-.2-.42-.505-.778-.763-1.163.822.165 1.608.47 2.397.749.919-.941 1.69-2.014 2.37-3.137.924-1.475 1.745-3.079 3.115-4.2 3.149-2.806 7.255-4.658 10.643-6.501.866-.467 1.705-.98 2.551-1.481 1.04-.562 2.214-.83 3.386-.91.092-.005.31-.019.45-.02 1.561-.044 3.116.202 4.627.573a25.2 25.2 0 0 1 1.223.336c.897.264 1.818.593 2.664.923 1.513.586 2.976 1.293 4.436 1.998l1.636.719c-.721-1.013-1.396-2.068-2.275-2.955-1.683-1.756-3.875-2.987-6.216-3.617-3.096-.84-6.37-.751-9.508-.202-2.975.53-5.873 1.468-8.623 2.715-1.632 1.02-3.585 1.386-5.485 1.444-2.773.058-5.55-.513-8.1-1.597-1.734-.754-3.407-1.76-4.655-3.202-.882-1.01-1.495-2.338-1.373-3.703 1.934 1 4.152 1.463 6.322 1.24 2.542-.239 4.929-1.269 7.15-2.476 1.99-1.086 3.906-2.345 5.824-3.523 2.456-1.509 4.64-2.701 7.265-3.49 9.838-3.447 19.946-2.356 27.754 5.23 2.48 2.242 3.07 5.855 4.609 8.378 1.221 2.042 3.75 3.753 5.48 3.407 1.214-.33 2.15-1.255 2.904-2.22.276-.368.549-.745.778-1.141.58-2.62 1.491-5.173 2.78-7.528a61.7 61.7 0 0 1 .264-.467c1.303-2.242 2.987-4.316 5.152-5.777 3.29-1.799 6.844-3.198 10.567-3.761a19.427 19.427 0 0 1 2.896-.185zm-28.18 22.354c-.728-.175.087 4.25.206 7.267.068 1.87.058 3.78-.026 5.651a94.98 94.98 0 0 1-.952 9.51 130.741 130.741 0 0 1-1.495 8.023c-.783 2.658-.935 5.374-1.354 7.908-.707 4.29-1.775 8.536-2.005 12.891-.124 2.545.058 5.168 1.044 7.546 2.755 5.168 6.774 4.696 12.127 4.032 1.243-.185 2.51-.661 3.346-1.64.92-1.054 1.23-2.492 1.27-3.856.078-3.156-.178-6.314-.656-9.432-1.1-7.226-3.262-14.236-4.515-21.433-.128-.75-.256-1.54-.361-2.293a60.409 60.409 0 0 1-.33-2.755c-.17-2.795-.4-5.745-.473-8.39-.025-3.235.181-6.467.157-9.702-.016-.723.019-2.979-1.065-2.62-.6.4-.945 1.177-.982 1.835-.047.41-.095.768-.153 1.18-.132.841-.244 1.699-.552 2.498-.469-.803-.749-1.708-1.073-2.566-1.178-2.544-1.828-3.574-2.158-3.654zm28.413 8.2c-2.038.063-3.968 1.008-5.468 2.354-1.839 1.646-3.18 3.831-3.87 6.197-.461 1.635-.623 3.425-.065 5.058.398 1.19 1.27 2.217 2.403 2.766 1.162.581 2.492.689 3.772.625.137-.02.379.025.453-.035-.793-1.662-1.539-3.36-1.991-5.152-.029-.123-.068-.273-.1-.417-.336-1.52-.485-3.152.027-4.652.387-1.168 1.282-2.124 2.37-2.68a7.025 7.025 0 0 1 1.735-.64c1.08.237 2.21.62 2.96 1.478.652.75.773 1.808.632 2.758-.235 1.642-.951 3.161-1.65 4.648-.571 1.225-1.234 2.416-1.638 3.71-.18.618-.296 1.367.129 1.915.418.537 1.162.606 1.793.555.314-.024.624-.082.936-.124.011-1.165.204-2.323.54-3.437a16.942 16.942 0 0 1 .71-1.955c.396-.917.873-1.8 1.44-2.624.05-.068.162-.231.242-.335.693-.914 1.529-1.799 2.627-2.208a2.382 2.382 0 0 1 2.156.267c.68.439 1.186 1.09 1.618 1.763.057.094.142.228.217.36.59 1.041 1.13 2.193 1.064 3.42-.04.97-.601 1.844-1.335 2.45-1.211 1.014-2.705 1.592-4.147 2.192-1.117.474-2.286.884-3.26 1.626-.533.41-.962 1.045-.903 1.744.067.865.667 1.563 1.258 2.148.437.308 1.026.164 1.459-.083.945-.536 1.716-1.317 2.517-2.04 1.55-1.432 3.06-2.947 4.883-4.038.841-.48 1.81-.915 2.803-.744.902.167 1.554.907 1.986 1.67.512.913.84 1.918 1.093 2.93.236 1.04.297 2.214-.273 3.161-.575.948-1.631 1.453-2.65 1.78-2.177.684-4.485.717-6.7 1.223-.82.206-1.708.488-2.233 1.197-.36.482-.397 1.123-.261 1.693.187 1.037.352 2.099.789 3.067.198.442.601.885 1.128.842.616-.063 1.014-.605 1.362-1.06.86-1.18 1.574-2.51 2.737-3.43.542-.432 1.246-.7 1.946-.59 1.318-.258 2.73-.387 4.016.086.868.31 1.59 1.024 1.851 1.916.38 1.256.069 2.627-.537 3.76-.84 1.585-2.392 2.83-4.187 3.108-1.075.176-2.186.007-3.197-.38-.755-.647-1.64-1.26-2.664-1.32-.794-.054-1.557.393-1.984 1.05-.658.99-.838 2.222-.81 3.39.044.859.178 1.768.702 2.476.326.466.97.694 1.504.461.716-.302 1.162-.99 1.547-1.631.201-.344.379-.701.544-1.063 1.364-.411 2.879-.605 4.242-.088 1.15.424 2.022 1.42 2.436 2.557.057.151.08.225.129.383.47 1.63.307 3.453-.497 4.953-.521.976-1.433 1.8-2.552 1.978-1.251.208-2.495-.289-3.544-.935a12.301 12.301 0 0 1-1.648-1.24c-.251-1.018-.73-2.072-1.656-2.641-.827-.525-1.93-.445-2.742.068-.92.553-1.597 1.632-1.425 2.729.131.897.84 1.587 1.625 1.97.141.124.293.109.45.025 1.162-.412 2.425-.724 3.656-.473.823.16 1.56.718 1.897 1.491.515 1.154.384 2.504-.07 3.654-.42 1.05-1.197 2.047-2.307 2.404-.966.313-2.01-.01-2.835-.543-.935-.601-1.704-1.425-2.383-2.298-.106-1.153-.22-2.325-.625-3.418-.18-.472-.509-1.002-1.062-1.05-.539-.043-.94.424-1.149.868-.46.979-.587 2.08-.588 3.152.02 1.445.344 2.957 1.261 4.11.712.91 1.832 1.45 2.978 1.525.42.043.846.001 1.265-.02.71.08 1.416.206 2.133.197.394 0 .791.05 1.183.018a14.514 14.514 0 0 0 6.91-3.29c2.404-2.069 4.112-4.84 5.276-7.767 1.47-3.712 2.156-7.7 2.32-11.678a42.404 42.404 0 0 0-.133-5.314c-.234-4.972-1.279-9.913-3.128-14.537-1.74-4.33-4.235-8.413-7.635-11.64-2.548-2.421-5.627-4.303-8.991-5.343-.584-.192-1.186-.322-1.775-.491a7.792 7.792 0 0 0-3.042-.522zm-52.042 2.217c-.411.003-.815.098-1.216.164-3.34.105-6.636 1.11-9.492 2.838-3.479 2.09-6.306 5.143-8.448 8.567-2.619 4.219-4.288 9.02-4.89 13.946-.162 1.306-.218 2.62-.233 3.935-.115 4.027.337 8.079 1.415 11.963.974 3.463 2.485 6.83 4.798 9.613 1.688 2.027 3.837 3.693 6.29 4.686 1.317.531 2.704.905 4.117 1.052 2.242.18 4.51-.429 6.446-1.55 1.74-1.016 3.263-2.54 3.958-4.462a6.23 6.23 0 0 0 .377-1.887c-.317-1.118-.606-2.257-1.128-3.301-.21-.41-.565-.864-1.076-.834-.536.038-.842.557-1.047.995-.445.988-.75 2.032-1.15 3.039-.1.254-.229.57-.35.845-.494 1.091-1.083 2.205-2.06 2.94-.673.514-1.577.664-2.392.459-.249-.06-.49-.152-.75-.114-1.383-.004-2.82-.125-4.073-.758-.74-.371-1.383-1.043-1.502-1.888-.158-1.066.333-2.111.964-2.941 1.707-2.194 4.664-3.33 7.402-2.846.093.018.286.051.416.083.296.07.589.15.884.224.161-1.152.396-2.323.233-3.488-.07-.526-.372-1.096-.928-1.223-.64-.14-1.251.218-1.776.544-1.276.85-2.415 1.884-3.654 2.784-1.134.825-2.332 1.631-3.704 1.993-.844.232-1.793.18-2.547-.295-1.143-.486-2.3-1.088-3.081-2.083-.487-.61-.697-1.448-.463-2.203.322-1.085 1.172-1.915 2.064-2.564a10.547 10.547 0 0 1 5.652-1.888c1.57-.05 3.22.349 4.417 1.408.25.226.495.457.742.684.441-1.184.98-2.367 1.068-3.644.047-.607-.138-1.307-.705-1.62-.646-.354-1.419-.203-2.097-.037-1.481.397-2.885 1.027-4.333 1.525-1.53.536-3.115 1.032-4.752 1.03-1.06-.002-2.163-.335-2.91-1.117a4.546 4.546 0 0 1-1.01-1.62c-.319-1.379-.508-2.849-.108-4.23.268-.95.945-1.778 1.845-2.193 1.27-.597 2.73-.583 4.09-.37a13.894 13.894 0 0 1 5.66 2.347 8.966 8.966 0 0 1 2.044 1.985c.1.098.198.37.298.124.873-1.094 1.795-2.191 2.322-3.504.255-.641.343-1.44-.098-2.023-.49-.64-1.331-.83-2.088-.931-1.558-.18-3.129-.071-4.692-.094a38.003 38.003 0 0 1-1.221-.028c-1.403-.073-2.857-.21-4.124-.867-.492-.271-.969-.626-1.223-1.141-.685-1.17-1.279-2.466-1.299-3.847-.02-.922.368-1.86 1.103-2.434 1.004-.805 2.345-1.033 3.601-1 2.275.085 4.537 1.022 6.13 2.662a7.238 7.238 0 0 1 1.952 3.93c.062.114-.016.438.175.357 1.181-.266 2.396-.486 3.487-1.034.469-.233.95-.654.934-1.22-.023-.62-.554-1.048-1.026-1.37-1.128-.727-2.374-1.242-3.578-1.829-1.615-.783-3.263-1.569-4.633-2.75-.666-.591-1.292-1.346-1.368-2.27-.151-1.093-.227-2.246.153-3.303.225-.645.762-1.195 1.448-1.324.98-.199 1.98.13 2.856.553a10.124 10.124 0 0 1 4.114 3.876c.74 1.27 1.165 2.791.869 4.258.008.14-.131.371-.025.45 1.152.343 2.314.735 3.526.775.51.016 1.125-.132 1.35-.644.236-.556-.059-1.153-.35-1.628-.69-1.074-1.585-1.996-2.448-2.931-1.007-1.09-2.072-2.132-2.979-3.31a14.614 14.614 0 0 1-.263-.73c-.29-.928-.547-1.92-.35-2.894.099-.526.493-.99 1.023-1.112.875-.217 1.784.053 2.593.386 1.557.692 2.937 1.832 3.827 3.292.643 1.053.952 2.36.607 3.567-.227.862-.76 1.598-1.346 2.254-.076.118-.337.282-.067.314 1.002.423 2.07.834 3.177.721a2.706 2.706 0 0 0 2.13-1.36c.594-1.049.623-2.311.482-3.48-.266-1.959-1.038-3.84-2.16-5.463-.987-1.409-2.315-2.666-3.973-3.218a5.35 5.35 0 0 0-1.853-.273zm27.03.91c.326-.077.525 1.759.545 6.445.446 12.83 8.262 27.859 5.774 38.99-.983 3.315-8.685 4.204-10.904 2.887-5.48-3.252-1.875-14.318-.775-19.137 1.891-8.289 4.298-28.937 5.36-29.186zm-62.765 50.975c.109.04.323.221.657.567 2.366 2.454 6.288 7.723 10.872 11.706 6.369 4.204 11.996 5.598 18.79 4.109-4.911 2.9-13.08 1.375-17.344-.981-5.274-3.069-14.03-15.792-12.975-15.401zm122.564 4.54c.146-.007.156.126.008.428-6.781 9.27-26.235 21.259-35.373 13.435-.655-.626-1.143-1.408-1.487-2.243-.141-.31-.286-.62-.423-.932 3.707 1.791 5.065 2.885 16.404 2.553 5.464-.053 19.468-13.177 20.872-13.24zm-126.866.664c-4.273.25-4.235 5.172-4.057 8.232.219 3.49 1.46 6.841 3.143 9.88 2.222 3.162 5.095 11.346 9.747 7.44.895-.774 1.265-1.98 1.316-3.13.167-2.937-.727-4.482-1.464-7.083-.998-3.453-1.743-6.998-3.172-10.31-.652-1.461-1.436-2.924-2.665-3.983-.786-.675-1.802-1.094-2.848-1.046zm130.143 1.796c-2.407.007-4.625 3.18-5.724 4.706-1.778 2.537-3.016 5.469-3.505 8.533-.34 2.226-.26 4.582.646 6.673 1.228 2.372 2.457 4.023 4.959 2.384 1.298-.868 2.3-2.103 3.182-3.375 2.935-4.53 5.29-12.134 3.402-16.35-.543-1.09-.77-1.983-1.92-2.366a2.709 2.709 0 0 0-1.04-.205zm-129.863 2.168a10.65 3.781 73.52 0 1 5.74 7.442 10.65 3.781 73.52 0 1 .556 12.698 10.65 3.781 73.52 0 1-6.651-7.047 10.65 3.781 73.52 0 1-.556-12.698 10.65 3.781 73.52 0 1 .911-.395zm128.748 1.052a4.712 8.47 15 0 1 .64.09 4.712 8.47 15 0 1 2.36 9.4 4.712 8.47 15 0 1-6.744 6.963 4.712 8.47 15 0 1-2.359-9.401 4.712 8.47 15 0 1 6.103-7.052zm-8.964 25.064c-.854.042-1.84.422-2.978 1.17-1.648 1.17-2.956 2.755-4.043 4.444-1.253 1.985-2.23 4.179-2.627 6.502-.26 1.582-.227 3.289.52 4.742 5.483 6.069 13.088-8.457 12.842-13.138-.127-2.412-1.803-3.615-3.357-3.717a3.037 3.037 0 0 0-.357-.003zm-106.229 1.98c-1.617.05-2.778 1.064-3.636 2.98-.772 1.744-.737 3.743-.282 5.565.617 2.446 1.919 4.696 3.617 6.552 3.02 4.698 12.405 4.882 11.935-2.006-.173-2.869-1.77-5.51-3.437-7.858-1.44-2.023-3.356-3.785-5.693-4.699-.939-.38-1.768-.556-2.504-.534zm105.45.591a4.186 7.525 30 0 1 1.43.325 4.186 7.525 30 0 1-.136 8.61 4.186 7.525 30 0 1-7.388 4.423 4.186 7.525 30 0 1 .137-8.61 4.186 7.525 30 0 1 5.956-4.748zM55.312 178.05a8.437 4.694 45 0 1 7.09 3.505 8.437 4.694 45 0 1 2.646 9.286 8.437 4.694 45 0 1-9.285-2.648 8.437 4.694 45 0 1-2.647-9.285 8.437 4.694 45 0 1 2.196-.858z" transform="translate(5.927 -21.793) scale(.45595)"/></svg>