<svg width="400" height="400" viewBox="0 0 105.833 105.833" xmlns="http://www.w3.org/2000/svg"><path style="fill:#000;stroke-width:.490568" d="M414.955 262.643c-80.506-.111-149.663 41.727-200.533 94.343-31.027 32.092-51.515 72.681-64.213 115.153-14.604 63.674-7.453 131.527 16.957 191.865 27.76 54.472 70.282 105.787 121.32 130.506 69.571 34.015 137.872 38.104 206.85 23.226 65.183-18.88 123.231-63.632 156.627-113.107 27.907-52.713 57.629-132.03 43.267-185.906-13.232-82.496-35.792-148.3-98.029-194.809-60.05-39.066-117.13-61.433-182.246-61.271zm56.373 16.603c29.15-.29 57.234 12.877 82.596 26.553 29.422 19.57 60.394 39.56 79.41 70.308 17.262 21.608 28.045 47.043 37.65 72.766 4.498 14.872 5.326 29.763 3.627 45.285-6.408 36.819-41.76 39.043-67.465 40.41-39.692-3.427-87.034 2.464-126.767.717-103.372 7.876-49.47-101.924-53.953-189.82-2.282-44.728 2.425-65.622 44.902-66.219zm-106.992 2.668c20.933-.127 41.625 8.705 43.25 32.229 4.866 47.78-3.793 95.402-1.506 143.257 3.28 80.63 8.797 78.142-68.51 74.143-35.033-4.98-70.235-2.638-105.642-1.621-25.021-1.289-67.071 4.038-66.342-32.711.761-50.221 24.56-99.763 61.303-133.703 29.661-34.131 67.706-61.6 110.521-76.408 7.846-3.22 17.41-5.128 26.926-5.186zm108.475 16.244c-26.557.529-25.634 47.69-26.817 65.627-2.967 44.971 5.7 84.848 4.572 127.397 48.412-44.423 58.886-32.474 21.784 11.773-9.28 11.067 54.97-.378 88.347 4.725 54.701 2.649 102.934 12.708 87.762-57.834-17.912-83.28-101.563-151.24-175.648-151.688zm-113.766 6.022a18.294 18.294 0 0 0-2.924.043c-42.108 3.903-87.503 34.965-114.906 64.08-25.526 27.12-44.306 61.287-52.233 97.437-16.146 73.64 26.203 45.678 154.641 50.457 23.784 1.797 15.603-.185 3.97-32.351-4.95-16.3-.989-17.762 8.636-10.739 47.107 42.373 39.408 20.935 38.708-25.918-.453-30.342-7.078-88.302-11.087-106.308-3.946-17.72-10.687-35.749-24.805-36.701zm123.363 4.377c49.143-.746 88.103 24.724 115.832 62.937 24.781 34.15 38.359 59.137 44.66 99.102 3.997 25.343-21.67 27.93-48.912 22.904 40.827-82.04-24.53-154.406-95.906-159.664-24.182-1.781-20.221 23.508-42.328 26.074.51-29.417-4.385-50.882 26.654-51.353zm-140.474 9.412c27.695 1.083 41.826 28.43 43.306 72.666-32.715-98.241-95.098-39.922-123.988-21.43-36.645 23.457-49.618 65.515-51.37 109.154-1.316 32.828 69.707 18.744 40.13 29.686-83.55 16.568-59.345-53.94-26.88-105.092 13.917-21.926 31.082-43.16 54.102-56.543 26.581-20.286 48.082-29.09 64.7-28.441zm157.65 22.486c9.962-.015 25.698 12.042 16.69 13.543-25.729 4.286-24.568 26.035-11.97 42.717 16.203 21.453 34.898 39.88 62.446 47.43 33.809 9.266 23.611-50.929 32.857-25.19 4.678 13.022 4.402 42.109-20.289 39.361-28.224-3.14-63.814-26.866-75.234-45.29-10.533-16.994-23.204-35.188-22.816-56.508.204-11.255 8.354-16.048 18.316-16.063zm-180.6 13.502c15.148-.126 30.163 5.997 28.12 22.668-4.712 24.958-17.623 48.59-35.405 66.637-17.019 22.401-42.44 38.114-69.926 43.646-33.012 9.144-26.454-31.446-20.668-49.49 15.998-29.947 1.92 32.764 25.18 27.393 33.256-6.422 61.165-33.343 71.996-64.926 13.169-23.92-5.86-33.692-26.914-36.315 3.975-5.636 15.836-9.515 27.617-9.613zm220.567 10.324c23.755.25 52.296 38.605 26.406 51.961-5.259 2.713-15.983 1.77-20.105-2.135-19.258-18.235-37.473-50.154-6.301-49.826zm-75.887 6.588c2.583-.205 5.753.86 9.625 3.596 11.205 31.31 31.658 57.652 59.816 77.082 26.312 28.406 92.575 25.319 43.817 45.002-23.124 9.335-50.037-3.55-74.77 2.074-13.695-11.4 25.128-17.766 37.74-15.785 37.087 5.826-3.607-11.354-15.097-19.703-23.745-17.874-42.587-41.293-57.28-66.912-12.211 17.793 12.5 50.217-2.38 72.072-8.092-9.056-5.835-28.662-10.016-45.662-3.024-12.297-5.402-50.654 8.545-51.764zm-189.75 2.953c35.234-.814 13.107 53.12-11.572 59.84-6.667 3.412-16.347 2.745-18.518-4.71-6.116-21.008 8.816-54.6 30.09-55.13zm89.24 10.668c7.097-.307 14.05 6.213 13.307 15.342-2.16 26.573 8.057 52.544 2.434 78.227-18.144-8.884-13.623-42.443-12.215-61.694 2.65-36.239-12.832 14.384-20.516 22.823-16.452 19.66-39.746 29.646-57.625 49.046-11.44 12.414 41.528-14.515 53.977 6.325-14.985 14.203-46.977 10.306-62.922 13.6-23.144 4.779-21.2-15.927-6.537-23.669 34.671-18.307 68.983-46.406 76.834-84.904 2.138-10.487 7.744-14.857 13.263-15.096zm-155.54 157.555c30.227.336 72.487 4.547 108.995 2.865 120.204-2.214 96.328.27 91.795 189.156-.647 26.976 12.53 68.972-19.09 78.887-44.877 14.073-108.073-30.86-137.503-55.068-33.734-28.39-60.828-65.073-78.618-105.358-11.961-27.087-21.342-58.712-13.474-88.29 6.491-17.879 24.384-22.454 47.894-22.192zm275.581 2.715c70.817 11.932 201.909-1.328 194.88 47.95-1.562 37.82-13.506 74.755-35.061 105.813-14.476 24.575-32.894 48.053-57.262 63.635-35.974 23.005-74.351 49.497-118.84 47.196-37.418 1.373-30.475-38.375-32.377-63.254-2.032-40.346-2.082-90.304-5.535-130.616 2.388-67.418 2.609-71.586 54.195-70.724zm-229.566 4.676c-33.905.19-64.817 6.476-76.486 22.33-15.423 20.951 4.55 50.5 12.09 74.013 33.325 71.807 93.003 129.287 162.331 150.86 25.208 7.843 41.057-15.313 40.104-39.6-1.943-49.513-.808-106.114-.04-155.498.577-36.971-15.664 2.932-30.593 9.443-32.966 14.379 13.83-32.675 3.67-39.406-18.945-12.55-67.484-22.386-111.076-22.142zM578.977 559.8c-40.576 4.32-83.692-6.317-117.065 1.033-18.075 4.314 41.644 35.132 24.317 56.012-21.709 4.9-45.403-54.787-46.36-19.14-1.247 46.464 1.742 74.505 5.58 111.532 9.901 55.052-19.324 100.318 60.446 78.573 51.488-14.036 87.435-44.892 118.511-94.608 54.268-86.819 51.02-131.368-45.43-133.402zm-335.635 4.015c10.85.146 23.378 1.068 37.693 2.705 28.948 2.946-11.702 4.456-14.625 15.6-4.4 16.778-8.389 14.086-22.978 12.63-30.093 1.463-42.018 45.964-22.916 62.317 21.008 17.986 11.836 48.26 40.095 59.286 24.463 4.71 54.297 23.153 78.971 26.658 21.58 3.065 11.653-19.901 27.441-38.03 17.509-20.102 15.74 20.332 17.678 37.914 2.666 24.189-10.204 60.024-37.681 43.106-39.26-24.173-95.164-53.592-121.674-89.988-51.65-96.177-57.955-133.216 17.996-132.198zm305.233 2.467c4.846.241 15.334 2.679 25.228 2.979 85.983 2.604 74.72 49.612 42.043 119.002-23.792 50.522-68.535 79.082-118.49 90.31-35.535 16.069-42.347-32.073-44.708-57.751 16.293-4.816 30.356 22.985 49.448 23.678 30.677 1.113 75.552-15.749 103.211-72.011 26.48-53.863 16.497-83.619-56.732-106.207zm-50.544 4.365c34.805 3.811 92.85 13.212 75.989 22.885-27.488 14.408-52.517 29.663-73.702 51.549-18.95 19.578-11.98 52.221-29.634 69.674-12.094 11.955-20.007-22.762-19.664-33.166.759-23.038 2.434-43.392-3.993-65.535-6.269-26.492 9.724-3.946 12.06 10.222 11.927 35.284 6.904 54.91 19.546 27.952 12.085-25.772 34.242-43.457 58.332-56.047-16.224 1.361-70.099-25.073-57.897-25.457 7.722-1.791 13.93-2.628 18.963-2.077zm-190.35 9.227c14.891-.231 30.424.74 36.85.566 5.451-.052 4.882-.31-2.963 7.684-13.659 13.919-69.197-7.458-39.986 14.775 21.71 16.525 37.73 35.337 56.176 54.653 19.452 20.368 2.538-35.979 19.681-37.672 5.334 21.386 16.189 61.385-3.691 73.867-12.999 8.162-21.323-26.38-32.006-37.756-18.039-19.209-36.532-37.952-58.017-54.076-23.893-17.931-.86-21.656 23.957-22.041zm-61.638 23.084c2.905-.111 6.167.317 9.797 1.383 33.09 9.719 56.628 36.547 78.248 61.586 15.967 18.492 36.132 59.328-.555 64.265-8.388.527-18.533-.27-25.814-4.843 10.953-3.682 41.83-13.163 22.578-39.09-17.14-23.083-35.958-44.161-60.578-58.422-18.505-10.72-42.52 2.84-36.983 23.412-9.94-20.277-7.03-47.513 13.307-48.291zm328.135 4.39c19.276 1.444 34.01 46.85 15.086 39.376-9.6-40.129-49.5-8.28-65.123 9.052-13.803 15.312-35.584 51.154 5.28 51.295 23.875.083-7.671 15.553-19.708 15.813-34.137.063-20.787-43.123-7.77-60.426 16.02-20.863 48.562-56.583 72.235-55.11zm4.463 54.542c19.76.777 14.024 40.305-10.186 44.115-29.132 5.418-23.428-32.878-3.46-40.088 5.452-2.987 9.986-4.171 13.646-4.027zm-315.713 3.295c22.696-.43 48.451 37.539 19.367 46.878-19.435 6.241-45.356-24.574-31.332-42.378 3.654-3.056 7.762-4.421 11.965-4.5z" transform="translate(-20.974 -42.702) scale(.17625)"/></svg>