<svg width="400" height="400" viewBox="0 0 105.833 105.833" xmlns="http://www.w3.org/2000/svg"><path style="fill:#000;stroke-width:.253357" d="M93.967 244.5c-13.493 1.374-5.017-15.25-13.92-19.23-11.444-5.117-23.568-9.072-33.256-17.497-11.691-10.166-27.912-36.088-14.024-41.976 5.257-2.23 5.996-13.07 6.82-20.96 2.06-19.746 1.808-39.836-.379-59.627-1.041-9.423-7.313-17.431-8.51-26.114 7.757-4.533 18.618-2.25 26.155 1.817 5.94 3.206 8.79 7.326 15.339 1.32 7.549-6.924 15.322-13.211 23.243-19.756 7.534-6.225 12.183 8.44 19.298 11.633 7.25 3.254 13.004 9.145 17.438 15.723 7.083-4.012 14.316-9.963 23.224-12.373 8.382-2.267 15.395 1.29 8.942 9.777-5.612 7.38-6.687 17.404-7.718 26.524-2.245 19.87.534 39.918.313 59.865-.06 5.35 7.294 9.297 7.294 9.297 9.258 3.974 2.814 15.776 1.291 22.95-2.16 10.17-7.783 18.805-16.058 25.066-6.97 5.274-14.778 8.092-22.509 10.953-6.604 2.444-17.726 4.442-17.256 13.898.54 10.87-8.598 7.984-15.727 8.71zm10.216-1.764c6.722-1.995 1.249-14.328 8.508-17.128 4.146-1.6 7.662-4.505 8.538-5.665 4.137-2.682-1.232 3.995 3.891-.234.017-2.269 6.444-.417 3.222-2.287 4.31-.564 2.525-.525 2.643-1.974 3.908.826 9.135-.205 7.722-3.327.234-1.699 8.243 1.206 4.682-1.57 4.156-.348 4.964-3.04 1.729-3.74 2.168-3.074 11.473-.462 3.313-2.102.733-4.35 10.085-6.01 5.201-7.69 3.734-3.07 2.422-3.557 4.67-7.892 2.521 1.434 1.172-3.268 3.844-5.655 2.493-4.621-3.032.665.318-3.785 0-4.113-.003-5.005 2.755-8.881-2.683-.19-3.156 3.966-3-1.72-2.64-.88-5.147 3.85-8.585 3.738-2.882-1.482-1.178-10.142-1.087-15.04.393-21.319-1.351-42.739.932-63.963 1.12-10.416 4.458-20.584 9.64-29.702 6.35-10.837-11.356-4.07-16.573-2.137-5.875 2.175-14.33 12.87-16.17 9.632-7.616-13.41-22.183-16.51-30.37-28.86-6.927 2.825-12.558 10.874-20.123 16.438-3.972 2.922-9.57 9.177-14.065 9.25-5.74.094-17.687-12.073-31.344-9.76C48.41 96.168 47.353 180.954 40.112 172.63c-3.858-4.435-4.888 1.364-3.748 5.521 1.67 3.607 2.034 9.524 1.484 10.544 4.57.852-1.315 3.386 3.747 4.178-1.292 2.07 4.536 3.581 1.873 5.704 2.735-.048 9.117 5.698 3.83 3.162-.3 1.391 9.422 3.015 3.47 4.635 2.99 3.158 7.252 5.49 6.79 3.662 5.656 2.212 6.888 5.198 11.021 5.893 1.152.657.89 1.329 4.422 1.399.753 3.115 8.236 4.922 12.196 8.803 5.629 5.516-2.139 18.026 9.352 17.1 3.516-.426 6.777.353 9.634-.495zm12.331-30.518c16.997-4.299 28.029-23.844 31.652-28.733 3.9-5.033 8.804-2.729 3.819 2.505-6.237 4.573-13.278 26.13-35.47 26.228zm-44.843-2.766c-9.813-2.393-18.809-8.013-24.853-16.17-4.03-3.76-9.788-14.319-8.062-16.943 4.514 4.652 7.796 9.71 11.476 13.816 7.933 9.02 13.448 14.474 25.734 20.27-1.446-.257-2.868-.627-4.295-.973zm45.34-4.481c2.623-3.403 4.404-6.168 7.363-9.615 4.653-4.469 6.513-12.487 9.473-18.65 4.325-15.897 6.518-32.271 6.876-48.758.485-13.634 2.618-27.247 4.72-40.598.202 8.218.182 16.894.242 25.308-.647 23.391-1.107 47.55-10.472 69.423-3.76 11.939-22.041 27.306-18.203 22.89zm20.796-35.713c2.742-11.169 4.522-22.8 5.168-34.206 1.067-6.36.948-13.646.749-20.36.038-11.357-1.642 6.006-1.634 9.44-1.04 15.138-.994 30.51-4.9 45.27-1.013 2.96.744 2.276.617-.144zM80.826 201.65a56.536 56.536 0 0 1-20.045-27.925c-5.713-16.767-7.596-34.63-6.893-52.273.952 7.273-.576 17.89 2.33 23.279-1.025-3.326.018-8.41-.148-13.843.032-15.19 2.402-30.273 2.756-45.43-.105-6.739 5.138-4.92 4.63-.68-2.882 24.055-4.502 49.484-1.307 74.04 1.81 8.052 3.323 16.42 6.533 23.947-.077-6.255-3.408-10.65-3.68-16.52-3.711-18.712-2.875-37.995-2.143-56.978 2.814-38.719.15 4.308.297 19.712-.55 25.519 3.17 52.963 19.411 73.528l-.116.204-1.625-1.061zM59.78 146.22c-1.267-10.695-.421-21.454-.651-32.152-2.755 4.189-1.4 13.176-1.924 19.298.17 12.746.89 25.703 4.398 38.013.352-6.908-1.252-18.011-1.823-25.159zm-1.055-32.963c2.731-5.958.843-14.417 2.681-21.115.975-3.551-.817-13.922-1.385-5.417-.59 8.836-2.14 17.604-2.085 26.452l.28.487.51-.407zm54.624 89.41c11.928-18.146 16.625-39.871 19.37-61.124 2.206-16.834 3.238-33.728 4.58-50.669.424-5.36 2.11-6.933 1.474-.9-3.535 19.516-3.125 39.479-6.56 59.003-1.151 13.892.83 13.436 2.544.065 1.996-11.503 2.077-21.932 3.36-32.845.576-9.475 2.309-18.885 1.897-28.412 8.313-4.613 1.06 9.893.591 14.943-1.982 21.343-1.312 42.96-6.78 63.843-5.498 10.597-9.185 31.058-20.395 36.244l-.081-.148zm-3.881-2.725c-2.791-5.944 4.25-14.944 5.732-22.223 6.175-30.343 7.433-61.181 7.027-91.924 2.109 20.123 1.23 42.351-1.288 65.314 1.13 4.51 2.987-7.225 2.74-9.228.798-6.347 1.952-15.241 1.876-23.411-.023-11.784 1.63-23.531 1.031-35.317 2.691 1.612 3.877-2.448 5.724 1.274 5.286 10.649-3.315 73.341-12.675 99.736-2.706 5.21-4.638 13.609-10.167 15.78zm14.268-38.52c3.204-7.05 3.533-14.976 4.686-22.674 1.965-17.514 1.664-35.192 3.787-52.7-2.819-2.153-3.553 10.597-3.8 14.188 1.713 42.003-11.552 70.053-4.673 61.186zm-56.579-3.117c-3.737-23.098-1.745-46.503.155-69.661-.112-3.174.093-12.131.745-3.822.537 8.795-1.783 17.831-.82 26.435 2.84-11.598 1.241-33.47 6.015-31.31 4.696 7.282 1.631 55.23 3.486 76.754 1.408 13.678 3.39 27.45 8.053 40.438-7.126-2.19-14.954-27.92-17.634-38.834zm4.995 6.64c-1.234-5.06-.298-11.414-.857-17.783-.22-20.585.622-41.14 1.282-61.702.905-4.423-1.592-7.592-1.484-1.226 3.003 13.212-9.83 75.893 1.059 80.712zm16.811 32.188c-5.52-7.523-5.666-17.782-7.558-26.695-4.67-29.726-2.848-59.906-2.044-89.837 6.39-.423.663 9.191 2.136 15.502-.208 24.245-.645 48.557 1.305 72.738 1.784-7.02-.195-18.444-.569-25.942.46-6.332.267-12.548.315-18.974-.135-9.75.962-19.361 1-29.11.617-4.318-1.82-15.122 1.02-14.442 4.024.964 5.148-1.86 3.295 4.173-2.518 27.342-2.74 54.885-2.038 82.312.23 8.301.744 18.011 2.463 25.258-.367-6.15-.58-11.129-1.129-17.393.22-5.565-.058-6.87-.308-11.434-.35-6.39-.587-13.134-.052-19.286.145-14.332 1.588-28.632 2.09-42.974.898-6.295.036-15.815 1.825-20.365 7.978-1.222 1.469 5.397 2.569 12.037-3.22 33.634-5.907 67.676-1.306 101.314-.057 1.656-.595 4.603-3.014 3.118zm14.09-.238c1.05-7.764 2.957-15.427 3.736-23.293 3.623-29.356 2.656-58.993 2.4-88.496 1.713-3.776.475 9.534.888 12.356.108 9.454.097 18.913.428 28.363 3.154-11.358-.051-53.544 2.24-42.231 3.241 9.128.814 19.497 1.127 29.039-.26 15.092-1.573 30.318-2.61 45.242 4.855-10.315 4.304-30.211 4.921-44.803-.156-10.481 1.063-21.076-.247-31.487 9.855 3.729-1.458 89.554-8.525 109.676-1.24 1.429-2.483 5.986-4.357 5.634zm-7.044-.517c-5.728-6.558-2.69-17.358-3.412-25.992-.956-28.39 1.333-60.603 4.399-88.789 2.383-3.948-.631 66.756-.898 75.526-.207 9.342-1.362 18.656-1.487 27.975 1.661 7.588 1.362-7.239 1.744-9.637.052-11.564 1.734-21.902 2.43-33.041 1.061-11.52-.314-23.261 1.437-34.681.257-1.68.812-14.582.36-20.265-.57-7.16 7.537-10.375 5.761-1.835.44 19.243.84 38.526-.197 57.755-.563 14.095-2.094 27.225-4.073 40.677-1.252 3.351-2.534 16.347-6.064 12.307zm5.926-31.884c.777-12.082 2.06-24.498 2.513-35.714.154-15.948.93-31.935-.12-47.862-3.208 4.446-.205 16.384-1.278 23.43-.104 24.564-.742 49.193-3.636 73.604 2.048-1.612 2.355-10.867 2.521-13.458z" transform="translate(4.433 -18.714) scale(.50278)"/></svg>