<svg width="400" height="400" viewBox="0 0 105.833 105.833" xmlns="http://www.w3.org/2000/svg"><path style="fill:#000;stroke-width:.181957" d="M82.95 62.943c-18.1 5.482-31.416 15.61-43.441 27.834-12.303 13.988-24.32 25.606-30.791 41.277-.755 2.768-.229 5.964 1.813 8.065 2.68 2.83 6.79 3.788 10.57 3.647 3.256-.144 6.535-1.221 8.994-3.41 14.331-10.97 26.041-24.814 39.074-37.203.926-1.04 2.171-1.873 3.595-1.964 1.5-.064 2.271 1.492 2.603 2.728 1.031 5.776.723 11.087.693 16.474-.82 16.024-4.907 31.935-4.058 48.033.76 14.417 1.73 28.866 4.146 43.114 2.13 12.562 4.693 25.176 9.5 37.015.993 2.445 3.439 5.191 6.072 4.643 8.553-1.783 15.633.059 22.567 1.093 2.56.382 5.542.518 7.395-1.414 4.472-4.665 4.986-11.227 7.068-16.595 5.163-13.313 9.3-27.098 11.55-41.178 1.896-11.861 2.331-23.944 1.968-36.024-.51-16.919-3.882-33.676-4.92-50.562-.53-8.603 7.57-5.829 11.61-.94 10.715 8.694 19.692 19.185 28.103 30.035 9.147 11.802 24.169 6.941 24.601-1.142.01-15.837-8.581-26.352-17.41-37.464-14.926-16.399-31.604-33.69-53.055-34.991-9.289-1.655-11.154 4.447-15.344 9.964-6.524 8.588-3.646 23.897-7.107 33.846-1.9 3.355-4.57-2.733-4.502-4.276.346-7.743-1.259-14.09-2.722-20.937-1.482-6.938-2.447-14.257-7.099-18.973-3.875-3.062-7.32-1.697-11.474-.695zm12.324 5.62c-5.28 3.06-9.49 2.698-18.658 7.368-9.798 4.992-16.613 10.551-23.707 17.372-13.364 10.94-21.637 24.096-31.938 35.222-2.714 3.09-5.68 5.944-8.475 8.955-1.27-1.186-.88-3.137-.396-4.59 1.671-5.026 4.486-9.57 7.502-13.869C29.905 104.332 42.123 90.76 56.42 79.73c8.34-5.748 20.754-12.88 29.761-15.461 6.69-1.918 8.746 2.64 9.093 4.294zm46.896.376c8.634 2.564 15.945 7.389 21.92 13.082 8.33 7.582 17.175 15.122 22.818 24.862 3.938 6.797 18.155 24.72 9.612 31.6-4.997-4.146-9.746-14.186-13.243-19.588-10.155-15.996-21.592-30.123-36.96-37.907-21.042-10.658-27.85-19.09-4.147-12.05zm-44.007 7.316c2.035 10.246 3.624 11.87 4.132 26.343 1.403 14.814 8.27 10.35 9.92-.683 1.35-9.034 2.62-14.344 4.39-19.69 6.607-19.935 28.63.694 28.94 3.475-1.355 5.04-7.155 10.657-8.493 14.905-4.087 12.53-.516 24.529.71 36.113 3.17 29.958 1.013 62.154-8.205 88.224-2.835 8.015-4.47 16.404-8.657 23.83-3.85 6.827-9.777-.715-16.042-1-8.384-.381-13.478 8.155-16.847-2.028-13.053-39.45-13.208-78.625-9.452-118.074.59-8.11 1.345-18.906-1.198-25.541-1.843-5.243-8.335-7.878-8.31-13.038-.014-3.268.086-5.963 4.592-7.995C83.7 76.559 84.119 75.3 92.396 73c2.34-.65 5.007-.57 5.767 3.255zm65.534 22.522c9.186 10.456 4.18 4.688 16.807 20.757 4.155 6.535 12.933 16.207 12.162 18.762-1.883 6.239-8.49 4.799-15.399-4.136-11.628-15.036-23.13-23.934-34.69-35.5-2.679-2.679 1.515-8.812 7.172-11.224 5.334-2.275 10.592 7.648 13.948 11.341zm-95.462-4.566c4.376 8.175-38.14 46.144-47.922 47.702-9.821 1.565 1.598-10.402 8.253-17.838 9.77-10.917 22.262-27.894 33.481-35.332 1.477-.701 4.464 2.246 6.188 5.468z" transform="translate(-3.295 -30.317) scale(.5314)"/></svg>