<?xml version="1.0" encoding="UTF-8" standalone="no"?>
<!-- Created with Inkscape (http://www.inkscape.org/) -->

<svg
   width="400"
   height="400"
   viewBox="0 0 105.83333 105.83334"
   version="1.1"
   id="svg5"
   xmlns="http://www.w3.org/2000/svg"
   xmlns:svg="http://www.w3.org/2000/svg">
  <defs
     id="defs2">
    <mask
       maskUnits="userSpaceOnUse"
       id="mask153946">
      <ellipse
         style="fill:#faebd7;fill-opacity:0.665738;stroke:none;stroke-width:1.3;stroke-opacity:1"
         id="ellipse153948"
         cx="44.276428"
         cy="54.788101"
         rx="56.380775"
         ry="54.788101" />
    </mask>
    <filter
       style="color-interpolation-filters:sRGB"
       id="filter154262"
       x="-0.091319889"
       y="-0.097018309"
       width="1.1826398"
       height="1.1940366">
      <feGaussianBlur
         result="result1"
         in="SourceGraphic"
         stdDeviation="1.3"
         id="feGaussianBlur154250" />
      <feTurbulence
         result="result0"
         numOctaves="4"
         baseFrequency="0.034"
         id="feTurbulence154252" />
      <feDisplacementMap
         result="result2"
         scale="19.6"
         yChannelSelector="G"
         xChannelSelector="R"
         in="result1"
         in2="result0"
         id="feDisplacementMap154254" />
      <feColorMatrix
         values="2 0 0 0 0 0 2 0 0 0 0 0 2 0 0 0 0 0 0.7 0"
         result="result3"
         id="feColorMatrix154256" />
      <feGaussianBlur
         result="result4"
         in="SourceGraphic"
         stdDeviation="1.1"
         id="feGaussianBlur154258" />
      <feComposite
         in="result4"
         in2="result3"
         id="feComposite154260" />
    </filter>
    <filter
       style="color-interpolation-filters:sRGB;"
       id="filter2091"
       x="-0.13224904"
       y="-0.1265315"
       width="1.2644981"
       height="1.253063">
      <feGaussianBlur
         stdDeviation="5"
         result="result3"
         id="feGaussianBlur2077" />
      <feColorMatrix
         values="1 0 0 0 0 0 1 0 0 0 0 0 1 0 0 0 0 0 50 0 "
         result="result7"
         id="feColorMatrix2079" />
      <feComposite
         operator="in"
         in2="SourceGraphic"
         result="result9"
         id="feComposite2081" />
      <feComposite
         in2="result7"
         operator="arithmetic"
         in="result9"
         k1="0.5"
         k3="0.5"
         result="result1"
         id="feComposite2083" />
      <feBlend
         in2="result1"
         result="result5"
         mode="screen"
         in="SourceGraphic"
         id="feBlend2085" />
      <feBlend
         in2="result5"
         mode="darken"
         in="result5"
         result="result6"
         id="feBlend2087" />
      <feComposite
         in2="SourceGraphic"
         operator="in"
         result="result8"
         id="feComposite2089" />
    </filter>
  </defs>
  <g
     id="layer4"
     style="display:inline">
    <g
       id="g1034"
       transform="matrix(-1.6400827,0,0,-1.6400827,136.19045,139.29394)">
      <path
         style="display:inline;fill:#799160;fill-opacity:1;stroke:none;stroke-width:0.162626"
         d="m 47.672604,49.081144 c -2.471442,-1.374311 -3.540593,-2.230517 -6.333723,-4.592297 -4.082894,-3.452362 -6.043624,-9.226398 -1.371076,-9.003833 2.058506,0.09805 3.728108,0.959555 6.293632,4.758115 1.351608,2.001213 1.767712,3.872185 2.430626,5.765042 0.641316,1.831187 1.128988,4.065647 0.887328,4.065647 -0.0669,0 -0.92496,-0.446704 -1.906787,-0.992674 z"
         id="path58684" />
      <path
         style="display:inline;fill:#799160;fill-opacity:1;stroke:none;stroke-width:0.162626"
         d="m 52.636437,49.92927 c 0,-0.0795 0.299121,-1.012569 0.664711,-2.073482 2.361289,-6.852226 4.48252,-11.133858 7.056815,-12.29975 3.619199,-1.639127 5.639481,1.004904 4.497818,3.386504 -1.537431,3.207202 -4.462258,6.045346 -9.897631,9.689478 -1.182772,0.792989 -2.189021,1.441798 -2.236105,1.441798 -0.04708,0 -0.08561,-0.06505 -0.08561,-0.144548 z"
         id="path62231" />
      <path
         style="display:inline;fill:#799160;fill-opacity:1;stroke:none;stroke-width:0.162626"
         d="m 31.413578,59.017915 c -0.304204,-0.588267 -0.312415,-1.47208 -0.02017,-2.171514 0.407488,-0.975256 1.198502,-1.679846 2.750282,-2.44979 2.977953,-1.47757 6.921836,-1.314209 11.507936,-1.301689 3.051075,0.0083 3.491422,0.10365 2.903918,0.723092 -1.794734,1.892298 -8.019286,5.296148 -11.36857,6.250161 -2.062132,0.58738 -4.512355,1.23736 -5.773396,-1.05026 z"
         id="path55488" />
      <path
         style="display:inline;fill:#799160;fill-opacity:1;stroke:none;stroke-width:0.162626"
         d="M 66.41312,60.806002 C 63.084347,59.965821 58.929238,57.677559 54.995615,54.518261 l -1.787779,-1.435859 1.055962,-0.119059 c 2.277899,-0.256832 6.021899,0.119059 10.650898,0.798634 8.93596,1.311872 6.310396,8.07569 1.498424,7.044025 z"
         id="path52175" />
      <path
         style="display:inline;fill:#799160;fill-opacity:1;stroke:#799160;stroke-width:0.162626;stroke-opacity:1"
         d="m 49.950501,73.196638 c -1.620075,-0.760537 -2.520702,-2.397374 -2.520702,-4.581232 0,-4.261782 1.841777,-11.183202 3.717853,-13.971747 0.350105,-0.520384 1.901376,5.344205 2.374577,8.977099 0.289272,2.220812 0.329153,6.070881 0.07516,7.255233 -0.437682,2.040837 -2.053149,3.068818 -3.646885,2.320647 z"
         id="path46114" />
      <path
         style="display:inline;fill:#f3aa1e;fill-opacity:1;stroke:none;stroke-width:0.162626"
         d="M 38.891937,47.000807 C 36.119164,46.218934 32.983233,45.305946 31.923198,44.97194 l -1.927332,-0.607283 0.108526,-1.494361 c 0.291089,-4.008177 0.967717,-9.109396 1.797839,-12.948888 0.221846,-1.026078 0.403356,-1.907556 0.403356,-1.95884 0,-0.128464 7.496254,0.466083 9.594931,0.658718 0.939164,0.0862 2.345976,0.264909 3.126249,0.397121 1.343459,0.227641 4.090123,0.806704 4.550205,1.104663 0.268404,0.173824 0.07216,5.17467 0.07078,10.514907 l -10e-4,3.740396 -0.540651,-1.420917 c -1.005974,-2.64386 -3.112103,-5.131911 -5.142984,-7.236343 -4.943579,-5.122618 -11.290037,0.965557 -7.171023,5.737842 0.870658,1.008743 3.475075,4.011204 5.59627,5.594438 1.982498,1.479715 1.885765,1.400747 1.694019,1.382886 -0.08199,-0.0076 -2.417706,-0.653601 -5.190478,-1.435472 z"
         id="path92224" />
      <path
         style="display:inline;fill:#f3aa1e;fill-opacity:1;stroke:none;stroke-width:0.162626"
         d="m 57.840467,48.578252 c 0.04472,-0.04607 0.960251,-0.816447 2.03451,-1.711956 4.515322,-3.764004 7.439662,-7.278157 7.068972,-9.605372 -0.748358,-4.698235 -5.542038,-4.427176 -7.679664,-2.595882 -1.976018,1.698746 -3.760673,4.26199 -5.66095,8.130645 -0.8089,1.646789 -1.292976,2.469147 -1.356303,2.304118 -0.05416,-0.141141 0.01709,-3.459264 0.04766,-7.373345 l 0.05557,-7.116729 1.058645,-0.343086 c 0,0 6.25503,-1.476988 8.752988,-1.886829 2.810554,-0.461128 6.353057,-0.547844 6.693902,-0.417049 0.158832,0.06095 0.265942,0.316433 0.496167,1.399543 1.082949,5.094818 1.880131,10.030683 2.150928,14.767116 -0.336703,0.333112 -3.549734,1.107931 -8.466546,2.743428 -2.544679,0.846446 -4.773051,1.59528 -4.95194,1.664073 -0.178889,0.06879 -0.28866,0.08739 -0.243939,0.04133 z"
         id="path104546" />
      <path
         style="display:inline;fill:#f3aa1e;fill-opacity:1;stroke:none;stroke-width:0.162626"
         d="m 34.097078,68.303575 c -5.874726,-2.184199 -9.131773,-3.874031 -11.261847,-5.842909 -0.575128,-0.531605 -0.563412,-0.796014 0.105396,-2.378662 0.30394,-0.719233 0.973579,-2.332242 1.488086,-3.58446 1.95582,-4.760125 4.45947,-10.051097 4.876951,-9.890895 0.114455,0.04392 3.294114,0.727831 6.912227,2.001531 l 6.704126,2.360081 -1.851111,0.102647 c -2.512806,0.139341 -5.363731,0.52626 -6.459943,0.987612 -3.171452,1.334738 -5.941635,4.98767 -4.483899,8.016795 1.061785,2.034007 4.371729,2.829922 7.467908,1.795749 1.566362,-0.523191 3.049481,-1.305118 5.563463,-2.933151 1.038005,-0.672203 1.91857,-1.190895 1.956816,-1.152652 0.08103,0.08104 -0.406616,0.811549 -3.917033,5.867824 -3.280305,4.724826 -3.963536,5.613375 -4.305347,5.599136 -0.1513,-0.0063 -1.409407,-0.433196 -2.795793,-0.948646 z"
         id="path89574" />
      <path
         style="display:inline;fill:#f3aa1e;fill-opacity:1;stroke:none;stroke-width:0.162626;stroke-opacity:1"
         d="m 48.732061,81.508828 c -2.701869,-2.315117 -5.967651,-5.517006 -7.264562,-7.12243 -1.089097,-1.348175 -2.329017,-3.28384 -2.329017,-3.635876 0,-0.110995 0.791434,-1.314236 1.758744,-2.673868 0.967308,-1.359632 2.771668,-3.954773 4.009687,-5.766983 1.238022,-1.81221 2.276912,-3.268964 2.308645,-3.237231 0.03173,0.03173 -0.0575,0.380134 -0.198286,0.774225 -0.524541,1.468269 -1.215327,4.442969 -1.453287,6.258235 -0.450334,3.435338 -0.264475,5.355113 0.687834,7.104817 0.618698,1.136755 1.982488,2.332146 3.008192,2.636746 1.04451,0.310186 1.320812,0.309188 2.391129,-0.0087 1.77667,-0.527609 3.217101,-2.625614 3.701134,-5.390739 0.480588,-2.745444 -0.04048,-7.812781 -1.166846,-11.347498 -0.131332,-0.412141 -0.193726,-0.497537 3.144828,4.304131 3.906355,5.618303 4.738486,6.912712 4.738486,7.370873 0,1.011195 -3.767714,5.981412 -6.690005,8.825189 -1.739263,1.692531 -4.134052,3.649761 -4.465702,3.649761 -0.08223,0 -1.063665,-0.783306 -2.180974,-1.740684 z"
         id="path86524" />
      <path
         style="display:inline;fill:#f3aa1e;fill-opacity:1;stroke:none;stroke-width:0.162626"
         d="m 63.783872,68.42633 c -0.431174,-0.478622 -1.201105,-1.419085 -1.710962,-2.089917 -1.238874,-1.630026 -5.576633,-8.142324 -5.48472,-8.234238 0.03999,-0.03999 0.72231,0.338603 1.516276,0.841306 6.130286,3.881423 12.168052,5.081954 14.388948,2.861059 1.195146,-1.195146 1.194084,-3.200861 -0.003,-5.63225 -1.14258,-2.320727 -2.619588,-3.444509 -5.298976,-4.031728 -1.817209,-0.398263 -2.709935,-0.478475 -6.505037,-0.584484 l -3.577771,-0.09994 2.032825,-0.747645 c 1.118053,-0.411206 4.506643,-1.576767 7.530201,-2.590138 l 5.497376,-1.519846 0.466997,0.475999 c 0.691573,0.704904 3.292774,4.971144 4.559183,7.720402 1.06281,2.307264 2.599739,6.146163 2.599739,6.493561 0,0.480517 -5.289102,3.860982 -8.781803,5.612779 -2.033573,1.019959 -4.925624,2.148682 -5.918082,2.309736 -0.475202,0.07711 -0.604662,-2.53e-4 -1.311213,-0.784658 z"
         id="path86768" />
    </g>
  </g>
</svg>
