<svg width="400" height="400" viewBox="0 0 105.833 105.833" xmlns="http://www.w3.org/2000/svg"><path style="fill:#000;stroke-width:.73979" d="M298.121 173.096c-5.54 9.369-4.757 20.833-3.762 31.254-1.92 51.462-83.442 53.24-127.396 107.883-21.68 27.517-42.304 44.102-55.059 73.511C87.76 441.42 75.59 501.562 77.656 561.934c1.69 49.358 15.547 100.511 28.71 142.785 12.323 39.578 38.293 69.932 57.107 104.994 42.988 52.013 123.91 86.216 181.857 95.82 39.116 5.937 86.077 7.512 120.818.725 53.248-5.833 114.265-20.903 145.663-62.117 42.627-55.957 74.408-131.899 73.605-198.55-1.64-136.13-11.59-237.478-90.37-343.138-36.988-49.609-99.406-32.899-150.28-50.656-32.552-10.214-22.123-44.673-34.09-66.918-9.944-18.482-21.71-15.304-39.518-13.668-21.303 1.958-60.71-15.39-73.037 1.885zm93.969 24.015c-3.607 20.356-8.368 37.129 42.91 56.768 55.363 21.204 129.208 14.085 156.549 63.97 93.667 170.906 115.647 326.901 27.705 494.239-48.94 91.06-185.905 93.241-269.545 85.78-125.34-11.183-245.23-170.239-259.48-308.005-4.303-41.597-5.988-88.173 4.546-124.308 19.415-64.247 78.343-177.243 139.338-188.053 78.523-13.916 75.033-14.237 108.944-21.38 13.363-2.815 13.403-11.93 5.013-17.407-3-1.658-7.701-3.024-7.972-6.887-.144-2.048 1.676-3.748 3.947-3.875 15.684-3.118 10.475-8.112 2.63-16.271-1.666-1.78-4.045-3.457-4.251-6.252-.345-4.667-.69-10.507 4.127-12.823 22.526-8.152 51.191-27.842 45.539 4.504zm47.128 93.703c-87.274-3.592-150.625 5.834-231.027 57.07-27.191 19.357-52.126 48.938-56.652 82.272-8.555 98.47-30.318 208.409 20.52 289.666C227.989 809.22 250 869.826 381.016 863.756c82.233-3.81 146.393-13.31 203.49-76.185 52.907-58.26 44.2-123.3 43.267-176.994-.897-51.649-10.194-86.915-14.363-124.345-6.802-61.07-34.108-103.689-56.586-138.627-25.212-39.188-70.628-54.858-117.606-56.791zm-48.626 26.235c6.633.15 15.674 2.466 25.955 3.773 34.066 4.333 69.51-3.954 93.789 14.582 51.722 39.489 40.684 51.091 71.338 99.17 7.717 12.105 27.416 67.068-1.043 47.897-15.227-10.257-35.138-20.782-51.149-25.063-31.324-8.376-59.652-14.609-89.189-15.236-24.463-.52-39.205 6.808-38.678-20.57.504-26.165-12.92-52.963-18.68-72.594-7.76-26.452-3.399-32.21 7.657-31.96zm-85.985 10.896c29.087.637 44.507 21.412 59.364 46.168 10.463 17.436 15.427 38.746 14.134 59.48-2.753 44.157-53.708 85.924-91.158 93.243-69.383 11.675-109.329-4.25-119.326-36.014-10.696-33.984 4.594-83.98 27.371-105.8 27.09-25.95 60.75-50.252 96.276-56.07 4.75-.779 9.184-1.098 13.34-1.007zm153.954 141.108c35.045.44 69.686 10.854 96.357 29.623 27.824 19.58 53.215 32.483 56.014 66.482 2.708 32.903-26.201 67.577-54.575 54.375-54.475-25.347-89.602-64.976-145.09-70.498-20.346-.019-50.18-5.256-42.275-30.66 8.138-26.15 30.833-41.958 54.67-46.377 11.491-2.13 23.217-3.092 34.899-2.945zm-285.014 68.18c4.17-.068 8.304.756 11.377 2.19 31.823 14.86 89.36 12.858 117.681 7.56 24.046-4.499 45.07 8.44 49.926 22.74 9.052 26.654-5.85 41.004-12.629 65.916-7.787 28.616-20.985 24.805-38.5 16.986-45.742-20.42-73.104-25.308-114.914-11.027-41.173 14.063-26.328-56.188-30.074-87.942-1.393-11.804 7.958-16.274 17.133-16.424zm226.318 34.195c7.02-.246 15.725 1.302 26.674 2.38 42.943 4.231 79.509 39.635 113.084 55.993 38.34 18.678 7.577 57.507-15.404 84.527-26.746 31.447-79.574 44.462-111.469 49.502-52.758 8.337-49.342 13.536-56.586-40.201-5.946-44.11 10.302-84.2 20.06-125.541 4.924-20.858 11.942-26.251 23.641-26.66zm200.2 60.14c25.847 1.692 12.776 65.269 8.72 85.641-13.927 48.432-58.501 78.444-92.733 104.114-38.302 28.722-101.766 22.124-134.23 14.41-29.01-6.895-71.415-17.868-6.43-49.96 36.565-18.056 96.173-13.183 128.504-35.82 26.077-18.258 52.651-48.982 61.852-75.807 8.638-25.183 20.836-43.461 34.318-42.579zm-377.742 13.378c43.227.326 60.265 18.429 88.189 34.95 44.254 26.184 36.606 46.972 31.58 88.588-7.86 65.08-52.985 67.61-91.131 32.067-25.036-23.328-53.078-58.161-65.95-89.018-2.833-33.912 8.92-66.783 37.312-66.587z" transform="translate(1.202 -20.348) scale(.13707)"/></svg>