<svg width="400" height="400" viewBox="0 0 105.833 105.833" xmlns="http://www.w3.org/2000/svg"><path style="fill:#000;stroke-width:.659433" d="M408.14 88.313c-76.546-2.594-95.894 46.83-116.617 58.92-35.942-39.875-77.221-24.657-111.164 4.064-22.465 19.666-37.97 45.847-50.855 72.476-20.301 41.956-30.243 88.555-31.14 134.993-1.798 92.997 17.61 196.306 47.646 287.806 16.565 50.466 55.751 113.41 76.283 165.465 8.427 21.365 11.293 45.133 23.852 64.768 7.67 11.991 19.62 21.57 33.646 24.574 15.101 3.235 30.245-3.826 46.637-3.707 16.353.119 21.675 34.878 22.912 46.404 2.827 22.899 2.6 53.52 29.027 58.65 8.62 1.674 17.313 1.77 25.953 1.262 27.542-4.461 25.273-22.695 28.088-44.351 1.25-9.616.869-20.193 5.317-28.832 16.28-31.622 25.321-23.345 47.982-23.95 22.849-2.169 44.35-14.653 55.998-31.84 22.601-33.346 26.3-75.963 48.838-109.454 7.928-11.782 16.888-22.84 24.687-34.725 49.235-75.027 78.284-162.642 86.538-251.693 5.094-54.966 7.682-110.76-.834-165.58-13.043-63.962-38.835-129.638-89.582-165.366-17.199-12.108-38.543-17.772-59.782-16.377-13.666.898-17.27 14.01-29.175 15.145-9.443.312-17.67-5.783-23.838-12.184-27.459-28.49-62.058-45.326-90.416-46.469zm-.574 6.345c20.278.601 39.608 7.556 58.598 20.84 23.964 16.763 42.991 37.83 59.975 61.406 22.165 33.265 37.153 70.61 46.949 109.325 24.165 120.67 16.055 213.965 1.937 272.748-9.924 36.938-39.324 180.198-73.353 225.833 3.916-18.489 14.416-27.824-4.06-33.414 29.37-14.158 24.151-28.545 6.478-49.94 19.723-9.7 34.233-46.543.42-55.188 0 0 20.134-18.643 1.62-39.366-21.171-23.697-34.655-1.343-34.655-1.343-.525-11.996-8.358-36.386-37.243-37.187-17.263.486-35.611 24.409-35.611 24.409s9.522-24.937-20.356-30.767c-29.877-5.83-27.027 26.054-27.027 26.054s4.6-8.566-28.92-7.837c-33.522.729-17.345 42.248-17.345 42.248s-15.869-.128-26.8 18.09c-10.93 18.218 6.024 50.67 6.024 50.67s-15.095-4.054-18.185 14.12c-3.46 20.356 11.23 23.89 14.21 34.428 2.978 10.537-2.58 9.94.166 19.765-20.327-42.195-57.678-119.473-64.13-156.198-9.845-68.022-12.645-137.49-5.188-205.995 5.644-52.028 17.339-103.643 36.229-152.437a370.718 370.718 0 0 1 36.926-71.776c18.337-27.37 40.731-52.169 70.642-66.878 15.266-6.823 29.851-10.646 43.95-11.479a98.674 98.674 0 0 1 8.75-.13zm-168.744 36.78c10.783-.341 22.528.45 31.586 6.931 8.858 8.78 6.66 17.795 1.77 26.735-14.04-8.187-29.212-16.377-45.883-16.506-10.074-.192-19.902 4.214-26.815 11.48-31.857 29.099-52.858 68.26-65.816 109.014-5.24 16.79-9.6 33.903-12.367 51.277-10.046 87.443-.699 176.725 24.736 260.861 12.54 46.278 31.224 90.603 51.442 133.973 18.05 32.59 40.094 63.536 51.298 99.436 2.453 7.658 4.334 15.836 5.319 23.959 2.412 13.802 11.146 26.678 24.021 32.65 17.605 8.466 39.417 4.376 54.393-7.586 3.04-2.084 18.633-16.135 9.242-16.512-14.779-.18-35.23 6.735-46.834.21-10.993-6.183-13.517-23.642-13.885-34.842-.401-12.248 12.608-20.77 12.526-22.657 2.584-46.963 15.483-138.59 24.486-160.709 19.92-48.941 63.175-37.962 78.766-19.545 59.837-46.343 93.494 27.012 94.23 75.38.41 26.989-16.082 100.362 1.488 113.507 13.954 4.329 23.719 13.492 22.356 28.662-.852 9.487-16.524 33.877-24.072 35.098-9.504 1.537-23.369-4.653-31.373-9.483-30.78-9.939 7.63 26.04 19.88 27.512 15.184 1.826 30.025-6.036 40.774-16.355 7.545-7.102 12.94-16.305 15.656-26.291 8.252-24.613 16.41-49.499 29.678-72.069 64.112-101.906 92.572-232.066 105.959-352.638 9.39-84.576-36.455-302.855-130.496-242.793-4.311-5.837-9.155-13.299-6.66-20.75 2.37-7.083 10.3-10.615 17.18-11.416 26.891-3.134 39.556 1.79 58.304 16.588 31.462 24.832 53.337 60.165 67.637 97.11 9.56 24.702 17.522 50.316 20.181 76.552 7.027 69.318 2.935 139.783-10.937 208.22-7.848 38.719-20.527 76.369-34.983 113.31-23.843 60.937-74.654 112.454-92.187 168.9-9.886 33.374-22.655 51.592-45.986 73.132-20.24 18.742-42.99-2.513-59.5 4.399-10.383 4.346-15.853 17.3-19.836 27.248-10.543 38.877-3.78 75.223-37.625 76.816-21.678.119-32.267-4.66-34.356-24.76-2.486-21.337-5.147-43.127-14.078-63.011-3.011-6.704-9.37-24.903-24.918-21.42-64.393 14.426-74.275-27.114-89.603-70.426-18.864-51.927-47.57-94.608-67.627-148.965-35.14-95.232-67.403-208.487-62.414-308.4 2.222-44.512 8.12-90.265 28.382-130.069 23.244-45.662 55.831-98.155 106.961-101.758zm-12.236 41.273c4.533-.025 7.842 3.392 9.355 11.203 5.291 67.298-30.172 149.434-42.222 205.469-19.252 89.524 14.39 243.542 58.717 371.303-33.732-7.622-42.662-43.804-50.157-62.522-46.453-116.01-70.224-211.858-71.836-250.428-1.616-38.699.908-83.618 5.563-123.535 5.93-50.855 66.102-151.355 90.58-151.49zm334.215 9.771c146.27 105.146 54.097 439.284-2.723 579.356-4.144 10.215-20.241 27.804-31.26 32.263 13.85-59.105 31.433-114.751 47.996-164.45 46.547-139.665 45.633-236.331 15.766-353.174-8.913-34.87-47.124-85.043-29.78-93.995zm-81.065 85.186c-12.595-.122-17.949 6.199-30.002 19.482-10.844-21.906-64.592-23.812-64.379 17.278-23.58-44.97-53.217-13.176-61.039 8.713-26.332-46.271-68.789-7.668-53.18 20.62-42.53 39.469 6.654 61.44 2.934 64.29-25.887 27.483 24.425 73 54.778 38.654 2.268-1.945 4.808 1.282 6.607 2.488 12.55 6.479 22.322 17.615 28.014 30.457 3.049 6.647 5.291 14.309 6.73 21.547 2.279 11.461-.964 23.685 2.735 34.823 1.217 3.665 7.933-2.1 9.283-6.03 5.93-24.058-1.634-52.022-13.158-68.222-2.67-3.754-11.042-10.813-8.55-13.166 2.384-2.25 13.852 3.974 14.78.252.852-1.915-7.042-6.976-5.193-8.174 1.548-1.004 12.624 4.035 11.732 1.047-.213-2.655-2.723-8.026-.176-8.155 4.806-.244 8.213 7.19 13.545 5.744 5.835-10.171 6.912-8.699 13.34 3.817 9.508-8.099 17.77-12.976 16.817-5.625-.815 6.286-4.268 12.406 9.732 7.912 4.598-1.476-4.076 5.406-9.123 18.432-7.717 19.918-11.034 45.591-13.23 61.918-.939 6.97-2.449 10.21 4.615 11.408 9.308.766 8.083-27.315 9.26-32.471 3.682-16.141 4.501-37.558 15.038-51 8.443-10.77 17.274-20.006 21.127-16.773 17.941 15.052 52.272 16.335 57.204-13.829 49.745-19.136 20.615-51.6 12.826-56.939 43.342-40.944 8.508-59.835-21.606-60.7-8.464-15.517-17.77-27.666-31.46-27.798zm2.23 12.23c13.308-.01 20.254 13.52 18.999 31.963a36.18 36.18 0 0 1 4.248.393c56.89-31.102 36.311 53.36 8.361 38.11-1.358 1.372-2.412 2.253-3.601 3.355 47.099 7.787 26.694 60.192 1.547 44.75-.193.006-.328-.026-.518-.022-2.005 37.873-25.815 35.98-53.191 21.51-14.29 4.987-28.877-1.036-37.323-28.232-17.928 20.931-31.736 24.47-40.656 19.617-11.387 8.646-24.684 13.235-33.785 6.392-5.24-.165-10.028-.847-14.602-1.744.11 7.262-8.59 14.1-14.54 13.375-19.143 24.227-54.6-9.574-36.19-22.648-2.11-7.049-1.048-12.949 1.879-17.244-23.577-21.503-21.3-45.33 3.55-47.864.231-1.889.64-3.826 1.391-5.806-33.576-28.594 17.537-53.452 35.322-13.276 17.564-37.087 54.815-38.91 55.012-10.654 2.04-.126 3.706.036 5.473.121 16.593-26.575 45.71-44.46 68.199-15.586 12.166-11.62 22.441-16.503 30.426-16.51zm-30.425 16.51c-11.4 9.46-19.897 23.977-7.852 32.871-17.638 1.921-32.928 8.285-30.18 17.43-2.868-4.424-7.934-6.232-12.769-6.205 5.879-12.96 3.25-27.516-17.398-28.51-8.824 13.543-8.294 28.93 6.09 34.098-.632 1.258-1.02 2.636-.797 4.238-3.064 1.614-5.63 3.73-7.973 6.033-4.65-3.155-13.155-3.265-15.474.291 3.878 2.916 8.005 3.75 12.076 3.356-13.073 16.935-10.992 43.953 2.568 51.332 21.439-16.279 35.994-47.2 2.217-45.115 2.117-3.128 2.006-5.641.799-7.606 5.144-2.07 9.855-6.036 13.51-10.932 2.222.239 4.616.334 7.269.2 3.882 11.973 32.77 11.476 34.084.945 9.478-.692 15.47-6.518 18.566-14.31.977.23 1.779.519 2.846.718 3.166 13.568 13.879 15.381 23.7 10.098.363.626.594 1.33 1.011 1.92 3.422 4.834 5.58 9.433 8.092 12.142-2.422 3.235-3.8 7.749-3.266 14.022a28.724 28.724 0 0 0-1.35 7.678c-2.421.368-4.902.81-7.556 1.523-10.483 2.814-19.542-14.423-23.744 16.82-6.565 8.01-6.983 16.568 1.8 20.512 12.007-4.19 23.64-16.207 31.399-30.068 2.955 5.281 9.557 8.852 21.793 8.558 2.081-12.426-5.124-18.035-17.338-17.834 2.597-6.438 4.348-12.95 4.65-19.074 2.808-.605 6.563-3.1 11.659-7.82-4.259-.722-8.361-.375-11.88 1.02-.789-5.994-3.186-11.277-7.548-15.28 6.436-6.58 10.982-16.399 10.42-27.598-15.348-.575-21.856 9.953-21.635 20.877-5.865-2.507-13.473-3.636-21.37-3.945 2.135-10.695-.183-23.394-6.419-32.385zm-86.353 60.246c-3.82-5.89-21.673-12.54-36.567-15.568-.082-5.168-2.314-11.909-5.764-18.559-4.765 5.98-6.232 11.902-4.191 17.121-6.785-.502-11.645.289-11.2 3.506a46.119 46.119 0 0 0-6.501 4.133c-4.769-3.883-10.257-6.07-14.82-5.678-.825 6.759 1.462 12.644 5.533 15.971-4.816 8.103-5.518 17.448-2.61 26.348-2.584 1.308-4.838 3.143-6.474 5.545 3.352 1.412 6.813 2.273 10.135 2.441 6.793 11.113 19.925 20.391 38.716 24.076-.05-3.333-1.78-6.747-6.799-9.576-3.462-11.944-9.974-19.07-16.992-22.383.891-1.771 1.626-3.75 1.965-6.215 3.58-7.233 2.654-14.554-.547-20.712 2.615-1.794 5.268-4.282 7.871-7.788 4.456 1.007 7.348.365 9.217-1.234 7.56 4.757 20.328 7.982 39.027 8.572zM363 602.064c-14.291-.645-29.552 17.399-35.404 32.174-16.184 40.864-16.333 98.766-.006 135.004 7.93 17.6 28.797 37.5 41.959 18.336 16.323-23.769 15.026-59.591 17.07-79.588 1.636-16.01-1.093-35.988-6.568-49.812-3.517-8.88-13.681-24.402-23.793-16.604-3.629 2.799-9.496 7.429-7.221 11.266 9.022 15.216 16.625 31.065 17.084 48.412.475 17.956-1 36.302-6.918 53.185-3.358 9.58-9.19 17.863-15.93 5.33-17.46-32.465-17.796-107.02 3.479-130.757 12.12-13.524 23.036 3.381 32.617-.627 4.394-1.839 3.34-8.256 1.543-11.793-5.12-10.078-11.416-14.232-17.912-14.526zm69.668 1.6c-16.774-.755-28.37 17.134-24.213 18.541 50.756 12.984 63.108 71.018 42.166 122.399-10.778 26.442-27.338 26.482-29.14 1.73-2.641-36.269 8.756-61.57 14.906-93.717 1.238-6.474-5.399-15.257-12.008-12.228-19.557 8.96-21.903 49.437-22.123 66.152-.28 21.272-.305 43.03 5.822 63.611 2.991 10.047 6.46 22.29 16.01 26.92 28.7 13.915 48.472-40.399 49.97-59.906 3.005-39.11 5.427-74.715-7.89-104.422-11.507-21.462-23.436-28.627-33.5-29.08z" transform="translate(10.426 -6.143) scale(.10894)"/></svg>