<svg width="400" height="400" viewBox="0 0 105.833 105.833" xmlns="http://www.w3.org/2000/svg"><path style="fill:#000;stroke-width:.654633" d="M806.664 106.105a341.366 341.366 0 0 0-6.408.01c-68.08 1.122-133.487 29.192-187.16 71.237-24.737 19.378-34.65 44.193-52.834 64.168-2.964 3.172-7.771 4.554-11.713 2.142-3.894-2.382-5.84-6.6-8.445-10.142-56.573-76.891-152.469-123.544-247.946-118.393-17.776.959-35.285 4.354-52.637 8.254-46.452 10.442-89.816 36.5-118.421 74.764-18.446 24.672-29.643 54.699-31.338 85.537-2.204 40.078 9.076 79.98 28.168 114.935 14.505 26.558 32.908 51.077 54.71 72.059 27.563 26.525 62.29 43.72 96.428 60.176 37.02 17.843 75.084 35.347 105.578 63.507 13.004 12.009 23.824 26.08 35.743 39.114 23.715 25.934 49.673 51.1 81.894 66.123 21.543 10.044 45.594 14.408 69.307 12.685 35.477-2.577 68.905-18.442 96.244-40.705 12.552-10.221 23.468-22.198 34.324-34.152 45.576-50.185 102.557-88.608 162.819-118.994 15.318-7.725 30.84-15.107 45.316-24.383 45.288-29.02 83.146-69.94 107.225-118.102 16.4-34.24 19.343-73.996 11.166-110.838-10.056-45.604-35.334-88.724-73.067-116.427-38.016-27.912-85.583-41.059-132.547-42.453-2.135-.064-4.27-.104-6.406-.122zm-3.338 8.713c30.37-.207 60.476 6.233 89.115 16.897 46.793 17.424 84.286 55.336 103.387 101.014 13.97 33.272 18.623 70.5 10.895 105.751-3.571 16.987-10.64 33.098-18.69 48.092-20.753 38.657-51.75 71.43-87.797 96.063-12.294 8.402-25.392 15.503-38.703 22.156-52.687 26.333-104.27 56.605-147.16 97.418-20.492 19.5-38.95 41.099-60.389 59.627-21.162 18.29-45.72 34.12-73.597 39.201-10.668 1.944-21.144 3.589-32.024 3.358-18.787-.4-37.966-5.647-54.799-13.971-27.14-13.422-50.7-33.637-69.34-57.348-35.278-44.878-83.235-78.134-134.45-102.398-18.236-8.64-37.311-15.44-54.899-25.461-32.614-18.583-61.51-44.11-83.797-74.063-17.544-23.579-30.442-50.28-40.219-77.988-8.527-24.168-11.909-50.596-8.593-76.004 5.945-45.565 31.264-88.602 69.855-113.947 30.618-20.109 65.426-32.55 101.77-37.14 64.13-8.1 130.977 7.463 184.767 43.743 9.942 6.706 18.952 14.636 28.276 22.141 23.396 18.832 40.458 43.582 57.85 67.652 3.515 4.866 7.13 19.324 10.696 14.493 19.384-26.263 30.368-58.967 55.682-80.276 4.697-3.953 9.43-7.384 14.115-11.43 48.922-42.234 113.383-67.137 178.05-67.58zm12.45 57.364c-1.306-.007-2.619 0-3.938.023-46.292.774-92.553 15.785-129.604 43.893-23.63 17.926-45.617 39.538-58.01 66.836-22.115 39.396 11.41 76.255 49.432 68.955 16.015-3.075 30.61-11.368 43.307-21.688 21.089-17.14 58.488 5.87 46.162 25.465-29.815 47.4-25.68 105.394 19.066 101.975 45.554-5.155 88.391-28.447 121.008-60.528 20.832-20.49 41.485-45.991 43.162-75.494C951.51 231.092 898 172.64 815.775 172.182zm-492.99 9.861c-109.737 12.57-203.57 77.84-147.071 176.6 29.644 51.818 79.539 99.205 139.115 104.752 50.1 4.664 95.35-5.887 66.236-57.407-9.763-17.276-28.634-29.793-32.986-47.408-5.028-20.352 3.412-41.447 25.123-41.756 13.86-.197 25.922 7.703 36.56 15.649 12.453 9.3 25.057 20.113 40.92 22.646 12.35 1.972 25.869-1.85 34.647-10.873 8.57-8.809 9.789-22.193 7.676-33.783-6.901-27.708-21.47-49.191-38.233-68.969-30.819-37.832-90.25-63.277-131.988-59.451zm62.366 21.914c42.704 19.258 84.115 48.175 92.353 93.354 11.931 65.43-40.57 42.412-83.907 8.044-53.29-19.616-69.222 45.31-43.037 75.66 51.318 59.487 4.98 84.32-62.762 66.527-35.878-19.628-82.912-60.066-101.488-92.953-33.095-69.826 12.126-104.65 32.961-128.85 28.586-33.204 122.449-41.368 165.88-21.782zM842.7 186.42c47.848 8.964 86.645 51.412 91.953 97.78 7.852 68.597-34.6 113.114-92.143 142.568-60.318 30.874-103.98 9.712-72.66-44.414 23.981-41.443-9.027-85.745-41.406-70.718-83.99 38.978-122.663 13.681-71.722-55.688 42.293-57.592 120.49-81.797 185.978-69.528z" transform="translate(-8.568 8.46) scale(.11045)"/></svg>