<svg width="400" height="400" viewBox="0 0 105.833 105.833" xmlns="http://www.w3.org/2000/svg"><path style="fill:#000;stroke-width:.645623" d="M477.922 142.348c-2.046-.03-4.045 0-5.953.056-13.039.716-31.463-1.513-37.723 10.123-13.292 40.514-4.603 77.03-22.29 112.504-13.248 33.407-47.493 42.03-72.114 58.918-54.128 45.817-91.091 94.42-111.541 156.352-6.165 18.924-12.078 38.115-14.768 57.834-8.929 65.464-7.026 132.886 8.313 197.232 15.408 64.638 47.246 123.83 80.265 181.404 5.153 8.985 7.646 20.675 17.768 24.596 38.418 7.598 63.921-41.098 79.932-66.654 6.265-9.77 11.428-33.042 21.968-27.479 16.275 8.59 15.24 34.306 28.877 47.207 14.813 12.79 48.587 13.667 58.434 3.38 6.713-6.943 10.202-16.278 16.678-23.385 1.789-2.237 5.203-2.705 7.234-.508 3.183 2.688 4.213 7.02 6.592 10.355 17.393 29.193 43.293 52.955 73.008 69.242 24.269 3.795 28.446-19.036 35.161-34.812 22.422-52.673 41.966-112.024 62.632-157.41 18.907-41.526 23.481-92.524 24.18-132.819-4.278-69.487-12.424-133.41-38.567-190.566-17.01-37.244-41.914-70.128-69.832-100.572-20.37-22.214-49.974-28.503-68.82-46.285-17.006-20.296-31.618-48.244-37.57-71.047-4.972-19.136-3.31-39.51-7.491-58.61-3.466-15.83-20.052-18.855-34.373-19.056zm-1.637 10.73c9.453.001 18.054 1.999 23.356 5.836 18.785 13.597-8.992 68.169 41.015 128.074-40.659 36.56-82.44 59.65-131.326-2.527 49.346-61.078 19.367-116.14 38.483-125.24 8.713-4.148 19.019-6.144 28.472-6.143zm-62.947 164.277c3.68 6.423 6.32 13.764 7.062 20.81.238 3.618.69 8.228-2.386 10.821-64.884 24.18-100.323 73.88-126.147 129.434-23.575 50.776-36.604 107.321-35.739 162.988.711 45.752 3.95 91.919 27.774 132.583 26.114 44.575 87.138 127.728 49.542 159.251-4.261 3.574-14.484-10.914-18.169-15.156-46.526-69.805-80.013-148.957-91.699-232.307-3.63-25.889-3.832-52.019-4.117-78.224 6.013-68.253 15.744-143.913 50.967-194.739 21.491-30.615 43.733-62.616 75.785-82.33 22.984-13.695 48.586-43.964 67.127-13.13zm134.316-14.203 2.91.569c37.684 7.86 63.537 29.214 88.098 58.383 32.242 41.25 61.142 98.478 69.795 144.46 10.537 59.098 21.697 121.127 13.049 180.713-5.636 31.913-17.306 61.028-30.379 88.08-17.01 35.197-53.263 194.695-92.459 159.977-1.4-1.24 24.111-82.752 51.547-151.639 40.282-101.14 41.304-173.754 11.55-277.623-11.464-40.022-24.622-76.64-53.505-107.029-67.13-59.317-90.172-35.514-80.617-70.52 4.453-9.877 11.004-19.17 20.011-25.37zm-53.261 46.645c12.26-.075 21.24.642 19.77 2.48-12.742 16.385-23.93 71.928-23.93 71.928-2.84.82-50.884 12.314-48.852-2.435 3.094-22.457-19.489-57.165-2.408-66.54 5.444-2.987 34.986-5.309 55.42-5.433zm83.216 40.058c27.708 27.625 42.04 59.947 57.246 92.963 25.81 56.042 29.304 106.195 28.473 158.875-.566 35.917-5.654 80.58-33.1 150.74-15.613 39.916-21.938 146.431-58.896 117.29-12.677-9.996-20.71-25.9-27.13-40.649-4.79-12.264 5.47-63.986 11.114-92.105 6.362-32.552 13.825-67.863 15.483-98.971 4.403-54.917 6.23-64.38.265-118.215-4.078-36.816-11.642-48.229-20.925-72.316-8.842-22.942-9.236-25.288-15.721-41.807-6.604-16.822-25.16-15.95-31.156-19.482-.645-.5-1.433-.854-1.934-1.498-3.213-15.599 7.024-46.287 16.76-61.15 12.187-19.789 48.81 15.647 59.521 26.325zm-155.77-27.45c2.072.079 3.036 1.555 4.015 5.736 3.224 29.03 15.485 52.03-.393 65.261-8.46 7.559-16.042 11.777-20.607 19.702-16.19 28.1-28.124 57.67-29.407 89.654-3.708 92.506-1.011 154.782 21.588 233.851 8.112 28.38 25.597 42.071 11.502 66.56-63.486 94.736-63.603 8.754-90.746-32.939-43.462-66.76-59.4-137.987-46.617-210.53 10.989-62.363 28.476-117.297 63.424-163.927 20.115-26.84 43.942-59.984 76.584-70.728 5.409-1.404 8.587-2.72 10.658-2.64zm3.35 107.374c-9.659 30.263-13.9 69.236-15.205 98.157-1.739 38.538-3.21 82.51 1.194 120.25 4.974 42.629 11.645 72.382 21.57 111.033 5.727 22.301 13.551 51.41 14.316 56.449 1.03 6.785 16.156 37.66 13.24 35.557-12.692-31.965-30.696-53.55-39.454-75.938-13.098-33.486-22.33-54.274-27.358-87.42-12.195-64.089-17.347-124.765-8.305-184.275 4.071-26.79 9.912-49.532 16.883-72.258 5.408-17.63 36.382-34.532 23.118-1.555zm87.077-11.902c.926 2.557 8.005 16.276 8.53 18.723 11.695 54.393 11.457 81.79 13.065 93.955 9.08 68.683-3.948 123.928-5.466 179.35-3.71 34.662.63 64.825-8.907 99.665-.531 1.888-12.393 42.76-16.716 36.99 0 0 17.464-196.65 17.517-245.894-3.595-54.046-1.989-99.24-15.625-162.014-1.734-7.98 1.537-37.514 7.602-20.775zm-64.46 4.191c3.574 8.389 1.51 19.05-1.46 27.883-10.62 31.58-11.35 70.59-12.77 102.2-.324 18.717 1.134 37.432.567 56.144.873 16.232 2.112 32.446 3.554 48.643 3.206 36.002 7.872 71.87 15.002 107.318 4.08 21.414 7.577 43.06 14.438 63.805-6.816 24.172-19.982-42.373-23.373-57.385-15.536-68.776-28.053-128.682-25.817-194.487 1.047-30.823.448-126.834 19.87-156.097 6.15-9.266 6.702-5.742 9.99 1.976zm22.864-4.154c1.134 45.203-1.209 90.377.408 135.621.79 22.074-1.218 44.273 1.59 66.225.737 33.137 2.52 66.237 4.072 99.343.956 20.38 1.801 40.76 2.291 61.157.371 15.438 1.981 66.103.655 68.244-4.924 9.09-5.139-10.225-5.37-13.768-11.303-63.67-22.997-120.642-27.177-177.275-.83-35.38-4.797-70.694-3.387-106.113.099-24.86-.52-49.763 4.254-74.125 3.302-14.22 3.81-28.893 6.799-43.172 2.564-7.651 5.02-25.32 15.865-16.137zm33.611 100.531c1.905 46.347 3.355 92.713 4.567 139.08-.17 37.24-2.656 69.605-4.487 105.56-1.656 32.542-3.851 71.947-11.326 85.61-.62 1.365-3.495 1.52-4.924-1.924-1.766-10.624.124-19.941.022-29.857-.308-29.826-.558-54.53-1.147-81.494-1.887-88.533-6.553-176.996-7.336-265.553-.98-13.978-.405-28.164 2.383-41.916 8.2-43.746 21.414 53.982 22.248 90.494zm21.008-100.3c14.002.286 33.801 87.203 33.306 88.318 9.476 49.7 1.466 153.488-6.404 197.236-9.004 49.503-16.44 111.829-24.326 106.936-.54-.335 4.43-24.396 5.121-51.668 1.403-55.284 5.381-61.77 7.563-92.026 4.363-60.51 8.409-108.4 3.967-136.547-6.984-44.253-19.227-112.25-19.227-112.25z" transform="translate(-5.075 -16.38) scale(.12582)"/></svg>