<svg width="400" height="400" viewBox="0 0 105.833 105.833" xmlns="http://www.w3.org/2000/svg"><path style="fill:#000;stroke-width:.659214" d="M391.627 147.566c-13.095.19-25.866 2.685-38.555 5.754-43.267 10.74-91.172 27.753-123.306 52.229-11.525 8.255-22.36 18.134-36.475 21.375-47.132 10.996-63.295 55.092-81.75 90.158-30.5 60.343-6.13 157.568 22.647 203.414 24.025 36.753 69.981 50.74 95.08 75.06 12.026 100.123 33.447 202.621 88.464 263.858 9.692 11.023 28.488 19.111 31.891 32.488 9.007 70.779-8.572 103.944 29.303 103.266 11.67 1.697 23.514-.59 35.12-.797 13.111-.676 25.982-.285 38.975 1.104 48.709 4.587 42.376.441 56.567-97.557 4.28-18.864 23.403-30.668 33.748-44.193 67.149-101.352 70.46-167.875 78.87-257.873 1.064-5.592 6.545-8.704 10.712-11.907 68.682-42.231 116.76-120.468 113.018-194.437-2-39.532-7.165-92.053-35.57-123.473-33.365-36.904-49.631-50.034-92.391-50.963-22.304-15.753-45.172-31.613-67.895-42.88-45.086-20.671-82.702-19.905-127.201-20.075-10.688-3.452-21.067-4.698-31.252-4.55zm4.404 7.4v.003c3.28.1 6.658.4 9.758.834-7.267 6.714-16.575 9.85-24.33 14.32-7.632 4.6-25.325 6.256-34.744 9.713-52.597 19.303-85.524 32.034-117.967 62.836-22.986 25.93-32.305 54.875-44.1 81.633-5.003 19.863-5.932 40.602-4.1 60.96 1.923 31.676 15.34 58.035 26.1 84.548 15.105 27.954 36.861 51.062 58.772 70.412 8.182 6.409 20.208 15.281 29.723 14.422 2.838.03 4.83-3.911 2.11-5.596-20.76-9.07-40.525-26.122-53.419-42.063-72.055-103.711-70.168-235.693 37.652-294.215 31.974-16.873 61.98-25.285 94.053-29.894 4.594 8.91 16.569 5.333 23.238 7.426-3.524 5.027-6.232 10.877-5.908 17.156-.769 14.693 7.74 28.914 8.684 42.576-.253 1.7-5.317-6.65-6.428-7.564-14.623-16.761-29.51-14.38-14.977 1.906 15.226 19.942-8.558-7.404-21.48-15.713-11.73-7.133-62.125-27.795-66.234-14.086-1.865 6.219 1.836 4.404 26.296 5.848 15.183.896 63.213 42.37 63.295 53.98.068 9.547 5.43 17.343-7.306 8.727-5.813-3.932-10.13-9.688-15.043-14.656-1.896-1.363-3.647.872-3.596 2.753-.755 2.009-2.509 4.943.127 6.432 6.278 4.805 12.127 10.277 17.219 16.334 3.464 5.751 12.109 15.227 6.304 18.024-5.073 2.444-2.801.879-3.681-5.874-1.107-6.26-4.76-11.994-9.346-16.312-1.175-1.211-2.856-1.382-4.355-1.572-3.924-4.602-17.519-9.385-10.409-13.522 1.921-.558 4.388-2.27 3.004-4.513-16.89-13.67-48.869-26.845-65.787-24.39-25.768 4.575-60.807 38.114-52.943 43.518 3.361.391 5.438-3.198 7.205-5.515 31.885-21.518 73.316-38.516 99.537-8.026-.182 1.333.35 3.578.229 4.202-2.337 1.749-1.001.347-1.565-1.588-3.038-5.33-9.403-7.371-14.846-9.354-30.325-9.316-60.799 4.925-79.285 26.914-11.717 17.243-17.098 35.621-18.728 54.715-2.81 49.825 8.471 102.724 38.23 140.332 11.822 13.321 23.349 29.165 39.17 35.059 2.374 1.036 3.732-.85 2.8-2.992-13.966-12.206-28.81-27.775-37.419-42.23-16.282-23.52-24.868-60.16-25.773-86.552-.363-8.545 3.075-33.067-1.176-25.633-9.57 16.737-6.453 27.067-7.293 42.143-4.728-17.768-5.347-47.963-1.086-63.848 6.572-26.715 13.508-42.864 33.094-59.453 17.093-11.62 39.135-13.023 54.974-2.175 3.465 2.063 10.927 12.446 12.526 5.83.127-1.816 1.031-3.437 1.779-5.065 12.424 5.06 27.737 25.438 29.549 30.402 6.454 17.688 23.097 28.435 29.332 47.97-20.895-4.311-31.506-10.889-29.948-29.789-11.832-14.141-34.859-42.4-53.785-47.735-16.882-4.76-40.218 3.097-47.957 18.73-.832 2.645 2.817 3.947 4.371 1.926 14.363-9.29 32.623-22.172 44.395-9.035.86 2.423-3.198.203-4.486.605-6.602-1.06-13.53-.667-19.602 2.34-3.413 1.422-7.126 2.286-9.795 5.049-8.141 6.582-14.443 15.256-18.39 24.895-9.094 22.202-11.18 46.356-10.702 68.382.764 26.344 22.363 103.838 48.557 103.399 2.061-.947 1.235-3.526-.266-4.66-3.995-3.635-6.675-8.842-9.222-13-17.584-28.7-28.138-62.872-25.715-95.733 1.815-24.614 7.457-42.668 22.682-58.967 6.7-4.818 28.183-11.42 31.042-6.709.736 21.105 15.91 43.623 16.499 64.938-1.916-.04-2.468-.66-3.756-2.393-14.594-13.86-6.846-55.808-29.57-44.109-7.269 4.166-12.612 10.936-17.196 17.793-3.415 11.5-9.717 26.797-9.043 37.34-.327 15.379.351 30.948 4.604 45.82 3.574 13.127 8.274 26.227 16.447 37.252 5.566 9.203 13.604 16.567 21.33 23.926 2.955 2.406 5.841 5.97 9.906 6.098 2.044-.556 2.548-3.355.694-4.489-18.456-13.303-29.312-37.238-38.622-53.496-13.658-23.852-12.348-55.4-3.26-78.008 15.14-32.236 19.718-24.796 26.005-8.066 8.745 23.275 8.622 42.14 11.865 64.543 6.873 47.482 4.728 43.361 25.088 79.215 2.599 1.808 5.086-2.206 3.011-4.178-5.68-9.757-8.61-21.3-11.76-31.168-6.825-24.928-.6-33.837-4.679-41.75-3.2-7.633-2.903-16.202-1.979-24.258 1.816-7.281 10.327-23.654 12.364-13.736 2.862 13.936 7.22 21.53 1.294 35.58-2.752 6.525-4.802 4.283-5.912 14.756-.065 18.353 5.38 40.475 13.764 55.676 27.254 46.298 7.281 11.764-23.045 25.629-1.978 1.31-1.26 4.483 1.211 4.496 18.553-2.908 37.14 2.428 49.088 16.173 5.816 6.242 17.025 14.646 22.06 4.954 8.711-16.764 1.671-45.766.087-63.514 2.032-46.679 3.526-96.954 7.92-140.604 1.394-21.778 1.535-43.652.634-65.455-.575-6.95-.743-14.002-2.265-20.824-26.034-120.677 31.343-57.359 29.613 3.252-6.304 52.68-7.62 109.503-13.623 160.922-3.023 25.887-2.293 52.3.71 78.191 1.802 15.528 4.487 63.703 27.554 50.524 2.604-1.496 3.956-4.414 6.181-6.303 2.724-4.674 5.24-9.785 9.533-13.234 2.796-1.47 5.645-2.917 8.034-4.993 3.325-.989 6.887-1.045 10.246-1.808 4.213.575 9.369 1.432 12.777-1.742 2.429-4.988 7.114-8.508 10.514-12.856 18.84-21.702 33.06-43.782 40.078-69.205 6.576-23.82 10.75-66.06-13.94-79.654-1.437.223-.228-2.726-.828-3.676-.19-1.051 2.766-1.612 3.74-1.385 27.913 10.889 26.707 62.46 20.786 82.018-1.237 4.085-5.127 17.415-6.022 19.635-3.513 8.715-.333 9.37 3.586 3.724 4.75-6.843 6.697-15.52 9.317-23.554 2.69-8.252 4.912-16.659 5.697-25.338.992-10.972 1.927-22.068.01-32.987-2.092-13.81-6.174-28.495-16.787-38.16-3.385-3.082-9.27-3.8-11.274-7.94-21.28-43.95-46.647 18.939-43.547 4.368 2.088-9.625 6.184-18.94 12.18-26.77 13.445-13.73 39.088-16.963 55.754-11.474 12.25 4.657 22.806 14.849 29.621 24.726 3.1 4.984 5.107 10.323 7.82 15.54 2.602 5.542 3.761 11.59 5.967 17.263.47 2.56 4.455 3.152 5.057.438.36-4.599-1.703-9.041-2.596-13.508-3.347-13.952-8.931-27.37-16.95-39.297-7.954-13.494-15.556-17.485-27.034-24.899-15.625-6.941-34.93-6.923-46.75 3.206-1.622 1.63-8.136 5.28-7.02 2.328 4.925-12.107 17.626-16.206 28.543-18.059 18.97-1.786 36.92 8.494 49.121 20.72 18.691 21.73 30.214 55.686 32.127 81.606 2.568 34.779-13.556 60.798-12.431 85.756 2.483 9.926 11.757-17.193 12.56-19.351 7.788-32.656 11.423-71.943-.844-105.59-10.245-29.09-26.796-54.162-54.84-65.688-11.258-6.497-25.33-5.865-36.945-4.676-32.06 4.903-26.246 21.298-39.445 43.576-11.945 20.162 1.768 29.617-6.807 22.635-4.016-3.27-6.277-9.92-5.855-14.736-.088-8.095 3.189-15.724 6.127-23.111 2.843-7.765 10.288-12.06 15.533-16.809 1.807-2.198-1.01-5.466-3.453-4.783-10.697 1.803-22.682 17.358-26.781 25.719-4.033 8.357 3.96 20.881 2.928 29.804-2.026 17.527-12.214 17.937-16.38 33.917-.825 3.159-3.876 10.353-2.369 13.228-2.088.388-3.155 2.754-2.664 4.68-1.974 5.986-6.701 28.41-9.265 33.24-17.007-7.693-6.443-29.863 3.255-35.227 1.436-.014 2.913 1.802 4.471.602 2.068-1.445.233-4.508-.256-6.463-1.024-3.146-3.196-5.886-2.93-9.36-1.38-9.352 6.156-33.444 13.16-35.402 11.112-5.556-2.264-16.32.268-25.394 6.592-19.008 9.96-18.149 18.448-31.883 16.03-25.943 53.925-33.336 80.175-21.47 45.37 20.507 88.462 101.185 78.479 163.153-5.933 36.827-15.386 58.54-42.79 90.233-14.275 12.802-41.16 47.08-57.83 48.389-3.125.662-2.61 5.202.348 5.744 12.03 2.728 21.256-4.001 28.664-11.133 18.464-17.775 37.403-30.467 47.569-49.733 6.614-11.425 14.448-23.197 18.388-34.675 10.021-25.851 15.5-52.117 14.077-77.928-.769-15.333-1.443-30.843-5.702-45.692-3.409-15.56-6.838-31.38-14.343-45.583-4.745-9.463-9.408-19.017-15.012-28.008-4.132-5.61-8.693-10.877-12.719-16.573-11.905-12.719-24.566-25.778-38.064-36.49-11.989-9.472-25.208-15.348-38.156-21.804-32.733-11.858-65.127-19.627-96.928-13.292-13.656 2.81-31.246 12.129-44.986 9.489-4.298-6.78 27.269-18.254 33.47-19.252 4.739-.497 10.178-1.744 15.22-2.373 11.221-.349 22.398-2.063 33.651-1.46 10.007.204 19.93 1.549 29.83 3.8 10.552 1.67 21 5.2 31.053 8.722 8.326 2.887 16.335 6.598 23.777 11.33 8.393 5.05 16.809 10.103 24.891 15.63 11.99 10.528 24.417 20.673 35.19 32.501 3.707 4.218 6.671 9.018 10.384 13.211 6.586 10.05 13.277 20.357 18.88 31.108 2.049 5.218 4.164 10.406 6.411 15.548 5.812 14.97 10.669 30.406 13.34 46.258 1.951 11.947 2.559 23.777 2.488 35.846.137 16.819.253 33.81-3.462 50.314-2.188 10.266-4.145 20.588-7.61 30.493-2.837 6.924-5.742 13.832-9.662 20.236-3.257 6.066-6.596 12.09-10.824 17.553-5.795 8.02-11.692 15.991-18.486 23.199-9.598 11.029-20.22 21.232-31.887 30.053-5.351 3.02-10.457 6.458-15.684 9.687-3.61 2.626-8.779 2.161-11.976 5.328-2.034 3.006 2.31 5.152 4.828 5.264 6.807.174 13.039-3.206 19.629-4.342 2.597-1.378 4.694-3.585 7.515-4.63 11.79-6.536 22.814-14.502 32.657-23.708 6.874-7.633 14.218-14.866 20.302-23.176 4.83-5.902 8.73-12.507 13.158-18.69 2.547-5.153 5.932-9.846 8.39-15.028 3.813-6.028 5.43-13.083 8.318-19.555 5.39-14.807 8.852-30.25 11.61-45.736 1.566-15.664 2.078-31.492.92-47.202-1.89-14.568-4.314-29.14-8.382-43.277-4.885-15.481-10.712-30.823-19.703-44.437-3.763-6.38-8.137-12.384-12.717-18.182-4.172-6.78-7.491-14.082-11.414-20.975-1.232-1.566 1.388-3.224 2.215-1.957 2.257 2.75 6.63 1.592 9.41 2.903.681 1.707 2.95 2.53 4.475 1.453.511 2.14 3.265 1.952 4.236 2.244.62 1.45 2.433 1.849 3.766 1.816-.163 2.713 2.854 5.53 5.343 3.787-.044 1.856.415 4.293 2.776 3.957 1.378.36 2.882-2.048 3.105.088l2.86 7.043c.305-3.765.725.245 2.775.295 2.33-.985 1.82.484 2.228 2.34.246 3.356 3.903.006 3.713 2.186.08 1.971.717 5.397 3.383 4.574 1.11.172.231 2.917 1.192 3.996 5.834 6.601 5.38-6.497 4.943 3.148-.202 2.383-.216 5.928 2.826 6.368 1.966-1.506-.039 1.435.22 2.36-.366 2.029 1.038 4.177 3.204 4.128-.454 2.144.37 5.315 2.94 5.484-1.116 2.261.322 5.349 2.913 5.559-.93 2.058-1.306 5.828 1.78 5.986 1.213.26-.827 2.967.039 4.363-.06 2.003 3.477 1.644 2.642 3.02-1.366 2.506-.27 6.398 3.004 6.406.586.441-1.17 2.862-.33 4.069.208 1.807 3.468 1.139 1.815 3.115-.872 2.168-.826 5.926 2.007 6.377-1.278 2.118-1.177 5.95 1.78 6.297-1.232 1.908-1.512 4.931 1.113 5.78 1.758.1-.895 2.336-.59 3.552-.467 2.112.867 4.793 2.858 5.107-1.246 2.178-1.22 5.489 1.373 6.65-1.346 2.182-2.2 6.447 1.136 7.192.791.442-1.07 2.333-.857 3.402-.177 1.799-.098 4.474 1.941 5.123-.954 1.405-1.436 3.658.162 4.77-1.189 2.09-.64 4.604-1.32 6.828.1 1.731 1.564 2.818.531 4.518-.291 1.308.211 2.802.739 3.793-1.573 1.522-3.275 4.302-1.004 6.01-1.636 1.54-2.463 4.42-.68 6.142-1.595 1.89-2.545 5.36-.066 6.932-1.71 1.26-2.58 4.32-.2 5.357-2.119 1.088-4.218 4.55-1.453 6.105 0 0 2.07-.953-3.21 5.655-1.106 1.467 1.73 2.919-.4 3.58-1.68 1.318-2.324 4.354-.57 5.832-2.04 1.137-2.759 4.067-1.335 5.824-2.278 1.217-3.363 4.586-1.469 6.57-2.037.998-3.838 3.792-2.088 5.809-2.411 1.156-4.511 4.16-3.012 6.77-2.409 1.556-3.99 4.78-2.629 7.412-1.858 1.219-5.034 3.516-2.923 5.882.454.782-2.605 1.46-2.664 2.961-.266 1.99 1.23 3.211-1.424 3.89-1.792.791-3.211 3.238-1.803 4.806-2.392.82-5.521 3.494-3.617 6.06-2.41 1.227-5.878 3.418-5.057 6.408-1.494.632-2.714 2.027-2.767 3.698-2.365.77-5.053 3.047-4.489 5.765-1.835.53-3.953 2.518-2.85 4.533-1.77.511-3.501 1.805-3.697 3.727-2.203.863-4.049 2.788-3.994 5.272-2.616-.012-5.842 1.248-6.045 4.26-1.71 1.555-3.868 2.965-4.914 4.976-1.911 1.121-5.124 2.292-4.601 5.062-2.011.127-4.1 1.65-4.26 3.551-2.378.373-3.74 2.47-5.086 4.09-3.638 1.343-6.232 4.504-9.383 6.658-1.15 1.372-.976 2.916-3.107 3.026-1.817.3-.694 3.006-2.479 2.638-1.982.068-3.276 1.805-4.283 3.135-1.879.585-4.808 1.007-5.02 3.402-3.415.181-4.883 3.878-7.988 4.852-2.22.755-.048 4.111-2.597 3.557-2.381.116-5.237 1.737-4.8 4.466-2.844.935-6.592 2.153-7.454 5.36.484 2.055 1.032 2.31-1.092 3.238-1.14 1.013-.18 2.76.146 3.516-1.842.86-2.487 3.74-.257 4.466-1.47.375-.321 3.089-1.024 4.432-2.019 1.004-3.207 3.803-1.295 5.512-1.521 1.87-.481 4.22-.052 6.156-1.507 1.395-.18 3.367.31 4.445-1.206 1.502.791 3.24.555 4.162-1.125 1.227-1.08 3.43.465 4.274-1.723 1.41-2.26 4.434-.024 5.625-1.976 1.614-2.243 5.034-.369 6.578-1.75 1.837-2.28 5.601.54 6.703-1.378 1.617-1.132 4.205.53 5.522-1.125 1.857-1.546 4.665-.066 6.435-1.24 1.853-1.524 4.826.354 6.358-1.274 1.6-1.795 4.21-.192 5.779-1.636 1.34-2.277 3.797-.879 5.537-1.434 1.738-2.548 5.097.06 6.295-1.818 1.417-2.084 4.51.038 5.76-2.002 1.53-3.489 5.128-1.033 6.724-1.431 1.12-1.877 3.584-.186 4.664-2.119 1.376-5.168 4.08-3.025 6.72 1.79.844-1.192 1.825-1.137 3.218-.941 1.552.978 3.387.908 4.125-2.128 1.523-3.821 5.474-.857 7.014-2.206.957-4.773 4.444-2.125 6.28-2.387 1.24-4.865 5.076-1.979 7.063 1.482.482-1.601 1.463-1.646 2.735-1.188 1.316 1.89 3.67-.34 3.468-2.795.79-3.161 4.298-3.262 6.748 1.116 1.429-2.322 1.568-2.467 3.27-.507 1.347-.567 2.995.325 4.193-1.792.812-3.426 3.161-1.83 4.909-2.152.994-4.441 4.042-2.332 6.134-1.703.96-4.035 2.784-2.784 4.932-2.106 1.146-4.878 3.715-3.011 6.2-2.4.832-4.818 3.696-3.041 5.987-1.01 1.272 1.351 2.845-.631 3.077-1.846.877-4.76 2.487-3.666 4.826-.52.888-2.98 1.27-3.729 2.697-.935 1.055-.561 2.8-.64 3.809-1.56.82-3.225 2.398-2.65 4.334-2.177.543-3.537 3.319-1.854 5.093-1.492.946-1.876 2.991-1.291 4.56-2.202.9-5.055 2.912-3.67 5.62-1.7.768-3.89 2.936-2.088 4.826-.3.51.783 2.989-1.078 2.541-2.492.618-6.641 2.378-5.367 5.588 1.412 1.17-3.013 1.277-2.22 3.108.256 1.531-2.364 1.186-3.103 2.39-1.89 1.27-1.446 4.307.9 4.696-2.973.689-6.438.75-8.814 2.865-1.427 1.282 1.046 3.655-.404 3.933-2.902.275-6.502 1.37-7.102 4.674 1.177 2.023-.625 1.608-2.097 2.332-1.676.688-3.36 2.679-2.332 4.488-2.763.876-6.5 3.1-5.545 6.51-2.65.302-6.372 2.26-5.043 5.436-2.631.664-5.913 3.296-5.586 6.48-2.327 1.045-5.33 3.51-4.074 6.31-2.2 1.006-5.36 3.319-3.766 6.032-2.246.64-4.961 3.53-2.531 5.477 1.866.927 3.252.586.722 2.26-3.049 2.753-6.375 5.173-9.582 7.736 1.248.341 6.342-.783 4.409.767-1.783 1.378-4.583 4.154-2.164 6.223.026.781-2.061 2.243-1.557 3.787.51 1.84 1.595 2.094.08 3.883-.537 1.562.923 3.236 2.533 3.137-.406 2.814 3.119 3.266 5.086 2.289 9.468-5.067 5.59-.358 2.96-.258-2.384 1.34-5.958 3.29-5.263 6.517 2.204 1.075-.277 2.41.811 4.082 2.224 1.06.7 2.024 1.371 4.059 15.132 1.706-5.155 1.092.416 6.838-2.229.532-3.71 3.45-1.978 5.262-2.329 2.141-4.486 4.46-6.747 6.673 1.85-.202 5.319-1.41 2.45.813-1.268 1.25-1.54 3.558-.037 4.725-1.764 1.55-3.361 5.014-.68 6.459-2.28 2.443-6.233 3.683-7.012 7.248.066 2.974 4.003 3.356 5.653 1.373 1.167-.878 2.055-2.067 3.234-2.93 1.42 1.537-1.817 2.935-2.494 4.48-1.058 1.24-2.338 3.109-1.153 4.666-2.277 1.78-3.951 4.592-6.62 5.706-30.479-6.15-55.572-1.06-83.757-.305-1.768.156-3.033.164-1.966-1.776.35-1.668-1.436-2.91-.69-4.607.093-1.327-.37-2.608-.924-3.787 2.527-1.367 1.29-4.604.149-6.525.642-1.781-1.562-3.864.45-4.454 1.095-2.712-1.432-5.107-2.716-7.29 1.697-2.782-1.211-5.74-2.896-7.803-2.403-1.068.076-2.646-.67-4.371.027-1.167 1.751-2.976.435-4.502-.748-1.172-1.991-2.18-2.855-3.078 2.02-1.143 2.097-3.839 1.025-5.596 1.618-1.117-.002-3.478.414-4.23 2.599-.832 2.121-4.165.702-5.862 1.937-.534 2.267-3.04 1.21-4.547 2.061-.348 2.125-3.059.877-4.377 1.758-1.404 1.106-4.083-.25-5.558 2.486-.21 2.212-2.315.989-3.862-.722-1.166-2.567-2.561-2.813-3.455 2.179-.319 2.432-2.905.672-3.933 2.624-.849 1.985-4.173.188-5.58-1.844-1.38-1.448-1.964-.409-3.604.081-2.753-2.889-4.563-5.02-5.89-2.376-.369.642-1.814-.302-3.344-.86-2.13-2.812-3.59-4.703-4.77.877-2.914-2.717-4.475-4.69-5.863-1.717-.5.343-2.935-1.496-3.924-1.362-1.395-2.992-2.74-4.96-3.094-.389-3.653-4.324-5.024-7.065-6.209.826-3.067-3.322-3.739-5.332-4.814-1.646-.365 1.181-3.065-.928-4.125-1.416-1.445-3.615-1.419-5.455-1.918 1.008-2.703-1.912-4.942-3.678-6.604-.931-.964-3.253-.881-3.623-1.841 1.727-2.69-1.79-4.99-3.72-6.393-1.538-.961-3.415-1.612-3.528-3.684-.582-1.507-2.487-2.462-3.595-2.73 1.974-3.036-1.861-5.638-4.178-6.932-2.384-.33-.712-2.805-2.053-4.195-1.536-3.297-5.063-5.24-6.006-8.846-.618-1.835-3.17-2.668-2.7-4.748-.747-3.108-2.432-6.781-5.792-7.709 1.445-3.107-1.324-6.234-3.617-8.01 1.77-3.343-2.13-5.854-3.012-8.695 1.034-2.976-1.629-5.295-3.476-7.139 1.742-3.003-2.059-5.355-2.725-8.134-.838-2.938-.616-6.414-3.086-8.682-1.334-.797.159-2.704-1.025-3.83-1.453-1.154 1.383-2.555-.149-4.09-1.17-2.682-3.94-5.053-3.203-8.209.013-2.492-2.868-4.188-1.846-6.77-.185-3.037-2.511-5.482-2.334-8.644-.102-2.48-2.206-4.452-1.644-6.967-.206-2.38-2.28-4.297-1.344-6.806.147-1.715-.75-3.27-1.763-4.577 1.52-2.077-.077-4.774-1.211-6.511 2.172-2.14.165-4.913-.516-7.16.547-2.63-.078-5.32-1.182-7.649 2.062-2.102-.803-4.604.362-6.842.168-2.826-1.005-5.445-.274-8.334.053-1.806-.963-3.372-2.103-4.681 1.902-2.899.124-6.603.361-9.84-.163-2.546 2.81-4.558 1.395-7.2-.963-1.368-.445-2.352.207-3.71.41-1.59-.494-3.437-.805-4.688 2.892-.786 2.482-4.444.672-6.14 1.872-2.417.843-5.706 1.293-8.446 1.776-1.226 1.652-3.846.98-5.492 1.199-1.487.671-3.64.399-5.139 1.518-1.664.377-4.15-1.034-5.492 2.313-2.442-1.634-5.517-3.232-5.8 5.759-5.268-13.727-22.164-20.871-24.438-2.865-1.893-6.271-2.737-9.69-2.537.719-3.008-3.09-4.9-5.59-5.27-1.824.415-2.212.226-2.576-1.683-2.09-1.996-5.644-.086-7.662-.606.65-2.723-2.567-3.384-4.45-4.045-2.174-1.513-4.363-3.478-7.087-3.691-1.094-2.986-4.767-3.542-7.33-4.201-.135-2.44-3.205-2.799-5.056-3.137 1.404-2.376-1.287-4.122-3.438-4.146 0 0-9.458-5.812-10.84-7.956-2.287-1.439-1.215-1.267-.117-3.156.64-3.387-3.855-4.357-5.898-5.455.686-2.446-2.258-3.436-3.131-5.064-.128-1.578-1.81-2.435-3.116-2.797 1.148-3.072-1.914-6.163-4.738-7.043.578-2.88-1.898-5.388-4.193-6.578 1.348-3.02-2.054-5.267-3.36-7.24.864-3.45-3.058-5.584-5.447-6.956 1.948-3.17-1.447-6.399-4.045-7.89 2.086-2.262-.267-5.657-2.097-7.358.442-1.26.428-3.384-1.33-4.328-2.295-1.123-1.31-1.79-.958-3.638.345-1.738-3.405-2.292-1.564-3.454 1.997-2.905-2.563-4.88-1.824-7.878-.34-2.386-1.369-4.604-1.602-7.03-.576-2.303-2.272-4.242-1.978-6.738-.072-1.673-1.825-2.764-.553-4.295.669-1.993-1.436-3.383-.746-5.264.068-2.269-2.002-3.956-1.38-6.267-.034-1.606-1.153-3.162-1.491-4.496 1.932-2.164-.735-4.856-1.654-6.34 1.929-1.28 1.378-3.979.22-5.582 1.833-3.174.263-7.118.278-10.576-.306-2.172-.498-4.508-1.797-6.35 2.386-.906 1.86-3.906.693-5.603 2.338-1.982 1.484-5.605 1.795-8.36-.041-2 .079-4.088-.568-6.006 1.712-1.463 1.441-3.91.84-5.676 1.733-1.424 1.316-3.945.318-5.683 1.848-.81 1.42-3.264 1.638-4.621 1.602-1.201 2.201-3.513 1.042-5.22 2.656-1.041 1.05-4.515.626-6.038 3.24-1.002 3.34-5.249 2.194-7.89 3.222-.523 3.124-4.568 3.365-7.102 3.16-.54 3.218-4.358 3.402-6.762 2.905-1.369.847-5.084 3.05-6.926 1.567-2.941 1.858-6.436 4.009-9.076.993-1.968.286-4.57 2.377-5.95.716-1.261 1.167-2.518 2.523-3.259 1.577-1.439.823-4.097 1.131-5.625 3.058.246 3.436-3.274 3.809-5.46 2.884-.585 3.807-3.92 3.107-6.454 2.54.666 3.77-2.467 3.44-4.547 2.846.363 3.078-3.252 3.537-5.004 2.666.557 4.06-2.116 3.861-4.418-.463-1.988 2.003.396 2.93-1.045 1.368-.85 1.756-2.85 2.03-4.045 1.602.516 3.483-.47 3.632-2.193 1.385-1.017 1.303-3.572 3.166-2.592 2.605.098 2.139-4.286 4.687-3.52 11.517-4.502 3.573-1.117-.847 4.204-3.84 4.324-5.883 9.501-8.807 14.346-4.62 9.203-8.702 18.673-12.457 28.24-4.615 14.877-9.856 29.754-11.285 45.371-4.655 37.437-1.498 75.124 11.8 108.963 13.006 28.633 32.795 54.379 55.095 74.316 10.318 6.623 37.59 28.925 47.216 25.727 2.424-1.634.256-4.517-1.808-5.291-8.343-4.632-16.673-9.372-23.42-16.219-32.108-31.3-64.027-77.565-70.31-119.783-8.42-69.941 2.637-136.792 49.925-183.875 4.98-5.152 10-10.334 15.643-14.738 2.78-3.444 6.721-5.953 10.007-8.766 9.67-7.892 20.226-14.731 31.534-20.018 7.42-4.378 15.728-7.086 23.603-10.673 8.017-3.086 16.897-5.86 25.434-8.233a2162.046 2162.046 0 0 0 30.386-8.049c11.882-2.68 23.748-5.047 35.88-5.726l1.195-.006zm128.836 40.964c33.294 15.395 46.49 33.506 67.522 52.425-4.009-2.451-7.7-5.42-12.004-7.412-16.416-8.758-40.193-12.904-55.68-11.5-8.83 2.238-17.494 5.417-25.549 9.694-4.546 1.89-18.483 14.207-14.254 6.31 3.54-3.633 7.452-6.85 11.899-9.306 2.932-2.124 6.008-3.934 9.441-5.1 10.44-4.806 21.878-6.717 33.227-7.84 1.698-.05 2.9-1.22 4.103-2.27-1.336-2.068-3.568-2.725-5.922-2.617-15.218-.835-31.223.278-44.752 7.955-5.006 3.059-9.933 6.465-14.005 10.698-1.726.814-2.633-1.454-4.377-1.397 4.032-5.922 10.61-9.48 16.654-13.029 5.316-3.138 11.549-4.396 16.748-7.7 1.037-2.021.035-3.396-2.2-3.372-5.611-.205-10.985 1.923-16.157 3.845-20.441 11.508-35.754 24.638-40.834 45.846-1.295 3.815-1.524 7.827-2.2 11.65-2.968-17.099 1.075-73.758-27.494-88.144 34.69-3.905 78.56-.37 105.834 11.264zm-51.82 46.095c4.825.362-1.453 4.31-1.453 11.655-1.556 8.782-2.522 19.702-4.664 27.267-2.853 5.641-2.303 21.075-7.772 15.116-5.465-8.968-1.448-32.39 2.059-39.67 2.565-4.974 4.51-10.732 9.031-14.303 1.193-.096 2.11-.116 2.799-.065zM390.234 252.2c3.146-.567 7.72 1.544 8.73 8.694 3.465 8.32 5.365 12.588 3.522 22.234-.985 2.258-9.276-2.104-8.441-3.295-1.22-7.006-.303-16.128-3.977-20.258-4.698-3.563-2.98-6.807.166-7.375zm147.832 33.104c61.29-.994-7.28 28.176-8.988 6.62.191-3.735 5.565-5.744 8.988-6.62zm-18.38 9.345c2.816 6.424-15.352 34.381-19.25 36.17-15.364 7.562 6.4-28.96 9.67-35.328.202-.394 9.3-.929 9.58-.842zm-193.42 8.38c14.718 3.928 26.758 25.108 31.363 42.097 3.204 11.818-9.772 48.319-8.594 42.486-6.291-27.927-8.076-36.336-18.44-54.597-1.933-4.115-5.675-7.389-6.751-11.791-2.143-5.356-1.518-19.247 2.422-18.196zm-16.952 5.015c25.08 8.38-9.89 6.427-15.73 9.736-9.333 4.36-16.989 11.634-22.656 20.16-4.968 7.001-8.394 14.939-10.946 23.102 2.722-11.855 8.493-24.64 14.05-34.54 5.267-7.457 12.668-13.652 21.462-17.024 4.452-1.206 9.214-1.92 13.82-1.434zm151.973.041.026.377.011.168c-5.005 19.877-11.657 28.614-13.258 47.34-3.098-1.666-5.399-5.939-5.794-9.168-.838-8.624.235-19.92 4.559-27.462 2.867-5.343 8.633-8.729 14.456-11.255zm-64.728 7.682c3.143.352 6.173 1.999 8.613 5.62 3.578 8.447.112 31.31-1.492 39.348.422-6.982-13.782-31.189-21.58-39.072 3.667-3.471 9.22-6.483 14.459-5.896zm186.61 5.146c-2.824.197-2.89 3.937-1.128 5.525 5.3 8.344 10.63 12.427 14.459 25.383 13.662 46.228-2.925 61.359 3.781 81.534.816 2.454 3.839-.307 4.156-2.458.856-5.79 3.036-11.716 3.674-17.064 2.359-19.765 3.203-50.764-5.394-66.184-3.813-6.838-12.593-26.22-19.547-26.736zm-11.37 6.889c-11.47 4.248 17.117 28.327-10.154 6.392-2.675 1.186-.948 4.228.671 5.596 11.957 11.57 19.32 27.302 22.25 43.55 1.849 12.387.522 24.827-.546 37.175-1.036 11.96-4.632 23.813-8.307 35.265-1.037 3.23-6.664 18.206-6.961 18.33-2.216 1.763-.08 5.342 2.504 4.207 7.218-10.148 13.12-24.697 17.066-35.904 4.973-14.118 8.59-30.221 9.586-43.598 1.137-9.909-.768-19.809-2.387-29.548-2.028-5.974-1.77-12.662-5.087-18.176-1.883-6.403-6.575-11.376-10.856-16.283-1.746-2.457-5.166-6.846-7.78-7.006zm-85.783 7.5c.258-.072.515-.077.761.021 9.602 14.631-2.44 31.384-14.683 40.254-1.754 2.301-.322 5.862 2.68 5.912 1.484 4.8 2.829 3.722 1.484 4.8-7.595 7.953-15.082 21.02-13.133 30.632 2.067 5.81-5.717-2.7-6.469-3.32-8.928-7.392 1.303-35.078 15.69-31.159-1.902-2.348-4.548-4.562-4.446-7.847-1.658-5.124.569-10.454 1.907-15.408 2.65-8.377 6.884-16.721 14.002-22.528.632-.34 1.43-1.143 2.207-1.357zm47.571 22.256c-8.024 20.644-15.894 26.552-30.733 34.629-2.154 2.388 15.92-1.57 16.38.887.681 3.623-2.164 10.294-2.447 13.658-.272.995-.383 8.4-10.53 5.052-8.606-2.84-14.82-1.531-18.992-.667-.996.206 11.645-7.595 12.823-15.73 1.758-12.14.074-8.272 1.758-12.14 5.038-11.574 13.668-21.91 25.066-27.52 2.254-.072 10.41.234 6.675 1.83zm-9.879-10.97c-4.725 10.407-33.675 33.857-29.732 44.278-17.064-21.516-.298-33.526 10.313-40.715 16.154-10.945 19.42-3.563 19.42-3.563zm-120.375 56.686c-2.525 6.932-12.606 2.057-19.26 3.076 3.499-7.855-.696-22.457-5.26-30.94-15.423-28.671 33.431 3.392 24.52 27.864zm43.704-40.505c5.795 6.278-6.102 16.226-8.324 16.314-2.732-.1-2.034-11.804-.483-14.06 2.55-2.622 5.773-3.5 8.807-2.254zm-80.682 5.492c8.47 9.628 18.752 29.451 10.225 38.18 6.315 10.397 15.17 27.92.383 45.003-10.175-8.44-7.422-29.737-4.994-41.312 1.6-3.257-2.498-4.899-3.686-7.442-5.7-15.237-8.969-25.995-1.928-34.43zm-61.197 3.838c-3.475.184-4.47 6.527-5.46 9.53-2.252 7.418-2.598 15.197-2.147 22.89.42 12.436.585 25.086 4.316 37.074 2.23 9.932 6.141 19.813 10.752 29.015 1.193 1.762 2.133 5.037 4.608 4.893 2.793-.399 1.044-3.977.906-6.033-1.77-26.273-17.945-63.358-12.348-86.895.396-3.349 1.975-6.788 1.022-10.148-.605-.253-1.152-.353-1.649-.326zm233.542-.146c10.647 6.033 11.031 11.137 12.685 22.43 1.508 10.297-.255 30.735-1.397 41.096 1.158-6.2-11.879-10.316-16.97-5.823 4.358-11.96 10.17-25.572 4.119-35.868 2.441-4.003-13.957-6.018-16.287-5.682 11.251-9.687 9.386-20.949 17.85-16.153zm-54.042 18.16c8.457 4.074-6.399 29.842-10.41 34.868-2.372-.455-3.171-3.455-4.115-5.404-5.343-11.121 4.742-26.754 14.525-29.465zm45.051 4.878c6.61 12.042 2.715 28.785-6.453 38.106-1.388 3.572-4.556 7.226-3.4 11.258 12.717 3.444 1.149 15.762-2.756 24.443-7.35 18.8-16.911 37.261-27.602 52.613-.765 1.224-2.8 1.658-3.91 1.168 2.269-8.953 37.063-69.386 25.267-71.877 7.532-11.994 2.522-22.614 5.55-35.57 2.864-6.462 5.49-19.22 13.304-20.14zm-173.023.938c16.38 14.056 12.05 24.317 5.29 38.888-3.575 7.703-14.066 16.384-13.331 13.762-.485-1.877 5.157-14.38 5.157-14.38 17.035-25.182-6.93-46.691 2.884-38.27zm31.52 16.706c.019-.125 8.687-4.98 13.701 2.201 4.83 20.069-5.948 28.299-17.457 38.755 9.057-27.735 1.523-26.282 3.756-40.956zm120.134 1.925c9.621 6.933-19.887 45.369-7.826 44.218-7.58 9.257-7.333 24.085-13.139 38.666-3.984 10.008-7.16 23.858-15.451 29.698-.844.556-3.868 3.158-3.514 2.369 8.124-17.382 11.343-40.384 18.004-55.881 1.885-4.192 2.039-9.106 2.04-13.701-.228-1.621-2.816-.384-3.515-1.74-9.268-17.991-10.691-33.208 8.29-43.194 5.348-1.157 9.787-4.272 15.11-.435zm-6.381 1.533c-3.908.733-8.092 3.762-9.424 6.808-4.727 8.672-9.127 22.253-6.344 30.967 1.547 2.802 3.093 6.551 6.438 7.428 2.948.215 3-3.6 1.771-5.463-11.566-15.272 14.462-35.878 7.559-39.74zm-49.428.496c.127.005.27.044.385.023 1.975-.047 3.313.187 2.879 2.451-3.506 8.998-9.976 13.87-13.37 24.221-3.016 7.482 2.15 21.1.046 27.18-2.617 7.558-1.737 15.958-4.024 23.674-.621 2.714-.765 7.463 2.961 7.707 3.215-.39 3.218-3.998 3.438-6.483 1.465-14.428 2.444-25.851 2.238-36.525-.153-7.897 2.08-16.286 7.348-22.652 2.132-2.578 4.734-5.053 7.83-6.358 2.514-.405 2.854.286 1.336 2.207-2.47 3.48-4.96 6.91-6.88 10.735-3.623 7.226-9.634 16.068-3.025 23.513 6.362 7.167-2.09 3.36-1.67 8.102 1.083 12.228-13.131 30.4-4.57 36.99 11.46 8.82 10.732-12.711 13.39-20.912 3.837-11.833 4.279-11.179-.265-21.695-5.723-13.247 2.201-23.001 10.764-34.592.944-1.262 3.468-1.633 3.824-.43 3.703 12.521-16.31 41.708-2.84 37.399 1.658-1.701.881-.186 1.045 1.18 1.518 4.166-.486 8.873-1.188 12.866-7.323 19.197-10.588 39.876-16.998 57.329-6.383 16.882-10.098 7.096-11.636 1.8-8.852-30.472-6.672-53.582-5.99-65.578.61-8.127 3.086-16.569 1-24.467-2.202-8.332-2.541-15.965.31-23.546 2.976-6.19 8.582-9.817 13.375-13.961.05-.156.16-.184.287-.178zm96.07 26.97c-1.46 9.104-8.483 20.563-13.176 28.406-9.033 15.096-27.108 35.722-37.182 48.865 9.727-20.339 19.961-41.7 28.889-60.126 5.87-12.115 3.051-20.123 5.943-25.936 2.892-5.813 16.991-.346 15.526 8.792zm-183.146-.665c8.328 12.464 5.857 28.514 11.316 36.01 9.169 10.062 11.564-8.069 13.348-16.296 5.693-14.867 6.486-6.895 6.68 6.559.448 31.154 8.8 51.171 4.82 75.672-2.784 7.347-10.558 1.49-14.457-2.877-12.98-12.246-14.66-16.057-27.873-61.47-4.154-18.571-5.113-26.503 6.166-37.598zm91.17 137.787c-1.019 4.57-2.076 9.297-.479 13.884 1.532 4.397 3.475 8.69 6.329 12.508 2.893 3.871 5.39 7.886 8.328 11.674 5.575 7.188 9.391 15.703 11.332 24.666 1.615 7.46 1.276 15.147 1.258 22.705-.024 9.413-2.062 18.34-4.748 27.44-3.523 9.166-13.628 32.745-23.844 17.18-7.305-11.745-9.687-26.327-9.887-38.794-.121-8.977-1.036-18.351 1.877-26.933 2.348-6.918 4.86-15.435 11.82-18.477 6.7-2.928 11.028-8.833 6.248-12.33-17.396-7.822-26.607 6.045-31.394 20.07-2.832 8.468-3.82 17.377-3.817 26.291.004 11.693.502 23.498 4.153 34.764 2.743 8.465 6.03 16.958 11.527 23.963 13.22 14.801 25.333 12.537 35.867-2.812 14.076-24.385 17.405-54.756 14.203-80.182-.65-20.506-28.5-41.962-25.658-57.336 1.725-13.461-11.593-4.377-13.115 1.719zm-78.62 3.627c.679 3.623.511 7.449-1.382 10.71-6.787 11.692-10.73 23.018-15.748 33.864-7.06 21.35-7.41 55.955 1.414 72.746 10.807 20.563 31.933 42.391 45.955 16.28 3.85-7.467 7.236-15.116 9.473-23.233 6.263-22.36 8.878-76.59-12.658-83.403-7.81-1.356-15.91-.801-18.127 6.971-1.139 4.212-.63 10.496 4.109 11.78 3.492.945 5.094-4.338 8.172-4.502 3.498-.188 4.685 4.71 5.691 7.607 5.382 15.497 5.006 32.327 2.99 48.348-1.19 9.424-10.957 41.08-22.578 30.525-7.083-6.718-10.875-16.217-12.552-25.572-2.074-20.533-1.389-44.848 7.513-61.875 1.675-3.968 3.719-7.668 6.35-11.117 5.794-7.596 6.219-17.74 4.83-26.957-1.127-10.923-15.13-12.806-13.451-2.172zm-107.23 4.332c-2.822-.038-3.698 2.99-3.476 5.314-.385 1.832-1.397 4.06.562 5.428 3.328 3.594 10.966.782 10.198-4.324-.324-3.526-3.687-6.673-7.284-6.418zm3.012 18.529c-3.179.736-4.75 4.323-5.53 7.197-.017 3.57 4.758 5.051 7.67 4.12 2.83-1.078 4.383-4.526 2.614-7.184-.837-1.964-2.251-4.44-4.754-4.133zm305.522 5.111a3.5 3.5 0 0 0-1.137.004c-2.807-.21-5.136 3.91-2.594 5.616 2.504.943 5.403-1.377 6.184-3.717-.287-1.03-1.323-1.726-2.453-1.903zm-307.655 17.762a2.284 2.284 0 0 0-.695.084c-2.908 1.39-4.366 4.931-5.004 7.951.05 2.92 3.622 4.287 6.12 4.436 2.616-.339 6.687-1.79 6.075-5.07-.465-1.844-2.842-2.241-3.166-4.282-.624-1.321-1.77-3.06-3.33-3.119zm308.873 3.568c-3.48.53-5.932 4.63-5.42 7.96 1.27 3.86 6.933 5.828 9.9 2.775 1.353-3.223 1.796-8.2-1.808-10.18-.826-.42-1.743-.678-2.672-.555zM270.78 654.66a4.254 4.254 0 0 0-.957.093c-3.359 1.273-5.076 5.32-5.226 8.71.163 3.75 4.284 6.02 7.664 5.995 2.27-1.09 4.437-3.196 5.181-5.64.055-1.913-1.33-3.51-1.431-5.448-.936-1.953-3.013-3.678-5.23-3.71zm311.078 3.87a3.618 3.618 0 0 0-1.087.053c-4.445.405-6.747 6.003-4.16 9.525 1.494 2.8 6.918 4.002 7.71.065.03-1.583.382-3 1.551-4.12.91-2.519-1.476-5.27-4.014-5.523zm-.873 24.244c-1.671-.146-2.282 2.045-3.994 1.47-4.176.634-3.664 6.18-1.638 8.755 3.19 3.96 10.142.042 9.431-4.705.158-2.357-.964-5.62-3.799-5.52zm-310.836.79c-3.057-.069-5.035 3.75-2.798 6.039.554 2.452.632 5.82 3.695 6.511 2.727 1.255 7.39 2.128 8.617-1.55.576-2.744.42-6.077-1.32-8.372-1.635-.975-3.68-.813-5.205-2.11-.934-.408-1.969-.606-2.989-.519zm306.147 22.324c-5.724-.177-7.788 7.925-4.524 11.752 2.327 2.261 5.905 1.354 7.862-.907 2.68-2.384 1.36-6.566-.031-9.31-.848-.942-2.034-1.52-3.305-1.535zm-298.81 4.45c-.39.015-.757.21-1.085.694-2.007 1.639-5.45 4.034-3.388 6.961.98 1.903.394 5.209 3.304 5.516 3.29.659 8.271-.242 8.477-4.395.547-2.86-.592-6.007-3.559-6.974-1.198-.257-2.58-1.843-3.75-1.801zm292.042 21.237c-3.396.225-5.713 3.527-6.79 6.43.535 3.077 3.24 5.45 5.874 6.873 4.456-.521 6.332-6.046 5.729-9.943-.422-2.227-2.654-3.511-4.813-3.36zm-286.232 3.41-1.012 1.301c-3.065 2.928-3.179 7.746-1.822 11.486 1.64 1.968 4.538 2.678 6.96 2.893 3.948-1.042 6.758-5.683 4.616-9.488-1.7-3.401-5.663-4.456-8.742-6.192zm280.41 18.662a3.183 3.183 0 0 0-.857.038c-4.075 1.118-8.354 4.432-8.875 8.88-.083 4.15 5.388 5.246 8.498 3.987 4.057-2.164 5.953-7.78 3.468-11.76a3.392 3.392 0 0 0-2.234-1.145zM294.7 760.711c-3.384.695-5.492 3.987-5.361 7.346-1.087 4.662 4.926 7.74 8.8 6.273 3.361-1.146 6.013-5.583 3.169-8.592-1.846-1.875-3.628-5.284-6.608-5.027zm255.725 17.008c-4.373.13-7.409 5.171-6.69 9.183 1.545 3.55 6.925 3.486 8.74.17 1.808-2.436 3.359-7.01.282-9.029-.741-.297-1.547-.318-2.332-.324zm-243.528 7.27c-.207.01-.418.05-.628.118-5.04 2.114-5.639 10.363-.82 13.17 2.148 1.68 5.628 2.082 7.103-.69 2.281-3.116 1.46-9.168-2.733-9.954-.158-1.462-1.467-2.724-2.922-2.645zM538.79 799.06c-2.968.686-5.055 3.533-6.455 6.054-.846 2.686 1.926 5.258 4.219 6.072 2.145.115 4.468-1.257 5.808-2.76.666-2.556 1.905-5.7.377-8.15-1.062-.927-2.556-1.332-3.949-1.216zm-215.862 10.36c-3.574.446-6.55 3.937-5.58 7.652.679 3.554 4.41 7.014 8.144 5.283 1.948-.14 3.98-1.303 3.541-3.527-.326-3.024-.227-6.902-2.775-8.953-.537-.33-1.152-.435-1.772-.451a6.18 6.18 0 0 0-1.558-.004zm199.642 13.21c-4.368.323-7.197 6.125-5.351 9.981 1.894 3.854 7.92 2.967 9.197-.941 2.227-3.49.383-8.456-3.846-9.04zm-180.699 8.536a6.088 6.088 0 0 0-.932.02c-3.84.077-6.096 4.434-4.546 7.78 1.254 4.622 8.834 6.712 11.242 2.038 1.721-4.157-1.209-9.582-5.764-9.838zm162.865 12.473c-4.846-.102-8.686 6.9-4.51 10.24 2.583 1.26 6.532 1.496 8.622-.754.79-1.495.856-3.263 1.757-4.725.332-3.084-3.214-4.857-5.869-4.761zm-146.412 8.777c-4.605.72-5.094 7.5-2.066 10.305 1.993 1.913 5.195 3.024 7.89 2.347 2.755-2.465.714-6.627-.767-9.285-1.1-1.744-2.834-3.502-5.057-3.367zm131.006 9.7c-4.619.2-8.787 5.887-5.705 9.98 2.36 2.798 7.595 2.558 8.799-1.24.773-2.593 1.572-6.142-.584-8.245a4.341 4.341 0 0 0-2.51-.496zm-114.219 11.921c-4.497.67-5.443 7.64-1.67 9.938 2.362 2.12 7.183 3.305 8.631-.43 1.53-4.159-2.631-9.627-6.96-9.508zm100.91 7.242c-3.418.012-7.511 4.125-4.886 7.338 1.69 2.011 4.94 3.569 7.02 1.182 2.688-1.86 3.707-7.056-.016-8.291a5.229 5.229 0 0 0-2.117-.229zm-91.794 13.96-.266.044c-2.987.403-5.121 3.386-4.217 6.346-.19 3.201 3.037 6.668 6.24 4.785 4.734-2.245 3.362-10.148-1.492-11.152zm83.15 2.472c-4.317.78-6.305 8.383-1.846 10.307 2.992 1.153 6.676-.906 6.512-4.305.45-2.824-1.526-6.237-4.666-6.002zm-.826 17.894c-3.25.742-6.165 6.053-2.795 8.356 2.71 2.112 7.036.856 7.865-2.582.997-2.776-2.346-6.155-5.07-5.774zm-83.655.711a3.971 3.971 0 0 0-.802.034v.002c-3.964.77-5.812 5.992-4.57 9.523 1.857 3.238 6.843 1.942 9.05-.275 2.261-2.883.216-9.046-3.678-9.284zm87.508 11.727c-3.33.251-6.22 5.871-2.607 7.678 3.56 1.486 8.294-2.64 6.135-6.239-.742-1.148-2.232-1.565-3.528-1.439zm-90.783 8.01c-5.127.116-6.18 8.431-1.535 10.267 3.064.846 5.429-2.45 5.027-5.299.048-2.163-.88-4.994-3.492-4.968zm94.145 3.422a2.868 2.868 0 0 0-1.186.12c-3.15.602-4.247 5.482-.951 6.69 3.444 1.238 7.012-4.487 3.293-6.482a3.5 3.5 0 0 0-1.156-.328zm100.818-349.877c-2.822-.038-3.698 2.99-3.476 5.314-.385 1.833-1.397 4.06.562 5.428 3.328 3.594 10.966.782 10.198-4.324-.324-3.526-3.687-6.673-7.284-6.418z" transform="translate(2.856 -16.372) scale(.12088)"/></svg>