<svg width="400" height="400" viewBox="0 0 105.833 105.833" xmlns="http://www.w3.org/2000/svg"><path style="fill:#000;stroke-width:.656542" d="M358.432 95.928v.002c-5.483.278-16.678 13.578-19.664 18.15-8.128 25.181 6.216 53.736 6.097 78.61-.03 6.013 2.605 12.138 1.246 18.115-11.27-9.893-14.757-28.178-24.19-37.832-9.797-10.029-10.103 1.28-7.33 10.023 3.263 9.51 23.492 47.649 12.292 50.951-2.252 1.082-3.553-.919-4.848-2.422-21.695-24.496-30.264-57.969-52.676-82.107-5.946-6.404-26.656-24.168-30.644-10.824-2.506 8.384-.343 3.276 9.55 7.11 29.242 16.976 51.068 63.695 51.876 94.036.265 9.962-5.072 12.245-11.602 12.672-7.69.02-13.817-5.727-18.771-10.984-8.935-10.202-18.421-22.786-17.325-36.434.845-10.515-7.405-18.726-12.431-11.388-9.057 13.22 11.602 45.695 17.709 56.773 3.883 4.68 8.565 9.731 8.86 16.115-.38 4.311-5.784 4.65-9.124 4.215-8.873-1.153-16.735-6.496-22.258-13.36-16.207-15.175-33.343-30.417-43.496-50.54-3.705-7.473-6.111-15.674-6.303-24.047 3.12 1.016 8.012 2.382 9.848-1.293 1.059-4.205-3.362-7.372-6.844-8.63-13.39-1.59-16.22 5.02-16.527 15.194 1.164 19.05 11.477 36.044 23.478 50.313 12.659 15.142 27.282 28.542 39.735 43.853 3.22 4.302 6.347 10.787 2.523 15.676-16.743 22.48-48.153-16.139-53.125-13.447-4.121 3.169-1.425 9.203.535 13.095 6.532 12.555 16.71 22.77 23.461 35.178 1.092 1.607 1.155 3.646-1.326 2.639-13.771-4.068-24.156-12.705-38.148-13.363-8.843-.417-22.477-3.736-26.186 4.464-8.986 19.866 6.737 8.98 10.22 7.538 6.052-2.505 12.932.008 18.892 1.949 9.989 3.256 19.956 7.95 27.423 15.547 8.966 11.69-19.166 9.038-24.595 8.293-26.334-3.252-67.961-18.042-84.162 6.175-9.236 14.484-1.04 8.77 6.796 3.149 31.691-22.738 62.039 6.338 77.557 7.223 4.88 1.42 10.729 2.7 13.62 7.285.66 3.19-3.675 4.106-6.032 4.576-5.323.973-10.68-.401-15.87-1.207-5.5.724-11.273.475-16.55 2.299-2.477 1.143-.878 4.448 1.469 4.548 11.048 2.545 22.825 3.11 33.056 8.381 1.712.965 4.02 2.637 3.3 4.893-8.112 1.887-16.753-.784-25.087.558-23.863 3.846-29.937-18.569-45.742-11.832-10.389 13.277 22.045 26.45 36.893 25.293 10.872-.847 29.424-2.904 31.293 7.467 3.312 18.387-16.15 17.802-26.989 20.574-14.145 3.833-28.622 8.725-43.22 10.688-24.31 3.27-14.847-10.892-17.887-11.979-19.458-6.955-7.874 20.176-1.496 22.704 23.478 9.306 38.827-5.05 70.312-5.245 8.088.322 16.678.43 24 4.28 2.794 1.172 3.195 4.654 1.303 6.806-7.787 6.71-17.003 17.64-26.068 20.137-29.219 5.113-29.147.424-49.606 42.81-6.671 13.823 18.681 16.87 15.942 6.405-15.986-36.775 30.765 6.414 31.453 16.36-2.447 2.57-6.576 2.055-9.863 2.365-12.79.293-25.79-2.165-38.432.607-4.841.942-9.706 4.852-9.22 10.22.855 11.332 8.118 15.174 10.509 3.551 2.3-11.667 21.644-8.712 30.248-4.378 5.074 8.725-10.133 23.471-14.564 21.605-27.46-11.563-2.351 18.878 9.81 12.252 17.369-18.47 20.526-26.962 39.95-13.266 6.737 5.075 13.264 10.45 20.376 14.994 3.39 2.818 7.779 5.668 8.703 10.272-.499 3.51-4.968 4.119-7.824 4.812-20.31 2.67-34.144-6.743-52.87-7.574-10.465-.464-24.644-6.105-31.388 1.955-8.17 9.765 1.923 14.362 17.7 10.936 20.914-4.541 35.328 7.622 56.068 11.387 8.842.913 17.653 4.158 19.627 12.718-.45 3.454-4.88 3.876-7.633 4.496-21.134 4.055-38.632-13.491-55.666-4.087-2.345 1.88.008 4.801 2.334 5.15 16.773 5.088 37.173 9.226 51.775 15.693-26.372 8.562-56.103 8.358-80.55 14.256-4.952 1.101-10.026 5.035-9.62 10.588 11.212 9.854 63.104-10.315 82.006-6.084 21.623 4.84-41.458 27.906-54.84 28.938-5.01.248-13.012 1.206-14.732-4.069-2.398-7.354-4.624-10.368-8.142-2.01-7.015 16.664 4.432 20.572 18.675 17.71 29.168-5.991 55.28-13.584 74.659-18.083 11.263-2.597 5.091 14.67 1.955 17.88-8.621 8.82-20.93 12.756-32.092 16.913-12.253 4.564-24.452 9.2-35.977 15.7-16.019 9.033-11.719-9.841-19.008-9.059-17.629 1.892-1.256 18.687 7.538 19.422 27.417-.842 67.732-22.186 84.746-24.23 17.253-2.074 10.239 5.59-.453 11.12-8.267 4.276-27.257 9.855-27.4 19.383 5.59 6.318 35.991-12.643 45.14-11.867 15.77 1.338-33.121 27.669-39.903 31.14-15.404 7.873-31.42 15.867-43.183 28.89-11.863 14.02 2.638 12.001 6.896 4.501 9.002-15.855 31.586-20.349 46.75-25.724 13.447-4.767 40.49-22.684 50.344-14.668 20.04 16.3-16.537 44.831-28.367 58.912-8.792 10.798-14.039 24.386-15.672 37.986-.948 7.895-2.538 17.913 3.617 23.578 7.356 6.771 17.631 3.797 9.307-6.49-19.917-24.612 27.894-70.156 51.943-81.174 1.519-.428 3.375-1.376 4.885-.732-.118 5.277 0-.003-6.27 14.06-4.985 11.183-9.063 25.79.754 17.313 6.582-5.207 9.091-13.919 14.485-20.227 2.355-2.754 10.033-3.684 11.154.086 3.448 11.596-19.847 30.707-26.893 37.56-12.772-10.233-16.648 24.37 1.672 14.679 16.365-12.206 30.435-39.284 37.85-42.06 21.067-7.883 13.633 26.288 9.02 42.028-5.713 19.634-20.372 60.66-.083 73.582 6.702 3.803 16.304 5.673 22.465.936 11.706-9-14.46-13.863-15.855-17.871-3.305-9.495-1.34-19.881.785-29.428 3.743-16.82 9.878-33.596 18.355-48.797 2.844-5.098 7.724-10.855 14.247-10.101 26.82 12.97-2.014 30.868-8.178 39.023-7.936 10.5-6.745 17.225 7.719 14.277 20.803-4.24 14.44-33.628 26.164-41.966 3.828-1.329 6.897 2.59 9.13 5.144 13.937 18.357 22.087 50.717 17.811 71.875-9.816 34.813-28.936.101-25.553 28.113 46.37 20.19 37.912-60.066 29.785-84.45-2.108-6.346-6.122-12.442-5.705-19.354.571-2.851 4.176-.981 5.809-.19 18.336 10.55 32.04 42.222 17.894 46.62-7.532 4.379-4.365 7.683 1.137 10.019 4.642 1.496 11.12 1.864 13.92-2.99 5.02-17.966-12-37.153-8.621-52.825 3.68-17.068 34.29 40.094 37.295 49.643 3.998 13.034 8.44 26.52 7.478 40.092-1.092 15.416-22.12 5.61-16.773 13.31 32.962 47.479 23.432-42.235 19.34-66.437-2.324-13.746-14.242-31.583-11.139-43.457 4.659 1.535 7.725 5.874 10.967 9.342 5.374 6.1 9.62 13.04 13.896 19.912 3.016 4.016 5.734 8.856 10.483 11.013 3.28 1.027 5.046-2.8 4.369-5.513-1.505-8.955-6.385-17.29-12.977-23.471-4.224-4.026-9.2-8.543-9.847-14.672.121-3.386 4.558-2.626 6.543-1.406 7.225 3.702 10.098 11.762 13.812 18.433 9.022 18.272 15.333 38.203 28.045 54.413 5.615 7.176 14.092 13.614 23.705 12.484 17.603-6.627-10.839-19.967-16.92-28.377-11.457-16.5-21.105-34.796-24.96-54.666-5.283-26.4 19.577-24.668 29.269-9.434 4.924 8.007 8.346 17.084 14.762 24.079 2.579 3.026 7.537 3.785 10.377.685 8.536-7.692-3.355-10.941-9.684-19.701-7.74-13.5-13.535-25.819-.762-10.233 13.755 18.648 29.15 35.592 43.028 54.368 7.749 10.484-12.77 43.436 5.992 35.96 18.682-8.509 10.837-36.427 3.863-48.402-11.237-19.576-29.452-34.597-38.209-55.486-1.895-5.477-6.043-9.623-7.703-15.295-1.485-2.617 1.593-2.043 3.113-1.508 5.588 1.309 11.015 4.686 16.905 3.832 10.764-4.464-6.7-10.694-9.14-16.617-.493-3.705 4.073-5.021 6.903-5.668 30.997-.308 45.59 28.815 75.705 33.43 10.184 1.56 22.705 3.57 30.725-3.38 12.9-11.177 8.916-25.15-4.598-15.995-22.874 15.495-82.945-11.087-83.4-37.057-.189-10.76 23.235-3.376 32.236 7.654 6.414 11.378 28.163 8.642 17.074-3.177-7.512-7.71-16.21-16.166-26.789-17.506-17.783-2.254-23.656-16.595-7.86-20.006 8.352-1.349 16.52 2.236 24.07 5.004 12.556 5.404 56.777 21.95 61.988 3.877.532-5.913-3.756-11.322-8.57-14.27-2.344-1.667-6.03-.037-5.596 3.043-.52 1.497 2.158 4.33-.07 4.442-10.426 1.139-20.81-1.693-30.755-4.537-11.264-3.672-22.76-7.866-32.039-15.444-2.022-1.74-5.127-5.195-2.379-7.636 6.735-5.323 16.375-3.863 23.403-8.62 2.29-1.709.853-5.066-1.668-5.609-6.413-2.099-13.27-2.222-19.947-2.688 15.61-10.534 35.623-12.106 53.779-9.027 15.395 2.725 30.636 8.994 41.941 20.041-4.23.839-6.219 6.06-3.8 9.567 2.962 5.363 10.806 6.555 15.332 2.472 16.377-12.993-16.208-34.724-25.426-38.652-20.635-8.731-43.39-9.35-65.418-10.647-3.858-.568-7.762-1.08-11.469-2.336 9.067-3.574 18.666-5.5 28.158-7.51 1.774-.375 34.311-5.911 9.526-10.628-9.677.505-54.4 7.629-50.735-2.406 3.799-10.404 18.66-11.656 29.168-13.85 9.785-2.044 105.483-15.59 77.248-35.822-16.83-10.76-12.61 4.016-15.478 6.134-19.996 13.18-49.304 10.33-70.041 15.786-5.922 1.61-32.644-1.935-22.477-9.668 12.659-9.63 25.495-1.234 36.748-11.65 11.193-10.361 19.67-3.837 26.676-9.454 9.996-8.014-23.01-12.312-26.559-10.726-9.953 4.447-22.581 4.09-23.513-7.409 1.608-13.706 16.71-37.615 29.943-41.953 5.268.524 9.033 5.296 11.13 9.803-11.657-11.068-18.826 14.23-1.948 15.406 20.583-1.627 24.43-15.613 11.306-28.144-3.172-8.712 12.014 1.919 15.848-6.149 13.774-28.98-74.73-28.467-88.578-55.385-3.644-10.547 2.393-24.31 13.648-26.978 27.688 6.56 62 24.961 81.127 40.836 7.81 6.77 14.255 15.767 16.19 25.867-22.776 2.359 15.41 36.92 16.705-1.389.885-26.166-40.552-47.994-59.149-58.56-15.718-8.991-31.978-17.378-45.918-29.076 6.338-4.075 14.31-3.649 21.551-3.852 23.034.213 46.358 4.065 69.196-.527 7.677-1.544 29.744-10.427 22.89-18.905-13.712-15.435-16.746-.582-17.441-.326-16.589 7.435-35.437 7.582-53.157 6.614-16.673-.912-33.195-3.502-49.66-6.198 1.963-8.245 10.62-12.284 18.188-13.908 15.063-3.232 31.687-4.124 45.648 2.1 9.87 4.4 31.829 8.679 22.283-3.645-11.506-14.855-49.947-13.903-65.36-13.38-5.199.203-10.417 3.332-15.63 1.984 2.86-23.91 61.546-42.534 79.854-44.498 6.498-.58 14.234-.438 19.209 4.5-12.014 19.667 12.783 25.375 18.717 7.01 2.244-6.947-3.369-13.71-8.723-17.58-41.897-30.287-71.21 5.747-109.18 14.41-14.969 1.575-22.77.516-17.732-16.489 13.138-17.745 26.263-36.45 45.08-48.633 8.214-5.317 17.787-8.847 27.652-8.976-6.302 11.007 2.116 16.953 9.069 7.775 22.283-29.415-37.693-17.068-51.508-4.39-12.64 11.598-70.15 55.115-51.399 17.662 6.474-12.93 18.706-21.57 28.643-31.707 11.722-11.958 32.327-29.128 31.275-44.87-1.895-28.358-36.005-8.47-15.295-6.914 5.902 8.046-7.787 20.896-12.06 25.512-11.723 12.664-22.815 25.99-37.326 35.305-14.574 9.355-32.865 17.065-38.928-4.775-3.432-15.092 13.027-43.026 20.535-53.752 8.528-11.783 23.697-38.364 34.9-27.926 11.167 10.403 15.585 6.638 17.215-.465 2.53-11.026-7.77-14.485-15.709-13.266-39.351 6.044-55.235 46.967-76.674 72.194-3.37 4.554-6.922 10-12.693 11.566-4.422.644-6.214-4.645-6.767-8.125-4.867-32.745 24.444-45.53 32.894-65.484 5.318-17.09-14.532-8.066-19.594-2.301-9.628 10.966-13.348 25.501-20.111 38.17-4.445 7.055-16 21.803-23.781 16.726-6.438-14.169-7.445-30.325-5.485-45.535 2.088-16.2 21.823-54.555 22.922-50.267 1.54 4.084 9.695 6.91 10.35 2.525 4.321-28.967-24.346-15.468-34.428 1.42-14.647 28.736-9.062 61.766-21.084 88.61-6.57-8.197-7.18-19.453-7.889-29.383-1.528-23.213-.034-45.173-.572-64.727-.6-21.864-19.985-34.561-23.99-22.191-1.205 5.42 1.845 10.692 4.26 15.34 17.392 31.169 8.646 69.272 4.806 100.222-8.51-3.114-11.538-12.6-13.51-20.713-5.873-24.173 1.536-65.489-10.747-85.37-5.729-9.273-21.744-21.967-26.014-5.9-5.063 17.708 3.102 2.499 9.627 5.9 13.006 6.778 9.946 39.206 9.892 50.75-.047 10.037 3.74 48.997-5.029 53.57-3.359-18.863-11.996-42.385-16.978-24.131-2.447 7.862-2.648 16.255-2.317 24.425-10.578-4.405-15.694-16.057-18.719-26.111-11.898-33.582-4.771-66.055-1.84-84.256 1.176-7.298-.136-9.86-2.628-9.734zm56.191 138.892c105.65 0 196.937 70.427 196.938 151.336 0 80.91-98.542 149.726-204.192 149.727-23.031 0-45.328-2.682-66.258-7.496l-3.404-21.883c22.629 9.166 45.633 14.908 65.871 14.908 141.293 2.219 199.34-96.497 193.934-162.33-4.044-49.249-111.798-109.713-183.694-109.713-71.896 0-191.046 79.376-189.107 151.813 1.396 52.183 44.344 72.375 95.094 97.324-1.19 7.727-2.68 15.37-2.871 23.185-62.696-20.972-107.312-63.933-107.311-120.218 0-80.91 99.35-166.653 205-166.653zm-5.963 24.451c1.231-.01 2.459 0 3.684.026 98.877 2.157 181.447 73.043 177.308 110.969-3.436 31.496-36.268 103.31-85.069 117.743-23.591-47.114-39.064-72.063-79.265-74.624-67.98-4.331-87.018 11.596-101.231 74.755-50.553-25.762-88.929-32.136-85.817-94.47 3.04-60.907 92.817-133.767 170.39-134.399zm-4.814 42.461a187.72 187.72 0 0 0-5.791.065c-46.78 1.218-103.924 19.276-116.992 47.195-24.058 51.397 15.19 69.62 32.052 21.416 9.353-26.736 78.452-34.387 125.184-21.472 57.46 15.88 78.014-17.86 1.16-42.44-9.927-3.175-22.243-4.703-35.613-4.764zm-10.95 9.215c27.168-.057 58.327 3.189 84.198 19.961 9.169 5.944-9.097 20.532-18.46 16.791-92.915-37.235-148.815 6.114-159.855 32.504-9.722 23.242-32.997.607-8.54-30.316 30-28.852 60.809-38.267 97.28-38.887 1.773-.03 3.566-.049 5.377-.053zm11.91 110.358c76.146-.45 73.067 33.492 91.044 71.693-22.439 10.822-59.045 18.88-85.633 19.26-20.248.29-76.44-6.408-75.518-19.927-1.807-38.586 14.257-70.138 70.108-71.026zm-218.83 29.601c.184 0 .363.004.538.014 6.05.311 7.15 5.071 5.851 6.059-5.21 3.959-13.825 2.597-20.219 2.978-5.017.299-32.856 2.82-37.87 3.15 9.079-2.496 38.022-9.222 47.228-11.591 1.466-.378 2.765-.564 3.912-.604v.002c.191-.006.378-.008.56-.008zm414.436 26.385c5.027.275 18.809 7.23 18.62 9.582-4.716 9.752-30.067 16.596-32.286 11.607 1.198-3.214 10.686-20.65 13.666-21.189zm-394.433 1.648c3.317-.085 23.725 27.749 6.076 30.74-5.559.943-30.526-6.64-35.987-7.31 6.497-1.247 23.296-23.258 29.91-23.43zm421.662 13.163c-.055 7.775-1.815 16.937-4.373 24.388-1.497 4.36-3.549 19.148-7.622 21.88-2.847-3.548-11.243-23.056-11.226-27.255.046-11.792 11.802-13.582 23.22-19.013zm11.904 12.601v.002a2.73 2.73 0 0 1 .734.059c6.676 6.54 18.607 8.212 22.84 15.435 2.96 5.052-1.555 10.66-4.941 14.371-7.363 8.072-16.142 14.703-23.848 22.428-1.647 1.526-4.973 3.095-6.201.236-2.85-6.31-2.226-13.586-1.492-20.273 1.113-10.147 3.315-20.628 8.967-29.313.966-1.234 2.277-2.857 3.94-2.945zm-55.045 2.953a1.08 1.08 0 0 1 .213 0c5.883.765 12.282 4.268 11.021 10.846-.756 3.947-8.89 15.91-11.03 19.037-.748 1.673-2.258-1.62-2.962-2.37-2.836-5.31-10.737-14.28-8.533-18.513 1.033-1.983 8.91-8.786 11.291-9zm-413.943 2.992v.002c1.433.008 2.85.11 4.236.315 7.928 1.174 39.834 2.265 28.627 13.332-18.755 10.498-31.88 24.612-50.016 14.674-6.051-3.285-16.349-8.93-11.431-15.907 7.655-7.808 18.55-12.472 28.584-12.416zm46.496 15.086c.171-.008.323.002.455.034 7.214 1.65 11.16 14.408 1.996 19.32-3.677 1.918-30.597.173-34.434 1.748 3.288-2.54 26.678-20.84 31.983-21.102zm382.47.034c5.537 1.722 8.288 19.047 7.8 24.353-.382 4.142-1.955 15.122-3.8 18.649-1.947-3.39-11.922-14.333-14.566-17.168-.799-7.041 7.355-19.94 10.566-25.834zm18.073 20.703c3.302.481 5.852 24.417 4.914 26.482-1.403 3.09-6.436 14.918-9.381 16.795-2.914-9.445-8.782-37.933 4.467-43.277zm-415.084 4.808c6.542.156 14.056 1.057 18.726 6.135 8.356 15.987-15.445 4.172-20.539 2.09-3.087-1.228-6.87-2.58-8.508-5.633 2.623-2.438 6.924-2.37 10.32-2.592zm194.818 13.899c90.461 0 218.607 71.516 218.608 127.916 0 56.4-97.516 154.515-187.977 154.515-90.46 0-202.484-101.34-202.484-157.74 0-40.604 42.271-87.237 99.656-110.248l9.976 17.56c-46.84 23.813-95.197 32.644-94.261 88.266 1.018 60.542 110.47 148.6 187.183 153.643 69.154 4.545 174.393-79.855 174.393-143.403 0-59.794-153.133-117.748-205.115-117.748-12.323 0-27.629 4.121-43.76 10.748l-4.026-17.207c15.36-4.003 31.423-6.302 47.807-6.302zm-217.344 3.994c11.272.12 30.782 9.45 32.344 10.683 3.93 3.277 6.93 8.308 6.082 13.582-11.587 2.545-41.107-10.609-45.38-21.82 1.289-1.79 3.798-2.479 6.954-2.445zm450.557 3.482c3.363 1.168 10.8 21.745 9.734 25.559-1.242 2.148-20.87 7.63-23.13 8.058 2.89-21.733 7.89-17.852 13.396-33.617zM377.63 592.74c20.38-6.093 57.424-6.164 80.896 11.2 42.939 31.764-27.3 69.796-74.973 57.902-29.04-7.245-29.033-25.604-24.322-42.775 3.97-14.467-5.93-19.053-5.93-19.053zm-36.48 15.074c14.675-7.14 9.79 15.859 9.28 28.582 0 22.045 20.578 35.214 53.304 33.917 56.769-2.252 79.017-23.656 75.266-60.711 0 0 118.774 27.548 112.12 91.234-8.208 78.542-96.145 130.39-171.233 128.342-79.08-2.158-170.263-87.574-168.673-141.355 1.848-62.49 45.173-58.227 89.936-80.009zm-40.558 67.932a74.683 74.683 0 0 0-4.434.123c-17.68.964-5.255 25.693 23.54 47.62 156.688 119.31 166.81 16.457 128.277 17.628-42.33 1.286-52.467-3.073-71.047-12.344-35.272-17.6-36.967-31.002-47.721-38.593-13.935-9.837-15.59-14.37-28.615-14.434zm.553 8.207c.08-.004.164-.003.251.002 6.166.324 31.472 20.652 38.598 26.97 16.766 19.746 80.038 48.868 109.543 36.419 51.173 24.867-57.366 48.904-141.18-48.237-8.343-10.96-9.685-15.043-7.212-15.154z" transform="translate(1.033 -9.131) scale(.11468)"/><path style="fill:none;stroke-width:4.53543" d="M356.553 68.624a46.645 42.249 0 0 1-.026 1.406l-46.62-1.406zm27.84 32.236a27.596 40.784 0 0 1-.015 1.357l-27.581-1.357zm1.954 31.26a31.26 39.807 0 0 1-.018 1.324l-31.242-1.324z" transform="translate(1.033 -9.131) scale(.43342)"/></svg>